<svg width="68" height="68" viewBox="0 0 68 68" fill="none" xmlns="http://www.w3.org/2000/svg">
<g clip-path="url(#clip0_1307_3102)">
<path d="M64.3066 3.69141H3.69434V64.3036H64.3066V3.69141Z" fill="url(#paint0_linear_1307_3102)"/>
<path fill-rule="evenodd" clip-rule="evenodd" d="M55.2147 33.4695C55.2147 38.7194 51.6282 40.6449 49.4908 41.3258L49.0366 39.8814C51.1687 39.2027 53.7106 37.5393 53.7106 33.4695C53.7106 28.3241 49.4991 27.0395 47.6889 26.7259C47.2851 26.6562 47.0121 26.2737 47.0722 25.8662C46.8932 23.5219 45.8028 21.8358 44.146 21.348C42.7697 20.9435 41.2912 21.4798 40.3842 22.7175C40.2195 22.9424 39.9413 23.0568 39.6683 23.0167C39.393 22.9757 39.1629 22.7841 39.0704 22.5198C38.4454 20.7397 37.54 19.2423 36.3795 18.069C34.9552 16.6298 31.0475 13.5348 25.5244 15.889C22.335 17.2494 19.8366 21.1685 19.8366 24.8103C19.8366 25.2155 19.8607 25.6238 19.9088 26.0245C19.9532 26.4017 19.7133 26.7539 19.3478 26.8479C17.4586 27.3334 14.2902 28.8301 14.2902 33.4059C14.2902 33.5544 14.294 33.6998 14.3015 33.8429C14.4429 36.7887 16.5953 39.3193 19.5373 39.9988L19.2004 41.4751C15.6056 40.6441 12.9726 37.5371 12.7989 33.9187C12.7899 33.7536 12.7861 33.5809 12.7861 33.4059C12.7861 28.1726 16.2997 26.2427 18.3566 25.5625C18.3408 25.3117 18.3325 25.0603 18.3325 24.8103C18.3325 20.5352 21.1723 16.1003 24.9386 14.4938C29.3516 12.6107 34.0279 13.5477 37.4444 16.9994C38.5071 18.0735 39.378 19.3763 40.042 20.8844C41.3062 19.8141 42.9781 19.4263 44.5679 19.8944C46.7488 20.536 48.2086 22.5599 48.5342 25.3542C50.6678 25.8563 55.2147 27.6167 55.2147 33.4695ZM46.8037 50.1441L41.5492 53.0883V46.5379L46.8037 43.5512V50.1441ZM33.2487 50.1252L28.0054 53.1467V46.5121L33.2487 43.5346V50.1252ZM27.2511 45.2017L22.0063 42.2583L27.2601 39.3148L32.4636 42.2408L27.2511 45.2017ZM21.2121 43.5467L26.5013 46.5152V53.1505L21.2121 50.1237V43.5467ZM34.0226 27.9749L39.2366 30.8881L34.0008 33.8164L28.8064 30.9033L34.0226 27.9749ZM35.5402 42.2424L40.7851 39.3027L46.0209 42.2568L40.7971 45.226L35.5402 42.2424ZM34.7528 43.5338L40.045 46.5379V53.0883L34.7528 50.1191V43.5338ZM40.0345 37.99L34.7528 40.9494V35.1283L40.0345 32.175V37.99ZM28.013 32.1917L33.2487 35.1276V40.9471L28.013 38.0029V32.1917ZM47.9348 41.6C47.9311 41.5978 47.9266 41.597 47.9228 41.5947L47.9236 41.5932L41.5386 37.9915V30.8881C41.5386 30.6192 41.398 30.3715 41.1679 30.2352C41.1618 30.2322 41.1566 30.2306 41.1506 30.2276L41.1521 30.2253L34.3874 26.4464C34.1587 26.3199 33.882 26.3199 33.6564 26.4472L26.8954 30.242L26.8962 30.2435C26.8909 30.2466 26.8849 30.2473 26.8796 30.2503C26.6502 30.3867 26.5088 30.6351 26.5088 30.9033V38.0014L20.0946 41.5955L20.0961 41.597C20.0901 41.6 20.0841 41.6016 20.0788 41.6046C19.8494 41.7402 19.708 41.9894 19.708 42.2575V50.5645C19.708 50.8372 19.8532 51.0887 20.0886 51.2227L26.8758 55.1077L26.8819 55.1115C26.9977 55.1774 27.1255 55.21 27.2534 55.21C27.382 55.21 27.5113 55.1767 27.6271 55.11L34.0061 51.4341L40.4316 55.0388L40.4324 55.0365C40.5459 55.1001 40.6708 55.1342 40.7971 55.1342C40.9227 55.1342 41.049 55.1024 41.1626 55.0388L47.9221 51.2515C48.1604 51.1175 48.3078 50.8645 48.3078 50.5895V42.2545C48.3078 41.9848 48.1665 41.7364 47.9348 41.6Z" fill="white"/>
</g>
<defs>
<linearGradient id="paint0_linear_1307_3102" x1="3.69434" y1="6064.92" x2="6064.92" y2="3.69141" gradientUnits="userSpaceOnUse">
<stop stop-color="#2E27AD"/>
<stop offset="1" stop-color="#527FFF"/>
</linearGradient>
<clipPath id="clip0_1307_3102">
<rect width="60.6122" height="60.6122" fill="white" transform="translate(3.69434 3.69141)"/>
</clipPath>
</defs>
</svg>
