<svg width="68" height="68" viewBox="0 0 68 68" fill="none" xmlns="http://www.w3.org/2000/svg">
<g clip-path="url(#clip0_1577_12851)">
<path d="M62.4694 5.53125H5.53064V62.47H62.4694V5.53125Z" fill="#242F3E"/>
<path fill-rule="evenodd" clip-rule="evenodd" d="M52.0763 39.554C52.5902 40.2216 51.507 42.9689 51.0215 44.1988C50.8735 44.5717 51.1895 44.7183 51.5198 44.4379C53.6735 42.6102 54.2315 38.7796 53.7888 38.2273C53.3518 37.6779 49.5881 37.2067 47.2935 38.8423C46.939 39.0942 47.0003 39.4415 47.3917 39.396C48.6842 39.2366 51.5639 38.8878 52.0763 39.554ZM50.8778 42.4137C51.6151 41.8757 50.9831 41.0743 50.2315 41.3888C45.2309 43.4728 39.8018 44.482 34.8581 44.482C27.5372 44.482 20.4426 42.5048 14.7074 39.2223C14.2064 38.9348 13.8348 39.443 14.2533 39.8116C19.5672 44.5319 26.5934 47.3688 34.3912 47.3688C39.9569 47.3688 46.4209 45.6493 50.8778 42.4137ZM47.8259 34.9903C47.117 34.9903 46.4237 34.9149 45.749 34.7612C45.0715 34.606 44.5533 34.4309 44.1932 34.2302C43.9725 34.1106 43.8345 33.9854 43.7789 33.863C43.7248 33.7377 43.6964 33.6153 43.6964 33.4929V32.8252C43.6964 32.5491 43.8003 32.4082 44.0038 32.4082C44.0821 32.4082 44.1647 32.4267 44.2501 32.4551C44.3369 32.4879 44.4508 32.5334 44.5932 32.5946C45.0487 32.7954 45.5426 32.9477 46.0793 33.0559C46.6145 33.1626 47.1483 33.2167 47.6821 33.2167C48.5319 33.2167 49.1881 33.0715 49.6522 32.7783C50.1176 32.4879 50.3483 32.0737 50.3483 31.5356C50.3483 31.1655 50.2273 30.8594 49.9824 30.6118C49.739 30.3641 49.2863 30.1377 48.6273 29.9214L46.67 29.3221C45.6778 29.0146 44.959 28.5691 44.5106 27.9869C44.0622 27.4004 43.8387 26.7641 43.8387 26.0695C43.8387 25.5186 43.9597 25.0318 44.206 24.6076C44.448 24.1848 44.7682 23.8247 45.1682 23.5243C45.5739 23.2254 46.0423 23.0005 46.5761 22.8439C47.1084 22.6916 47.675 22.6133 48.2728 22.6133C48.5718 22.6133 48.875 22.6332 49.1839 22.6716C49.4899 22.7087 49.7803 22.7599 50.055 22.8211C50.3297 22.8852 50.586 22.9535 50.8208 23.0289C51.0571 23.1072 51.245 23.1841 51.3888 23.2595C51.5753 23.3663 51.7077 23.4745 51.7888 23.5827C51.8671 23.6894 51.907 23.8346 51.907 24.0211V24.6417C51.907 24.9193 51.8045 25.056 51.5981 25.056C51.4885 25.056 51.3176 25.0047 51.0799 24.8965C50.3112 24.5563 49.4429 24.3898 48.4878 24.3898C47.7163 24.3898 47.117 24.5122 46.6928 24.757C46.2672 25.0047 46.0551 25.3962 46.0551 25.9342C46.0551 26.3015 46.1889 26.6132 46.4579 26.8666C46.7255 27.12 47.2195 27.362 47.944 27.594L49.8543 28.1947C50.8294 28.4993 51.5255 28.9235 51.9411 29.4587C52.3596 29.9982 52.5689 30.6118 52.5689 31.3021C52.5689 31.8729 52.4507 32.384 52.213 32.8366C51.9767 33.2907 51.6507 33.6765 51.2322 33.9996C50.8166 34.3227 50.3184 34.5676 49.7362 34.737C49.1525 34.9078 48.5162 34.9903 47.8259 34.9903ZM30.5094 34.643C30.2731 34.643 30.1008 34.6046 29.9898 34.5192C29.8788 34.4323 29.7848 34.2615 29.7065 33.9996L26.5436 23.8118C26.4681 23.5499 26.4268 23.3748 26.4268 23.2837C26.4268 23.0688 26.5379 22.9606 26.7585 22.9606H28.0781C28.33 22.9606 28.5065 23.0033 28.6104 23.0887C28.7115 23.1713 28.8012 23.3421 28.8795 23.6069L31.1442 32.3185L33.2467 23.6069C33.3093 23.3421 33.3947 23.1713 33.5043 23.0887C33.6139 23.0033 33.7947 22.9606 34.0453 22.9606H35.1342C35.3833 22.9606 35.5641 23.0033 35.6751 23.0887C35.7847 23.1713 35.8716 23.3421 35.9342 23.6069L38.0594 32.4338L40.3939 23.6069C40.4722 23.3421 40.5619 23.1713 40.6644 23.0887C40.7683 23.0033 40.9434 22.9606 41.1953 22.9606H42.4451C42.6672 22.9606 42.7768 23.0688 42.7768 23.2837C42.7768 23.3421 42.7669 23.4133 42.754 23.4887C42.7355 23.5684 42.7071 23.6752 42.6572 23.8118L39.4032 33.9996C39.3249 34.2615 39.2295 34.4323 39.1185 34.5192C39.0089 34.6046 38.8352 34.643 38.6004 34.643H37.4431C37.1925 34.643 37.0118 34.6003 36.9022 34.5092C36.7926 34.4167 36.7057 34.2373 36.6431 33.9783L34.542 25.4944L32.4681 33.9783C32.4054 34.2373 32.3172 34.4167 32.2076 34.5092C32.0965 34.6003 31.9172 34.643 31.6652 34.643H30.5094ZM19.6796 33.2167C20.1223 33.2167 20.5849 33.1356 21.0732 32.9747C21.56 32.8124 21.9842 32.5334 22.3458 32.132C22.5678 31.8872 22.7187 31.6068 22.807 31.2908C22.8924 30.9776 22.9337 30.5975 22.9337 30.1506V29.5982C22.5436 29.5057 22.1308 29.4331 21.6967 29.379C21.2639 29.3264 20.844 29.2979 20.434 29.2979C19.5387 29.2979 18.8682 29.4744 18.4298 29.8288C17.9899 30.1819 17.7679 30.6872 17.7679 31.352C17.7679 31.9655 17.9344 32.4281 18.2647 32.7441C18.5949 33.0601 19.0675 33.2167 19.6796 33.2167ZM25.1543 31.2125C25.1543 31.7036 25.2041 32.0936 25.3066 32.3868C25.4105 32.6801 25.5557 32.9961 25.7436 33.332C25.8062 33.4402 25.8375 33.5398 25.8375 33.6295C25.8375 33.7704 25.7507 33.9014 25.5785 34.0224L24.7287 34.5775C24.6034 34.653 24.4852 34.6928 24.3756 34.6928C24.2319 34.6928 24.0995 34.6316 23.9742 34.5092C23.7835 34.3227 23.624 34.1206 23.4917 33.8971C23.355 33.6751 23.2183 33.4146 23.0774 33.1228C22.0226 34.337 20.7031 34.9448 19.1145 34.9448C17.9814 34.9448 17.0846 34.6316 16.4227 33.9996C15.7636 33.3704 15.4334 32.5249 15.4334 31.4658C15.4334 30.3456 15.8419 29.4402 16.6618 28.757C17.4775 28.0737 18.5807 27.7307 19.9629 27.7307C20.4198 27.7307 20.8952 27.7662 21.3906 27.8346C21.8846 27.9029 22.4013 28.0011 22.9337 28.1235V27.157C22.9337 26.1577 22.7244 25.4545 22.2988 25.046C21.8746 24.6389 21.1444 24.4367 20.1066 24.4367C19.6326 24.4367 19.1487 24.4923 18.6533 24.6076C18.1593 24.7229 17.6739 24.8723 17.2028 25.056C16.9821 25.1485 16.8241 25.2068 16.7316 25.2296C16.6377 25.2524 16.5665 25.2638 16.5195 25.2638C16.3316 25.2638 16.2348 25.1271 16.2348 24.8481V24.2047C16.2348 23.9884 16.269 23.8346 16.3316 23.7449C16.3942 23.651 16.5195 23.5585 16.7088 23.4674C17.18 23.2353 17.7465 23.0361 18.4056 22.8681C19.0675 22.6987 19.7664 22.6133 20.5066 22.6133C22.1095 22.6133 23.2853 22.9734 24.0326 23.6852C24.7785 24.3997 25.1543 25.4787 25.1543 26.9235V31.2125Z" fill="white"/>
</g>
<defs>
<clipPath id="clip0_1577_12851">
<rect width="56.9388" height="56.9388" fill="white" transform="translate(5.53064 5.53125)"/>
</clipPath>
</defs>
</svg>
