<svg width="68" height="68" viewBox="0 0 68 68" fill="none" xmlns="http://www.w3.org/2000/svg">
<g clip-path="url(#clip0_1307_1916)">
<path d="M23.9008 6.24678H41.8365L23.2174 61.2272C22.8251 62.3856 21.7351 63.1659 20.5083 63.1659H6.54988C5.63021 63.1659 4.7668 62.7246 4.23037 61.9801C3.69394 61.2356 3.55018 60.2792 3.84416 59.4107L21.1909 8.18548C21.5831 7.02653 22.6735 6.24609 23.9008 6.24609V6.24678Z" fill="url(#paint0_linear_1307_1916)"/>
<path d="M49.9637 43.125H21.522C20.9808 43.1244 20.4945 43.4539 20.2959 43.9556C20.0974 44.4573 20.2272 45.029 20.623 45.3967L38.899 62.3974C39.4311 62.892 40.1317 63.1669 40.8594 63.1669H56.9642L49.9637 43.125Z" fill="#0078D4"/>
<path d="M23.901 6.24611C22.6592 6.24139 21.5586 7.04226 21.185 8.22259L3.86577 59.3634C3.55191 60.2353 3.68409 61.2049 4.21999 61.9618C4.75589 62.7187 5.62825 63.1677 6.55771 63.1653H20.8764C21.9621 62.9719 22.8595 62.2113 23.2253 61.1744L26.6791 51.0298L39.016 62.498C39.533 62.9241 40.1815 63.1598 40.8524 63.1653H56.8973L49.8602 43.1233L29.3462 43.1281L41.9015 6.24611H23.901Z" fill="url(#paint1_linear_1307_1916)"/>
<path d="M46.8091 8.18205C46.4174 7.02497 45.3286 6.24609 44.1034 6.24609H24.1143C25.3395 6.24609 26.4281 7.0251 26.82 8.18205L44.1674 59.4093C44.4616 60.278 44.318 61.2346 43.7816 61.9794C43.2451 62.7242 42.3816 63.1659 41.4617 63.1659H61.4515C62.3713 63.1659 63.2346 62.7239 63.7709 61.9791C64.3071 61.2344 64.4507 60.2778 64.1565 59.4093L46.8091 8.18205Z" fill="url(#paint2_linear_1307_1916)"/>
</g>
<defs>
<linearGradient id="paint0_linear_1307_1916" x1="2253" y1="428.106" x2="507.022" y2="5603.6" gradientUnits="userSpaceOnUse">
<stop stop-color="#114A8B"/>
<stop offset="1" stop-color="#0669BC"/>
</linearGradient>
<linearGradient id="paint1_linear_1307_1916" x1="3180.68" y1="2983.84" x2="2801.24" y2="3112.58" gradientUnits="userSpaceOnUse">
<stop stop-opacity="0.3"/>
<stop offset="0.071" stop-opacity="0.2"/>
<stop offset="0.321" stop-opacity="0.1"/>
<stop offset="0.623" stop-opacity="0.05"/>
<stop offset="1" stop-opacity="0"/>
</linearGradient>
<linearGradient id="paint2_linear_1307_1916" x1="1522.44" y1="268.081" x2="3428.34" y2="5362.9" gradientUnits="userSpaceOnUse">
<stop stop-color="#3CCBF4"/>
<stop offset="1" stop-color="#2892DF"/>
</linearGradient>
<clipPath id="clip0_1307_1916">
<rect width="60.6122" height="58.7755" fill="white" transform="translate(3.69434 4.61328)"/>
</clipPath>
</defs>
</svg>
  