<svg width="68" height="68" viewBox="0 0 68 68" fill="none" xmlns="http://www.w3.org/2000/svg">
<g clip-path="url(#clip0_1614_5109)">
<path d="M22.9118 63.3249C21.5106 63.3249 20.1873 62.7022 19.2921 61.5735L5.66971 44.6428C4.77452 43.5141 4.42423 42.074 4.77452 40.6728L9.63967 19.5386C9.95104 18.1374 10.8852 17.0087 12.1696 16.386L31.8637 6.96705C32.4864 6.65568 33.187 6.5 33.8876 6.5C34.5882 6.5 35.2887 6.65568 35.9115 6.96705L55.6056 16.3471C56.89 16.9698 57.8241 18.0985 58.1355 19.4997L63.0006 40.6339C63.312 42.035 63.0006 43.4751 62.1054 44.6038L48.483 61.5346C47.5878 62.6244 46.2645 63.286 44.8634 63.286L22.9118 63.3249Z" fill="#326DE6"/>
<path d="M33.8488 7.47383C34.3937 7.47383 34.9386 7.59059 35.4446 7.82412L55.1387 17.2041C56.1506 17.7101 56.9291 18.6442 57.1626 19.734L62.0277 40.8682C62.3002 41.9969 62.0277 43.1646 61.2882 44.0597L47.6658 60.9905C46.9652 61.8857 45.8754 62.3916 44.7467 62.3916H22.9119C21.7832 62.3916 20.6934 61.8857 19.9928 60.9905L6.37043 44.0597C5.66985 43.1646 5.3974 41.9969 5.63093 40.8682L10.4961 19.734C10.7685 18.6053 11.508 17.6712 12.52 17.2041L32.2141 7.7852C32.7201 7.59059 33.3039 7.47383 33.8488 7.47383ZM33.8488 5.64453C33.0315 5.64453 32.2141 5.83914 31.4357 6.18943L11.7416 15.6084C10.1847 16.3479 9.09492 17.7101 8.7057 19.3837L3.84055 40.5179C3.45134 42.1915 3.84055 43.9041 4.93035 45.2663L18.5528 62.197C19.6036 63.5204 21.1994 64.2599 22.873 64.2599H44.7078C46.3814 64.2599 47.9772 63.5204 49.0281 62.197L62.6505 45.2663C63.7403 43.943 64.1295 42.1915 63.7403 40.5179L58.8751 19.3837C58.4859 17.7101 57.3961 16.3479 55.8393 15.6084L36.223 6.18943C35.4835 5.83914 34.6661 5.64453 33.8488 5.64453Z" fill="white"/>
<path d="M53.5817 39.1921C53.5428 39.1921 53.5428 39.1921 53.5817 39.1921H53.5428C53.5039 39.1921 53.4649 39.1921 53.4649 39.1532C53.3871 39.1532 53.3093 39.1142 53.2314 39.1142C52.959 39.0753 52.7254 39.0364 52.4919 39.0364C52.3752 39.0364 52.2584 39.0364 52.1027 38.9975H52.0638C51.2464 38.9196 50.5848 38.8418 49.962 38.6472C49.6896 38.5304 49.6117 38.3747 49.5339 38.2191C49.5339 38.1801 49.495 38.1801 49.495 38.1412L48.989 37.9855C49.2225 36.1952 49.1447 34.3269 48.7166 32.4976C48.2884 30.6683 47.5489 28.9558 46.537 27.399L46.9262 27.0487V26.9708C46.9262 26.7762 46.9651 26.5816 47.1208 26.387C47.5878 25.9589 48.1717 25.6086 48.8722 25.1805C48.989 25.1026 49.1058 25.0637 49.2225 24.9858C49.4561 24.8691 49.6507 24.7523 49.8842 24.5966C49.9231 24.5577 50.001 24.5188 50.0788 24.441C50.1177 24.402 50.1566 24.402 50.1566 24.3631C50.7015 23.8961 50.8183 23.1176 50.4291 22.6117C50.2345 22.3392 49.8842 22.1835 49.5339 22.1835C49.2225 22.1835 48.9501 22.3003 48.6776 22.4949C48.6387 22.5338 48.6387 22.5338 48.5998 22.5727C48.522 22.6117 48.483 22.6895 48.4052 22.7284C48.2106 22.923 48.0549 23.0787 47.8992 23.2733C47.8214 23.3512 47.7435 23.4679 47.6268 23.5458C47.0819 24.1296 46.5759 24.5966 46.0699 24.9469C45.9532 25.0248 45.8364 25.0637 45.7196 25.0637C45.6418 25.0637 45.5639 25.0637 45.4861 25.0248H45.4083L44.9412 25.3361C44.4352 24.7912 43.8903 24.3242 43.3454 23.8571C41.0102 22.0278 38.1689 20.8991 35.2109 20.6267L35.172 20.1207C35.1331 20.0818 35.1331 20.0818 35.0941 20.0429C34.9774 19.9261 34.8217 19.8093 34.7828 19.5369C34.7439 18.9141 34.8217 18.2136 34.8995 17.4351V17.3962C34.8995 17.2795 34.9385 17.1238 34.9774 17.007C35.0163 16.7735 35.0552 16.54 35.0941 16.2675V16.034V15.9172C35.0941 15.2166 34.5492 14.6328 33.8876 14.6328C33.5762 14.6328 33.2648 14.7885 33.0313 15.022C32.7978 15.2556 32.681 15.5669 32.681 15.9172V15.9951V16.2286C32.681 16.501 32.7199 16.7346 32.7978 16.9681C32.8367 17.0848 32.8367 17.2016 32.8756 17.3573V17.3962C32.9535 18.1746 33.0702 18.8752 32.9924 19.498C32.9535 19.7704 32.7978 19.8872 32.681 20.0039C32.6421 20.0429 32.6421 20.0429 32.6032 20.0818L32.5643 20.5878C31.8637 20.6656 31.1631 20.7434 30.4625 20.8991C27.4656 21.5608 24.8189 23.0787 22.7561 25.2583L22.3669 24.9858H22.2891C22.2112 24.9858 22.1334 25.0248 22.0555 25.0248C21.9388 25.0248 21.822 24.9859 21.7052 24.908C21.1993 24.5577 20.6933 24.0517 20.1484 23.4679C20.0706 23.3901 19.9927 23.2733 19.876 23.1955C19.7203 23.0009 19.5646 22.8452 19.37 22.6506C19.3311 22.6117 19.2532 22.5727 19.1754 22.4949C19.1365 22.456 19.0975 22.456 19.0975 22.4171C18.864 22.2224 18.5526 22.1057 18.2413 22.1057C17.891 22.1057 17.5407 22.2614 17.3461 22.5338C16.9569 23.0398 17.0736 23.8182 17.6185 24.2853C17.6574 24.2853 17.6574 24.3242 17.6964 24.3242C17.7742 24.3631 17.8131 24.441 17.891 24.4799C18.1245 24.6356 18.3191 24.7523 18.5526 24.8691C18.6694 24.908 18.7862 24.9858 18.9029 25.0637C19.6035 25.4918 20.1873 25.8421 20.6544 26.2703C20.849 26.4649 20.849 26.6595 20.849 26.8541V26.9319L21.2382 27.2822C21.1604 27.399 21.0825 27.4768 21.0436 27.5936C19.0975 30.6683 18.358 34.288 18.864 37.8688L18.358 38.0245C18.358 38.0634 18.3191 38.0634 18.3191 38.1023C18.2413 38.258 18.1245 38.4137 17.891 38.5304C17.3072 38.725 16.6066 38.8029 15.7892 38.8807H15.7503C15.6335 38.8807 15.4779 38.8807 15.3611 38.9196C15.1276 38.9196 14.894 38.9586 14.6216 38.9975C14.5437 38.9975 14.4659 39.0364 14.3881 39.0364C14.3491 39.0364 14.3102 39.0364 14.2713 39.0753C13.5707 39.231 13.1426 39.8927 13.2593 40.5154C13.3761 41.0603 13.8821 41.4106 14.5048 41.4106C14.6216 41.4106 14.6994 41.4106 14.8162 41.3717C14.8551 41.3717 14.894 41.3717 14.894 41.3328C14.9719 41.3328 15.0497 41.2938 15.1276 41.2938C15.4 41.216 15.5946 41.1381 15.8281 41.0214C15.9449 40.9825 16.0617 40.9046 16.1784 40.8657H16.2174C16.9569 40.5932 17.6185 40.3597 18.2413 40.2819H18.3191C18.5526 40.2819 18.7083 40.3986 18.8251 40.4765C18.864 40.4765 18.864 40.5154 18.9029 40.5154L19.4478 40.4376C20.3819 43.3177 22.1723 45.8865 24.5465 47.7547C25.0914 48.1829 25.6363 48.5332 26.2201 48.8835L25.9866 49.3894C25.9866 49.4284 26.0255 49.4284 26.0255 49.4673C26.1033 49.623 26.1812 49.8176 26.1033 50.09C25.8698 50.6738 25.5195 51.2577 25.0914 51.9193V51.9582C25.0136 52.075 24.9357 52.1528 24.8579 52.2696C24.7022 52.4642 24.5854 52.6588 24.4297 52.8923C24.3908 52.9313 24.3519 53.0091 24.313 53.087C24.313 53.1259 24.274 53.1648 24.274 53.1648C23.9627 53.8265 24.1962 54.566 24.78 54.8384C24.9357 54.9162 25.0914 54.9552 25.2471 54.9552C25.7141 54.9552 26.1812 54.6438 26.4147 54.2157C26.4147 54.1767 26.4536 54.1378 26.4536 54.1378C26.4926 54.06 26.5315 53.9821 26.5704 53.9432C26.6872 53.6708 26.7261 53.4762 26.8039 53.2426C26.8428 53.1259 26.8818 53.0091 26.9207 52.8923C27.1931 52.1139 27.3877 51.4912 27.738 50.9463C27.8937 50.7128 28.0883 50.6738 28.244 50.596C28.2829 50.596 28.2829 50.596 28.3219 50.5571L28.5943 50.0511C30.3068 50.7128 32.1751 51.0631 34.0433 51.0631C35.172 51.0631 36.3396 50.9463 37.4294 50.6738C38.13 50.5182 38.7917 50.3236 39.4533 50.09L39.6868 50.5182C39.7258 50.5182 39.7258 50.5182 39.7647 50.5571C39.9593 50.596 40.115 50.6738 40.2707 50.9074C40.582 51.4523 40.8156 52.1139 41.088 52.8534V52.8923C41.1269 53.0091 41.1658 53.1259 41.2048 53.2426C41.2826 53.4762 41.3215 53.7097 41.4383 53.9432C41.4772 54.0211 41.5161 54.06 41.5551 54.1378C41.5551 54.1767 41.594 54.2157 41.594 54.2157C41.8275 54.6827 42.2946 54.9552 42.7616 54.9552C42.9173 54.9552 43.073 54.9162 43.2287 54.8384C43.5011 54.6827 43.7346 54.4492 43.8125 54.1378C43.8903 53.8265 43.8903 53.4762 43.7346 53.1648C43.7346 53.1259 43.6957 53.1259 43.6957 53.087C43.6568 53.0091 43.6179 52.9313 43.579 52.8923C43.4622 52.6588 43.3065 52.4642 43.1508 52.2696C43.073 52.1528 42.9951 52.075 42.9173 51.9582V51.9193C42.4892 51.2577 42.1 50.6738 41.9054 50.09C41.8275 49.8176 41.9054 49.6619 41.9443 49.4673C41.9443 49.4284 41.9832 49.4284 41.9832 49.3894L41.7886 48.9224C43.8514 47.7158 45.6029 46.0033 46.9262 43.9016C47.6268 42.8118 48.1717 41.6052 48.5609 40.3986L49.0279 40.4765C49.0669 40.4765 49.0668 40.4376 49.1058 40.4376C49.2615 40.3597 49.3782 40.243 49.6117 40.243H49.6896C50.3123 40.3208 50.974 40.5543 51.7135 40.8268H51.7524C51.8692 40.8657 51.9859 40.9435 52.1027 40.9825C52.3362 41.0992 52.5308 41.1771 52.8033 41.2549C52.8811 41.2549 52.959 41.2938 53.0368 41.2938C53.0757 41.2938 53.1147 41.2938 53.1536 41.3328C53.2703 41.3717 53.3482 41.3717 53.4649 41.3717C54.0488 41.3717 54.5547 40.9825 54.7104 40.4765C54.7104 40.0094 54.2823 39.3867 53.5817 39.1921ZM35.5612 37.2849L33.8487 38.1023L32.1361 37.2849L31.708 35.4557L32.8756 33.9766H34.7828L35.9504 35.4557L35.5612 37.2849ZM45.7196 33.2371C46.031 34.5605 46.1088 35.8838 45.9921 37.1682L40.0371 35.4557C39.4922 35.3 39.1809 34.7551 39.2976 34.2102C39.3366 34.0545 39.4144 33.8988 39.5312 33.782L44.2406 29.5396C44.9023 30.6294 45.4083 31.8749 45.7196 33.2371ZM42.3724 27.2044L37.2737 30.824C36.8456 31.0965 36.2618 31.0186 35.9115 30.5905C35.7947 30.4737 35.7558 30.3181 35.7169 30.1624L35.3666 23.8182C38.0522 24.1296 40.5042 25.3361 42.3724 27.2044ZM31.0853 24.0128C31.5134 23.935 31.9026 23.8571 32.3307 23.7793L31.9804 30.0067C31.9415 30.5516 31.5134 31.0186 30.9296 31.0186C30.7739 31.0186 30.5793 30.9797 30.4625 30.9019L25.286 27.2044C26.8818 25.6086 28.8668 24.5188 31.0853 24.0128ZM23.4178 29.5396L28.0494 33.6653C28.4775 34.0156 28.5165 34.6772 28.1662 35.1054C28.0494 35.261 27.8937 35.3778 27.6991 35.4167L21.6663 37.1682C21.4328 34.5215 22.0166 31.836 23.4178 29.5396ZM22.3669 40.0873L28.5554 39.0364C29.0614 38.9975 29.5284 39.3478 29.6452 39.8537C29.6841 40.0873 29.6841 40.2819 29.6063 40.4765L27.2321 46.1979C25.0525 44.7967 23.301 42.6561 22.3669 40.0873ZM36.5731 47.8326C35.678 48.0272 34.7828 48.144 33.8487 48.144C32.4864 48.144 31.1631 47.9104 29.9176 47.5212L32.9924 41.9555C33.3038 41.6052 33.8097 41.4495 34.2379 41.683C34.4325 41.7998 34.5882 41.9555 34.7049 42.1112L37.7019 47.5212C37.3516 47.638 36.9624 47.7158 36.5731 47.8326ZM44.1628 42.4225C43.1898 43.9794 41.9054 45.2249 40.4263 46.1979L37.9743 40.3208C37.8575 39.8537 38.0522 39.3478 38.5192 39.1142C38.6749 39.0364 38.8695 38.9975 39.0641 38.9975L45.2915 40.0484C45.058 40.9046 44.6688 41.683 44.1628 42.4225Z" fill="white"/>
</g>
<defs>
<clipPath id="clip0_1614_5109">
<rect width="60.6122" height="60.6122" fill="white" transform="translate(3.69336 3.69141)"/>
</clipPath>
</defs>
</svg>
