<svg width="74" height="74" viewBox="0 0 74 74" fill="none" xmlns="http://www.w3.org/2000/svg">
<path d="M31.029 15H8.97111C8.43479 15 8 15.4249 8 15.9492V32.0508C8 32.5751 8.43479 33 8.97111 33H31.029C31.5653 33 32 32.5751 32 32.0508V15.9492C32 15.4249 31.5653 15 31.029 15Z" fill="url(#paint0_linear_2038_7820)"/>
<path d="M65.0288 25H42.971C42.4347 25 42 25.4249 42 25.9492V42.0508C42 42.5751 42.4347 43 42.971 43H65.0288C65.5653 43 66 42.5751 66 42.0508V25.9492C66 25.4249 65.5653 25 65.0288 25Z" fill="url(#paint1_linear_2038_7820)"/>
<path d="M34.6041 41H14.3959C13.625 41 13 41.6374 13 42.4237V57.5763C13 58.3626 13.625 59 14.3959 59H34.6041C35.375 59 36 58.3626 36 57.5763V42.4237C36 41.6374 35.375 41 34.6041 41Z" fill="url(#paint2_linear_2038_7820)"/>
<path d="M51.205 36.8787L51.9841 34.7039L22.996 24L22.2171 26.1408L51.205 36.8787ZM53 36.5729L51.9162 34.5341L24.5876 48.9758L25.6375 51.0146L53 36.5729ZM23.6056 52L25.8745 51.5922L21.2689 25.3932L19 25.801L23.6056 52Z" fill="#773ADC"/>
<path d="M56.1436 37.4545C58.0084 36.4186 58.5604 34.2561 57.3765 32.6243C56.1927 30.9928 53.7212 30.5096 51.8564 31.5455C49.9917 32.5815 49.4396 34.7441 50.6234 36.3756C51.8075 38.0074 54.2789 38.4903 56.1436 37.4545Z" fill="white"/>
<path d="M22.1436 26.4545C24.0084 25.4185 24.5604 23.256 23.3765 21.6243C22.1926 19.9926 19.7212 19.5097 17.8564 20.5456C15.9916 21.5815 15.4396 23.744 16.6235 25.3757C17.8074 27.0074 20.2788 27.4903 22.1436 26.4545Z" fill="white"/>
<path d="M26.3756 53.3765C28.0074 52.1926 28.4903 49.7211 27.4545 47.8565C26.4184 45.9916 24.256 45.4396 22.6243 46.6235C20.9926 47.8074 20.5097 50.2789 21.5456 52.1438C22.5815 54.0084 24.7439 54.5604 26.3756 53.3765Z" fill="white"/>
<defs>
<linearGradient id="paint0_linear_2038_7820" x1="20.0001" y1="15" x2="20.0001" y2="32.966" gradientUnits="userSpaceOnUse">
<stop stop-color="#32D4F5"/>
<stop offset="1" stop-color="#198AB3"/>
</linearGradient>
<linearGradient id="paint1_linear_2038_7820" x1="53.9999" y1="25" x2="53.9999" y2="43" gradientUnits="userSpaceOnUse">
<stop stop-color="#32D4F5"/>
<stop offset="1" stop-color="#198AB3"/>
</linearGradient>
<linearGradient id="paint2_linear_2038_7820" x1="24.5332" y1="41" x2="24.5332" y2="58.966" gradientUnits="userSpaceOnUse">
<stop stop-color="#32D4F5"/>
<stop offset="1" stop-color="#198AB3"/>
</linearGradient>
</defs>
</svg>
