<svg width="74" height="74" viewBox="0 0 74 74" fill="none" xmlns="http://www.w3.org/2000/svg">
<path d="M55.993 25.5962C55.8586 20.9052 53.8753 16.4574 50.4755 13.2224C47.0757 9.98747 42.5349 8.22751 37.843 8.3262C34.0484 8.28719 30.3353 9.42663 27.2157 11.5873C24.0962 13.748 21.724 16.8235 20.4263 20.3895C16.4046 20.9442 12.7169 22.9278 10.0373 25.9777C7.35778 29.0275 5.86539 32.9399 5.83301 36.9995C5.99571 41.5092 7.93198 45.7723 11.2209 48.8621C14.5097 51.9518 18.8853 53.6184 23.3963 53.4995C23.909 53.5355 24.4236 53.5355 24.9363 53.4995H29.3363C29.069 52.848 28.932 52.1504 28.933 51.4462C28.9462 50.5062 29.1986 49.585 29.6663 48.7695H24.533H23.3963C20.1344 48.8803 16.9585 47.7113 14.5469 45.5121C12.1353 43.3128 10.6792 40.2578 10.4897 36.9995C10.5193 34.0491 11.6163 31.2092 13.5778 29.005C15.5393 26.8009 18.2326 25.3815 21.1597 25.0095L23.9463 24.5695L24.863 21.8929C25.845 19.2514 27.619 16.9777 29.9424 15.3829C32.2658 13.788 35.0251 12.9498 37.843 12.9829C41.301 12.903 44.6522 14.1837 47.1757 16.5495C49.6991 18.9152 51.1931 22.1769 51.3363 25.6329V29.6662L55.333 30.2162C57.5747 30.5031 59.6406 31.58 61.1595 33.2535C62.6784 34.927 63.5507 37.0873 63.6197 39.3462C63.5343 41.8398 62.4857 44.2033 60.6943 45.94C58.9029 47.6767 56.5081 48.6515 54.013 48.6595H53.463H53.1697H49.503C48.8699 45.3657 47.1047 42.397 44.5132 40.2675C41.9217 38.1381 38.6671 36.982 35.313 36.9995C34.9827 36.958 34.6474 36.9872 34.3293 37.0852C34.0111 37.1833 33.7175 37.3478 33.4679 37.5681C33.2182 37.7883 33.0183 38.0591 32.8813 38.3625C32.7444 38.6659 32.6736 38.995 32.6736 39.3279C32.6736 39.6608 32.7444 39.9898 32.8813 40.2932C33.0183 40.5967 33.2182 40.8675 33.4679 41.0877C33.7175 41.3079 34.0111 41.4725 34.3293 41.5705C34.6474 41.6685 34.9827 41.6977 35.313 41.6562C37.7821 41.8081 40.1003 42.896 41.7949 44.6981C43.4896 46.5002 44.4331 48.8808 44.4331 51.3545C44.4331 53.8283 43.4896 56.2089 41.7949 58.011C40.1003 59.8131 37.7821 60.901 35.313 61.0529C34.9827 61.0113 34.6474 61.0406 34.3293 61.1386C34.0111 61.2366 33.7175 61.4012 33.4679 61.6214C33.2182 61.8416 33.0183 62.1124 32.8813 62.4158C32.7444 62.7192 32.6736 63.0483 32.6736 63.3812C32.6736 63.7141 32.7444 64.0432 32.8813 64.3466C33.0183 64.65 33.2182 64.9208 33.4679 65.141C33.7175 65.3612 34.0111 65.5258 34.3293 65.6238C34.6474 65.7219 34.9827 65.7511 35.313 65.7095C38.7522 65.7035 42.0753 64.4645 44.6789 62.2175C47.2825 59.9704 48.9941 56.8642 49.503 53.4629H53.353C53.5959 53.5013 53.8434 53.5013 54.0863 53.4629C57.8062 53.3967 61.3547 51.887 63.9821 49.2528C66.6094 46.6186 68.1098 43.0662 68.1663 39.3462C68.1034 35.9812 66.8435 32.7487 64.6125 30.2288C62.3815 27.7089 59.3256 26.0665 55.993 25.5962Z" fill="url(#paint0_linear_1289_4198)"/>
<path d="M34.7269 45.6172H34.5803C31.4617 45.6172 28.9336 48.1453 28.9336 51.2639V51.4105C28.9336 54.5291 31.4617 57.0572 34.5803 57.0572H34.7269C37.8455 57.0572 40.3736 54.5291 40.3736 51.4105V51.2639C40.3736 48.1453 37.8455 45.6172 34.7269 45.6172Z" fill="url(#paint1_linear_1289_4198)"/>
<defs>
<linearGradient id="paint0_linear_1289_4198" x1="36.9997" y1="65.6729" x2="36.9997" y2="8.3262" gradientUnits="userSpaceOnUse">
<stop stop-color="#198AB3"/>
<stop offset="0.09" stop-color="#1F9DC4"/>
<stop offset="0.24" stop-color="#28B5D9"/>
<stop offset="0.4" stop-color="#2DC6E9"/>
<stop offset="0.57" stop-color="#31D1F2"/>
<stop offset="0.78" stop-color="#32D4F5"/>
</linearGradient>
<linearGradient id="paint1_linear_1289_4198" x1="34.6536" y1="45.6172" x2="34.6536" y2="57.0205" gradientUnits="userSpaceOnUse">
<stop stop-color="#C69AEB"/>
<stop offset="1" stop-color="#6F4BB2"/>
</linearGradient>
</defs>
</svg>
