<svg width="74" height="74" viewBox="0 0 74 74" fill="none" xmlns="http://www.w3.org/2000/svg">
<path d="M53.3903 9.06019C49.9329 8.77112 46.4778 9.64131 43.5698 11.5335C40.6618 13.4257 38.4665 16.2321 37.3303 19.5102C36.1816 16.2328 33.9783 13.429 31.0655 11.5379C28.1526 9.6469 24.6948 8.77548 21.2336 9.06019C6.75028 10.1969 5.98028 24.5335 6.20028 30.0335C6.31028 33.9569 7.08028 46.3135 37.0003 67.8002V68.1669L37.2569 67.9835L37.5136 68.1669V67.8002C67.5803 46.3135 68.3503 33.7369 68.4603 29.6669C68.6803 24.3135 67.8736 10.1969 53.3903 9.06019Z" fill="url(#paint0_linear_1289_6499)"/>
<path d="M66.3334 17.9336C67.5442 22.8173 67.1455 27.9614 65.1968 32.6003C61.9701 39.9336 54.9301 45.8003 44.7001 50.1269C44.2333 49.6222 43.6657 49.2211 43.0341 48.9495C42.4025 48.6779 41.7209 48.5419 41.0334 48.5503C40.0447 48.5435 39.076 48.8286 38.2486 49.3699C37.4212 49.9113 36.772 50.6848 36.3823 51.5935C35.9926 52.5021 35.8797 53.5056 36.0577 54.4782C36.2358 55.4508 36.6969 56.3492 37.3834 57.0608C38.0698 57.7725 38.9509 58.2657 39.9164 58.4788C40.882 58.6919 41.8889 58.6152 42.811 58.2586C43.7332 57.9019 44.5296 57.281 45.1005 56.4737C45.6713 55.6664 45.9912 54.7086 46.0201 53.7203C54.0127 50.4012 61.0106 45.0707 66.3334 38.2469C68.0644 34.5155 68.7488 30.3838 68.3134 26.2936C68.1278 23.4155 67.4585 20.5892 66.3334 17.9336Z" fill="#FFE452"/>
<path d="M29.1904 47.7795L27.7604 49.2462C17.6771 39.3095 14.4871 31.4262 18.6671 27.3195C22.8471 23.2129 30.6571 26.4029 40.6671 36.3762L39.2371 37.8429C39.0575 38.0202 38.9149 38.2315 38.8176 38.4643C38.7203 38.6972 38.6701 38.9471 38.6701 39.1995C38.6701 39.4519 38.7203 39.7018 38.8176 39.9347C38.9149 40.1676 39.0575 40.3788 39.2371 40.5562C39.4118 40.7404 39.6222 40.8871 39.8554 40.9873C40.0887 41.0875 40.3399 41.1392 40.5938 41.1392C40.8476 41.1392 41.0988 41.0875 41.3321 40.9873C41.5653 40.8871 41.7757 40.7404 41.9504 40.5562L44.6638 37.8429C45.0176 37.4799 45.2157 36.9931 45.2157 36.4862C45.2157 35.9793 45.0176 35.4925 44.6638 35.1295L43.3071 33.7729C36.5238 26.9529 24.9738 18.7029 17.6404 23.5795C15.5867 21.6477 14.287 19.0483 13.9738 16.2462C13.7477 14.1113 14.3517 11.9713 15.6604 10.2695C13.5508 11.2045 11.6915 12.6241 10.2338 14.4129C9.92652 16.6366 10.2046 18.902 11.0405 20.9854C11.8765 23.0688 13.2414 24.8982 15.0004 26.2929C10.2338 33.6262 18.4471 45.1395 25.2304 51.9595L26.5871 53.3529C26.95 53.7067 27.4369 53.9048 27.9438 53.9048C28.4507 53.9048 28.9375 53.7067 29.3004 53.3529L32.0504 50.6029C32.4043 50.2399 32.6024 49.7531 32.6024 49.2462C32.6024 48.7393 32.4043 48.2525 32.0504 47.8895C31.8794 47.6796 31.6657 47.5084 31.4234 47.3875C31.1811 47.2666 30.9159 47.1987 30.6453 47.1883C30.3747 47.1779 30.105 47.2252 29.8542 47.3272C29.6033 47.4291 29.377 47.5833 29.1904 47.7795Z" fill="#FFE452"/>
<defs>
<linearGradient id="paint0_linear_1289_6499" x1="37.3303" y1="68.1669" x2="37.3303" y2="8.98686" gradientUnits="userSpaceOnUse">
<stop stop-color="#EF7100"/>
<stop offset="0.13" stop-color="#F27D07"/>
<stop offset="0.43" stop-color="#F69113"/>
<stop offset="0.72" stop-color="#F99E1B"/>
<stop offset="1" stop-color="#FAA21D"/>
</linearGradient>
</defs>
</svg>
