<svg width="74" height="74" viewBox="0 0 74 74" fill="none" xmlns="http://www.w3.org/2000/svg">
<path d="M57.9161 63.3808C51.2987 68.5101 42.9142 70.8012 34.6071 69.7501C26.3002 68.6988 18.7511 64.3914 13.6207 57.7756C8.49017 51.1599 6.19859 42.7772 7.25001 34.4722C8.30146 26.167 12.6098 18.6196 19.2272 13.4903L19.5614 13.2676C26.2167 8.30087 34.562 6.15707 42.7879 7.30101C51.0139 8.44496 58.4571 12.7845 63.5039 19.3786C68.551 25.9727 70.7946 34.29 69.7485 42.527C68.7025 50.764 64.451 58.2568 57.9161 63.3808Z" fill="url(#paint0_radial_2038_5014)"/>
<path opacity="0.6" d="M27.7032 30.6809C36.1485 22.1715 47.3452 17.4053 59 17.3587C57.4691 15.3522 55.7113 13.5526 53.7663 12C48.0965 12.3706 42.5265 13.7546 37.2925 16.0934C31.9035 18.5457 27.0312 22.1135 22.9613 26.5875C24.9175 27.3741 26.581 28.8101 27.7032 30.6809ZM12.9154 43.4077C11.7087 46.5735 10.734 49.8332 10 53.1576C10.6485 54.352 11.3763 55.4959 12.1778 56.5811C12.81 57.437 13.4072 58.2185 14.1097 59C14.9584 54.5708 16.2294 50.2442 17.9032 46.087C16.0283 45.7324 14.2935 44.8005 12.9154 43.4077Z" fill="white"/>
<path opacity="0.55" d="M15 24.9791C14.0143 21.7646 13.3667 18.4117 13.0726 15C11.9004 16.496 10.8698 18.1469 10 19.9217C10.3153 22.6705 10.8485 25.3758 11.5922 28C12.4674 26.6183 13.65 25.57 15 24.9791Z" fill="#F2F2F2"/>
<path d="M20.5 46C26.299 46 31 41.2989 31 35.5C31 29.701 26.299 25 20.5 25C14.701 25 10 29.701 10 35.5C10 41.2989 14.701 46 20.5 46Z" fill="url(#paint1_linear_2038_5014)"/>
<path opacity="0.55" d="M35.2049 54.138C35.2062 53.3703 35.3747 52.6105 35.7 51.9038C36.0252 51.1973 36.501 50.558 37.099 50.0245C33.8657 48.3878 30.8819 46.362 28.2257 44C26.8379 45.3868 25.0072 46.3285 23 46.6883C24.5822 48.1843 26.282 49.57 28.0854 50.8343C30.331 52.4003 32.7393 53.7565 35.2751 54.883C35.2346 54.6363 35.2112 54.3875 35.2049 54.138ZM57.3002 54.8183C54.0411 54.82 50.7927 54.4723 47.6204 53.7818C47.6379 53.9 47.6379 54.0198 47.6204 54.138C47.6228 54.8833 47.466 55.6215 47.1592 56.3108C46.8521 56.9998 46.4013 57.6265 45.8319 58.1545C49.779 58.8768 53.8087 59.1378 57.8265 58.9318C59.3849 57.63 60.7845 56.1745 62 54.5915C60.4395 54.7515 58.8704 54.8273 57.3002 54.8183Z" fill="#F2F2F2"/>
<path d="M42.5 62C46.0898 62 49 59.0898 49 55.5C49 51.9102 46.0898 49 42.5 49C38.9102 49 36 51.9102 36 55.5C36 59.0898 38.9102 62 42.5 62Z" fill="url(#paint2_linear_2038_5014)"/>
<path opacity="0.7" d="M46.8995 36C47.2034 34.5927 47.9413 33.3286 49 32.4019C43.3297 28.095 38.1733 23.0942 33.641 17.5062C30.9999 14.2655 28.6914 10.7441 26.7536 7C25.4673 7.40289 24.2125 7.9081 23 8.51116C25.0737 12.5879 27.5556 16.4233 30.404 19.9529C35.2452 25.995 40.7861 31.3853 46.8995 36Z" fill="#F2F2F2"/>
<path d="M55.5 44C59.0898 44 62 41.0898 62 37.5C62 33.9102 59.0898 31 55.5 31C51.9102 31 49 33.9102 49 37.5C49 41.0898 51.9102 44 55.5 44Z" fill="url(#paint3_linear_2038_5014)"/>
<path opacity="0.55" d="M67 44.2349L65.5931 43.4917L64.3869 42.7923H64.1456L63.1005 41.8744H62.8192L61.5728 41C61.1411 42.6096 60.2376 44.0219 59 45.0219C59.4824 45.3715 60.0051 45.6776 60.5277 45.9837L60.8493 46.2021L62.2563 47.0328L65.7136 49C66.2008 47.4125 66.5901 45.7915 66.8795 44.1475L67 44.2349Z" fill="#F2F2F2"/>
<path d="M20.5 46C26.299 46 31 41.2989 31 35.5C31 29.701 26.299 25 20.5 25C14.701 25 10 29.701 10 35.5C10 41.2989 14.701 46 20.5 46Z" fill="url(#paint4_linear_2038_5014)"/>
<path d="M42.5 62C46.0898 62 49 59.0898 49 55.5C49 51.9102 46.0898 49 42.5 49C38.9102 49 36 51.9102 36 55.5C36 59.0898 38.9102 62 42.5 62Z" fill="url(#paint5_linear_2038_5014)"/>
<defs>
<radialGradient id="paint0_radial_2038_5014" cx="0" cy="0" r="1" gradientUnits="userSpaceOnUse" gradientTransform="translate(38.5402 38.432) scale(31.562 31.5546)">
<stop offset="0.18" stop-color="#5EA0EF"/>
<stop offset="1" stop-color="#0078D4"/>
</radialGradient>
<linearGradient id="paint1_linear_2038_5014" x1="20.5769" y1="46.2693" x2="20.4615" y2="31.0769" gradientUnits="userSpaceOnUse">
<stop stop-color="#CCCCCC"/>
<stop offset="1" stop-color="#FCFCFC"/>
</linearGradient>
<linearGradient id="paint2_linear_2038_5014" x1="42.5" y1="62" x2="42.5" y2="49.0364" gradientUnits="userSpaceOnUse">
<stop stop-color="#CCCCCC"/>
<stop offset="1" stop-color="#FCFCFC"/>
</linearGradient>
<linearGradient id="paint3_linear_2038_5014" x1="55.5" y1="43.9657" x2="55.5" y2="31" gradientUnits="userSpaceOnUse">
<stop stop-color="#CCCCCC"/>
<stop offset="1" stop-color="#FCFCFC"/>
</linearGradient>
<linearGradient id="paint4_linear_2038_5014" x1="20.5769" y1="46.2693" x2="20.4615" y2="31.0769" gradientUnits="userSpaceOnUse">
<stop stop-color="#CCCCCC"/>
<stop offset="1" stop-color="#FCFCFC"/>
</linearGradient>
<linearGradient id="paint5_linear_2038_5014" x1="42.5" y1="62" x2="42.5" y2="49.0364" gradientUnits="userSpaceOnUse">
<stop stop-color="#CCCCCC"/>
<stop offset="1" stop-color="#FCFCFC"/>
</linearGradient>
</defs>
</svg>
