<svg width="74" height="74" viewBox="0 0 74 74" fill="none" xmlns="http://www.w3.org/2000/svg">
<path d="M35.5763 8.38462L8.34555 35.6154C7.58085 36.3801 7.58085 37.6199 8.34555 38.3846L35.5763 65.6154C36.341 66.3801 37.5809 66.3801 38.3456 65.6154L65.5763 38.3846C66.341 37.6199 66.341 36.3801 65.5763 35.6154L38.3456 8.38462C37.5809 7.61991 36.341 7.61991 35.5763 8.38462Z" fill="url(#paint0_linear_2038_3963)"/>
<path d="M43.4863 42.1876H53.2427C53.3369 42.1791 53.4244 42.1355 53.488 42.0655C53.5516 41.9956 53.5866 41.9043 53.5862 41.8098V32.0878C53.5944 32.0126 53.5775 31.9369 53.5383 31.8723C53.4991 31.8078 53.4396 31.7579 53.3692 31.7305C53.2988 31.7031 53.2213 31.6997 53.1487 31.7208C53.0762 31.742 53.0126 31.7864 52.9679 31.8473L50.2883 34.5268V34.6986C50.2241 34.7616 50.1378 34.7968 50.0478 34.7968C49.9579 34.7968 49.8716 34.7616 49.8074 34.6986L37.8867 22.9498C37.8225 22.8868 37.7362 22.8516 37.6463 22.8516C37.5564 22.8516 37.47 22.8868 37.4058 22.9498L34.3827 25.9729C34.3175 26.0428 34.2812 26.1349 34.2812 26.2305C34.2812 26.3261 34.3175 26.4182 34.3827 26.4882L46.0972 38.2027C46.1624 38.2726 46.1987 38.3647 46.1987 38.4603C46.1987 38.5559 46.1624 38.648 46.0972 38.718L45.9254 38.8897L43.2459 41.5693C43.2021 41.6212 43.1731 41.6839 43.162 41.7509C43.1509 41.8178 43.158 41.8866 43.1826 41.9498C43.2072 42.0131 43.2484 42.0686 43.3018 42.1104C43.3553 42.1523 43.419 42.1789 43.4863 42.1876Z" fill="white"/>
<path d="M29.8479 42.1876H20.0915C20.01 42.1646 19.9385 42.1148 19.8887 42.0463C19.8388 41.9777 19.8135 41.8944 19.8167 41.8098V32.0878C19.8176 32.0205 19.8383 31.955 19.8761 31.8994C19.9139 31.8438 19.9672 31.8005 20.0294 31.7749C20.0916 31.7493 20.1599 31.7425 20.2259 31.7554C20.2919 31.7683 20.3527 31.8002 20.4007 31.8473L23.1146 34.5268V34.6986C23.1788 34.7616 23.2652 34.7968 23.3551 34.7968C23.445 34.7968 23.5313 34.7616 23.5955 34.6986L35.4475 22.9498C35.5117 22.8868 35.598 22.8516 35.6879 22.8516C35.7779 22.8516 35.8642 22.8868 35.9284 22.9498L38.9515 25.9729C39.0167 26.0428 39.053 26.1349 39.053 26.2305C39.053 26.3261 39.0167 26.4182 38.9515 26.4882L27.237 38.2027C27.1718 38.2726 27.1355 38.3647 27.1355 38.4603C27.1355 38.5559 27.1718 38.648 27.237 38.718V38.8897L29.9166 41.5693C29.9628 41.6094 29.9986 41.6601 30.0209 41.7171C30.0432 41.7741 30.0513 41.8357 30.0446 41.8965C30.0378 41.9573 30.0164 42.0156 29.9821 42.0663C29.9478 42.117 29.9018 42.1587 29.8479 42.1876Z" fill="white"/>
<path d="M29.5045 50.9825L36.3752 57.8532C36.4394 57.9162 36.5257 57.9514 36.6156 57.9514C36.7056 57.9514 36.7919 57.9162 36.8561 57.8532L43.7268 50.9825C43.7739 50.9345 43.8058 50.8738 43.8187 50.8078C43.8315 50.7417 43.8247 50.6734 43.7991 50.6112C43.7735 50.5491 43.7302 50.4958 43.6746 50.458C43.619 50.4201 43.5535 50.3995 43.4863 50.3985H39.467C39.3785 50.3908 39.2955 50.3521 39.2327 50.2893C39.1698 50.2265 39.1312 50.1435 39.1234 50.055V33.5654C39.1282 33.5175 39.1229 33.4691 39.1078 33.4234C39.0927 33.3776 39.0682 33.3356 39.0358 33.2999C39.0034 33.2643 38.9639 33.2359 38.9198 33.2165C38.8757 33.1971 38.8281 33.1873 38.7799 33.1875H34.5201C34.4199 33.1875 34.3237 33.2273 34.2529 33.2982C34.182 33.3691 34.1422 33.4652 34.1422 33.5654V50.055C34.1422 50.1461 34.106 50.2335 34.0416 50.2979C33.9771 50.3623 33.8898 50.3985 33.7987 50.3985H29.745C29.6777 50.3995 29.6122 50.4201 29.5566 50.458C29.501 50.4958 29.4577 50.5491 29.4321 50.6112C29.4065 50.6734 29.3997 50.7417 29.4126 50.8078C29.4255 50.8738 29.4574 50.9345 29.5045 50.9825Z" fill="white"/>
<path d="M42.7798 33.1556C40.8197 34.6354 38.3873 35.2609 35.9951 34.9003C33.603 34.5397 31.4381 33.2211 29.9568 31.2226C28.4755 29.224 27.7935 26.7016 28.0546 24.1871C28.3157 21.6726 29.4995 19.3624 31.3564 17.7435C33.3265 16.3115 35.7482 15.7292 38.118 16.1175C40.4878 16.5059 42.6234 17.8351 44.081 19.8288C45.5386 21.8225 46.2059 24.3274 45.9444 26.8227C45.6828 29.3181 44.5125 31.612 42.6766 33.2276" fill="#0078D4"/>
<path d="M32 28C33.6569 28 35 26.6569 35 25C35 23.3431 33.6569 22 32 22C30.3431 22 29 23.3431 29 25C29 26.6569 30.3431 28 32 28Z" fill="url(#paint1_linear_2038_3963)"/>
<path opacity="0.55" d="M28.9883 30.1306L29.641 31.1612L30.1219 31.8483C30.388 30.5538 30.7792 29.2883 31.29 28.0694C30.7065 27.9689 30.1673 27.6933 29.7441 27.2793C29.4315 28.2126 29.1791 29.165 28.9883 30.1306Z" fill="#F2F2F2"/>
<path opacity="0.55" d="M30.9456 22.3316C30.5435 21.3036 30.2666 20.2309 30.1211 19.1367C29.6722 19.6167 29.2802 20.1469 28.9531 20.717C29.0887 21.5869 29.319 22.4394 29.6402 23.2591C29.9962 22.8514 30.4435 22.5336 30.9456 22.3316Z" fill="#F2F2F2"/>
<path opacity="0.55" d="M34.1411 27.1738C33.7016 27.6408 33.1234 27.9539 32.4922 28.067C32.987 28.5712 33.5149 29.0417 34.0724 29.4755C34.7742 29.9894 35.5217 30.4379 36.3054 30.8153V30.5748C36.3129 30.3095 36.3782 30.0491 36.4969 29.8117C36.6156 29.5744 36.7847 29.3658 36.9925 29.2007C35.9508 28.6636 34.9908 27.9811 34.1411 27.1738Z" fill="#F2F2F2"/>
<path opacity="0.55" d="M43.14 30.8162C42.1344 30.8077 41.1325 30.6925 40.1512 30.4727C40.1522 30.7211 40.1042 30.9674 40.0098 31.1973C39.9155 31.4272 39.7768 31.6362 39.6016 31.8124C40.8191 32.0789 42.0682 32.1714 43.3117 32.0873C43.7805 31.648 44.2061 31.1648 44.5828 30.6444L43.14 30.8162Z" fill="#F2F2F2"/>
<path d="M38 32C39.1046 32 40 31.3284 40 30.5C40 29.6716 39.1046 29 38 29C36.8954 29 36 29.6716 36 30.5C36 31.3284 36.8954 32 38 32Z" fill="url(#paint2_linear_2038_3963)"/>
<path d="M43 28C44.1046 28 45 27.1046 45 26C45 24.8954 44.1046 24 43 24C41.8954 24 41 24.8954 41 26C41 27.1046 41.8954 28 43 28Z" fill="#F2F2F2"/>
<path opacity="0.55" d="M37.715 21.2656C39.7306 20.3013 41.9391 19.8079 44.1735 19.8227C43.7134 19.2316 43.1694 18.7108 42.5589 18.2768C40.7965 18.3824 39.0652 18.7891 37.4402 19.4792C37.0967 19.4792 36.7875 19.8571 36.444 20.0288C35.6217 19.0358 34.897 17.9659 34.2797 16.834L33.1117 17.2806C33.7256 18.5053 34.4746 19.6576 35.3446 20.7159C34.5099 21.2587 33.738 21.8924 33.043 22.6053C33.6533 22.8343 34.1721 23.2566 34.5202 23.8077C35.1512 23.1773 35.8546 22.6238 36.6157 22.1588C37.8568 23.4146 39.2013 24.5638 40.6351 25.5941C40.7326 25.1603 40.9749 24.7726 41.3221 24.4948C40.0318 23.5208 38.8253 22.4407 37.715 21.2656Z" fill="#F2F2F2"/>
<path opacity="0.55" d="M45.7544 27.003H45.4109H45.1361L44.7925 26.7969C44.6726 27.2018 44.4331 27.561 44.1055 27.8275L44.5177 28.0679L44.8956 28.2741L45.8575 28.755C45.9807 28.3597 46.0839 27.9584 46.1667 27.5526L45.7544 27.003Z" fill="#F2F2F2"/>
<path d="M32 28C33.6569 28 35 26.6569 35 25C35 23.3431 33.6569 22 32 22C30.3431 22 29 23.3431 29 25C29 26.6569 30.3431 28 32 28Z" fill="#F2F2F2"/>
<path d="M38 32C39.1046 32 40 31.3284 40 30.5C40 29.6716 39.1046 29 38 29C36.8954 29 36 29.6716 36 30.5C36 31.3284 36.8954 32 38 32Z" fill="#F2F2F2"/>
<defs>
<linearGradient id="paint0_linear_2038_3963" x1="36.9802" y1="72.2072" x2="36.9802" y2="4.49667" gradientUnits="userSpaceOnUse">
<stop stop-color="#5E9624"/>
<stop offset="0.55" stop-color="#6DAD2A"/>
<stop offset="1" stop-color="#76BC2D"/>
</linearGradient>
<linearGradient id="paint1_linear_2038_3963" x1="32.0345" y1="28.069" x2="32" y2="23.7241" gradientUnits="userSpaceOnUse">
<stop stop-color="#CCCCCC"/>
<stop offset="0.12" stop-color="#D7D7D7"/>
<stop offset="0.42" stop-color="#EBEBEB"/>
<stop offset="0.72" stop-color="#F8F8F8"/>
<stop offset="1" stop-color="#FCFCFC"/>
</linearGradient>
<linearGradient id="paint2_linear_2038_3963" x1="38" y1="32" x2="38" y2="29" gradientUnits="userSpaceOnUse">
<stop stop-color="#CCCCCC"/>
<stop offset="0.12" stop-color="#D7D7D7"/>
<stop offset="0.42" stop-color="#EBEBEB"/>
<stop offset="0.72" stop-color="#F8F8F8"/>
<stop offset="1" stop-color="#FCFCFC"/>
</linearGradient>
</defs>
</svg>
