<svg width="74" height="74" viewBox="0 0 74 74" fill="none" xmlns="http://www.w3.org/2000/svg">
<path d="M41.0997 64.9673L43.7997 62.0673V54.334H30.333V62.0673L33.033 64.9673C33.1943 65.1604 33.4186 65.2903 33.6663 65.334H40.333C40.4791 65.3287 40.6225 65.2934 40.7544 65.2303C40.8863 65.1672 41.0038 65.0777 41.0997 64.9673Z" fill="#CECECE"/>
<path d="M37.0003 8.66701C34.2141 8.63891 31.4539 9.20417 28.903 10.3252C26.3521 11.4463 24.0691 13.0975 22.2056 15.169C20.3422 17.2406 18.941 19.685 18.0953 22.3399C17.2495 24.9948 16.9785 27.7993 17.3003 30.567C18.2003 38.8003 26.0337 42.6337 28.267 53.067C28.349 53.4229 28.5478 53.7411 28.8318 53.9707C29.1158 54.2003 29.4685 54.3281 29.8337 54.3337H44.167C44.5322 54.3281 44.8849 54.2003 45.1689 53.9707C45.4529 53.7411 45.6517 53.4229 45.7337 53.067C47.967 42.6337 55.7337 38.8003 56.7003 30.567C57.0222 27.7993 56.7512 24.9948 55.9054 22.3399C55.0597 19.685 53.6585 17.2406 51.7951 15.169C49.9316 13.0975 47.6486 11.4463 45.0977 10.3252C42.5468 9.20417 39.7866 8.63891 37.0003 8.66701Z" fill="url(#paint0_radial_1289_5506)"/>
<path d="M45.2002 19.6328C43.9682 19.6763 42.8035 20.2055 41.9604 21.1048C41.1172 22.0042 40.6642 23.2006 40.7002 24.4328V26.9995H33.6669V24.4328C33.6802 23.8072 33.5684 23.1853 33.3382 22.6035C33.108 22.0217 32.7639 21.4917 32.3261 21.0446C31.8884 20.5975 31.3657 20.2423 30.7889 19.9999C30.212 19.7575 29.5926 19.6327 28.9669 19.6328C27.7349 19.6763 26.5702 20.2055 25.727 21.1048C24.8839 22.0042 24.4309 23.2006 24.4669 24.4328C24.4307 25.6683 24.8827 26.8683 25.7249 27.773C26.5672 28.6776 27.7319 29.2141 28.9669 29.2661H31.1002V49.2661C31.1002 49.5844 31.2266 49.8896 31.4517 50.1147C31.6767 50.3397 31.9819 50.4661 32.3002 50.4661C32.6185 50.4661 32.9237 50.3397 33.1487 50.1147C33.3738 49.8896 33.5002 49.5844 33.5002 49.2661V29.2661H40.7002V49.2661C40.7002 49.5844 40.8266 49.8896 41.0517 50.1147C41.2767 50.3397 41.5819 50.4661 41.9002 50.4661C42.2185 50.4661 42.5237 50.3397 42.7487 50.1147C42.9738 49.8896 43.1002 49.5844 43.1002 49.2661V29.2661H45.2002C45.8132 29.2446 46.4159 29.1025 46.9739 28.8479C47.5318 28.5933 48.0342 28.2312 48.4521 27.7823C48.8701 27.3334 49.1954 26.8065 49.4096 26.2318C49.6237 25.6571 49.7225 25.0457 49.7002 24.4328C49.7362 23.2006 49.2831 22.0042 48.44 21.1048C47.5969 20.2055 46.4322 19.6763 45.2002 19.6328ZM31.1002 26.9995H28.8335C28.1969 26.9483 27.605 26.6522 27.1823 26.1735C26.7595 25.6948 26.5389 25.0708 26.5669 24.4328C26.5389 23.7948 26.7595 23.1708 27.1823 22.6921C27.605 22.2134 28.1969 21.9173 28.8335 21.8661C29.4701 21.9173 30.062 22.2134 30.4848 22.6921C30.9075 23.1708 31.1281 23.7948 31.1002 24.4328V26.9995ZM45.3669 26.9995H43.1002V24.2995C43.0614 23.981 43.0906 23.6579 43.1859 23.3516C43.2812 23.0453 43.4405 22.7627 43.6532 22.5225C43.8659 22.2823 44.1271 22.09 44.4197 21.9583C44.7122 21.8265 45.0294 21.7584 45.3502 21.7584C45.671 21.7584 45.9882 21.8265 46.2807 21.9583C46.5733 22.09 46.8345 22.2823 47.0472 22.5225C47.2599 22.7627 47.4192 23.0453 47.5145 23.3516C47.6098 23.6579 47.639 23.981 47.6002 24.2995C47.637 24.6245 47.6079 24.9536 47.5146 25.2671C47.4213 25.5806 47.2658 25.8721 47.0573 26.1241C46.8488 26.3761 46.5917 26.5836 46.3012 26.734C46.0108 26.8844 45.693 26.9747 45.3669 26.9995Z" fill="url(#paint1_linear_1289_5506)"/>
<path d="M30.2002 59.6665L43.8002 57.0332V55.5332L30.2002 58.1999V59.6665Z" fill="#999999"/>
<path d="M43.8002 60.6991V59.2324L30.2002 61.9324V62.0658L31.2335 63.1991L43.8002 60.6991Z" fill="#999999"/>
<defs>
<radialGradient id="paint0_radial_1289_5506" cx="0" cy="0" r="1" gradientUnits="userSpaceOnUse" gradientTransform="translate(37.0003 31.5003) scale(21.4 21.4)">
<stop stop-color="#B77AF4"/>
<stop offset="0.21" stop-color="#B378F2"/>
<stop offset="0.43" stop-color="#A672ED"/>
<stop offset="0.65" stop-color="#9267E4"/>
<stop offset="0.88" stop-color="#7559D8"/>
<stop offset="1" stop-color="#624FD0"/>
</radialGradient>
<linearGradient id="paint1_linear_1289_5506" x1="37.0669" y1="20.0328" x2="37.2669" y2="45.2995" gradientUnits="userSpaceOnUse">
<stop stop-color="#F2F2F2"/>
<stop offset="0.23" stop-color="#F1F1F2" stop-opacity="0.99"/>
<stop offset="0.37" stop-color="#EDEDF1" stop-opacity="0.95"/>
<stop offset="0.48" stop-color="#E7E5F0" stop-opacity="0.89"/>
<stop offset="0.58" stop-color="#DEDBEE" stop-opacity="0.81"/>
<stop offset="0.67" stop-color="#D3CEEB" stop-opacity="0.7"/>
<stop offset="0.76" stop-color="#C4BEE8" stop-opacity="0.57"/>
<stop offset="0.84" stop-color="#B4ABE5" stop-opacity="0.41"/>
<stop offset="0.92" stop-color="#A095E1" stop-opacity="0.22"/>
<stop offset="0.99" stop-color="#8B7DDC" stop-opacity="0.02"/>
<stop offset="1" stop-color="#897BDC" stop-opacity="0"/>
</linearGradient>
</defs>
</svg>
