<svg width="74" height="74" viewBox="0 0 74 74" fill="none" xmlns="http://www.w3.org/2000/svg">
<path d="M54.3666 59.3996C48.4258 64.0055 40.8986 66.0628 33.4409 65.1189C25.9832 64.1749 19.2059 60.3071 14.6 54.3663C9.99406 48.4254 7.93677 40.8982 8.8807 33.4405C9.82464 25.9828 13.6925 19.2055 19.6333 14.5996L19.9333 14.3996C25.9082 9.93963 33.4004 8.01456 40.7852 9.04178C48.17 10.069 54.8523 13.9657 59.3832 19.887C63.9141 25.8084 65.9284 33.277 64.9893 40.6735C64.0503 48.0701 60.2335 54.7984 54.3666 59.3996Z" fill="url(#paint0_radial_1289_1700)"/>
<mask id="mask0_1289_1700" style="mask-type:luminance" maskUnits="userSpaceOnUse" x="8" y="8" width="58" height="58">
<path d="M54.3666 59.3996C48.4258 64.0055 40.8986 66.0628 33.4409 65.1189C25.9832 64.1749 19.2059 60.3071 14.6 54.3663C9.99406 48.4254 7.93677 40.8982 8.8807 33.4405C9.82464 25.9828 13.6925 19.2055 19.6333 14.5996L19.9333 14.3996C25.9082 9.93963 33.4004 8.01456 40.7852 9.04178C48.17 10.069 54.8523 13.9657 59.3832 19.887C63.9141 25.8084 65.9284 33.277 64.9893 40.6735C64.0503 48.0701 60.2335 54.7984 54.3666 59.3996Z" fill="white"/>
</mask>
<g mask="url(#mask0_1289_1700)">
<path d="M20.7666 30.4999C20.6333 30.6305 20.5422 30.798 20.505 30.9808C20.4679 31.1637 20.4864 31.3534 20.5581 31.5257C20.6299 31.6979 20.7516 31.8447 20.9076 31.947C21.0636 32.0494 21.2467 32.1026 21.4332 32.0999H41.8332C42.5457 32.0826 43.254 32.2128 43.9137 32.4824C44.5734 32.752 45.1702 33.1552 45.6666 33.6666C46.4627 34.5074 46.9655 35.5832 47.0999 36.7333C47.1909 37.4211 47.1307 38.1204 46.9234 38.7825C46.7161 39.4446 46.3668 40.0535 45.8999 40.5666C45.4566 41.132 44.8896 41.5883 44.2424 41.9003C43.5952 42.2124 42.885 42.3719 42.1666 42.3666H35.1332C35.0673 42.3563 34.9999 42.3712 34.9443 42.4082C34.8888 42.4452 34.8491 42.5018 34.8332 42.5666L33.0332 46.9999C32.6332 47.9666 32.1999 48.9666 31.7999 49.9666C31.7698 50.0108 31.7537 50.0631 31.7537 50.1166C31.7537 50.1701 31.7698 50.2224 31.7999 50.2666L36.9999 55.2666L45.6332 63.8999L47.1666 65.5333L54.2999 61.5666L52.7332 60.3333L47.9666 55.5333L42.7999 50.3333H42.5666L44.2999 50.0999C46.3655 49.7005 48.3008 48.798 49.9346 47.4724C51.5683 46.1468 52.8501 44.4389 53.6666 42.4999C54.3732 40.8808 54.738 39.1332 54.738 37.3666C54.738 35.6 54.3732 33.8524 53.6666 32.2333C53.0746 30.859 52.2516 29.5963 51.2332 28.4999C50.0786 27.2323 48.6704 26.2216 47.0999 25.5333C45.3576 24.7647 43.4708 24.3782 41.5666 24.3999H31.5666V20.4999C31.504 20.3946 31.4025 20.318 31.284 20.2869C31.1655 20.2557 31.0395 20.2723 30.9332 20.3333L20.7666 30.4999Z" fill="#F2F2F2"/>
</g>
<defs>
<radialGradient id="paint0_radial_1289_1700" cx="0" cy="0" r="1" gradientUnits="userSpaceOnUse" gradientTransform="translate(37 36.9996) scale(28.3333)">
<stop offset="0.18" stop-color="#5EA0EF"/>
<stop offset="1" stop-color="#0078D4"/>
</radialGradient>
</defs>
</svg>
