<svg width="75" height="74" viewBox="0 0 75 74" fill="none" xmlns="http://www.w3.org/2000/svg">
<mask id="mask0_2042_7524" style="mask-type:luminance" maskUnits="userSpaceOnUse" x="6" y="6" width="63" height="62">
<path d="M68.5 6H6.5V68H68.5V6Z" fill="white"/>
</mask>
<g mask="url(#mask0_2042_7524)">
<path d="M68.4985 33.2109C68.447 30.6703 67.4879 28.2317 65.7948 26.3365C64.1018 24.4412 61.7865 23.2143 59.2675 22.8776C59.115 19.36 57.5842 16.0437 55.006 13.6459C52.4276 11.248 49.009 9.96146 45.4896 10.0643C42.6271 10.0201 39.822 10.8687 37.4639 12.4922C35.1057 14.1157 33.312 16.4334 32.3318 19.1232C29.3149 19.4853 26.5284 20.9192 24.48 23.1636C22.4316 25.408 21.2576 28.3135 21.1719 31.3509C21.2163 33.0518 21.5973 34.727 22.2927 36.2799C22.9882 37.8328 23.9843 39.2325 25.2237 40.3982C26.4631 41.5638 27.9211 42.4725 29.5135 43.0716C31.1062 43.6707 32.8015 43.9485 34.5018 43.8888H57.8208C60.6443 43.8619 63.3446 42.7283 65.3414 40.7315C67.338 38.7349 68.4716 36.0346 68.4985 33.2109Z" fill="url(#paint0_linear_2042_7524)"/>
<path d="M56.0667 23.9802L49.7635 17.8491C49.0745 17.1602 48.489 17.4013 48.489 18.4691V21.2246C48.4892 21.3271 48.4684 21.4285 48.4281 21.5228C48.388 21.617 48.3291 21.7022 48.2551 21.773C48.1809 21.8439 48.0933 21.8989 47.9974 21.9349C47.9013 21.9709 47.7992 21.9871 47.6967 21.9824C43.6324 21.9824 32.3002 23.0502 31.8867 38.5502C31.8867 38.7602 31.9702 38.9617 32.1188 39.1103C32.2674 39.2589 32.4689 39.3424 32.679 39.3424H36.709C36.819 39.3428 36.9281 39.3203 37.029 39.2762C37.1298 39.2322 37.2205 39.1677 37.2951 39.0865C37.3697 39.0055 37.4264 38.9098 37.4619 38.8057C37.4973 38.7015 37.5109 38.5911 37.5012 38.4812C37.1806 37.0073 37.2152 35.4785 37.6023 34.0205C37.9895 32.5627 38.718 31.2179 39.7276 30.0973C40.7372 28.9766 41.9989 28.1123 43.4086 27.5758C44.8182 27.0391 46.3354 26.8457 47.8345 27.0112C48.0447 27.0112 48.2462 27.0947 48.3948 27.2433C48.5434 27.3919 48.6267 27.5934 48.6267 27.8034V30.3524C48.6267 31.6269 49.0402 31.8334 49.9012 30.9724L56.0667 25.2891C56.1733 25.2164 56.2605 25.1188 56.3207 25.0047C56.381 24.8907 56.4126 24.7636 56.4126 24.6346C56.4126 24.5056 56.381 24.3786 56.3207 24.2645C56.2605 24.1505 56.1733 24.0529 56.0667 23.9802Z" fill="white"/>
<path d="M55.1355 53.05C55.0601 50.4598 54.066 47.9808 52.3306 46.056C50.5954 44.1315 48.232 42.8869 45.6633 42.5445C45.511 38.9202 43.9352 35.5023 41.2785 33.0326C38.6216 30.5626 35.0979 29.2403 31.4722 29.3523C28.542 29.2998 25.668 30.1602 23.2487 31.8143C20.8294 33.4683 18.9846 35.834 17.97 38.5835C14.8735 38.9534 12.0126 40.4222 9.90764 42.7232C7.80268 45.0241 6.59349 48.0042 6.5 51.1213C6.56647 52.8617 6.97601 54.5717 7.70511 56.1535C8.43422 57.7351 9.46852 59.1572 10.7487 60.3383C12.0288 61.5192 13.5296 62.4357 15.1649 63.0351C16.8001 63.6346 18.5377 63.9051 20.2778 63.8313H43.631C43.8246 63.8669 44.0232 63.8669 44.2167 63.8313C47.078 63.7964 49.8146 62.6536 51.8507 60.6431C53.887 58.6326 55.0644 55.9108 55.1355 53.05Z" fill="url(#paint1_linear_2042_7524)"/>
</g>
<defs>
<linearGradient id="paint0_linear_2042_7524" x1="44.8353" y1="43.7166" x2="44.8353" y2="10.1676" gradientUnits="userSpaceOnUse">
<stop stop-color="#0078D4"/>
<stop offset="0.16" stop-color="#1380DA"/>
<stop offset="0.53" stop-color="#3C91E5"/>
<stop offset="0.82" stop-color="#559CEC"/>
<stop offset="1" stop-color="#5EA0EF"/>
</linearGradient>
<linearGradient id="paint1_linear_2042_7524" x1="30.8178" y1="63.8313" x2="30.8178" y2="29.3523" gradientUnits="userSpaceOnUse">
<stop stop-color="#198AB3"/>
<stop offset="0.13" stop-color="#21A0C7"/>
<stop offset="0.31" stop-color="#28B7DB"/>
<stop offset="0.5" stop-color="#2EC7EA"/>
<stop offset="0.72" stop-color="#31D1F2"/>
<stop offset="1" stop-color="#32D4F5"/>
</linearGradient>
</defs>
</svg>
