<svg width="74" height="74" viewBox="0 0 74 74" fill="none" xmlns="http://www.w3.org/2000/svg">
<path d="M4.88867 24.8672H69.1109V60.673C69.1109 61.2421 68.8848 61.7878 68.4824 62.1903C68.08 62.5927 67.5342 62.8187 66.9651 62.8187H7.03445C6.46535 62.8187 5.91957 62.5927 5.51716 62.1903C5.11474 61.7878 4.88867 61.2421 4.88867 60.673V24.8672Z" fill="url(#paint0_linear_1289_4361)"/>
<path d="M7.04578 11.1836H66.9538C67.2356 11.1836 67.5146 11.2391 67.7749 11.347C68.0353 11.4548 68.2718 11.6129 68.4711 11.8121C68.6703 12.0114 68.8284 12.2479 68.9362 12.5082C69.0441 12.7686 69.0996 13.0476 69.0996 13.3294V24.8667H4.88867V13.3294C4.88867 13.0467 4.94454 12.7667 5.05309 12.5056C5.16163 12.2445 5.3207 12.0075 5.52116 11.8081C5.72161 11.6087 5.9595 11.4509 6.22115 11.3437C6.4828 11.2365 6.76304 11.1821 7.04578 11.1836Z" fill="#198AB3"/>
<path d="M51.4235 29.2383H39.7842C39.6637 29.2383 39.5443 29.262 39.4329 29.3082C39.3215 29.3543 39.2203 29.4219 39.1351 29.5072C39.0498 29.5924 38.9822 29.6936 38.9361 29.805C38.89 29.9164 38.8662 30.0357 38.8662 30.1563V55.2634C38.8662 55.5069 38.9629 55.7404 39.1351 55.9125C39.3072 56.0847 39.5407 56.1814 39.7842 56.1814H59.9575C60.0784 56.1819 60.1982 56.1585 60.31 56.1126C60.4218 56.0667 60.5235 55.9992 60.6091 55.9139C60.6948 55.8286 60.7627 55.7272 60.8091 55.6156C60.8554 55.504 60.8793 55.3843 60.8793 55.2634V38.6412C60.8793 38.3967 60.7822 38.1622 60.6093 37.9894C60.4365 37.8165 60.202 37.7194 59.9575 37.7194H53.2633C53.1424 37.7194 53.0228 37.6955 52.9111 37.6492C52.7995 37.6028 52.6981 37.5348 52.6129 37.4492C52.5276 37.3635 52.46 37.2619 52.4141 37.1501C52.3682 37.0383 52.3448 36.9185 52.3453 36.7976V30.1563C52.3453 30.0354 52.3215 29.9157 52.2751 29.8041C52.2287 29.6925 52.1608 29.5911 52.0751 29.5058C51.9895 29.4205 51.8878 29.353 51.776 29.3071C51.6642 29.2612 51.5444 29.2378 51.4235 29.2383Z" fill="white"/>
<path d="M51 30.4121V36.7172C51.001 37.3301 51.245 37.9176 51.6783 38.3509C52.1117 38.7843 52.6992 39.0282 53.312 39.0292H59.6663V55.0054H40.0785V30.4121H51ZM51.4458 29.0332H39.644C39.3966 29.0332 39.1592 29.1315 38.9842 29.3065C38.8092 29.4815 38.7109 29.7188 38.7109 29.9663V55.4512C38.7109 55.6987 38.8092 55.936 38.9842 56.111C39.1592 56.286 39.3966 56.3843 39.644 56.3843H60.1196C60.3671 56.3843 60.6044 56.286 60.7794 56.111C60.9544 55.936 61.0527 55.6987 61.0527 55.4512V38.5834C61.0517 38.3363 60.9531 38.0995 60.7783 37.9247C60.6035 37.7499 60.3668 37.6513 60.1196 37.6503H53.3196C53.0721 37.6503 52.8348 37.552 52.6598 37.377C52.4848 37.202 52.3865 36.9647 52.3865 36.7172V29.9663C52.3865 29.7188 52.2882 29.4815 52.1132 29.3065C51.9382 29.1315 51.7009 29.0332 51.4534 29.0332H51.4458Z" fill="#C3F1FF"/>
<path d="M60.6861 37.8365L52.0577 29.2383V36.2461C52.0562 36.4537 52.0957 36.6597 52.1739 36.8521C52.2521 37.0445 52.3675 37.2196 52.5135 37.3673C52.6595 37.5151 52.8332 37.6325 53.0246 37.7131C53.2161 37.7936 53.4215 37.8355 53.6292 37.8365H60.6861Z" fill="#50E6FF"/>
<path d="M26.6138 29.2363H14.9707C14.8502 29.2363 14.7308 29.2601 14.6194 29.3062C14.5081 29.3523 14.4069 29.42 14.3216 29.5052C14.2364 29.5904 14.1687 29.6916 14.1226 29.803C14.0765 29.9144 14.0527 30.0338 14.0527 30.1543V55.2614C14.0527 55.5049 14.1495 55.7384 14.3216 55.9106C14.4938 56.0827 14.7273 56.1794 14.9707 56.1794H35.1478C35.3913 56.1794 35.6248 56.0827 35.797 55.9106C35.9691 55.7384 36.0658 55.5049 36.0658 55.2614V38.6392C36.0663 38.5183 36.043 38.3986 35.9971 38.2868C35.9511 38.1749 35.8836 38.0733 35.7983 37.9876C35.713 37.902 35.6116 37.834 35.5 37.7877C35.3884 37.7413 35.2687 37.7174 35.1478 37.7174H28.4498C28.329 37.7174 28.2093 37.6936 28.0977 37.6472C27.986 37.6008 27.8847 37.5329 27.7994 37.4472C27.7141 37.3616 27.6465 37.2599 27.6006 37.1481C27.5547 37.0363 27.5313 36.9165 27.5318 36.7957V30.1543C27.5318 29.9109 27.4351 29.6774 27.263 29.5052C27.0908 29.333 26.8573 29.2363 26.6138 29.2363Z" fill="white"/>
<path d="M26.1873 30.4121V36.7172C26.1883 37.3301 26.4322 37.9176 26.8656 38.3509C27.2989 38.7843 27.8864 39.0282 28.4993 39.0292H34.8535V55.0054H15.2695V30.4121H26.1873ZM26.6331 29.0332H14.8237C14.7011 29.0327 14.5795 29.0565 14.4661 29.1032C14.3526 29.1499 14.2496 29.2187 14.1628 29.3054C14.0761 29.3921 14.0074 29.4952 13.9606 29.6086C13.9139 29.7221 13.8901 29.8436 13.8906 29.9663V55.4512C13.8901 55.5739 13.9139 55.6955 13.9606 55.8089C14.0074 55.9223 14.0761 56.0254 14.1628 56.1121C14.2496 56.1989 14.3526 56.2676 14.4661 56.3143C14.5795 56.361 14.7011 56.3848 14.8237 56.3843H35.2955C35.4182 56.3848 35.5398 56.361 35.6532 56.3143C35.7666 56.2676 35.8697 56.1989 35.9564 56.1121C36.0432 56.0254 36.1119 55.9223 36.1586 55.8089C36.2053 55.6955 36.2291 55.5739 36.2286 55.4512V38.5834C36.2286 38.336 36.1303 38.0986 35.9553 37.9236C35.7803 37.7486 35.543 37.6503 35.2955 37.6503H28.4993C28.3759 37.6513 28.2536 37.6279 28.1393 37.5815C28.025 37.5351 27.921 37.4666 27.8333 37.3799C27.7455 37.2932 27.6758 37.1901 27.628 37.0763C27.5802 36.9626 27.5553 36.8406 27.5549 36.7172V29.9663C27.5554 29.8436 27.5316 29.7221 27.4848 29.6086C27.4381 29.4952 27.3694 29.3921 27.2827 29.3054C27.1959 29.2187 27.0929 29.1499 26.9794 29.1032C26.866 29.0565 26.7444 29.0327 26.6217 29.0332H26.6331Z" fill="#C3F1FF"/>
<path d="M35.866 37.8345L27.2452 29.2363V36.2441C27.2437 36.4518 27.2832 36.6577 27.3614 36.8501C27.4396 37.0425 27.555 37.2176 27.701 37.3654C27.847 37.5131 28.0207 37.6306 28.2121 37.7111C28.4036 37.7916 28.609 37.8336 28.8167 37.8345H35.866Z" fill="#50E6FF"/>
<defs>
<linearGradient id="paint0_linear_1289_4361" x1="36.9998" y1="62.8187" x2="36.9998" y2="24.8672" gradientUnits="userSpaceOnUse">
<stop stop-color="#32BEDD"/>
<stop offset="0.775" stop-color="#32D4F5"/>
</linearGradient>
</defs>
</svg>
