<svg width="74" height="74" viewBox="0 0 74 74" fill="none" xmlns="http://www.w3.org/2000/svg">
<g clip-path="url(#clip0_1289_1530)">
<path d="M67 42.1662C66.9478 38.9172 65.7425 35.7926 63.5993 33.3502C61.4561 30.9079 58.5146 29.3068 55.3 28.8328C55.1777 24.306 53.2683 20.0117 49.989 16.8886C46.7097 13.7654 42.3274 12.0676 37.8 12.1662C34.1657 12.129 30.6097 13.2221 27.6239 15.2942C24.6381 17.3664 22.37 20.3153 21.1333 23.7328C17.2413 24.2405 13.6651 26.1411 11.0666 29.0828C8.46813 32.0244 7.02345 35.8079 7 39.7328C7.12211 44.0947 8.97054 48.2298 12.1393 51.2298C15.308 54.2298 19.538 55.8494 23.9 55.7328H25.3667H52.7333C52.9774 55.7513 53.2226 55.7513 53.4667 55.7328C57.0429 55.6726 60.4552 54.2229 62.9812 51.6907C65.5072 49.1584 66.9485 45.7425 67 42.1662Z" fill="url(#paint0_linear_1289_1530)"/>
<path d="M24.4663 41.5341C25.7733 41.5341 26.8329 40.4745 26.8329 39.1674C26.8329 37.8604 25.7733 36.8008 24.4663 36.8008C23.1592 36.8008 22.0996 37.8604 22.0996 39.1674C22.0996 40.4745 23.1592 41.5341 24.4663 41.5341Z" fill="#E3E3E3"/>
<path d="M32.8 40.0673V38.1673H32.5333L30.5 37.5006L29.9667 36.2007L31 34.0007L29.6667 32.6673H29.4L27.5 33.6673L26.2 33.134L25.3667 30.834H23.4667V31.1007L22.8 33.134L21.4 33.6673L19.2333 32.634L17.9 33.9673V34.234L18.8667 36.134L18.3333 37.434L16 38.2673V40.334H16.2667L18.3 41.0007L18.8333 42.3007L17.8 44.5007L19.1333 45.834H19.4L21.3 44.8673L22.6 45.4007L23.4333 47.7007H25.3333V47.434L26 45.4007L27.3 44.8673L29.5 45.9007L30.8333 44.5673V44.3006L29.8667 42.4007L30.4 41.1006L32.8 40.0673ZM24.4667 42.834C23.7415 42.834 23.0326 42.6189 22.4296 42.216C21.8266 41.8131 21.3566 41.2405 21.0791 40.5705C20.8016 39.9005 20.729 39.1633 20.8705 38.452C21.0119 37.7407 21.3611 37.0874 21.8739 36.5746C22.3867 36.0618 23.0401 35.7126 23.7513 35.5711C24.4626 35.4296 25.1998 35.5022 25.8698 35.7798C26.5398 36.0573 27.1125 36.5272 27.5154 37.1302C27.9183 37.7332 28.1333 38.4421 28.1333 39.1673C28.1378 39.6501 28.046 40.1289 27.8633 40.5757C27.6806 41.0226 27.4107 41.4286 27.0693 41.77C26.7279 42.1113 26.322 42.3812 25.8751 42.5639C25.4282 42.7466 24.9494 42.8384 24.4667 42.834Z" fill="white"/>
<path d="M40.3332 31.766C41.8796 31.766 43.1332 30.5124 43.1332 28.966C43.1332 27.4196 41.8796 26.166 40.3332 26.166C38.7868 26.166 37.5332 27.4196 37.5332 28.966C37.5332 30.5124 38.7868 31.766 40.3332 31.766Z" fill="#E3E3E3"/>
<path d="M50.333 30.0341V27.7674H50.033L47.5663 27.0008L46.9997 25.3008L48.233 22.6341L46.633 21.0341H46.333L44.033 22.2008L42.4997 21.5674L41.4997 18.8008H39.133V19.1341L38.333 21.5674L36.7663 22.2008L34.1663 20.9674L32.5663 22.5674L32.733 22.8674L33.6663 25.3341L33.133 27.0008L30.333 27.9008V30.3341H30.6663L33.0997 31.1341L33.6663 32.6341L32.433 35.3008L34.0997 37.0008L34.433 36.8341L36.6997 35.6674L38.2663 36.3008L39.2663 39.0674H41.533V38.7341L42.333 36.3008L43.8997 35.6674L46.533 36.9008L48.133 35.3008L47.9663 35.0008L46.9997 32.6008L47.633 31.0341L50.333 30.0341ZM40.333 33.3674C39.4628 33.3674 38.6121 33.1094 37.8885 32.6259C37.1649 32.1424 36.601 31.4553 36.2679 30.6513C35.9349 29.8473 35.8478 28.9626 36.0176 28.1091C36.1873 27.2555 36.6064 26.4715 37.2217 25.8562C37.8371 25.2408 38.6211 24.8218 39.4746 24.652C40.3281 24.4822 41.2128 24.5694 42.0168 24.9024C42.8208 25.2354 43.508 25.7994 43.9915 26.5229C44.475 27.2465 44.733 28.0972 44.733 28.9674C44.7374 29.5465 44.6267 30.1207 44.4071 30.6565C44.1876 31.1923 43.8636 31.6791 43.4542 32.0886C43.0447 32.4981 42.5579 32.822 42.0221 33.0416C41.4862 33.2611 40.9121 33.3719 40.333 33.3674Z" fill="white"/>
</g>
<defs>
<linearGradient id="paint0_linear_1289_1530" x1="36.9667" y1="62.3662" x2="36.9667" y2="2.76617" gradientUnits="userSpaceOnUse">
<stop stop-color="#0078D4"/>
<stop offset="0.16" stop-color="#1380DA"/>
<stop offset="0.53" stop-color="#3C91E5"/>
<stop offset="0.82" stop-color="#559CEC"/>
<stop offset="1" stop-color="#5EA0EF"/>
</linearGradient>
<clipPath id="clip0_1289_1530">
<rect width="60" height="60" fill="white" transform="translate(7 7)"/>
</clipPath>
</defs>
</svg>
