<svg width="74" height="74" viewBox="0 0 74 74" fill="none" xmlns="http://www.w3.org/2000/svg">
<path d="M16.1753 24.1377C16.0956 24.1382 16.0165 24.1228 15.9428 24.0925C15.869 24.0622 15.802 24.0176 15.7456 23.9612C15.6892 23.9048 15.6446 23.8378 15.6143 23.764C15.584 23.6903 15.5686 23.6112 15.5691 23.5315C15.5663 21.6971 14.8364 19.9386 13.5393 18.6414C12.2421 17.3443 10.4836 16.6143 8.64919 16.6116C8.48901 16.6116 8.33533 16.5482 8.22174 16.4353C8.10815 16.3223 8.04388 16.169 8.04297 16.0088C8.04297 15.8481 8.10684 15.6939 8.22053 15.5802C8.33422 15.4665 8.48841 15.4026 8.64919 15.4026C10.4842 15.3999 12.2432 14.6695 13.5405 13.3716C14.8377 12.0737 15.5673 10.3143 15.5691 8.47928C15.5686 8.39954 15.584 8.3205 15.6143 8.24675C15.6446 8.17299 15.6892 8.10598 15.7456 8.0496C15.802 7.99321 15.869 7.94858 15.9428 7.91827C16.0165 7.88797 16.0956 7.8726 16.1753 7.87306C16.255 7.8726 16.3341 7.88797 16.4078 7.91827C16.4816 7.94858 16.5486 7.99321 16.605 8.0496C16.6614 8.10598 16.706 8.17299 16.7363 8.24675C16.7666 8.3205 16.782 8.39954 16.7815 8.47928C16.7843 10.3137 17.5142 12.0722 18.8113 13.3694C20.1085 14.6665 21.867 15.3964 23.7014 15.3992C23.7812 15.3987 23.8602 15.4141 23.9339 15.4444C24.0077 15.4747 24.0747 15.5193 24.1311 15.5757C24.1875 15.6321 24.2321 15.6991 24.2624 15.7729C24.2927 15.8466 24.3081 15.9257 24.3076 16.0054C24.3081 16.0851 24.2927 16.1642 24.2624 16.2379C24.2321 16.3117 24.1875 16.3787 24.1311 16.4351C24.0747 16.4915 24.0077 16.5361 23.9339 16.5664C23.8602 16.5967 23.7812 16.6121 23.7014 16.6116C21.8667 16.6134 20.1077 17.3431 18.8103 18.6404C17.513 19.9378 16.7833 21.6968 16.7815 23.5315C16.7806 23.692 16.7165 23.8457 16.603 23.9592C16.4895 24.0727 16.3358 24.1368 16.1753 24.1377Z" fill="#50E6FF"/>
<path d="M59.7712 66.1269C59.6424 66.1269 59.5189 66.0757 59.4278 65.9846C59.3367 65.8935 59.2855 65.77 59.2855 65.6412C59.2837 64.1737 58.7 62.7669 57.6623 61.7292C56.6246 60.6915 55.2178 60.1078 53.7503 60.106C53.6221 60.106 53.4991 60.0553 53.4081 59.9649C53.3171 59.8746 53.2656 59.752 53.2646 59.6237C53.2646 59.4949 53.3158 59.3714 53.4069 59.2803C53.498 59.1892 53.6215 59.1381 53.7503 59.1381C55.2181 59.1372 56.6254 58.5537 57.6633 57.5158C58.7012 56.478 59.2846 55.0706 59.2855 53.6029C59.2855 53.474 59.3367 53.3505 59.4278 53.2594C59.5189 53.1684 59.6424 53.1172 59.7712 53.1172C59.9 53.1172 60.0235 53.1684 60.1146 53.2594C60.2057 53.3505 60.2569 53.474 60.2569 53.6029C60.2578 55.0706 60.8413 56.478 61.8791 57.5158C62.917 58.5537 64.3243 59.1372 65.7921 59.1381C65.9209 59.1381 66.0444 59.1892 66.1355 59.2803C66.2266 59.3714 66.2778 59.4949 66.2778 59.6237C66.2778 59.7525 66.2266 59.8761 66.1355 59.9672C66.0444 60.0582 65.9209 60.1094 65.7921 60.1094C64.3246 60.1112 62.9178 60.695 61.8801 61.7327C60.8425 62.7703 60.2587 64.1772 60.2569 65.6446C60.256 65.7728 60.2044 65.8955 60.1134 65.9858C60.0224 66.0762 59.8994 66.1269 59.7712 66.1269Z" fill="#50E6FF"/>
<path d="M57.5599 31.9357C58.5313 36.0021 58.2752 40.2652 56.8238 44.186C55.3724 48.1068 52.7909 51.5092 49.4058 53.9629C46.0207 56.4165 41.9841 57.8113 37.8063 57.9708C33.6285 58.1303 29.4973 57.0473 25.935 54.8589C22.3727 52.6704 19.5393 49.4748 17.7932 45.6761C16.0471 41.8773 15.4667 37.6461 16.1253 33.5175C16.7839 29.3889 18.652 25.5483 21.4934 22.4814C24.3348 19.4145 28.0218 17.2591 32.0882 16.2876C37.541 14.9849 43.288 15.9018 48.0648 18.8363C52.8417 21.7709 56.2571 26.4829 57.5599 31.9357Z" fill="url(#paint0_radial_1289_4036)"/>
<mask id="mask0_1289_4036" style="mask-type:luminance" maskUnits="userSpaceOnUse" x="15" y="15" width="44" height="43">
<path d="M57.5599 31.9357C58.5313 36.0021 58.2752 40.2652 56.8238 44.186C55.3724 48.1068 52.7909 51.5092 49.4058 53.9629C46.0207 56.4165 41.9841 57.8113 37.8063 57.9708C33.6285 58.1303 29.4973 57.0473 25.935 54.8589C22.3727 52.6704 19.5393 49.4748 17.7932 45.6761C16.0471 41.8773 15.4667 37.6461 16.1253 33.5175C16.7839 29.3889 18.652 25.5483 21.4934 22.4814C24.3348 19.4145 28.0218 17.2591 32.0882 16.2876C37.541 14.9849 43.288 15.9018 48.0648 18.8363C52.8417 21.7709 56.2571 26.4829 57.5599 31.9357Z" fill="white"/>
</mask>
<g mask="url(#mask0_1289_4036)">
<path d="M25.6643 51.1734C26.4167 51.1931 27.1654 51.0621 27.8663 50.788C28.5673 50.514 29.2064 50.1025 29.7459 49.5777C30.2854 49.053 30.7144 48.4256 31.0078 47.7325C31.3012 47.0394 31.4529 46.2946 31.454 45.5419C31.4552 44.7893 31.3057 44.0441 31.0145 43.3501C30.7233 42.6561 30.2961 42.0274 29.7582 41.501C29.2203 40.9745 28.5825 40.5611 27.8824 40.2849C27.1823 40.0087 26.434 39.8754 25.6815 39.8928C25.6982 39.7326 25.7062 39.5717 25.7056 39.4106C25.692 37.9054 25.0821 36.4669 24.0096 35.4106C22.9372 34.3543 21.4897 33.7663 19.9844 33.7755H15.7546C15.3408 36.9008 15.6184 40.0789 16.5677 43.0851C17.517 46.0914 19.1149 48.8525 21.2485 51.1734H25.6643Z" fill="#F2F2F2"/>
<path d="M57.8213 32.9171C57.8213 32.8655 57.8213 32.8138 57.7972 32.7656C57.1159 29.0798 55.4414 25.6498 52.9543 22.8456C52.6316 22.7149 52.2987 22.6112 51.9589 22.5356C51.0538 22.2774 50.1019 22.2279 49.1749 22.3909C48.2479 22.5538 47.37 22.9251 46.6073 23.4765C45.8445 24.028 45.2169 24.7454 44.7716 25.5746C44.3263 26.4038 44.075 27.3233 44.0366 28.2637C43.8079 28.2373 43.578 28.2223 43.3477 28.2189C41.9369 28.2188 40.5714 28.7173 39.4925 29.6262C38.4135 30.5352 37.6905 31.7962 37.4511 33.1866C37.2116 34.577 37.4712 36.0072 38.184 37.2247C38.8968 38.4422 40.0169 39.3687 41.3465 39.8405C41.94 40.0731 42.5725 40.19 43.21 40.1849H50.2022C53.0098 38.0597 55.566 35.6214 57.8213 32.9171Z" fill="#F2F2F2"/>
</g>
<path d="M65.2138 19.1994C63.0472 15.5931 57.9805 14.1878 50.9021 15.2418C48.477 15.5855 46.0802 16.1058 43.7308 16.7987C45.5945 17.4421 47.3644 18.3305 48.9939 19.4405C49.824 19.258 50.6576 19.041 51.4567 18.9204C52.7138 18.7247 53.9837 18.6222 55.2559 18.6139C56.4997 18.4346 57.7685 18.5691 58.947 19.0053C60.1255 19.4414 61.1762 20.1653 62.0036 21.1111C63.3228 23.3087 62.2102 27.0665 58.9518 31.4444C54.4233 37.081 48.8741 41.8146 42.5941 45.3979C36.4549 49.2296 29.6498 51.8726 22.5337 53.1892C17.1466 53.9952 13.2957 53.1892 11.9765 50.9985C10.6572 48.8079 11.7698 45.0397 15.0282 40.6824C15.4312 40.1417 15.5311 39.8764 15.9892 39.3322C15.7739 37.4648 15.804 35.5773 16.0788 33.7178C14.6144 35.1856 13.2669 36.7657 12.0488 38.4435C7.78113 44.151 6.62379 49.2832 8.7869 52.8895C9.92959 54.4183 11.4536 55.6202 13.2065 56.3752C14.9595 57.1302 16.8799 57.4117 18.7758 57.1917C20.2187 57.184 21.659 57.0689 23.0848 56.8472C30.6808 55.4608 37.9477 52.6564 44.5058 48.5805C51.2034 44.7476 57.1177 39.6853 61.9381 33.6592C66.2196 27.938 67.3769 22.8092 65.2138 19.1994Z" fill="#50E6FF"/>
<defs>
<radialGradient id="paint0_radial_1289_4036" cx="0" cy="0" r="1" gradientUnits="userSpaceOnUse" gradientTransform="translate(36.8373 36.8405) scale(21.2465 21.0619)">
<stop offset="0.183" stop-color="#5EA0EF"/>
<stop offset="1" stop-color="#0078D4"/>
</radialGradient>
</defs>
</svg>
