<svg width="74" height="74" viewBox="0 0 74 74" fill="none" xmlns="http://www.w3.org/2000/svg">
<path d="M66.6997 17.1994H39.5297C39.2391 17.2106 38.9537 17.1198 38.723 16.9427L30.9497 11.7727C30.7055 11.6281 30.4268 11.5521 30.143 11.5527H7.29967C6.91696 11.5526 6.54936 11.7021 6.27534 11.9693C6.00131 12.2364 5.84258 12.6001 5.83301 12.9827V61.0161C5.84258 61.3987 6.00131 61.7624 6.27534 62.0295C6.54936 62.2967 6.91696 62.4462 7.29967 62.4461H66.6997C67.0824 62.4462 67.45 62.2967 67.724 62.0295C67.998 61.7624 68.1568 61.3987 68.1663 61.0161V18.6661C68.1663 18.2771 68.0118 17.904 67.7368 17.629C67.4617 17.3539 67.0887 17.1994 66.6997 17.1994Z" fill="#005BA1"/>
<path d="M25.0833 14.3398H12.1033C11.7793 14.3398 11.5166 14.6025 11.5166 14.9265V16.5765C11.5166 16.9005 11.7793 17.1632 12.1033 17.1632H25.0833C25.4073 17.1632 25.6699 16.9005 25.6699 16.5765V14.9265C25.6699 14.6025 25.4073 14.3398 25.0833 14.3398Z" fill="white"/>
<path d="M13.9366 14.3398H11.9199C11.6972 14.3398 11.5166 14.5204 11.5166 14.7432V16.7598C11.5166 16.9826 11.6972 17.1632 11.9199 17.1632H13.9366C14.1594 17.1632 14.3399 16.9826 14.3399 16.7598V14.7432C14.3399 14.5204 14.1594 14.3398 13.9366 14.3398Z" fill="#1AC3F2"/>
<path d="M66.6997 17.1276H36.9997C36.8068 17.1215 36.6149 17.1577 36.4375 17.2337C36.2601 17.3097 36.1016 17.4237 35.973 17.5676L31.023 22.3343C30.7405 22.588 30.376 22.7312 29.9963 22.7376H7.29967C6.91069 22.7376 6.53764 22.8922 6.26258 23.1672C5.98753 23.4423 5.83301 23.8153 5.83301 24.2043V60.871C5.84258 61.2536 6.00131 61.6173 6.27534 61.8844C6.54936 62.1516 6.91696 62.3011 7.29967 62.301H66.6997C67.0824 62.3011 67.45 62.1516 67.724 61.8844C67.998 61.6173 68.1568 61.2536 68.1663 60.871V18.6676C68.1763 18.4689 68.1457 18.2703 68.0765 18.0838C68.0072 17.8973 67.9008 17.7269 67.7636 17.5828C67.6264 17.4387 67.4613 17.3241 67.2784 17.2459C67.0955 17.1676 66.8986 17.1274 66.6997 17.1276Z" fill="url(#paint0_linear_1289_8494)"/>
<path d="M41.3269 24.9008C41.2309 24.8742 41.1295 24.8742 41.0335 24.9008C41.0335 24.9008 40.7035 24.9008 40.5569 25.1574L28.9702 41.9874C28.9187 42.0766 28.8916 42.1778 28.8916 42.2808C28.8916 42.3838 28.9187 42.4849 28.9702 42.5741C29.0243 42.676 29.1029 42.7628 29.1989 42.8268C29.2949 42.8908 29.4053 42.93 29.5202 42.9408H36.3769L33.3335 53.1341C33.3035 53.1937 33.2864 53.259 33.2832 53.3257C33.28 53.3924 33.2908 53.459 33.315 53.5212C33.3392 53.5834 33.3762 53.6399 33.4236 53.6869C33.471 53.7339 33.5278 53.7704 33.5902 53.7941C33.673 53.825 33.7641 53.825 33.8469 53.7941C34.0669 53.7941 34.1769 53.7941 34.3235 53.5374L46.2769 36.4508C46.2769 36.4508 46.2769 36.2308 46.2769 36.0841C46.2675 35.9252 46.1977 35.7759 46.0818 35.6669C45.9659 35.5578 45.8127 35.4972 45.6535 35.4974H38.3202L41.2902 25.4874C41.361 25.4078 41.4031 25.3068 41.4097 25.2004C41.4164 25.0941 41.3872 24.9886 41.3269 24.9008Z" fill="white"/>
<defs>
<linearGradient id="paint0_linear_1289_8494" x1="37.8797" y1="7.52096" x2="36.4497" y2="64.5743" gradientUnits="userSpaceOnUse">
<stop stop-color="#32D4F5"/>
<stop offset="0.23" stop-color="#31D0F1"/>
<stop offset="0.46" stop-color="#2CC3E6"/>
<stop offset="0.7" stop-color="#25AFD4"/>
<stop offset="0.94" stop-color="#1C92BA"/>
<stop offset="1" stop-color="#198AB3"/>
</linearGradient>
</defs>
</svg>
