<svg width="74" height="74" viewBox="0 0 74 74" fill="none" xmlns="http://www.w3.org/2000/svg">
<path d="M43.507 34.9379C43.5169 35.1773 43.4334 35.4112 43.2742 35.5903C43.1151 35.7694 42.8925 35.8797 42.6536 35.8979H35.2225C34.9831 35.9078 34.7492 35.8244 34.5701 35.6652C34.391 35.506 34.2807 35.2835 34.2625 35.0446V29.4979C34.2526 29.2585 34.336 29.0246 34.4952 28.8455C34.6544 28.6664 34.8769 28.5561 35.1158 28.5379H42.547C42.7864 28.528 43.0203 28.6114 43.1994 28.7706C43.3784 28.9298 43.4887 29.1523 43.507 29.3912V34.9379Z" fill="#76BC2D"/>
<path d="M56.6984 40.5566C56.7083 40.7961 56.6248 41.03 56.4656 41.209C56.3065 41.3881 56.084 41.4984 55.845 41.5166H48.4139C48.1745 41.5266 47.9406 41.4431 47.7615 41.2839C47.5824 41.1247 47.4721 40.9022 47.4539 40.6633V35.1522C47.444 34.9128 47.5274 34.6789 47.6866 34.4998C47.8458 34.3207 48.0683 34.2104 48.3073 34.1922H55.7384C55.9778 34.1823 56.2117 34.2657 56.3908 34.4249C56.5699 34.5841 56.6801 34.8066 56.6984 35.0455V40.5566Z" fill="#76BC2D"/>
<path d="M43.507 46.2445C43.5169 46.484 43.4334 46.7179 43.2742 46.8969C43.1151 47.076 42.8925 47.1863 42.6536 47.2045H35.2225C34.9831 47.2145 34.7492 47.131 34.5701 46.9718C34.391 46.8126 34.2807 46.5901 34.2625 46.3512V40.8045C34.2526 40.5651 34.336 40.3312 34.4952 40.1521C34.6544 39.973 34.8769 39.8628 35.1158 39.8445H42.547C42.7864 39.8346 43.0203 39.9181 43.1994 40.0773C43.3784 40.2364 43.4887 40.459 43.507 40.6979V46.2445Z" fill="#76BC2D"/>
<path d="M30.3158 29.3196C30.3257 29.5496 30.246 29.7744 30.0935 29.9469C29.941 30.1193 29.7275 30.2258 29.498 30.244H21.8536C21.6197 30.2545 21.3906 30.176 21.2125 30.0242C21.0343 29.8725 20.9203 29.6587 20.8936 29.4262V23.6662C20.9016 23.4391 20.9931 23.2229 21.1505 23.0589C21.3079 22.8949 21.5203 22.7947 21.7469 22.7773H29.178C29.9602 22.7773 30.3158 23.1685 30.3158 23.7373V29.3196Z" fill="#86D633"/>
<path d="M30.3155 40.5559C30.3252 40.6727 30.3118 40.7903 30.2759 40.9019C30.24 41.0134 30.1824 41.1168 30.1063 41.206C30.0303 41.2953 29.9374 41.3686 29.833 41.4217C29.7285 41.4749 29.6146 41.5069 29.4977 41.5159H21.8533C21.7259 41.5209 21.5988 41.4995 21.4801 41.453C21.3613 41.4065 21.2535 41.336 21.1633 41.2458C21.0732 41.1557 21.0026 41.0478 20.9562 40.9291C20.9097 40.8104 20.8883 40.6833 20.8933 40.5559V34.9381C20.8926 34.7048 20.9802 34.4798 21.1384 34.3083C21.2967 34.1369 21.514 34.0316 21.7466 34.0137H29.1777C29.96 34.0137 30.3155 34.4048 30.3155 34.9381V40.5559Z" fill="#76BC2D"/>
<path d="M30.3155 51.8981C30.3253 52.0149 30.3118 52.1325 30.2759 52.244C30.24 52.3556 30.1824 52.459 30.1064 52.5482C30.0304 52.6374 29.9375 52.7108 29.833 52.7639C29.7286 52.8171 29.6146 52.8491 29.4978 52.8581H21.8533C21.6139 52.868 21.38 52.7846 21.2009 52.6254C21.0218 52.4662 20.9115 52.2437 20.8933 52.0048V46.2448C20.8886 46.128 20.9069 46.0115 20.9472 45.9018C20.9875 45.7921 21.0491 45.6915 21.1283 45.6056C21.2076 45.5197 21.303 45.4503 21.4091 45.4014C21.5152 45.3524 21.6299 45.3249 21.7467 45.3203H29.1778C29.96 45.3203 30.3155 45.6759 30.3155 46.2448V51.8981Z" fill="#76BC2D"/>
<path d="M8.80487 10.3691H13.3915V23.1691C13.3915 23.4426 13.2829 23.7049 13.0895 23.8982C12.8962 24.0916 12.6339 24.2003 12.3604 24.2003H7.80931C7.53584 24.2003 7.27358 24.0916 7.08021 23.8982C6.88683 23.7049 6.7782 23.4426 6.7782 23.1691V12.5025C6.76371 12.2275 6.8054 11.9524 6.90074 11.6941C6.99608 11.4358 7.14307 11.1996 7.33273 10.9999C7.52238 10.8003 7.75073 10.6414 8.00384 10.533C8.25695 10.4245 8.5295 10.3688 8.80487 10.3691Z" fill="#999999"/>
<path opacity="0.5" d="M8.80487 10.3691H13.3915V23.1691C13.3915 23.4426 13.2829 23.7049 13.0895 23.8982C12.8962 24.0916 12.6339 24.2003 12.3604 24.2003H7.80931C7.53584 24.2003 7.27358 24.0916 7.08021 23.8982C6.88683 23.7049 6.7782 23.4426 6.7782 23.1691V12.5025C6.76371 12.2275 6.8054 11.9524 6.90074 11.6941C6.99608 11.4358 7.14307 11.1996 7.33273 10.9999C7.52238 10.8003 7.75073 10.6414 8.00384 10.533C8.25695 10.4245 8.5295 10.3688 8.80487 10.3691Z" fill="#999999"/>
<path d="M60.6098 10.3691H65.1964C65.7339 10.3691 66.2494 10.5827 66.6295 10.9627C67.0096 11.3428 67.2231 11.8583 67.2231 12.3958V23.0625C67.2231 23.3359 67.1145 23.5982 66.9211 23.7916C66.7277 23.985 66.4655 24.0936 66.192 24.0936H61.6053C61.3319 24.0936 61.0696 23.985 60.8762 23.7916C60.6829 23.5982 60.5742 23.3359 60.5742 23.0625V10.3691H60.6098Z" fill="#999999"/>
<path opacity="0.5" d="M60.6098 10.3691H65.1964C65.7339 10.3691 66.2494 10.5827 66.6295 10.9627C67.0096 11.3428 67.2231 11.8583 67.2231 12.3958V23.0625C67.2231 23.3359 67.1145 23.5982 66.9211 23.7916C66.7277 23.985 66.4655 24.0936 66.192 24.0936H61.6053C61.3319 24.0936 61.0696 23.985 60.8762 23.7916C60.6829 23.5982 60.5742 23.3359 60.5742 23.0625V10.3691H60.6098Z" fill="#999999"/>
<path d="M67.2227 12.3958V16.8403L6.77821 16.8403V12.3958C6.77821 11.8583 6.99174 11.3428 7.37181 10.9627C7.75188 10.5827 8.26738 10.3691 8.80488 10.3691L65.2315 10.3691C65.7629 10.3785 66.2693 10.5961 66.6417 10.9752C67.0141 11.3542 67.2227 11.8644 67.2227 12.3958Z" fill="#949494"/>
<path d="M7.80943 50.3693H12.3961C12.6696 50.3693 12.9318 50.4779 13.1252 50.6713C13.3186 50.8646 13.4272 51.1269 13.4272 51.4004V64.2004H8.80499C8.26748 64.2004 7.75199 63.9868 7.37192 63.6068C6.99184 63.2267 6.77832 62.7112 6.77832 62.1737V51.2226C6.82059 50.9809 6.94762 50.7623 7.13661 50.6059C7.32559 50.4495 7.56415 50.3656 7.80943 50.3693Z" fill="#999999"/>
<path opacity="0.5" d="M7.80943 50.3693H12.3961C12.6696 50.3693 12.9318 50.4779 13.1252 50.6713C13.3186 50.8646 13.4272 51.1269 13.4272 51.4004V64.2004H8.80499C8.26748 64.2004 7.75199 63.9868 7.37192 63.6068C6.99184 63.2267 6.77832 62.7112 6.77832 62.1737V51.2226C6.82059 50.9809 6.94762 50.7623 7.13661 50.6059C7.32559 50.4495 7.56415 50.3656 7.80943 50.3693Z" fill="#999999"/>
<path d="M61.6049 50.3691H66.1916C66.4651 50.3691 66.7273 50.4778 66.9207 50.6711C67.1141 50.8645 67.2227 51.1268 67.2227 51.4003V62.0669C67.2227 62.6044 67.0092 63.1199 66.6291 63.5C66.249 63.8801 65.7335 64.0936 65.196 64.0936H60.6094V51.2225C60.6506 50.9868 60.7724 50.7729 60.954 50.6172C61.1357 50.4615 61.3658 50.3738 61.6049 50.3691Z" fill="#999999"/>
<path opacity="0.5" d="M61.6049 50.3691H66.1916C66.4651 50.3691 66.7273 50.4778 66.9207 50.6711C67.1141 50.8645 67.2227 51.1268 67.2227 51.4003V62.0669C67.2227 62.6044 67.0092 63.1199 66.6291 63.5C66.249 63.8801 65.7335 64.0936 65.196 64.0936H60.6094V51.2225C60.6506 50.9868 60.7724 50.7729 60.954 50.6172C61.1357 50.4615 61.3658 50.3738 61.6049 50.3691Z" fill="#999999"/>
<path d="M6.77832 62.1745V57.7301H67.2228V62.1745C67.2228 62.712 67.0092 63.2275 66.6292 63.6076C66.2491 63.9876 65.7336 64.2012 65.1961 64.2012H8.80499C8.26748 64.2012 7.75199 63.9876 7.37192 63.6076C6.99184 63.2275 6.77832 62.712 6.77832 62.1745Z" fill="#949494"/>
</svg>
