<svg width="74" height="74" viewBox="0 0 74 74" fill="none" xmlns="http://www.w3.org/2000/svg">
<path d="M50.0597 34.0006V31.8829H34.1064L26.6238 39.3302H21.1178L33.8946 26.4122H42.6125V24.4004H33.0122L18.1177 39.3302H16V41.4479H22.3884L29.9415 48.8951H47.942V46.7774H30.718L25.3885 41.4479H38.3418V39.3302H29.6592L34.9534 34.0006H50.0597Z" fill="#32BEDD"/>
<path d="M40.4535 43.4577C42.1494 43.4577 43.5242 42.083 43.5242 40.3871C43.5242 38.6912 42.1494 37.3164 40.4535 37.3164C38.7576 37.3164 37.3828 38.6912 37.3828 40.3871C37.3828 42.083 38.7576 43.4577 40.4535 43.4577Z" fill="white"/>
<path d="M43.6683 28.5652C45.3642 28.5652 46.739 27.1904 46.739 25.4945C46.739 23.7986 45.3642 22.4238 43.6683 22.4238C41.9724 22.4238 40.5977 23.7986 40.5977 25.4945C40.5977 27.1904 41.9724 28.5652 43.6683 28.5652Z" fill="white"/>
<path d="M51.1175 36.0105C52.8134 36.0105 54.1882 34.6357 54.1882 32.9398C54.1882 31.2439 52.8134 29.8691 51.1175 29.8691C49.4217 29.8691 48.0469 31.2439 48.0469 32.9398C48.0469 34.6357 49.4217 36.0105 51.1175 36.0105Z" fill="white"/>
<path d="M47.9379 50.907C49.6337 50.907 51.0085 49.5322 51.0085 47.8363C51.0085 46.1404 49.6337 44.7656 47.9379 44.7656C46.242 44.7656 44.8672 46.1404 44.8672 47.8363C44.8672 49.5322 46.242 50.907 47.9379 50.907Z" fill="white"/>
<path d="M43.5654 29.1991C45.6121 29.1991 47.2713 27.5398 47.2713 25.4931C47.2713 23.4463 45.6121 21.7871 43.5654 21.7871C41.5186 21.7871 39.8594 23.4463 39.8594 25.4931C39.8594 27.5398 41.5186 29.1991 43.5654 29.1991Z" fill="#50E6FF"/>
<path d="M51.0107 36.6463C53.0574 36.6463 54.7166 34.9871 54.7166 32.9404C54.7166 30.8936 53.0574 29.2344 51.0107 29.2344C48.9639 29.2344 47.3047 30.8936 47.3047 32.9404C47.3047 34.9871 48.9639 36.6463 51.0107 36.6463Z" fill="url(#paint0_linear_2038_8838)"/>
<path d="M47.9404 51.5409C49.9871 51.5409 51.6463 49.8816 51.6463 47.8349C51.6463 45.7881 49.9871 44.1289 47.9404 44.1289C45.8936 44.1289 44.2344 45.7881 44.2344 47.8349C44.2344 49.8816 45.8936 51.5409 47.9404 51.5409Z" fill="url(#paint1_linear_2038_8838)"/>
<path d="M40.456 44.0956C42.5027 44.0956 44.162 42.4363 44.162 40.3896C44.162 38.3428 42.5027 36.6836 40.456 36.6836C38.4092 36.6836 36.75 38.3428 36.75 40.3896C36.75 42.4363 38.4092 44.0956 40.456 44.0956Z" fill="#50E6FF"/>
<path d="M9.00791 10.2812H13.561V22.8816C13.561 23.153 13.4531 23.4134 13.2612 23.6053C13.0692 23.7973 12.8089 23.9051 12.5374 23.9051H8.01965C7.74819 23.9051 7.48784 23.7973 7.29589 23.6053C7.10393 23.4134 6.99609 23.153 6.99609 22.8816V12.2931C6.99609 11.7595 7.20805 11.2478 7.58534 10.8705C7.96263 10.4932 8.47434 10.2812 9.00791 10.2812Z" fill="#999999"/>
<path opacity="0.5" d="M9.00791 10.2812H13.561V22.8816C13.561 23.153 13.4531 23.4134 13.2612 23.6053C13.0692 23.7973 12.8089 23.9051 12.5374 23.9051H8.01965C7.74819 23.9051 7.48784 23.7973 7.29589 23.6053C7.10393 23.4134 6.99609 23.153 6.99609 22.8816V12.2931C6.99609 11.7595 7.20805 11.2478 7.58534 10.8705C7.96263 10.4932 8.47434 10.2812 9.00791 10.2812Z" fill="#999999"/>
<path d="M60.4297 10.2812H64.9827C65.5163 10.2812 66.028 10.4932 66.4053 10.8705C66.7826 11.2478 66.9946 11.7595 66.9946 12.2931V22.8816C66.9946 23.153 66.8867 23.4134 66.6948 23.6053C66.5028 23.7973 66.2425 23.9051 65.971 23.9051H61.4179C61.1526 23.896 60.9013 23.7841 60.7169 23.5931C60.5325 23.4022 60.4295 23.147 60.4297 22.8816V10.2812Z" fill="#999999"/>
<path opacity="0.5" d="M60.4297 10.2812H64.9827C65.5163 10.2812 66.028 10.4932 66.4053 10.8705C66.7826 11.2478 66.9946 11.7595 66.9946 12.2931V22.8816C66.9946 23.153 66.8867 23.4134 66.6948 23.6053C66.5028 23.7973 66.2425 23.9051 65.971 23.9051H61.4179C61.1526 23.896 60.9013 23.7841 60.7169 23.5931C60.5325 23.4022 60.4295 23.147 60.4297 22.8816V10.2812Z" fill="#999999"/>
<path d="M66.9961 12.2931V16.7049L6.99453 16.7049V12.2931C6.99453 11.7595 7.20649 11.2478 7.58378 10.8705C7.96107 10.4932 8.47278 10.2813 9.00635 10.2813L65.0196 10.2812C65.547 10.2905 66.0497 10.5065 66.4194 10.8828C66.7891 11.2591 66.9962 11.7656 66.9961 12.2931Z" fill="#949494"/>
<path d="M8.02124 49.9883H12.5743C12.8458 49.9883 13.1061 50.0961 13.2981 50.2881C13.49 50.48 13.5979 50.7404 13.5979 51.0119V63.7181H9.0095C8.7453 63.7181 8.48369 63.666 8.23961 63.5649C7.99552 63.4638 7.77374 63.3156 7.58693 63.1288C7.20964 62.7515 6.99768 62.2398 6.99768 61.7062V51.1177C6.9828 50.9747 6.99823 50.8301 7.04296 50.6935C7.0877 50.5568 7.16073 50.4311 7.2573 50.3245C7.35387 50.2179 7.47182 50.1329 7.60344 50.075C7.73507 50.0171 7.87743 49.9875 8.02124 49.9883Z" fill="#999999"/>
<path opacity="0.5" d="M8.02124 49.9883H12.5743C12.8458 49.9883 13.1061 50.0961 13.2981 50.2881C13.49 50.48 13.5979 50.7404 13.5979 51.0119V63.7181H9.0095C8.7453 63.7181 8.48369 63.666 8.23961 63.5649C7.99552 63.4638 7.77374 63.3156 7.58693 63.1288C7.20964 62.7515 6.99768 62.2398 6.99768 61.7062V51.1177C6.9828 50.9747 6.99823 50.8301 7.04296 50.6935C7.0877 50.5568 7.16073 50.4311 7.2573 50.3245C7.35387 50.2179 7.47182 50.1329 7.60344 50.075C7.73507 50.0171 7.87743 49.9875 8.02124 49.9883Z" fill="#999999"/>
<path d="M61.4235 49.9883H65.9765C66.248 49.9883 66.5084 50.0961 66.7003 50.2881C66.8923 50.48 67.0001 50.7404 67.0001 51.0118V61.6003C67.0001 62.1339 66.7881 62.6456 66.4109 63.0229C66.0336 63.4002 65.5219 63.6122 64.9883 63.6122H60.4352V51.1177C60.4206 50.9776 60.435 50.836 60.4777 50.7017C60.5203 50.5674 60.5902 50.4434 60.6829 50.3374C60.7757 50.2314 60.8894 50.1456 61.0168 50.0856C61.1442 50.0255 61.2827 49.9924 61.4235 49.9883Z" fill="#999999"/>
<path opacity="0.5" d="M61.4235 49.9883H65.9765C66.248 49.9883 66.5084 50.0961 66.7003 50.2881C66.8923 50.48 67.0001 50.7404 67.0001 51.0118V61.6003C67.0001 62.1339 66.7881 62.6456 66.4109 63.0229C66.0336 63.4002 65.5219 63.6122 64.9883 63.6122H60.4352V51.1177C60.4206 50.9776 60.435 50.836 60.4777 50.7017C60.5203 50.5674 60.5902 50.4434 60.6829 50.3374C60.7757 50.2314 60.8894 50.1456 61.0168 50.0856C61.1442 50.0255 61.2827 49.9924 61.4235 49.9883Z" fill="#999999"/>
<path d="M6.99609 61.7069V57.2951H66.9977V61.7069C66.9977 62.2405 66.7857 62.7522 66.4084 63.1295C66.0311 63.5068 65.5194 63.7188 64.9858 63.7188H9.00791C8.47434 63.7188 7.96263 63.5068 7.58534 63.1295C7.20805 62.7522 6.99609 62.2405 6.99609 61.7069Z" fill="#949494"/>
<defs>
<linearGradient id="paint0_linear_2038_8838" x1="74.2348" y1="7.66911" x2="74.2348" y2="15.0634" gradientUnits="userSpaceOnUse">
<stop stop-color="#C69AEB"/>
<stop offset="1" stop-color="#6F4BB2"/>
</linearGradient>
<linearGradient id="paint1_linear_2038_8838" x1="71.1821" y1="22.5813" x2="71.1821" y2="29.958" gradientUnits="userSpaceOnUse">
<stop stop-color="#C69AEB"/>
<stop offset="1" stop-color="#6F4BB2"/>
</linearGradient>
</defs>
</svg>
