<svg width="74" height="74" viewBox="0 0 74 74" fill="none" xmlns="http://www.w3.org/2000/svg">
<path d="M69 39.9517C68.8813 36.5678 67.5593 33.3373 65.2716 30.841C62.9839 28.3448 59.8807 26.7466 56.52 26.3339C56.3622 21.5365 54.3086 16.9973 50.8095 13.7115C47.3104 10.4257 42.6512 8.66125 37.8533 8.80502C33.9988 8.73385 30.2175 9.86241 27.0325 12.0345C23.8476 14.2067 21.4165 17.315 20.0756 20.9295C16.0075 21.428 12.2518 23.3651 9.48706 26.3906C6.72232 29.4162 5.13079 33.3308 5 37.4272C5.17595 42.0363 7.17243 46.3875 10.5517 49.5268C13.9309 52.6661 18.4171 54.3373 23.0267 54.1739H24.5911H53.7822C54.0417 54.2109 54.305 54.2109 54.5644 54.1739C58.348 54.1471 61.9721 52.6467 64.6674 49.9912C67.3626 47.3358 68.9168 43.7344 69 39.9517Z" fill="url(#paint0_linear_1289_4630)"/>
<path d="M28.5732 29.248H46.5644V54.1369H28.5732V29.248Z" fill="#F2F2F2"/>
<path d="M49.8353 27.6493L37.4264 20.5382C37.2094 20.4689 36.974 20.4856 36.7688 20.5848C36.5637 20.6841 36.4046 20.8583 36.3242 21.0716C36.3242 21.0716 36.3242 21.2849 36.3242 21.356V64.3071C36.324 64.5368 36.4128 64.7577 36.5719 64.9234C36.731 65.0891 36.948 65.1868 37.1776 65.196H37.462L49.8709 57.8716C50.0432 57.8134 50.1935 57.7039 50.3016 57.5576C50.4097 57.4114 50.4703 57.2356 50.4753 57.0538V28.6093C50.4933 28.4005 50.4398 28.1917 50.3235 28.0172C50.2072 27.8428 50.0351 27.7131 49.8353 27.6493Z" fill="#50E6FF"/>
<defs>
<linearGradient id="paint0_linear_1289_4630" x1="37" y1="54.1739" x2="37" y2="8.80502" gradientUnits="userSpaceOnUse">
<stop stop-color="#0078D4"/>
<stop offset="0.82" stop-color="#5EA0EF"/>
</linearGradient>
</defs>
</svg>
