<svg width="74" height="74" viewBox="0 0 74 74" fill="none" xmlns="http://www.w3.org/2000/svg">
<g clip-path="url(#clip0_1289_3255)">
<path d="M24.6995 51.5972L22.6157 53.6869C22.4379 53.8652 22.1966 53.9655 21.9448 53.9659C21.693 53.9662 21.4514 53.8666 21.2731 53.6888L5.79427 38.2536C5.43836 37.8987 5.23802 37.417 5.23731 36.9144C5.2366 36.4117 5.43558 35.9294 5.79048 35.5735L7.88432 33.4738L24.7077 50.2496C24.8859 50.4274 24.9863 50.6687 24.9867 50.9205C24.987 51.1723 24.8873 51.4139 24.7096 51.5922L24.6995 51.5972Z" fill="#50E6FF"/>
<path d="M22.2914 20.307L24.3886 22.3984C24.5669 22.5762 24.6673 22.8175 24.6676 23.0693C24.668 23.321 24.5683 23.5627 24.3905 23.7409L7.86324 40.315L5.76347 38.2212C5.40756 37.8663 5.20722 37.3845 5.20651 36.8819C5.2058 36.3793 5.40478 35.897 5.75968 35.5411L20.9538 20.3039C21.1321 20.1278 21.3727 20.0293 21.6232 20.0299C21.8738 20.0305 22.114 20.1301 22.2914 20.307Z" fill="#1490DF"/>
<path d="M66.1191 33.4883L68.2105 35.5855C68.5654 35.9414 68.7644 36.4237 68.7636 36.9264C68.7629 37.429 68.5626 37.9107 68.2067 38.2656L52.7278 53.7008C52.5495 53.8786 52.3079 53.9783 52.0561 53.9779C51.8044 53.9775 51.563 53.8772 51.3852 53.6989L49.304 51.6117C49.1262 51.4334 49.0265 51.1918 49.0269 50.94C49.0272 50.6883 49.1276 50.4469 49.3059 50.2692L66.1267 33.4958L66.1191 33.4883Z" fill="#50E6FF"/>
<path d="M68.2247 38.2126L66.1275 40.3039L49.6002 23.7298C49.4224 23.5515 49.3227 23.3099 49.3231 23.0582C49.3235 22.8064 49.4238 22.5651 49.6021 22.3873L51.6994 20.2959C51.8776 20.1182 52.1193 20.0185 52.371 20.0188C52.6228 20.0192 52.8641 20.1196 53.0419 20.2978L68.2361 35.535C68.591 35.8909 68.79 36.3732 68.7892 36.8758C68.7885 37.3785 68.5882 37.8602 68.2323 38.2151L68.2247 38.2126Z" fill="#1490DF"/>
<path d="M35.0765 40.2002H22.3156C22.1365 40.2071 21.9618 40.1436 21.829 40.0233C21.6961 39.903 21.6155 39.7356 21.6045 39.5567C21.6046 39.464 21.6265 39.3726 21.6685 39.29L36.968 9.01801C37.0332 8.90062 37.1293 8.80338 37.2459 8.73691C37.3625 8.67045 37.4952 8.63731 37.6294 8.64113H52.7227C52.9018 8.63429 53.0765 8.69779 53.2094 8.81805C53.3422 8.93831 53.4228 9.10579 53.4338 9.28468C53.4326 9.41366 53.3888 9.53862 53.3094 9.64024L35.3432 33.3238H52.8649C53.044 33.317 53.2187 33.3805 53.3516 33.5007C53.4845 33.621 53.565 33.7885 53.576 33.9673C53.5733 34.1305 53.507 34.2862 53.3912 34.4011L24.2747 64.6909C24.0009 64.8545 22.056 66.4687 23.0089 64.0189L35.0765 40.2002Z" fill="url(#paint0_linear_1289_3255)"/>
</g>
<defs>
<linearGradient id="paint0_linear_1289_3255" x1="37.4448" y1="64.9364" x2="37.4448" y2="8.19409" gradientUnits="userSpaceOnUse">
<stop stop-color="#FEA11B"/>
<stop offset="0.284" stop-color="#FEA51A"/>
<stop offset="0.547" stop-color="#FEB018"/>
<stop offset="0.8" stop-color="#FFC314"/>
<stop offset="1" stop-color="#FFD70F"/>
</linearGradient>
<clipPath id="clip0_1289_3255">
<rect width="64" height="64" fill="white" transform="translate(5 5)"/>
</clipPath>
</defs>
</svg>
