<svg width="74" height="74" viewBox="0 0 74 74" fill="none" xmlns="http://www.w3.org/2000/svg">
<path d="M44.7335 41.5432C48.2393 41.5432 51.0813 38.7012 51.0813 35.1954C51.0813 31.6897 48.2393 28.8477 44.7335 28.8477C41.2277 28.8477 38.3857 31.6897 38.3857 35.1954C38.3857 38.7012 41.2277 41.5432 44.7335 41.5432Z" fill="white"/>
<path d="M55.3665 59.0729C58.1249 59.0729 60.361 56.8368 60.361 54.0784C60.361 51.3201 58.1249 49.084 55.3665 49.084C52.6082 49.084 50.3721 51.3201 50.3721 54.0784C50.3721 56.8368 52.6082 59.0729 55.3665 59.0729Z" fill="white"/>
<path d="M35.6147 54.9481C37.9815 54.9481 39.9002 53.0294 39.9002 50.6625C39.9002 48.2957 37.9815 46.377 35.6147 46.377C33.2478 46.377 31.3291 48.2957 31.3291 50.6625C31.3291 53.0294 33.2478 54.9481 35.6147 54.9481Z" fill="white"/>
<path d="M32.5208 23.3384C35.4571 23.3384 37.8374 20.9581 37.8374 18.0217C37.8374 15.0854 35.4571 12.7051 32.5208 12.7051C29.5845 12.7051 27.2041 15.0854 27.2041 18.0217C27.2041 20.9581 29.5845 23.3384 32.5208 23.3384Z" fill="white"/>
<path d="M18.2787 41.8973C20.6456 41.8973 22.5643 39.9786 22.5643 37.6117C22.5643 35.2449 20.6456 33.3262 18.2787 33.3262C15.9119 33.3262 13.9932 35.2449 13.9932 37.6117C13.9932 39.9786 15.9119 41.8973 18.2787 41.8973Z" fill="white"/>
<path d="M56.5271 53.0791L45.7971 34.2936L44.7337 34.9058L45.6037 34.2613L33.4559 16.9902L31.2326 18.6013L41.9948 33.9069L18.1504 35.8725L18.3759 38.6436L41.9948 36.678L34.1648 49.6958L36.5171 51.1136L44.5726 37.7091L54.1426 54.4325L56.5271 53.0791Z" fill="#949494"/>
<path d="M64.4862 11.9636C64.4862 11.3397 64.2383 10.7414 63.7972 10.3003C63.3561 9.85915 62.7578 9.61133 62.1339 9.61133H49.8895C49.5818 9.61133 49.2868 9.73354 49.0692 9.95108C48.8517 10.1686 48.7295 10.4637 48.7295 10.7713V15.3147C48.7295 15.6223 48.8517 15.9174 49.0692 16.1349C49.2868 16.3524 49.5818 16.4747 49.8895 16.4747H57.4617V23.8858C57.4699 24.1994 57.5981 24.4979 57.8199 24.7198C58.0418 24.9416 58.3403 25.0698 58.6539 25.078H63.165C63.4787 25.0698 63.7772 24.9416 63.999 24.7198C64.2209 24.4979 64.3491 24.1994 64.3573 23.8858V11.9636H64.4862Z" fill="#949494"/>
<path d="M24.1113 57.5252H16.4102V50.1141C16.4021 49.8005 16.2738 49.5019 16.052 49.2801C15.8301 49.0583 15.5316 48.93 15.218 48.9219H10.7069C10.3932 48.93 10.0947 49.0583 9.87287 49.2801C9.65102 49.5019 9.5228 49.8005 9.51465 50.1141V62.0363C9.52312 62.6546 9.77468 63.2446 10.2149 63.6788C10.6551 64.113 11.2486 64.3564 11.8669 64.3563H24.1113C24.419 64.3563 24.714 64.2341 24.9316 64.0166C25.1491 63.799 25.2713 63.504 25.2713 63.1963V58.6852C25.2713 58.3776 25.1491 58.0825 24.9316 57.865C24.714 57.6474 24.419 57.5252 24.1113 57.5252Z" fill="#949494"/>
<path d="M44.7332 28.9125C46.0145 28.9129 47.2667 29.2952 48.3297 30.0107C49.3927 30.7262 50.2182 31.7424 50.7009 32.9294C51.1836 34.1164 51.3014 35.4203 51.0394 36.6746C50.7774 37.9289 50.1475 39.0766 49.23 39.9711C48.3126 40.8656 47.1493 41.4664 45.8887 41.6965C44.6282 41.9267 43.3277 41.7759 42.1533 41.2633C40.9789 40.7507 39.984 39.8997 39.2956 38.819C38.6072 37.7382 38.2567 36.4768 38.2887 35.1958C38.3308 33.5147 39.0282 31.9166 40.2323 30.7427C41.4363 29.5687 43.0515 28.9119 44.7332 28.9125ZM27.3332 18.0213C27.3271 19.086 27.6388 20.1283 28.2286 21.0148C28.8183 21.9012 29.6592 22.5915 30.6435 22.9973C31.6279 23.403 32.7109 23.5058 33.754 23.2924C34.7971 23.079 35.7528 22.5591 36.4987 21.7994C37.2447 21.0397 37.7469 20.0746 37.9411 19.0278C38.1353 17.9809 38.0127 16.8999 37.589 15.9232C37.1652 14.9465 36.4596 14.1184 35.5625 13.545C34.6654 12.9716 33.6176 12.679 32.5532 12.7047C31.1599 12.73 29.8323 13.3013 28.856 14.2957C27.8798 15.29 27.3329 16.6279 27.3332 18.0213ZM13.9932 37.5802C13.9932 38.4278 14.2445 39.2564 14.7154 39.9612C15.1863 40.6659 15.8556 41.2152 16.6387 41.5396C17.4218 41.8639 18.2835 41.9488 19.1148 41.7834C19.9461 41.6181 20.7097 41.2099 21.3091 40.6106C21.9084 40.0112 22.3166 39.2476 22.4819 38.4163C22.6473 37.585 22.5624 36.7233 22.2381 35.9402C21.9137 35.1571 21.3644 34.4878 20.6596 34.0169C19.9549 33.546 19.1263 33.2947 18.2787 33.2947C17.1421 33.2947 16.0521 33.7462 15.2484 34.5499C14.4447 35.3536 13.9932 36.4436 13.9932 37.5802ZM31.3287 50.6302C31.3223 51.4855 31.5701 52.3235 32.0407 53.0378C32.5112 53.7521 33.1833 54.3105 33.9717 54.6422C34.7601 54.974 35.6292 55.0641 36.4689 54.9012C37.3086 54.7382 38.081 54.3295 38.688 53.727C39.2951 53.1245 39.7096 52.3552 39.8788 51.5167C40.048 50.6783 39.9644 49.8085 39.6386 49.0176C39.3128 48.2268 38.7594 47.5505 38.0486 47.0747C37.3379 46.5988 36.5018 46.3447 35.6465 46.3447C35.081 46.3404 34.5203 46.4481 33.9966 46.6616C33.4729 46.8751 32.9967 47.1901 32.5953 47.5884C32.1939 47.9868 31.8754 48.4607 31.658 48.9827C31.4406 49.5048 31.3287 50.0647 31.3287 50.6302ZM50.4043 54.078C50.3979 55.0672 50.6854 56.0359 51.2303 56.8615C51.7752 57.6871 52.553 58.3322 53.465 58.7152C54.377 59.0981 55.3822 59.2017 56.3532 59.0126C57.3241 58.8236 58.2171 58.3504 58.9188 57.6532C59.6205 56.9561 60.0994 56.0662 60.2947 55.0965C60.49 54.1268 60.393 53.121 60.016 52.2065C59.6389 51.292 58.9988 50.51 58.1768 49.9598C57.3548 49.4096 56.3879 49.1158 55.3987 49.1158C54.7432 49.1072 54.0925 49.2295 53.4848 49.4754C52.8771 49.7213 52.3245 50.086 51.8594 50.5481C51.3944 51.0101 51.0261 51.5603 50.7763 52.1665C50.5264 52.7726 50.3999 53.4224 50.4043 54.078Z" fill="url(#paint0_linear_1289_4064)"/>
<defs>
<linearGradient id="paint0_linear_1289_4064" x1="37.4187" y1="68.6102" x2="36.5165" y2="-18.0998" gradientUnits="userSpaceOnUse">
<stop stop-color="#198AB3"/>
<stop offset="0.09" stop-color="#22A5CB"/>
<stop offset="0.19" stop-color="#29BADE"/>
<stop offset="0.29" stop-color="#2EC9EB"/>
<stop offset="0.42" stop-color="#31D1F3"/>
<stop offset="0.62" stop-color="#32D4F5"/>
</linearGradient>
</defs>
</svg>
