<svg width="74" height="74" viewBox="0 0 74 74" fill="none" xmlns="http://www.w3.org/2000/svg">
<path d="M37.0004 7.72266C31.2098 7.72266 25.5493 9.43977 20.7346 12.6569C15.9199 15.8739 12.1673 20.4465 9.95131 25.7963C7.73534 31.1461 7.15554 37.0329 8.28523 42.7122C9.41492 48.3916 12.2034 53.6084 16.2979 57.7029C20.3925 61.7975 25.6093 64.586 31.2886 65.7156C36.968 66.8453 42.8548 66.2655 48.2046 64.0496C53.5544 61.8336 58.1269 58.081 61.344 53.2663C64.5611 48.4516 66.2782 42.791 66.2782 37.0004C66.2691 29.2383 63.1816 21.7967 57.6929 16.308C52.2042 10.8193 44.7626 7.73177 37.0004 7.72266ZM37.0004 62.2827C32.0001 62.2827 27.112 60.7999 22.9544 58.0218C18.7968 55.2438 15.5563 51.2952 13.6427 46.6755C11.7292 42.0558 11.2285 36.9724 12.204 32.0681C13.1795 27.1638 15.5874 22.659 19.1232 19.1232C22.659 15.5874 27.1639 13.1795 32.0681 12.204C36.9724 11.2285 42.0558 11.7292 46.6755 13.6427C51.2953 15.5563 55.2438 18.7967 58.0218 22.9544C60.7999 27.112 62.2827 32.0001 62.2827 37.0004C62.2827 43.7057 59.619 50.1363 54.8777 54.8777C50.1363 59.619 43.7057 62.2827 37.0004 62.2827Z" fill="url(#paint0_radial_1289_4018)"/>
<path d="M37 62.2832C50.963 62.2832 62.2822 50.964 62.2822 37.001C62.2822 23.038 50.963 11.7188 37 11.7188C23.037 11.7188 11.7178 23.038 11.7178 37.001C11.7178 50.964 23.037 62.2832 37 62.2832Z" fill="white"/>
<path d="M52.2932 31.2474C53.469 30.0606 54.1287 28.4575 54.1287 26.7868C54.1287 25.1162 53.469 23.5131 52.2932 22.3263L41.4432 11.4418C40.2623 10.2681 38.6649 9.60938 36.9999 9.60938C35.3349 9.60938 33.7375 10.2681 32.5566 11.4418L21.7066 22.3263C20.5307 23.5131 19.8711 25.1162 19.8711 26.7868C19.8711 28.4575 20.5307 30.0606 21.7066 31.2474L30.731 40.444C31.0607 40.7726 31.2465 41.2186 31.2477 41.684V58.4929C31.2485 59.0597 31.471 59.6037 31.8677 60.0085L36.001 64.1418C36.1321 64.273 36.2879 64.3771 36.4593 64.4482C36.6307 64.5192 36.8144 64.5557 36.9999 64.5557C37.1854 64.5557 37.3691 64.5192 37.5405 64.4482C37.7119 64.3771 37.8676 64.273 37.9988 64.1418L41.9943 60.1463L44.3366 57.804C44.4842 57.6448 44.5663 57.4357 44.5663 57.2185C44.5663 57.0013 44.4842 56.7922 44.3366 56.6329L42.6488 54.9452C42.4865 54.7727 42.3962 54.5448 42.3962 54.3079C42.3962 54.0711 42.4865 53.8432 42.6488 53.6707L44.3366 51.9829C44.4842 51.8237 44.5663 51.6146 44.5663 51.3974C44.5663 51.1802 44.4842 50.9711 44.3366 50.8118L42.6488 49.1241C42.4865 48.9516 42.3962 48.7236 42.3962 48.4868C42.3962 48.25 42.4865 48.0221 42.6488 47.8496L44.3366 46.1618C44.4842 46.0026 44.5663 45.7934 44.5663 45.5763C44.5663 45.3591 44.4842 45.1499 44.3366 44.9907L41.9943 42.614V41.7529L52.2932 31.2474ZM36.9999 14.094C37.9454 14.094 38.8522 14.4696 39.5207 15.1382C40.1893 15.8068 40.5649 16.7136 40.5649 17.659C40.5649 18.6045 40.1893 19.5113 39.5207 20.1799C38.8522 20.8485 37.9454 21.224 36.9999 21.224C36.0544 21.224 35.1476 20.8485 34.4791 20.1799C33.8105 19.5113 33.4349 18.6045 33.4349 17.659C33.4349 16.7136 33.8105 15.8068 34.4791 15.1382C35.1476 14.4696 36.0544 14.094 36.9999 14.094Z" fill="url(#paint1_radial_1289_4018)"/>
<path opacity="0.75" d="M34.1757 58.6996C34.2897 58.7977 34.4293 58.8614 34.5781 58.8831C34.7269 58.9048 34.8788 58.8837 35.0161 58.8223C35.1533 58.7609 35.2703 58.6617 35.3533 58.5363C35.4362 58.4109 35.4818 58.2644 35.4846 58.1141V44.3363C35.4836 44.199 35.4485 44.0642 35.3823 43.9439C35.3162 43.8236 35.2211 43.7217 35.1057 43.6474C34.9875 43.5699 34.85 43.5271 34.7087 43.5237C34.5674 43.5202 34.428 43.5564 34.3062 43.6281C34.1844 43.6997 34.085 43.804 34.0194 43.9292C33.9537 44.0543 33.9243 44.1953 33.9346 44.3363V58.1141C33.9468 58.3308 34.0317 58.5371 34.1757 58.6996Z" fill="#FF9300"/>
<path opacity="0.75" d="M45.1636 25.9434H29.2848C28.7521 25.9434 28.3203 26.3752 28.3203 26.9078V27.08C28.3203 27.6127 28.7521 28.0445 29.2848 28.0445H45.1636C45.6963 28.0445 46.1281 27.6127 46.1281 27.08V26.9078C46.1281 26.3752 45.6963 25.9434 45.1636 25.9434Z" fill="#FF9300"/>
<path opacity="0.75" d="M45.1636 29.3535H29.2848C28.7521 29.3535 28.3203 29.7853 28.3203 30.318V30.4902C28.3203 31.0228 28.7521 31.4546 29.2848 31.4546H45.1636C45.6963 31.4546 46.1281 31.0228 46.1281 30.4902V30.318C46.1281 29.7853 45.6963 29.3535 45.1636 29.3535Z" fill="#FF9300"/>
<defs>
<radialGradient id="paint0_radial_1289_4018" cx="0" cy="0" r="1" gradientUnits="userSpaceOnUse" gradientTransform="translate(37.0004 37.0004) scale(29.2778)">
<stop offset="0.18" stop-color="#5EA0EF"/>
<stop offset="0.56" stop-color="#5C9FEE"/>
<stop offset="0.69" stop-color="#559CED"/>
<stop offset="0.78" stop-color="#4A97E9"/>
<stop offset="0.86" stop-color="#3990E4"/>
<stop offset="0.93" stop-color="#2387DE"/>
<stop offset="0.99" stop-color="#087BD6"/>
<stop offset="1" stop-color="#0078D4"/>
</radialGradient>
<radialGradient id="paint1_radial_1289_4018" cx="0" cy="0" r="1" gradientUnits="userSpaceOnUse" gradientTransform="translate(33.2213 33.2307) scale(31.9892 31.9892)">
<stop offset="0.27" stop-color="#FFD70F"/>
<stop offset="0.49" stop-color="#FFCB12"/>
<stop offset="0.88" stop-color="#FEAC19"/>
<stop offset="1" stop-color="#FEA11B"/>
</radialGradient>
</defs>
</svg>
