<svg width="74" height="74" viewBox="0 0 74 74" fill="none" xmlns="http://www.w3.org/2000/svg">
<g clip-path="url(#clip0_1289_4290)">
<path d="M37.8105 20.0903L52.3839 28.4736L62.5439 22.6069C60.317 18.6479 57.2003 15.2608 53.4399 12.7128C49.6795 10.1649 45.3784 8.52593 40.876 7.92531C36.3735 7.32469 31.7931 7.77886 27.4963 9.25197C23.1995 10.7251 19.304 13.1768 16.1172 16.4136C23.556 15.1535 31.2023 16.4495 37.8105 20.0903Z" fill="url(#paint0_linear_1289_4290)"/>
<path d="M52.1941 28.4738L51.9641 48.5871L62.5241 51.4238C64.7118 47.5635 65.9944 43.2569 66.2752 38.8287C66.556 34.4005 65.8277 29.9664 64.1451 25.8607C62.4625 21.755 59.8696 18.085 56.562 15.1274C53.2544 12.1698 49.3183 10.0019 45.0508 8.78711C49.3964 14.4604 51.8905 21.3338 52.1941 28.4738Z" fill="#0078D4"/>
<path d="M52.1733 45.8198L37 54.5865L37.2367 66.2531C44.9955 66.2214 52.4258 63.1169 57.9009 57.6193C63.3761 52.1216 66.4501 44.6787 66.45 36.9198C66.4229 34.5665 66.1004 32.226 65.49 29.9531C62.939 36.5757 58.2531 42.1589 52.1733 45.8198Z" fill="#5EA0EF"/>
<path d="M37 54.587L21.8167 45.8203L11.75 51.8603C13.9887 55.6822 17.0657 58.9461 20.7491 61.406C24.4325 63.8659 28.6262 65.4577 33.0142 66.0614C37.4022 66.6651 41.8699 66.265 46.0807 64.8911C50.2916 63.5173 54.1357 61.2056 57.3233 58.1303C50.3443 59.1496 43.2223 57.9079 37 54.587Z" fill="url(#paint1_linear_1289_4290)"/>
<path d="M21.807 45.8196L22.037 25.0296L11.647 22.293C9.03987 26.7556 7.66628 31.8312 7.66699 36.9996C7.69588 43.4557 9.84258 49.7238 13.7776 54.8421C17.7127 59.9603 23.2186 63.6459 29.4503 65.333C24.9097 59.7966 22.2346 52.9671 21.807 45.8196Z" fill="#0078D4"/>
<path d="M22.3337 28.0005L37.0004 19.5239C30.9454 16.2351 24.0596 14.7924 17.1937 15.3739C14.186 18.1155 11.7848 21.4557 10.1442 25.1801C8.50359 28.9045 7.65982 32.9308 7.66704 37.0005C7.67823 39.6128 8.03008 42.2126 8.7137 44.7339C11.3272 37.8314 16.1055 31.9608 22.3337 28.0005Z" fill="#5EA0EF"/>
<path d="M52.1733 45.8201V28.2868L36.99 19.5234L21.8066 28.2868V45.8201L36.99 54.5868L52.1733 45.8201Z" fill="#C3F1FF"/>
<path d="M37.01 37.2357V54.5857L21.8066 45.819V28.3457L37.01 37.2357Z" fill="url(#paint2_linear_1289_4290)"/>
<path d="M36.9902 37.2357V54.5857L52.1936 45.819V28.3457L36.9902 37.2357Z" fill="#50E6FF"/>
</g>
<defs>
<linearGradient id="paint0_linear_1289_4290" x1="-35.8859" y1="18.1643" x2="81.6302" y2="18.0712" gradientUnits="userSpaceOnUse">
<stop stop-color="#005BA1"/>
<stop offset="0.366" stop-color="#004E8F"/>
<stop offset="1" stop-color="#003067"/>
</linearGradient>
<linearGradient id="paint1_linear_1289_4290" x1="106.537" y1="55.546" x2="-37.3563" y2="56.3192" gradientUnits="userSpaceOnUse">
<stop stop-color="#005BA1"/>
<stop offset="0.451" stop-color="#004685"/>
<stop offset="1" stop-color="#003067"/>
</linearGradient>
<linearGradient id="paint2_linear_1289_4290" x1="27.01" y1="55.1557" x2="31.8233" y2="27.679" gradientUnits="userSpaceOnUse">
<stop offset="0.26" stop-color="#50E6FF"/>
<stop offset="0.42" stop-color="#79EAFF"/>
<stop offset="0.58" stop-color="#99EDFF"/>
<stop offset="0.733" stop-color="#B0EFFF"/>
<stop offset="0.876" stop-color="#BEF1FF"/>
<stop offset="1" stop-color="#C3F1FF"/>
</linearGradient>
<clipPath id="clip0_1289_4290">
<rect width="60" height="60" fill="white" transform="translate(7 7)"/>
</clipPath>
</defs>
</svg>
