<svg width="74" height="74" viewBox="0 0 74 74" fill="none" xmlns="http://www.w3.org/2000/svg">
<mask id="mask0_1289_8922" style="mask-type:luminance" maskUnits="userSpaceOnUse" x="6" y="10" width="62" height="54">
<path d="M51.0796 10.1328H22.9213C22.0171 10.1328 21.113 10.6495 20.5963 11.4245L6.64629 35.7078C6.12962 36.4828 6.12962 37.5161 6.64629 38.4203L20.7255 62.5745C21.2421 63.3495 22.1463 63.8661 23.0505 63.8661H51.0796C51.9838 63.8661 52.888 63.3495 53.4046 62.5745L67.3546 38.2911C67.8713 37.5161 67.8713 36.4828 67.3546 35.5786L53.4046 11.5536C52.888 10.6495 51.9838 10.1328 51.0796 10.1328Z" fill="white"/>
</mask>
<g mask="url(#mask0_1289_8922)">
<path d="M20.5967 10.0039L26.1508 20.3372L51.7259 10.0039H20.5967Z" fill="#28A8EA"/>
</g>
<mask id="mask1_1289_8922" style="mask-type:luminance" maskUnits="userSpaceOnUse" x="6" y="10" width="62" height="54">
<path d="M51.0796 10.1328H22.9213C22.0171 10.1328 21.113 10.6495 20.5963 11.4245L6.64629 35.7078C6.12962 36.4828 6.12962 37.5161 6.64629 38.4203L20.7255 62.5745C21.2421 63.3495 22.1463 63.8661 23.0505 63.8661H51.0796C51.9838 63.8661 52.888 63.3495 53.4046 62.5745L67.3546 38.2911C67.8713 37.5161 67.8713 36.4828 67.3546 35.5786L53.4046 11.5536C52.888 10.6495 51.9838 10.1328 51.0796 10.1328Z" fill="white"/>
</mask>
<g mask="url(#mask1_1289_8922)">
<path d="M20.5963 10.0039L26.1505 20.3372L6.25879 36.0956V10.0039H20.5963Z" fill="#0078D4"/>
</g>
<mask id="mask2_1289_8922" style="mask-type:luminance" maskUnits="userSpaceOnUse" x="6" y="10" width="62" height="54">
<path d="M51.0796 10.1328H22.9213C22.0171 10.1328 21.113 10.6495 20.5963 11.4245L6.64629 35.7078C6.12962 36.4828 6.12962 37.5161 6.64629 38.4203L20.7255 62.5745C21.2421 63.3495 22.1463 63.8661 23.0505 63.8661H51.0796C51.9838 63.8661 52.888 63.3495 53.4046 62.5745L67.3546 38.2911C67.8713 37.5161 67.8713 36.4828 67.3546 35.5786L53.4046 11.5536C52.888 10.6495 51.9838 10.1328 51.0796 10.1328Z" fill="white"/>
</mask>
<g mask="url(#mask2_1289_8922)">
<path d="M4.9668 37.0004L26.1501 20.3379L27.3126 53.9212L4.9668 37.0004Z" fill="#0364B8"/>
</g>
<mask id="mask3_1289_8922" style="mask-type:luminance" maskUnits="userSpaceOnUse" x="6" y="10" width="62" height="54">
<path d="M51.0796 10.1328H22.9213C22.0171 10.1328 21.113 10.6495 20.5963 11.4245L6.64629 35.7078C6.12962 36.4828 6.12962 37.5161 6.64629 38.4203L20.7255 62.5745C21.2421 63.3495 22.1463 63.8661 23.0505 63.8661H51.0796C51.9838 63.8661 52.888 63.3495 53.4046 62.5745L67.3546 38.2911C67.8713 37.5161 67.8713 36.4828 67.3546 35.5786L53.4046 11.5536C52.888 10.6495 51.9838 10.1328 51.0796 10.1328Z" fill="white"/>
</mask>
<g mask="url(#mask3_1289_8922)">
<path d="M4.9668 37L27.3126 53.9208L20.8543 63.8667L6.25846 64.3833L4.9668 37Z" fill="#14447D"/>
</g>
<mask id="mask4_1289_8922" style="mask-type:luminance" maskUnits="userSpaceOnUse" x="6" y="10" width="62" height="54">
<path d="M51.0796 10.1328H22.9213C22.0171 10.1328 21.113 10.6495 20.5963 11.4245L6.64629 35.7078C6.12962 36.4828 6.12962 37.5161 6.64629 38.4203L20.7255 62.5745C21.2421 63.3495 22.1463 63.8661 23.0505 63.8661H51.0796C51.9838 63.8661 52.888 63.3495 53.4046 62.5745L67.3546 38.2911C67.8713 37.5161 67.8713 36.4828 67.3546 35.5786L53.4046 11.5536C52.888 10.6495 51.9838 10.1328 51.0796 10.1328Z" fill="white"/>
</mask>
<g mask="url(#mask4_1289_8922)">
<path d="M20.8545 63.8658L27.3128 53.9199L52.7587 64.3824L20.8545 63.8658Z" fill="#0F335E"/>
</g>
<mask id="mask5_1289_8922" style="mask-type:luminance" maskUnits="userSpaceOnUse" x="6" y="10" width="62" height="54">
<path d="M51.0796 10.1328H22.9213C22.0171 10.1328 21.113 10.6495 20.5963 11.4245L6.64629 35.7078C6.12962 36.4828 6.12962 37.5161 6.64629 38.4203L20.7255 62.5745C21.2421 63.3495 22.1463 63.8661 23.0505 63.8661H51.0796C51.9838 63.8661 52.888 63.3495 53.4046 62.5745L67.3546 38.2911C67.8713 37.5161 67.8713 36.4828 67.3546 35.5786L53.4046 11.5536C52.888 10.6495 51.9838 10.1328 51.0796 10.1328Z" fill="white"/>
</mask>
<g mask="url(#mask5_1289_8922)">
<path d="M27.3125 53.9208L53.4042 37L52.7583 64.3833L27.3125 53.9208Z" fill="#0364B8"/>
</g>
<mask id="mask6_1289_8922" style="mask-type:luminance" maskUnits="userSpaceOnUse" x="6" y="10" width="62" height="54">
<path d="M51.0796 10.1328H22.9213C22.0171 10.1328 21.113 10.6495 20.5963 11.4245L6.64629 35.7078C6.12962 36.4828 6.12962 37.5161 6.64629 38.4203L20.7255 62.5745C21.2421 63.3495 22.1463 63.8661 23.0505 63.8661H51.0796C51.9838 63.8661 52.888 63.3495 53.4046 62.5745L67.3546 38.2911C67.8713 37.5161 67.8713 36.4828 67.3546 35.5786L53.4046 11.5536C52.888 10.6495 51.9838 10.1328 51.0796 10.1328Z" fill="white"/>
</mask>
<g mask="url(#mask6_1289_8922)">
<path d="M27.3129 53.9212L26.1504 20.3379L53.4046 37.0004L27.3129 53.9212Z" fill="#28A8EA"/>
</g>
<mask id="mask7_1289_8922" style="mask-type:luminance" maskUnits="userSpaceOnUse" x="6" y="10" width="62" height="54">
<path d="M51.0796 10.1328H22.9213C22.0171 10.1328 21.113 10.6495 20.5963 11.4245L6.64629 35.7078C6.12962 36.4828 6.12962 37.5161 6.64629 38.4203L20.7255 62.5745C21.2421 63.3495 22.1463 63.8661 23.0505 63.8661H51.0796C51.9838 63.8661 52.888 63.3495 53.4046 62.5745L67.3546 38.2911C67.8713 37.5161 67.8713 36.4828 67.3546 35.5786L53.4046 11.5536C52.888 10.6495 51.9838 10.1328 51.0796 10.1328Z" fill="white"/>
</mask>
<g mask="url(#mask7_1289_8922)">
<path d="M26.1504 20.3361L52.7587 9.61523L53.4046 36.9986L26.1504 20.3361Z" fill="#50D9FF"/>
</g>
<mask id="mask8_1289_8922" style="mask-type:luminance" maskUnits="userSpaceOnUse" x="6" y="10" width="62" height="54">
<path d="M51.0796 10.1328H22.9213C22.0171 10.1328 21.113 10.6495 20.5963 11.4245L6.64629 35.7078C6.12962 36.4828 6.12962 37.5161 6.64629 38.4203L20.7255 62.5745C21.2421 63.3495 22.1463 63.8661 23.0505 63.8661H51.0796C51.9838 63.8661 52.888 63.3495 53.4046 62.5745L67.3546 38.2911C67.8713 37.5161 67.8713 36.4828 67.3546 35.5786L53.4046 11.5536C52.888 10.6495 51.9838 10.1328 51.0796 10.1328Z" fill="white"/>
</mask>
<g mask="url(#mask8_1289_8922)">
<path d="M53.4046 36.9986L52.7588 9.61523L68.1296 10.0027V36.9986H53.4046Z" fill="#28A8EA"/>
</g>
<mask id="mask9_1289_8922" style="mask-type:luminance" maskUnits="userSpaceOnUse" x="6" y="10" width="62" height="54">
<path d="M51.0796 10.1328H22.9213C22.0171 10.1328 21.113 10.6495 20.5963 11.4245L6.64629 35.7078C6.12962 36.4828 6.12962 37.5161 6.64629 38.4203L20.7255 62.5745C21.2421 63.3495 22.1463 63.8661 23.0505 63.8661H51.0796C51.9838 63.8661 52.888 63.3495 53.4046 62.5745L67.3546 38.2911C67.8713 37.5161 67.8713 36.4828 67.3546 35.5786L53.4046 11.5536C52.888 10.6495 51.9838 10.1328 51.0796 10.1328Z" fill="white"/>
</mask>
<g mask="url(#mask9_1289_8922)">
<path d="M53.4046 37L52.7588 65.2875H67.3546L68.1296 37H53.4046Z" fill="#0078D4"/>
</g>
</svg>
