<svg width="74" height="74" viewBox="0 0 74 74" fill="none" xmlns="http://www.w3.org/2000/svg">
<path d="M34.9999 45C39.9705 45 44 40.9704 44 36C44 31.0294 39.9705 27 34.9999 27C30.0293 27 26 31.0294 26 36C26 40.9704 30.0293 45 34.9999 45Z" fill="url(#paint0_linear_2038_6339)"/>
<path d="M60.4999 26C62.9852 26 65 23.9853 65 21.5C65 19.0147 62.9852 17 60.4999 17C58.0148 17 56 19.0147 56 21.5C56 23.9853 58.0148 26 60.4999 26Z" fill="#32BEDD"/>
<path d="M60.4999 41C62.9852 41 65 38.9854 65 36.5C65 34.0148 62.9852 32 60.4999 32C58.0148 32 56 34.0148 56 36.5C56 38.9854 58.0148 41 60.4999 41Z" fill="#32BEDD"/>
<path d="M60.4999 56C62.9852 56 65 53.9852 65 51.5C65 49.0146 62.9852 47 60.4999 47C58.0148 47 56 49.0146 56 51.5C56 53.9852 58.0148 56 60.4999 56Z" fill="#32BEDD"/>
<path d="M50.4999 34C52.9852 34 55 31.9854 55 29.5C55 27.0147 52.9852 25 50.4999 25C48.0148 25 46 27.0147 46 29.5C46 31.9854 48.0148 34 50.4999 34Z" fill="#50E6FF"/>
<path d="M50.4999 49C52.9852 49 55 46.9854 55 44.5C55 42.0148 52.9852 40 50.4999 40C48.0148 40 46 42.0148 46 44.5C46 46.9854 48.0148 49 50.4999 49Z" fill="#50E6FF"/>
<path d="M13.8926 24.6547C13.9714 24.537 14.0788 24.4413 14.2049 24.3767L34.3996 12.5962C34.6773 12.5962 51.7491 22.2569 51.7491 22.2569C51.8763 22.3304 52.0206 22.369 52.1674 22.3687C52.3142 22.3683 52.4583 22.3291 52.5852 22.2551C52.7119 22.181 52.817 22.0746 52.8895 21.9468C52.9622 21.8189 52.9996 21.6742 52.9983 21.5271V17.7393C52.9996 17.5917 52.9617 17.4463 52.8886 17.3181C52.8154 17.1899 52.7097 17.0834 52.5818 17.0096C52.5818 17.0096 34.6773 6.86241 34.4344 7.00142L9.38169 21.3881L9 21.6661L13.8926 24.6547ZM51.6798 50.9261L35.2323 60.4131C35.1061 60.4332 34.9771 60.4332 34.8507 60.4131V65.9732C34.9753 66.0089 35.1076 66.0089 35.2323 65.9732L52.5818 56.0345C52.7045 55.9637 52.8071 55.8627 52.8801 55.741C52.9528 55.6194 52.9936 55.4812 52.9983 55.3395V51.6559C53.0084 51.498 52.9735 51.3405 52.8977 51.2018C52.8219 51.0631 52.7083 50.9489 52.57 50.8723C52.4317 50.7959 52.2747 50.7603 52.117 50.7697C51.9595 50.7793 51.8078 50.8336 51.6798 50.9261Z" fill="#949494"/>
<path d="M35 60.5588C34.8505 60.5905 34.6961 60.5905 34.5468 60.5588L14.2562 48.7291C14.1281 48.6644 14.021 48.5655 13.947 48.4435C13.873 48.3216 13.8352 48.1815 13.8378 48.0394V25.3799C13.8064 25.2437 13.8064 25.1023 13.8378 24.9661L9.02668 22C8.99111 22.1474 8.99111 22.301 9.02668 22.4484V50.9709C9.02175 51.1141 9.05449 51.2562 9.12173 51.3831C9.18894 51.5101 9.28834 51.6176 9.41017 51.6952L34.5816 65.9737C34.7187 66.0088 34.8628 66.0088 35 65.9737V60.5588Z" fill="#B3B3B3"/>
<defs>
<linearGradient id="paint0_linear_2038_6339" x1="34.9999" y1="45.0344" x2="34.9999" y2="27" gradientUnits="userSpaceOnUse">
<stop stop-color="#198AB3"/>
<stop offset="0.16" stop-color="#1F9AC2"/>
<stop offset="0.5" stop-color="#29BADE"/>
<stop offset="0.8" stop-color="#30CDEF"/>
<stop offset="1" stop-color="#32D4F5"/>
</linearGradient>
</defs>
</svg>
