<svg width="74" height="74" viewBox="0 0 74 74" fill="none" xmlns="http://www.w3.org/2000/svg">
<path d="M42.6594 36.7303C41.139 36.7303 39.6808 36.1268 38.6051 35.0524C37.5293 33.978 36.9241 32.5204 36.9222 31C35.481 31.016 34.08 31.4765 32.9103 32.3186C31.7406 33.1606 30.8593 34.3432 30.3869 35.7049C29.9144 37.0665 29.8737 38.5408 30.2703 39.9264C30.667 41.312 31.4817 42.5414 32.6031 43.4467C33.7246 44.352 35.0981 44.8891 36.5362 44.9846C37.9743 45.0801 39.4068 44.7294 40.6381 43.9803C41.8694 43.2312 42.8394 42.1204 43.4158 40.7993C43.9922 39.4783 44.1468 38.0116 43.8585 36.5995C43.4645 36.6847 43.0626 36.7286 42.6594 36.7303Z" fill="url(#paint0_linear_2042_2146)"/>
<path d="M50.8971 45.0772C50.6384 42.5668 49.8403 40.1395 48.5559 37.9568C48.3763 40.8296 47.0933 43.5272 44.9678 45.5008C42.8424 47.4744 40.0341 48.5758 37.1142 48.5811C36.8394 48.5811 36.5825 48.5213 36.3148 48.5002C30.2479 48.4215 24.4357 46.084 20.0445 41.9567C16.269 38.3812 13.4692 33.9249 11.904 29C9.83794 30.8509 7.88138 32.8172 6.04393 34.8891C5.71477 35.1885 5.45209 35.5519 5.27242 35.9564C5.09275 36.3608 5 36.7976 5 37.2391C5 37.6806 5.09275 38.1174 5.27242 38.5218C5.45209 38.9263 5.71477 39.2897 6.04393 39.5891C9.9936 44.2579 14.6468 48.3014 19.8411 51.5784C25.0649 55.1073 31.249 56.997 37.5817 56.9996C41.6974 57.0225 45.7585 56.0706 49.4232 54.2239C49.6551 54.1184 49.855 53.9777 50.0834 53.8721C50.8958 51.0138 51.1716 48.0332 50.8971 45.0772Z" fill="url(#paint1_linear_2042_2146)"/>
<path d="M26.9268 42C25.7638 39.8528 25.3364 37.382 25.7103 34.9676C26.0842 32.5532 27.2387 30.3287 28.9963 28.6359C31.8348 24.8056 35.8139 21.9783 40.3593 20.562C42.8374 19.8035 45.4093 19.397 48 19.3545C45.9157 18.449 43.7335 17.7893 41.4973 17.3887C35.3739 16.3552 29.0815 17.3965 23.6142 20.3479C20.5552 21.9385 17.6684 23.8419 15 26.0277C16.2596 30.8473 18.8012 35.2334 22.3536 38.7178C23.7237 40.0131 25.262 41.1172 26.9268 42Z" fill="url(#paint2_linear_2042_2146)"/>
<path d="M68.0407 35.0285C64.5764 30.8151 60.5756 27.0882 56.1435 23.9457C51.509 22.6608 46.6169 22.6857 41.9953 24.0177C40.6065 24.4469 39.2671 25.0261 38 25.7455C39.9799 25.8871 41.8889 26.5522 43.5374 27.6748C43.6851 27.7177 43.8259 27.782 43.9557 27.8655C46.6837 29.7255 49.0027 32.1391 50.7666 34.9541C52.5305 37.7691 53.701 40.9245 54.2044 44.2215C54.5292 46.8069 54.4898 49.426 54.0874 52C59.3404 48.6102 64.0429 44.4124 68.0265 39.5566C68.3325 39.2674 68.5767 38.9175 68.7441 38.5286C68.9116 38.1397 68.9987 37.7201 69 37.2957C69.0013 36.8713 68.9169 36.4511 68.7519 36.0611C68.5869 35.6711 68.3448 35.3197 68.0407 35.0285Z" fill="url(#paint3_linear_2042_2146)"/>
<defs>
<linearGradient id="paint0_linear_2042_2146" x1="37" y1="44.9863" x2="37" y2="30.9929" gradientUnits="userSpaceOnUse">
<stop stop-color="#29BADE"/>
<stop offset="1" stop-color="#50E6FF"/>
</linearGradient>
<linearGradient id="paint1_linear_2042_2146" x1="27.9994" y1="57.0207" x2="27.9994" y2="17.4364" gradientUnits="userSpaceOnUse">
<stop offset="0.041" stop-color="#32BEDD"/>
<stop offset="0.495" stop-color="#50E6FF"/>
<stop offset="0.92" stop-color="#C3F1FF"/>
</linearGradient>
<linearGradient id="paint2_linear_2042_2146" x1="31.5" y1="40.4098" x2="31.5" y2="6.03254" gradientUnits="userSpaceOnUse">
<stop offset="0.244" stop-color="#0078D4"/>
<stop offset="0.6" stop-color="#2E8CE1"/>
<stop offset="0.933" stop-color="#589EED"/>
</linearGradient>
<linearGradient id="paint3_linear_2042_2146" x1="53.4989" y1="57.5144" x2="53.4989" y2="19.9611" gradientUnits="userSpaceOnUse">
<stop stop-color="#005BA1"/>
<stop offset="0.399" stop-color="#0078D4"/>
<stop offset="0.857" stop-color="#5EA0EF"/>
</linearGradient>
</defs>
</svg>
