<svg width="74" height="74" viewBox="0 0 74 74" fill="none" xmlns="http://www.w3.org/2000/svg">
<path d="M64.6491 50.6036C61.4472 52.2726 44.86 59.0927 41.3286 60.9335C37.7974 62.7748 35.8356 62.757 33.046 61.4234C30.2564 60.0897 12.6046 52.9596 9.42492 51.4399C7.83557 50.6802 7 50.0392 7 49.4335V43.3689C7 43.3689 29.9802 38.366 33.6903 37.0352C37.4001 35.7041 38.6873 35.6561 41.8444 36.8125C45.0018 37.9692 63.8797 41.3752 67 42.5181C67 42.5181 66.9986 47.9347 66.9986 48.497C66.9991 49.0965 66.279 49.7542 64.6491 50.6036Z" fill="#912626"/>
<path d="M64.648 44.5756C61.4462 46.2439 44.8595 53.0642 41.3282 54.905C37.7971 56.7465 35.8354 56.7284 33.0459 55.3948C30.2561 54.0622 12.6051 46.9308 9.42558 45.4119C6.24605 43.8919 6.17926 42.8459 9.30277 41.623C12.426 40.3995 29.9802 33.5124 33.6906 32.1814C37.4003 30.8509 38.6873 30.8023 41.8443 31.9592C45.0016 33.1156 61.4894 39.6783 64.6094 40.8209C67.7301 41.9649 67.8498 42.9066 64.648 44.5756Z" fill="#C6302B"/>
<path d="M64.6491 40.791C61.4472 42.46 44.86 49.2801 41.3286 51.1216C37.7974 52.9622 35.8356 52.9444 33.046 51.6108C30.2561 50.2779 12.6046 43.147 9.42492 41.6273C7.83557 40.8676 7 40.2273 7 39.6217V33.5563C7 33.5563 29.9802 28.5537 33.6903 27.2226C37.4001 25.8918 38.6873 25.8435 41.8444 26.9999C45.0018 28.1566 63.8797 31.562 67 32.705C67 32.705 66.9986 38.1216 66.9986 38.6846C66.9991 39.2839 66.279 39.9416 64.6491 40.791Z" fill="#912626"/>
<path d="M64.648 34.761C61.4462 36.4298 44.8595 43.2496 41.3282 45.0911C37.7971 46.9319 35.8354 46.9138 33.0459 45.5803C30.2561 44.2476 12.6051 37.1165 9.42558 35.5973C6.24605 34.0778 6.17926 33.0316 9.30277 31.8082C12.426 30.5854 29.9802 23.6978 33.6906 22.3671C37.4003 21.0363 38.6873 20.988 41.8443 22.1446C45.0016 23.3011 61.4894 29.8633 64.6094 31.0064C67.7301 32.1499 67.8498 33.0923 64.648 34.761Z" fill="#C6302B"/>
<path d="M64.6491 30.6146C61.4472 32.2836 44.86 39.1039 41.3286 40.9455C37.7974 42.7863 35.8356 42.7683 33.046 41.4346C30.2561 40.1017 12.6046 32.9706 9.42492 31.4513C7.83557 30.6915 7 30.0509 7 29.4457V23.3802C7 23.3802 29.9802 18.3777 33.6903 17.0469C37.4001 15.7159 38.6873 15.6678 41.8444 16.8242C45.0018 17.9809 63.8797 21.3863 67 22.5293C67 22.5293 66.9986 27.9459 66.9986 28.5087C66.9991 29.1075 66.279 29.7652 64.6491 30.6146Z" fill="#912626"/>
<path d="M64.648 24.585C61.4462 26.2537 44.8595 33.074 41.3282 34.9151C37.7971 36.7558 35.8354 36.7378 33.0459 35.4047C30.2563 34.0715 12.6051 26.9409 9.42558 25.4215C6.24605 23.902 6.17926 22.8555 9.30277 21.6323C12.426 20.4094 29.9802 13.5225 33.6906 12.1912C37.4003 10.8602 38.6873 10.8124 41.8443 11.9691C45.0016 13.1257 61.4894 19.688 64.6094 20.831C67.7301 21.9738 67.8498 22.9162 64.648 24.585Z" fill="#C6302B"/>
<path d="M44.3304 18.6859L39.1721 19.2215L38.0172 22.0001L36.1518 18.8994L30.1953 18.364L34.64 16.7612L33.3065 14.3008L37.4676 15.9282L41.3907 14.6438L40.3304 17.188L44.3304 18.6859Z" fill="white"/>
<path d="M37.7095 32.1671L28.082 28.1741L41.8776 26.0566L37.7095 32.1671Z" fill="white"/>
<path d="M24.3657 20.2305C28.438 20.2305 31.7392 21.5102 31.7392 23.0886C31.7392 24.6672 28.438 25.9467 24.3657 25.9467C20.2936 25.9467 16.9922 24.6672 16.9922 23.0886C16.9922 21.5102 20.2936 20.2305 24.3657 20.2305Z" fill="white"/>
<path d="M50.4297 19.4434L58.5943 22.6699L50.4367 25.8931L50.4297 19.4434Z" fill="#621B1C"/>
<path d="M41.3984 23.0164L50.4312 19.4434L50.4382 25.8931L49.5526 26.2396L41.3984 23.0164Z" fill="#9A2928"/>
</svg>
