<svg width="74" height="74" viewBox="0 0 74 74" fill="none" xmlns="http://www.w3.org/2000/svg">
<path d="M54.0604 30.7781L54.041 30.7625V30.7159H53.9671L36.9882 19.1309L20.0093 30.7159H19.9354V30.7625L19.9121 30.7781H19.9354V53.3375H54.041V30.7781H54.0604Z" fill="#50E6FF"/>
<path d="M19.9121 30.7765C19.9121 30.3876 19.9432 52.8692 19.9432 53.332L36.9804 42.0542L19.9121 30.7765Z" fill="#32BEDD"/>
<path d="M54.0488 30.7765L36.9805 42.0542L54.0177 53.332C54.0177 52.877 54.0488 30.3876 54.0488 30.7765Z" fill="#198AB3"/>
<path d="M36.9806 42.0508L19.9434 53.3091V53.3286H54.0178V53.3091L36.9806 42.0508Z" fill="url(#paint0_linear_1289_4384)"/>
<path d="M6.16878 7.56055H11.1854V21.5605C11.1854 21.8555 11.0683 22.1384 10.8597 22.347C10.6511 22.5556 10.3682 22.6728 10.0732 22.6728H5.05656C4.76492 22.6728 4.48493 22.5583 4.27689 22.3539C4.06886 22.1495 3.94943 21.8716 3.94434 21.58V9.77721C3.94639 9.1886 4.18166 8.6248 4.5986 8.20932C5.01555 7.79384 5.58017 7.56054 6.16878 7.56055Z" fill="#999999"/>
<path opacity="0.5" d="M6.16878 7.56055H11.1854V21.5605C11.1854 21.8555 11.0683 22.1384 10.8597 22.347C10.6511 22.5556 10.3682 22.6728 10.0732 22.6728H5.05656C4.76492 22.6728 4.48493 22.5583 4.27689 22.3539C4.06886 22.1495 3.94943 21.8716 3.94434 21.58V9.77721C3.94639 9.1886 4.18166 8.6248 4.5986 8.20932C5.01555 7.79384 5.58017 7.56054 6.16878 7.56055Z" fill="#999999"/>
<path d="M62.8145 7.56055H67.8311C68.4197 7.56054 68.9844 7.79384 69.4013 8.20932C69.8182 8.6248 70.0535 9.1886 70.0556 9.77721V21.58C70.0556 21.875 69.9384 22.1579 69.7298 22.3665C69.5212 22.575 69.2383 22.6922 68.9433 22.6922H63.9267C63.6317 22.6922 63.3488 22.575 63.1402 22.3665C62.9316 22.1579 62.8145 21.875 62.8145 21.58V7.56055Z" fill="#999999"/>
<path opacity="0.5" d="M62.8145 7.56055H67.8311C68.4197 7.56054 68.9844 7.79384 69.4013 8.20932C69.8182 8.6248 70.0535 9.1886 70.0556 9.77721V21.58C70.0556 21.875 69.9384 22.1579 69.7298 22.3665C69.5212 22.575 69.2383 22.6922 68.9433 22.6922H63.9267C63.6317 22.6922 63.3488 22.575 63.1402 22.3665C62.9316 22.1579 62.8145 21.875 62.8145 21.58V7.56055Z" fill="#999999"/>
<path d="M70.0557 9.76554V14.615L3.94456 14.615V9.76554C3.94456 9.18074 4.17686 8.61989 4.59039 8.20637C5.0039 7.79286 5.56475 7.56055 6.14956 7.56055L67.8662 7.56055C68.4483 7.56465 69.0052 7.79878 69.4153 8.21185C69.8255 8.62492 70.0557 9.18343 70.0557 9.76554Z" fill="#949494"/>
<path d="M5.05656 51.3066H10.0732C10.2193 51.3066 10.3639 51.3354 10.4989 51.3913C10.6338 51.4472 10.7564 51.5291 10.8597 51.6324C10.963 51.7357 11.0449 51.8583 11.1008 51.9932C11.1567 52.1282 11.1854 52.2728 11.1854 52.4189V66.4189H6.16878C5.58351 66.4189 5.0218 66.1883 4.60541 65.777C4.18902 65.3657 3.9515 64.8069 3.94434 64.2216V52.4189C3.94434 52.1239 4.06152 51.841 4.2701 51.6324C4.47868 51.4238 4.76158 51.3066 5.05656 51.3066Z" fill="#999999"/>
<path opacity="0.5" d="M5.05656 51.3066H10.0732C10.2193 51.3066 10.3639 51.3354 10.4989 51.3913C10.6338 51.4472 10.7564 51.5291 10.8597 51.6324C10.963 51.7357 11.0449 51.8583 11.1008 51.9932C11.1567 52.1282 11.1854 52.2728 11.1854 52.4189V66.4189H6.16878C5.58351 66.4189 5.0218 66.1883 4.60541 65.777C4.18902 65.3657 3.9515 64.8069 3.94434 64.2216V52.4189C3.94434 52.1239 4.06152 51.841 4.2701 51.6324C4.47868 51.4238 4.76158 51.3066 5.05656 51.3066Z" fill="#999999"/>
<path d="M63.927 51.3066H68.9437C69.2387 51.3066 69.5216 51.4238 69.7301 51.6324C69.9387 51.841 70.0559 52.1239 70.0559 52.4189V64.2216C70.0559 64.8116 69.8215 65.3774 69.4044 65.7946C68.9872 66.2117 68.4214 66.4461 67.8315 66.4461H62.8148V52.4461C62.8112 52.2978 62.8372 52.1502 62.8915 52.0121C62.9458 51.874 63.0271 51.7481 63.1308 51.642C63.2344 51.5358 63.3583 51.4514 63.495 51.3938C63.6317 51.3362 63.7786 51.3066 63.927 51.3066Z" fill="#999999"/>
<path opacity="0.5" d="M63.927 51.3066H68.9437C69.2387 51.3066 69.5216 51.4238 69.7301 51.6324C69.9387 51.841 70.0559 52.1239 70.0559 52.4189V64.2216C70.0559 64.8116 69.8215 65.3774 69.4044 65.7946C68.9872 66.2117 68.4214 66.4461 67.8315 66.4461H62.8148V52.4461C62.8112 52.2978 62.8372 52.1502 62.8915 52.0121C62.9458 51.874 63.0271 51.7481 63.1308 51.642C63.2344 51.5358 63.3583 51.4514 63.495 51.3938C63.6317 51.3362 63.7786 51.3066 63.927 51.3066Z" fill="#999999"/>
<path d="M3.94434 64.2325L3.94434 59.3831L70.0554 59.3831V64.2325C70.0554 64.8173 69.8231 65.3782 69.4096 65.7917C68.9961 66.2052 68.4352 66.4375 67.8504 66.4375H6.14934C5.56453 66.4375 5.00368 66.2052 4.59017 65.7917C4.17665 65.3782 3.94434 64.8173 3.94434 64.2325Z" fill="#949494"/>
<defs>
<linearGradient id="paint0_linear_1289_4384" x1="36.9806" y1="42.0508" x2="36.9806" y2="53.3286" gradientUnits="userSpaceOnUse">
<stop stop-color="#005BA1"/>
<stop offset="0.258" stop-color="#00589D"/>
<stop offset="0.525" stop-color="#004F90"/>
<stop offset="0.796" stop-color="#003F7C"/>
<stop offset="1" stop-color="#003067"/>
</linearGradient>
</defs>
</svg>
