<svg width="74" height="74" viewBox="0 0 74 74" fill="none" xmlns="http://www.w3.org/2000/svg">
<path d="M31 6L7 20.0204V23.4894H11.4126V49.7958H15.7534V23.4894H46.2467V52H50.5874V23.4894H55V20.0204L31 6Z" fill="url(#paint0_linear_2038_416)"/>
<path d="M20 50H28.8073V41.229H20V50ZM33.1928 50H42V41.229H33.3015L33.1928 50ZM20 36.8797H28.8073V28H20V36.8797ZM33.3015 28V36.8797H42V28H33.3015Z" fill="#50E6FF"/>
<path d="M51.8564 41.8966C43.567 41.8966 37 39.6876 37 37V63.1034C37 65.791 43.6028 67.9632 51.7846 68H51.9999C60.2894 68 67 65.791 67 63.1034V37C66.8563 39.6876 60.1459 41.8966 51.8564 41.8966Z" fill="url(#paint1_linear_2038_416)"/>
<path d="M66.8563 37.0001C66.8563 39.7444 60.1459 42 51.8564 42C43.567 42 37 39.7444 37 37.0001C37 34.2556 43.7104 32 51.9999 32C60.2894 32 67 34.2181 67 37.0001" fill="#E8E8E8"/>
<path d="M64 37C64 38.6589 58.6084 40 51.9813 40C45.3542 40 40 38.553 40 37C40 35.447 45.3542 34 51.9813 34C58.6084 34 64 35.3411 64 37Z" fill="#50E6FF"/>
<path d="M52 38.0077C48.9603 37.9441 45.9267 38.2737 43 38.9854C45.9238 39.7117 48.9581 40.0515 52 39.9937C55.0419 40.0515 58.0762 39.7117 61 38.9854C58.0735 38.2737 55.0397 37.9441 52 38.0077Z" fill="#32BEDD"/>
<defs>
<linearGradient id="paint0_linear_2038_416" x1="31" y1="6" x2="31" y2="52" gradientUnits="userSpaceOnUse">
<stop stop-color="#B3B2B3"/>
<stop offset="0.38" stop-color="#AFAEAF"/>
<stop offset="0.76" stop-color="#A2A2A2"/>
<stop offset="1" stop-color="#979797"/>
</linearGradient>
<linearGradient id="paint1_linear_2038_416" x1="36.8565" y1="52.5" x2="66.8563" y2="52.5" gradientUnits="userSpaceOnUse">
<stop stop-color="#005BA1"/>
<stop offset="0.07" stop-color="#0060A9"/>
<stop offset="0.36" stop-color="#0071C8"/>
<stop offset="0.52" stop-color="#0078D4"/>
<stop offset="0.64" stop-color="#0074CD"/>
<stop offset="0.82" stop-color="#006ABB"/>
<stop offset="1" stop-color="#005BA1"/>
</linearGradient>
</defs>
</svg>
