<svg width="74" height="74" viewBox="0 0 74 74" fill="none" xmlns="http://www.w3.org/2000/svg">
<path d="M41 64.9527C40.9838 66.0779 40.1103 66.9831 39.025 67H8.97525C7.88981 67 7.00023 66.0863 7.00023 64.9527V9.04737C6.98391 7.93909 7.83268 7.02538 8.90181 7C8.92629 7 8.95077 7 8.96709 7H39.025C40.1103 7 41 7.91371 41 9.03891V64.9527Z" fill="url(#paint0_linear_2038_5741)"/>
<path d="M12 27.9832C12.0167 25.7889 13.6867 24.0193 15.7575 24.0016H33.1088C35.2048 23.9397 36.9415 25.6827 37 27.9034C37 27.93 37 27.9566 37 27.9832C37 30.195 35.305 31.9912 33.209 32H33.1006H15.7575C13.6784 31.9734 12.0083 30.1774 12 27.9832Z" fill="#1E3560"/>
<path d="M12 16.0184C12 13.8154 13.6784 12.0193 15.7575 12.0016H33.1088C35.2048 11.9397 36.9415 13.6827 37 15.9034C37 15.9388 37 15.983 37 16.0184C36.9833 18.2392 35.2715 20.0176 33.184 19.9999C33.184 19.9999 33.184 19.9999 33.1758 19.9999H15.7575C13.6951 19.9822 12.0251 18.2126 12 16.0184Z" fill="#1E3560"/>
<path d="M15 20C16.6569 20 18 18.8807 18 17.5C18 16.1193 16.6569 15 15 15C13.3431 15 12 16.1193 12 17.5C12 18.8807 13.3431 20 15 20Z" fill="#76CAE7"/>
<path d="M17.9938 27.2154C18.0904 25.5629 17.0522 24.1269 15.6749 24.0079C14.2977 23.8889 13.1029 25.1321 13.0062 26.7847C12.9096 28.4372 13.9478 29.8731 15.3251 29.9921C16.7023 30.1111 17.8971 28.8679 17.9938 27.2154Z" fill="#76CAE7"/>
<path d="M67 55.3723C66.8073 49.6089 62.4354 44.8307 56.6646 44.0606C56.2459 35.9948 49.3696 29.751 41.2119 30.0076C34.7126 29.8504 28.8162 33.7672 26.5046 39.771C19.5278 40.599 14.2094 46.346 14 53.2939C14.3099 61.1441 20.9768 67.2722 28.9167 66.9907H55.1655C61.6313 66.8911 66.8493 61.757 67 55.3723Z" fill="url(#paint1_linear_2038_5741)"/>
<path d="M51.7721 56.7637V45.3119H48.5786V59.3595H57V56.7637H51.7721ZM27.3672 51.1383C26.7349 50.8651 26.1514 50.5114 25.6164 50.0855C25.3327 49.7881 25.1868 49.4024 25.203 48.9925C25.1787 48.5827 25.3732 48.1969 25.7137 47.9638C26.1352 47.6666 26.6458 47.5219 27.1564 47.554C28.3803 47.5059 29.588 47.8594 30.5931 48.5425V45.6092C29.4826 45.2395 28.3236 45.0628 27.1564 45.095C25.8109 45.0305 24.4898 45.4244 23.4118 46.22C22.4878 46.9594 21.969 48.0763 22.0014 49.2578C22.1149 51.1543 23.4036 52.7857 25.2354 53.3484C25.9893 53.6536 26.7025 54.0716 27.3347 54.5778C27.6589 54.851 27.8454 55.2449 27.8535 55.6707C27.8697 56.0806 27.6752 56.4663 27.3347 56.6915C26.8727 56.9887 26.3378 57.1334 25.7866 57.1012C24.4168 57.0933 23.0956 56.5788 22.0744 55.6707V58.8051C23.1767 59.3435 24.3925 59.6086 25.6164 59.5926C27.0024 59.697 28.3884 59.3676 29.5718 58.6362C30.5525 57.913 31.1118 56.7477 31.0469 55.5341C31.0794 54.6582 30.7714 53.8063 30.1878 53.1473C29.4016 52.2874 28.4452 51.6043 27.3672 51.1383ZM45.1015 56.5227C45.8796 55.2207 46.2686 53.7341 46.2362 52.2313C46.2848 50.9052 45.9849 49.5954 45.377 48.414C44.8502 47.3612 44.0235 46.4851 43.0022 45.8906C41.8999 45.2557 40.6274 44.9503 39.3548 45.0066C38.1472 45.0628 36.9719 45.4003 35.9182 45.995C34.8402 46.6138 33.9729 47.5219 33.4056 48.6228C32.7896 49.8283 32.4735 51.1624 32.4735 52.5045C32.4492 53.742 32.7328 54.9716 33.3002 56.0806C33.8352 57.1174 34.6457 57.9933 35.6426 58.604C36.6801 59.231 37.8635 59.5685 39.0793 59.5926L42.0053 63H46.1308L42.0458 59.2551C43.3426 58.7165 44.4206 57.7523 45.1015 56.5227ZM41.908 55.6788C41.2839 56.4663 40.3113 56.9165 39.2981 56.8683C38.2931 56.8924 37.3285 56.4422 36.7206 55.6387C35.9993 54.6501 35.6588 53.4447 35.7561 52.2313C35.6588 51.0096 36.0074 49.7962 36.7531 48.8239C37.3691 47.996 38.366 47.53 39.4035 47.5621C40.4166 47.5219 41.3731 47.996 41.9485 48.8239C42.6618 49.8123 42.9941 51.0177 42.9131 52.2313C43.0103 53.4609 42.6537 54.6904 41.908 55.6788Z" fill="#F2F2F2"/>
<defs>
<linearGradient id="paint0_linear_2038_5741" x1="24.0029" y1="66.9983" x2="24.0029" y2="7.14943" gradientUnits="userSpaceOnUse">
<stop stop-color="#949494"/>
<stop offset="0.53" stop-color="#A2A2A1"/>
<stop offset="1" stop-color="#B4B4B4"/>
</linearGradient>
<linearGradient id="paint1_linear_2038_5741" x1="40.5009" y1="67.0663" x2="40.5009" y2="30.0642" gradientUnits="userSpaceOnUse">
<stop stop-color="#2974BA"/>
<stop offset="0.16" stop-color="#2F7BBF"/>
<stop offset="0.53" stop-color="#4B8CCB"/>
<stop offset="0.82" stop-color="#5F98D2"/>
<stop offset="1" stop-color="#679CD3"/>
</linearGradient>
</defs>
</svg>
