<svg width="74" height="74" viewBox="0 0 74 74" fill="none" xmlns="http://www.w3.org/2000/svg">
<path d="M55.3 30.5924C55.1596 26.0757 53.243 21.7969 49.9664 18.6851C46.6898 15.5732 42.3178 13.8797 37.8 13.9724C34.1459 13.929 30.5692 15.0259 27.5676 17.1104C24.566 19.1949 22.289 22.1632 21.0533 25.6024C17.2054 26.1226 13.6714 28.0052 11.0929 30.9085C8.51445 33.8117 7.06228 37.5432 7 41.4257C7.11522 45.7928 8.95904 49.9357 12.1265 52.9444C15.2939 55.9531 19.5261 57.5816 23.8933 57.4724H53.0667C56.6807 57.3821 60.1265 55.927 62.7113 53.3996C65.2962 50.8723 66.8285 47.4601 67 43.849C66.9331 40.6124 65.7209 37.5043 63.5787 35.0772C61.4366 32.65 58.5032 31.0609 55.3 30.5924Z" fill="url(#paint0_linear_2038_5761)"/>
<path d="M50 44.7577V33.4243H47V47.191H55.2V44.7577H50ZM26.2 39.191C25.5805 38.9422 25.0062 38.5931 24.5 38.1577C24.3657 38.0154 24.2612 37.8478 24.1925 37.6647C24.1238 37.4815 24.0924 37.2865 24.1 37.091C24.0905 36.8954 24.1315 36.7007 24.219 36.5255C24.3066 36.3504 24.4378 36.2007 24.6 36.091C25.0103 35.808 25.5022 35.6675 26 35.691C27.1872 35.6377 28.3589 35.9774 29.3334 36.6577V33.791C28.2684 33.3948 27.1355 33.2135 26 33.2577C24.6923 33.1883 23.4031 33.5905 22.3667 34.391C21.915 34.7393 21.5526 35.1898 21.3092 35.7056C21.0658 36.2214 20.9484 36.7876 20.9667 37.3577C20.9667 39.0577 22.0334 40.391 24.3 41.391C25.0358 41.7042 25.73 42.1073 26.3667 42.591C26.5227 42.7216 26.6483 42.8848 26.7347 43.069C26.821 43.2533 26.8661 43.4542 26.8667 43.6577C26.8665 43.8599 26.818 44.0592 26.7253 44.239C26.6325 44.4187 26.4981 44.5737 26.3334 44.691C25.88 44.9574 25.3585 45.0849 24.8334 45.0577C23.4926 45.0466 22.2015 44.5491 21.2 43.6577V46.7577C22.301 47.3249 23.529 47.6003 24.7667 47.5577C26.1639 47.6413 27.5489 47.254 28.7 46.4577C29.1067 46.0725 29.4179 45.5977 29.6089 45.0711C29.7999 44.5446 29.8653 43.9807 29.8 43.4243C29.8167 42.5709 29.5202 41.7408 28.9667 41.091C28.1876 40.2711 27.245 39.6238 26.2 39.191ZM43.6667 44.491C44.3905 43.3312 44.7743 41.9915 44.7743 40.6243C44.7743 39.2572 44.3905 37.9175 43.6667 36.7577C43.1466 35.7165 42.3362 34.8482 41.3334 34.2577C40.3174 33.6818 39.1679 33.3829 38 33.391C36.7411 33.3637 35.498 33.6745 34.4 34.291C33.3705 34.8647 32.5263 35.7205 31.9667 36.7577C31.3772 37.9365 31.08 39.2398 31.1 40.5577C31.1065 41.7156 31.3803 42.8563 31.9 43.891C32.4097 44.92 33.2092 45.7774 34.2 46.3577C35.2066 46.9723 36.3547 47.3167 37.5334 47.3577L40.4 50.691H44.4334L40.3334 47.0243C41.714 46.6102 42.8981 45.7104 43.6667 44.491ZM40.3334 43.6577C40.0297 44.0344 39.643 44.3357 39.2035 44.5381C38.764 44.7405 38.2837 44.8384 37.8 44.8243C37.3126 44.8412 36.8283 44.741 36.3875 44.5322C35.9468 44.3235 35.5624 44.0121 35.2667 43.6243C34.5629 42.6613 34.2206 41.4812 34.3 40.291C34.2224 39.101 34.5644 37.9215 35.2667 36.9577C35.5804 36.5709 35.9768 36.2594 36.4268 36.046C36.8767 35.8326 37.3687 35.7226 37.8667 35.7243C38.3535 35.7031 38.8378 35.8049 39.2748 36.0205C39.7118 36.2361 40.0874 36.5584 40.3667 36.9577C41.0236 37.9403 41.3398 39.1113 41.2667 40.291C41.3833 41.4901 41.0507 42.6898 40.3334 43.6577Z" fill="#F2F2F2"/>
<defs>
<linearGradient id="paint0_linear_2038_5761" x1="40.0267" y1="59.9024" x2="32.0533" y2="14.7024" gradientUnits="userSpaceOnUse">
<stop offset="0.15" stop-color="#0078D4"/>
<stop offset="0.8" stop-color="#5EA0EF"/>
<stop offset="1" stop-color="#83B9F9"/>
</linearGradient>
</defs>
</svg>
