<svg width="74" height="74" viewBox="0 0 74 74" fill="none" xmlns="http://www.w3.org/2000/svg">
<path d="M5.83301 25.2227H68.1663V59.9753C68.1663 60.5277 67.9469 61.0574 67.5563 61.448C67.1658 61.8386 66.636 62.058 66.0837 62.058H7.91567C7.36332 62.058 6.83358 61.8386 6.44301 61.448C6.05243 61.0574 5.83301 60.5277 5.83301 59.9753V25.2227Z" fill="url(#paint0_linear_1289_4642)"/>
<path d="M7.92667 11.9414H66.0727C66.3462 11.9414 66.617 11.9953 66.8697 12.1C67.1224 12.2046 67.352 12.358 67.5453 12.5514C67.7387 12.7448 67.8921 12.9744 67.9968 13.2271C68.1015 13.4798 68.1553 13.7506 68.1553 14.0241V25.2221H5.83301V14.0241C5.833 13.7497 5.88724 13.478 5.99259 13.2246C6.09794 12.9712 6.25233 12.7411 6.44689 12.5475C6.64145 12.354 6.87234 12.2008 7.12629 12.0968C7.38025 11.9928 7.65225 11.94 7.92667 11.9414Z" fill="#0078D4"/>
<path opacity="0.9" d="M24.7929 30.1094H13.4849C12.9118 30.1094 12.4473 30.574 12.4473 31.147V35.855C12.4473 36.4281 12.9118 36.8927 13.4849 36.8927H24.7929C25.366 36.8927 25.8306 36.4281 25.8306 35.855V31.147C25.8306 30.574 25.366 30.1094 24.7929 30.1094Z" fill="white"/>
<path opacity="0.9" d="M42.7451 30.0137H31.4371C30.864 30.0137 30.3994 30.4783 30.3994 31.0513V35.7593C30.3994 36.3324 30.864 36.797 31.4371 36.797H42.7451C43.3182 36.797 43.7827 36.3324 43.7827 35.7593V31.0513C43.7827 30.4783 43.3182 30.0137 42.7451 30.0137Z" fill="white"/>
<path opacity="0.9" d="M60.6972 30.0137H49.3892C48.8161 30.0137 48.3516 30.4783 48.3516 31.0513V35.7593C48.3516 36.3324 48.8161 36.797 49.3892 36.797H60.6972C61.2703 36.797 61.7349 36.3324 61.7349 35.7593V31.0513C61.7349 30.4783 61.2703 30.0137 60.6972 30.0137Z" fill="white"/>
<path opacity="0.9" d="M24.9912 39.8125H13.6832C13.1101 39.8125 12.6455 40.2771 12.6455 40.8502V45.5582C12.6455 46.1313 13.1101 46.5958 13.6832 46.5958H24.9912C25.5643 46.5958 26.0288 46.1313 26.0288 45.5582V40.8502C26.0288 40.2771 25.5643 39.8125 24.9912 39.8125Z" fill="white"/>
<path d="M42.9433 39.7168H31.6353C31.0622 39.7168 30.5977 40.1814 30.5977 40.7545V45.4625C30.5977 46.0355 31.0622 46.5001 31.6353 46.5001H42.9433C43.5164 46.5001 43.981 46.0355 43.981 45.4625V40.7545C43.981 40.1814 43.5164 39.7168 42.9433 39.7168Z" fill="#FFD400"/>
<path d="M60.8955 39.7168H49.5875C49.0144 39.7168 48.5498 40.1814 48.5498 40.7545V45.4625C48.5498 46.0355 49.0144 46.5001 49.5875 46.5001H60.8955C61.4686 46.5001 61.9331 46.0355 61.9331 45.4625V40.7545C61.9331 40.1814 61.4686 39.7168 60.8955 39.7168Z" fill="#FFD400"/>
<path d="M24.9912 49.6094H13.6832C13.1101 49.6094 12.6455 50.074 12.6455 50.647V55.355C12.6455 55.9281 13.1101 56.3927 13.6832 56.3927H24.9912C25.5643 56.3927 26.0288 55.9281 26.0288 55.355V50.647C26.0288 50.074 25.5643 49.6094 24.9912 49.6094Z" fill="#FFD400"/>
<path d="M42.9433 49.5137H31.6353C31.0622 49.5137 30.5977 49.9783 30.5977 50.5513V55.2593C30.5977 55.8324 31.0622 56.297 31.6353 56.297H42.9433C43.5164 56.297 43.981 55.8324 43.981 55.2593V50.5513C43.981 49.9783 43.5164 49.5137 42.9433 49.5137Z" fill="#FFD400"/>
<path d="M60.8955 49.5137H49.5875C49.0144 49.5137 48.5498 49.9783 48.5498 50.5513V55.2593C48.5498 55.8324 49.0144 56.297 49.5875 56.297H60.8955C61.4686 56.297 61.9331 55.8324 61.9331 55.2593V50.5513C61.9331 49.9783 61.4686 49.5137 60.8955 49.5137Z" fill="#FFD400"/>
<defs>
<linearGradient id="paint0_linear_1289_4642" x1="36.9997" y1="62.058" x2="36.9997" y2="25.2227" gradientUnits="userSpaceOnUse">
<stop stop-color="#0078D4"/>
<stop offset="0.502" stop-color="#4093E6"/>
<stop offset="0.775" stop-color="#5EA0EF"/>
</linearGradient>
</defs>
</svg>
