<svg width="74" height="74" viewBox="0 0 74 74" fill="none" xmlns="http://www.w3.org/2000/svg">
<g clip-path="url(#clip0_1289_8200)">
<path d="M55.9651 31.7086C55.7094 27.088 53.6609 22.7495 50.2554 19.616C46.8499 16.4826 42.3561 14.8017 37.7302 14.9307C34.0271 14.9109 30.4053 16.0161 27.3441 18.1C24.2829 20.1838 21.9267 23.1481 20.5872 26.6005C16.6768 27.1798 13.0874 29.0947 10.4284 32.0199C7.76936 34.9451 6.20469 38.7004 6 42.6482C6.05185 44.8576 6.53852 47.0351 7.4322 49.0563C8.32588 51.0775 9.60906 52.9029 11.2084 54.428C12.8078 55.9532 14.692 57.1482 16.7533 57.9449C18.8147 58.7417 21.0129 59.1244 23.2222 59.0713H23.5184H54.1533C57.8288 59.0677 61.3522 57.6043 63.9489 55.0032C66.5456 52.402 68.0027 48.8759 68 45.2005C67.9013 41.8953 66.6405 38.7307 64.4394 36.2631C62.2382 33.7954 59.2376 32.1828 55.9651 31.7086Z" fill="url(#paint0_linear_1289_8200)"/>
<path d="M53.4847 41.1253L38.0295 35.3834L37.6299 36.3754L37.8813 35.4661L24.1587 32.4453L23.5008 34.7462L35.081 37.2572L20.2217 43.3986L21.3652 45.4378L36.7068 39.0655L39.452 51.1555L41.8252 50.8628L39.0283 38.3835L52.5753 43.3366L53.4847 41.1253Z" fill="#83B9F9"/>
<path d="M21.7788 35.6211C22.1467 36.0953 22.6469 36.4498 23.2163 36.6397C23.7857 36.8297 24.3986 36.8465 24.9775 36.6881C25.5564 36.5297 26.0753 36.2031 26.4687 35.7498C26.862 35.2964 27.1121 34.7366 27.1872 34.1411C27.2624 33.5456 27.1593 32.9412 26.8909 32.4044C26.6226 31.8675 26.201 31.4223 25.6796 31.125C25.1582 30.8277 24.5604 30.6917 23.9617 30.7342C23.363 30.7767 22.7903 30.9958 22.3162 31.3637L22.2473 31.4188C21.6333 31.9177 21.2401 32.6379 21.1525 33.424C21.0649 34.2102 21.2898 34.9993 21.7788 35.6211ZM18.3344 46.3574C18.7073 46.8317 19.2125 47.1848 19.786 47.3722C20.3596 47.5595 20.9758 47.5725 21.5568 47.4097C22.1378 47.247 22.6575 46.9156 23.0503 46.4575C23.443 45.9994 23.6911 45.4352 23.7633 44.8362C23.8355 44.2372 23.7284 43.6302 23.4557 43.0919C23.1831 42.5537 22.7569 42.1084 22.2312 41.8122C21.7055 41.5161 21.1038 41.3824 20.5022 41.4281C19.9006 41.4739 19.326 41.6969 18.851 42.0691C18.5353 42.3165 18.2714 42.6238 18.0745 42.9733C17.8776 43.3229 17.7515 43.7078 17.7036 44.1061C17.6556 44.5044 17.6866 44.9083 17.7948 45.2946C17.9031 45.6809 18.0864 46.042 18.3344 46.3574ZM50.2368 43.7052C50.6014 44.1793 51.0986 44.5346 51.6653 44.7259C52.232 44.9172 52.8427 44.936 53.4201 44.7798C53.9975 44.6237 54.5155 44.2997 54.9086 43.8488C55.3016 43.3979 55.5519 42.8405 55.6279 42.2472C55.7038 41.6539 55.6018 41.0515 55.335 40.5161C55.0681 39.9808 54.6484 39.5368 54.1289 39.2403C53.6095 38.9438 53.0137 38.8082 52.417 38.8507C51.8204 38.8931 51.2498 39.1118 50.7776 39.4788C50.1498 39.9599 49.7385 40.6703 49.6339 41.4542C49.5293 42.2382 49.7399 43.0316 50.2196 43.6604L50.2368 43.7052Z" fill="#9CEBFF"/>
<path d="M38.2432 53.0265C38.609 53.499 39.1068 53.8523 39.6735 54.0418C40.2401 54.2314 40.8503 54.2486 41.4268 54.0913C42.0032 53.934 42.5201 53.6092 42.912 53.1582C43.3039 52.7071 43.5532 52.1499 43.6284 51.5571C43.7035 50.9643 43.6012 50.3625 43.3344 49.8279C43.0675 49.2933 42.6481 48.8498 42.1291 48.5536C41.6102 48.2573 41.015 48.1217 40.419 48.1637C39.8229 48.2058 39.2527 48.4237 38.7805 48.7899C38.4669 49.0269 38.2032 49.3235 38.0044 49.6626C37.8057 50.0018 37.6759 50.3769 37.6225 50.7663C37.569 51.1558 37.593 51.552 37.693 51.9322C37.793 52.3123 37.9671 52.669 38.2053 52.9817L38.2432 53.0265Z" fill="#9CEBFF"/>
<path d="M46.4239 37.1306C46.5627 37.0509 46.678 36.9361 46.7583 36.7976C46.8385 36.6591 46.8807 36.5019 46.8807 36.3418C46.8807 36.1817 46.8385 36.0245 46.7583 35.886C46.678 35.7475 46.5627 35.6327 46.4239 35.553L39.7554 31.6952L33.0663 27.8409C32.9276 27.7576 32.7693 27.7127 32.6075 27.711C32.4457 27.7093 32.2864 27.7507 32.146 27.8311C32.0056 27.9115 31.8892 28.0279 31.8088 28.1682C31.7284 28.3086 31.6868 28.4679 31.6885 28.6297V44.0539C31.6868 44.2157 31.7284 44.375 31.8088 44.5153C31.8892 44.6557 32.0056 44.7721 32.146 44.8525C32.2864 44.9329 32.4457 44.9743 32.6075 44.9726C32.7693 44.9709 32.9276 44.926 33.0663 44.8427L39.7554 40.9884L46.4239 37.1306Z" fill="#C3F1FF"/>
</g>
<defs>
<linearGradient id="paint0_linear_1289_8200" x1="37" y1="6.68475" x2="37" y2="60.1012" gradientUnits="userSpaceOnUse">
<stop offset="0.117" stop-color="#5EA0EF"/>
<stop offset="0.271" stop-color="#4595E8"/>
<stop offset="0.531" stop-color="#1F85DD"/>
<stop offset="0.741" stop-color="#087CD6"/>
<stop offset="0.873" stop-color="#0078D4"/>
</linearGradient>
<clipPath id="clip0_1289_8200">
<rect width="62" height="62" fill="white" transform="translate(6 6)"/>
</clipPath>
</defs>
</svg>
