<svg width="75" height="74" viewBox="0 0 75 74" fill="none" xmlns="http://www.w3.org/2000/svg">
<path d="M7.66822 7H68.3319C68.9067 7 69.4584 7.23196 69.8648 7.64486C70.2715 8.05773 70.5 8.61772 70.5 9.20166V48.8031C70.5 50.0147 69.5297 51 68.3319 51H7.66822C7.09398 51 6.54318 50.7686 6.1367 50.3568C5.73021 49.945 5.50123 49.3862 5.5 48.8031V9.20166C5.5 8.91252 5.55608 8.62624 5.66504 8.35911C5.77401 8.092 5.93372 7.8493 6.13505 7.64486C6.33639 7.44041 6.57542 7.27824 6.83848 7.16759C7.10155 7.05694 7.38347 7 7.66822 7Z" fill="url(#paint0_linear_2042_7505)"/>
<path d="M26.5 23V34.9649L36.5 41V28.9999L26.5 23Z" fill="#50E6FF"/>
<path d="M28.5 21.4857L39 28L49.5 21.4857L39 15L28.5 21.4857Z" fill="#C3F1FF"/>
<path d="M39.5 29.0295V41L49.5 34.9618V23L39.5 29.0295Z" fill="#9CEBFF"/>
<path d="M49.5 34.4618L39.5 28V41L49.5 34.4618Z" fill="#C3F1FF"/>
<path d="M26.5 34.4618L36.5 28V41L26.5 34.4618Z" fill="#9CEBFF"/>
<path d="M23.866 65.9003C30.5933 64.75 30.8603 59.4949 30.8603 51H44.1883C44.1883 59.4949 44.4116 64.75 51.134 65.9003C52.0622 66.0111 52.9197 66.4912 53.5412 67.2483C54.1628 68.0055 54.5044 68.9857 54.5 70H20.5001C20.4944 68.9862 20.8349 68.0058 21.4557 67.2488C22.0764 66.4915 22.9334 66.0111 23.8612 65.9003H23.866Z" fill="url(#paint1_linear_2042_7505)"/>
<defs>
<linearGradient id="paint0_linear_2042_7505" x1="38" y1="51" x2="38" y2="7" gradientUnits="userSpaceOnUse">
<stop stop-color="#0078D4"/>
<stop offset="0.82" stop-color="#5EA0EF"/>
</linearGradient>
<linearGradient id="paint1_linear_2042_7505" x1="37.5049" y1="70" x2="37.5049" y2="51" gradientUnits="userSpaceOnUse">
<stop offset="0.15" stop-color="#CCCCCC"/>
<stop offset="1" stop-color="#707070"/>
</linearGradient>
</defs>
</svg>
