<svg width="68" height="68" viewBox="0 0 68 68" fill="none" xmlns="http://www.w3.org/2000/svg">
<g clip-path="url(#clip0_1307_8467)">
<path d="M63.0554 28.5742C61.6906 27.6272 58.5627 27.272 56.1173 27.7455C55.833 25.378 54.525 23.3063 52.2502 21.4715L50.9422 20.5244L50.0323 21.8858C48.8949 23.6615 48.3262 26.1474 48.4968 28.515C48.5536 29.3436 48.838 30.8234 49.691 32.1255C48.8949 32.5991 47.2456 33.191 45.0846 33.191H3.96775L3.85401 33.6645C3.45592 36.032 3.45592 43.4307 8.11924 49.1129C11.6452 53.4337 16.8772 55.6237 23.7584 55.6237C38.6583 55.6237 49.691 48.4618 54.8662 35.4993C56.9135 35.5585 61.2925 35.4993 63.5104 31.0601C63.5673 30.9418 63.681 30.705 64.0791 29.8172L64.3066 29.3436L63.0554 28.5742ZM36.8385 11.8828H30.5828V17.8017H36.8385V11.8828ZM36.8385 18.9855H30.5828V24.9045H36.8385V18.9855ZM29.4454 18.9855H23.1897V24.9045H29.4454V18.9855ZM22.0523 18.9855H15.7967V24.9045H22.0523V18.9855ZM14.6593 26.0882H8.40359V32.0072H14.6593V26.0882ZM22.0523 26.0882H15.7967V32.0072H22.0523V26.0882ZM29.4454 26.0882H23.1897V32.0072H29.4454V26.0882ZM36.8385 26.0882H30.5828V32.0072H36.8385V26.0882ZM44.2315 26.0882H37.9759V32.0072H44.2315V26.0882Z" fill="#2396ED"/>
</g>
<defs>
<clipPath id="clip0_1307_8467">
<rect width="60.6122" height="60.6122" fill="white" transform="translate(3.69434 3.69141)"/>
</clipPath>
</defs>
</svg>
