<svg width="68" height="68" viewBox="0 0 68 68" fill="none" xmlns="http://www.w3.org/2000/svg">
<path d="M17.9871 6.44897C24.3591 6.44897 29.5249 11.6131 29.5249 17.9839C29.5249 24.2454 24.5337 29.3379 18.3123 29.5106C18.3123 30.0404 18.3357 31.0414 18.6355 31.6457C19.0514 32.4839 21.5464 34.0446 23.9933 34.0446H24.8723C25.4247 30.1118 28.8019 27.0853 32.8878 27.0853C36.9573 27.0853 40.3245 30.0872 40.8973 33.9966H45.4452C46.0181 30.0872 49.3852 27.0853 53.4546 27.0853C57.9262 27.0853 61.5512 30.7093 61.5512 35.1799C61.5512 39.6504 57.9262 43.2743 53.4546 43.2743C49.3852 43.2743 46.0179 40.2723 45.4452 36.3628H40.8975C40.3247 40.2723 36.9574 43.2743 32.8878 43.2743C28.8261 43.2743 25.4634 40.2839 24.8812 36.3851L23.9092 36.4141C22.3089 36.402 20.6183 35.9747 19.2604 35.0521C18.8902 34.8005 18.5255 34.5361 18.145 34.2857L18.1449 34.8113C18.1429 34.9812 18.1122 37.5356 18.1097 40.3717L18.1097 40.9722C18.1108 42.8321 18.1255 44.7486 18.1693 46.1464C18.2654 49.2129 20.7597 51.6879 23.5122 52.2672C23.87 52.3424 24.4851 52.352 24.8727 52.3185C25.4261 48.3872 28.8029 45.3618 32.8878 45.3618C37.3594 45.3618 40.9845 48.986 40.9845 53.4564C40.9845 57.9269 37.3594 61.551 32.8878 61.551C28.848 61.551 25.5001 58.5927 24.891 54.7249H24.1907C18.931 54.4378 15.661 49.6136 15.718 45.7012C15.7899 40.777 15.7357 35.8509 15.7349 30.9256V29.2975C10.4411 28.2501 6.44922 23.5836 6.44922 17.9839C6.44922 11.6131 11.6148 6.44897 17.9871 6.44897ZM32.8878 47.728C29.7235 47.728 27.1582 50.2927 27.1582 53.4564C27.1582 56.6202 29.7235 59.1849 32.8878 59.1849C36.0524 59.1849 38.6177 56.6202 38.6177 53.4564C38.6177 50.2927 36.0524 47.728 32.8878 47.728ZM32.8878 29.4515C29.7235 29.4515 27.1582 32.0162 27.1582 35.1799C27.1582 38.3435 29.7235 40.9082 32.8878 40.9082C36.0524 40.9082 38.6177 38.3435 38.6177 35.1799C38.6177 32.0162 36.0524 29.4515 32.8878 29.4515ZM53.4546 29.4515C50.2901 29.4515 47.7249 32.0162 47.7249 35.1799C47.7249 38.3435 50.2901 40.9082 53.4546 40.9082C56.6191 40.9082 59.1845 38.3435 59.1845 35.1799C59.1845 32.0162 56.6191 29.4515 53.4546 29.4515ZM56.7178 32.768C57.1687 33.2178 57.1811 33.9405 56.7545 34.405L56.72 34.4413L53.2095 37.9594C52.7622 38.4078 52.0441 38.4227 51.5786 38.002L51.5415 37.9669L49.8229 36.2751C49.3572 35.8166 49.3513 35.0675 49.8099 34.602C50.2568 34.1483 50.9794 34.1311 51.4471 34.5547L51.4834 34.5892L52.3642 35.456L55.0443 32.7702C55.5058 32.3074 56.2551 32.3066 56.7178 32.768ZM36.0567 32.7507C36.5076 33.2005 36.52 33.9231 36.0934 34.3879L36.0589 34.424L32.5484 37.942C32.1011 38.3904 31.383 38.4054 30.9175 37.9846L30.8805 37.9495L29.1618 36.2577C28.6962 35.7993 28.6902 35.0502 29.1488 34.5847C29.5955 34.131 30.3184 34.1138 30.786 34.5375L30.8223 34.5719L31.7031 35.4387L34.3832 32.7529C34.8447 32.2903 35.594 32.2893 36.0567 32.7507ZM17.9871 8.81512C12.922 8.81512 8.81596 12.92 8.81596 17.9839C8.81596 23.0477 12.922 27.1528 17.9871 27.1528C23.0521 27.1528 27.1582 23.0477 27.1582 17.9839C27.1582 12.92 23.0521 8.81512 17.9871 8.81512ZM17.0328 12.5038C18.9623 13.663 20.8657 14.8621 22.7434 16.1008C24.3163 17.1383 24.3123 19.02 22.7219 20.0599C20.8107 21.3104 18.8692 22.5095 16.8977 23.6571C15.2931 24.5911 13.4969 23.5171 13.4533 21.6458C13.4253 20.4399 13.4482 19.2328 13.4466 18.026C13.4452 16.852 13.4222 15.6774 13.4506 14.504C13.4985 12.5135 15.3309 11.4763 17.0328 12.5038ZM15.7609 14.4133V15.246C15.7607 15.6583 15.7607 16.0651 15.7605 16.4673L15.7603 17.2659V18.4456C15.7605 19.3562 15.7609 20.2524 15.7625 21.1485C15.7633 21.5703 15.9828 21.5532 16.2668 21.3773C17.9038 20.3626 19.5416 19.3491 21.1801 18.3366C21.4509 18.1696 21.4586 17.9951 21.1929 17.8275C19.438 16.7215 17.6807 15.6193 15.7609 14.4133Z" fill="#4A7EBF"/>
<path d="M35.1248 54.6367C35.7782 54.6367 36.3081 54.107 36.3081 53.4536C36.3081 52.8003 35.7782 52.2705 35.1248 52.2705C34.4714 52.2705 33.9414 52.8003 33.9414 53.4536C33.9414 54.107 34.4714 54.6367 35.1248 54.6367Z" fill="#85B3DF"/>
<path d="M30.5935 54.6367C31.2469 54.6367 31.7769 54.107 31.7769 53.4536C31.7769 52.8003 31.2469 52.2705 30.5935 52.2705C29.9401 52.2705 29.4102 52.8003 29.4102 53.4536C29.4102 54.107 29.9401 54.6367 30.5935 54.6367Z" fill="#85B3DF"/>
<path d="M53.4549 59.1844C50.2904 59.1844 47.7253 56.6197 47.7253 53.4559C47.7253 50.2922 50.2904 47.7275 53.4549 47.7275C56.6193 47.7275 59.1848 50.2922 59.1848 53.4559C59.1848 56.6197 56.6193 59.1844 53.4549 59.1844ZM53.4549 45.3613C49.3855 45.3613 46.0182 48.3634 45.4455 52.2728H44.1213C43.5432 52.2728 43.0742 52.8027 43.0742 53.4559C43.0742 54.1094 43.5432 54.639 44.1213 54.639H45.4455C46.0182 58.5485 49.3855 61.5505 53.4549 61.5505C57.9265 61.5505 61.5515 57.9264 61.5515 53.4559C61.5515 48.9855 57.9265 45.3613 53.4549 45.3613Z" fill="#85B3DF"/>
</svg>
