<svg width="68" height="68" viewBox="0 0 68 68" fill="none" xmlns="http://www.w3.org/2000/svg">
<path d="M30.8328 42.3237L27.8445 43.1552C28.1044 43.9088 28.3122 45.26 28.3122 47.079V56.0179H31.6643V46.5593C32.288 45.8057 32.9636 45.4419 33.6912 45.4419C34.055 45.4419 34.3408 45.5199 34.6526 45.7018L35.5621 42.6095C35.0424 42.3756 34.8085 42.3237 34.3148 42.3237C33.951 42.3237 33.5093 42.4016 33.2234 42.5316C32.5998 42.8434 31.8202 43.545 31.3265 44.2206C31.3265 43.467 31.1446 42.8694 30.8328 42.3237ZM19.2954 37.9062H18.9316V55.9919H22.4136V47.9884H26.8051V45.0002H22.4136V40.8425H27.8965L28.1044 39.2574C24.8042 39.0236 21.8159 38.5038 19.2954 37.9062ZM11.162 58.4085L12.7731 60.2795C14.3322 59.6558 16.2811 58.2526 16.8008 56.0179C16.9827 55.2903 17.0347 54.8226 17.0347 52.4579V37.9322H13.5267V52.8477C13.5267 54.7966 13.4487 55.5242 13.1889 56.1998C12.851 56.9533 12.0455 57.8368 11.162 58.4085ZM42.786 49.2357C42.786 52.4059 42.1624 53.7572 40.7332 53.7572C40.0835 53.7572 39.356 53.3934 39.0441 52.6658C38.7843 51.9902 38.6284 50.8468 38.6284 49.2877C38.6284 47.9625 38.7583 47.027 38.9662 46.2994C39.226 45.4679 39.8757 44.9482 40.6812 44.9482C41.2789 44.9482 41.7986 45.208 42.1104 45.6498C42.5781 46.2734 42.786 47.4428 42.786 49.2357ZM44.8388 54.4328C45.9302 53.1335 46.4239 51.5484 46.4239 49.2617C46.4239 47.105 45.9822 45.6238 44.9688 44.3765C43.8774 43.0253 42.4742 42.3756 40.6552 42.3756C37.2252 42.3756 34.9385 45.1561 34.9385 49.3657C34.9385 53.5753 37.1992 56.2777 40.6552 56.2777C42.6041 56.3037 43.8774 55.5761 44.8388 54.4328ZM54.3494 46.949C54.3494 48.1703 53.6218 48.846 52.3226 48.846C51.1532 48.846 50.3737 48.3003 50.3737 46.949C50.3737 45.7018 51.1013 44.9742 52.3486 44.9742C53.5959 44.9742 54.3494 45.7018 54.3494 46.949ZM60.2481 44.0907L58.8708 41.8819C58.0913 42.6095 57.1558 43.0253 56.2463 43.0253C55.8306 43.0253 55.5967 42.9733 54.6872 42.7394C53.7778 42.4796 53.1281 42.4016 52.4005 42.4016C49.1524 42.4016 47.0476 44.1686 47.0476 46.9231C47.0476 48.8979 47.9311 50.1452 49.776 50.6389C49.0225 50.8208 48.2169 51.2106 47.8531 51.6524C47.5933 51.9642 47.4633 52.38 47.4633 52.8737C47.4633 53.2894 47.5673 53.6532 47.7232 53.965C47.9051 54.2509 48.139 54.4848 48.4508 54.6147C49.0484 54.8485 50.0099 55.0045 51.4911 55.0304C52.2706 55.0304 52.7383 55.0564 52.8943 55.0564C53.8037 55.1084 54.2715 55.2643 54.6353 55.4462C54.9731 55.6541 55.2329 56.1218 55.2329 56.6415C55.2329 57.1612 54.9211 57.6809 54.4274 57.9928C53.9856 58.3046 53.258 58.4345 52.3226 58.4345C50.7895 58.4345 49.9319 57.8628 49.9319 56.7974C49.9319 56.3297 49.9839 56.2258 50.0878 55.9399H47.0216C46.8917 56.1998 46.7358 56.5636 46.7358 57.2912C46.7358 58.2006 47.0736 58.9802 47.7752 59.6558C48.9185 60.7732 50.7895 61.085 52.5824 61.085C54.5573 61.085 56.4802 60.6173 57.5976 59.37C58.2992 58.5904 58.611 57.7329 58.611 56.6155C58.611 55.4202 58.2732 54.5107 57.5196 53.7572C56.6361 52.8997 55.6227 52.5878 53.6738 52.5618L51.8808 52.5359C51.543 52.5359 51.3351 52.4059 51.3351 52.224C51.3351 51.8602 51.8029 51.5484 52.6604 51.1327C52.9202 51.1586 52.9982 51.1586 53.1541 51.1586C55.8566 51.1586 57.8314 49.4956 57.8314 47.1829C57.8314 46.2994 57.5716 45.6238 57.0779 45.0002C57.4936 45.0521 57.6236 45.0781 57.9354 45.0781C58.8189 45.0781 59.5205 44.7923 60.2481 44.0907ZM18.4119 22.1851C14.2542 23.1986 11.4219 25.1994 11.4219 27.4861C11.4219 28.9153 12.5132 30.2146 14.3062 31.228C13.7605 30.3705 13.4747 29.435 13.4747 28.4995C13.5007 26.1349 15.3456 23.9261 18.4119 22.1851ZM62.2749 31.15C62.2749 29.6429 61.3394 28.2657 59.7803 27.1223C59.9103 27.5901 60.0142 28.0578 60.0142 28.5255C60.0142 32.8131 54.0116 36.503 45.4885 38.0361C46.4499 38.1401 47.4374 38.192 48.4768 38.192C56.0904 38.166 62.2749 35.0218 62.2749 31.15ZM57.3637 28.8114C57.3637 27.2263 56.0125 25.7711 53.6998 24.5758C54.2455 25.2254 54.5313 25.927 54.5313 26.6546C54.5313 30.4744 46.4239 33.5667 36.3936 33.5667C26.3893 33.5667 18.256 30.4744 18.256 26.6546C18.256 26.1609 18.3859 25.6931 18.6457 25.2514C17.0347 26.3168 16.1252 27.5381 16.1252 28.8373C16.1252 32.969 25.3499 36.3211 36.7315 36.3211C48.113 36.3211 57.3637 32.917 57.3637 28.8114ZM48.3728 28.6035C44.1632 31.3059 31.2226 32.3454 25.6618 28.8633C21.2962 26.1349 22.8034 21.7954 10.3045 12.2848C8.66743 11.0375 10.6163 9.71223 11.8376 10.5697C13.0589 11.4273 11.9416 11.6351 14.4102 14.1037C19.3993 19.0929 19.3473 14.5975 20.1269 16.3125C21.79 19.8724 25.4279 23.4584 25.4279 23.4584C29.0918 25.849 32.0021 26.3688 37.4071 22.7048C40.8371 20.3922 39.4339 26.3947 47.8271 22.0552C50.8934 20.4701 50.7635 21.5355 53.8817 17.196C55.181 15.403 57.6495 18.5732 54.8431 19.0149C53.7258 19.1968 51.8289 20.4181 51.0233 22.341C49.854 25.2254 50.3477 27.3562 48.3728 28.6035ZM25.0381 21.2757C23.9987 20.8079 22.9073 19.0409 22.4916 18.3393C23.6609 17.196 23.1932 15.2991 22.5175 14.2596C21.8679 13.2202 21.0624 13.5061 20.2049 12.5446C19.3214 11.5832 20.5427 9.08859 21.66 11.0115C25.8436 18.2094 28.5981 15.2211 32.0021 14.7793C35.2763 14.3636 38.1866 16.1566 39.0701 11.0894C39.226 10.2579 40.0316 10.076 40.1095 11.4273C40.1875 12.8045 40.7072 16.1306 42.5002 16.5463C44.2931 16.9881 45.7483 16.1306 46.1641 15.6628C46.5798 15.1951 46.8137 15.2471 46.9956 16.4424C47.1775 17.6117 47.6452 19.2488 50.1658 17.4298C55.3369 13.7399 53.8557 12.3108 55.8826 11.3493C57.0259 10.8036 58.8449 12.5706 56.2204 13.8959C52.4785 15.7928 52.0887 18.1314 49.7241 19.6126C45.7483 22.1072 46.9696 19.7165 40.5773 18.8071C38.1087 18.4692 37.3291 21.1977 35.4062 20.4181C31.0147 18.5992 27.9225 18.963 25.0381 21.2757ZM38.8882 7.94524C39.0441 9.03662 39.226 9.01063 39.6158 9.08859C40.0056 9.19253 40.4993 8.56888 40.4993 7.99721C40.5253 7.39955 40.2395 7.03576 39.6678 7.06174C39.0701 7.08773 38.8622 7.37356 38.8882 7.94524ZM58.1173 9.89413C58.585 10.3359 59.8323 10.05 60.1181 9.71223C60.8717 8.88071 60.8977 8.38699 60.5079 7.81531C60.1181 7.26962 59.3126 7.34758 58.5071 7.94524C57.7015 8.5429 57.8574 9.66026 58.1173 9.89413ZM57.7795 15.403C57.3897 15.9227 57.3637 16.3125 57.6495 16.5983C57.9614 16.9101 58.585 17.17 59.0268 16.8322C59.4685 16.4684 59.4685 15.9487 59.1047 15.5069C58.7149 15.0392 58.1952 15.0392 57.7795 15.403ZM18.3339 8.90669C18.9316 9.08859 19.2174 9.66026 19.7111 9.01063C19.971 8.69881 19.997 8.25706 19.6592 7.78933C19.4513 7.50349 18.4638 7.29561 18.0481 7.71137C17.6323 8.12713 18.0221 8.80275 18.3339 8.90669ZM6.14686 8.5429C7.23824 9.21851 7.93984 10.2319 8.77137 9.32245C9.0572 9.01063 9.39501 8.46494 8.79735 7.37356C8.3556 6.56802 6.92642 6.2562 6.4327 6.56802C5.91299 6.85386 5.28935 8.02319 6.14686 8.5429ZM16.2031 13.714C16.5409 14.0777 17.1386 14.0518 17.5024 13.8439C17.8402 13.636 17.7882 13.0903 17.4504 12.6226C17.2425 12.3367 16.6189 12.1808 16.2031 12.6226C15.7874 13.0643 15.9693 13.4541 16.2031 13.714Z" fill="#41BF47"/>
</svg>
