<svg width="68" height="68" viewBox="0 0 68 68" fill="none" xmlns="http://www.w3.org/2000/svg">
<g clip-path="url(#clip0_1307_2410)">
<path d="M28.3911 41.1441C30.1454 41.2687 31.5353 42.7056 31.5716 44.4679L31.5723 44.5386V57.904C31.5723 59.7876 30.0299 61.3138 28.1359 61.3138C26.2558 61.3138 24.7323 59.8242 24.6959 57.9719L24.6952 57.904V50.4276L18.1501 54.1692C16.509 55.1155 14.4101 54.5554 13.4572 52.9286C12.5209 51.3186 13.0555 49.2609 14.6499 48.302L14.7134 48.2647L26.3957 41.5891C27.023 41.227 27.7204 41.0873 28.3911 41.1441ZM42.264 41.5431L42.3462 41.5891L54.0261 48.2647C55.672 49.2067 56.2305 51.2974 55.2843 52.9286C54.3485 54.5342 52.2893 55.1008 50.656 54.2053L50.5918 54.1692L44.0511 50.4276V57.904C44.0511 59.7876 42.5134 61.3138 40.6103 61.3138C38.7302 61.3138 37.2106 59.8242 37.1743 57.9719L37.1736 57.904V44.5386C37.1736 42.7441 38.5731 41.2704 40.3548 41.1441C40.9944 41.0898 41.6585 41.2152 42.264 41.5431ZM11.9164 24.2087L11.9808 24.2446L23.6543 30.9246C24.4751 31.3936 25.0228 32.1376 25.2541 32.9703C25.3309 33.2385 25.3659 33.5064 25.3795 33.7746C25.3882 34.145 25.3397 34.5202 25.223 34.8843C24.9849 35.6492 24.4774 36.333 23.7323 36.7836L23.6543 36.8294L11.9808 43.5137C10.3329 44.4537 8.23201 43.8975 7.28625 42.2711C6.34555 40.657 6.88043 38.6093 8.47964 37.6489L8.54249 37.612L15.0657 33.8835L8.54249 30.1447C6.89457 29.2023 6.33134 27.1227 7.28625 25.4943C8.21973 23.8847 10.2785 23.3193 11.9164 24.2087ZM61.46 25.4943C62.4125 27.1227 61.8493 29.2023 60.2018 30.1447L53.6782 33.8835L60.2018 37.612C61.8493 38.556 62.4125 40.6361 61.46 42.2711C60.5095 43.8975 58.4066 44.4537 56.7651 43.5137L45.0828 36.8294C44.3038 36.3801 43.7629 35.6756 43.5228 34.8843C43.4086 34.5202 43.3557 34.145 43.3688 33.7746C43.3756 33.5064 43.415 33.2385 43.4898 32.9703C43.7235 32.1376 44.2712 31.394 45.0828 30.9246L56.7651 24.2446C58.4066 23.3046 60.5095 23.8635 61.46 25.4943ZM35.0838 27.5084C35.2817 27.5084 35.5543 27.6197 35.6933 27.7613L40.5486 32.5668C40.6872 32.704 40.7994 32.9766 40.7994 33.1731V34.59C40.7994 34.7821 40.6872 35.0543 40.5486 35.1896L35.6933 39.9954C35.5543 40.1367 35.2861 40.2522 35.0838 40.2522H33.6561C33.4598 40.2522 33.1872 40.1367 33.0462 39.9954L28.1933 35.1896C28.0543 35.0543 27.9421 34.7821 27.9421 34.59V33.1731C27.9421 32.9766 28.0543 32.704 28.1933 32.5668L33.0462 27.7613C33.1872 27.6197 33.4598 27.5084 33.6561 27.5084H35.0838ZM34.3968 31.6098H34.3423C34.1465 31.6098 33.8738 31.7234 33.7373 31.8603L32.3314 33.2472C32.1904 33.3908 32.0826 33.6614 32.0826 33.8555V33.9099C32.0826 34.1016 32.1904 34.3699 32.3314 34.5095L33.7373 35.9004C33.8758 36.0377 34.1465 36.1509 34.3423 36.1509H34.3968C34.5931 36.1509 34.8661 36.0377 35.0046 35.9004L36.4105 34.5095C36.5491 34.3699 36.6677 34.1016 36.6677 33.9099V33.8555C36.6677 33.6614 36.5491 33.3908 36.4105 33.2472L35.0046 31.8603C34.8661 31.7234 34.5931 31.6098 34.3968 31.6098ZM40.6103 6.44922C42.4905 6.44922 44.0139 7.93926 44.0504 9.78655L44.0511 9.85429V17.3331L50.5918 13.5872C52.2353 12.6456 54.3362 13.2041 55.2843 14.8321C56.2182 16.4464 55.6863 18.4956 54.0897 19.4547L54.0261 19.492L42.3462 26.174C41.7189 26.5317 41.0235 26.6734 40.3548 26.6185C38.5966 26.4901 37.2105 25.0508 37.1743 23.2903L37.1736 23.2198V9.85429C37.1736 7.97582 38.7073 6.44922 40.6103 6.44922ZM28.1359 6.44922C30.007 6.44922 31.5351 7.93926 31.5716 9.78655L31.5723 9.85429V23.2198C31.5723 25.0122 30.1688 26.4883 28.3911 26.6185C27.7495 26.671 27.0836 26.5437 26.4779 26.2194L26.3957 26.174L14.7134 19.492C13.0699 18.5496 12.5086 16.4676 13.4572 14.8321C14.3977 13.2253 16.4547 12.6603 18.086 13.5512L18.1501 13.5872L24.6952 17.3331V9.85429C24.6952 7.97582 26.2329 6.44922 28.1359 6.44922Z" fill="#29B5E8"/>
</g>
<defs>
<clipPath id="clip0_1307_2410">
<rect width="55.102" height="55.102" fill="white" transform="translate(6.44922 6.44922)"/>
</clipPath>
</defs>
</svg>
