<svg width="68" height="68" viewBox="0 0 68 68" fill="none" xmlns="http://www.w3.org/2000/svg">
<mask id="mask0_2038_6421" style="mask-type:luminance" maskUnits="userSpaceOnUse" x="3" y="3" width="62" height="62">
<path d="M64.3036 3.69434H3.69141V64.3066H64.3036V3.69434Z" fill="white"/>
</mask>
<g mask="url(#mask0_2038_6421)">
<path d="M3.69141 34.2843C4.34299 40.4698 11.8256 42.7064 15.732 37.9301C16.4977 36.9926 16.9423 35.8834 17.0654 34.6025C17.8807 26.1532 5.20671 24.3591 3.69141 33.3751M21.5296 37.2028C20.9204 36.8331 20.7659 36.2209 20.6052 35.5723C20.579 35.4652 20.5113 35.4147 20.4022 35.4208L19.3172 35.4905C19.1758 35.5005 19.1122 35.5753 19.1263 35.7147C19.4021 38.4908 22.2327 39.2212 24.5481 38.7272C27.5877 38.0817 28.0788 34.0813 24.8026 33.2751C23.5944 32.9801 22.7055 32.7539 22.1357 32.5963C21.078 32.3053 20.675 30.8446 21.8478 30.4203C23.6278 29.7757 24.8532 30.2809 25.5239 31.9356C25.5704 32.0487 25.6542 32.1053 25.7754 32.1053H26.7149C26.8422 32.1053 26.8968 32.0426 26.8786 31.9174C26.4967 29.0837 23.1601 28.3655 20.9931 29.4838C18.9657 30.5324 19.1112 33.3205 21.3992 33.9448C22.1832 34.159 22.9701 34.3601 23.7601 34.548C27.6817 35.4723 24.3632 38.9272 21.5296 37.2028ZM51.1993 29.9202C51.1993 29.7201 51.1198 29.5282 50.9783 29.3866C50.8367 29.245 50.6448 29.1656 50.4446 29.1656C50.2445 29.1656 50.0526 29.245 49.911 29.3866C49.7696 29.5282 49.69 29.7201 49.69 29.9202C49.69 30.0193 49.7096 30.1174 49.7475 30.209C49.7854 30.3005 49.8409 30.3837 49.911 30.4538C49.9812 30.5238 50.0643 30.5794 50.1558 30.6173C50.2475 30.6553 50.3456 30.6749 50.4446 30.6749C50.6448 30.6749 50.8367 30.5954 50.9783 30.4538C51.1198 30.3123 51.1993 30.1203 51.1993 29.9202ZM47.7201 32.0962C47.5383 31.5082 47.5908 30.9587 47.8777 30.4475C47.9383 30.3405 48.0303 30.2869 48.1536 30.2869H48.8596C48.9829 30.2869 49.0405 30.2263 49.0323 30.1051L48.9869 29.4626C48.9788 29.3575 48.9232 29.2969 48.8202 29.2808C46.3654 28.8716 46.5806 30.3536 46.4139 32.0144C46.4018 32.1517 46.3271 32.2093 46.1896 32.1871C45.9108 32.1386 45.6493 32.1942 45.4048 32.3538C45.3098 32.4164 45.2664 32.5043 45.2745 32.6174L45.3229 33.1933C45.333 33.3266 45.4048 33.3933 45.5381 33.3933H46.1988C46.3018 33.3933 46.3533 33.4448 46.3533 33.5479L46.3564 38.3998C46.3564 38.5474 46.4312 38.6211 46.5806 38.6211H47.4534C47.5726 38.6211 47.6332 38.5614 47.6353 38.4423L47.6504 33.5751C47.6504 33.4539 47.711 33.3933 47.8322 33.3933H48.6444C48.7758 33.3933 48.8415 33.3287 48.8415 33.1993L48.8505 32.4477C48.8505 32.3204 48.7869 32.2568 48.6596 32.2568H47.9353C47.8242 32.2568 47.7525 32.2032 47.7201 32.0962ZM43.4712 32.0598L43.4652 30.5658C43.4652 30.4728 43.4227 30.4091 43.3379 30.3748C42.9823 30.2293 42.6448 30.2283 42.3256 30.3718C42.2287 30.4142 42.1802 30.4879 42.1802 30.593V32.1204C42.1802 32.2356 42.1236 32.2861 42.0105 32.2719L41.4346 32.2023C41.273 32.1821 41.1901 32.2538 41.1861 32.4174L41.1709 33.1508C41.1669 33.3124 41.2457 33.3933 41.4073 33.3933H41.9771C42.1246 33.3933 42.1963 33.467 42.1923 33.6146C42.1438 35.2814 41.4861 39.4758 44.6653 38.6151C44.7804 38.5827 44.837 38.5069 44.835 38.3877L44.8259 37.7452C44.8239 37.5916 44.7491 37.5381 44.6016 37.5847C43.6439 37.8877 43.4681 37.3331 43.4681 36.5361C43.4662 35.5622 43.4672 34.5813 43.4712 33.5933C43.4719 33.5418 43.4922 33.4926 43.5277 33.4559C43.5634 33.4193 43.6115 33.3979 43.6621 33.3964L44.4744 33.3751C44.6259 33.3711 44.6976 33.2933 44.6895 33.1418L44.6471 32.4598C44.639 32.3244 44.5673 32.2568 44.4319 32.2568H43.6682C43.5369 32.2568 43.4712 32.1911 43.4712 32.0598Z" stroke="#86B3CF" stroke-width="2"/>
<path d="M29.1747 32.5711C28.8534 32.2235 28.4383 32.1317 27.9291 32.2953C27.8342 32.3256 27.7866 32.3902 27.7866 32.4893V40.784C27.7866 40.9092 27.8503 40.9719 27.9776 40.9719H28.8898C29.0212 40.9719 29.0858 40.9063 29.0837 40.775L29.0534 38.3171C29.0515 38.204 29.1 38.1747 29.1989 38.2293C32.1932 39.8445 34.6358 37.6261 34.0479 34.5531C33.6509 32.4923 31.2143 31.3619 29.3929 32.5953C29.3121 32.6498 29.2394 32.6417 29.1747 32.5711ZM37.8775 38.8354C38.2985 38.8302 38.7144 38.7376 39.1013 38.5626C39.4883 38.3878 39.8387 38.1341 40.1326 37.8161C40.4265 37.4981 40.6581 37.122 40.8142 36.7092C40.9702 36.2965 41.0478 35.8553 41.0422 35.4108C41.0369 34.9663 40.9485 34.5271 40.7824 34.1183C40.6163 33.7096 40.3755 33.3393 40.074 33.0286C39.7724 32.718 39.4159 32.4729 39.0248 32.3075C38.6338 32.1422 38.2158 32.0598 37.7947 32.065C37.3737 32.0701 36.9578 32.1628 36.5709 32.3377C36.1839 32.5126 35.8336 32.7663 35.5397 33.0843C35.2459 33.4024 35.0143 33.7785 34.8581 34.1911C34.7021 34.6038 34.6246 35.045 34.6301 35.4896C34.6411 36.3873 34.9893 37.2441 35.5983 37.8715C36.2073 38.4989 37.0271 38.8457 37.8775 38.8354ZM57.7473 35.7684L62.2811 35.7471C62.3599 35.7471 62.4014 35.7078 62.4054 35.629C62.6175 31.1527 56.4381 30.8982 56.132 35.044C55.8471 38.8808 60.1718 40.1992 62.1447 37.1291C62.1724 37.0857 62.1907 37.0371 62.1984 36.9863C62.2062 36.9355 62.2033 36.8837 62.1898 36.834C62.1765 36.7844 62.1529 36.7381 62.1206 36.6981C62.0882 36.6582 62.048 36.6253 62.0023 36.6018C60.9537 36.0593 60.7779 37.0988 60.2233 37.4716C59.0747 38.2414 57.4897 37.3807 57.5594 35.9502C57.5654 35.831 57.6281 35.7704 57.7473 35.7684ZM53.6984 32.8559V32.4498C53.6984 32.3225 53.6348 32.259 53.5075 32.259H52.7317C52.5943 32.259 52.5246 32.3286 52.5225 32.468L52.4771 38.4656C52.475 38.5706 52.5266 38.6232 52.6316 38.6232H53.6166C53.7196 38.6232 53.7711 38.5717 53.7711 38.4686C53.7772 36.9291 53.0256 33.0712 55.8411 33.5742C55.9784 33.6004 56.0472 33.5429 56.0472 33.4014V32.3528C56.0472 32.2356 55.9876 32.176 55.8683 32.1741C55.1006 32.1741 54.4378 32.4287 53.8802 32.9378C53.759 33.0469 53.6984 33.0196 53.6984 32.8559ZM64.2722 32.8833C64.2722 32.6807 64.1918 32.4864 64.0486 32.3432C63.9053 32.2 63.7111 32.1195 63.5085 32.1195C63.3059 32.1195 63.1117 32.2 62.9685 32.3432C62.8252 32.4864 62.7448 32.6807 62.7448 32.8833C62.7448 33.0857 62.8252 33.28 62.9685 33.4232C63.1117 33.5664 63.3059 33.647 63.5085 33.647C63.7111 33.647 63.9053 33.5664 64.0486 33.4232C64.1918 33.28 64.2722 33.0857 64.2722 32.8833ZM51.0418 32.3386C51.0418 32.3283 51.0398 32.318 51.0358 32.3085C51.0319 32.2989 51.026 32.2902 51.0187 32.2829C51.0114 32.2756 51.0027 32.2697 50.9931 32.2658C50.9836 32.2618 50.9733 32.2598 50.963 32.2598L49.8962 32.2638C49.8859 32.2638 49.8756 32.2658 49.866 32.2697C49.8564 32.2737 49.8478 32.2796 49.8404 32.2869C49.8331 32.2943 49.8273 32.303 49.8233 32.3126C49.8194 32.3222 49.8173 32.3325 49.8175 32.3429L49.8392 38.5435C49.8392 38.5644 49.8476 38.5844 49.8623 38.5992C49.8771 38.614 49.8972 38.6223 49.918 38.6223L50.9848 38.6183C50.9952 38.6183 51.0055 38.6163 51.015 38.6123C51.0247 38.6083 51.0333 38.6025 51.0407 38.5952C51.048 38.5878 51.0537 38.5791 51.0577 38.5695C51.0616 38.5598 51.0637 38.5496 51.0636 38.5392L51.0418 32.3386ZM15.3958 33.7827C15.3789 33.1385 15.2328 32.5042 14.9659 31.9156C14.6989 31.3271 14.3163 30.7959 13.84 30.3526C13.3636 29.9094 12.8027 29.5624 12.1894 29.3319C11.5761 29.1013 10.9224 28.9913 10.2655 29.0086C8.93895 29.0433 7.68027 29.5935 6.76636 30.5379C5.85246 31.4823 5.35818 32.7437 5.39228 34.0445C5.42637 35.3453 5.98601 36.5792 6.94811 37.4744C7.91021 38.3697 9.19595 38.8531 10.5225 38.8183C11.849 38.7836 13.1076 38.2335 14.0215 37.2891C14.9354 36.3448 15.4298 35.0835 15.3958 33.7827Z" stroke="#86B3CF" stroke-width="2"/>
<path d="M13.7074 33.9133C13.7074 33.0331 13.3577 32.189 12.7354 31.5667C12.113 30.9443 11.269 30.5947 10.3888 30.5947C9.5087 30.5947 8.66462 30.9443 8.04228 31.5667C7.41994 32.189 7.07031 33.0331 7.07031 33.9133C7.07031 34.7934 7.41994 35.6375 8.04228 36.2598C8.66462 36.8822 9.5087 37.2318 10.3888 37.2318C11.269 37.2318 12.113 36.8822 12.7354 36.2598C13.3577 35.6375 13.7074 34.7934 13.7074 33.9133Z" stroke="#D4979B" stroke-width="2"/>
<path d="M12.0119 33.9131C12.0119 33.4847 11.8417 33.0739 11.5388 32.7709C11.2358 32.468 10.825 32.2979 10.3966 32.2979C9.96816 32.2979 9.5573 32.468 9.25436 32.7709C8.95144 33.0739 8.78125 33.4847 8.78125 33.9131C8.78125 34.3415 8.95144 34.7524 9.25436 35.0553C9.5573 35.3583 9.96816 35.5285 10.3966 35.5285C10.825 35.5285 11.2358 35.3583 11.5388 35.0553C11.8417 34.7524 12.0119 34.3415 12.0119 33.9131Z" stroke="#D4979B" stroke-width="2"/>
<path d="M63.6734 33.3363C63.7223 33.3169 63.7665 33.2872 63.8035 33.2489C63.8405 33.2105 63.8696 33.1644 63.8891 33.1129C63.9088 33.0616 63.9183 33.006 63.9175 32.9493C63.9166 32.8927 63.9053 32.8361 63.8841 32.7829C63.8628 32.7295 63.8322 32.6806 63.794 32.6388C63.7557 32.597 63.7105 32.5632 63.661 32.5393C63.6115 32.5154 63.5585 32.5018 63.5053 32.4994C63.452 32.497 63.3995 32.5058 63.3507 32.5252C63.2521 32.5645 63.1745 32.6448 63.1351 32.7487C63.0956 32.8524 63.0976 32.9711 63.1403 33.0786C63.1616 33.132 63.1921 33.1809 63.2304 33.2227C63.2687 33.2645 63.3139 33.2983 63.3635 33.3222C63.413 33.3462 63.4659 33.3597 63.5191 33.3621C63.5724 33.3645 63.6246 33.3557 63.6734 33.3363ZM30.9331 37.6976C31.1787 37.6934 31.4208 37.6307 31.6457 37.5132C31.8706 37.3956 32.0739 37.2255 32.2438 37.0126C32.4138 36.7996 32.5473 36.5479 32.6364 36.272C32.7256 35.996 32.7689 35.7012 32.7636 35.4043C32.753 34.8049 32.546 34.2333 32.1879 33.8156C31.8299 33.3979 31.3501 33.1681 30.8543 33.1768C30.6088 33.1811 30.3667 33.2437 30.1418 33.3613C29.9169 33.4788 29.7137 33.6489 29.5437 33.8618C29.3738 34.0747 29.2403 34.3263 29.1511 34.6023C29.062 34.8781 29.0187 35.1729 29.0238 35.4698C29.0344 36.0693 29.2414 36.6408 29.5996 37.0585C29.9576 37.4762 30.4372 37.7063 30.9331 37.6976ZM37.8235 37.7949C38.0651 37.7953 38.3045 37.735 38.5278 37.6174C38.7513 37.4997 38.9544 37.327 39.1256 37.1092C39.2969 36.8915 39.4328 36.6327 39.5258 36.3479C39.6188 36.063 39.6668 35.7577 39.6674 35.4492C39.6684 34.8263 39.4757 34.2286 39.1315 33.7876C38.7872 33.3466 38.3198 33.0984 37.832 33.0974C37.5904 33.097 37.351 33.1573 37.1276 33.275C36.9043 33.3926 36.7012 33.5653 36.5299 33.7831C36.3586 34.0009 36.2227 34.2596 36.1298 34.5444C36.0368 34.8293 35.9887 35.1346 35.9882 35.4431C35.9872 36.066 36.1799 36.6637 36.524 37.1047C36.8683 37.5458 37.3357 37.794 37.8235 37.7949ZM60.5209 34.7521C60.622 34.7804 60.723 34.7784 60.824 34.7461C60.9149 34.7198 60.9493 34.6602 60.927 34.5673C60.424 32.5883 57.7025 32.7823 57.654 34.5643C57.652 34.6673 57.7025 34.7239 57.8055 34.734C58.6359 34.8006 59.4462 34.7976 60.2361 34.7248C60.333 34.7148 60.4281 34.7239 60.5209 34.7521Z" stroke="#86B3CF" stroke-width="2"/>
<path d="M3.69141 3.69434H64.3036V64.3066H3.69141V34.2853C4.34299 40.4708 11.8256 42.7074 15.732 37.9311C16.4977 36.9937 16.9423 35.8845 17.0654 34.6035C17.8807 26.1542 5.20671 24.3601 3.69141 33.3762V3.69434ZM21.5296 37.2038C20.9205 36.834 20.7659 36.2218 20.6052 35.5733C20.579 35.4662 20.5113 35.4157 20.4022 35.4218L19.3172 35.4915C19.1758 35.5016 19.1122 35.5764 19.1263 35.7158C19.4021 38.4918 22.2327 39.2221 24.5481 38.7282C27.5877 38.0826 28.0787 34.0822 24.8026 33.2761C23.5944 32.9811 22.7055 32.7548 22.1357 32.5972C21.078 32.3064 20.675 30.8456 21.8478 30.4214C23.6278 29.7768 24.8532 30.2819 25.5239 31.9366C25.5704 32.0498 25.6543 32.1063 25.7755 32.1063H26.7149C26.8422 32.1063 26.8969 32.0437 26.8786 31.9184C26.4967 29.0848 23.1601 28.3665 20.9931 29.4848C18.9657 30.5334 19.1112 33.3216 21.3992 33.9459C22.1832 34.1601 22.9701 34.361 23.7601 34.5489C27.6817 35.4733 24.3633 38.9282 21.5296 37.2038ZM51.1993 29.9213C51.1993 29.7211 51.1198 29.5291 50.9783 29.3877C50.8367 29.2461 50.6448 29.1667 50.4446 29.1667C50.3456 29.1667 50.2475 29.1861 50.1558 29.2241C50.0643 29.262 49.9812 29.3176 49.911 29.3877C49.841 29.4577 49.7854 29.5409 49.7475 29.6325C49.7096 29.724 49.69 29.8221 49.69 29.9213C49.69 30.1214 49.7696 30.3133 49.911 30.4548C50.0526 30.5964 50.2445 30.6758 50.4446 30.6758C50.6448 30.6758 50.8367 30.5964 50.9783 30.4548C51.1198 30.3133 51.1993 30.1214 51.1993 29.9213ZM47.7201 32.0972C47.5383 31.5093 47.5908 30.9598 47.8777 30.4486C47.9383 30.3415 48.0303 30.2879 48.1535 30.2879H48.8596C48.9829 30.2879 49.0405 30.2273 49.0323 30.1061L48.9869 29.4636C48.9788 29.3586 48.9232 29.298 48.8202 29.2817C46.3654 28.8727 46.5806 30.3546 46.4139 32.0154C46.4018 32.1528 46.3271 32.2103 46.1896 32.1882C45.9108 32.1397 45.6493 32.1952 45.4048 32.3548C45.3098 32.4174 45.2664 32.5054 45.2745 32.6185L45.3229 33.1943C45.333 33.3277 45.4048 33.3943 45.5381 33.3943H46.1988C46.3018 33.3943 46.3533 33.4458 46.3533 33.5488L46.3564 38.4009C46.3564 38.5484 46.4312 38.6221 46.5806 38.6221H47.4534C47.5726 38.6221 47.6332 38.5625 47.6353 38.4433L47.6504 33.5762C47.6504 33.4549 47.711 33.3943 47.8322 33.3943H48.6444C48.7758 33.3943 48.8415 33.3297 48.8415 33.2004L48.8505 32.4488C48.8505 32.3215 48.7869 32.2578 48.6596 32.2578H47.9354C47.8242 32.2578 47.7525 32.2043 47.7201 32.0972ZM43.4712 32.0609L43.4652 30.5667C43.4652 30.4739 43.4227 30.4102 43.3379 30.3758C42.9823 30.2304 42.6448 30.2293 42.3256 30.3728C42.2287 30.4152 42.1802 30.489 42.1802 30.594V32.1215C42.1802 32.2366 42.1236 32.2872 42.0105 32.273L41.4346 32.2033C41.273 32.1831 41.1901 32.2548 41.1861 32.4185L41.1709 33.1519C41.1669 33.3135 41.2457 33.3943 41.4073 33.3943H41.9771C42.1246 33.3943 42.1963 33.4681 42.1923 33.6155C42.1438 35.2825 41.4861 39.4768 44.6653 38.6161C44.7804 38.5838 44.837 38.5079 44.835 38.3888L44.8259 37.7463C44.8239 37.5927 44.7491 37.5392 44.6016 37.5856C43.644 37.8887 43.4682 37.3341 43.4682 36.537C43.4662 35.5632 43.4672 34.5823 43.4712 33.5944C43.4719 33.5429 43.4922 33.4937 43.5277 33.457C43.5634 33.4203 43.6115 33.399 43.6621 33.3973L44.4744 33.3762C44.6258 33.3721 44.6976 33.2943 44.6895 33.1427L44.6471 32.4609C44.639 32.3255 44.5673 32.2578 44.4319 32.2578H43.6682C43.5369 32.2578 43.4712 32.1922 43.4712 32.0609ZM29.1728 32.57C28.8515 32.2225 28.4364 32.1305 27.9272 32.2942C27.8322 32.3246 27.7848 32.3892 27.7848 32.4882V40.783C27.7848 40.9082 27.8484 40.9709 27.9756 40.9709H28.8879C29.0192 40.9709 29.0839 40.9052 29.0819 40.7738L29.0516 38.316C29.0495 38.2029 29.098 38.1736 29.197 38.2281C32.1913 39.8435 34.634 37.6251 34.046 34.552C33.649 32.4912 31.2123 31.3607 29.391 32.5943C29.3101 32.6488 29.2374 32.6407 29.1728 32.57ZM37.8755 38.8342C38.2966 38.8292 38.7124 38.7365 39.0994 38.5616C39.4863 38.3867 39.8367 38.133 40.1307 37.815C40.4246 37.497 40.6561 37.1209 40.8123 36.7082C40.9683 36.2955 41.0458 35.8543 41.0404 35.4096C41.0349 34.9651 40.9467 34.526 40.7804 34.1173C40.6143 33.7086 40.3736 33.3382 40.072 33.0276C39.7705 32.7169 39.414 32.4719 39.0229 32.3065C38.6318 32.1412 38.2138 32.0587 37.7928 32.0638C37.3717 32.0691 36.9558 32.1617 36.5689 32.3367C36.182 32.5116 35.8316 32.7653 35.5378 33.0833C35.2439 33.4013 35.0123 33.7773 34.8563 34.1901C34.7002 34.6028 34.6227 35.0439 34.6282 35.4885C34.6392 36.3862 34.9875 37.243 35.5965 37.8705C36.2054 38.4979 37.0252 38.8446 37.8755 38.8342ZM57.7454 35.7673L62.2792 35.7461C62.358 35.7461 62.3994 35.7066 62.4034 35.6279C62.6155 31.1517 56.4362 30.8971 56.13 35.043C55.8452 38.8797 60.1699 40.198 62.1428 37.128C62.1704 37.0847 62.1887 37.0361 62.1965 36.9852C62.2042 36.9344 62.2013 36.8826 62.188 36.833C62.1745 36.7834 62.1509 36.737 62.1186 36.6971C62.0864 36.6571 62.0461 36.6242 62.0004 36.6007C60.9518 36.0582 60.776 37.0977 60.2214 37.4705C59.0728 38.2402 57.4877 37.3795 57.5575 35.9491C57.5636 35.8299 57.6262 35.7693 57.7454 35.7673ZM53.6965 32.8549V32.4488C53.6965 32.3215 53.6328 32.2578 53.5055 32.2578H52.7297C52.5923 32.2578 52.5227 32.3276 52.5206 32.467L52.4751 38.4645C52.4732 38.5696 52.5246 38.6221 52.6297 38.6221H53.6146C53.7177 38.6221 53.7692 38.5706 53.7692 38.4676C53.7753 36.928 53.0237 33.07 55.8392 33.5731C55.9766 33.5994 56.0452 33.5419 56.0452 33.4004V32.3518C56.0452 32.2346 55.9856 32.175 55.8664 32.1729C55.0987 32.1729 54.436 32.4275 53.8783 32.9367C53.7571 33.0458 53.6965 33.0185 53.6965 32.8549ZM64.2703 32.8821C64.2703 32.6796 64.1898 32.4854 64.0466 32.3421C63.9034 32.1989 63.7091 32.1184 63.5065 32.1184C63.3041 32.1184 63.1098 32.1989 62.9666 32.3421C62.8234 32.4854 62.7429 32.6796 62.7429 32.8821C62.7429 33.0847 62.8234 33.279 62.9666 33.4222C63.1098 33.5654 63.3041 33.6459 63.5065 33.6459C63.7091 33.6459 63.9034 33.5654 64.0466 33.4222C64.1898 33.279 64.2703 33.0847 64.2703 32.8821ZM51.0398 32.3375C51.0398 32.3272 51.0378 32.317 51.0339 32.3074C51.0299 32.2979 51.0241 32.2891 51.0168 32.2818C51.0094 32.2745 51.0008 32.2687 50.9912 32.2648C50.9817 32.2608 50.9714 32.2587 50.961 32.2587L49.8943 32.2627C49.8839 32.2627 49.8736 32.2648 49.8641 32.2687C49.8545 32.2727 49.8458 32.2786 49.8385 32.2858C49.8312 32.2932 49.8253 32.302 49.8214 32.3115C49.8174 32.3212 49.8155 32.3315 49.8155 32.3418L49.8374 38.5425C49.8374 38.5633 49.8456 38.5834 49.8604 38.5982C49.8752 38.6129 49.8952 38.6213 49.9161 38.6213L50.9829 38.6173C50.9933 38.6173 51.0036 38.6152 51.0131 38.6113C51.0227 38.6073 51.0314 38.6014 51.0387 38.5941C51.046 38.5868 51.0519 38.578 51.0558 38.5685C51.0598 38.5588 51.0617 38.5485 51.0617 38.5382L51.0398 32.3375Z" fill="white"/>
<path d="M3.69141 34.2843V33.3751C5.20671 24.3591 17.8807 26.1532 17.0655 34.6025C16.9423 35.8834 16.4977 36.9926 15.7321 37.9301C11.8256 42.7064 4.34299 40.4698 3.69141 34.2843ZM15.3938 33.7806C15.3769 33.1364 15.231 32.5021 14.9639 31.9135C14.697 31.325 14.3145 30.7938 13.8381 30.3505C13.3617 29.9072 12.8008 29.5603 12.1875 29.3298C11.5742 29.0992 10.9205 28.9892 10.2636 29.0065C8.93704 29.0412 7.67836 29.5913 6.76445 30.5358C5.85055 31.4802 5.35627 32.7416 5.39037 34.0424C5.42445 35.3432 5.9841 36.5771 6.9462 37.4723C7.9083 38.3676 9.19404 38.8509 10.5206 38.8162C11.8471 38.7815 13.1057 38.2314 14.0196 37.287C14.9335 36.3427 15.4278 35.0814 15.3938 33.7806Z" fill="#0C679E"/>
<path d="M15.3958 33.7827C15.4298 35.0835 14.9354 36.3448 14.0215 37.2891C13.1076 38.2335 11.849 38.7836 10.5225 38.8183C9.19595 38.8531 7.91021 38.3697 6.94811 37.4744C5.98601 36.5792 5.42637 35.3453 5.39228 34.0445C5.35818 32.7437 5.85246 31.4823 6.76636 30.5379C7.68027 29.5935 8.93895 29.0433 10.2655 29.0086C10.9224 28.9913 11.5761 29.1013 12.1894 29.3319C12.8027 29.5624 13.3636 29.9094 13.84 30.3526C14.3163 30.7959 14.6989 31.3271 14.9659 31.9156C15.2328 32.5042 15.3789 33.1385 15.3958 33.7827ZM13.7095 33.9137C13.7095 33.0335 13.3599 32.1894 12.7375 31.567C12.1152 30.9447 11.2711 30.5951 10.391 30.5951C9.51084 30.5951 8.66677 30.9447 8.04442 31.567C7.42208 32.1894 7.07245 33.0335 7.07245 33.9137C7.07245 34.7938 7.42208 35.6378 8.04442 36.2602C8.66677 36.8825 9.51084 37.2321 10.391 37.2321C11.2711 37.2321 12.1152 36.8825 12.7375 36.2602C13.3599 35.6378 13.7095 34.7938 13.7095 33.9137Z" fill="white"/>
<path d="M21.5302 37.2054C24.3638 38.9299 27.6824 35.475 23.7608 34.5506C22.9708 34.3627 22.1838 34.1618 21.3999 33.9476C19.1118 33.3233 18.9663 30.5351 20.9938 29.4865C23.1607 28.3682 26.4974 29.0865 26.8792 31.9201C26.8974 32.0454 26.8429 32.108 26.7156 32.108H25.7761C25.6549 32.108 25.571 32.0514 25.5246 31.9382C24.8538 30.2835 23.6285 29.7785 21.8484 30.4229C20.6756 30.8472 21.0786 32.308 22.1364 32.5989C22.7061 32.7565 23.5951 32.9828 24.8033 33.2778C28.0793 34.0839 27.5884 38.0843 24.5487 38.7299C22.2333 39.2238 19.4027 38.4935 19.1269 35.7175C19.1128 35.5781 19.1764 35.5033 19.3179 35.4932L20.4029 35.4234C20.512 35.4174 20.5797 35.4679 20.6059 35.575C20.7665 36.2235 20.921 36.8357 21.5302 37.2054Z" fill="#0C679E"/>
<path d="M50.4461 30.6743C50.8629 30.6743 51.2007 30.3365 51.2007 29.9197C51.2007 29.5029 50.8629 29.165 50.4461 29.165C50.0293 29.165 49.6914 29.5029 49.6914 29.9197C49.6914 30.3365 50.0293 30.6743 50.4461 30.6743Z" fill="#0C679E"/>
<path d="M47.9363 32.2577H48.6606C48.7879 32.2577 48.8516 32.3214 48.8516 32.4486L48.8425 33.2002C48.8425 33.3296 48.7768 33.3942 48.6455 33.3942H47.8333C47.7121 33.3942 47.6515 33.4548 47.6515 33.576L47.6363 38.4432C47.6343 38.5624 47.5737 38.622 47.4544 38.622H46.5816C46.4321 38.622 46.3573 38.5483 46.3573 38.4008L46.3544 33.5487C46.3544 33.4457 46.3028 33.3942 46.1998 33.3942H45.5391C45.4057 33.3942 45.334 33.3275 45.324 33.1942L45.2755 32.6184C45.2674 32.5053 45.3108 32.4173 45.4057 32.3546C45.6502 32.1951 45.9119 32.1395 46.1907 32.188C46.3281 32.2102 46.4029 32.1527 46.415 32.0152C46.5816 30.3544 46.3665 28.8725 48.8213 29.2816C48.9243 29.2978 48.9799 29.3585 48.9879 29.4634L49.0334 30.1059C49.0415 30.2272 48.9839 30.2878 48.8606 30.2878H48.1546C48.0313 30.2878 47.9393 30.3414 47.8787 30.4484C47.5919 30.9596 47.5393 31.5092 47.7211 32.0971C47.7535 32.2041 47.8252 32.2577 47.9363 32.2577ZM43.6692 32.2577H44.433C44.5684 32.2577 44.6401 32.3254 44.6481 32.4608L44.6905 33.1426C44.6986 33.2941 44.6269 33.372 44.4754 33.376L43.6632 33.3972C43.6125 33.3988 43.5644 33.4201 43.5288 33.4569C43.4933 33.4935 43.473 33.5428 43.4722 33.5942C43.4682 34.5822 43.4672 35.5631 43.4692 36.5369C43.4692 37.334 43.645 37.8885 44.6027 37.5855C44.7502 37.539 44.8249 37.5926 44.8269 37.7462L44.836 38.3886C44.838 38.5078 44.7814 38.5836 44.6663 38.6159C41.4872 39.4766 42.1448 35.2822 42.1933 33.6154C42.1974 33.468 42.1257 33.3942 41.9782 33.3942H41.4084C41.2468 33.3942 41.168 33.3133 41.172 33.1518L41.1871 32.4183C41.1912 32.2547 41.274 32.183 41.4356 32.2031L42.0114 32.2729C42.1247 32.2871 42.1812 32.2365 42.1812 32.1213V30.5939C42.1812 30.4888 42.2297 30.4151 42.3266 30.3726C42.6459 30.2292 42.9833 30.2302 43.3389 30.3757C43.4237 30.41 43.4661 30.4737 43.4661 30.5666L43.4722 32.0607C43.4722 32.192 43.538 32.2577 43.6692 32.2577Z" fill="#0C679E"/>
<path d="M13.7074 33.9133C13.7074 34.7934 13.3577 35.6375 12.7354 36.2598C12.113 36.8822 11.269 37.2318 10.3888 37.2318C9.5087 37.2318 8.66462 36.8822 8.04228 36.2598C7.41994 35.6375 7.07031 34.7934 7.07031 33.9133C7.07031 33.0331 7.41994 32.189 8.04228 31.5667C8.66462 30.9443 9.5087 30.5947 10.3888 30.5947C11.269 30.5947 12.113 30.9443 12.7354 31.5667C13.3577 32.189 13.7074 33.0331 13.7074 33.9133ZM12.0102 33.9163C12.0102 33.4879 11.84 33.0771 11.5371 32.7741C11.2342 32.4711 10.8233 32.301 10.3949 32.301C9.96648 32.301 9.55562 32.4711 9.25269 32.7741C8.94975 33.0771 8.77958 33.4879 8.77958 33.9163C8.77958 34.3447 8.94975 34.7555 9.25269 35.0585C9.55562 35.3614 9.96648 35.5316 10.3949 35.5316C10.8233 35.5316 11.2342 35.3614 11.5371 35.0585C11.84 34.7555 12.0102 34.3447 12.0102 33.9163Z" fill="#A92F36"/>
<path d="M29.3914 32.5948C31.2128 31.3613 33.6494 32.4918 34.0464 34.5526C34.6343 37.6256 32.1917 39.844 29.1974 38.2287C29.0984 38.1741 29.0499 38.2035 29.052 38.3166L29.0823 40.7744C29.0843 40.9058 29.0196 40.9714 28.8883 40.9714H27.9761C27.8489 40.9714 27.7852 40.9087 27.7852 40.7835V32.4887C27.7852 32.3898 27.8326 32.325 27.9276 32.2947C28.4368 32.1311 28.8519 32.223 29.1732 32.5706C29.2378 32.6412 29.3105 32.6494 29.3914 32.5948ZM30.934 37.698C31.1795 37.6938 31.4217 37.6312 31.6466 37.5135C31.8714 37.396 32.0748 37.2259 32.2447 37.013C32.4147 36.8001 32.548 36.5484 32.6372 36.2724C32.7264 35.9965 32.7696 35.7016 32.7645 35.4047C32.7539 34.8053 32.5468 34.2338 32.1888 33.8161C31.8308 33.3983 31.351 33.1686 30.8552 33.1773C30.6097 33.1815 30.3675 33.2442 30.1427 33.3617C29.9178 33.4792 29.7146 33.6494 29.5446 33.8622C29.3745 34.0752 29.2412 34.3268 29.152 34.6026C29.0627 34.8786 29.0195 35.1734 29.0247 35.4702C29.0352 36.0697 29.2423 36.6412 29.6003 37.0589C29.9585 37.4767 30.4381 37.7068 30.934 37.698Z" fill="#0C679E"/>
<path d="M37.8765 38.8321C37.0262 38.8425 36.2064 38.4958 35.5974 37.8684C34.9884 37.2409 34.6402 36.3841 34.6292 35.4863C34.6237 35.0418 34.7012 34.6007 34.8572 34.1879C35.0133 33.7752 35.2449 33.3991 35.5388 33.0812C35.8326 32.7632 36.183 32.5095 36.5699 32.3345C36.9568 32.1597 37.3727 32.067 37.7938 32.0617C38.2149 32.0566 38.6328 32.1391 39.0239 32.3044C39.415 32.4698 39.7715 32.7148 40.0731 33.0255C40.3746 33.3361 40.6153 33.7065 40.7815 34.1152C40.9476 34.5239 41.0359 34.963 41.0413 35.4075C41.0469 35.8522 40.9693 36.2934 40.8133 36.7061C40.6572 37.1188 40.4256 37.4949 40.1316 37.8129C39.8378 38.1309 39.4874 38.3846 39.1004 38.5595C38.7134 38.7343 38.2976 38.827 37.8765 38.8321ZM37.825 37.7927C38.0666 37.7931 38.3059 37.7328 38.5293 37.6152C38.7528 37.4975 38.9559 37.3248 39.1271 37.1071C39.2983 36.8892 39.4343 36.6305 39.5273 36.3457C39.6201 36.0608 39.6683 35.7555 39.6688 35.447C39.6699 34.8241 39.4771 34.2264 39.1329 33.7854C38.7887 33.3444 38.3213 33.0962 37.8334 33.0952C37.5919 33.0948 37.3525 33.1551 37.1291 33.2728C36.9056 33.3904 36.7025 33.5631 36.5314 33.7809C36.3601 33.9987 36.2241 34.2575 36.1312 34.5422C36.0383 34.8271 35.9902 35.1324 35.9897 35.4409C35.9885 36.0638 36.1814 36.6615 36.5255 37.1024C36.8697 37.5435 37.3371 37.7918 37.825 37.7927ZM57.5585 35.947C57.4888 37.3774 59.0738 38.2381 60.2224 37.4684C60.777 37.0956 60.9528 36.0561 62.0014 36.5986C62.0471 36.6222 62.0873 36.6549 62.1196 36.695C62.152 36.735 62.1755 36.7812 62.1889 36.8308C62.2023 36.8804 62.2053 36.9323 62.1975 36.9832C62.1897 37.034 62.1715 37.0826 62.1439 37.126C60.1709 40.1959 55.8462 38.8776 56.1311 35.0409C56.4372 30.895 62.6166 31.1496 62.4045 35.6257C62.4004 35.7045 62.359 35.744 62.2802 35.744L57.7464 35.7652C57.6272 35.7672 57.5645 35.8278 57.5585 35.947ZM60.5224 34.75C60.6235 34.7782 60.7245 34.7763 60.8255 34.7439C60.9164 34.7176 60.9508 34.658 60.9285 34.565C60.4254 32.5861 57.7039 32.7801 57.6555 34.5621C57.6535 34.6651 57.704 34.7217 57.807 34.7318C58.6374 34.7984 59.4476 34.7954 60.2375 34.7226C60.3345 34.7126 60.4296 34.7217 60.5224 34.75ZM53.8793 32.9346C54.437 32.4254 55.0997 32.1709 55.8674 32.1709C55.9867 32.1729 56.0463 32.2325 56.0463 32.3497V33.3983C56.0463 33.5398 55.9775 33.5973 55.8402 33.571C53.0247 33.0679 53.7763 36.9259 53.7702 38.4655C53.7702 38.5685 53.7187 38.62 53.6157 38.62H52.6307C52.5257 38.62 52.4741 38.5675 52.4762 38.4624L52.5216 32.4649C52.5237 32.3255 52.5933 32.2557 52.7308 32.2557H53.5066C53.6339 32.2557 53.6975 32.3194 53.6975 32.4467V32.8528C53.6975 33.0164 53.7581 33.0437 53.8793 32.9346ZM64.2713 32.88C64.2713 33.0826 64.1908 33.2769 64.0476 33.4201C63.9044 33.5633 63.7101 33.6437 63.5076 33.6437C63.305 33.6437 63.1108 33.5633 62.9676 33.4201C62.8244 33.2769 62.7439 33.0826 62.7439 32.88C62.7439 32.6775 62.8244 32.4833 62.9676 32.3401C63.1108 32.1968 63.305 32.1163 63.5076 32.1163C63.7101 32.1163 63.9044 32.1968 64.0476 32.3401C64.1908 32.4833 64.2713 32.6775 64.2713 32.88ZM63.6749 33.334C63.7237 33.3147 63.7679 33.285 63.8049 33.2467C63.8419 33.2083 63.8711 33.1621 63.8906 33.1108C63.9102 33.0594 63.9198 33.0038 63.919 32.9471C63.918 32.8905 63.9067 32.8339 63.8855 32.7807C63.8643 32.7274 63.8337 32.6785 63.7955 32.6366C63.7572 32.5948 63.712 32.561 63.6624 32.5371C63.6129 32.5132 63.56 32.4996 63.5067 32.4972C63.4535 32.4948 63.401 32.5036 63.3521 32.523C63.2536 32.5623 63.176 32.6426 63.1366 32.7464C63.0971 32.8502 63.099 32.9689 63.1418 33.0764C63.163 33.1298 63.1936 33.1787 63.2319 33.2205C63.2701 33.2623 63.3153 33.2961 63.3649 33.32C63.4144 33.344 63.4674 33.3575 63.5206 33.3599C63.5738 33.3623 63.6261 33.3535 63.6749 33.334Z" fill="#0C679E"/>
<path d="M10.3966 35.5285C11.2887 35.5285 12.0119 34.8054 12.0119 33.9132C12.0119 33.0211 11.2887 32.2979 10.3966 32.2979C9.50446 32.2979 8.78125 33.0211 8.78125 33.9132C8.78125 34.8054 9.50446 35.5285 10.3966 35.5285Z" fill="white"/>
<path d="M50.9617 32.2588L49.8949 32.2625C49.8513 32.2627 49.8162 32.298 49.8164 32.3416L49.838 38.5422C49.8382 38.5857 49.8735 38.6208 49.9171 38.6207L50.9839 38.617C51.0274 38.6168 51.0626 38.5815 51.0623 38.5379L51.0408 32.3373C51.0406 32.2938 51.0051 32.2587 50.9617 32.2588Z" fill="#0C679E"/>
<path d="M63.1391 33.0787C63.2282 33.3027 63.4668 33.4179 63.6721 33.3362C63.8773 33.2546 63.9716 33.0068 63.8825 32.7828C63.7933 32.5589 63.5547 32.4436 63.3494 32.5253C63.1441 32.6069 63.0499 32.8547 63.1391 33.0787Z" fill="white"/>
<path d="M35.9922 35.4441C35.9898 36.7413 36.8117 37.7942 37.8276 37.7961C38.8436 37.7978 39.669 36.7477 39.6713 35.4506C39.6736 34.1534 38.8518 33.1004 37.8358 33.0986C36.8198 33.0969 35.9945 34.1469 35.9922 35.4441Z" fill="white"/>
<path d="M60.2384 34.7256C59.4485 34.7984 58.6382 34.8014 57.8078 34.7348C57.7048 34.7247 57.6544 34.6681 57.6563 34.565C57.7048 32.783 60.4263 32.5891 60.9294 34.568C60.9517 34.661 60.9172 34.7206 60.8263 34.7469C60.7253 34.7792 60.6244 34.7812 60.5233 34.7529C60.4304 34.7247 60.3354 34.7155 60.2384 34.7256Z" fill="white"/>
<path d="M29.0239 35.4702C29.0456 36.7186 29.9004 37.716 30.9329 37.6981C31.9655 37.68 32.7848 36.6534 32.763 35.4049C32.7412 34.1564 31.8865 33.159 30.8539 33.177C29.8215 33.1951 29.0021 34.2217 29.0239 35.4702Z" fill="white"/>
</g>
</svg>
