<svg width="33" height="32" viewBox="0 0 33 32" fill="none" xmlns="http://www.w3.org/2000/svg">
<rect x="6" y="16" width="5.33333" height="8" fill="#DAE6F9"/>
<rect x="22" y="16" width="5.33333" height="8" fill="#DAE6F9"/>
<path d="M27.3333 16.0008H23.8053C23.3375 16.0008 22.8888 16.1881 22.558 16.5215C22.2272 16.8549 22.0413 17.3071 22.0413 17.7786V22.2229C22.0413 22.6944 22.2272 23.1466 22.558 23.48C22.8888 23.8134 23.3375 24.0007 23.8053 24.0007H25.5693C26.0372 24.0007 26.4859 23.8134 26.8167 23.48C27.1475 23.1466 27.3333 22.6944 27.3333 22.2229V16.0008ZM27.3333 16.0008C27.3334 14.5926 27.0567 13.1982 26.5193 11.8983C25.9819 10.5984 25.1944 9.41853 24.2022 8.42689C23.2101 7.43524 22.0329 6.65142 20.7386 6.12064C19.4443 5.58985 18.0585 5.32262 16.6612 5.33435C15.2648 5.32409 13.8802 5.59241 12.5871 6.12386C11.2941 6.6553 10.1182 7.43936 9.12721 8.43086C8.13621 9.42235 7.34969 10.6017 6.81298 11.9009C6.27626 13.2001 5.99996 14.5935 6 16.0008V22.2229C6 22.6944 6.18585 23.1466 6.51666 23.48C6.84748 23.8134 7.29616 24.0007 7.764 24.0007H9.52799C9.99583 24.0007 10.4445 23.8134 10.7753 23.48C11.1061 23.1466 11.292 22.6944 11.292 22.2229V17.7786C11.292 17.3071 11.1061 16.8549 10.7753 16.5215C10.4445 16.1881 9.99583 16.0008 9.52799 16.0008H6" stroke="#1E63EC" stroke-width="1.5" stroke-linecap="round" stroke-linejoin="round"/>
<path d="M27.3333 21.334V24.1911C27.3333 25.2015 26.9817 26.1704 26.3559 26.8849C25.7301 27.5993 24.8813 28.0007 23.9963 28.0007H18" stroke="#1E63EC" stroke-width="1.5" stroke-linecap="round" stroke-linejoin="round"/>
</svg>
