<svg width="32" height="32" viewBox="0 0 32 32" fill="none" xmlns="http://www.w3.org/2000/svg">
<path d="M26 27V5C26 4.44772 25.5523 4 25 4L7 4C6.44772 4 6 4.44772 6 5V27C6 27.5523 6.44772 28 7 28H25C25.5523 28 26 27.5523 26 27Z" fill="white" fill-opacity="0.15" stroke="white" stroke-width="2" stroke-linecap="round" stroke-linejoin="round"/>
<path d="M22 8H10V14H22V8Z" fill="white" stroke="white" stroke-width="2" stroke-linecap="round" stroke-linejoin="round"/>
<path d="M11.002 20C11.8304 20 12.502 19.3284 12.502 18.5C12.502 17.6716 11.8304 17 11.002 17C10.1735 17 9.50195 17.6716 9.50195 18.5C9.50195 19.3284 10.1735 20 11.002 20Z" fill="white"/>
<path d="M16 20C16.8284 20 17.5 19.3284 17.5 18.5C17.5 17.6716 16.8284 17 16 17C15.1716 17 14.5 17.6716 14.5 18.5C14.5 19.3284 15.1716 20 16 20Z" fill="white"/>
<path d="M21 20C21.8284 20 22.5 19.3284 22.5 18.5C22.5 17.6716 21.8284 17 21 17C20.1716 17 19.5 17.6716 19.5 18.5C19.5 19.3284 20.1716 20 21 20Z" fill="white"/>
<path d="M11.002 25.002C11.8304 25.002 12.502 24.3304 12.502 23.502C12.502 22.6735 11.8304 22.002 11.002 22.002C10.1735 22.002 9.50195 22.6735 9.50195 23.502C9.50195 24.3304 10.1735 25.002 11.002 25.002Z" fill="white"/>
<path d="M16 25.002C16.8284 25.002 17.5 24.3304 17.5 23.502C17.5 22.6735 16.8284 22.002 16 22.002C15.1716 22.002 14.5 22.6735 14.5 23.502C14.5 24.3304 15.1716 25.002 16 25.002Z" fill="white"/>
<path d="M21 25.002C21.8284 25.002 22.5 24.3304 22.5 23.502C22.5 22.6735 21.8284 22.002 21 22.002C20.1716 22.002 19.5 22.6735 19.5 23.502C19.5 24.3304 20.1716 25.002 21 25.002Z" fill="white"/>
</svg>
