<svg width="33" height="32" viewBox="0 0 33 32" fill="none" xmlns="http://www.w3.org/2000/svg">
<path d="M23.334 22.998H9.05898L5.57148 3.82305C5.53068 3.59341 5.41089 3.38527 5.23285 3.23461C5.05481 3.08396 4.8297 3.00028 4.59648 2.99805H2.33398" stroke="white" stroke-width="2" stroke-linecap="round" stroke-linejoin="round"/>
<path d="M10.334 28C11.7147 28 12.834 26.8807 12.834 25.5C12.834 24.1193 11.7147 23 10.334 23C8.95327 23 7.83398 24.1193 7.83398 25.5C7.83398 26.8807 8.95327 28 10.334 28Z" stroke="white" stroke-width="2" stroke-linecap="round" stroke-linejoin="round"/>
<path d="M23.334 28C24.7147 28 25.834 26.8807 25.834 25.5C25.834 24.1193 24.7147 23 23.334 23C21.9533 23 20.834 24.1193 20.834 25.5C20.834 26.8807 21.9533 28 23.334 28Z" stroke="white" stroke-width="2" stroke-linecap="round" stroke-linejoin="round"/>
<path d="M8.14648 18H23.8465C24.3139 18.0014 24.7669 17.838 25.1259 17.5386C25.4848 17.2391 25.7267 16.8227 25.809 16.3625L27.334 8H6.33398" fill="white" fill-opacity="0.15"/>
<path d="M8.14648 18H23.8465C24.3139 18.0014 24.7669 17.838 25.1259 17.5386C25.4848 17.2391 25.7267 16.8227 25.809 16.3625L27.334 8H6.33398" stroke="white" stroke-width="2" stroke-linecap="round" stroke-linejoin="round"/>
</svg>
