<svg width="33" height="32" viewBox="0 0 33 32" fill="none" xmlns="http://www.w3.org/2000/svg">
<path d="M26.521 10.0493L22.321 13.9993L26.321 24.9993L23.321 27.9993L17.346 19.2493L14.321 21.9993V24.9993L11.321 27.9993L9.54604 22.7618L4.32104 20.9993L7.32105 17.9993H10.321L13.321 14.9993L4.32104 8.99934L7.32105 5.99934L18.321 9.99934L22.2835 5.81184L22.196 5.87434C22.7596 5.31076 23.524 4.99414 24.321 4.99414C25.1181 4.99414 25.8825 5.31076 26.446 5.87434C27.0096 6.43793 27.3263 7.20231 27.3263 7.99934C27.3263 8.79637 27.0096 9.56076 26.446 10.1243L26.521 10.0493Z" fill="white" fill-opacity="0.15" stroke="white" stroke-width="2" stroke-linecap="round" stroke-linejoin="round"/>
</svg>
