<svg width="33" height="32" viewBox="0 0 33 32" fill="none" xmlns="http://www.w3.org/2000/svg">
<path d="M27.6666 27V17H21.6666L13.6666 11V17L5.66663 11V27" fill="white" fill-opacity="0.15"/>
<path d="M27.6666 27V17H21.6666L13.6666 11V17L5.66663 11V27" stroke="white" stroke-width="2" stroke-linecap="round" stroke-linejoin="round"/>
<path d="M10.6666 22H14.1666" stroke="white" stroke-width="2" stroke-linecap="round" stroke-linejoin="round"/>
<path d="M19.1666 22H22.6666" stroke="white" stroke-width="2" stroke-linecap="round" stroke-linejoin="round"/>
<path d="M2.66663 27H30.6666" stroke="white" stroke-width="2" stroke-linecap="round" stroke-linejoin="round"/>
<path d="M27.6666 17L25.7916 3.8625C25.7585 3.62391 25.6404 3.40529 25.459 3.24683C25.2775 3.08837 25.045 3.00072 24.8041 3H22.5291C22.2882 3.00072 22.0557 3.08837 21.8743 3.24683C21.6929 3.40529 21.5747 3.62391 21.5416 3.8625L19.8541 15.65" fill="white" fill-opacity="0.15"/>
<path d="M27.6666 17L25.7916 3.8625C25.7585 3.62391 25.6404 3.40529 25.459 3.24683C25.2775 3.08837 25.045 3.00072 24.8041 3H22.5291C22.2882 3.00072 22.0557 3.08837 21.8743 3.24683C21.6929 3.40529 21.5747 3.62391 21.5416 3.8625L19.8541 15.65" stroke="white" stroke-width="2" stroke-linecap="round" stroke-linejoin="round"/>
</svg>
