<svg width="33" height="32" viewBox="0 0 33 32" fill="none" xmlns="http://www.w3.org/2000/svg">
<path d="M30.4215 15.2241L27.334 16.7616L23.334 9.11161L26.459 7.54911C26.6912 7.43073 26.9608 7.40898 27.2091 7.48859C27.4573 7.56821 27.6639 7.74274 27.784 7.97411L30.859 13.8616C30.9213 13.9795 30.9595 14.1086 30.9712 14.2414C30.9829 14.3742 30.968 14.5081 30.9272 14.635C30.8864 14.762 30.8207 14.8795 30.7338 14.9806C30.647 15.0818 30.5408 15.1646 30.4215 15.2241Z" fill="white" fill-opacity="0.15" stroke="white" stroke-width="2" stroke-linecap="round" stroke-linejoin="round"/>
<path d="M5.33377 16.6385L2.24627 15.0885C2.12739 15.0302 2.02144 14.9486 1.93472 14.8486C1.84799 14.7486 1.78227 14.6321 1.74146 14.5062C1.70064 14.3802 1.68557 14.2474 1.69713 14.1155C1.7087 13.9836 1.74666 13.8554 1.80877 13.7385L4.88377 7.85097C5.00406 7.61976 5.20987 7.44464 5.45736 7.36293C5.70484 7.28121 5.97446 7.29934 6.20877 7.41347L9.33377 8.97597L5.33377 16.6385Z" fill="white" fill-opacity="0.15" stroke="white" stroke-width="2" stroke-linecap="round" stroke-linejoin="round"/>
<path d="M27.334 16.7617L25.334 19.1117L20.734 23.7117C20.6086 23.829 20.4567 23.9141 20.2913 23.9598C20.1258 24.0055 19.9518 24.0105 19.784 23.9742L12.534 22.1617C12.4015 22.1248 12.2781 22.061 12.1715 21.9742L5.33398 16.6367" stroke="white" stroke-width="2" stroke-linecap="round" stroke-linejoin="round"/>
<path d="M25.3341 19.1133L19.8341 15.1133L18.2341 16.3133C17.5409 16.8307 16.6991 17.1102 15.8341 17.1102C14.9691 17.1102 14.1273 16.8307 13.4341 16.3133L12.7591 15.8008C12.645 15.714 12.5505 15.604 12.4821 15.478C12.4137 15.352 12.3728 15.2129 12.3622 15.0699C12.3515 14.9269 12.3714 14.7833 12.4204 14.6485C12.4695 14.5138 12.5465 14.391 12.6466 14.2883L17.5466 9.40079C17.6386 9.3092 17.7478 9.23666 17.868 9.18732C17.9881 9.13799 18.1167 9.11283 18.2466 9.11329H23.3341" stroke="white" stroke-width="2" stroke-linecap="round" stroke-linejoin="round"/>
<path d="M9.4082 8.97429L15.8207 7.09929C16.0486 7.03395 16.2922 7.05167 16.5082 7.14929L20.8332 9.11179" stroke="white" stroke-width="2" stroke-linecap="round" stroke-linejoin="round"/>
<path d="M14.334 26.6125L10.5715 25.6625C10.4182 25.6279 10.2762 25.5547 10.159 25.45L7.33398 23" stroke="white" stroke-width="2" stroke-linecap="round" stroke-linejoin="round"/>
</svg>
