<svg width="74" height="74" viewBox="0 0 74 74" fill="none" xmlns="http://www.w3.org/2000/svg">
<g clip-path="url(#clip0_1307_4574)">
<path d="M15.3701 7C11.1477 7 8.02336 10.6956 8.1632 14.7035C8.29741 18.554 8.12307 23.5409 6.86758 27.6077C5.60832 31.6865 3.47863 34.2703 0 34.602V38.3472C3.47863 38.6789 5.60832 41.2626 6.86758 45.3414C8.12307 49.4083 8.29741 54.3951 8.1632 58.2456C8.02336 62.2529 11.1477 65.9492 15.3707 65.9492H58.6356C62.858 65.9492 65.9817 62.2535 65.8418 58.2456C65.7076 54.3951 65.882 49.4083 67.1374 45.3414C68.3973 41.2626 70.5214 38.6789 74 38.3472V34.602C70.5214 34.2703 68.3973 31.6865 67.1374 27.6077C65.882 23.5415 65.7076 18.554 65.8418 14.7035C65.9817 10.6962 62.858 7 58.6356 7H15.3694H15.3701ZM50.1695 43.287C50.1695 48.8056 46.0531 52.1525 39.2219 52.1525H27.5932C26.9005 52.1525 26.339 51.591 26.339 50.8983V22.0508C26.339 21.3582 26.9005 20.7966 27.5932 20.7966H39.1554C44.8515 20.7966 48.5898 23.882 48.5898 28.6193C48.5898 31.9443 46.075 34.9212 42.8711 35.4423V35.6161C47.2327 36.0945 50.1695 39.1147 50.1695 43.287ZM37.9538 24.7725H31.3233V34.1379H36.9078C41.2249 34.1379 43.6054 32.3996 43.6054 29.2922C43.6054 26.3805 41.5585 24.7725 37.9538 24.7725ZM31.3233 37.8542V48.1754H38.1978C42.6924 48.1754 45.0735 46.3718 45.0735 42.9822C45.0735 39.592 42.6259 37.8536 37.9087 37.8536H31.3233V37.8542Z" fill="#7E13F8"/>
</g>
<defs>
<clipPath id="clip0_1307_4574">
<rect width="74" height="74" fill="white"/>
</clipPath>
</defs>
</svg>
