<svg width="74" height="74" viewBox="0 0 74 74" fill="none" xmlns="http://www.w3.org/2000/svg">
<g clip-path="url(#clip0_1307_7781)">
<path fill-rule="evenodd" clip-rule="evenodd" d="M37.0658 4L6.23242 14.7028L10.6465 55.6088L37.0658 70V4Z" fill="#412846"/>
<path fill-rule="evenodd" clip-rule="evenodd" d="M36.9336 4L67.7669 14.7028L63.3527 55.6088L36.9336 70V4Z" fill="#4B314F"/>
<path fill-rule="evenodd" clip-rule="evenodd" d="M52.3679 26.585L52.3624 26.5675C53.7702 28.1345 54.4934 29.9951 54.5318 32.1495C54.5703 34.3037 53.8471 36.5763 52.3457 38.96C53.4678 38.0877 54.7637 36.2048 56.229 33.3331C56.862 39.1529 54.5101 43.5736 49.1513 46.6011C50.8622 46.4433 53.1337 45.3169 55.9511 43.2179C52.9446 50.4562 47.4166 54.2751 39.3672 54.6749C31.5879 54.6728 26.5483 49.9979 26.5523 50.0009C23.354 47.5116 21.1534 44.3743 19.9581 40.6028C18.0452 38.5138 18.0262 38.2898 17.8288 37.4551C17.6315 36.6203 17.9535 36.3871 18.5138 35.5703C18.8874 35.0258 18.9754 34.2425 18.7835 33.2344C18.3073 32.5739 18.0331 31.5396 17.9608 30.1314C17.9608 29.4508 18.4149 28.7328 19.3234 27.9772C20.2317 27.2217 20.7891 26.6406 20.9909 26.2406C21.1449 26.0224 21.2044 25.0769 21.1694 23.404C21.16 21.7608 22.0724 20.8667 23.9065 20.722C26.6576 20.5047 28.2092 18.4357 29.0736 17.4947C29.6498 16.8674 30.5027 16.5625 31.5782 16.5566C33.0926 16.4856 34.4704 17.0661 35.6574 18.264C38.6138 18.1111 41.6421 18.9084 44.7105 20.6356C49.071 23.2259 51.4507 26.0309 51.8497 29.0367C51.3824 32.9924 46.0685 32.889 35.9318 28.7255C30.6272 30.2281 28.0192 33.4842 28.1059 38.4937C28.1023 43.0906 30.3271 46.431 34.7651 48.5115C32.602 46.3879 31.6809 44.6029 31.9911 43.1247C36.4903 48.4529 41.6151 50.4444 47.3568 49.0996C44.8254 49.188 42.8203 48.3734 41.3112 46.6438C45.1922 46.5495 48.8559 44.7478 52.3058 41.2207C50.3143 42.8055 48.2304 43.4056 46.0239 43.0281C51.9999 38.3298 54.1146 32.8488 52.3679 26.585ZM41.5215 25.8623C42.006 25.8623 42.3987 25.4696 42.3987 24.9851C42.3987 24.5006 42.006 24.1079 41.5215 24.1079C41.0371 24.1079 40.6444 24.5006 40.6444 24.9851C40.6444 25.4696 41.0371 25.8623 41.5215 25.8623Z" fill="#BA2BD2"/>
</g>
<defs>
<clipPath id="clip0_1307_7781">
<rect width="66" height="66" fill="white" transform="translate(4 4)"/>
</clipPath>
</defs>
</svg>
