<svg width="74" height="74" viewBox="0 0 74 74" fill="none" xmlns="http://www.w3.org/2000/svg">
<path d="M37.2957 4L6.75488 14.8482L11.4131 55.0717L37.2957 69.3508L63.1783 55.0717L67.8365 14.8482L37.2957 4Z" fill="#DD0031"/>
<mask id="mask0_1307_7882" style="mask-type:alpha" maskUnits="userSpaceOnUse" x="6" y="4" width="62" height="66">
<path d="M37.2957 4L6.75488 14.8482L11.4131 55.0717L37.2957 69.3508L63.1783 55.0717L67.8365 14.8482L37.2957 4Z" fill="white"/>
</mask>
<g mask="url(#mask0_1307_7882)">
<path fill-rule="evenodd" clip-rule="evenodd" d="M37.2959 4V11.2539V11.2213V44.3215V69.3508L63.1785 55.0717L67.8367 14.8482L37.2959 4Z" fill="#C3002F"/>
</g>
<path d="M46.2471 34.9945L43.3174 34.3437L45.5961 37.5978V47.6857L53.4088 41.1774V30.1133L49.828 31.4149L46.2471 34.9945Z" fill="white"/>
<path d="M28.0181 34.9945L30.9478 34.3437L28.6692 37.5978V47.6857L20.8564 41.1774V30.1133L24.4373 31.4149L28.0181 34.9945Z" fill="white"/>
<path fill-rule="evenodd" clip-rule="evenodd" d="M29.6133 38.2097L32.21 34.2969L33.833 35.2751H40.3248L41.9477 34.2969L44.5444 38.2097V52.883L42.5969 55.8176L40.3248 58.1002H33.833L31.5608 55.8176L29.6133 52.883V38.2097Z" fill="white"/>
<path d="M45.5967 53.8671L49.8286 49.6367V45.4062L45.5967 48.9858V53.8671Z" fill="white"/>
<path d="M28.6684 53.8671L24.4365 49.6367V45.4062L28.6684 48.9858V53.8671Z" fill="white"/>
<path fill-rule="evenodd" clip-rule="evenodd" d="M32.9012 15.4688L30.2969 21.6517L34.5288 34.0175H36.4819V15.4688H32.9012ZM37.7841 15.4688V34.0175H40.0628L43.9692 21.6517L41.365 15.4688H37.7841Z" fill="white"/>
<path d="M34.5282 34.0178L20.5303 28.8112L18.5771 20.6758L30.6218 21.652L34.8537 34.0178H34.5282Z" fill="white"/>
<path d="M40.0619 34.0178L54.0597 28.8112L56.0129 20.6758L43.6427 21.652L39.7363 34.0178H40.0619Z" fill="white"/>
<path d="M44.6195 20.6754L51.4556 20.0246L46.8983 15.4688H42.3408L44.6195 20.6754Z" fill="white"/>
<path d="M29.6457 20.6754L22.8096 20.0246L27.367 15.4688H31.9244L29.6457 20.6754Z" fill="white"/>
</svg>
