<svg width="74" height="74" viewBox="0 0 74 74" fill="none" xmlns="http://www.w3.org/2000/svg">
<path fill-rule="evenodd" clip-rule="evenodd" d="M43.7866 14.1739C45.3804 14.647 46.9039 15.2832 48.3386 16.062L51.8591 14.2683L55.648 12.3377L58.6551 15.3448L61.6621 18.3518L59.7316 22.1406L57.9385 25.6599C58.7176 27.0951 59.3535 28.6195 59.827 30.2135L63.5807 31.4331L67.625 32.7472V36.9997V41.2523L63.5807 42.5664L59.826 43.7865C59.3527 45.3802 58.7165 46.9038 57.9379 48.3385L59.7316 51.859L61.6621 55.6479L58.6551 58.655L55.648 61.6619L51.8591 59.7314L48.3399 57.9382C46.9046 58.7174 45.3802 59.3532 43.7862 59.8267L42.5666 63.5805L41.2525 67.6247H37H32.7474L31.4334 63.5805L30.2132 59.8257C28.6195 59.3526 27.096 58.7163 25.6612 57.9376L22.1407 59.7314L18.3519 61.6619L15.3449 58.655L12.3379 55.6479L14.2684 51.859L16.0615 48.3397C15.2824 46.9045 14.6465 45.3801 14.173 43.786L10.4193 42.5664L6.375 41.2523V36.9997V32.7472L10.4193 31.4331L14.1721 30.2137C14.6455 28.6191 15.282 27.0947 16.0612 25.6594L14.2684 22.1406L12.3379 18.3518L15.3449 15.3448L18.3519 12.3377L22.1407 14.2683L25.6607 16.0618C27.0957 15.2831 28.6195 14.6471 30.2132 14.174L31.4334 10.4193L32.7474 6.375H41.2525L42.5666 10.4193L43.7868 14.174L43.7866 14.1739ZM37 21.5105C28.4454 21.5105 21.5105 28.4454 21.5105 37C21.5105 45.5546 28.4454 52.4895 37 52.4895C45.5546 52.4895 52.4895 45.5547 52.4895 37C52.4895 28.4452 45.5546 21.5105 37 21.5105ZM30.1376 31.2626L24.8421 36.5581C24.5981 36.8021 24.5981 37.1979 24.8421 37.4419L30.1376 42.7374C30.3816 42.9814 30.7774 42.9814 31.0214 42.7374C31.2654 42.4934 31.2654 42.0976 31.0214 41.8536L26.1677 37L31.0214 32.1464C31.2654 31.9024 31.2654 31.5066 31.0214 31.2626C30.7774 31.0186 30.3816 31.0186 30.1376 31.2626ZM42.9785 32.1464L47.8321 37L42.9785 41.8536C42.7345 42.0976 42.7345 42.4934 42.9785 42.7374C43.2225 42.9814 43.6182 42.9814 43.8622 42.7374L49.1577 37.4419C49.4017 37.1979 49.4017 36.8021 49.1577 36.5581L43.8622 31.2626C43.6182 31.0186 43.2225 31.0186 42.9785 31.2626C42.7345 31.5066 42.7345 31.9024 42.9785 32.1464ZM38.4625 29.1299L34.3312 44.5477C34.2422 44.8807 34.4401 45.223 34.7731 45.3119C35.1061 45.4007 35.4484 45.203 35.5372 44.87L39.6685 29.4521C39.7575 29.1191 39.5596 28.7769 39.2266 28.6879C38.8936 28.5989 38.5514 28.7967 38.4624 29.1297L38.4625 29.1299ZM37 20.2605C27.7551 20.2605 20.2606 27.755 20.2606 36.9999C20.2606 46.2448 27.7551 53.7393 37 53.7393C46.2449 53.7393 53.7394 46.2448 53.7394 36.9999C53.7394 27.755 46.2449 20.2605 37 20.2605Z" fill="url(#paint0_linear_1307_4516)"/>
<defs>
<linearGradient id="paint0_linear_1307_4516" x1="36.9999" y1="67.6249" x2="36.9999" y2="6.37488" gradientUnits="userSpaceOnUse">
<stop stop-color="#0068C0"/>
<stop offset="0.5" stop-color="#0096E9"/>
<stop offset="1" stop-color="#00CCFF"/>
</linearGradient>
</defs>
</svg>
