<svg width="74" height="74" viewBox="0 0 74 74" fill="none" xmlns="http://www.w3.org/2000/svg">
<g clip-path="url(#clip0_1307_4706)">
<path d="M60.7954 40.4505C58.4942 40.4626 56.4942 41.0149 54.8195 41.8314C54.2051 40.6187 53.5906 39.538 53.4822 38.7455C53.3617 37.8209 53.2171 37.2565 53.3617 36.1518C53.5063 35.0471 54.1569 33.4741 54.1448 33.354C54.1328 33.234 54.0002 32.6696 52.6749 32.6576C51.3496 32.6456 50.2051 32.9098 50.0725 33.258C49.94 33.6062 49.687 34.3987 49.5183 35.2152C49.2894 36.416 46.8677 40.7027 45.4822 42.9481C45.0364 42.0716 44.6508 41.3031 44.5665 40.6907C44.446 39.7661 44.3014 39.2017 44.446 38.097C44.5906 36.9923 45.2412 35.4193 45.2291 35.2993C45.2171 35.1792 45.0846 34.6148 43.7593 34.6028C42.434 34.5908 41.2894 34.855 41.1569 35.2032C41.0243 35.5514 40.8797 36.368 40.6026 37.1605C40.3255 37.953 37.1087 45.1095 36.2653 46.9587C35.8316 47.9073 35.4581 48.6638 35.193 49.1801C35.193 49.1801 35.181 49.2161 35.1448 49.2761C34.9159 49.7204 34.7834 49.9606 34.7834 49.9606C34.7834 49.9606 34.7834 49.9606 34.7834 49.9726C34.6026 50.2968 34.4099 50.597 34.3135 50.597C34.2412 50.597 34.1087 49.7324 34.3376 48.5557C34.8195 46.0701 35.9641 42.2037 35.952 42.0716C35.952 41.9995 36.1689 41.3271 35.2051 40.9789C34.2653 40.6307 33.9279 41.207 33.8436 41.207C33.7593 41.207 33.699 41.4112 33.699 41.4112C33.699 41.4112 34.7472 37.0644 31.699 37.0644C29.7954 37.0644 27.1689 39.1417 25.8677 41.0149C25.0484 41.4592 23.3014 42.4078 21.434 43.4284C20.7231 43.8247 19.9882 44.2209 19.3014 44.5932C19.2532 44.5451 19.2051 44.4851 19.1569 44.4371C15.4701 40.5106 8.65083 37.7368 8.93999 32.4655C9.04842 30.5443 9.71107 25.501 22.0364 19.3772C32.181 14.394 40.2532 15.7749 41.6508 18.8368C43.6508 23.2076 37.3255 31.3247 26.8436 32.5015C22.8436 32.9458 20.7472 31.4088 20.2171 30.8324C19.6629 30.2321 19.5785 30.196 19.3737 30.3161C19.0364 30.4962 19.2532 31.0366 19.3737 31.3488C19.687 32.1653 20.9761 33.6062 23.1569 34.3146C25.0846 34.939 29.7713 35.2873 35.446 33.1019C41.7954 30.6523 46.7593 23.844 45.3014 18.1404C43.8436 12.3527 34.205 10.4435 25.0846 13.6735C19.6629 15.5948 13.7834 18.6207 9.55445 22.5592C4.53035 27.2422 3.73517 31.3127 4.06047 33.0178C5.22915 39.0697 13.6026 43.0082 16.952 45.926C16.7834 46.0221 16.6267 46.1061 16.4942 46.1782C14.8195 47.0067 8.43396 50.3328 6.8436 53.8511C5.03637 57.8376 7.13276 60.6954 8.5183 61.0796C12.8195 62.2684 17.2412 60.131 19.6147 56.6008C21.9882 53.0706 21.699 48.4836 20.6026 46.3823C20.5906 46.3583 20.5785 46.3343 20.5544 46.3103C20.9882 46.0581 21.434 45.7939 21.8677 45.5418C22.7231 45.0375 23.5665 44.5692 24.2894 44.1849C23.8797 45.3016 23.5785 46.6345 23.434 48.5557C23.2532 50.8131 24.181 53.743 25.3978 54.8957C25.94 55.4 26.5785 55.412 26.9882 55.412C28.4099 55.412 29.0484 54.2353 29.7593 52.8424C30.6267 51.1373 31.4099 49.1561 31.4099 49.1561C31.4099 49.1561 30.434 54.5115 33.0846 54.5115C34.0484 54.5115 35.0243 53.2627 35.4581 52.6263C35.4581 52.6383 35.4581 52.6383 35.4581 52.6383C35.4581 52.6383 35.4822 52.6023 35.5304 52.5182C35.6267 52.3621 35.687 52.266 35.687 52.266C35.687 52.266 35.687 52.254 35.687 52.242C36.0725 51.5696 36.94 50.0446 38.2291 47.511C39.8918 44.2449 41.4942 40.1624 41.4942 40.1624C41.4942 40.1624 41.6388 41.159 42.1328 42.816C42.4219 43.7887 43.0243 44.8573 43.5063 45.89C43.1207 46.4303 42.8798 46.7305 42.8798 46.7305C42.8798 46.7305 42.8797 46.7305 42.8918 46.7425C42.5785 47.1508 42.2412 47.5951 41.8677 48.0274C40.5544 49.5883 38.9882 51.3775 38.7713 51.8938C38.5183 52.5062 38.5785 52.9505 39.0605 53.3107C39.4099 53.5749 40.0364 53.6109 40.6749 53.5749C41.8557 53.4908 42.687 53.2026 43.0966 53.0225C43.7352 52.7944 44.4822 52.4462 45.181 51.9298C46.4701 50.9812 47.2532 49.6244 47.181 47.8352C47.1448 46.8506 46.8195 45.866 46.4219 44.9414C46.5424 44.7733 46.6508 44.6052 46.7713 44.4371C48.8075 41.4712 50.3858 38.2171 50.3858 38.2171C50.3858 38.2171 50.5304 39.2138 51.0243 40.8708C51.2653 41.7113 51.7593 42.6239 52.193 43.5125C50.2773 45.0615 49.0966 46.8626 48.6749 48.0394C47.9159 50.2248 48.5063 51.2094 49.6267 51.4375C50.1328 51.5456 50.8557 51.3054 51.3858 51.0773C52.0605 50.8612 52.8557 50.4889 53.6147 49.9366C54.9038 48.988 56.1448 47.6671 56.0725 45.878C56.0364 45.0615 55.8195 44.257 55.5183 43.4765C57.1448 42.804 59.2412 42.4318 61.9159 42.744C67.6508 43.4164 68.7834 46.9827 68.5665 48.4836C68.3496 49.9846 67.1448 50.8011 66.7472 51.0533C66.3496 51.3054 66.2171 51.3895 66.2533 51.5696C66.3014 51.8338 66.4942 51.8218 66.8316 51.7737C67.3014 51.6897 69.8436 50.561 69.952 47.7992C70.1328 44.269 66.7593 40.4145 60.7954 40.4505ZM16.5544 55.316C14.6508 57.3813 12.0002 58.1618 10.8557 57.5014C9.62674 56.7929 10.1087 53.743 12.446 51.5576C13.8677 50.2248 15.699 48.988 16.9159 48.2315C17.193 48.0634 17.6026 47.8232 18.0966 47.523C18.181 47.475 18.2291 47.451 18.2291 47.451C18.3255 47.3909 18.4219 47.3309 18.5183 47.2709C19.3737 50.3929 18.5544 53.1426 16.5544 55.316ZM30.4099 45.926C29.7472 47.535 28.3617 51.6537 27.5183 51.4255C26.7954 51.2334 26.3496 48.1114 27.3737 45.0254C27.8918 43.4765 28.9882 41.6273 29.6267 40.9068C30.6629 39.7541 31.8075 39.3699 32.0846 39.8382C32.434 40.4505 30.8195 44.9174 30.4099 45.926ZM41.8436 51.3775C41.5665 51.5216 41.3014 51.6176 41.181 51.5456C41.0966 51.4976 41.3014 51.3054 41.3014 51.3054C41.3014 51.3054 42.7352 49.7685 43.3014 49.072C43.6267 48.6638 44.0123 48.1835 44.4219 47.6431C44.4219 47.6911 44.4219 47.7512 44.4219 47.7992C44.4219 49.6364 42.6388 50.8732 41.8436 51.3775ZM50.6629 49.3722C50.4581 49.2281 50.4942 48.7478 51.181 47.2469C51.446 46.6585 52.0725 45.6739 53.1448 44.7253C53.2653 45.1095 53.3496 45.4817 53.3376 45.83C53.3255 48.1474 51.6629 49.012 50.6629 49.3722Z" fill="#CD6799"/>
</g>
<defs>
<clipPath id="clip0_1307_4706">
<rect width="66" height="64" fill="white" transform="translate(4 5)"/>
</clipPath>
</defs>
</svg>
