<svg width="74" height="74" viewBox="0 0 74 74" fill="none" xmlns="http://www.w3.org/2000/svg">
<g clip-path="url(#clip0_1307_3592)">
<path d="M36.9994 68.4271C19.6707 68.4271 5.57227 54.33 5.57227 37.0007C5.57227 19.6713 19.6707 5.57422 36.9994 5.57422C54.328 5.57422 68.4265 19.6726 68.4265 37.0013C68.4265 54.33 54.328 68.4271 36.9994 68.4271Z" fill="#85EA2D"/>
<path d="M36.9997 7.14581C53.488 7.14581 66.8535 20.5114 66.8535 36.9997C66.8535 53.4873 53.488 66.8535 36.9997 66.8535C20.512 66.8535 7.14581 53.4873 7.14581 36.9997C7.14581 20.512 20.512 7.14581 36.9997 7.14581ZM36.9997 4C18.8036 4 4 18.8036 4 36.9997C4 55.1958 18.8036 69.9993 36.9997 69.9993C55.1958 69.9993 70 55.1958 70 36.9997C70 18.8036 55.1958 4 36.9997 4Z" fill="#173647"/>
<path d="M24.7789 26.3332C24.6774 27.4625 24.8165 28.6301 24.7413 29.7719C24.6523 30.9144 24.5124 32.0437 24.2842 33.173C23.9669 34.7845 22.9643 36.0028 21.5817 37.018C24.2723 38.7693 24.5764 41.4844 24.7539 44.2384C24.8429 45.7232 24.8047 47.2206 24.957 48.6923C25.0712 49.8341 25.5151 50.1263 26.6958 50.1639C27.178 50.1765 27.6721 50.1639 28.2315 50.1639V53.6917C24.742 54.288 21.8614 53.2985 21.1503 50.342C20.9214 49.2635 20.769 48.1593 20.7189 47.0425C20.6424 45.8624 20.769 44.6823 20.6806 43.5022C20.4267 40.2661 20.0078 39.175 16.9121 39.0226V35.0002C17.1403 34.9494 17.356 34.9111 17.5843 34.8861C19.2848 34.797 20.0078 34.2766 20.3759 32.6017C20.554 31.6631 20.6556 30.7112 20.6931 29.7468C20.8205 27.9071 20.7697 26.0291 21.0863 24.2019C21.5302 21.5752 23.1549 20.3061 25.8581 20.1537C26.6193 20.1155 27.3937 20.1537 28.2691 20.1537V23.758C27.901 23.7837 27.5837 23.8338 27.2539 23.8338C25.0586 23.7573 24.9439 24.506 24.7789 26.3332ZM29.0046 34.6829H28.9538C27.6846 34.6196 26.5936 35.609 26.5296 36.8782C26.4663 38.1598 27.4558 39.2515 28.7249 39.3142H28.8773C30.1339 39.3907 31.2117 38.4257 31.2882 37.1697V37.0431C31.314 35.7614 30.2863 34.7086 29.0046 34.6829ZM36.9611 34.6829C35.7302 34.6446 34.7019 35.609 34.6643 36.8274C34.6643 36.9039 34.6643 36.9672 34.6775 37.0431C34.6775 38.4263 35.6161 39.3149 37.0376 39.3149C38.4334 39.3149 39.3094 38.4013 39.3094 36.9672C39.2962 35.584 38.3694 34.6704 36.9611 34.6829ZM45.1083 34.6829C43.8141 34.6572 42.7349 35.6855 42.6973 36.9797C42.6973 38.274 43.7376 39.3142 45.0318 39.3142H45.0575C46.2251 39.5174 47.4052 38.3881 47.4817 37.0305C47.5443 35.7739 46.4025 34.6829 45.1083 34.6829ZM56.2878 34.8729C54.8155 34.8095 54.0794 34.3148 53.712 32.9184C53.4831 32.0305 53.3439 31.1037 53.2931 30.1901C53.1915 28.4896 53.204 26.7765 53.0899 25.0759C52.8234 21.0409 49.9052 19.6326 45.6664 20.3298V23.8325C46.3385 23.8325 46.859 23.8325 47.3794 23.8451C48.2805 23.8576 48.9659 24.2006 49.0543 25.2032C49.1433 26.1168 49.1433 27.043 49.2324 27.9698C49.4105 29.8102 49.5114 31.6749 49.8287 33.4896C50.1084 34.987 51.1361 36.1037 52.4171 37.0173C50.1717 38.5273 49.5114 40.6843 49.3973 43.1084C49.3339 44.7707 49.2957 46.4455 49.2073 48.121C49.1308 49.6435 48.5984 50.1382 47.0628 50.1765C46.6314 50.189 46.2125 50.2272 45.7303 50.253V53.844C46.6314 53.844 47.456 53.8948 48.2805 53.844C50.8438 53.6917 52.392 52.4482 52.8999 49.9607C53.1156 48.59 53.2423 47.2074 53.2805 45.8242C53.3689 44.555 53.3571 43.2733 53.4837 42.0174C53.6737 40.0504 54.5748 39.2383 56.5418 39.1117C56.7324 39.086 56.9099 39.0484 57.088 38.985V34.9619C56.7575 34.9237 56.5286 34.8861 56.2878 34.8729Z" fill="#173647"/>
</g>
<defs>
<clipPath id="clip0_1307_3592">
<rect width="66" height="66" fill="white" transform="translate(4 4)"/>
</clipPath>
</defs>
</svg>
