<svg width="80" height="80" viewBox="0 0 80 80" fill="none" xmlns="http://www.w3.org/2000/svg">
<rect x="0.5" y="0.5" width="79" height="79" rx="11.5" fill="white"/>
<rect x="0.5" y="0.5" width="79" height="79" rx="11.5" stroke="#DFDFEB"/>
<path d="M31.75 40C31.75 37.2805 32.5564 34.6221 34.0673 32.3609C35.5782 30.0997 37.7256 28.3374 40.2381 27.2967C42.7506 26.256 45.5153 25.9837 48.1825 26.5142C50.8497 27.0448 53.2997 28.3543 55.2227 30.2773C57.1457 32.2003 58.4553 34.6503 58.9858 37.3175C59.5163 39.9848 59.244 42.7494 58.2033 45.2619C57.1626 47.7744 55.4003 49.9218 53.1391 51.4327C50.8779 52.9436 48.2195 53.75 45.5 53.75H30.375C27.8223 53.75 25.3741 52.7359 23.5691 50.9309C21.7641 49.1259 20.75 46.6777 20.75 44.125C20.75 41.5723 21.7641 39.1241 23.5691 37.3191C25.3741 35.5141 27.8223 34.5 30.375 34.5C31.1803 34.4997 31.9826 34.5978 32.7641 34.7922" fill="#DAE6F9"/>
<path d="M31.75 40C31.75 37.2805 32.5564 34.6221 34.0673 32.3609C35.5782 30.0997 37.7256 28.3374 40.2381 27.2967C42.7506 26.256 45.5153 25.9837 48.1825 26.5142C50.8497 27.0448 53.2997 28.3543 55.2227 30.2773C57.1457 32.2003 58.4553 34.6503 58.9858 37.3175C59.5163 39.9848 59.244 42.7494 58.2033 45.2619C57.1626 47.7744 55.4003 49.9218 53.1391 51.4327C50.8779 52.9436 48.2195 53.75 45.5 53.75H30.375C27.8223 53.75 25.3741 52.7359 23.5691 50.9309C21.7641 49.1259 20.75 46.6777 20.75 44.125C20.75 41.5723 21.7641 39.1241 23.5691 37.3191C25.3741 35.5141 27.8223 34.5 30.375 34.5C31.1803 34.4997 31.9826 34.5978 32.7641 34.7922" stroke="#1E63EC" stroke-width="2" stroke-linecap="round" stroke-linejoin="round"/>
</svg>
