<svg width="80" height="80" viewBox="0 0 80 80" fill="none" xmlns="http://www.w3.org/2000/svg">
<rect x="0.5" y="0.5" width="79" height="79" rx="11.5" fill="white"/>
<rect x="0.5" y="0.5" width="79" height="79" rx="11.5" stroke="#DFDFEB"/>
<path d="M49.5735 29.189C50.0089 29.59 50.4214 30.0025 50.811 30.4265L55.5031 31.0968C56.2677 32.4245 56.857 33.8457 57.2563 35.3249L54.4031 39.1233C54.4031 39.1233 54.4547 40.2921 54.4031 40.8765L57.2563 44.6749C56.8588 46.1547 56.2694 47.5761 55.5031 48.903L50.811 49.5733C50.811 49.5733 50.0031 50.4155 49.5735 50.8108L48.9031 55.503C47.5754 56.2676 46.1542 56.8568 44.675 57.2561L40.8766 54.403C40.2934 54.4546 39.7067 54.4546 39.1235 54.403L35.325 57.2561C33.8452 56.8587 32.4238 56.2693 31.0969 55.503L30.4266 50.8108C30.0026 50.4098 29.5901 49.9973 29.1891 49.5733L24.4969 48.903C23.7324 47.5753 23.1431 46.1541 22.7438 44.6749L25.5969 40.8765C25.5969 40.8765 25.5453 39.7077 25.5969 39.1233L22.7438 35.3249C23.1412 33.8451 23.7306 32.4237 24.4969 31.0968L29.1891 30.4265C29.5901 30.0025 30.0026 29.59 30.4266 29.189L31.0969 24.4968C32.4246 23.7322 33.8458 23.143 35.325 22.7437L39.1235 25.5968C39.7067 25.5452 40.2934 25.5452 40.8766 25.5968L44.675 22.7437C46.1548 23.1411 47.5763 23.7305 48.9031 24.4968L49.5735 29.189Z" fill="#DAE6F9" stroke="#1E63EC" stroke-width="2" stroke-linecap="round" stroke-linejoin="round"/>
<path d="M40 48.25C44.5563 48.25 48.25 44.5563 48.25 40C48.25 35.4437 44.5563 31.75 40 31.75C35.4437 31.75 31.75 35.4437 31.75 40C31.75 44.5563 35.4437 48.25 40 48.25Z" fill="white" stroke="#1E63EC" stroke-width="2" stroke-linecap="round" stroke-linejoin="round"/>
</svg>
