<svg width="80" height="80" viewBox="0 0 80 80" fill="none" xmlns="http://www.w3.org/2000/svg">
<rect x="0.5" y="0.5" width="79" height="79" rx="11.5" fill="white"/>
<rect x="0.5" y="0.5" width="79" height="79" rx="11.5" stroke="#DFDFEB"/>
<path d="M24.875 48.25V30.375C24.875 29.6457 25.1647 28.9462 25.6805 28.4305C26.1962 27.9147 26.8957 27.625 27.625 27.625H52.375C53.1043 27.625 53.8038 27.9147 54.3195 28.4305C54.8353 28.9462 55.125 29.6457 55.125 30.375V48.25" fill="#DAE6F9"/>
<path d="M24.875 48.25V30.375C24.875 29.6457 25.1647 28.9462 25.6805 28.4305C26.1962 27.9147 26.8957 27.625 27.625 27.625H52.375C53.1043 27.625 53.8038 27.9147 54.3195 28.4305C54.8353 28.9462 55.125 29.6457 55.125 30.375V48.25" stroke="#1E63EC" stroke-width="2" stroke-linecap="round" stroke-linejoin="round"/>
<path d="M22.125 48.25H57.875V51C57.875 51.7293 57.5853 52.4288 57.0695 52.9445C56.5538 53.4603 55.8543 53.75 55.125 53.75H24.875C24.1457 53.75 23.4462 53.4603 22.9305 52.9445C22.4147 52.4288 22.125 51.7293 22.125 51V48.25Z" stroke="#1E63EC" stroke-width="2" stroke-linecap="round" stroke-linejoin="round"/>
<path d="M42.75 33.125H37.25" stroke="#1E63EC" stroke-width="2" stroke-linecap="round" stroke-linejoin="round"/>
</svg>
