<svg width="74" height="74" viewBox="0 0 74 74" fill="none" xmlns="http://www.w3.org/2000/svg">
<g clip-path="url(#clip0_1614_4895)">
<path fill-rule="evenodd" clip-rule="evenodd" d="M35.8242 29.9727V45.0267H39.5198V38.1077L40.282 38.122V45.0267H44.019V29.9727H40.282V35.5579H39.5198V29.9727H35.8242ZM48.6201 29.9727H45.02V45.0267H48.6201V29.9727ZM49.2096 29.9727L52.0462 45.0267H56.3383L59.1749 29.9727H55.3652L54.4259 36.4144C54.3477 36.661 54.0825 36.661 54.0349 36.4144L53.0934 29.9727H49.2096ZM67.0929 29.9727H59.9532V45.0267H67.0984V41.0801L63.1253 41.0462V39.3541H65.0185V35.4339H63.1253V33.92H67.0984L67.0929 29.9727Z" fill="black" stroke="#FDEE21" stroke-width="0.649"/>
<path fill-rule="evenodd" clip-rule="evenodd" d="M20.4914 28.9698C20.2804 28.391 13.0109 25.565 12.9183 25.8753C11.5835 26.2232 11.0402 27.7617 10.122 28.7362L8.08298 28.6195C7.18478 29.7745 6.71344 30.9547 7.03436 32.1813C8.1856 33.741 9.52201 35.0683 10.355 37.0272C10.4208 37.9506 14.3517 37.124 15.1943 36.9412C14.0433 37.7652 13.041 39.0421 13.4718 42.7201C13.865 44.4472 14.134 46.3756 17.6215 48.3291C18.0805 48.5863 19.0304 48.883 19.6178 49.0993C20.1797 49.3569 20.8365 49.4628 22.6896 48.8961C23.7619 48.4339 24.9197 48.1554 25.9691 47.6944L24.7078 47.7536C22.9709 47.7914 21.6297 47.921 21.2165 47.4356L19.618 44.6761L20.5499 42.866C21.8396 42.9983 22.2677 44.0442 23.4045 44.4425L24.7444 43.4499C28.6365 45.7472 30.1846 41.9939 30.6283 39.0708C30.5809 37.8814 28.0532 39.4435 28.2064 38.8877C28.2657 37.6092 27.2237 35.9366 26.5503 34.6333L27.3295 31.6182C27.6832 31.303 25.6927 27.9493 24.0674 27.531C22.6413 27.1637 20.4914 28.9698 20.4914 28.9698Z" fill="#FDEE21"/>
<path fill-rule="evenodd" clip-rule="evenodd" d="M26.8865 35.3789C26.9002 35.7028 26.8988 36.0967 26.9301 36.3424C26.9247 36.5298 26.7842 36.537 26.668 36.5759L27.4253 36.8533C27.5757 37.1062 27.6965 37.3593 27.8186 37.6124C27.9602 38.2347 27.8542 38.2526 27.7604 38.2984C27.4854 38.3012 27.2114 38.3017 26.9557 38.2473C27.0703 38.3078 27.0954 38.3519 27.1076 38.4294C27.1299 38.5722 27.038 38.7673 26.8865 38.9552C27.1104 39.0796 27.5187 39.2011 27.8221 39.3165L28.1682 38.5466C28.0114 37.4154 27.5365 36.373 26.8865 35.3789ZM28.2999 39.1732C28.7199 39.3482 29.3002 39.297 30.1048 38.8822C30.2245 38.7973 30.3358 38.848 30.1218 38.9881C29.0665 39.935 28.5614 39.4612 28.2999 39.1732Z" fill="#C8C037"/>
<path fill-rule="evenodd" clip-rule="evenodd" d="M30.1838 38.7621C30.3086 39.0009 30.233 39.1952 30.1911 39.397C30.0608 40.4235 29.7409 41.235 29.1134 42.083C27.072 45.3649 25.0111 43.3114 23.368 41.9748L22.6883 43.6779C22.6522 43.8271 22.5018 43.9434 23.5636 44.4107L24.6449 43.647C28.7688 46.7848 31.6914 39.2548 30.1838 38.7621ZM23.8652 41.6948C23.587 41.7147 22.759 41.9962 22.7221 42.1592L23.1031 41.5916L23.8652 41.6948ZM23.3241 38.2147C23.3751 38.2147 23.6199 38.2804 23.5937 38.2658C23.5561 38.2449 23.5894 38.6089 23.6664 38.7986L23.3678 39.4483C23.9398 38.7886 24.844 38.8326 25.6835 38.7475L25.283 38.4994C25.3526 38.2673 25.2707 38.0837 25.2321 37.8863L23.3241 38.2147ZM24.7294 36.2585C24.1158 36.4467 23.5285 36.754 23.1342 37.409C23.435 36.3293 23.4963 36.3702 23.5934 36.3169C24.0141 36.1287 24.3588 36.246 24.7294 36.2585Z" fill="#C8C037"/>
<path fill-rule="evenodd" clip-rule="evenodd" d="M21.4526 48.9119C20.7106 49.7306 19.0551 48.8499 17.6803 48.401C14.1867 46.1795 13.5042 44.0881 13.4565 42.0366C13.2769 39.0978 14.1793 37.3902 15.3208 36.9859C14.5653 38.4421 14.2134 41.0561 14.5634 43C14.8462 44.0815 14.852 45.9054 16.6614 46.8817C17.5475 47.3806 17.3075 47.7688 17.9066 48.236C18.5632 48.7481 20.3943 49.2347 21.4526 48.9119ZM22.561 35.3307C21.3048 33.5492 19.5378 32.8807 17.5457 32.8076C17.945 32.6774 18.3442 32.6097 18.7435 32.4172C18.8413 32.3145 18.8093 32.1336 18.7727 31.9501C16.8549 31.4492 15.6445 30.8304 14.1123 30.2567L18.2484 31.2493C21.0413 31.3555 20.8018 32.0452 22.561 35.3307ZM23.9059 34.4715C22.9775 33.1462 22.0772 31.5378 20.8553 30.5149C17.9051 29.1833 14.9866 28.1943 11.5664 27.2944L12.658 25.8906C16.2875 26.7191 19.6967 28.1055 22.75 30.3912C23.2667 31.6975 23.6113 33.0054 23.9059 34.4715ZM25.7774 32.1296C25.7774 32.1296 25.257 30.962 25.0036 30.5162C24.4157 29.8648 24.1183 28.6509 22.9146 28.0789C23.2954 28.1817 23.5561 28.0592 24.3333 28.7639L25.5577 31.0864L25.7774 32.1296ZM26.4248 34.1524C26.5449 33.1408 26.7727 31.5184 26.5113 30.877L24.3174 27.9544C24.196 27.8414 24.1086 27.688 24.0132 27.5684C25.0437 27.8355 26.1199 28.5522 27.5709 31.3817L26.4248 34.1524Z" fill="#FCF6A0"/>
<path fill-rule="evenodd" clip-rule="evenodd" d="M22.0916 34.2696C21.681 33.9461 21.3152 32.8031 20.693 32.5658C20.1174 32.5177 19.9059 32.3365 19.1486 32.4908C19.4232 32.3531 19.6826 32.1771 19.9745 32.0828C20.1723 32.0361 20.3579 32.0878 20.5465 32.1138C20.5931 32.0917 20.6236 32.0644 20.6123 32.023C19.85 31.5519 18.2861 31.5452 17.2305 31.2763C18.4557 31.3173 19.8113 31.2495 20.732 31.5449C21.4724 32.2019 21.713 33.4392 22.0916 34.2696ZM24.3364 28.7578C24.5063 28.7733 25.4211 30.2202 25.4641 30.4609C25.5401 30.9872 25.7278 31.5772 25.7781 32.1279C25.6276 31.5997 25.4634 31.0716 25.2581 30.5436C25.1978 30.3981 25.0464 30.0693 24.6247 29.6042C24.4284 29.2764 24.3863 29.0187 24.3364 28.7578ZM27.4364 36.6386H27.0448L27.4773 36.752L27.4364 36.6386ZM24.7662 36.2479C24.3727 36.1996 23.9686 36.1931 23.5753 36.2797C23.415 36.4951 23.4039 36.7143 23.3338 36.9168C23.8122 36.3896 24.0021 36.3573 24.7662 36.2479ZM30.1334 38.9688C29.9142 39.1436 29.8925 39.3082 29.245 39.5053C28.7728 39.617 28.5061 39.4277 28.2838 39.1732C28.6207 39.2697 28.6747 39.524 29.5782 39.2389L30.1334 38.9688ZM28.1709 39.0784C28.0134 39.5119 27.8434 39.9501 27.6721 40.3557C27.2642 40.8342 27.438 40.5615 26.8274 41.3045C27.0228 41.0031 27.2769 40.7134 27.41 40.3995C27.5031 40.1928 27.6196 39.9735 27.6712 39.7899C27.5093 39.709 27.1778 39.7026 27.1329 39.7316C26.5899 40.0518 26.492 40.3907 26.1719 40.7207C26.4039 40.3498 26.602 39.945 26.871 39.6112C26.9016 39.568 27.1007 39.5596 27.2232 39.534C27.0329 39.501 26.6808 39.433 26.6525 39.436C26.2984 39.5212 26.0998 39.8297 25.8369 40.0345C26.0286 39.7578 26.2052 39.4696 26.4486 39.2317C26.4726 39.2037 27.1307 39.2613 27.4716 39.3974L27.4783 39.5331L27.672 39.6112L27.8176 39.2463L28.1709 39.0784ZM23.8745 41.6913C23.7872 41.6613 23.0154 41.5626 23.0154 41.5856C22.7189 41.7965 22.674 41.9983 22.6803 42.1731C23.1737 41.6881 23.155 41.6866 23.8745 41.6913ZM23.288 38.2022C23.288 38.2022 23.8451 38.121 23.8342 38.1731C23.7938 38.3663 23.9024 38.8373 23.9143 38.7716L23.6012 39.027C24.257 38.6972 24.9473 38.7635 25.6474 38.7132C25.6474 38.7132 25.058 38.5504 25.094 38.5453C25.2255 38.5266 25.059 37.9304 25.0138 37.9175C25.1263 37.8796 25.2355 37.8509 25.3488 37.8227C24.5058 37.6021 24.0185 37.7321 23.288 38.2022Z" fill="black"/>
<path fill-rule="evenodd" clip-rule="evenodd" d="M28.1086 38.6204L27.9849 38.6824C27.9673 38.3198 27.5778 38.3464 27.2493 38.343L26.9799 38.2773C27.0621 38.3531 27.3152 38.3473 27.2129 38.5109C27.1269 38.5569 27.0874 38.754 27.0382 38.9196L26.8926 38.9269L27.6717 39.2334L27.8389 39.259L28.2394 39.0437L28.1086 38.6204Z" fill="black"/>
<path fill-rule="evenodd" clip-rule="evenodd" d="M24.4165 38.3788C24.3539 38.2548 24.0385 38.2724 23.9704 38.3526C23.9153 38.4179 23.9671 38.8362 24.0379 38.7656C24.1403 38.6755 24.2742 38.6379 24.4348 38.6452C24.455 38.5679 24.4478 38.4844 24.4165 38.3788ZM27.4411 39.002C27.4707 38.9802 27.5335 38.7706 27.5132 38.7078C27.4717 38.5598 27.1785 38.591 27.1785 38.591C27.1072 38.6331 27.0442 38.8639 27.0703 38.9402C27.0828 39.0046 27.3938 39.0253 27.4411 39.002Z" fill="white"/>
<path fill-rule="evenodd" clip-rule="evenodd" d="M14.899 46.2352L15.0844 46.2533C16.1826 46.7926 17.9911 47.5921 20.6091 47.1625L21.0199 47.8088C19.867 48.3692 18.6268 48.2403 17.465 48.2795L14.899 46.2352ZM13.3223 41.972L13.8724 44.2817C15.3454 45.2025 17.8615 46.2571 19.9588 46.172L19.4957 45.1085C15.1176 44.1788 14.747 43.0038 13.3223 41.972ZM14.6913 37.2412C14.9599 39.0311 15.3191 40.3878 16.8758 41.5247C17.8298 42.2107 18.7766 42.8939 19.9283 43.4578C19.9283 43.4578 19.8273 43.9832 19.743 43.9738C16.3155 43.5929 13.8062 40.751 13.502 39.453C13.7963 38.4573 14.2185 37.8352 14.6913 37.2412ZM16.3386 36.2271C16.7953 38.2108 17.8844 40.22 18.9671 42.0428C19.3639 42.5462 19.4677 42.7684 20.0794 43.075C20.906 43.3368 21.4905 43.27 22.0906 43.2306C21.9261 42.9263 21.78 42.6082 21.5912 42.3222C20.2478 41.2597 20.8686 40.2923 21.2255 39.6798C20.4784 39.491 19.4886 39.0898 19.3523 38.5621C19.1329 36.8554 19.2443 36.314 19.4638 35.4375C18.4524 35.6508 17.4267 35.8619 16.3386 36.2271Z" fill="black"/>
<path fill-rule="evenodd" clip-rule="evenodd" d="M12.6284 25.6887C12.2959 25.9059 11.9755 26.2165 11.6307 26.5695C11.0594 27.1608 10.6796 27.7376 10.0981 28.1653C9.9818 28.2656 9.65544 28.4271 9.24513 28.4511C9.05183 28.4607 8.92592 28.4927 8.57076 28.4481C8.25752 28.2785 7.95994 28.3888 7.66955 28.7359C7.35106 29.1936 6.94776 30.0635 6.78005 30.6107C6.43469 32.0068 7.31562 33.1571 8.16074 34.0437C8.91257 34.7781 9.346 35.2371 9.65468 35.9104C9.88839 36.3471 10.0615 36.9465 10.249 37.3666C10.3166 37.4998 10.3025 37.4992 10.4847 37.5393C10.8775 37.6232 11.4225 37.6238 11.9077 37.6655C12.1176 37.6685 12.4058 37.6606 12.6789 37.6321C13.0552 37.561 13.4974 37.4914 13.868 37.3635C14.2301 37.2744 14.5528 37.1508 14.8437 37.0372C14.8061 37.1645 14.5292 37.287 14.4252 37.4484C13.4394 38.86 13.1693 40.1155 13.3409 42.0969C13.438 42.9752 13.6396 43.7033 13.9437 44.5362C14.0828 44.9174 14.379 45.5212 14.6628 45.9221C15.507 47.1147 17.3948 48.6459 20.0229 49.2353C20.4815 49.2981 21.0018 49.2646 21.4912 49.1343C22.7884 48.7411 25.4321 47.8112 25.4321 47.8112C25.4321 47.8112 23.0854 48.0052 22.0106 47.899C21.7618 47.8601 21.4876 47.8469 21.3143 47.6773C21.2853 47.6398 21.1796 47.427 21.2478 47.4251C21.3409 47.4226 21.6081 47.3117 22.0208 47.2749C21.1401 47.18 21.1527 47.1812 21.0884 47.0208C20.9885 46.7718 20.8354 46.4314 20.6779 46.1336C21.0648 46.1666 21.9215 46.2143 22.2124 45.9143C22.2124 45.9143 21.7054 45.9728 21.2573 45.9202C21.1064 45.9025 20.849 45.8108 20.7722 45.7824C20.571 45.7041 20.4054 45.6797 20.3669 45.629C20.297 45.4511 20.2497 45.3914 20.1654 45.1532C20.0512 44.8379 20.0422 44.4861 20.0202 44.1642C20.3133 44.5255 20.6866 44.8295 21.1811 44.9848C21.1874 44.9715 21.8224 45.2609 22.2836 45.1121L22.3796 45.0812C22.3796 45.0894 22.074 45.108 21.9619 45.0525C21.024 44.6538 20.8829 44.3049 20.7314 44.1316L20.3264 43.5249C20.4496 43.2793 20.5192 43.27 20.6827 43.2677C21.1761 43.3225 21.3912 43.3648 21.6916 43.2923C21.8945 43.71 21.9493 44.1302 22.4114 44.4342C23.9509 44.8912 24.2854 44.2985 24.6582 43.7748C25.7658 44.5877 27.5691 44.8384 28.8217 43.7889C30.4137 41.9468 30.9178 39.0425 30.7767 38.8767C30.5777 38.5394 30.317 38.1915 30.0929 38.2396C29.2945 38.4576 29.0001 38.8625 28.209 38.7703C28.3031 38.7649 28.4617 38.7623 28.4628 38.7533C28.5238 38.0835 28.4579 37.7593 28.4285 37.7037C28.1884 37.1742 27.8732 36.617 27.6534 36.1994C27.5968 36.1129 27.4304 35.455 27.1517 35.195C27.032 35.0929 26.7394 34.8237 26.7394 34.8237L26.7146 35.1099C26.7146 35.1099 26.829 35.1271 26.8725 35.3044C27.0376 35.9763 27.8781 37.5652 27.9398 37.6413C28.2377 38.1222 27.97 38.7213 28.1965 39.0574C28.2183 39.1001 28.6586 39.0536 28.9998 39.0746C29.5609 38.9539 29.537 38.7066 30.022 38.6695C30.3485 38.6444 30.3813 39.2577 30.3769 39.3052C30.3161 39.9823 30.1101 40.7696 29.7949 41.4885C29.1395 42.7512 28.4053 43.8854 27.3645 44.0436C26.0948 44.2654 25.435 43.7103 24.7467 43.3568L24.4833 43.5814C23.5888 44.4721 22.5263 44.393 22.0922 43.2291C21.8756 42.7776 21.594 42.5009 21.3528 42.1136L20.0731 43.0353C19.9666 43.2538 19.8356 43.5982 19.6765 43.9831C19.5659 44.2506 19.4732 44.7101 19.4791 45.0919C19.3151 45.3714 20.0473 46.5046 20.5097 47.1939L20.9099 47.7748C21.0017 48.0129 21.2026 48.223 21.2148 48.2486C22.0737 49.3689 20.1313 49.1109 19.7301 49.0435C18.9387 48.9174 18.1645 48.5867 17.4368 48.1446L17.3106 48.0666C16.4459 47.5221 15.6502 46.8254 14.9736 46.1364C14.5702 45.6796 14.1861 44.7433 13.9024 44.0794C13.4771 42.4836 12.867 39.7174 14.52 37.6211C14.6247 37.5013 14.7378 37.3018 14.834 37.262C15.3252 36.9298 15.8585 36.7034 16.432 36.5777L16.374 36.2059C16.0877 36.2711 15.1233 36.6238 14.8506 36.7715C14.2306 36.9512 13.7163 37.1389 12.9261 37.3368C12.6692 37.3682 12.4165 37.3688 12.17 37.3353C11.6016 37.2581 10.6326 37.327 10.5708 37.2696C10.1858 36.7328 10.0801 35.771 9.72923 35.2563L9.72511 35.2511L9.72067 35.2463C9.51593 34.971 9.27728 34.7466 9.04225 34.513C8.20057 33.6772 7.47993 32.8685 7.27854 32.0115C7.22782 31.7584 7.09725 31.4962 7.16665 30.7479L7.16794 30.7442L7.16914 30.7406C7.37164 30.0413 7.70107 29.4715 8.26018 28.9C8.84202 28.9094 9.41794 28.9219 9.86654 29.0079C10.0721 29.0423 10.5004 29.0982 10.9424 29.2629C12.0613 29.6797 13.5397 30.3647 13.5397 30.3647C12.4299 29.7552 11.1891 28.9637 10.4055 28.804C10.2889 28.7875 10.2172 28.7343 10.1826 28.6414C11.3612 27.949 11.5768 27.1339 12.352 26.4025C12.7062 26.2483 12.8443 26.1696 13.1454 26.1368C15.9293 26.577 17.6816 27.6859 19.0684 28.4273C19.6311 28.7333 20.1429 28.9647 20.6311 29.2434C21.0594 29.3842 22.3516 30.3598 22.7298 30.8858C23.1141 31.697 23.3946 32.5732 23.6505 33.4184C23.8339 34.2784 23.9948 34.6272 23.9948 34.6272C23.9948 34.6272 23.8389 33.9079 23.8648 33.7786C24.0265 33.8391 24.4086 33.9584 24.567 33.9399C24.567 33.9399 23.8594 33.574 23.7667 33.2508C23.4692 32.2134 23.1708 30.5985 23.0903 30.5143C22.8635 30.2293 21.9178 29.5053 21.3377 29.1705C21.1183 29.0439 20.9997 28.9653 20.9905 28.9096C21.1757 28.7224 21.4043 28.4748 21.6098 28.3174C21.8066 28.1666 21.9853 27.9967 22.2598 27.8947C23.4648 27.352 24.1538 28.1035 24.3173 27.9513C24.3173 27.9513 24.058 27.6542 24.1732 27.7031C24.2911 27.767 24.6755 27.8423 24.7176 27.8813C25.1568 28.2248 26.3049 29.4804 26.9969 30.8053C27.1631 31.1298 27.2307 31.3435 27.1536 31.7342C27.0763 32.1254 27.0166 32.3405 26.9322 32.6016C26.856 32.7763 26.4252 33.9717 26.4269 34.1324C26.34 34.7883 26.7082 35.6096 26.7082 35.6096C26.7117 35.3866 26.6944 35.2678 26.7147 35.1084L26.7394 34.8237C26.7394 34.8237 26.7237 34.7478 26.7266 34.7178C26.7452 34.5208 26.7935 34.3552 26.8078 34.2424C26.9461 33.3857 27.1866 32.769 27.4594 32.0172C27.5405 31.8275 27.6466 31.7221 27.6412 31.5776C27.6456 31.3213 27.4163 30.9773 27.2506 30.6413C27.0833 30.3014 26.8832 29.9231 26.6212 29.5241C26.0232 28.6641 25.5133 27.9912 24.5797 27.5698C24.3186 27.4552 23.2908 27.3431 22.9358 27.4097C22.5055 27.4994 22.1349 27.5879 21.8395 27.7769C21.3748 28.0744 21.0098 28.5351 20.5814 28.8064C19.634 28.3327 19.1769 27.9782 19.0917 27.9293C18.5286 27.6277 17.8528 27.2776 17.1257 26.9454C16.777 26.6202 14.6123 25.8426 12.6295 25.6875L12.6284 25.6887ZM24.7453 43.3565C24.1615 42.9001 23.6701 42.4301 23.346 41.9466C23.2403 42.5156 22.8564 42.9208 22.5597 43.3194C22.5008 43.4125 22.4582 43.5402 22.749 43.9465C22.8274 44.0547 23.1109 44.0732 23.3024 44.0632C23.1077 43.916 22.8113 43.7602 22.7636 43.6252C23.1061 43.8582 23.4234 43.9256 23.7102 43.888C23.7759 43.8806 23.8571 43.8111 23.92 43.7042C24.0478 43.4296 24.1479 43.3634 24.2491 43.2895L24.4821 43.5814L24.7453 43.3565Z" fill="black"/>
<path d="M26.7394 34.8237C26.7394 34.8237 27.032 35.0929 27.1517 35.195C27.4304 35.455 27.5968 36.1129 27.6534 36.1994C27.8732 36.617 28.1884 37.1742 28.4285 37.7037C28.4579 37.7593 28.5238 38.0835 28.4628 38.7533C28.4617 38.7623 28.3031 38.7649 28.209 38.7703C29.0001 38.8625 29.2945 38.4576 30.0929 38.2396C30.317 38.1915 30.5777 38.5394 30.7767 38.8767C30.9178 39.0425 30.4137 41.9468 28.8217 43.7889C27.5691 44.8384 25.7658 44.5877 24.6582 43.7748C24.2854 44.2985 23.9509 44.8912 22.4114 44.4342C21.9493 44.1302 21.8945 43.71 21.6916 43.2923C21.3912 43.3648 21.1761 43.3225 20.6827 43.2677C20.5192 43.27 20.4496 43.2793 20.3264 43.5249L20.7314 44.1316C20.8829 44.3049 21.024 44.6538 21.9619 45.0525C22.074 45.108 22.3796 45.0894 22.3796 45.0812L22.2836 45.1121C21.8224 45.2609 21.1874 44.9715 21.1811 44.9848C20.6866 44.8295 20.3133 44.5255 20.0202 44.1642C20.0422 44.4861 20.0512 44.8379 20.1654 45.1532C20.2497 45.3914 20.297 45.4511 20.3669 45.629C20.4054 45.6797 20.571 45.7041 20.7722 45.7824C20.849 45.8108 21.1064 45.9025 21.2573 45.9202C21.7054 45.9728 22.2124 45.9143 22.2124 45.9143C21.9215 46.2143 21.0648 46.1666 20.6779 46.1336C20.8354 46.4314 20.9885 46.7718 21.0884 47.0208C21.1527 47.1812 21.1401 47.18 22.0208 47.2749C21.6081 47.3117 21.3409 47.4226 21.2478 47.4251C21.1796 47.427 21.2853 47.6398 21.3143 47.6773C21.4876 47.8469 21.7618 47.8601 22.0106 47.899C23.0854 48.0052 25.4321 47.8112 25.4321 47.8112C25.4321 47.8112 22.7884 48.7411 21.4912 49.1343C21.0018 49.2646 20.4815 49.2981 20.0229 49.2353C17.3948 48.6459 15.507 47.1147 14.6628 45.9221C14.379 45.5212 14.0828 44.9174 13.9437 44.5362C13.6396 43.7033 13.438 42.9752 13.3409 42.0969C13.1693 40.1155 13.4394 38.86 14.4252 37.4484C14.5292 37.287 14.8061 37.1645 14.8437 37.0372C14.5528 37.1508 14.2301 37.2744 13.868 37.3635C13.4974 37.4914 13.0552 37.561 12.6789 37.6321C12.4058 37.6606 12.1176 37.6685 11.9077 37.6655C11.4225 37.6238 10.8775 37.6232 10.4847 37.5393C10.3025 37.4992 10.3166 37.4998 10.249 37.3666C10.0615 36.9465 9.88839 36.3471 9.65468 35.9104C9.346 35.2371 8.91257 34.7781 8.16074 34.0437C7.31562 33.1571 6.43469 32.0068 6.78005 30.6107C6.94776 30.0635 7.35106 29.1936 7.66955 28.7359C7.95994 28.3888 8.25752 28.2785 8.57076 28.4481C8.92592 28.4927 9.05183 28.4607 9.24513 28.4511C9.65544 28.4271 9.9818 28.2656 10.0981 28.1653C10.6796 27.7376 11.0594 27.1608 11.6307 26.5695C11.9755 26.2165 12.2959 25.9059 12.6284 25.6887L12.6295 25.6875C14.6123 25.8426 16.777 26.6202 17.1257 26.9454C17.8528 27.2776 18.5286 27.6277 19.0917 27.9293C19.1769 27.9782 19.634 28.3327 20.5814 28.8064C21.0098 28.5351 21.3748 28.0744 21.8395 27.7769C22.1349 27.5879 22.5055 27.4994 22.9358 27.4097C23.2908 27.3431 24.3186 27.4552 24.5797 27.5698C25.5133 27.9912 26.0232 28.6641 26.6212 29.5241C26.8832 29.9231 27.0833 30.3014 27.2506 30.6413C27.4163 30.9773 27.6456 31.3213 27.6412 31.5776C27.6466 31.7221 27.5405 31.8275 27.4594 32.0172C27.1866 32.769 26.9461 33.3857 26.8078 34.2424C26.7935 34.3552 26.7452 34.5208 26.7266 34.7178C26.7237 34.7478 26.7394 34.8237 26.7394 34.8237ZM26.7394 34.8237L26.7146 35.1099C26.7146 35.1099 26.829 35.1271 26.8725 35.3044C27.0376 35.9763 27.8781 37.5652 27.9398 37.6413C28.2377 38.1222 27.97 38.7213 28.1965 39.0574C28.2183 39.1001 28.6586 39.0536 28.9998 39.0746C29.5609 38.9539 29.537 38.7066 30.022 38.6695C30.3485 38.6444 30.3813 39.2577 30.3769 39.3052C30.3161 39.9823 30.1101 40.7696 29.7949 41.4885C29.1395 42.7512 28.4053 43.8854 27.3645 44.0436C26.0948 44.2654 25.435 43.7103 24.7467 43.3568L24.4833 43.5814C23.5888 44.4721 22.5263 44.393 22.0922 43.2291C21.8756 42.7776 21.594 42.5009 21.3528 42.1136L20.0731 43.0353C19.9666 43.2538 19.8356 43.5982 19.6765 43.9831C19.5659 44.2506 19.4732 44.7101 19.4791 45.0919C19.3151 45.3714 20.0473 46.5046 20.5097 47.1939L20.9099 47.7748C21.0017 48.0129 21.2026 48.223 21.2148 48.2486C22.0737 49.3689 20.1313 49.1109 19.7301 49.0435C18.9387 48.9174 18.1645 48.5867 17.4368 48.1446L17.3106 48.0666C16.4459 47.5221 15.6502 46.8254 14.9736 46.1364C14.5702 45.6796 14.1861 44.7433 13.9024 44.0794C13.4771 42.4836 12.867 39.7174 14.52 37.6211C14.6247 37.5013 14.7378 37.3018 14.834 37.262C15.3252 36.9298 15.8585 36.7034 16.432 36.5777L16.374 36.2059C16.0877 36.2711 15.1233 36.6238 14.8506 36.7715C14.2306 36.9512 13.7163 37.1389 12.9261 37.3368C12.6692 37.3682 12.4165 37.3688 12.17 37.3353C11.6016 37.2581 10.6326 37.327 10.5708 37.2696C10.1858 36.7328 10.0801 35.771 9.72923 35.2563L9.72511 35.2511L9.72067 35.2463C9.51593 34.971 9.27728 34.7466 9.04225 34.513C8.20057 33.6772 7.47993 32.8685 7.27854 32.0115C7.22782 31.7584 7.09725 31.4962 7.16665 30.7479L7.16794 30.7442L7.16914 30.7406C7.37164 30.0413 7.70107 29.4715 8.26018 28.9C8.84202 28.9094 9.41794 28.9219 9.86654 29.0079C10.0721 29.0423 10.5004 29.0982 10.9424 29.2629C12.0613 29.6797 13.5397 30.3647 13.5397 30.3647C12.4299 29.7552 11.1891 28.9637 10.4055 28.804C10.2889 28.7875 10.2172 28.7343 10.1826 28.6414C11.3612 27.949 11.5768 27.1339 12.352 26.4025C12.7062 26.2483 12.8443 26.1696 13.1454 26.1368C15.9293 26.577 17.6816 27.6859 19.0684 28.4273C19.6311 28.7333 20.1429 28.9647 20.6311 29.2434C21.0594 29.3842 22.3516 30.3598 22.7298 30.8858C23.1141 31.697 23.3946 32.5732 23.6505 33.4184C23.8339 34.2784 23.9948 34.6272 23.9948 34.6272C23.9948 34.6272 23.8389 33.9079 23.8648 33.7786C24.0265 33.8391 24.4086 33.9584 24.567 33.9399C24.567 33.9399 23.8594 33.574 23.7667 33.2508C23.4692 32.2134 23.1708 30.5985 23.0903 30.5143C22.8635 30.2293 21.9178 29.5053 21.3377 29.1705C21.1183 29.0439 20.9997 28.9653 20.9905 28.9096C21.1757 28.7224 21.4043 28.4748 21.6098 28.3174C21.8066 28.1666 21.9853 27.9967 22.2598 27.8947C23.4648 27.352 24.1538 28.1035 24.3173 27.9513C24.3173 27.9513 24.058 27.6542 24.1732 27.7031C24.2911 27.767 24.6755 27.8423 24.7176 27.8813C25.1568 28.2248 26.3049 29.4804 26.9969 30.8053C27.1631 31.1298 27.2307 31.3435 27.1536 31.7342C27.0763 32.1254 27.0166 32.3405 26.9322 32.6016C26.856 32.7763 26.4252 33.9717 26.4269 34.1324C26.34 34.7883 26.7082 35.6096 26.7082 35.6096C26.7117 35.3866 26.6944 35.2678 26.7147 35.1084L26.7394 34.8237ZM24.7453 43.3565C24.1615 42.9001 23.6701 42.4301 23.346 41.9466C23.2403 42.5156 22.8564 42.9208 22.5597 43.3194C22.5008 43.4125 22.4582 43.5402 22.749 43.9465C22.8274 44.0547 23.1109 44.0732 23.3024 44.0632C23.1077 43.916 22.8113 43.7602 22.7636 43.6252C23.1061 43.8582 23.4234 43.9256 23.7102 43.888C23.7759 43.8806 23.8571 43.8111 23.92 43.7042C24.0478 43.4296 24.1479 43.3634 24.2491 43.2895L24.4821 43.5814L24.7453 43.3565Z" stroke="black" stroke-width="0.00506696"/>
</g>
<defs>
<clipPath id="clip0_1614_4895">
<rect width="74" height="74" fill="white"/>
</clipPath>
</defs>
</svg>
