<svg width="74" height="74" viewBox="0 0 74 74" fill="none" xmlns="http://www.w3.org/2000/svg">
<g clip-path="url(#clip0_1614_8600)">
<g clip-path="url(#clip1_1614_8600)">
<path d="M67.6904 37.4221C67.6263 37.285 67.5974 37.2161 67.5629 37.1503C66.6356 35.3863 65.7107 33.6223 64.7739 31.8583C64.68 31.6815 64.6919 31.5771 64.8204 31.4245C66.2959 29.701 67.7524 27.968 69.2303 26.2517C69.2825 26.1912 69.329 26.127 69.3486 26.0191C68.9195 26.1309 68.4904 26.2415 68.0589 26.3552C66.2783 26.8272 64.4833 27.2968 62.7193 27.7759C62.5536 27.8205 62.4785 27.7721 62.3951 27.6343C61.3844 25.9442 60.3665 24.2494 59.3439 22.5807C59.2917 22.4932 59.2347 22.4084 59.1231 22.3352C59.0411 22.7857 58.9582 23.2339 58.8776 23.6844C58.594 25.2744 58.3103 26.8548 58.029 28.4519C57.9982 28.6233 57.9563 28.7952 57.9415 28.9668C57.9275 29.1308 57.8428 29.1914 57.6936 29.2386C55.5935 29.8989 53.4982 30.564 51.4004 31.229C51.3084 31.2579 51.2181 31.296 51.1192 31.3854C52.8355 32.0672 54.5518 32.7489 56.2919 33.4426C56.2285 33.4929 56.1866 33.532 56.1401 33.5618C55.0674 34.2555 53.9923 34.9491 52.922 35.6452C52.7935 35.7291 52.692 35.741 52.5478 35.6759C51.2653 35.0991 49.9733 34.5317 48.6861 33.9596C48.1092 33.7022 47.5919 33.3613 47.189 32.8655C46.2761 31.7499 46.4572 30.4817 47.673 29.6951C48.071 29.44 48.524 29.2517 48.9745 29.1039C51.0317 28.4341 53.0984 27.7881 55.1485 27.1397C55.3215 27.0846 55.4011 27.0074 55.4345 26.8202C55.711 25.2279 55.9947 23.626 56.2831 22.0527C56.4366 21.2017 56.5177 20.3316 56.9315 19.5497C57.09 19.2494 57.2795 18.9562 57.5084 18.7059C58.3284 17.7953 59.4702 17.7619 60.3451 18.6277C60.6383 18.9209 60.8886 19.2642 61.1055 19.6194C62.059 21.176 62.9982 22.7421 63.9422 24.3154C64.053 24.5006 64.1527 24.5378 64.357 24.4839C66.6573 23.8665 68.9576 23.2587 71.2699 22.6508C71.7466 22.5252 72.2258 22.4796 72.7145 22.5709C73.7752 22.7693 74.2401 23.5769 73.8801 24.6043C73.7173 25.0715 73.4343 25.4648 73.1173 25.8391C71.5106 27.7294 69.8992 29.6293 68.3021 31.5125C68.1707 31.6669 68.1681 31.7771 68.2592 31.9511C69.2222 33.7651 70.1757 35.5744 71.1435 37.4099C71.3726 37.8438 71.5488 38.2967 71.5536 38.7949C71.5648 39.9295 70.7335 40.8592 69.606 41.0261C68.9743 41.1183 68.3879 40.9834 67.7943 40.8008C66.3522 40.3551 64.91 39.9164 63.4559 39.4802C63.3217 39.4402 63.2704 39.387 63.2464 39.2428C63.0804 38.2249 62.8983 37.2094 62.7219 36.1916C62.7174 36.1637 62.7257 36.1339 62.7305 36.0714C64.3777 36.5267 66.0201 36.9749 67.7126 37.4445" fill="#E25A1C"/>
<path d="M57.1738 33.8978L56.6422 37.9592C56.4652 39.309 56.2882 40.6558 56.1106 42.0027L56.1525 42.0315C58 39.9862 59.8474 37.9314 61.7306 35.8575L61.8786 36.7109L62.0757 37.8683C62.1417 38.2544 62.2088 38.6406 62.2791 39.0256C62.3079 39.181 62.266 39.2759 62.1627 39.3855C60.9685 40.6346 59.779 41.8885 58.5871 43.1519C58.5349 43.2069 58.4855 43.2637 58.4259 43.329L58.4982 43.4466C58.5101 43.4656 58.5222 43.4841 58.5349 43.5021L60.586 46.3864L64.685 52.1551C64.7222 52.2073 64.7761 52.2483 64.8218 52.2948L64.8217 52.3232L64.049 52.3216C63.0086 52.3192 61.9689 52.316 60.9201 52.3206C60.7477 52.3206 60.6507 52.2712 60.5554 52.1249C59.0155 49.7792 57.4565 47.4288 55.9309 45.0927L55.8605 44.9902C55.8281 44.9439 55.7904 44.8908 55.7418 44.821L55.125 49.5145C55.0023 50.4467 54.8798 51.3764 54.7573 52.306H51.3485L51.4066 51.8153C51.4257 51.6535 51.4451 51.4932 51.4661 51.3334C51.7146 49.4205 51.9658 47.5209 52.2166 45.6146L52.4672 43.7054C52.7867 41.2739 53.1037 38.8425 53.4279 36.4111C53.4372 36.3393 53.4856 36.247 53.5442 36.2089C54.717 35.4437 55.8946 34.6857 57.0722 33.9276C57.0891 33.9164 57.1132 33.9155 57.1738 33.8978ZM51.7037 38.5467L51.7187 38.5688L51.4076 40.9264C51.3731 41.1886 51.3385 41.4514 51.304 41.7154L50.1578 41.7141C49.9052 41.714 49.6534 41.7146 49.4017 41.7164C48.8916 41.7202 48.4268 42.0501 48.2718 42.5269C48.2122 42.713 48.19 42.913 48.1638 43.1085L47.2103 50.3552C47.1302 50.9654 47.053 51.5756 46.9729 52.1954H43.8025L43.9407 51.1C43.9522 51.0097 43.9638 50.9196 43.9755 50.8295L44.2848 48.4744C44.3881 47.6901 44.4916 46.9082 44.5953 46.1335C44.7751 44.7771 44.9362 43.416 45.1483 42.0572C45.432 40.2456 47.2341 38.6246 49.0577 38.5531C49.9302 38.515 50.805 38.5467 51.7037 38.5467ZM24.8906 39.2101C26.483 40.2351 27.3936 41.7369 27.6081 43.5962C27.9037 46.2422 26.9287 48.4353 25.0575 50.2708C23.8227 51.465 22.34 52.2231 20.6475 52.4805C18.9232 52.7402 17.2999 52.4633 15.8431 51.4741L15.7608 51.4174C15.7067 51.3792 15.648 51.3458 15.555 51.2872L15.5331 51.2505L15.313 52.8998L15.2423 53.4364C15.1176 54.3852 14.992 55.3363 14.8728 56.2969C14.859 56.4078 14.8254 56.4488 14.7062 56.4479C13.7694 56.4443 12.8325 56.4498 11.8933 56.4479C11.8719 56.4479 11.8504 56.4404 11.8001 56.4257L11.9129 55.5276C11.9319 55.3779 11.951 55.2282 11.9706 55.0788C12.1772 53.5055 12.383 51.9323 12.5927 50.359C12.8335 48.5568 13.0218 46.7595 13.3293 44.9716C13.8728 41.8012 16.5712 39.0837 19.7178 38.3924C21.5462 37.9967 23.2935 38.18 24.8906 39.2101ZM9.59848 33.3157C11.0693 33.3689 12.2445 34.0571 13.1503 35.2013C13.285 35.3705 13.4155 35.5428 13.5466 35.7186L13.9393 36.2479L10.8848 38.5235C10.721 38.2661 10.5749 38.0087 10.4032 37.7679C9.96225 37.1505 9.41398 36.6904 8.6178 36.6356C7.95511 36.5889 7.38778 36.8068 6.93724 37.2959C6.53439 37.7321 6.48195 38.3543 6.8581 38.8477C7.27288 39.3912 7.7258 39.9061 8.19063 40.4091C8.41062 40.6475 8.63333 40.8831 8.85704 41.1178L9.52946 41.8209C9.86545 42.1728 10.1998 42.5266 10.5267 42.8882C11.2204 43.651 11.7758 44.5044 11.9475 45.5581C12.1515 46.7976 11.9038 47.9657 11.3181 49.0622C10.2335 51.0765 8.52913 52.2564 6.26455 52.614C5.26813 52.7749 4.27648 52.7435 3.30867 52.4574C2.01905 52.0784 1.12037 51.2321 0.543499 50.0498C0.339687 49.6279 0.18355 49.1821 0 48.7292L3.33728 46.9437L3.39872 47.096C3.41163 47.1274 3.42462 47.1574 3.43883 47.1869C3.47682 47.2627 3.51345 47.3394 3.5496 47.4165L3.65752 47.6483C3.76581 47.8798 3.87792 48.1089 4.01808 48.3192C4.71653 49.3561 5.84166 49.6708 6.97396 49.1583C7.26716 49.026 7.55083 48.8412 7.79159 48.6267C8.52579 47.9735 8.66405 47.0629 8.12055 46.2429C7.80827 45.7709 7.41734 45.3466 7.03593 44.9247C6.12533 43.914 5.17659 42.9342 4.2946 41.8973C3.68197 41.1869 3.26481 40.3622 3.13132 39.4182C2.9871 38.3789 3.19473 37.4015 3.73441 36.5338C5.07648 34.3622 7.02401 33.2442 9.59848 33.3157ZM20.093 41.3841C18.0645 41.8553 16.5994 43.4373 16.3815 45.5063L16.3743 45.5795C16.217 47.129 17.0513 48.6307 18.6008 49.179C19.8499 49.6295 21.0561 49.4412 22.1764 48.7714C23.6568 47.8846 24.4577 46.5664 24.5602 44.6951H24.5438C24.4916 44.4305 24.4544 44.0396 24.3361 43.6749C23.764 41.9133 21.9595 40.9574 20.093 41.3841ZM38.8559 47.7745L38.8464 47.794C38.675 49.1027 38.5127 50.3447 38.3458 51.5842C38.3365 51.6476 38.2871 51.7332 38.234 51.7575C35.6834 52.9351 32.3461 52.7706 30.2722 50.4012C29.1518 49.1282 28.6822 47.6121 28.7514 45.9435C28.9142 42.058 32.1363 38.6492 35.998 38.1724C38.2507 37.8959 40.2173 38.5038 41.7429 40.2558C42.7822 41.4477 43.2637 42.878 43.1922 44.4513C43.1496 45.404 43.0091 46.3507 42.8866 47.2932L42.8537 47.5502C42.6702 49.0138 42.4699 50.4822 42.2769 51.9363L42.2667 51.9989C42.261 52.0313 42.2544 52.066 42.2471 52.1058H39.2197L39.2985 51.441C39.3119 51.3311 39.3255 51.2214 39.3398 51.1118C39.5596 49.4217 39.8023 47.7268 39.9954 46.0343C40.1155 44.9807 40.0399 43.9342 39.5567 42.9593C39.0442 41.9223 38.1861 41.3717 37.0538 41.2525C34.7129 41.0046 32.477 42.6303 32.0002 44.9235C31.6712 46.4443 32.1902 47.9032 33.4019 48.7137C34.5818 49.4979 35.8333 49.5003 37.1205 48.9926C37.7737 48.7351 38.3267 48.3251 38.8559 47.7745Z" fill="#3C3A3E"/>
<path d="M18.1787 33.9913H18.963L18.7775 32.8041L18.1787 33.9913ZM19.0879 34.7588H17.783L17.3683 35.5717H16.4434L18.4815 31.7577H19.373L20.0667 35.5717H19.2109L19.0879 34.7588ZM23.7568 32.5372H23.2919L23.1356 33.4168H23.6004C23.8817 33.4168 24.1034 33.2325 24.1034 32.8852C24.1034 32.6661 23.9767 32.5486 23.7846 32.538L23.7568 32.5372ZM22.6269 31.7624L23.8521 31.7696C24.491 31.7696 24.9367 32.151 24.9367 32.8041C24.9367 33.6289 24.3551 34.182 23.5255 34.182H22.9987L22.7508 35.5765H21.9546L22.6269 31.7624ZM27.6423 33.9913H28.4266L28.2414 32.8041L27.6423 33.9913ZM28.5491 34.7588H27.2442L26.8294 35.5717H25.9045L27.9427 31.7577H28.8342L29.5279 35.5717H28.6721L28.5491 34.7588ZM33.6032 35.4439L33.6017 35.4453C33.3324 35.5684 33.0368 35.6418 32.7388 35.6418C31.7305 35.6418 31.0988 34.8861 31.0988 33.9398C31.0988 32.7288 32.1166 31.7109 33.3276 31.7109C33.6303 31.7109 33.9045 31.7836 34.1285 31.9064L34.0167 32.8194C33.8492 32.6342 33.5781 32.5047 33.2444 32.5047C32.5507 32.5047 31.9333 33.1317 31.9333 33.8587C31.9333 34.4117 32.2814 34.8456 32.8296 34.8456C33.1657 34.8456 33.4899 34.7162 33.7092 34.5381L33.6032 35.4439ZM38.61 34.0389H36.9509L36.6816 35.5717H35.8878L36.56 31.7577H37.3562L37.0892 33.2642H38.7459L39.0153 31.7577H39.8114L39.1392 35.5717H38.3431L38.61 34.0389ZM41.4694 35.5598L42.1404 31.7505H44.2524L44.1182 32.5181H42.8024L42.6682 33.257H43.8767L43.7425 34.0246H42.534L42.3997 34.7922H43.7156L43.5814 35.5598H41.4694Z" fill="#3C3A3E"/>
</g>
</g>
<defs>
<clipPath id="clip0_1614_8600">
<rect width="74" height="74" fill="white"/>
</clipPath>
<clipPath id="clip1_1614_8600">
<rect width="74" height="74" fill="white"/>
</clipPath>
</defs>
</svg>
