<svg width="74" height="74" viewBox="0 0 74 74" fill="none" xmlns="http://www.w3.org/2000/svg">
<g clip-path="url(#clip0_1614_4735)">
<g clip-path="url(#clip1_1614_4735)">
<path d="M5.71901 29.8872V32.4145H5.79775C6.29954 31.4232 7.07916 30.6069 8.03716 30.0698C9.00869 29.561 10.0883 29.3053 11.18 29.3253C12.9086 29.3253 14.2378 29.8067 15.1675 30.7694C16.0973 31.7322 16.5621 33.2966 16.5618 35.4627V51.4687H11.139V36.5861C11.139 35.4629 10.9557 34.6813 10.5891 34.2414C10.3607 34.0042 10.0837 33.8217 9.77787 33.7072C9.47208 33.5928 9.14517 33.5491 8.8208 33.5794C6.9085 33.5794 5.95248 34.7695 5.95274 37.1497V51.4695H0.533203V29.8872H5.71901Z" fill="#728E9B"/>
<path d="M25.6272 22.5078H20.2051V27.2413H25.6272V22.5078Z" fill="#728E9B"/>
<path d="M25.6272 29.8867H20.2051V51.4685H25.6272V29.8867Z" fill="#728E9B"/>
<path d="M62.477 51.7819C61.0832 51.7819 59.7029 51.5016 58.4153 50.9569C57.1275 50.4122 55.9574 49.614 54.9718 48.6076C53.9864 47.6012 53.2044 46.4065 52.6711 45.0917C52.1378 43.7768 51.8633 42.3675 51.8633 40.9444C51.8633 35.7943 55.8168 30.8535 58.5213 27.2497C59.983 25.3124 61.2703 23.2441 62.3671 21.07C62.3771 21.049 62.393 21.0313 62.4123 21.0189C62.4319 21.0066 62.4544 21 62.4774 21C62.5003 21 62.5228 21.0066 62.5422 21.0189C62.5617 21.0313 62.5774 21.049 62.5876 21.07C63.6846 23.2442 64.9719 25.3127 66.4337 27.2501C69.1374 30.8539 73.0921 35.7918 73.0921 40.9447H66.615C66.5489 40.9447 66.4855 40.9717 66.4386 41.0195C66.392 41.0672 66.3657 41.1319 66.3657 41.1993V44.9159H62.7267C62.6606 44.9159 62.5972 44.9427 62.5503 44.9904C62.5036 45.0382 62.4774 45.1028 62.4774 45.1705L62.477 51.7819Z" fill="#728E9B"/>
<path d="M66.6249 49.1517V45.6133H63.4075C63.3747 45.6133 63.3423 45.6198 63.312 45.6327C63.2819 45.6453 63.2544 45.6642 63.2311 45.6878C63.2081 45.7114 63.1897 45.7394 63.1772 45.7704C63.1647 45.8013 63.1582 45.8344 63.1582 45.8679V49.1521L66.6249 49.1517Z" fill="#728E9B"/>
<path d="M63.1586 52.6854C64.3436 52.6631 65.5162 52.433 66.6249 52.0052V50.2227H63.4075C63.3747 50.2227 63.3423 50.2294 63.312 50.242C63.2819 50.2549 63.2544 50.2736 63.2311 50.2972C63.2081 50.321 63.1897 50.349 63.1772 50.3798C63.1647 50.4106 63.1582 50.4438 63.1582 50.4772L63.1586 52.6854Z" fill="#728E9B"/>
<path d="M70.5129 45.1792V41.6406H67.2962C67.2301 41.6406 67.1667 41.6676 67.12 41.7153C67.0731 41.7631 67.0469 41.8277 67.0469 41.8952V45.1792H70.5129Z" fill="#728E9B"/>
<path d="M70.9297 49.5758L70.9339 49.5715C71.0685 49.4315 71.1434 49.2428 71.1422 49.0465V46.25H67.6758V49.7893H70.4143C70.6071 49.7907 70.7924 49.7139 70.9297 49.5758Z" fill="#728E9B"/>
<path d="M67.9102 52.7137C68.8364 52.3078 69.6995 51.766 70.4727 51.1055H67.9102V52.7137Z" fill="#728E9B"/>
<path d="M73.3064 45.1792C73.7263 44.0476 73.952 42.8505 73.9737 41.6406H71.5625V45.1792H73.3064Z" fill="#728E9B"/>
<path d="M72.4258 49.1091C73.0726 48.3196 73.6029 47.4382 74 46.4922H72.4258V49.1091Z" fill="#728E9B"/>
<path d="M72.4258 49.1091C73.0726 48.3196 73.6029 47.4382 74 46.4922H72.4258V49.1091Z" fill="#728E9B"/>
<path d="M1.89701 23.0234L2.87381 26.7918H2.09836L1.92775 25.9963H0.943581L0.77299 26.7918H0L0.976798 23.0234H1.89701ZM1.79899 25.372L1.44223 23.6779H1.43198L1.07521 25.372H1.79899Z" fill="#B9C6CD"/>
<path d="M4.60554 23.0201C4.77015 23.0147 4.93375 23.0481 5.08369 23.1177C5.20608 23.1771 5.31321 23.2648 5.39658 23.3739C5.47682 23.4813 5.53486 23.6042 5.56717 23.7352C5.60165 23.8706 5.619 24.0099 5.61885 24.1498C5.62232 24.3227 5.59337 24.4946 5.53354 24.6564C5.48272 24.7917 5.40122 24.9128 5.2957 25.0098C5.18847 25.1045 5.06263 25.1748 4.92663 25.2158C4.77054 25.263 4.60839 25.286 4.44561 25.284H4.04744V26.7885H3.30273V23.0201H4.60554ZM4.37795 24.7247C4.44378 24.7275 4.5095 24.7168 4.57122 24.6932C4.63292 24.6696 4.68935 24.6336 4.73717 24.5873C4.78689 24.5291 4.82465 24.4612 4.84817 24.3878C4.87169 24.3143 4.88054 24.2368 4.87414 24.1598C4.88466 24.0059 4.8428 23.8529 4.75564 23.7269C4.70447 23.6733 4.64213 23.6322 4.57328 23.6066C4.50441 23.581 4.43078 23.5716 4.35785 23.5791H4.04784V24.7242L4.37795 24.7247Z" fill="#B9C6CD"/>
<path d="M7.46034 23.0234L8.43712 26.7918H7.66086L7.49027 25.9963H6.50609L6.3355 26.7918H5.5625L6.5393 23.0234H7.46034ZM7.36232 25.372L7.00555 23.6779H6.9953L6.63855 25.372H7.36232Z" fill="#B9C6CD"/>
<path d="M10.2736 23.6943C10.2399 23.6315 10.1888 23.5803 10.1268 23.5469C10.0647 23.5136 9.99443 23.4996 9.92466 23.5067C9.84148 23.5034 9.75988 23.5306 9.69461 23.5833C9.62478 23.6502 9.57538 23.7363 9.55231 23.8312C9.51243 23.9776 9.48808 24.1279 9.47972 24.2796C9.46579 24.4644 9.45895 24.6905 9.45923 24.9579C9.45671 25.1888 9.46616 25.4197 9.48753 25.6496C9.49822 25.7895 9.52775 25.9271 9.57527 26.0587C9.60219 26.1391 9.65495 26.2079 9.72495 26.2538C9.78954 26.2884 9.86162 26.3056 9.93451 26.3041C9.9973 26.3045 10.0596 26.2929 10.1182 26.2697C10.1807 26.2417 10.2324 26.1934 10.2654 26.1324C10.3143 26.0422 10.3476 25.944 10.3638 25.8422C10.391 25.6793 10.4033 25.5142 10.4004 25.349H11.1446C11.1454 25.5434 11.1297 25.7376 11.0979 25.9293C11.0715 26.0994 11.0127 26.2626 10.9248 26.4096C10.8379 26.549 10.7143 26.6606 10.5681 26.7316C10.3803 26.816 10.1761 26.8557 9.971 26.8476C9.74107 26.8583 9.51209 26.8111 9.30422 26.7102C9.14082 26.621 9.00815 26.4827 8.92407 26.3141C8.83027 26.1208 8.77242 25.9114 8.75348 25.6965C8.72649 25.4335 8.71363 25.1692 8.71493 24.9048C8.71379 24.6413 8.72665 24.3779 8.75348 24.1159C8.77228 23.9002 8.83013 23.6899 8.92407 23.4958C9.00931 23.3261 9.14151 23.1858 9.30422 23.0922C9.51052 22.9859 9.7402 22.9359 9.971 22.9469C10.188 22.9361 10.4041 22.9814 10.5992 23.0788C10.7418 23.1561 10.8609 23.2719 10.9433 23.4137C11.0189 23.5485 11.0673 23.6975 11.0856 23.8517C11.1039 23.9978 11.1135 24.1449 11.1143 24.2922H10.3696C10.3816 24.0881 10.3488 23.8838 10.2736 23.6943Z" fill="#B9C6CD"/>
<path d="M12.4826 23.0234V24.4642H13.3511V23.0234H14.0954V26.7918H13.3511V25.117H12.4826V26.7918H11.7383V23.0234H12.4826Z" fill="#B9C6CD"/>
<path d="M16.8459 23.6465H15.5275V24.5333H16.768V25.1559H15.5275V26.1692H16.8972V26.7918H14.7832V23.0234H16.8455L16.8459 23.6465Z" fill="#B9C6CD"/>
<path d="M28.2578 33.6579V29.8871H31.0078V27.4405C30.9861 26.6069 31.1195 25.7766 31.4005 24.9936C31.6315 24.3689 32.0174 23.8161 32.52 23.3891C33.0451 22.9683 33.6559 22.6735 34.3077 22.5266C35.0806 22.3454 35.8717 22.258 36.6647 22.2661C37.6333 22.2661 38.6023 22.3062 39.5717 22.3863V26.3176C39.3901 26.2864 39.2059 26.2723 39.0218 26.2757H38.5109C37.9451 26.2223 37.3781 26.3635 36.9001 26.6768C36.7298 26.8475 36.599 27.055 36.5174 27.284C36.4357 27.513 36.4054 27.7578 36.4285 28.0004V29.8845H39.5717V33.6558H36.4285V51.4686H31.0073V33.6579H28.2578Z" fill="#B9C6CD"/>
<path d="M48.2184 22.5078H42.7969V27.2413H48.2184V22.5078Z" fill="#B9C6CD"/>
<path d="M48.2184 29.8867H42.7969V51.4686H48.2184V29.8867Z" fill="#B9C6CD"/>
<path d="M60.1399 26.2461C59.9438 26.5254 59.751 26.8068 59.5542 27.0835C58.9326 27.9595 58.2777 28.8098 57.6367 29.6711C57.8876 29.7066 58.1396 29.7459 58.3924 29.7892C58.9255 28.8752 59.4717 27.967 59.9839 27.0396C60.1275 26.78 60.2681 26.5179 60.41 26.2566C60.5224 26.0518 60.2616 26.0723 60.1399 26.2461Z" fill="#B9C6CD"/>
<path d="M57.6104 31.1581C57.7049 30.9906 57.8025 30.8231 57.8976 30.6527C57.6104 30.5957 57.3234 30.543 57.0364 30.4961H57.0336C56.1246 31.7385 55.2944 33.0392 54.5484 34.3901C53.2141 36.8605 52.2886 39.6218 52.7138 42.4712C53.0756 44.8401 54.248 47.0014 56.0228 48.5712C56.4 48.9042 56.8017 49.2073 57.2242 49.4777C57.251 49.4947 57.2829 49.501 57.3137 49.4954C57.3447 49.4897 57.3726 49.4726 57.392 49.4474C57.4113 49.4221 57.4209 49.3904 57.4187 49.3585C57.4166 49.3264 57.4029 49.2963 57.3805 49.2739C56.0066 47.9192 55.0152 46.2117 54.51 44.331C53.7156 41.3399 54.3759 38.2744 55.5069 35.4691C56.119 33.9886 56.8216 32.5487 57.6104 31.1581Z" fill="#B9C6CD"/>
</g>
</g>
<defs>
<clipPath id="clip0_1614_4735">
<rect width="74" height="74" fill="white"/>
</clipPath>
<clipPath id="clip1_1614_4735">
<rect width="74" height="74" fill="white"/>
</clipPath>
</defs>
</svg>
