<svg width="74" height="74" viewBox="0 0 74 74" fill="none" xmlns="http://www.w3.org/2000/svg">
<g clip-path="url(#clip0_1614_4583)">
<path d="M28.6722 22.4749L24.1686 23.2065L20.0595 25.0081L16.5693 27.2034L13.2479 31.2564L11.3717 33.2437L9.55708 33.9126L9.07738 32.7397L9.9164 31.5287L10.1048 29.8207L10.6668 29.8435L11.2809 30.4036L11.1153 28.6637L10.4345 28.207L10.4554 27.5439L8.84295 28.4562L7.38293 30.179L7.07812 31.7186L7.70283 32.9516L8.28519 35.0461L9.4695 35.6068L10.7155 35.5457L11.8969 34.8593L11.1086 38.8563L11.8969 43.3032L11.0293 45.3567L8.18782 48.4181L8.69293 50.2472L10.0392 52.3666L12.5771 54.1526L13.9234 54.337L15.4202 54.3878L14.4862 58.2212L17.9203 59.6283L22.1985 60.1913L23.6619 59.2346L23.7746 56.6447L25.4074 53.9427L25.5199 51.8035L29.4604 52.085L33.1195 51.7474L29.4604 53.9427L30.0799 56.5886L32.3876 60.1913L34.6396 61.1484L36.4409 60.4165L37.1725 58.953L40.9442 56.082L41.6761 56.7011L47.5871 56.9263L48.769 55.9695L48.8815 54.2804L48.4877 53.549L48.206 48.9891L46.2358 45.0485L46.5737 43.3032L47.7556 43.9227L51.077 47.0186L52.7096 47.1314L54.5109 46.3995L56.3125 45.0485L57.2129 42.121L62.5047 42.4589L65.7134 41.2206L68.303 38.7999L70.1607 35.3097L70.6108 31.2003L70.2168 26.4152L69.2037 22.1373L68.1903 20.7863L66.7832 20.3357L64.3061 23.0377L62.0544 23.8259L60.084 20.5608L58.1138 18.7595L57.0441 18.084L52.7657 14.5374L49.3321 12.6797L45.8979 12.3984L41.9013 13.0739L38.411 14.3683L35.9903 16.3387L34.0765 18.6468L32.1064 19.2098L28.6722 22.4749Z" fill="#FFFF00"/>
<path d="M15.6099 32.6356C11.7524 37.135 12.6094 42.5917 13.6784 47.9383C13.1079 46.4965 12.5372 45.0547 11.9667 43.6138C11.7564 42.2921 11.546 40.9705 11.3359 39.6489C11.396 38.2973 11.4558 36.9461 11.5161 35.5948C12.0567 34.3036 12.5972 33.0121 13.1378 31.7207C13.9485 30.5194 14.7595 29.3182 15.5705 28.1167C16.8318 27.0657 18.0933 26.0145 19.3546 24.9635C20.7358 24.3928 22.1175 23.8223 23.4989 23.2516C25.1206 23.0415 26.7423 22.8314 28.3642 22.6211C26.8624 24.3327 25.3609 26.0446 23.8593 27.7563C20.2421 28.9295 18.1092 29.7198 15.6099 32.6356Z" fill="#FFFFCC"/>
<path d="M33.7714 18.9297C31.0898 21.5462 29.6247 23.5196 27.9181 26.583C26.6976 28.7746 25.328 30.8853 24.0445 33.0462C23.3955 34.14 23.3341 35.0571 23.1399 36.3184C22.5094 35.5677 21.8788 34.8168 21.248 34.0662C21.5486 33.165 21.8487 32.264 22.149 31.3631C23.17 29.5311 24.1914 27.699 25.2124 25.8673C27.3747 23.7349 29.5372 21.6029 31.6994 19.4705C32.39 19.2901 33.0808 19.1101 33.7714 18.9297Z" fill="#FFFFCC"/>
<path d="M47.0154 12.4414C44.8672 13.2466 41.3002 13.5119 41.0528 15.9771C40.8766 17.7279 41.1848 18.6077 42.24 20.4601C39.6335 17.7626 38.989 18.1801 33.9512 19.0184C34.6722 17.9973 35.3929 16.9762 36.1134 15.9552C37.3747 15.1741 38.6363 14.3933 39.8976 13.6125C41.5193 13.2521 43.1412 12.8917 44.7629 12.5314C45.5136 12.5015 46.2645 12.4716 47.0154 12.4414Z" fill="#FFFFCC"/>
<path d="M52.9419 45.7886C53.6568 46.2299 53.6415 46.5498 53.5219 46.8522C54.086 46.6266 54.6501 46.4009 55.214 46.1757C55.5796 45.6849 55.9448 45.1943 56.3104 44.7035C56.5816 44.0042 56.8528 43.3054 57.1241 42.6061C56.7774 42.3455 56.4311 42.0848 56.0842 41.8242C54.5694 42.0174 53.0546 42.2108 51.5396 42.4045C51.4271 42.7103 51.3142 43.0167 51.2012 43.3231C51.2335 43.7581 51.266 44.1934 51.298 44.6284C51.443 44.8863 51.5883 45.144 51.7333 45.402C51.959 45.5147 52.1844 45.6277 52.4101 45.7404C52.5876 45.7563 52.7646 45.7727 52.9419 45.7886Z" fill="#CCCC00"/>
<path d="M52.5189 38.0156C50.2408 38.6731 50.2585 38.8544 49.5859 41.1145C50.4739 39.6897 51.1314 38.9705 52.5189 38.0156Z" fill="#CCCC00"/>
<path d="M67.6657 21.1016C67.2608 21.2886 66.8663 21.3786 66.6134 21.749C66.0683 22.5465 65.6013 23.2172 64.7001 23.7768C64.2461 24.0589 63.7767 24.2415 63.2954 24.3918C62.8961 24.5159 62.6561 24.4047 62.3164 24.6492C62.518 24.6841 62.7196 24.7196 62.9213 24.7548H64.2548C64.8028 24.4164 65.3507 24.078 65.8987 23.7398C66.2212 23.4011 66.5435 23.0627 66.8658 22.7243C67.1322 22.1835 67.3989 21.6421 67.6657 21.1016Z" fill="#CCCC00"/>
<path d="M31.3785 26.1581C30.4823 28.6106 29.6992 30.7128 28.3418 32.933C30.0812 31.0586 31.1359 29.4655 32.1323 27.3464C32.5194 26.5233 32.5925 25.5572 33.6707 25.9163C33.7191 26.7386 33.8929 27.5602 33.9411 28.382C34.5237 24.2068 36.1663 22.4605 39.9846 20.8398C38.9048 20.969 37.825 21.0978 36.7455 21.2267C35.73 21.4524 34.7147 21.6781 33.6992 21.9035C33.1997 22.6287 32.6999 23.3543 32.2006 24.0792C31.9265 24.7722 31.6526 25.4652 31.3785 26.1581Z" fill="#CCCC00"/>
<path d="M38.7768 26.0625C39.6004 29.938 40.7861 33.6576 41.301 37.5947C41.6354 40.1531 41.6719 41.3821 40.3849 43.5893C38.9781 43.4983 38.1047 43.6568 36.7439 44.1029C31.3272 45.8785 28.2204 48.4895 24.5703 43.2287C25.7356 43.7777 26.9008 44.3267 28.0661 44.876C28.8966 44.7128 29.7272 44.5498 30.5578 44.386C32.0244 43.5322 33.491 42.6778 34.9576 41.8239C36.1017 41.5983 37.2461 41.3726 38.3902 41.1469C38.7609 39.6001 39.1316 38.0527 39.5023 36.5057C39.2282 34.4588 38.954 32.4122 38.6802 30.3653C38.6482 29.3985 38.6159 28.4317 38.5836 27.4646C38.6482 26.997 38.7127 26.5298 38.7768 26.0625Z" fill="#CCCC00"/>
<path d="M48.108 50.0402C47.6529 53.1889 49.1558 54.8815 48.5335 55.7512C48.3573 55.9973 48.1186 56.427 47.8521 56.545C46.8999 56.9654 45.5907 56.4661 45.4973 56.7122H42.3547C41.9356 56.5349 41.5168 56.3576 41.0977 56.1804C41.7422 55.4228 42.3867 54.6653 43.0316 53.908C43.66 52.5385 44.2886 51.1685 44.917 49.7984C45.32 48.4125 45.723 47.0266 46.1257 45.6406H46.7544C47.2055 47.1073 47.6569 48.5736 48.108 50.0402Z" fill="#CCCC00"/>
<path d="M42.8252 40.8906C43.0805 42.3202 43.524 42.6599 44.1963 44.0438C43.7486 46.3015 43.0297 48.9863 42.1642 50.9784C41.7994 51.8185 41.5049 52.2818 40.8611 52.9311C39.775 54.0281 38.6769 54.9833 37.445 55.9342C36.5581 56.6177 35.9392 56.275 34.8451 56.12C34.3797 56.9635 34.2514 57.4321 33.3949 57.8605C32.0777 58.5188 30.8993 57.1 29.8652 56.265C30.6116 57.4308 31.3581 58.5963 32.1039 59.7621C32.6199 60.2458 33.1356 60.7286 33.6513 61.2123C34.0863 61.2766 34.5215 61.3414 34.9568 61.406C35.5368 61.0514 36.117 60.6966 36.697 60.3421C37.0034 59.7621 37.3095 59.1818 37.6156 58.6018C38.2605 58.1182 38.9053 57.6348 39.5495 57.1511C40.3394 56.4745 41.1292 55.7974 41.9187 55.1206C42.4185 54.4115 42.9178 53.7027 43.4176 52.9933C43.8687 52.1553 44.3199 51.3174 44.771 50.4794C45.3515 48.7389 45.9315 46.9982 46.512 45.258C46.5602 44.597 46.6083 43.9363 46.6567 43.2754C45.9315 42.9534 45.2065 42.6306 44.481 42.3083C43.9492 41.809 43.357 41.3902 42.8252 40.8906Z" fill="#CCCC00"/>
<path d="M25.4801 50.9608C27.9201 50.9608 30.4972 50.8253 32.7322 49.8003C33.3646 48.8518 33.9891 48.0768 34.7627 47.2383C34.0586 48.5684 33.8377 49.3204 33.6509 50.8158C33.4091 51.1704 33.1675 51.5247 32.9257 51.8795C31.0883 51.9276 29.2513 51.9761 27.414 52.0245C26.8176 51.9597 26.2214 51.8954 25.6251 51.8311C25.5605 51.7662 25.4962 51.7019 25.4316 51.6376C25.448 51.412 25.4642 51.1863 25.4801 50.9608Z" fill="#CCCC00"/>
<path d="M25.1413 49.2716C25.0783 48.6996 25.0151 48.1273 24.9518 47.5547C24.5351 50.0641 24.6351 51.7461 23.4802 53.9941C22.6176 54.9934 21.5553 55.9028 20.3387 56.3897C20.4416 57.0059 20.4723 57.3914 20.4125 57.8431C20.1982 59.4684 16.9469 58.7503 15.6094 58.6855C17.7555 59.2383 19.901 59.7905 22.0469 60.3429C22.5306 60.1495 23.0137 59.9564 23.4974 59.7629C23.6588 58.8284 23.8199 57.8933 23.981 56.9588C24.4322 56.1208 24.8836 55.2823 25.3347 54.4449C25.4151 53.9287 25.4958 53.4135 25.5765 52.8976C25.4313 51.6889 25.2865 50.4803 25.1413 49.2716Z" fill="#CCCC00"/>
<path d="M21.5147 35.1016C21.4475 36.3219 21.3687 36.8304 21.9066 37.9081C22.5905 39.2776 23.4306 40.5648 24.1739 41.9185C24.2546 41.0157 24.335 40.1135 24.4157 39.2109C23.4489 37.8409 22.4818 36.4714 21.5147 35.1016Z" fill="#CCCC00"/>
<path d="M11.5915 44.3203C11.3819 44.7656 11.1729 45.2112 10.9633 45.6568C11.5393 47.597 12.0516 48.826 13.1483 50.521C12.9573 51.2076 12.8144 51.5082 12.3749 52.0678C11.4097 51.9196 10.5524 51.8765 9.57422 51.8797C10.654 52.7174 11.7338 53.5559 12.8136 54.3938C13.3452 54.2967 13.8773 54.2002 14.4091 54.1036C14.9407 53.5718 15.4728 53.0399 16.0046 52.5081C15.2471 51.3315 14.4895 50.1553 13.7323 48.9787C13.0184 47.4261 12.3048 45.8729 11.5915 44.3203Z" fill="#CCCC00"/>
<path d="M67.6732 20.4609C68.3309 23.4193 69.1792 26.1497 69.1004 29.1798C69.0038 32.8973 68.2794 37.5932 64.8349 39.8349C60.9774 42.3456 56.4492 41.1581 52.2168 40.0822C53.9414 40.7916 55.666 41.5005 57.3901 42.2096C59.0017 42.2903 60.6133 42.371 62.225 42.4511C63.3209 42.1291 64.4168 41.8069 65.5125 41.4846C66.3666 40.7752 67.221 40.0664 68.0751 39.357C68.7196 38.0033 69.3642 36.6497 70.009 35.2961C70.2508 33.7326 70.4924 32.1694 70.734 30.6062C70.5408 29.075 70.3471 27.5441 70.154 26.0131C69.7994 24.4983 69.4446 22.9833 69.0903 21.4685C68.618 21.1325 68.1457 20.7967 67.6732 20.4609Z" fill="#CCCC00"/>
<path d="M10.1082 29.2792C8.35714 30.4191 7.6692 30.9194 7.86129 33.0319C8.03566 33.6645 8.21029 34.2972 8.38465 34.9298C8.63205 35.0973 8.87917 35.2645 9.1263 35.4317C9.43191 35.5336 9.73724 35.6352 10.0428 35.7371C10.5956 35.6064 11.1483 35.4754 11.7008 35.3444C11.9847 34.4644 12.2683 33.5846 12.5517 32.7046C11.7664 33.0901 10.9808 33.4756 10.1955 33.8611H9.65019C9.44672 33.5484 9.24299 33.2356 9.03925 32.9229C9.28665 32.5591 9.53377 32.1958 9.78117 31.832C9.91214 31.1411 10.0428 30.4503 10.1738 29.7594C10.341 29.8102 10.5083 29.8613 10.6755 29.9118C10.8792 30.0722 11.0827 30.2323 11.2864 30.3918C11.2573 30.0285 11.2282 29.6647 11.1991 29.3012C11.061 29.0686 10.9226 28.8357 10.7845 28.6032C10.6464 28.4865 10.5083 28.3703 10.3701 28.2539C10.2828 28.5958 10.1955 28.9376 10.1082 29.2792Z" fill="#CCCC00"/>
<path d="M49.3965 12.6328C50.9507 14.0762 52.8581 15.3306 54.1014 17.0944C54.5825 17.777 55.117 18.1263 54.0932 19.0907C55.1749 18.7817 55.5768 18.8153 56.4428 18.92C58.0179 19.1108 59.4944 21.35 59.5883 22.9545C59.5698 23.1045 59.1509 23.4453 57.933 23.7816C57.9089 23.8285 57.2456 23.6909 57.262 23.7359C57.3887 24.0819 57.5578 24.1351 57.816 24.2971C57.8721 24.6823 57.9081 25.2763 58.1706 25.6975C58.9369 25.6838 59.6859 25.7674 60.4363 25.9158C60.6887 26.3349 60.6509 26.7538 60.6297 27.1729C60.9197 27.1248 61.2097 27.0763 61.5 27.0282C61.4195 26.3672 61.3388 25.7065 61.2584 25.0459C61.5161 24.6106 61.7738 24.1753 62.0318 23.7406C61.6611 22.9021 61.2904 22.0644 60.9197 21.2262C60.2109 20.5494 59.5018 19.8726 58.7924 19.1957C58.7244 19.1923 58.6556 19.1889 58.5879 19.1854C57.7901 18.6959 56.9929 18.2067 56.1954 17.7172C54.8947 16.653 53.5942 15.5891 52.2935 14.5249C51.3277 13.8941 50.3622 13.2636 49.3965 12.6328Z" fill="#CCCC00"/>
<path d="M52.0136 24.5469C51.9316 24.6903 51.8078 24.9194 51.6493 25.0782C52.2965 25.6904 52.6158 26.1006 52.8468 26.9666C52.115 27.3298 51.3831 27.6934 50.6515 28.0564C50.0321 28.6502 49.4127 29.2439 48.7938 29.8374C47.9786 29.3987 47.7757 29.0619 47.3812 28.2252C46.9218 28.3469 46.4868 28.4639 46.1074 28.3247C46.3482 28.3266 46.4958 28.2665 46.7364 28.1178C47.1303 27.7085 47.5246 27.2992 47.9185 26.8898C48.6144 26.3628 49.3106 25.8354 50.0064 25.3084C50.4621 25.1599 50.9174 25.0115 51.3731 24.8631C51.5469 24.7916 51.8395 24.6186 52.0136 24.5469Z" fill="#CCCC00"/>
<path d="M54.0337 26.7305C51.7055 27.9841 49.4756 29.2449 48.2852 31.6257C48.2852 28.6038 51.3195 27.2734 54.0337 26.7305Z" fill="#CCCC00"/>
<path d="M47.8231 20.7852C46.0942 21.9639 44.8718 24.3429 45.0253 26.6612C44.4622 24.6537 44.6617 22.7569 46.3908 21.3704C46.6827 21.2286 46.9743 21.0865 47.2661 20.945C47.4519 20.8918 47.6373 20.8386 47.8231 20.7852Z" fill="#CCCC00"/>
<path d="M71.0891 26.2591C70.7753 24.2821 70.2557 22.363 69.5344 20.9832C69.4465 20.8144 69.3132 20.6434 69.1481 20.4802C68.7898 20.127 68.2593 19.7925 67.7114 19.6041C67.1306 19.4044 66.5183 19.3636 66.0323 19.6176C65.9061 19.6838 65.7888 19.769 65.6843 19.8751C65.3695 20.1942 65.1041 20.5815 64.8382 20.9699C64.5423 21.4023 64.2449 21.8367 63.8891 22.1405C63.4766 22.4932 62.9604 22.7073 62.4735 22.9028C62.26 22.3866 62.0144 21.9143 61.7369 21.4708C61.404 20.94 61.0251 20.4431 60.6081 19.946C60.2673 19.5404 59.9358 19.2356 59.577 18.9625C59.2174 18.6881 58.8494 18.4571 58.4205 18.1888C57.2711 17.4689 56.2924 16.6105 55.2941 15.7345C54.8406 15.3365 54.3823 14.9349 53.9341 14.5652C51.557 12.6052 49.3395 11.6545 46.9679 11.5052C44.6125 11.3571 42.1254 12.0043 39.1889 13.2404C37.7718 13.8368 36.7192 14.5417 35.8024 15.3892C34.9266 16.1996 34.1831 17.1323 33.3658 18.2216C32.8901 18.2555 32.4691 18.3259 32.0389 18.4981C31.565 18.6876 31.0879 18.9945 30.5164 19.4991C30.1108 19.8565 29.7226 20.2167 29.3475 20.5794C28.9961 20.9191 28.655 21.265 28.3187 21.6145C25.6453 22.0439 23.4672 22.5181 21.5166 23.2737C19.5219 24.0464 17.7634 25.1095 15.9573 26.7111C15.2193 27.3651 14.5806 28.0565 14.0215 28.7889C13.4722 29.5083 13.0021 30.2648 12.5896 31.0625C12.2281 31.4623 11.8664 31.8658 11.4746 32.2188C11.0925 32.5628 10.6853 32.8525 10.2291 33.0282L10.2294 33.0284C9.96402 33.1306 9.85421 33.1904 9.84231 33.1864C9.82908 33.179 9.82167 33.1393 9.80288 33.066C10.4583 32.4405 10.5612 31.5219 10.6218 30.6095C10.7004 30.7037 10.7761 30.8196 10.8544 30.9405C10.9409 31.0742 11.0295 31.212 11.1359 31.3462L11.5807 31.9074L11.737 31.2073C11.8683 30.6207 11.9664 29.8393 11.8135 29.162C11.7146 28.7225 11.5106 28.3306 11.1552 28.0531C11.1893 27.9642 11.2214 27.8824 11.2531 27.8017C11.3648 27.5162 11.4796 27.2233 11.5772 26.9465L11.7699 26.3978L11.1962 26.4973C10.4329 26.6298 8.79214 27.5315 7.63694 28.7304C7.20777 29.1757 6.83893 29.6679 6.59683 30.1843C6.34494 30.7217 6.23222 31.284 6.32986 31.8468C6.41505 32.3386 6.66112 32.8213 7.10828 33.2769C7.18978 33.6052 7.26492 33.8902 7.34536 34.1474C7.43744 34.44 7.53666 34.7017 7.66075 34.9592C7.99705 35.6585 8.53311 36.0855 9.15331 36.2848C9.65207 36.4448 10.2035 36.4528 10.7443 36.3345C10.6387 36.9457 10.5721 37.5847 10.5461 38.2827C10.512 39.1953 10.5453 40.2034 10.6459 41.3731C10.6678 41.6298 10.7009 41.9124 10.7438 42.2193C10.7808 42.4812 10.825 42.7384 10.8726 42.9937C10.7716 43.2694 10.6699 43.5457 10.5686 43.8214C10.4112 44.2495 10.2537 44.6781 10.0966 45.1062C9.75023 45.4494 9.40388 45.7926 9.05779 46.1355C8.73473 46.4549 8.4114 46.7753 8.08833 47.0954C8.06161 47.1222 7.9526 47.2267 7.8539 47.3219C7.19904 47.9519 7.06939 48.0771 7.2554 49.186C7.36891 49.8655 7.59249 50.5539 7.94148 51.2178C8.26296 51.83 8.69425 52.4262 9.24777 52.9813C9.93862 53.6737 11.0705 54.5336 12.2556 54.984C12.933 55.2414 13.6313 55.3671 14.2864 55.2621C14.253 55.3629 14.2205 55.4634 14.1837 55.565C14.0805 55.85 13.9654 56.1352 13.8382 56.4144C13.0343 58.1768 13.8596 59.097 15.1442 59.6829C15.7856 59.9752 16.5481 60.1737 17.2567 60.3586C17.4017 60.3959 17.5467 60.434 17.7292 60.4832C18.5691 60.7103 20.0196 61.127 21.3444 61.2106C22.7904 61.3022 24.0945 61.0037 24.444 59.7056C24.5824 59.1912 24.6629 58.797 24.6954 58.4112C24.7256 58.0532 24.7139 57.6913 24.6721 57.2436C25.0844 56.3299 25.2593 56.073 25.5606 55.6322C25.6196 55.5452 25.6911 55.4409 25.7125 55.4081C26.0358 54.9292 26.1872 54.5892 26.2422 54.2063C26.2951 53.837 26.2504 53.4689 26.1835 52.9061C26.1771 52.8527 26.1673 52.7746 26.1536 52.6714C27 52.7799 27.8345 52.8381 28.6643 52.8434C29.0855 52.8461 29.5065 52.8336 29.9274 52.8114C29.82 52.8667 29.7144 52.9212 29.5991 52.9805C29.548 53.0067 29.4954 53.0339 29.4424 53.0612C28.3259 53.6353 28.2793 54.7231 28.6288 55.842C28.944 56.8512 29.5925 57.8815 29.9994 58.5083C30.8548 59.8265 31.6711 60.9423 32.6607 61.5487C33.6981 62.1846 34.8832 62.2594 36.4131 61.4315C37.1913 61.01 37.4368 60.5806 37.7673 60.0017C37.8684 59.8249 37.98 59.6323 38.1041 59.4423C38.4258 59.2293 39.226 58.5695 40.0115 57.9199C40.2788 57.6989 40.546 57.4788 40.8477 57.2333C41.0554 57.3859 41.3062 57.492 41.6092 57.5643C42.0029 57.6585 42.4717 57.7011 43.0334 57.7413C43.4539 57.7722 44.825 57.7712 45.7108 57.7709C45.9844 57.7709 46.2117 57.7709 46.348 57.7717C47.2624 57.7773 48.0006 57.7291 48.5584 57.4132C49.1529 57.0761 49.5054 56.4792 49.5823 55.4086C49.616 54.9332 49.622 54.64 49.5562 54.3405C49.4945 54.06 49.3741 53.806 49.1675 53.434C49.155 52.9715 49.1426 52.5087 49.1304 52.0462C49.1175 51.5554 49.104 51.0643 49.091 50.5738C49.0754 49.9951 49.0116 49.5252 48.8941 49.0627C48.7777 48.6034 48.6116 48.1615 48.389 47.6315C48.2382 47.273 48.116 46.9436 47.9964 46.6205L47.6754 46.738L47.7249 46.7197L47.9964 46.6205V46.6192C47.8051 46.1032 47.6164 45.601 47.3524 45.0636C47.3696 44.9599 47.3868 44.8485 47.4034 44.7295C47.5733 44.8935 47.7434 45.0573 47.9133 45.2208L48.665 45.9453C49.2384 46.4975 49.7625 46.9997 50.3782 47.3627C51.0149 47.7384 51.7308 47.9564 52.658 47.9125C53.6285 47.8667 54.667 47.4579 55.5222 46.8271C56.3493 46.2165 57.0131 45.3931 57.2902 44.4818C57.3703 44.2183 57.4505 43.9545 57.5301 43.6912C57.5939 43.4811 57.6579 43.2705 57.722 43.0602C59.083 43.2909 60.5438 43.3652 61.9549 43.2176C63.3165 43.0744 64.632 42.7278 65.7663 42.1227C67.4341 41.2329 68.6843 39.9221 69.5828 38.3658L69.5833 38.366C70.5875 36.6266 71.1497 34.5771 71.3635 32.468C71.5347 30.7765 71.4413 28.4769 71.0891 26.2591ZM53.4549 40.4748C52.6707 40.211 52.1253 39.8258 51.4361 39.3916C51.6237 40.237 51.7091 41.131 51.4594 41.9751C51.063 43.3142 50.423 45.505 52.241 45.9093C52.9331 46.063 53.2469 46.0408 54.2238 45.5367C53.4332 45.7159 53.0345 45.6719 52.491 45.5711C51.9986 45.4806 51.7374 45.1679 51.5999 44.7991C51.7718 44.9231 52.0526 44.9906 52.532 45.1062C53.8798 45.4312 55.1642 44.7821 55.4155 43.8476C55.5619 43.3015 55.537 43.0146 55.8473 42.2704C56.1262 42.3566 56.4146 42.4349 56.7104 42.5066C56.5435 43.0509 56.3765 43.5957 56.2096 44.14C55.7764 45.5531 54.0886 46.6925 52.5984 46.6665C51.2207 46.6422 50.3473 45.7794 49.3961 44.9332C48.741 44.3498 48.1104 43.7923 47.4855 43.2398C45.7709 42.6987 44.3966 42.0666 42.8054 40.8887C43.9378 42.2193 44.7059 42.9562 46.2853 43.6184C46.0556 45.9614 45.2415 47.6696 44.5472 49.9118C44.2328 50.9254 41.7526 54.9882 41.0652 55.3843C40.5751 55.6666 37.5051 58.2522 36.9277 58.5935C36.4975 59.1648 36.1199 59.9541 35.4733 60.2956C33.5029 61.3376 32.2365 59.3426 31.1763 57.6577C30.6934 56.8898 29.3527 54.6789 30.5214 54.0595C31.6266 53.4745 32.2455 53.0562 33.373 52.3158C33.5386 52.6177 33.8228 52.9093 34.008 53.2109C33.9672 52.881 33.9262 52.5513 33.8849 52.2211C33.8108 51.6234 33.8138 51.1381 33.8614 50.5367C33.9074 49.9546 33.9529 49.3722 33.9987 48.7899C33.8291 49.3818 33.4902 49.9737 33.3208 50.5653C33.2531 50.8021 33.197 50.9934 33.1647 51.1707C30.635 51.6877 28.1235 51.72 25.5929 51.2686C25.4315 50.3317 25.2349 49.3556 25.0701 48.6557C25.0201 49.4395 25.0523 51.6062 25.0481 52.8196C25.0449 53.7594 25.0055 54.0812 24.5208 54.881C24.067 55.6293 23.8749 55.7994 23.2394 57.0642C23.2923 57.8625 23.2933 58.3898 23.0814 59.1473C22.7287 60.4068 19.1713 59.431 18.233 59.174C17.0773 58.8576 14.6883 58.3877 15.2892 56.8472C15.8178 55.4912 16.1531 54.0616 16.4113 52.1645C14.2941 49.1145 12.3252 44.9348 11.9474 41.2313C11.654 38.356 11.8299 36.5861 12.4522 34.8271C13.4381 32.0402 14.8177 29.6279 17.031 27.6853C20.0164 25.0656 22.8073 24.0135 27.177 23.3484C26.1261 24.5247 25.0865 25.7686 23.9532 27.1024C22.8062 28.4526 22.1246 29.8163 21.3962 31.2932C20.39 33.333 20.4117 34.1093 21.7455 35.9C22.8949 37.4434 23.5153 38.138 24.0173 39.6483C23.6029 40.5024 23.4521 41.2244 23.3129 42.391C24.7203 43.9296 25.7662 44.9837 27.1328 45.3084C28.4732 45.627 29.5925 45.5653 30.7919 44.9525C33.4552 43.5907 35.9196 41.8322 38.9243 41.7597C40.3142 38.3425 40.1737 35.487 39.5064 32.1807C39.0506 29.9227 38.8677 27.7848 38.7262 25.4828C38.1626 27.8536 38.0567 29.9383 38.4748 32.2998C38.9788 35.1454 39.3707 38.2898 37.9686 40.7908C35.2518 40.9987 32.9234 42.6516 30.4749 43.9198C29.4906 44.4297 28.4658 44.4794 27.3765 44.1804C26.3652 43.9026 25.6829 43.2335 24.5935 41.9772C24.5763 40.7156 24.861 40.1335 25.4402 38.991C26.3711 37.1563 27.3982 35.4487 28.5256 33.6436C27.1453 35.3097 25.8374 36.7018 24.751 38.3769C24.3356 37.1939 23.7418 36.593 22.7581 35.2608C21.7973 33.9595 21.6968 33.3899 22.4152 31.8838C23.1375 30.3706 23.75 29.0405 24.9796 27.7131C27.104 25.4188 29.0501 22.8657 31.3732 20.6061C32.6347 19.3795 33.147 19.4218 34.82 19.1683C36.3324 18.9389 37.8088 18.6497 39.3511 18.2915C37.8596 18.4304 36.4179 18.4815 34.9655 18.5174C34.9504 18.518 34.9356 18.5185 34.9205 18.5188C36.3493 16.6942 37.1786 15.6773 39.4988 14.669C45.2118 12.1879 48.8418 11.9196 53.3295 15.6919C54.4926 16.6698 55.5084 17.6189 56.6877 18.4624C56.2601 18.4989 55.8915 18.5757 55.4042 18.767C55.9974 18.654 56.6824 18.7659 57.2981 18.8786C57.4709 18.9908 57.6484 19.1001 57.8302 19.2072C58.6629 19.6978 59.1354 19.9687 59.6985 20.7532C60.2935 21.5822 60.7896 22.4106 61.2268 23.3238C60.9402 23.2214 60.7 23.1348 60.4859 23.0713C60.3282 22.9988 60.1567 22.9515 59.975 22.9337C59.6149 22.8991 59.2704 22.9877 58.9833 23.1645C58.9716 23.1698 58.9603 23.1751 58.9486 23.1806C58.488 23.4047 57.7746 23.6603 57.2973 23.7378C57.5407 23.822 58.0794 23.8535 58.3334 23.7529C58.3673 23.7394 58.402 23.7291 58.4374 23.7206C58.3229 23.9156 58.2482 24.1368 58.225 24.3763C58.1945 24.6935 58.2591 24.9978 58.3954 25.2621C58.3959 25.2629 58.3962 25.2637 58.3967 25.2651C58.4398 25.3664 58.4996 25.4598 58.5655 25.5273C58.3475 25.6077 58.1247 25.6995 57.895 25.7993C58.9597 25.6371 59.9197 25.6093 60.9587 25.7461C61.0273 26.0737 61.0963 26.4208 61.1603 26.7738C61.0315 26.7838 60.9032 26.7936 60.7743 26.8039C60.7642 26.8047 60.7534 26.8058 60.7431 26.8068C60.2515 26.4139 59.7038 26.4798 58.9555 26.6507C56.6798 27.1696 57.2145 28.4465 56.1678 30.3706C57.2547 29.0418 57.174 27.6517 58.9454 27.232C59.3582 27.1344 59.6392 27.0119 59.9186 27.054C59.4159 27.3069 58.9809 27.7263 58.8084 28.2131C58.3221 29.5861 58.624 30.7429 58.0898 32.0254C58.7515 30.8789 58.7915 29.7602 59.3831 28.5539C59.5955 28.1208 60.384 27.4273 60.8682 27.4167C61.0013 27.4135 61.1336 27.4109 61.2667 27.408C61.3834 28.1711 61.4543 28.9289 61.4091 29.5573C61.3265 30.7043 61.0286 32.4066 60.8502 33.0581C61.4495 32.2876 61.7226 30.6558 61.9859 29.507C62.26 28.311 62.1907 26.8756 61.9507 25.5908C61.6215 23.8278 63.4372 24.1146 64.4913 23.2838C65.266 22.6729 65.7997 21.6976 66.5101 21.0065C67.2147 20.3214 68.3239 21.3282 68.6012 21.9979C69.803 24.9055 70.3504 29.48 70.0331 32.4111C69.6767 35.7 68.0881 39.2905 65.1874 40.9098C61.4892 42.9739 57.129 41.7129 53.4549 40.4748ZM48.2004 55.0827C48.0797 56.4398 47.6275 56.5295 46.4358 56.5085C45.8945 56.499 43.7386 56.4892 43.1914 56.4421C42.4185 56.3755 41.9846 56.3064 41.7483 56.1302C42.9628 55.2388 45.0264 51.558 45.4285 50.2909C45.854 48.9523 46.3197 47.7839 46.666 46.5467C46.8253 47.0637 46.9513 47.5762 47.183 48.1255C47.5701 49.0434 47.7593 49.6107 47.7871 50.5952C47.8162 51.634 47.8456 52.673 47.8749 53.7118C48.2075 54.2942 48.2594 54.4185 48.2004 55.0827ZM11.6521 44.8025C12.4234 47.4701 13.7371 50.0917 15.1937 52.2955C15.1937 52.3082 15.1934 52.3209 15.1934 52.3341C15.1019 52.713 14.9965 53.0818 14.7751 53.3782C13.7342 54.771 11.0862 52.7265 10.3196 51.9443C9.48193 51.0887 8.921 50.0758 8.78738 49.1254C8.69028 48.4324 8.78474 48.4155 9.26814 47.9252C9.91983 47.2653 10.5723 46.6052 11.2237 45.9455C11.3664 45.5645 11.5092 45.1832 11.6521 44.8025ZM10.1794 28.0255C9.98175 28.4499 9.84151 28.7714 9.746 29.1024C9.33085 30.5363 9.93386 31.8161 8.63207 32.8554C9.2438 34.0897 9.21575 34.5819 10.6387 34.0117C11.1875 33.7915 11.6402 33.483 12.0442 33.1181C11.8516 33.6161 11.673 34.1299 11.5047 34.6604C11.4767 34.7483 11.45 34.8367 11.424 34.9242C10.4064 35.356 9.06811 35.6304 8.55586 34.561C8.30715 34.0418 8.16665 33.5322 7.9854 32.8763C6.30948 31.14 8.81463 28.8476 10.1794 28.0255ZM11.0031 29.8647C10.7962 29.6578 10.6305 29.5176 10.3633 29.548C10.3858 29.3726 10.4157 29.2035 10.458 29.0445C10.4794 28.9627 10.5022 28.8826 10.5265 28.8021C10.8734 29.0043 10.965 29.3705 11.0031 29.8647ZM61.2535 23.3798C61.3167 23.5132 61.3789 23.6489 61.44 23.7863C61.3895 23.8233 61.3413 23.8625 61.2963 23.9037C61.2138 23.7106 61.0939 23.5354 60.9455 23.3888C61.0455 23.3851 61.1479 23.382 61.2535 23.3798Z" fill="black"/>
<path d="M4.43856 32.9317C4.70526 29.9122 5.29239 28.6085 7.4377 26.3359C4.74681 28.2323 4.07527 29.094 4.43856 32.9317Z" fill="black"/>
<path d="M3.74469 30.4638C4.04103 29.1049 4.31726 28.5921 5.15496 27.4766C3.79575 28.4262 3.61848 28.8162 3.74469 30.4638Z" fill="black"/>
<path d="M35.3149 11.5195C33.703 11.908 33.3955 12.2061 32.9121 13.7863C33.6834 12.6292 34.1276 12.2527 35.3149 11.5195Z" fill="black"/>
<path d="M37.8572 11.2891C34.6598 12.0728 33.7203 12.63 32.6582 16.3356C34.0081 13.6217 35.0305 12.6223 37.8572 11.2891Z" fill="black"/>
<path d="M44.7421 24.7973C45.0829 23.2876 45.6886 21.8326 48.0334 20.707C44.9252 21.4855 44.3426 22.7907 44.7421 24.7973Z" fill="black"/>
<path d="M64.5181 24.9002C66.3586 24.244 67.2457 22.7644 67.6865 21.0234C66.9661 22.4827 65.8545 23.703 64.3442 24.4504C63.5338 24.8513 63.0162 24.7116 62.1113 24.6258C63.0316 24.8899 63.6145 25.2222 64.5181 24.9002Z" fill="black"/>
<path d="M51.9803 26.3814C51.7351 25.8673 51.3054 25.499 50.8079 25.3167C51.2593 25.0756 51.7028 24.8224 52.0489 24.5078C51.0355 24.9769 49.8557 24.8624 48.9862 25.4498C48.2202 25.967 47.1632 27.6064 46.3848 28.3015C46.9486 28.0827 47.4918 27.7043 47.9916 27.3053C47.9937 27.6019 48.0588 27.9023 48.1946 28.187C48.3972 28.6114 48.7251 28.936 49.1132 29.139C48.833 29.5081 48.6005 29.9214 48.434 30.3796C49.916 28.6233 52.0648 27.2969 54.0849 26.7296C53.5203 26.7216 52.8516 26.8272 52.1706 27.0511C52.1457 26.8246 52.0838 26.5983 51.9803 26.3814Z" fill="black"/>
<path d="M49.8481 39.6509C49.7761 40.1058 49.6774 40.6709 49.6055 41.126C49.7978 40.6111 50.0296 40.0129 50.2535 39.5221C50.4911 39.0027 50.6247 38.9537 51.1285 38.6796C51.4857 38.4852 52.1344 38.2179 52.4916 38.0234C52.1241 38.0854 51.4653 38.2206 51.0978 38.2825C50.1159 38.4484 50.0002 38.6841 49.8481 39.6509Z" fill="black"/>
<path d="M33.0764 22.0944C31.9368 23.2208 30.8303 27.0857 30.4766 28.632C31.0338 27.3474 32.4277 23.7542 33.4971 22.8401C33.7924 22.5874 33.9988 22.4323 34.2205 22.3196C33.4551 23.6031 33.5112 23.9225 33.78 25.6423C34.0081 23.8939 34.6127 23.2184 35.6049 21.914C36.6923 21.6409 37.7102 21.3142 38.8257 20.8789C37.5676 21.0213 36.3113 21.1514 35.0527 21.2705C33.9959 21.3708 33.8258 21.3536 33.0764 22.0944Z" fill="black"/>
<path d="M48.5988 28.6719C48.3911 28.2375 48.5768 27.7141 49.0123 27.5069C49.4478 27.2995 49.9723 27.4847 50.18 27.9194C50.1998 27.9607 50.2154 28.003 50.2284 28.0454C49.8124 28.3541 49.4312 28.7177 49.1113 29.1389C48.8962 29.0524 48.7054 28.895 48.5988 28.6719Z" fill="#FFFFCC"/>
<path d="M58.3304 24.9062C58.3653 24.546 58.6722 24.2807 59.0321 24.3156C59.3917 24.3505 59.6576 24.672 59.6229 25.0318C59.6153 25.1086 59.5946 25.1803 59.5637 25.2464C59.2342 25.3028 58.9048 25.3991 58.5654 25.524C58.4235 25.3787 58.3105 25.1136 58.3304 24.9062Z" fill="#FFFFCC"/>
</g>
<defs>
<clipPath id="clip0_1614_4583">
<rect width="68" height="68" fill="white" transform="translate(3 3)"/>
</clipPath>
</defs>
</svg>
