<svg width="74" height="74" viewBox="0 0 74 74" fill="none" xmlns="http://www.w3.org/2000/svg">
<g clip-path="url(#clip0_1614_5057)">
<path d="M10.8705 63.7844L36.7248 37.2825C36.8895 37.1197 36.9139 36.8623 36.7826 36.6716C35.2105 34.4766 32.3092 34.096 31.2342 32.621C28.0495 28.2522 27.2414 25.7793 25.8729 25.9325C25.7774 25.9462 25.6896 25.9926 25.6243 26.0637L16.285 35.6379C10.9118 41.1413 10.1394 53.2719 10 63.4304C9.99908 63.6371 10.124 63.8237 10.3156 63.9016C10.5071 63.9795 10.7268 63.9331 10.8705 63.7844Z" fill="#017CEE"/>
<path d="M63.7834 63.1314L37.2814 37.2752C37.1186 37.11 36.8606 37.0856 36.6696 37.2174C34.4747 38.7905 34.094 41.6908 32.6191 42.7658C28.2503 45.9505 25.7774 46.7586 25.9305 48.1271C25.9445 48.2223 25.9908 48.3098 26.0617 48.3748L35.6359 57.7142C41.1394 63.0874 53.2699 63.8597 63.4284 63.9991C63.6341 63.9991 63.8195 63.8749 63.8974 63.6845C63.9753 63.4941 63.9302 63.2755 63.7834 63.1314Z" fill="#00AD46"/>
<path d="M35.6364 57.7141C32.6278 54.7789 31.2336 48.9728 36.9994 37C27.6261 41.1891 24.3414 46.6953 25.9567 48.272L35.6364 57.7141Z" fill="#04D659"/>
<path d="M63.1286 10.2166L37.2751 36.7186C37.11 36.8811 37.0857 37.1388 37.2173 37.3295C38.7904 39.5244 41.6898 39.9051 42.7657 41.38C45.9504 45.7488 46.7594 48.2217 48.127 48.0686C48.2226 48.055 48.3104 48.0086 48.3756 47.9374L57.715 38.3632C63.0882 32.8597 63.8605 20.7292 63.9999 10.5707C64.0003 10.3639 63.8752 10.1777 63.6836 10.0998C63.4921 10.022 63.2725 10.0682 63.1286 10.2166Z" fill="#00C7D4"/>
<path d="M57.7189 38.363C54.7838 41.3716 48.9776 42.7658 37.0039 37C41.193 46.3733 46.6992 49.658 48.2759 48.0427L57.7189 38.363Z" fill="#11E1EE"/>
<path d="M10.2141 10.8714L36.716 36.7248C36.8788 36.8896 37.1362 36.9139 37.3269 36.7826C39.5219 35.2096 39.9025 32.3092 41.3775 31.2342C45.7463 28.0495 48.2192 27.2415 48.066 25.8729C48.0521 25.7775 48.0057 25.6897 47.9348 25.6244L38.3607 16.285C32.8572 10.9118 20.7266 10.1394 10.5682 10C10.361 9.9987 10.1739 10.1238 10.0959 10.3157C10.0179 10.5077 10.0647 10.7278 10.2141 10.8714Z" fill="#E43921"/>
<path d="M38.365 16.2852C41.3735 19.2203 42.7678 25.0265 37.002 37.0002C46.3753 32.8111 49.6599 27.304 48.0447 25.7282L38.365 16.2852Z" fill="#FF7557"/>
<path d="M16.2852 35.6364C19.2203 32.6278 25.0265 31.2336 37.0002 36.9994C32.8111 27.6261 27.3049 24.3414 25.7282 25.9567L16.2852 35.6364Z" fill="#0CB6FF"/>
<path d="M37.0034 38.1513C37.6417 38.1513 38.1591 37.6339 38.1591 36.9956C38.1591 36.3573 37.6417 35.8398 37.0034 35.8398C36.3651 35.8398 35.8477 36.3573 35.8477 36.9956C35.8477 37.6339 36.3651 38.1513 37.0034 38.1513Z" fill="#4A4848"/>
</g>
<defs>
<clipPath id="clip0_1614_5057">
<rect width="54" height="54" fill="white" transform="translate(10 10)"/>
</clipPath>
</defs>
</svg>
