<svg width="74" height="74" viewBox="0 0 74 74" fill="none" xmlns="http://www.w3.org/2000/svg">
<mask id="mask0_2038_5238" style="mask-type:luminance" maskUnits="userSpaceOnUse" x="0" y="30" width="74" height="15">
<path d="M74 30H0V44.5574H74V30Z" fill="white"/>
</mask>
<g mask="url(#mask0_2038_5238)">
<path d="M63.8406 33.2829C63.1128 33.2829 62.405 33.3798 61.7176 33.5723C61.3934 33.6637 61.0895 33.7803 60.8034 33.9204C60.7483 33.834 60.6827 33.7525 60.6049 33.676C60.3354 33.4137 60.0118 33.2829 59.6343 33.2829H58.1786V44.3926H61.0086V38.6248C61.0086 37.5029 61.1974 37.0659 61.5754 36.6778C61.9529 36.2921 62.5325 36.0989 63.315 36.0989H64.5361V33.2829H63.8406ZM12.1641 30H10.7077V43.0259C10.7077 43.4129 10.8431 43.7363 11.1127 43.9992C11.3823 44.2615 11.7058 44.3929 12.0833 44.3929H13.5391V31.3663C13.5391 30.9806 13.4043 30.6566 13.1354 30.3931C12.8651 30.1315 12.5415 30 12.1641 30ZM19.5763 42.1373C21.2593 42.1373 21.7918 40.3297 21.7918 38.7998C21.7918 37.2705 21.2593 35.4395 19.5763 35.4395C17.8925 35.4395 17.3815 37.2705 17.3815 38.7998C17.3815 40.3297 17.8925 42.1373 19.5763 42.1373ZM19.5793 33.0135C22.7722 33.0135 24.5423 35.1692 24.5423 38.764C24.5423 42.344 22.7722 44.4936 19.5793 44.4936C16.3233 44.4936 14.6334 42.344 14.6334 38.764C14.6334 35.1692 16.3233 33.0135 19.5793 33.0135ZM4.9422 42.1373C3.25906 42.1373 2.74744 40.3297 2.74744 38.7998C2.74744 37.2705 3.25906 35.4395 4.9422 35.4395C5.81656 35.4395 6.37841 35.9363 6.71847 36.625H9.65954C9.06887 34.3317 7.44209 33.0135 4.94526 33.0135C1.68927 33.0135 0 35.1692 0 38.764C0 42.344 1.68927 44.4936 4.94526 44.4936C7.44209 44.4936 9.06581 43.1766 9.65586 40.8913H7.72702C7.72702 40.8913 7.20804 40.9055 6.91577 41.1881C6.40721 41.68 5.99302 42.1373 4.9422 42.1373ZM34.6147 33.6852C34.3586 33.4087 34.0284 33.2711 33.6233 33.2711H32.208V40.2324C32.208 40.8952 32.0125 41.3785 31.6215 41.6821C31.2307 41.9857 30.7882 42.1376 30.3024 42.1376C29.8178 42.1376 29.3747 41.9857 28.9839 41.6821C28.5929 41.3785 28.3968 40.8952 28.3968 40.2324V34.6788C28.3968 34.2924 28.2693 33.9617 28.0126 33.6852C27.7572 33.4087 27.4269 33.2711 27.0219 33.2711H25.6065V39.7313C25.6065 41.692 26.145 42.9052 27.1028 43.5829C28.058 44.258 29.1168 44.4932 30.3024 44.4932C31.4886 44.4932 32.548 44.258 33.5026 43.5829C34.4603 42.9052 34.9988 41.692 34.9988 39.7313V34.6788C34.9988 34.2924 34.8715 33.9617 34.6147 33.6852ZM45.7899 30.3934C45.5203 30.1317 45.1962 30.0002 44.8194 30.0002H43.3997V34.119C42.9695 33.7123 42.0621 33.0137 40.6884 33.0137C37.7981 33.0137 36.1273 35.1688 36.1273 38.7636C36.1273 42.3443 37.8435 44.4932 41.1515 44.4932C44.3818 44.4932 46.1789 42.3615 46.193 38.8087H46.1943V31.3666C46.1943 30.9803 46.0588 30.6569 45.7899 30.3934ZM41.1485 42.1376C39.4384 42.1376 38.9182 40.3293 38.9182 38.8C38.9182 37.2702 39.4384 35.4397 41.1485 35.4397C42.8482 35.4397 43.3929 37.2486 43.3997 38.7723V38.8087C43.3978 40.3361 42.8556 42.1376 41.1485 42.1376ZM57.1356 38.117C57.1356 38.354 57.0866 38.5706 56.9898 38.7662C56.9286 38.889 56.8502 39.0038 56.7508 39.1106C56.4941 39.3865 56.178 39.5247 55.8006 39.5247H50.0502C50.1231 40.8472 50.7817 42.1377 52.2045 42.1377C53.2546 42.1377 53.6683 41.6797 54.1781 41.1885C54.4703 40.9065 54.9887 40.891 54.9887 40.891H56.9181C56.3269 43.1764 54.7038 44.4933 52.2064 44.4933C48.951 44.4933 47.2611 42.3444 47.2611 38.7644C47.2611 35.1689 48.951 33.0139 52.2064 33.0139C54.7038 33.0139 56.3312 34.3321 56.9212 36.6254C57.0278 37.0358 57.0959 37.4783 57.1338 37.9479L57.1356 38.117ZM52.2045 35.4398C51.0317 35.4398 50.2549 36.3279 50.1703 37.3832H54.2528C54.2461 36.3279 53.3472 35.4398 52.2045 35.4398ZM74 36.0909C74 35.1066 73.6091 34.3407 72.8273 33.7933C72.0724 33.2743 70.9394 33.0139 69.4297 33.0139C68.0811 33.0139 67.0432 33.3286 66.3153 33.9575C65.6682 34.5043 65.2749 35.251 65.1671 36.0989H67.877C68.0119 35.7546 68.2429 35.5441 68.5406 35.4349C68.836 35.3257 69.1736 35.2701 69.5516 35.2701C70.0222 35.2701 70.3556 35.3318 70.7036 35.4553C71.1147 35.6009 71.3304 35.8447 71.3304 36.2551C71.3304 36.6945 70.7385 37.1049 69.5516 37.2629C68.1252 37.4523 66.9991 37.6097 65.9733 38.3811C65.3147 38.8761 64.8998 39.7839 64.8998 40.9324C64.8998 42.1635 65.2736 43.0319 65.9917 43.5792C66.632 44.0674 67.6718 44.4846 69.3556 44.4846C70.8653 44.4846 71.9976 44.1471 72.7525 43.6274C73.5343 43.0807 73.9743 42.45 74 41.2977V36.0909ZM70.9597 41.4927C70.5277 41.9223 69.9346 42.1371 69.1797 42.1371C68.9451 42.1371 68.2018 42.0834 67.8931 41.7797C67.6675 41.5588 67.529 41.3323 67.529 40.9299C67.529 40.6343 67.632 40.3541 67.8115 40.1591C68.2098 39.7271 68.6479 39.666 69.5902 39.4543C70.2146 39.3136 70.9806 39.0785 71.3745 38.8526V39.6888C71.3745 40.4411 71.3911 41.0638 70.9597 41.4927Z" fill="#004E6F"/>
</g>
</svg>
