<svg width="74" height="74" viewBox="0 0 74 74" fill="none" xmlns="http://www.w3.org/2000/svg">
<g clip-path="url(#clip0_1614_4635)">
<path d="M24.9336 21.9831V22.67L35.4972 28.6133L44.9745 23.3072V25.4674L35.4972 30.8234L25.4717 25.129L24.9336 25.4177V29.5491L35.4972 35.4825L44.9745 30.1862V32.2967L35.4972 37.6428L25.4717 31.9483L24.9336 32.2469V32.9836L35.4972 38.917L46.0508 32.9836V28.8622L45.5624 28.5635L35.4972 34.258L26.0598 28.8622V26.7517L35.4972 32.0479L46.0508 26.1046V22.0329L45.5624 21.7442L35.4972 27.4386L26.5481 22.3813L35.4972 17.324L42.9117 21.4953L43.5495 21.107V20.5595L35.4972 16L24.9336 21.9831Z" fill="#EF3E2B"/>
<path d="M4.22543 55.294C2.85017 55.294 1.75396 54.169 1.75396 52.7355C1.75396 51.3019 2.85017 50.1769 4.22543 50.1769C5.60068 50.1769 6.69691 51.3019 6.69691 52.7355C6.69691 54.169 5.64055 55.294 4.22543 55.294ZM8.3811 56.6976V45.3984H6.61717V49.6293C6.61717 49.6892 6.58728 49.7488 6.52749 49.7788C6.47766 49.7986 6.41786 49.7887 6.378 49.7488C5.79999 49.052 4.88317 48.6538 3.84674 48.6538C1.68419 48.6538 0 50.4855 0 52.7951C0 53.9201 0.398624 54.9854 1.09622 55.7518C1.80377 56.5184 2.80035 56.9465 3.83677 56.9365C4.80343 56.9465 5.73025 56.5284 6.36805 55.8117C6.39793 55.7617 6.45773 55.7419 6.50756 55.7718C6.50756 55.7718 6.51753 55.7718 6.51753 55.7817C6.57733 55.8117 6.60721 55.8713 6.60721 55.931V56.7872H8.37113L8.3811 56.6976Z" fill="black"/>
<path d="M13.5323 55.2925C12.157 55.2925 11.0608 54.1675 11.0608 52.734C11.0608 51.3004 12.157 50.1756 13.5323 50.1756C14.9075 50.1756 16.0038 51.3004 16.0038 52.734C16.0038 54.1675 14.9374 55.2925 13.5323 55.2925ZM17.6481 56.6963V48.8018H15.914V49.5981C15.914 49.658 15.8841 49.7176 15.8244 49.7475C15.7745 49.7674 15.7147 49.7575 15.6749 49.7176C15.0969 49.0208 14.18 48.6523 13.1436 48.6523C10.9811 48.6523 9.29688 50.4842 9.29688 52.7938C9.29688 55.1034 10.9711 56.9351 13.1436 56.9351C14.1202 56.9451 15.047 56.5171 15.6749 55.7704C15.7048 55.7206 15.7745 55.7008 15.8244 55.7406H15.8344C15.8942 55.7704 15.9241 55.8302 15.9241 55.8899V56.7461H17.6581L17.6481 56.6963Z" fill="black"/>
<path d="M28.2931 55.2925C26.9178 55.2925 25.8217 54.1675 25.8217 52.734C25.8217 51.3004 26.9178 50.1756 28.2931 50.1756C29.6684 50.1756 30.7646 51.3004 30.7646 52.734C30.7646 54.1675 29.6984 55.2925 28.2931 55.2925ZM32.4189 56.6963V48.8018H30.7148V49.5981C30.7148 49.658 30.6849 49.7176 30.6251 49.7475C30.5753 49.7674 30.5155 49.7575 30.4757 49.7176C29.8977 49.0208 28.9809 48.6523 27.9444 48.6523C25.7819 48.6523 24.0977 50.4842 24.0977 52.7938C24.0977 55.1034 25.7718 56.9351 27.9444 56.9351C28.921 56.9451 29.8478 56.5171 30.4757 55.7704C30.5056 55.7206 30.5753 55.7008 30.6251 55.7406H30.6352C30.6948 55.7704 30.7247 55.8302 30.7247 55.8899V56.7461H32.429L32.4189 56.6963Z" fill="black"/>
<path d="M35.408 52.7639C35.408 51.3303 36.5043 50.2054 37.8795 50.2054C39.2548 50.2054 40.3509 51.3303 40.3509 52.7639C40.3509 54.1974 39.2548 55.3224 37.8795 55.3224C36.4943 55.2925 35.3881 54.1477 35.408 52.7639ZM35.5874 55.7505H35.6472C35.6971 55.7604 35.737 55.7802 35.7669 55.8102C36.3449 56.507 37.2617 56.9052 38.2981 56.9052C40.4607 56.9052 42.1449 55.0735 42.1449 52.7639C42.1449 51.6389 41.7462 50.5738 41.0486 49.8072C40.341 49.0406 39.3445 48.6125 38.3081 48.6226C37.3413 48.6125 36.4146 49.0207 35.7768 49.7475C35.7469 49.8072 35.687 49.8072 35.6274 49.7773C35.5675 49.7475 35.5376 49.6877 35.5376 49.628V45.3672H33.7637V56.6664H35.5077V55.87C35.5077 55.8201 35.5376 55.7703 35.5874 55.7505Z" fill="black"/>
<path d="M47.1164 50.4274C47.2559 50.4175 47.4053 50.4274 47.545 50.4574V48.6554C47.4851 48.6554 47.3655 48.6256 47.2359 48.6256C46.349 48.6056 45.5219 49.0736 45.0734 49.8402C45.0535 49.8998 44.9838 49.9297 44.9339 49.9098H44.9239C44.8641 49.8798 44.8144 49.8301 44.8043 49.7605V48.7848H43.0703V56.6494H44.8043V53.2349C44.8243 51.4927 45.7112 50.4274 47.1164 50.4274Z" fill="black"/>
<path fill-rule="evenodd" clip-rule="evenodd" d="M48.6426 48.8047H50.4165V56.6695H48.6426V48.8047Z" fill="black"/>
<path d="M49.4883 45.3984C48.9002 45.3984 48.4219 45.8763 48.4219 46.4636C48.4219 47.051 48.9002 47.5288 49.4883 47.5288C50.0762 47.5288 50.5545 47.051 50.5545 46.4636C50.5545 45.8763 50.0762 45.3984 49.4883 45.3984Z" fill="black"/>
<path d="M55.5585 48.6255C53.1467 48.6255 51.3828 50.3578 51.3828 52.7669C51.3828 53.9217 51.7815 54.987 52.5388 55.7237C53.3062 56.4902 54.3326 56.8784 55.5285 56.8784C56.5052 56.8784 57.2625 56.6992 58.6976 55.6341L57.721 54.5987C57.0233 55.0566 56.3457 55.2956 55.7079 55.2956C54.243 55.2956 53.1467 54.2004 53.1467 52.7669C53.1467 51.3333 54.243 50.2383 55.7079 50.2383C56.4055 50.2383 57.0533 50.4473 57.6911 50.9351L58.7872 49.8997C57.5117 48.7351 56.3556 48.6156 55.5585 48.6255Z" fill="black"/>
<path d="M61.7863 53.2219C61.8063 53.2019 61.8461 53.1821 61.876 53.192C61.9258 53.2019 61.9656 53.2219 61.9955 53.2517L64.766 56.6963H66.9087L63.311 52.3358C63.2512 52.2761 63.2811 52.1865 63.311 52.1267L66.6396 48.8017H64.4969L61.6268 51.6688C61.587 51.7087 61.5271 51.7186 61.4774 51.6986C61.4176 51.6688 61.3876 51.609 61.3876 51.5493V45.3672H59.6836V56.6664H61.4275V53.6201C61.4375 53.5703 61.4574 53.5305 61.4873 53.5006L61.7863 53.2219Z" fill="black"/>
<path d="M69.7805 56.8744C71.2154 56.8744 72.6506 56.0183 72.6506 54.3756C72.6506 53.3105 71.9828 52.5439 70.5776 52.086L69.6309 51.7774C68.9932 51.5584 68.6842 51.2597 68.6842 50.8316C68.6842 50.3439 69.1127 50.0351 69.7206 50.0351C70.2986 50.0351 70.8169 50.4035 71.1558 51.0705L72.5608 50.304C72.0427 49.2388 70.9763 48.6016 69.7505 48.6016C68.1959 48.6016 67.0699 49.6072 67.0699 50.9809C67.0699 52.0759 67.7075 52.8126 69.0529 53.2407L70.0295 53.5493C70.6973 53.7584 71.0062 54.0373 71.0062 54.4951C71.0062 55.1622 70.3983 55.411 69.8502 55.411C69.1526 55.411 68.5048 54.9531 68.2058 54.2263L66.8008 54.9531C67.2193 56.1378 68.3753 56.8744 69.7805 56.8744Z" fill="black"/>
<path d="M22.5027 56.7874C22.9412 56.7775 23.3797 56.7476 23.8182 56.6979V55.2046C23.5291 55.2445 23.2301 55.2643 22.9311 55.2643C22.2337 55.2643 21.6856 55.1448 21.6856 53.6217V50.3962C21.6755 50.3165 21.7453 50.2469 21.815 50.2469H23.5391V48.8134H21.835C21.7553 48.8233 21.6856 48.7536 21.6856 48.684V46.4141H19.9416V48.7038C19.9515 48.7835 19.8817 48.8531 19.812 48.8531H18.5762V50.2866H19.792C19.8718 50.2866 19.9416 50.3465 19.9416 50.4261V54.0995C19.9715 56.7874 21.8051 56.7874 22.5027 56.7874Z" fill="black"/>
</g>
<defs>
<clipPath id="clip0_1614_4635">
<rect width="74" height="74" fill="white"/>
</clipPath>
</defs>
</svg>
