<svg width="68" height="68" viewBox="0 0 68 68" fill="none" xmlns="http://www.w3.org/2000/svg">
<g clip-path="url(#clip0_1307_1216)">
<path d="M9.42773 33.9651C9.42773 36.3453 9.76138 38.6413 10.3289 40.8443H43.8238C47.6228 40.8443 50.703 37.7642 50.703 33.9651C50.703 30.1644 47.6228 27.0859 43.8238 27.0859H10.3289C9.76138 29.2873 9.42773 31.5849 9.42773 33.9651Z" fill="#343741"/>
<path d="M55.7315 19.6246C56.6928 18.7389 57.5871 17.7879 58.4075 16.768C53.3633 10.4822 45.6293 6.44922 36.9444 6.44922C26.0735 6.44922 16.7178 12.7729 12.2549 21.9274H49.8618C52.039 21.9274 54.132 21.1002 55.7315 19.6246Z" fill="#FEC514"/>
<path d="M49.8618 46.0039H12.2549C16.7195 55.1567 26.0735 61.4821 36.9444 61.4821C45.6293 61.4821 53.3633 57.4475 58.4075 51.1633C57.5871 50.1417 56.6928 49.1907 55.7315 48.305C54.132 46.8277 52.039 46.0039 49.8618 46.0039Z" fill="#00BFB3"/>
</g>
<defs>
<clipPath id="clip0_1307_1216">
<rect width="55.102" height="55.102" fill="white" transform="translate(6.44922 6.44922)"/>
</clipPath>
</defs>
</svg>
