<svg width="68" height="68" viewBox="0 0 68 68" fill="none" xmlns="http://www.w3.org/2000/svg">
<g clip-path="url(#clip0_2038_4746)">
<path d="M28.8104 10.5923C28.1832 9.96204 27.3082 9.57283 26.3355 9.57283C25.3665 9.57283 24.4983 9.96204 23.8785 10.5923H23.8606C23.2353 11.2195 22.8461 12.095 22.8461 13.0641C22.8461 14.0368 23.2353 14.905 23.8606 15.5285L23.8785 15.5426C24.4983 16.1698 25.3665 16.5553 26.3355 16.5553C27.3082 16.5553 28.1832 16.1698 28.8104 15.5426L28.8196 15.5285C29.448 14.905 29.8335 14.0368 29.8335 13.0641C29.8335 12.095 29.448 11.2195 28.8196 10.5923H28.8104ZM26.3355 58.3822C27.3082 58.3822 28.1832 57.9862 28.8104 57.3664L28.8196 57.348C29.448 56.7294 29.8335 55.8538 29.8335 54.8915C29.8335 53.9188 29.448 53.0469 28.8196 52.4167H28.8104C28.1832 51.779 27.3082 51.3935 26.3355 51.3935C25.3665 51.3935 24.4983 51.779 23.8785 52.4167H23.8606C23.2353 53.0469 22.8461 53.9188 22.8461 54.8915C22.8461 55.8538 23.2353 56.7294 23.8606 57.348L23.8785 57.3664C24.4983 57.9862 25.3665 58.3822 26.3355 58.3822ZM45.3573 47.8051C46.2224 47.5782 47.0057 47.023 47.4835 46.1837L47.5481 46.0613C47.9729 45.2651 48.0504 44.3464 47.8235 43.5323C47.5948 42.6605 47.0328 41.8894 46.1953 41.4067L46.1468 41.3741C45.3308 40.9271 44.4011 40.83 43.5471 41.0606C42.6789 41.277 41.8992 41.8568 41.4239 42.6894C40.9425 43.5139 40.8416 44.4651 41.0722 45.3407C41.3102 46.2015 41.8666 46.98 42.6985 47.4663H42.7041C43.5378 47.9453 44.4823 48.032 45.3573 47.8051ZM29.9184 30.3999C29.001 29.4849 27.7368 28.9119 26.3355 28.9119C24.9397 28.9119 23.6786 29.4849 22.7631 30.3999C21.8518 31.3117 21.2898 32.5728 21.2898 33.9704C21.2898 35.3717 21.8518 36.6365 22.7631 37.5588C23.6786 38.4664 24.9397 39.0358 26.3355 39.0358C27.7368 39.0358 29.001 38.4664 29.9184 37.5588C30.8315 36.6365 31.3935 35.3717 31.3935 33.9704C31.3935 32.5728 30.8315 31.3117 29.9184 30.3999ZM27.904 24.4491C29.9344 24.7836 31.7612 25.7563 33.1551 27.1613H33.1661C33.3875 27.3845 33.6039 27.6262 33.8038 27.8709L37.2895 25.8541C36.821 24.438 36.7994 22.9574 37.1757 21.5703C37.6732 19.7109 38.8783 18.0464 40.6848 17.0017L40.7445 16.9661C42.5313 15.9534 44.5628 15.7443 46.397 16.2418C48.2539 16.7386 49.9295 17.9493 50.9723 19.7545V19.7582C52.0102 21.5524 52.2211 23.6129 51.7255 25.4649C51.2318 27.323 50.0211 28.9986 48.2164 30.0359L47.7405 30.3175H47.6919C46.0226 31.1131 44.1865 31.2361 42.5006 30.7928C41.1159 30.4251 39.8455 29.654 38.8513 28.5552L35.3711 30.5659C35.7708 31.6247 35.9927 32.7671 35.9927 33.9704C35.9927 35.1701 35.7708 36.3266 35.3711 37.3928L38.8513 39.3961C39.8455 38.2832 41.1159 37.5263 42.5006 37.1586C44.3575 36.6507 46.4167 36.8671 48.2164 37.9155L48.3314 37.9696V37.977C50.0703 39.0284 51.2373 40.6572 51.7255 42.4944C52.2211 44.3354 52.0102 46.3964 50.9723 48.1943L50.9096 48.3204L50.9022 48.3093C49.8594 50.0426 48.2164 51.2171 46.4025 51.7139C44.5413 52.2039 42.4827 51.9949 40.6848 50.9613V50.9465C38.8783 49.9018 37.6732 48.2337 37.1757 46.3786C36.7994 44.9951 36.821 43.5139 37.2895 42.0985L33.8038 40.0878C33.6039 40.3332 33.3875 40.5637 33.1661 40.7869L33.1551 40.7974C31.7612 42.1956 29.9344 43.1683 27.904 43.4924V47.5204C29.3508 47.8229 30.6476 48.5473 31.664 49.563L31.6689 49.5741C33.0309 50.9287 33.8739 52.8163 33.8739 54.8915C33.8739 56.96 33.0309 58.836 31.6689 60.1979L31.664 60.2194C30.2928 61.5814 28.4107 62.4244 26.3355 62.4244C24.2714 62.4244 22.3868 61.5814 21.0193 60.2194H21.0144V60.1979C19.6506 58.836 18.8057 56.96 18.8057 54.8915C18.8057 52.8163 19.6506 50.9287 21.0144 49.5741V49.563H21.0193C22.0338 48.5473 23.3324 47.8229 24.7756 47.5204V43.4924C22.7434 43.1683 20.9221 42.1956 19.5301 40.7974L19.5153 40.7869C17.7752 39.0395 16.6875 36.6365 16.6875 33.9704C16.6875 31.3117 17.7752 28.9088 19.5153 27.1613H19.5301C20.9221 25.7563 22.7434 24.7836 24.7756 24.4491V20.4389C23.3324 20.1253 22.0338 19.4016 21.0193 18.3926H21.0144V18.3815C19.6506 17.0128 18.8057 15.1393 18.8057 13.0641C18.8057 10.9993 19.6506 9.10798 21.0144 7.74603L21.0193 7.73927C22.3868 6.37363 24.2714 5.53064 26.3355 5.53064C28.4107 5.53064 30.2928 6.37363 31.664 7.73927V7.74603H31.6689C33.0309 9.10798 33.8739 10.9993 33.8739 13.0641C33.8739 15.1393 33.0309 17.0128 31.6689 18.3815L31.664 18.3926C30.6476 19.4016 29.3508 20.1253 27.904 20.4389V24.4491ZM47.4835 21.7756L47.4546 21.7326C46.9731 20.9216 46.2058 20.3811 45.3573 20.1468C44.4823 19.9162 43.5378 20.014 42.6985 20.493H42.7041C41.8666 20.9683 41.3065 21.7467 41.0722 22.6186C40.8416 23.4831 40.9425 24.438 41.4239 25.27L41.4399 25.2921C41.9226 26.113 42.6899 26.6639 43.5471 26.8871C44.4085 27.1287 45.3683 27.0279 46.1953 26.5452L46.2402 26.5237C47.0543 26.0373 47.5966 25.27 47.8235 24.427C48.0541 23.5588 47.9625 22.6076 47.4835 21.7756Z" fill="#1A1919"/>
</g>
<defs>
<clipPath id="clip0_2038_4746">
<rect width="56.9388" height="56.9388" fill="white" transform="translate(5.53125 5.53064)"/>
</clipPath>
</defs>
</svg>
