<svg width="62" height="62" viewBox="0 0 62 62" fill="none" xmlns="http://www.w3.org/2000/svg">
<path d="M9.79808 52.2019C7.14423 49.5481 8.90385 43.9808 7.54808 40.7212C6.19231 37.4615 1 34.6058 1 31C1 27.3942 6.13462 24.6538 7.54808 21.2788C8.96154 17.9038 7.14423 12.4519 9.79808 9.79808C12.4519 7.14423 18.0192 8.90385 21.2788 7.54808C24.5385 6.19231 27.3942 1 31 1C34.6058 1 37.3462 6.13462 40.7212 7.54808C44.0962 8.96154 49.5481 7.14423 52.2019 9.79808C54.8558 12.4519 53.0962 18.0192 54.4519 21.2788C55.8077 24.5385 61 27.3942 61 31C61 34.6058 55.8654 37.3462 54.4519 40.7212C53.0385 44.0962 54.8558 49.5481 52.2019 52.2019C49.5481 54.8558 43.9808 53.0962 40.7212 54.4519C37.4615 55.8077 34.6058 61 31 61C27.3942 61 24.6538 55.8654 21.2788 54.4519C17.9038 53.0385 12.4519 54.8558 9.79808 52.2019Z" fill="#323437" stroke="#99999B" stroke-linecap="round" stroke-linejoin="round"/>
<path d="M30.5 47C31.8807 47 33 45.8807 33 44.5C33 43.1193 31.8807 42 30.5 42C29.1193 42 28 43.1193 28 44.5C28 45.8807 29.1193 47 30.5 47Z" fill="white"/>
<path d="M31 33C32.5822 33 34.129 32.5308 35.4446 31.6518C36.7602 30.7727 37.7855 29.5233 38.391 28.0615C38.9965 26.5997 39.155 24.9911 38.8463 23.4393C38.5376 21.8874 37.7757 20.462 36.6569 19.3431C35.538 18.2243 34.1126 17.4624 32.5607 17.1537C31.0089 16.845 29.4003 17.0035 27.9385 17.609C26.4767 18.2145 25.2273 19.2398 24.3482 20.5554C23.4692 21.871 23 23.4178 23 25" stroke="white" stroke-width="2" stroke-linecap="round" stroke-linejoin="round"/>
</svg>
