<svg width="74" height="74" viewBox="0 0 74 74" fill="none" xmlns="http://www.w3.org/2000/svg">
<g clip-path="url(#clip0_1614_4778)">
<path d="M66 8H8V66H66V8Z" fill="#01A88D"/>
<path fill-rule="evenodd" clip-rule="evenodd" d="M47.4604 26.8188C47.4604 27.4452 46.9492 27.9556 46.3218 27.9556C45.693 27.9556 45.1833 27.4452 45.1833 26.8188C45.1833 26.1924 45.693 25.682 46.3218 25.682C46.9492 25.682 47.4604 26.1924 47.4604 26.8188ZM42.3383 34.0396C42.3383 33.4132 42.8481 32.9028 43.4769 32.9028C44.1043 32.9028 44.6154 33.4132 44.6154 34.0396C44.6154 34.666 44.1043 35.1764 43.4769 35.1764C42.8481 35.1764 42.3383 34.666 42.3383 34.0396ZM42.0232 48.6291C42.0232 48.0027 42.5329 47.4923 43.1603 47.4923C43.7891 47.4923 44.2989 48.0027 44.2989 48.6291C44.2989 49.2555 43.7891 49.7659 43.1603 49.7659C42.5329 49.7659 42.0232 49.2555 42.0232 48.6291ZM50.481 38.5142C50.481 39.1406 49.9713 39.651 49.3439 39.651C48.7151 39.651 48.2054 39.1406 48.2054 38.5142C48.2054 37.8878 48.7151 37.3774 49.3439 37.3774C49.9713 37.3774 50.481 37.8878 50.481 38.5142ZM55.847 40.824L51.926 38.5867C51.926 38.562 51.9332 38.5388 51.9332 38.5142C51.9332 37.0889 50.7714 35.9275 49.3439 35.9275C47.9149 35.9275 46.7531 37.0889 46.7531 38.5142C46.7531 39.9395 47.9149 41.1009 49.3439 41.1009C50.221 41.1009 50.9951 40.6601 51.4627 39.9917L55.1935 42.1217L51.8156 44.3706C51.6137 44.5054 51.4917 44.7316 51.4917 44.9738V50.3386L41.3392 55.7455L36.9694 53.253V49.3541H40.6872C41.0037 50.4256 41.9855 51.2159 43.1603 51.2159C44.5878 51.2159 45.7511 50.0544 45.7511 48.6291C45.7511 47.2038 44.5878 46.0424 43.1603 46.0424C41.9855 46.0424 41.0037 46.8326 40.6872 47.9041H36.9694V37.724C36.9694 37.5036 36.8692 37.2962 36.6979 37.157L33.0673 34.2571L32.1597 35.391L35.5172 38.072V41.6432L31.1605 44.0139V40.6239C31.1605 40.4296 31.0836 40.2425 30.9427 40.1062L28.1951 37.4195V33.5133L32.2584 31.0976C32.4792 30.9657 32.6128 30.7294 32.6128 30.4742V24.6743H31.1605V30.0624L27.4733 32.2547L23.8703 30.0667V23.655L26.7428 22.0963V27.5742H28.1951V21.309L31.2026 19.6777L35.5158 21.4815L35.5172 30.4742C35.5172 30.7352 35.6566 30.9744 35.8832 31.1034L40.8934 33.9613C40.8934 33.9889 40.8861 34.0121 40.8861 34.0396C40.8861 35.4649 42.0479 36.6263 43.4769 36.6263C44.9044 36.6263 46.0677 35.4649 46.0677 34.0396C46.0677 32.6143 44.9044 31.4529 43.4769 31.4529C42.6012 31.4529 41.8286 31.8922 41.3595 32.5578L36.9694 30.0537L36.968 21.4844L41.3131 19.6661L50.07 23.6883V26.0938H48.7964C48.4798 25.0223 47.4952 24.2321 46.3218 24.2321C44.8928 24.2321 43.731 25.3935 43.731 26.8188C43.731 28.2441 44.8928 29.4055 46.3218 29.4055C47.4952 29.4055 48.4798 28.6153 48.7964 27.5438H50.07V30.4742C50.07 30.7482 50.224 30.999 50.4694 31.1223L55.847 33.8207V40.824ZM31.175 55.731L28.2415 53.9273L31.5018 52.0017L30.7612 50.7533L26.843 53.0689L22.4471 50.3691V45.3798L25.6871 43.3948L24.9261 42.1579L21.7399 44.111L18.1514 41.6882V38.1706L22.8131 35.4504L22.0812 34.1977L18.1514 36.4915V33.8192L23.1123 31.3035L26.7428 33.5089V37.331L23.5044 39.4262L24.2958 40.6427L27.3775 38.6476L29.7083 40.9284V44.8041L26.4887 46.5571L27.1829 47.8302L35.5172 43.2947V53.253L31.175 55.731ZM56.8999 32.7259L51.5222 30.0276V23.2244C51.5222 22.9416 51.3581 22.6835 51.0996 22.5661L41.6297 18.2162C41.4438 18.1306 41.2317 18.1248 41.0459 18.206L36.2448 20.2157L31.4423 18.206C31.236 18.119 31.008 18.1321 30.8149 18.2379L22.7986 22.5878C22.5633 22.714 22.4181 22.959 22.4181 23.2244V30.029L17.0971 32.7274C16.8532 32.8521 16.6992 33.1015 16.6992 33.3741V42.0738C16.6992 42.3145 16.8183 42.5393 17.0187 42.6741L20.9949 45.3595V50.7736C20.9949 51.0259 21.1256 51.2593 21.342 51.3913L30.7815 57.1911C30.8977 57.2622 31.0298 57.2984 31.1605 57.2984C31.2854 57.2984 31.4089 57.2665 31.5207 57.2027L36.2433 54.5087L40.966 57.2027C41.0778 57.2665 41.2012 57.2984 41.3261 57.2984C41.4438 57.2984 41.5614 57.2694 41.6689 57.2129L52.5606 51.413C52.7973 51.2869 52.944 51.0419 52.944 50.7736V45.3624L56.9768 42.677C57.1772 42.5422 57.2992 42.316 57.2992 42.0738V33.3741C57.2992 33.1 57.1453 32.8492 56.8999 32.7259Z" fill="white"/>
</g>
<defs>
<clipPath id="clip0_1614_4778">
<rect width="58" height="58" fill="white" transform="translate(8 8)"/>
</clipPath>
</defs>
</svg>
