<svg width="74" height="74" viewBox="0 0 74 74" fill="none" xmlns="http://www.w3.org/2000/svg">
<g clip-path="url(#clip0_1614_2619)">
<path d="M74 46.7847C73.9111 42.8362 72.4042 39.0516 69.7546 36.1227C67.105 33.1939 63.4899 31.3164 59.57 30.8336C59.3346 25.3228 56.9371 20.1268 52.8971 16.3715C48.8571 12.6162 43.4999 10.6041 37.9867 10.7714C33.5333 10.6748 29.1591 11.9584 25.4641 14.4463C21.7692 16.9341 18.9345 20.5042 17.3489 24.6669C12.6295 25.2405 8.27577 27.4985 5.08833 31.0258C1.9009 34.5531 0.0940364 39.1126 0 43.8658C0.203448 49.1951 2.51187 54.2261 6.41912 57.856C10.3264 61.4858 15.5136 63.4181 20.8433 63.2292H22.6522H56.4044C56.7044 63.2719 57.0089 63.2719 57.3089 63.2292C61.6804 63.1878 65.8649 61.4496 68.9791 58.3814C72.0933 55.3132 73.8936 51.1551 74 46.7847Z" fill="url(#paint0_linear_1614_2619)"/>
<path d="M22.2817 42.7161H18.664C18.4166 41.6436 17.7831 40.6996 16.8843 40.0642C15.9855 39.4288 14.8843 39.1465 13.7907 39.271C12.697 39.3955 11.6875 39.9181 10.9545 40.7393C10.2215 41.5604 9.81641 42.6226 9.81641 43.7233C9.81641 44.824 10.2215 45.8862 10.9545 46.7074C11.6875 47.5285 12.697 48.0512 13.7907 48.1757C14.8843 48.3002 15.9855 48.0178 16.8843 47.3824C17.7831 46.747 18.4166 45.8031 18.664 44.7305H22.2817C22.4998 44.7305 22.7089 44.8172 22.8631 44.9714C23.0173 45.1256 23.104 45.3347 23.104 45.5528V63.2305H25.1184V45.5528C25.1184 44.8004 24.8195 44.0789 24.2876 43.5469C23.7556 43.0149 23.0341 42.7161 22.2817 42.7161ZM14.2651 46.3339C13.7447 46.3339 13.236 46.1796 12.8033 45.8904C12.3706 45.6013 12.0334 45.1904 11.8342 44.7096C11.6351 44.2289 11.583 43.6998 11.6845 43.1894C11.786 42.6791 12.0366 42.2102 12.4046 41.8423C12.7726 41.4743 13.2414 41.2237 13.7518 41.1222C14.2622 41.0207 14.7912 41.0728 15.272 41.2719C15.7527 41.4711 16.1637 41.8083 16.4528 42.241C16.7419 42.6737 16.8962 43.1824 16.8962 43.7028C16.8962 44.4006 16.619 45.0698 16.1256 45.5632C15.6321 46.0567 14.9629 46.3339 14.2651 46.3339Z" fill="#9CEBFF"/>
<path d="M36.7527 43.6177V39.5066C36.7527 38.7433 36.4495 38.0114 35.9098 37.4717C35.3701 36.932 34.6381 36.6288 33.8749 36.6288H27.5027C27.2846 36.6288 27.0755 36.5422 26.9213 36.388C26.7671 36.2338 26.6805 36.0246 26.6805 35.8066V13.9766L25.7349 14.4699L24.666 15.0455V35.601C24.666 36.3533 24.9649 37.0749 25.4969 37.6068C26.0288 38.1388 26.7504 38.4377 27.5027 38.4377H33.8749C33.9883 38.4377 34.1005 38.46 34.2053 38.5034C34.31 38.5468 34.4052 38.6104 34.4854 38.6905C34.5655 38.7707 34.6291 38.8659 34.6725 38.9706C34.7159 39.0754 34.7382 39.1876 34.7382 39.301V43.4121C33.7449 43.6286 32.8559 44.1795 32.2199 44.9726C31.5839 45.7658 31.2393 46.7532 31.2438 47.7699C31.2431 48.6122 31.4798 49.4377 31.9267 50.1517C32.3737 50.8656 33.0129 51.4391 33.7709 51.8064C34.529 52.1737 35.3752 52.3199 36.2125 52.2283C37.0498 52.1366 37.8444 51.8108 38.505 51.2882C39.1656 50.7656 39.6656 50.0674 39.9475 49.2737C40.2295 48.48 40.282 47.6228 40.0991 46.8006C39.9161 45.9784 39.5052 45.2243 38.9133 44.625C38.3214 44.0257 37.5726 43.6053 36.7527 43.4121V43.6177ZM35.7249 50.6066C35.2045 50.6066 34.6958 50.4523 34.2631 50.1631C33.8305 49.874 33.4932 49.4631 33.2941 48.9823C33.0949 48.5016 33.0428 47.9725 33.1444 47.4621C33.2459 46.9518 33.4965 46.4829 33.8644 46.115C34.2324 45.747 34.7012 45.4964 35.2116 45.3949C35.722 45.2934 36.251 45.3455 36.7318 45.5446C37.2126 45.7438 37.6235 46.081 37.9126 46.5137C38.2017 46.9464 38.356 47.4551 38.356 47.9755C38.356 48.321 38.288 48.6631 38.1557 48.9823C38.0235 49.3016 37.8297 49.5916 37.5854 49.8359C37.3411 50.0802 37.051 50.2741 36.7318 50.4063C36.4126 50.5385 36.0704 50.6066 35.7249 50.6066Z" fill="#F2F2F2"/>
<path d="M59.7342 34.9419C58.6382 34.9458 57.5816 35.3514 56.7644 36.0817C55.9471 36.8121 55.4259 37.8167 55.2993 38.9054C55.1727 39.9941 55.4495 41.0915 56.0774 41.9899C56.7052 42.8883 57.6406 43.5254 58.7065 43.7808V44.603C58.7065 44.7164 58.6841 44.8286 58.6407 44.9334C58.5974 45.0381 58.5338 45.1333 58.4536 45.2135C58.3734 45.2936 58.2783 45.3572 58.1735 45.4006C58.0688 45.444 57.9565 45.4663 57.8431 45.4663H49.6209V30.9952C49.6209 30.6227 49.5475 30.2538 49.405 29.9097C49.2624 29.5655 49.0535 29.2528 48.7901 28.9894C48.5267 28.726 48.2139 28.517 47.8698 28.3745C47.5256 28.2319 47.1568 28.1586 46.7842 28.1586H42.5498C42.3333 27.1652 41.7824 26.2762 40.9893 25.6402C40.1961 25.0042 39.2087 24.6596 38.192 24.6641C37.3497 24.6634 36.5242 24.9001 35.8103 25.3471C35.0963 25.794 34.5228 26.4332 34.1555 27.1912C33.7882 27.9493 33.642 28.7955 33.7336 29.6328C33.8253 30.4701 34.1511 31.2647 34.6737 31.9253C35.1963 32.5859 35.8945 33.0859 36.6882 33.3678C37.482 33.6498 38.3391 33.7023 39.1613 33.5194C39.9836 33.3364 40.7376 32.9255 41.3369 32.3336C41.9362 31.7417 42.3566 30.9929 42.5498 30.173H46.9487C47.1668 30.173 47.3759 30.2596 47.5301 30.4138C47.6843 30.568 47.7709 30.7772 47.7709 30.9952V63.2263H49.7854V47.4808H58.0076C58.7708 47.4808 59.5028 47.1776 60.0425 46.6379C60.5822 46.0982 60.8854 45.3662 60.8854 44.603V43.7808C61.8752 43.5574 62.7598 43.0046 63.3946 42.213C64.0294 41.4213 64.3768 40.4377 64.3798 39.423C64.3802 38.8204 64.2591 38.224 64.0237 37.6693C63.7883 37.1146 63.4434 36.6131 63.0097 36.1948C62.576 35.7764 62.0624 35.4499 61.4996 35.2346C60.9368 35.0193 60.3364 34.9198 59.7342 34.9419ZM38.192 31.7763C37.6716 31.7763 37.1629 31.622 36.7303 31.3329C36.2976 31.0438 35.9603 30.6329 35.7612 30.1521C35.562 29.6713 35.5099 29.1423 35.6115 28.6319C35.713 28.1215 35.9636 27.6527 36.3315 27.2847C36.6995 26.9168 37.1683 26.6662 37.6787 26.5647C38.1891 26.4631 38.7181 26.5152 39.1989 26.7144C39.6797 26.9135 40.0906 27.2508 40.3797 27.6835C40.6688 28.1161 40.8231 28.6248 40.8231 29.1452C40.8231 29.4907 40.7551 29.8329 40.6228 30.1521C40.4906 30.4713 40.2968 30.7614 40.0525 31.0057C39.8082 31.25 39.5181 31.4438 39.1989 31.576C38.8797 31.7083 38.5375 31.7763 38.192 31.7763ZM59.7342 42.0541C59.2122 42.0623 58.6995 41.9149 58.2614 41.6308C57.8234 41.3467 57.4798 40.9387 57.2743 40.4587C57.0688 39.9787 57.0108 39.4484 57.1077 38.9354C57.2045 38.4223 57.4518 37.9496 57.8181 37.5775C58.1843 37.2055 58.653 36.9508 59.1645 36.8459C59.676 36.741 60.2071 36.7906 60.6903 36.9885C61.1735 37.1864 61.5868 37.5235 61.8778 37.957C62.1688 38.3906 62.3242 38.9009 62.3242 39.423C62.3243 40.1137 62.0528 40.7768 61.5682 41.2691C61.0836 41.7614 60.4249 42.0433 59.7342 42.0541Z" fill="#9CEBFF"/>
</g>
<defs>
<linearGradient id="paint0_linear_1614_2619" x1="37" y1="78.6458" x2="37" y2="-1.19196" gradientUnits="userSpaceOnUse">
<stop stop-color="#0078D4"/>
<stop offset="0.16" stop-color="#1380DA"/>
<stop offset="0.53" stop-color="#3C91E5"/>
<stop offset="0.82" stop-color="#559CEC"/>
<stop offset="1" stop-color="#5EA0EF"/>
</linearGradient>
<clipPath id="clip0_1614_2619">
<rect width="74" height="74" fill="white"/>
</clipPath>
</defs>
</svg>
