<svg width="74" height="74" viewBox="0 0 74 74" fill="none" xmlns="http://www.w3.org/2000/svg">
<g clip-path="url(#clip0_1614_4950)">
<path d="M0 45.0681V34.5254H2.40505V35.8611C3.01184 34.7787 4.33326 34.2148 5.52345 34.2148C6.90984 34.2148 8.12208 34.8437 8.68604 36.0781C9.5111 34.6917 10.7455 34.2148 12.1097 34.2148C14.0172 34.2148 15.8362 35.4284 15.8362 38.2233V45.0681H13.4104V38.6339C13.4104 37.3995 12.7815 36.4678 11.3731 36.4678C10.0516 36.4678 9.18496 37.5073 9.18496 38.8066V45.0668H6.71623V38.6339C6.71623 37.4216 6.10685 36.4744 4.67758 36.4744C3.33538 36.4744 2.48952 37.471 2.48952 38.8132V45.0733L0 45.0681Z" fill="#333333"/>
<path d="M18.9102 45.067V29.3828H21.4243V45.067H18.9102Z" fill="#333333"/>
<path d="M20.4141 50.8073C20.9792 50.9645 21.4873 51.0672 22.5658 51.0672C24.5706 51.0672 26.9354 49.9367 27.5578 46.7638L30.1278 34.042H33.9491L34.4156 31.9254H30.5553L31.075 29.3969C31.4727 27.4337 32.5589 26.4384 34.3026 26.4384C34.7561 26.4384 34.6287 26.4774 35.0328 26.554L35.5915 24.3867C35.0536 24.2256 34.5716 24.1295 33.5217 24.1295C32.4133 24.1128 31.3312 24.4673 30.4474 25.1364C29.4691 25.8927 28.8233 27.0036 28.5284 28.438L27.8046 31.9254H24.3874L24.108 34.0434H27.3824L25.0228 45.8062C24.7629 47.1406 24.0041 48.7362 21.8264 48.7362C21.3327 48.7362 21.512 48.6985 21.0651 48.6257L20.4141 50.8073Z" fill="#0194E2"/>
<path d="M48.7502 35.1876C46.557 33.6529 43.5709 33.9547 41.7291 35.897C39.8873 37.8394 39.7445 40.8372 41.3934 42.9458L43.0396 41.7375C42.2224 40.7237 42.0565 39.3322 42.6123 38.1547C43.1681 36.9772 44.348 36.2209 45.65 36.2076L45.611 37.4939L48.7502 35.1876Z" fill="#43C9ED"/>
<path d="M36.214 44.9808H33.7012L37.1457 29.1562H39.6586L36.214 44.9808Z" fill="#0194E2"/>
<path d="M49.9675 36.385C49.9129 36.3096 49.8557 36.2356 49.7973 36.1641L48.2121 37.3335C49.107 38.3238 49.3392 39.7463 48.8055 40.9698C48.272 42.1932 47.0715 42.9909 45.7369 43.0089L45.7758 41.7239L42.6016 44.0627C44.777 45.5276 47.6904 45.2171 49.5083 43.3269C51.3262 41.4365 51.5226 38.5132 49.974 36.3967L49.9675 36.385Z" fill="#0194E2"/>
<path d="M53.0156 34.5156H55.7611L56.3198 41.7204L60.2295 34.5156L62.8359 34.5533L63.8598 41.7204L67.3043 34.5156L69.8171 34.5533L64.6043 45.0714H62.0914L60.8804 37.5314L56.8785 45.0714H54.2721L53.0156 34.5156Z" fill="#0194E2"/>
<path d="M71.3325 34.704H70.8125V34.5234H72.0651V34.7079H71.5457V36.2307H71.3325V34.704Z" fill="#0194E2"/>
<path d="M72.3809 34.5234H72.6409L72.9681 35.433C73.0102 35.5499 73.0489 35.6694 73.089 35.789H73.1012C73.1412 35.6694 73.1779 35.5499 73.2179 35.433L73.5425 34.5234H73.8025V36.2307H73.6002V35.2888C73.6002 35.1393 73.6165 34.934 73.6273 34.782H73.6165L73.4868 35.1718L73.1643 36.0567H73.0231L72.6966 35.1731L72.5669 34.7833H72.5567C72.5682 34.9353 72.5852 35.1406 72.5852 35.29V36.232H72.3876L72.3809 34.5234Z" fill="#0194E2"/>
</g>
<defs>
<clipPath id="clip0_1614_4950">
<rect width="74" height="74" fill="white"/>
</clipPath>
</defs>
</svg>
