<svg width="74" height="74" viewBox="0 0 74 74" fill="none" xmlns="http://www.w3.org/2000/svg">
<path d="M31.2162 28.4147C26.9395 25.9456 24.8544 20.9117 26.1325 16.1416C27.4107 11.3716 31.7333 8.05469 36.6717 8.05469C41.61 8.05469 45.9327 11.3716 47.2108 16.1416C48.4889 20.9117 46.4038 25.9456 42.1271 28.4147L38.842 22.7247C40.5434 21.7424 41.3729 19.7398 40.8644 17.8421C40.356 15.9445 38.6363 14.6249 36.6717 14.6249C34.707 14.6249 32.9874 15.9445 32.4789 17.8421C31.9704 19.7398 32.7999 21.7424 34.5013 22.7247L31.2162 28.4147Z" fill="#FF0101"/>
<path d="M54.5807 31.054C58.8574 33.5232 60.9425 38.557 59.6643 43.3271C58.3862 48.0972 54.0636 51.4141 49.1252 51.4141C44.1869 51.4141 39.8642 48.0972 38.5861 43.3271C37.3079 38.557 39.393 33.5232 43.6698 31.054L46.9549 36.744C45.2535 37.7263 44.424 39.7289 44.9324 41.6266C45.4409 43.5243 47.1606 44.8438 49.1252 44.8438C51.0898 44.8438 52.8095 43.5243 53.318 41.6266C53.8265 39.7289 52.997 37.7263 51.2956 36.744L54.5807 31.054Z" fill="#0101FF"/>
<path d="M35.3631 40.5049C35.3631 45.4433 32.0462 49.7659 27.2761 51.044C22.5061 52.3222 17.4722 50.2371 15.0031 45.9604C12.5339 41.6836 13.2451 36.2817 16.737 32.7897C20.2289 29.2978 25.6309 28.5866 29.9076 31.0558L26.6225 36.7458C24.9211 35.7635 22.7721 36.0464 21.3829 37.4356C19.9937 38.8248 19.7107 40.9739 20.693 42.6753C21.6754 44.3767 23.678 45.2062 25.5756 44.6977C27.4733 44.1892 28.7929 42.4695 28.7929 40.5049H35.3631Z" fill="#01FF01"/>
<path d="M16.6568 54.0335C17.5803 53.9505 18.5139 53.9512 19.4327 54.0828C19.999 54.1831 20.5997 54.3296 21.025 54.7423C21.4707 55.2397 21.5804 55.9305 21.6783 56.5673C21.8389 57.8887 21.8201 59.2289 21.6783 60.551C21.5835 61.1964 21.4903 61.8935 21.0673 62.4183C20.606 62.8867 19.9246 63.0198 19.2995 63.1185C18.3768 63.2337 17.4408 63.2603 16.5142 63.1679C15.8868 63.1037 15.232 62.9932 14.6978 62.6353C14.3524 62.416 14.1668 62.029 14.0407 61.6538C13.7877 60.8721 13.7556 60.0419 13.7211 59.2273C13.7172 58.1511 13.7376 57.0639 13.9475 56.0049C14.061 55.5107 14.1989 54.9671 14.6164 54.6374C15.2046 54.2105 15.9526 54.1071 16.6568 54.0335ZM16.8095 55.5084C16.421 55.5671 15.937 55.5992 15.7028 55.9611C15.4983 56.5008 15.5054 57.0898 15.4639 57.6576C15.4443 58.6704 15.3934 59.6926 15.55 60.6975C15.608 61.0366 15.727 61.4408 16.1038 61.5403C16.9207 61.7901 17.7949 61.7478 18.6369 61.7001C19.0567 61.6358 19.6136 61.5998 19.818 61.1604C20.0522 60.4915 20.0358 59.7693 20.0648 59.0706C20.0554 58.0884 20.1102 57.0874 19.8752 56.1264C19.8188 55.7849 19.4648 55.6392 19.1648 55.5789C18.3909 55.4269 17.592 55.4457 16.8095 55.5084ZM25.0604 57.0945C25.6212 56.7381 26.3175 56.6801 26.9645 56.7389C27.5684 56.7906 28.2389 56.9958 28.5624 57.5519C28.9485 58.2498 28.9705 59.0746 28.9971 59.8531C28.9799 60.6536 28.965 61.4894 28.6344 62.2335C28.4457 62.6854 28.0117 62.9815 27.5473 63.0982C26.8361 63.2728 26.0544 63.2916 25.369 63.0081C24.9985 62.8632 24.7424 62.5483 24.5301 62.2256V65.8842H22.9636C22.9644 62.8561 22.962 59.8273 22.9644 56.7992C23.4712 56.7968 23.9779 56.7968 24.4839 56.7992C24.4667 57.1109 24.4495 57.4219 24.4408 57.7344C24.6288 57.5049 24.8035 57.2527 25.0604 57.0945ZM25.5703 57.9122C25.1975 57.9412 24.7918 58.126 24.686 58.5161C24.4863 59.2038 24.5215 59.9322 24.5505 60.6403C24.5991 61.1016 24.6562 61.6961 25.1474 61.9029C25.6753 62.1073 26.2847 62.0964 26.8188 61.9217C27.281 61.7588 27.3483 61.2152 27.3969 60.7954C27.4454 60.0998 27.4627 59.3902 27.3264 58.7033C27.2802 58.437 27.1431 58.1621 26.8831 58.05C26.4726 57.8691 26.0089 57.8785 25.5703 57.9122ZM30.8714 57.1062C31.6414 56.7107 32.5429 56.6966 33.3881 56.7365C34.0914 56.7953 34.9452 56.9127 35.3329 57.5856C35.77 58.3978 35.6987 59.3534 35.7598 60.2447H31.4746C31.5247 60.7045 31.4652 61.2003 31.697 61.6217C31.8952 61.9546 32.3158 62.0228 32.6714 62.0423C33.1108 62.0455 33.5839 62.0815 33.9888 61.8771C34.2207 61.6954 34.2222 61.3727 34.252 61.1063C34.7533 61.1056 35.2546 61.1056 35.7559 61.1063C35.7371 61.6296 35.6697 62.2154 35.2499 62.5836C34.6194 63.1491 33.717 63.2078 32.9103 63.2235C32.1983 63.2024 31.4464 63.1663 30.8088 62.8154C30.2926 62.5107 30.1281 61.8849 30.0373 61.3335C29.9221 60.5142 29.8931 59.6792 29.9911 58.8568C30.0709 58.2075 30.2456 57.4438 30.8714 57.1062ZM31.7871 58.1033C31.4597 58.4017 31.4918 58.8968 31.4777 59.3025C32.3988 59.3072 33.3199 59.3048 34.2418 59.3033C34.2403 58.9383 34.2755 58.5404 34.0781 58.2153C33.8846 57.9521 33.522 57.9349 33.2244 57.9028C32.7442 57.8957 32.2147 57.8433 31.7871 58.1033ZM39.0957 57.1023C39.6377 56.7263 40.3379 56.6739 40.9755 56.7475C41.5183 56.8047 42.0932 57.0114 42.4136 57.4798C42.6979 57.8683 42.777 58.3634 42.7809 58.8341C42.7786 60.2706 42.7817 61.7063 42.7802 63.1428C42.2836 63.1436 41.7878 63.1436 41.2927 63.1428C41.2904 61.7839 41.2943 60.4257 41.2904 59.0675C41.2755 58.7707 41.2873 58.4276 41.064 58.1989C40.8259 57.9412 40.4523 57.891 40.1194 57.8934C39.7168 57.891 39.2813 57.96 38.9712 58.238C38.668 58.4965 38.5529 58.9132 38.5513 59.2986C38.549 60.58 38.5521 61.8614 38.5498 63.142C38.054 63.1436 37.5582 63.1436 37.0631 63.1428C37.0623 61.028 37.0623 58.9132 37.0631 56.7984C37.5503 56.7968 38.0383 56.7976 38.5255 56.7984C38.5231 57.1697 38.4863 57.5386 38.4754 57.9098C38.6351 57.6099 38.8028 57.2934 39.0957 57.1023ZM45.4738 54.3233C46.2947 54.0476 47.1696 54.0084 48.028 53.9779C48.8598 53.9818 49.7293 53.9896 50.5063 54.3249C50.901 54.4893 51.1744 54.8496 51.3075 55.2475C51.5245 55.842 51.5308 56.4859 51.5355 57.1117C50.9629 57.1117 50.3903 57.1133 49.8186 57.1109C49.8092 56.6707 49.8428 56.1773 49.5703 55.8029C49.2946 55.5209 48.8638 55.5217 48.498 55.4786C47.7539 55.4645 46.9792 55.4167 46.2665 55.6736C46.0096 55.7551 45.8764 56.012 45.8247 56.2595C45.6782 56.9237 45.6775 57.6091 45.6782 58.2866C45.6869 59.192 45.6728 60.1108 45.8662 61.0014C45.9171 61.3272 46.2171 61.5277 46.5179 61.5998C47.2134 61.7729 47.9395 61.7478 48.6499 61.7055C49.0204 61.657 49.4716 61.6327 49.7042 61.2928C49.9525 60.887 49.911 60.3881 49.8977 59.9322C50.4757 59.9299 51.053 59.9307 51.631 59.9322C51.624 60.652 51.6115 61.3954 51.3498 62.0768C51.2151 62.4332 50.9371 62.7355 50.5768 62.8718C49.8695 63.1554 49.094 63.1734 48.3437 63.2188C47.4735 63.2337 46.5923 63.2125 45.7417 63.0097C45.2427 62.8796 44.6976 62.6509 44.4665 62.1551C44.1712 61.4995 44.1172 60.7703 44.0412 60.0646C43.9778 59.1325 43.937 58.1989 43.9598 57.2652C44.0044 56.5094 44.0733 55.7128 44.4814 55.0541C44.6984 54.6875 45.079 54.458 45.4738 54.3233ZM51.913 54.0593C52.5099 54.0601 53.1067 54.0429 53.7028 54.0679C54.2832 55.9094 54.9207 57.732 55.5066 59.5711C55.7346 60.2776 55.8959 61.0045 56.1317 61.7087C56.3956 60.9489 56.5648 60.1594 56.8233 59.398C57.3959 57.6193 57.9841 55.8459 58.5559 54.0672C59.1449 54.0421 59.7355 54.064 60.3253 54.0562V54.2512C59.3556 57.2065 58.4086 60.1696 57.4585 63.1319C56.5719 63.1499 55.6836 63.1522 54.797 63.1303C53.8524 60.1014 52.8623 57.0866 51.913 54.0593Z" fill="#050505"/>
</svg>
