<svg width="74" height="74" viewBox="0 0 74 74" fill="none" xmlns="http://www.w3.org/2000/svg">
<g clip-path="url(#clip0_1614_4672)">
<path d="M61.3564 31.6914C62.666 27.7477 62.2127 23.431 60.1125 19.8454C56.9546 14.3485 50.6076 11.521 44.4091 12.8496C40.9159 8.96402 35.6158 7.23619 30.5038 8.31649C25.3918 9.39679 21.2439 13.1212 19.6214 18.0879C15.5497 18.9228 12.0355 21.4722 9.97796 25.0836C6.78568 30.5716 7.51025 37.4942 11.7697 42.2022C10.4552 46.1441 10.9044 50.4614 13.0022 54.0482C16.1641 59.5469 22.5152 62.3742 28.7171 61.044C31.4756 64.1503 35.4387 65.9177 39.593 65.8945C45.9466 65.9001 51.5753 61.7985 53.5161 55.7486C57.5872 54.9123 61.1009 52.3633 63.1596 48.7529C66.3133 43.2746 65.5856 36.3894 61.3564 31.6914ZM39.593 62.1053C37.057 62.1094 34.6006 61.2205 32.6543 59.5946L32.9967 59.4006L44.5232 52.7472C45.1068 52.4049 45.4667 51.7804 45.4704 51.1038V34.8526L50.3435 37.6715C50.3922 37.6963 50.4262 37.743 50.4348 37.797V51.2636C50.4222 57.2461 45.5756 62.0928 39.593 62.1053ZM16.289 52.1538C15.0172 49.9577 14.5606 47.3836 14.9994 44.8841L15.3418 45.0895L26.8797 51.7429C27.461 52.0841 28.1814 52.0841 28.7627 51.7429L42.857 43.6173V49.2436C42.8543 49.3026 42.8249 49.3573 42.7771 49.392L31.1022 56.1253C25.9143 59.114 19.286 57.3369 16.289 52.1538ZM13.2533 27.0466C14.5339 24.8364 16.5553 23.1506 18.9595 22.2876V35.9824C18.9507 36.6563 19.3092 37.2816 19.8953 37.6144L33.9211 45.7058L29.048 48.5246C28.9945 48.553 28.9304 48.553 28.8768 48.5246L17.2248 41.8027C12.047 38.8016 10.2713 32.1783 13.2533 26.9895V27.0466ZM53.2879 36.3476L39.2164 28.1764L44.0781 25.3689C44.1316 25.3405 44.1958 25.3405 44.2493 25.3689L55.9013 32.1022C59.538 34.2008 61.636 38.2104 61.2867 42.3946C60.9374 46.5788 58.2036 50.1851 54.2693 51.6516V37.9568C54.2489 37.2848 53.8759 36.6734 53.2879 36.3476ZM58.1381 29.0551L57.7958 28.8497L46.2807 22.1392C45.6958 21.7961 44.9711 21.7961 44.3862 22.1392L30.3034 30.2648V24.6386C30.2973 24.5803 30.3236 24.5233 30.3719 24.4902L42.0239 17.7683C45.6695 15.6681 50.2004 15.8641 53.651 18.2712C57.1017 20.6784 58.8502 24.8629 58.1381 29.0095V29.0551ZM27.6443 39.0295L22.7712 36.2221C22.722 36.1923 22.6885 36.1421 22.6799 36.0851V22.6528C22.6855 18.4464 25.1212 14.6219 28.9307 12.8382C32.7402 11.0544 37.2373 11.6325 40.4718 14.3218L40.1294 14.5158L28.6029 21.1692C28.0194 21.5115 27.6594 22.136 27.6557 22.8126L27.6443 39.0295ZM30.292 33.3234L36.5688 29.7056L42.857 33.3234V40.5588L36.5916 44.1765L30.3034 40.5588L30.292 33.3234Z" fill="black"/>
</g>
<defs>
<clipPath id="clip0_1614_4672">
<rect width="58" height="58" fill="white" transform="translate(8 8)"/>
</clipPath>
</defs>
</svg>
