<svg width="74" height="74" viewBox="0 0 74 74" fill="none" xmlns="http://www.w3.org/2000/svg">
<path d="M37.0099 7V15.72L23.6117 29.1177C16.5997 36.2295 16.6004 47.6699 23.6139 54.9107L23.8286 55.1289C30.9938 62.4293 42.7556 62.4293 50.0561 55.1289C57.2835 48.0353 57.3558 36.4366 50.2729 29.1217L50.0561 28.9013L54.5175 24.44C64.2514 34.1739 64.2514 49.7887 54.5175 59.5902C44.9863 69.3242 29.3039 69.3242 19.57 59.5902C9.93339 49.9537 9.83702 34.4869 19.2809 24.7337L19.57 24.44L37.0099 7ZM45.7975 16.8691C47.5895 16.8691 49.0421 18.3218 49.0421 20.1138C49.0421 21.9057 47.5895 23.3584 45.7975 23.3584C44.0055 23.3584 42.5529 21.9057 42.5529 20.1138C42.5529 18.3218 44.0055 16.8691 45.7975 16.8691Z" fill="#EE4C2C"/>
</svg>
