<svg width="68" height="68" viewBox="0 0 68 68" fill="none" xmlns="http://www.w3.org/2000/svg">
<g clip-path="url(#clip0_1307_1996)">
<path d="M39.0247 10.698C36.5099 7.71425 34.3443 4.68388 33.9019 4.0545C33.8554 4.00788 33.7855 4.00788 33.7389 4.0545C33.2965 4.68388 31.131 7.71425 28.6161 10.698C7.03063 38.2277 32.0158 56.8063 32.0158 56.8063L32.2254 56.9462C32.4116 59.8132 32.8774 63.9393 32.8774 63.9393H33.8088H34.7402C34.7402 63.9393 35.2059 59.8365 35.3922 56.9462L35.6018 56.783C35.625 56.8063 60.6103 38.2277 39.0247 10.698ZM33.8088 56.3866C33.8088 56.3866 32.6911 55.4309 32.3884 54.9415V54.8947L33.7389 24.9174C33.7389 24.8242 33.8787 24.8242 33.8787 24.9174L35.2292 54.8947V54.9415C34.9265 55.4309 33.8088 56.3866 33.8088 56.3866Z" fill="#01EC64"/>
</g>
<defs>
<clipPath id="clip0_1307_1996">
<rect width="60" height="60" fill="white" transform="translate(4.02051 4.01953)"/>
</clipPath>
</defs>
</svg>
