<svg width="68" height="68" viewBox="0 0 68 68" fill="none" xmlns="http://www.w3.org/2000/svg">
<g clip-path="url(#clip0_1307_2020)">
<path d="M59.5385 39.2636C59.2288 38.3258 58.4176 37.6725 57.3683 37.5156C56.8736 37.4418 56.307 37.4733 55.6366 37.6115C54.4681 37.8526 53.6011 37.9443 52.9684 37.9622C55.3565 33.93 57.2985 29.3317 58.4165 25.0033C60.2242 18.0045 59.2582 14.816 58.1294 13.3737C55.1419 9.55656 50.7833 7.50578 45.5248 7.44292C42.7199 7.40868 40.2572 7.96253 38.9727 8.36071C37.7766 8.14981 36.4905 8.03196 35.141 8.01013C32.6118 7.96981 30.3768 8.52115 28.4671 9.65438C27.4097 9.297 25.713 8.79301 23.7535 8.47129C19.1448 7.71466 15.4304 8.30429 12.7135 10.2236C9.4236 12.5476 7.8984 16.5852 8.18051 22.2245C8.26997 24.015 9.27163 29.4624 10.8486 34.6289C11.7549 37.5983 12.7214 40.0643 13.7211 41.9588C15.1389 44.6453 16.6558 46.2274 18.3589 46.7954C19.3135 47.1135 21.0479 47.3361 22.8721 45.8171C23.1033 46.097 23.4116 46.3753 23.8212 46.6337C24.341 46.9616 24.9768 47.2295 25.6117 47.3883C27.8999 47.9604 30.0433 47.8172 31.8718 47.0155C31.883 47.3407 31.8917 47.6514 31.8991 47.9197C31.9113 48.355 31.9232 48.7817 31.9392 49.1807C32.0475 51.8792 32.2311 53.9773 32.7751 55.4453C32.8049 55.5261 32.8451 55.6491 32.8876 55.7795C33.1588 56.6105 33.6127 58.0013 34.767 59.0908C35.9627 60.2191 37.4086 60.5653 38.733 60.5652C39.3972 60.5652 40.0309 60.4781 40.5867 60.3589C42.5682 59.9344 44.8184 59.2874 46.4462 56.9696C47.9851 54.7784 48.7333 51.4783 48.8687 46.2781C48.8862 46.1311 48.9024 45.9907 48.918 45.8569C48.9285 45.7666 48.9393 45.6742 48.9501 45.5821L49.3128 45.614L49.4062 45.6203C51.4243 45.7123 53.8918 45.2843 55.4072 44.5804C56.6048 44.0246 60.442 41.9989 59.5385 39.2636Z" fill="black"/>
<path d="M56.0877 39.7958C50.0873 41.0336 49.6748 39.002 49.6748 39.002C56.0103 29.6012 58.6587 17.6684 56.3731 14.7479C50.138 6.7813 39.3447 10.549 39.1646 10.6468L39.1066 10.6572C37.9211 10.4111 36.5944 10.2645 35.1033 10.2401C32.3882 10.1956 30.3287 10.9519 28.766 12.137C28.766 12.137 9.51176 4.20506 10.4072 22.113C10.5977 25.9228 15.8677 50.9395 22.1535 43.3833C24.451 40.6202 26.6708 38.284 26.6708 38.284C27.7734 39.0164 29.0933 39.39 30.477 39.2558L30.5845 39.1646C30.5511 39.5076 30.5664 39.8432 30.6276 40.2404C29.0082 42.0496 29.4841 42.3673 26.247 43.0336C22.9715 43.7087 24.8957 44.9105 26.152 45.2246C27.6751 45.6055 31.1987 46.145 33.5796 42.8121L33.4846 43.1924C34.1191 43.7006 34.5646 46.498 34.4899 49.0338C34.4153 51.5697 34.3654 53.3107 34.8653 54.6706C35.3653 56.0304 35.8635 59.0901 40.119 58.1783C43.6748 57.4163 45.5174 55.4416 45.7738 52.1478C45.9557 49.806 46.3673 50.1522 46.3933 48.0586L46.7235 47.0674C47.1043 43.8931 46.784 42.869 48.9747 43.3453L49.5071 43.3921C51.1195 43.4655 53.2298 43.1328 54.4683 42.5571C57.1354 41.3194 58.7171 39.2528 56.0874 39.7958H56.0877Z" fill="#336791"/>
<path d="M29.8933 23.815C29.3527 23.7397 28.8629 23.8094 28.6151 23.9969C28.4757 24.1024 28.4326 24.2247 28.421 24.3089C28.3899 24.5319 28.5462 24.7783 28.6421 24.9055C28.9136 25.2654 29.3103 25.5128 29.703 25.5673C29.7599 25.5752 29.8164 25.579 29.8727 25.579C30.5276 25.579 31.1229 25.0691 31.1754 24.6928C31.241 24.2215 30.5567 23.9073 29.8933 23.815Z" fill="white"/>
<path d="M47.8066 23.8307C47.755 23.4613 47.0974 23.3559 46.4735 23.4427C45.8506 23.5295 45.2464 23.8107 45.2969 24.1809C45.3375 24.4689 45.8572 24.9605 46.4727 24.9603C46.5246 24.9603 46.5771 24.9569 46.6299 24.9495C47.0408 24.8926 47.3422 24.6317 47.4853 24.4813C47.7035 24.2523 47.8296 23.9967 47.8066 23.8307Z" fill="white"/>
<path d="M58.0842 39.6563C57.8554 38.9644 57.119 38.7417 55.8955 38.9945C52.2627 39.7442 50.9618 39.2248 50.5345 38.9103C53.3583 34.6085 55.6811 29.4089 56.9343 24.5574C57.5279 22.2594 57.8559 20.1252 57.8826 18.3858C57.9122 16.4762 57.5871 15.0733 56.9164 14.2162C54.2122 10.7609 50.2437 8.90759 45.4397 8.85665C42.1371 8.81955 39.3467 9.66482 38.8058 9.90244C37.6666 9.61913 36.4247 9.44521 35.0728 9.42303C32.5934 9.38295 30.4504 9.97652 28.676 11.1863C27.9053 10.8996 25.9135 10.2158 23.4778 9.82347C19.2665 9.14533 15.9201 9.6591 13.532 11.3509C10.6825 13.3698 9.36696 16.9784 9.62187 22.0765C9.70764 23.7918 10.6848 29.0683 12.2272 34.1215C14.2574 40.7723 16.464 44.5375 18.7861 45.3119C19.0578 45.4026 19.3713 45.466 19.7168 45.466C20.5638 45.466 21.6022 45.0842 22.6827 43.7853C24.4774 41.6262 26.153 39.817 26.7707 39.1596C27.6835 39.6496 28.6861 39.9231 29.7118 39.9506C29.7136 39.9774 29.7163 40.0042 29.7187 40.031C29.513 40.275 29.3442 40.4889 29.2003 40.6715C28.4897 41.5736 28.3418 41.7613 26.0543 42.2324C25.4038 42.3666 23.6754 42.7228 23.6502 43.9341C23.6227 45.2576 25.6929 45.8135 25.9289 45.8724C26.7509 46.0782 27.5427 46.1797 28.2979 46.1797C30.1347 46.1796 31.7509 45.576 33.0427 44.4081C33.0028 49.1265 33.1996 53.7759 33.7661 55.1926C34.23 56.3521 35.3636 59.1864 38.9442 59.1862C39.4695 59.1862 40.0479 59.1251 40.684 58.9887C44.4208 58.1875 46.0435 56.536 46.6713 52.8948C47.0072 50.9489 47.5837 46.302 47.8547 43.8095C48.427 43.9879 49.1637 44.0696 49.96 44.0695C51.621 44.0695 53.5374 43.7167 54.7394 43.1588C56.0895 42.5318 58.526 40.993 58.0842 39.6563ZM49.1853 22.813C49.1729 23.5489 49.0716 24.2169 48.9642 24.9142C48.8488 25.6642 48.7292 26.4395 48.6992 27.3808C48.6695 28.2968 48.7839 29.2492 48.8946 30.1701C49.1181 32.0303 49.3475 33.9454 48.4594 35.8352C48.3214 35.59 48.1881 35.3226 48.066 35.0264C47.9557 34.7588 47.716 34.329 47.3843 33.7342C46.0931 31.4188 43.0697 25.9967 44.6174 23.7842C45.0783 23.1255 46.2483 22.4486 49.1853 22.813ZM45.6254 10.3468C49.9297 10.4419 53.3345 12.0521 55.7453 15.1326C57.5943 17.4954 55.5583 28.2467 49.6642 37.5219C49.606 37.4479 49.5467 37.3732 49.4854 37.2967C49.4609 37.266 49.436 37.2349 49.4108 37.2034C50.9339 34.688 50.636 32.1993 50.371 29.9927C50.2621 29.0872 50.1592 28.2319 50.1854 27.4287C50.2124 26.577 50.325 25.8468 50.4338 25.1406C50.5678 24.2703 50.7039 23.3699 50.6663 22.3084C50.6944 22.1971 50.7057 22.0655 50.691 21.9094C50.5951 20.8914 49.433 17.8452 47.0642 15.0876C45.7686 13.5796 43.879 11.8918 41.2991 10.7534C42.4088 10.5234 43.9264 10.309 45.6254 10.3468ZM21.5393 42.8346C20.349 44.2658 19.5269 43.9915 19.2566 43.9015C17.495 43.3138 15.4513 39.591 13.6494 33.6874C12.0902 28.5792 11.1789 23.4426 11.1069 22.0022C10.8792 17.4469 11.9834 14.272 14.3891 12.566C18.304 9.78959 24.7408 11.4514 27.3271 12.2943C27.2899 12.3309 27.2513 12.3652 27.2144 12.4025C22.9703 16.6888 23.071 24.012 23.0814 24.4596C23.081 24.6323 23.0954 24.8769 23.1154 25.2133C23.1884 26.4449 23.3242 28.7374 22.9612 31.3335C22.6238 33.746 23.3674 36.1073 25.0012 37.8119C25.1703 37.9883 25.3469 38.154 25.5292 38.3099C24.802 39.0887 23.2215 40.8109 21.5393 42.8346ZM26.0747 36.783C24.7579 35.4092 24.16 33.4981 24.4338 31.5394C24.8172 28.7969 24.6756 26.4084 24.5996 25.1252C24.589 24.9457 24.5796 24.7884 24.574 24.6642C25.1941 24.1145 28.0673 22.5749 30.1163 23.0444C31.0515 23.2586 31.6211 23.8953 31.858 24.9906C33.084 30.6606 32.0204 33.0239 31.1657 34.923C30.9895 35.3142 30.8231 35.684 30.6809 36.0667L30.5708 36.3624C30.2919 37.1102 30.0324 37.8054 29.8716 38.4657C28.4719 38.4614 27.1102 37.8635 26.0747 36.783ZM26.2896 44.4299C25.8809 44.3278 25.5133 44.1504 25.2976 44.0033C25.4777 43.9185 25.7984 43.8033 26.3544 43.6888C29.0453 43.1347 29.4608 42.7438 30.3684 41.5915C30.5765 41.3274 30.8123 41.0278 31.139 40.6631L31.1393 40.6626C31.6259 40.1179 31.8484 40.2102 32.2519 40.3776C32.579 40.513 32.8975 40.9229 33.0267 41.374C33.0877 41.5871 33.1565 41.9916 32.9318 42.3061C31.036 44.9605 28.2736 44.9264 26.2896 44.4299ZM40.3724 57.5349C37.0804 58.2402 35.9148 56.5605 35.1468 54.6404C34.651 53.4006 34.4074 47.8105 34.5803 41.6373C34.5825 41.5551 34.5708 41.4758 34.5482 41.4012C34.5285 41.2572 34.4982 41.1116 34.4562 40.965C34.199 40.0667 33.5726 39.3154 32.8211 39.0039C32.5226 38.8802 31.9744 38.6532 31.3159 38.8216C31.4564 38.243 31.7 37.5896 31.9639 36.882L32.0748 36.5843C32.1995 36.2487 32.3559 35.9011 32.5215 35.5332C33.4159 33.5462 34.6409 30.8246 33.3114 24.6762C32.8134 22.3734 31.1505 21.2489 28.6296 21.51C27.1183 21.6664 25.7357 22.2762 25.0461 22.6258C24.8979 22.701 24.7622 22.7735 24.6356 22.8442C24.828 20.5239 25.5553 16.1877 28.2755 13.4442C29.9881 11.7169 32.2691 10.8639 35.0482 10.9098C40.5241 10.9995 44.0355 13.8097 46.0172 16.1514C47.7248 18.1694 48.6495 20.202 49.0186 21.2983C46.2434 21.0162 44.3559 21.564 43.399 22.9319C41.3175 25.9074 44.5378 31.6828 46.0856 34.4584C46.3694 34.9671 46.6144 35.4067 46.6915 35.5935C47.1954 36.815 47.8479 37.6304 48.3244 38.2258C48.4704 38.4082 48.6121 38.5851 48.7198 38.7396C47.8793 38.9819 46.3695 39.5418 46.507 42.3403C46.3961 43.7447 45.6069 50.3193 45.2061 52.6422C44.6769 55.711 43.5476 56.8541 40.3724 57.5349ZM54.1132 41.8101C53.2538 42.2091 51.8154 42.5084 50.449 42.5726C48.9398 42.6433 48.1716 42.4036 47.9908 42.2561C47.9059 40.5122 48.5552 40.3299 49.2422 40.137C49.3501 40.1066 49.4554 40.0771 49.5571 40.0416C49.6203 40.093 49.6895 40.144 49.7652 40.194C50.9783 40.9947 53.1419 41.081 56.1962 40.4506C56.2074 40.4482 56.2187 40.4461 56.2297 40.4438C55.8178 40.829 55.1129 41.346 54.1132 41.8101Z" fill="white"/>
</g>
<defs>
<clipPath id="clip0_1307_2020">
<rect width="53.2653" height="53.2653" fill="white" transform="translate(7.36719 7.36719)"/>
</clipPath>
</defs>
</svg>
