<svg width="68" height="68" viewBox="0 0 68 68" fill="none" xmlns="http://www.w3.org/2000/svg">
<g clip-path="url(#clip0_1307_2989)">
<g clip-path="url(#clip1_1307_2989)">
<path d="M45.7672 24.0234L38.2621 26.4741L31.7328 29.3559L29.9061 29.8381C29.4409 30.2806 28.9531 30.7288 28.4255 31.1826C27.8469 31.6818 27.308 32.1357 26.8938 32.4646C26.4343 32.8277 25.7536 33.5085 25.4076 33.9395C24.8913 34.5862 24.4829 35.2726 24.307 35.8002C23.995 36.7533 24.1482 37.7176 24.7495 38.6083C25.521 39.7428 27.0584 40.9 28.8509 41.6886C29.7643 42.0914 31.3016 42.6076 32.4588 42.8969C34.3818 43.3848 38.1032 43.9123 40.1511 43.9918C40.5651 44.0088 41.1211 44.0088 41.1437 43.9918C41.1892 43.9633 41.5069 43.3564 41.8757 42.602C43.135 40.0321 44.0426 37.6212 44.5361 35.562C44.8311 34.3141 45.0637 32.6519 45.2168 30.6835C45.2566 30.1332 45.2735 28.2896 45.2395 27.6655C45.1884 26.6444 45.0976 25.8162 44.9559 25.005C44.9332 24.8859 44.9275 24.7781 44.9389 24.7724C44.9615 24.7554 45.0296 24.7327 45.9542 24.466L45.7671 24.0236V24.0235H45.7672V24.0234ZM44.054 25.0276C44.1221 25.0276 44.3036 26.7691 44.3489 27.8697C44.3603 28.1023 44.3546 28.2554 44.3433 28.2554C44.298 28.2554 43.3846 27.7166 42.7323 27.3081C42.165 26.9507 41.0872 26.2359 40.917 26.0998C40.8602 26.0601 40.8659 26.0544 41.3311 25.8956C42.1195 25.6289 43.9917 25.0276 44.054 25.0276ZM40.2306 26.287C40.2817 26.287 40.412 26.3606 40.7241 26.5536C41.8926 27.2854 43.4811 28.1703 44.1618 28.4654C44.3716 28.5561 44.3943 28.522 43.9122 28.8511C42.8797 29.5545 41.5919 30.2466 40.0149 30.9443C39.737 31.0691 39.5044 31.1655 39.4988 31.1655C39.4875 31.1655 39.5214 31.0238 39.5667 30.8536C39.9468 29.441 40.1624 28.0115 40.1738 26.8655C40.1795 26.2982 40.1795 26.2982 40.2306 26.2813C40.2192 26.287 40.2248 26.287 40.2306 26.287ZM39.4421 26.5876C39.476 26.6216 39.4534 27.8924 39.408 28.2384C39.3059 29.0666 39.147 29.8381 38.8862 30.7061C38.8237 30.9159 38.7669 31.0918 38.7557 31.1031C38.7329 31.1315 37.9557 30.3713 37.7005 30.0763C37.258 29.5658 36.912 29.0552 36.6567 28.556C36.5262 28.3008 36.3221 27.8016 36.339 27.7845C36.4298 27.7222 39.4194 26.5649 39.4421 26.5876ZM35.732 28.0455C35.7377 28.0455 35.7433 28.0455 35.7491 28.0511C35.7604 28.0625 35.8001 28.1533 35.8342 28.2554C36.0156 28.7489 36.424 29.475 36.7758 29.9402C37.1616 30.4508 37.6665 30.9953 38.0862 31.3527C38.2224 31.4662 38.3471 31.5739 38.3641 31.591C38.3982 31.625 38.4095 31.6193 37.4848 31.9711C36.4128 32.3795 35.2441 32.7879 33.9053 33.219C33.5855 33.3221 33.266 33.4261 32.9468 33.5311C32.8956 33.5481 32.9127 33.5197 33.0602 33.2872C33.7239 32.249 34.7336 30.2125 35.3009 28.7716C35.3973 28.522 35.4938 28.2724 35.5108 28.2157C35.5335 28.1362 35.5618 28.1079 35.6356 28.0681C35.6753 28.0569 35.715 28.0455 35.732 28.0455ZM34.5976 28.5163C34.6145 28.5277 34.3252 29.1347 34.0416 29.6906C33.4913 30.7627 32.89 31.818 32.0844 33.1C31.9483 33.3212 31.8179 33.5255 31.8008 33.5481C31.7725 33.5879 31.7611 33.5765 31.6703 33.4006C31.4775 33.0206 31.3186 32.5327 31.2335 32.0845C31.1484 31.642 31.1654 30.8705 31.2619 30.394C31.3356 30.0424 31.33 30.048 31.5002 29.9629C32.2263 29.5942 34.5748 28.4937 34.5976 28.5163ZM44.3831 28.9135V29.1517C44.3831 30.4168 44.2469 32.1526 44.0483 33.4177C44.0143 33.6389 43.9858 33.8204 43.9802 33.8261C43.9802 33.8261 43.8157 33.7808 43.6229 33.724C42.772 33.4573 41.8473 33.0659 41.0134 32.6065C40.463 32.3058 39.6632 31.8122 39.686 31.7895C39.6915 31.7839 39.9298 31.6591 40.2078 31.5116C41.3198 30.933 42.3862 30.309 43.3108 29.6907C43.6569 29.458 44.1787 29.0837 44.2923 28.9815L44.3831 28.9135ZM30.3145 30.5925C30.3372 30.5925 30.3315 30.6379 30.2975 30.8421C30.2748 30.9897 30.2464 31.262 30.2352 31.4491C30.1897 32.2773 30.3259 32.89 30.7343 33.7296C30.8478 33.9622 30.9386 34.1551 30.9329 34.1607C30.8931 34.1948 27.1378 35.2953 25.9578 35.6186C25.6061 35.715 25.2998 35.8002 25.277 35.8058C25.2374 35.8172 25.2317 35.8115 25.2487 35.715C25.3792 34.8812 26.0145 33.792 26.8995 32.8729C27.4895 32.2603 27.9603 31.9029 28.7658 31.4434C29.3445 31.1144 30.2351 30.621 30.3032 30.5982C30.3032 30.5925 30.3089 30.5925 30.3145 30.5925ZM39.1641 32.1752C39.1697 32.1696 39.3059 32.2434 39.4704 32.3398C40.6844 33.0432 42.3748 33.6956 43.8156 34.0303L43.9462 34.0587L43.7646 34.1607C43.0102 34.5805 40.5312 35.6129 37.9955 36.5603C37.6267 36.6964 37.2637 36.8326 37.1955 36.861C37.1274 36.8893 37.065 36.9063 37.065 36.9007C37.065 36.8949 37.1672 36.6964 37.2976 36.4525C38.0067 35.1251 38.7215 33.5084 39.0846 32.3851C39.13 32.2774 39.1583 32.181 39.1641 32.1752ZM38.2621 32.4703C38.2679 32.476 38.2224 32.5951 38.1657 32.7312C37.6722 33.9282 37.0254 35.233 36.1972 36.6965C35.9873 37.071 35.8114 37.3716 35.8057 37.3716C35.8001 37.3716 35.6299 37.2695 35.4257 37.1447C34.223 36.4072 33.1565 35.4996 32.4588 34.6203L32.3567 34.4955L32.8729 34.3536C34.7222 33.8488 36.2935 33.3042 37.8536 32.6349C38.0749 32.5441 38.2565 32.4703 38.2621 32.4703ZM43.8668 34.4274C43.8725 34.5579 43.5832 35.7265 43.3449 36.5716C43.1463 37.2807 42.9761 37.8367 42.6642 38.818C42.528 39.2493 42.409 39.6066 42.4032 39.6066C42.3976 39.6066 42.3635 39.6009 42.3295 39.5896C40.6447 39.2832 39.1357 38.8578 37.7175 38.2905C37.3204 38.1316 36.7531 37.8764 36.7191 37.848C36.7078 37.8366 37.0482 37.6778 37.4793 37.4906C40.0604 36.3617 42.7379 35.0797 43.6569 34.5295C43.7646 34.4614 43.8498 34.4274 43.8668 34.4274ZM30.9272 34.8699C30.9386 34.8812 30.2181 35.9193 29.2083 37.3318C28.8566 37.8254 28.4482 38.404 28.2951 38.6195C28.1419 38.8351 27.9093 39.1755 27.7788 39.3797L27.5405 39.7485L27.2852 39.5329C26.9845 39.2833 26.4627 38.75 26.2301 38.4551C25.7422 37.8481 25.4132 37.2071 25.2828 36.6229C25.2203 36.3505 25.2203 36.2143 25.277 36.1974C25.3621 36.1747 26.8767 35.8173 28.295 35.4882C29.0835 35.3067 29.9968 35.0912 30.3258 35.0118C30.6549 34.9322 30.9216 34.8699 30.9272 34.8699ZM31.6533 35.1479L31.8348 35.3521C32.6517 36.2654 33.4856 36.9406 34.4954 37.5304C34.6769 37.6326 34.8131 37.7233 34.8016 37.7291C34.762 37.7574 31.2959 38.9883 29.6905 39.5442C28.7886 39.8619 28.0454 40.1171 28.0398 40.1171C28.0341 40.1171 27.9831 40.0832 27.9262 40.0434L27.8242 39.9697L27.9887 39.7314C28.5219 38.9599 29.1914 38.1147 30.6493 36.3562L31.6533 35.1479ZM36.1802 38.387C36.1858 38.3813 36.4354 38.472 36.7417 38.5856C37.4793 38.8635 38.0635 39.0393 38.8464 39.2379C39.8108 39.4819 41.2063 39.7201 42.0289 39.7882C42.1537 39.7995 42.2217 39.8109 42.199 39.8279C42.1592 39.8506 41.3254 40.1286 40.7128 40.3215C39.737 40.6277 36.7588 41.507 34.3309 42.2048C33.8827 42.3353 33.4969 42.4431 33.4743 42.4487C33.4176 42.4601 33.2303 42.409 33.2303 42.3863C33.2303 42.375 33.3665 42.1992 33.531 42.0063C34.3478 41.0305 35.1591 39.9414 35.8342 38.9089C36.0213 38.6252 36.1802 38.3926 36.1802 38.387ZM35.1817 38.4154C35.1874 38.421 34.7847 39.0677 34.0813 40.1796C33.7806 40.6504 33.4459 41.1836 33.3267 41.3708C33.2133 41.5524 33.0431 41.8361 32.9467 41.9949L32.7822 42.2842L32.6971 42.2615C32.4928 42.2048 31.0576 41.6998 30.6775 41.5467C30.2067 41.3595 29.7188 41.1326 29.3557 40.9397C28.902 40.6958 28.3347 40.3327 28.3801 40.3214C28.3914 40.3158 29.1686 40.1058 30.1046 39.8506C32.5893 39.1754 33.9677 38.7841 34.8698 38.5004C35.0343 38.4494 35.1761 38.4096 35.1817 38.4154ZM42.2444 40.0718H42.25C42.2727 40.1285 41.3538 42.6813 41.019 43.4868C40.9453 43.6683 40.917 43.7138 40.8773 43.708C40.7808 43.7024 39.4478 43.5152 38.6364 43.396C37.224 43.1805 34.8527 42.7663 34.2571 42.6302L34.121 42.6019L34.9661 42.4089C36.7815 42.0005 37.6551 41.7793 38.54 41.507C39.6576 41.1666 40.7638 40.7411 41.8813 40.2193C42.0571 40.1398 42.2047 40.0774 42.2444 40.0718Z" fill="url(#paint0_linear_1307_2989)"/>
<path d="M38.0294 6.52763C37.9046 6.51071 35.8907 7.23681 34.5917 7.76432C32.8387 8.47917 31.4773 9.15995 30.6377 9.74979C30.3258 9.97112 29.9343 10.3625 29.872 10.5156C29.8493 10.5724 29.8379 10.6404 29.8379 10.7085L30.5981 11.429L32.4077 12.0076L36.7133 12.7791L41.6372 13.6244L41.6883 13.1989C41.6714 13.1989 41.66 13.1932 41.6431 13.1932L40.9962 13.0911L40.8658 12.8585C40.1964 11.6786 39.459 10.215 39.0279 9.22791C38.6932 8.46207 38.3755 7.5772 38.1996 6.94182C38.1031 6.55607 38.0918 6.53339 38.0295 6.52774V6.52761H38.0294V6.52763ZM37.9385 6.81704H37.9444C37.9499 6.82263 37.9726 6.98158 37.9954 7.16867C38.0917 7.96297 38.2677 8.72868 38.5456 9.55694C38.7555 10.181 38.7555 10.147 38.5116 10.0732C37.933 9.91438 35.3405 9.46622 33.4628 9.20528C33.1622 9.16554 32.9069 9.12586 32.9069 9.12021C32.8842 9.09753 34.2626 8.37702 34.8696 8.09345C35.6468 7.73599 37.7798 6.84537 37.9385 6.81704ZM32.47 9.35842L32.6913 9.43208C33.8939 9.84058 36.9174 10.4192 38.5853 10.5554C38.7724 10.5724 38.9314 10.5894 38.9369 10.5894C38.9426 10.5951 38.7838 10.6802 38.5796 10.7766C37.7741 11.1794 36.8891 11.6729 36.2764 12.053C36.095 12.1664 35.9304 12.2572 35.9077 12.2572C35.885 12.2572 35.766 12.2345 35.6412 12.2175L35.4143 12.1834L34.847 11.6275C33.8486 10.6575 33.0657 9.90868 32.7651 9.62498L32.47 9.35842ZM32.2432 9.53423L33.043 10.5327C33.4798 11.0829 33.9223 11.6218 34.0188 11.7409C34.1151 11.8601 34.1946 11.9566 34.1889 11.9622C34.1662 11.9792 33.0318 11.758 32.4304 11.6219C31.812 11.48 31.5568 11.412 31.1767 11.2929L30.8647 11.1907V11.1112C30.8703 10.7312 31.3526 10.1639 32.1694 9.58535L32.2432 9.53423ZM39.0391 10.8957C39.0619 10.8957 39.0901 10.9468 39.1582 11.0999C39.3511 11.5254 39.9525 12.6713 40.0999 12.8925C40.1454 12.9663 40.2247 12.972 39.4249 12.8415C37.5019 12.5294 36.8835 12.4274 36.8835 12.4161C36.8835 12.4104 36.9402 12.3707 37.0139 12.331C37.6096 12.002 38.2109 11.5822 38.7442 11.134C38.8747 11.0262 38.9938 10.9241 39.0164 10.907C39.0221 10.8957 39.0335 10.8901 39.0391 10.8957Z" fill="url(#paint1_linear_1307_2989)"/>
<path d="M29.9114 10.4375C29.9114 10.4375 29.7867 10.6361 29.9058 10.9311C29.9796 11.1126 30.1952 11.3338 30.4391 11.5608C30.4391 11.5608 32.9634 14.0227 33.2698 14.3745C34.6652 15.9855 35.2723 17.5739 35.329 19.7636C35.363 21.1705 35.0963 22.4071 34.4327 23.8424C33.2527 26.4178 30.7623 29.2599 26.9219 32.414L27.4836 32.2268C27.8466 31.9544 28.3402 31.6652 29.4974 31.0298C32.1692 29.5662 35.1758 28.2217 38.8631 26.8376C44.1727 24.8407 52.9033 22.5035 57.8725 21.7434L58.3888 21.6639L58.3093 21.5391C57.8556 20.8357 57.5435 20.3989 57.1691 19.9338C56.08 18.5836 54.7583 17.4888 53.1415 16.5812C50.9177 15.3389 48.0415 14.3688 44.3997 13.6484C43.7133 13.5122 42.2043 13.2513 40.979 13.0641C38.3809 12.6614 36.7017 12.3834 34.8524 12.0657C34.1888 11.9522 33.196 11.782 32.5379 11.6403C32.1976 11.5664 31.5453 11.4133 31.0347 11.2375C30.6263 11.0785 30.0362 10.9197 29.9114 10.4375ZM31.3751 11.8558C31.3807 11.8502 31.4715 11.8841 31.5907 11.9238C31.8062 11.9975 32.0842 12.0826 32.4133 12.1734C32.6622 12.2419 32.9119 12.3081 33.1621 12.372C33.5024 12.457 33.786 12.5364 33.7917 12.5364C33.8314 12.5762 34.4044 14.4084 34.5973 15.1118C34.6709 15.3785 34.7278 15.6054 34.7221 15.6054C34.7163 15.6111 34.6539 15.5146 34.5802 15.3842C33.9165 14.2155 32.867 13.0299 31.653 12.0769C31.4943 11.9635 31.3751 11.8614 31.3751 11.8558ZM34.1661 12.6272C34.1945 12.6272 34.3193 12.6443 34.4724 12.6783C35.4368 12.8938 37.167 13.2229 38.2731 13.4101C38.4604 13.4384 38.6079 13.4725 38.6079 13.4838C38.6079 13.4952 38.5398 13.5348 38.4546 13.5803C38.2675 13.6767 37.513 14.1248 37.2634 14.295C36.6337 14.7148 36.0665 15.1686 35.658 15.577C35.4935 15.7416 35.3516 15.8777 35.3516 15.8777C35.3516 15.8777 35.3177 15.7813 35.2892 15.6621C35.0851 14.8736 34.6596 13.705 34.2739 12.8825C34.2114 12.752 34.1603 12.6329 34.1603 12.6216C34.1603 12.6329 34.1603 12.6272 34.1661 12.6272ZM39.0787 13.5633C39.1127 13.5746 39.1695 13.7675 39.2829 14.1929C39.4928 15.0155 39.5893 15.9345 39.5552 16.7911C39.5438 17.0293 39.5325 17.2505 39.5211 17.279L39.5042 17.3356L39.2092 17.2392C38.6022 17.0463 37.6152 16.757 36.77 16.5188C36.2877 16.3883 35.8964 16.2692 35.8964 16.2578C35.8964 16.2237 36.5998 15.5203 36.9004 15.2538C37.4733 14.7488 39.0276 13.5462 39.0787 13.5633ZM39.4701 13.6199C39.4872 13.603 41.8187 14.0057 42.8795 14.2099C43.6681 14.3631 44.8139 14.6013 44.882 14.6297C44.916 14.641 44.7968 14.7091 44.4167 14.8793C42.9192 15.5544 41.8072 16.1613 40.7012 16.8988C40.4119 17.0917 40.1679 17.2505 40.1622 17.2505C40.1566 17.2505 40.1509 17.0861 40.1509 16.8875C40.1509 15.8097 39.9353 14.7205 39.5382 13.8015C39.4985 13.7107 39.4644 13.6257 39.4701 13.6199ZM45.5003 14.8113C45.5173 14.8283 45.4435 15.2878 45.3755 15.5601C45.1713 16.4053 44.621 17.6591 43.946 18.8389C43.8268 19.0488 43.7191 19.219 43.7076 19.2247C43.6964 19.2303 43.5432 19.1452 43.3673 19.0431C42.7093 18.6574 41.9605 18.2943 41.1436 17.9539C40.9168 17.8575 40.7182 17.778 40.7125 17.7668C40.6727 17.7327 42.4994 16.5244 43.4638 15.9458C44.2296 15.4807 45.4776 14.7885 45.5003 14.8113ZM45.9314 14.8793C45.9825 14.8793 47.0149 15.163 47.5538 15.3218C48.8869 15.7189 50.4185 16.2805 51.4169 16.7343L51.831 16.9216L51.5418 16.9896C49.1025 17.5512 47.0149 18.198 45.001 19.0148C44.8365 19.0829 44.689 19.1396 44.6778 19.1396C44.6664 19.1396 44.7231 19.0092 44.7969 18.8503C45.4039 17.5626 45.7953 16.2181 45.8916 15.0722C45.8974 14.9643 45.9143 14.8793 45.9314 14.8793ZM35.6524 17.2392C35.6694 17.2222 36.4579 17.4094 36.8834 17.5284C37.53 17.71 38.9028 18.1695 38.9028 18.2036C38.9028 18.2092 38.7497 18.3397 38.5682 18.4986C37.8251 19.1169 37.1103 19.7692 36.2536 20.5975C35.9983 20.8415 35.7828 21.04 35.7715 21.04C35.7601 21.04 35.7546 21.0059 35.7601 20.9605C35.8906 20.0075 35.8623 18.7822 35.6808 17.5398C35.6637 17.381 35.6467 17.2449 35.6524 17.2392ZM52.2226 17.2563C52.2338 17.2676 51.8594 17.8575 51.6212 18.1922C51.2809 18.68 50.7816 19.3268 49.6527 20.745C49.0572 21.4938 48.3877 22.3391 48.1665 22.6227C47.9395 22.9063 47.7524 23.1445 47.7466 23.1445C47.741 23.1445 47.6673 23.0425 47.5879 22.9177C46.9525 21.9646 46.1923 21.1307 45.2903 20.3819C45.1201 20.2401 44.933 20.0869 44.8706 20.0415C44.8082 19.9962 44.7571 19.9508 44.7571 19.9451C44.7571 19.9281 45.7214 19.5139 46.4533 19.219C47.7354 18.6971 49.4824 18.0731 50.7929 17.6703C51.4794 17.4548 52.2112 17.2449 52.2226 17.2563ZM52.6593 17.3696C52.682 17.364 52.8182 17.4321 52.9827 17.5284C54.3612 18.317 55.7112 19.3324 56.7778 20.3762C57.0784 20.6713 57.8216 21.4428 57.8101 21.4484C57.8101 21.4484 57.5492 21.4711 57.2429 21.4938C54.8547 21.6753 51.7971 22.1801 48.8586 22.8892C48.6601 22.9346 48.4842 22.9743 48.4728 22.9743C48.4616 22.9743 48.6828 22.7531 48.9608 22.4865C50.6853 20.8244 51.4738 19.7749 52.4041 17.9029C52.5345 17.625 52.648 17.3867 52.6593 17.3696C52.6537 17.3696 52.6537 17.3696 52.6593 17.3696ZM40.026 18.6631C40.1055 18.68 40.843 19.0262 41.3989 19.3041C41.9094 19.5593 42.6753 19.9678 42.715 20.0018C42.7206 20.0075 42.4483 20.1493 42.1137 20.3138C41.0472 20.8471 40.1339 21.3519 39.1808 21.9305C38.9085 22.0951 38.6816 22.2313 38.676 22.2313C38.6533 22.2313 38.6589 22.2085 38.8121 21.9305C39.3227 21.0003 39.7311 19.8884 39.9637 18.8049C39.9863 18.7198 40.0091 18.6631 40.026 18.6631ZM39.2885 18.7992C39.3056 18.8163 39.1127 19.514 38.9937 19.8941C38.761 20.6145 38.3696 21.5165 37.9896 22.1972C37.8987 22.356 37.7626 22.5886 37.6889 22.719L37.5471 22.9459L37.2294 22.6397C36.8607 22.2823 36.56 22.061 36.1743 21.8624C36.021 21.7831 35.902 21.715 35.902 21.7037C35.902 21.6583 36.872 20.779 37.6151 20.1437C38.1483 19.6841 39.2716 18.7822 39.2885 18.7992ZM43.7985 20.6542L44.0765 20.8357C44.7117 21.2499 45.4605 21.8001 46.0336 22.2823C46.3568 22.5488 46.9808 23.1105 47.1057 23.2467L47.1737 23.3205L46.7143 23.4509C44.1161 24.1713 42.108 24.8123 39.7651 25.6746C39.5042 25.771 39.2829 25.8505 39.2658 25.8505C39.2319 25.8505 39.2035 25.8788 39.7878 25.3399C41.2855 23.9615 42.6128 22.4411 43.5999 20.9605L43.7985 20.6542ZM42.6129 20.9492C42.6242 20.9605 41.847 22.0553 41.3818 22.6737C40.8259 23.4112 39.8388 24.6478 39.1581 25.4533C38.8745 25.788 38.6306 26.066 38.6192 26.0717C38.6022 26.0773 38.5965 25.9923 38.5965 25.8618C38.5965 25.1753 38.4207 24.4435 38.1143 23.8196C37.9839 23.5586 37.9611 23.4962 37.9896 23.4679C38.0974 23.3714 39.7481 22.4297 40.7919 21.8682C41.4953 21.4938 42.5957 20.9379 42.6129 20.9492ZM35.4424 22.7078C35.4595 22.7078 35.59 22.7758 35.7375 22.8553C36.1005 23.0538 36.4239 23.275 36.7132 23.5133C36.7245 23.5246 36.577 23.6438 36.3842 23.7855C35.8452 24.1713 35.0284 24.7897 34.5519 25.1698C34.0526 25.5669 34.0357 25.5782 34.0924 25.4931C34.4668 24.9202 34.6539 24.5968 34.8526 24.1827C35.0284 23.814 35.2042 23.3772 35.329 22.9971C35.3744 22.8326 35.4311 22.7078 35.4424 22.7078ZM37.3542 24.2053C37.3825 24.1998 37.4166 24.2507 37.5697 24.4777C37.8931 24.9598 38.1427 25.6066 38.2052 26.1285L38.2164 26.242L37.4393 26.5426C36.0494 27.0815 34.7675 27.6148 33.8994 28.0118C33.6556 28.1253 33.2301 28.3295 32.9522 28.4657C32.6742 28.6074 32.4473 28.7152 32.4473 28.7096C32.4473 28.7039 32.6231 28.5735 32.8386 28.4146C34.5349 27.1836 36.0041 25.8335 37.1046 24.4834C37.2237 24.3415 37.3316 24.211 37.3428 24.2054L37.3542 24.2053ZM36.475 24.421C36.4977 24.4436 35.851 25.1754 35.4085 25.6235C34.3136 26.7411 33.2301 27.6148 31.8856 28.4657C31.7155 28.5735 31.5623 28.6699 31.5453 28.6813C31.5055 28.7039 31.5566 28.6472 32.1466 28.0061C32.521 27.6034 32.8046 27.263 33.128 26.8433C33.3435 26.5654 33.3833 26.5256 33.6953 26.3043C34.5292 25.703 36.4522 24.3982 36.475 24.421Z" fill="url(#paint2_radial_1307_2989)"/>
<path d="M11.9099 47.9098C11.8053 47.9098 11.7006 47.9198 11.5969 47.9198C9.48319 48.0324 8.05762 48.9626 7.22411 50.7791C6.51123 52.422 6.58906 54.5695 7.2321 56.2225C7.97988 57.8376 9.18817 58.69 11.205 59.012C11.6317 59.0819 11.9179 59.3161 12.7444 60.2811L13.7613 61.4726H15.6057L14.3793 60.2362C13.7014 59.5583 13.153 58.9681 13.153 58.9162C13.153 58.8644 13.4124 58.7508 13.7263 58.6551C14.7612 58.3419 15.6206 57.5424 16.2217 56.3171C16.7083 55.3332 16.7781 55.029 16.8478 53.8048C17.0303 50.1609 15.1091 47.8827 11.9098 47.9087L11.9099 47.9098ZM13.5269 57.4389C12.6297 57.8735 11.3268 57.9602 10.4763 57.6482C9.59693 57.3252 8.74553 56.412 8.36261 55.3781C7.93694 54.2476 7.99771 52.162 8.48426 51.2227C9.26688 49.7273 10.3018 49.0394 11.8142 49.0394C14.0574 49.0394 15.3335 50.4133 15.5 52.9954C15.6316 55.1509 14.9098 56.7679 13.5279 57.438L13.5269 57.4389ZM45.3883 51.0223C44.6146 51.0223 44.0224 51.3355 43.6235 51.9525L43.3105 52.441V51.1708H41.9716V58.7878H43.3096V56.3532C43.3096 54.1269 43.3374 53.8667 43.6485 53.2575C44.0773 52.422 44.8149 52.0054 45.5279 52.2048L46.0064 52.3444V51.0244H45.3883V51.0223ZM37.5221 50.9525C37.2599 50.9525 36.9817 50.9875 36.7047 51.0483C34.913 51.5168 33.9031 53.2316 33.9649 54.9963C33.9649 56.4738 34.252 57.2125 34.9649 57.9872C36.4255 59.1855 37.7465 59.2812 39.529 58.6383C39.8331 58.5087 40.1641 58.3591 40.1641 58.3591V57.1608L39.529 57.4898C38.0864 58.1178 36.9997 58.1178 36.1293 57.3781C35.5741 56.8128 35.3297 56.1348 35.2171 55.3613H40.6157V54.3342C40.6157 52.2406 39.3556 50.9186 37.521 50.9525H37.5221ZM35.3387 54.2924C35.3387 54.2924 35.5382 52.9864 36.2779 52.4739C36.6339 52.2226 37.0426 52.1011 37.4423 52.1011C37.8432 52.1011 38.2429 52.2306 38.5729 52.4829C39.251 53.0043 39.3646 54.2825 39.3646 54.2825H35.3388V54.2924H35.3387ZM3.05971 52.9186C1.60817 52.0393 0.964114 51.4051 1.04287 50.6574C1.26814 48.5887 3.82445 48.8748 5.24009 49.6575L5.25015 48.2658C5.25015 48.2658 4.46749 47.9268 3.34586 47.9088C1.62509 47.8829 0.512463 48.4471 -0.00888547 49.5957C-0.774633 51.2905 -0.0966043 52.5686 2.35401 53.9944C3.72979 54.7949 4.33789 55.4898 4.33789 56.2475C4.33789 57.8127 2.45065 58.3591 0.50359 57.377C0.102878 57.1777 -0.236136 57.0111 -0.254066 57.0111C-0.323901 57.4548 -0.287903 58.5166 -0.287903 58.5166C-0.287903 58.5166 0.310314 58.7679 1.2075 58.9412C3.43266 59.3848 5.45759 58.341 5.64898 56.6462C5.8155 55.0551 5.24013 54.2205 3.0598 52.9175L3.05971 52.9186ZM57.2383 50.9346C56.977 50.9346 56.6998 50.9705 56.4107 51.0313C54.6212 51.4999 53.6132 53.2147 53.682 54.9794C53.682 56.4549 53.9681 57.1867 54.6809 57.9603C56.1416 59.1597 57.4626 59.2563 59.2541 58.6124C59.5572 58.4828 59.8872 58.3353 59.8872 58.3353V57.135L59.2532 57.4659C57.8076 58.092 56.7208 58.092 55.8535 57.3523C55.2951 56.788 55.0529 56.118 54.9402 55.3353H60.3299V54.3084C60.3299 52.2249 59.0696 50.9018 57.2352 50.9367L57.2383 50.9346ZM55.0548 54.2745C55.0548 54.2745 55.2563 52.9704 55.995 52.448C56.3499 52.1958 56.7586 52.0741 57.1584 52.0741C57.5572 52.0741 57.959 52.2037 58.2891 52.4569C58.9671 52.9784 59.0808 54.2655 59.0808 54.2655H55.0559L55.0548 54.2745ZM30.5134 52.9356C29.0618 52.0582 28.4197 51.4221 28.4975 50.6743C28.7228 48.6046 31.2791 48.8918 32.6948 49.6744L32.7048 48.2827C32.7048 48.2827 31.9221 47.9437 30.8005 47.9277C29.0797 47.9018 27.9671 48.4661 27.4448 49.6146C26.6801 51.3094 27.367 52.5875 29.8096 54.0132C31.1834 54.8129 31.7915 55.4988 31.7915 56.2564C31.7915 57.8217 29.9053 58.377 27.9582 57.386C27.5594 57.1866 27.2205 57.022 27.2005 57.022C27.1307 57.4656 27.1667 58.5275 27.1667 58.5275C27.1667 58.5275 27.7578 58.7698 28.6521 58.9522C30.8793 59.3968 32.9052 58.354 33.0957 56.6591C33.2612 55.0759 32.6869 54.2415 30.5134 52.9374V52.9356H30.5134ZM65.1054 51.0044C64.3317 51.0044 63.7326 51.3184 63.3407 51.9356L63.0276 52.4221V51.154H61.6887V58.7688H63.0266V56.3343C63.0266 54.109 63.0535 53.8478 63.3657 53.2396C63.7944 52.4052 64.532 51.9875 65.2449 52.1878L65.7234 52.3274V51.0045L65.1054 51.0044ZM19.8657 52.8917V48.0403H18.5159V58.7858H24.1927V57.5167H19.8658V52.8917H19.8657ZM51.0829 54.404L49.9703 57.2993L48.9005 54.3881L47.8138 51.1619H46.432C47.3274 53.7003 48.3013 56.2824 49.2834 58.7858C49.7091 58.7957 50.1358 58.7858 50.5614 58.7858L52.0639 55.0132L53.5943 51.1629H52.2733C52.2733 51.1629 51.69 52.6923 51.082 54.405L51.0829 54.404ZM22.9763 45.1122C23.1936 45.1122 23.375 45.0425 23.5246 44.893C23.6721 44.7453 23.7499 44.5719 23.7499 44.3546C23.7499 44.1372 23.6721 43.9557 23.5246 43.8162C23.375 43.6766 23.2025 43.6067 22.9862 43.6067C22.7669 43.6067 22.5854 43.6766 22.4379 43.8241C22.2884 43.9717 22.2205 44.1532 22.2205 44.3626C22.2205 44.5819 22.2904 44.7633 22.4379 44.901C22.5775 45.0405 22.7589 45.1103 22.9763 45.1103V45.1122ZM22.4978 43.876C22.6273 43.7465 22.7849 43.6866 22.9862 43.6866C23.1757 43.6866 23.3333 43.7465 23.4649 43.876C23.5945 44.0056 23.6643 44.1631 23.6643 44.3546C23.6643 44.546 23.5945 44.7115 23.4649 44.8411C23.3333 44.9706 23.1757 45.0325 22.9862 45.0325C22.7938 45.0325 22.6373 44.9726 22.5077 44.8411C22.3781 44.7115 22.3083 44.546 22.3083 44.3546C22.3083 44.1631 22.3682 44.0057 22.4978 43.876ZM22.8197 44.4244H22.9074C22.9693 44.4244 23.0301 44.4842 23.0819 44.5979L23.1867 44.8331H23.3511L23.2216 44.5718C23.1688 44.4672 23.1169 44.4064 23.0561 44.3893C23.1329 44.3714 23.1936 44.3455 23.2375 44.2936C23.2813 44.2488 23.2973 44.188 23.2973 44.1191C23.2973 44.0394 23.2724 43.9796 23.2196 43.9357C23.1597 43.8859 23.064 43.859 22.9404 43.859H22.6633V44.8331H22.8028V44.4243L22.8197 44.4244ZM22.8197 43.9717H22.9414C23.0291 43.9717 23.091 43.9897 23.1249 44.0156C23.1578 44.0415 23.1667 44.0755 23.1667 44.1372C23.1667 44.2498 23.0969 44.3028 22.9673 44.3028H22.8178V43.9717H22.8197ZM0.521382 44.3376C0.521382 43.9986 0.511451 43.7465 0.503452 43.5979H0.511451C0.5463 43.7732 0.589194 43.9039 0.624088 43.9906L1.9201 46.8859H2.13747L3.43348 43.9647C3.46847 43.8851 3.50336 43.7654 3.54621 43.5988H3.55614C3.53026 43.888 3.52129 44.1392 3.52129 44.3396V46.8949H3.96485V43.0964H3.40856L2.21723 45.7383C2.17333 45.843 2.1125 45.9996 2.03476 46.207H2.01674C1.99086 46.1043 1.93003 45.9477 1.84333 45.7563L0.678797 43.0873H0.0876604V46.8858H0.514347V44.3395L0.521382 44.3376ZM4.93698 44.3447H5.3199V46.7104H4.93698V44.3447ZM5.12842 43.4772C5.20823 43.4772 5.27599 43.4503 5.32781 43.3975C5.38068 43.3456 5.41562 43.2778 5.41562 43.1981C5.41562 43.1203 5.38964 43.0505 5.32886 42.9987C5.27503 42.9459 5.2062 42.9189 5.12745 42.9189C5.04975 42.9189 4.97996 42.9459 4.92801 42.9987C4.87533 43.0505 4.84034 43.1203 4.84034 43.1981C4.84034 43.2849 4.86728 43.3456 4.92801 43.3975C4.98796 43.4503 5.04971 43.4772 5.12745 43.4772H5.12842ZM8.04962 46.7623V46.3455C7.84021 46.5021 7.61489 46.5799 7.38161 46.5799C7.10255 46.5799 6.87613 46.4842 6.71062 46.3008C6.54617 46.1194 6.45845 45.867 6.45845 45.553C6.45845 45.224 6.54617 44.9627 6.72758 44.7633C6.90206 44.5719 7.12843 44.4762 7.40561 44.4762C7.6319 44.4762 7.84912 44.5461 8.04966 44.6857V44.2421C7.86724 44.1463 7.65888 44.1024 7.42354 44.1024C6.98881 44.1024 6.64993 44.2421 6.39671 44.5113C6.14541 44.7805 6.01581 45.1464 6.01581 45.5881C6.01581 45.9808 6.12845 46.3109 6.36282 46.5631C6.60704 46.8223 6.9192 46.9539 7.30199 46.9539C7.59797 46.9457 7.84021 46.8839 8.04962 46.7623ZM9.14523 45.5011C9.14523 45.189 9.21502 44.9369 9.34462 44.7633C9.46632 44.6068 9.6138 44.5281 9.78827 44.5281C9.93585 44.5281 10.0405 44.555 10.1172 44.6158V44.1631C10.0575 44.1372 9.9707 44.1283 9.85806 44.1283C9.70152 44.1283 9.56203 44.181 9.43937 44.2778C9.30977 44.3804 9.2061 44.537 9.14528 44.7364H9.13535V44.1811H8.70167V46.8928H9.13631V45.5011H9.14523ZM11.6407 46.9467C12.0495 46.9467 12.3785 46.8151 12.6227 46.5539C12.8659 46.2946 12.9875 45.9457 12.9875 45.511C12.9875 45.0674 12.876 44.7284 12.6486 44.4761C12.4233 44.224 12.1102 44.1022 11.7014 44.1022C11.2926 44.1022 10.9636 44.2239 10.7194 44.4592C10.4582 44.7185 10.3206 45.0844 10.3206 45.5539C10.3206 45.9627 10.4323 46.3017 10.6676 46.5539C10.9108 46.8151 11.2329 46.9457 11.6407 46.9457V46.9467ZM11.0225 44.7374C11.1881 44.5629 11.4055 44.4761 11.6746 44.4761C11.9538 44.4761 12.1631 44.5629 12.3187 44.7374C12.4751 44.9199 12.553 45.1801 12.553 45.528C12.553 45.8589 12.4831 46.1192 12.3356 46.2937C12.1881 46.4761 11.9707 46.5728 11.6835 46.5728C11.4044 46.5728 11.1881 46.476 11.0225 46.2937C10.8581 46.1102 10.7793 45.8589 10.7793 45.528C10.7624 45.199 10.8491 44.9299 11.0225 44.7374ZM14.8909 46.7104C15.0563 46.5629 15.1441 46.3815 15.1441 46.154C15.1441 45.9547 15.0743 45.7892 14.9447 45.6586C14.839 45.554 14.6756 45.4592 14.4393 45.3635C14.2298 45.2758 14.1002 45.198 14.0304 45.1371C13.9607 45.0674 13.9178 44.9807 13.9178 44.858C13.9178 44.7454 13.9617 44.6586 14.0475 44.5889C14.1352 44.5192 14.2469 44.4853 14.3964 44.4853C14.6307 44.4853 14.8311 44.547 15.0144 44.6777V44.2429C14.839 44.1553 14.6486 44.1134 14.4312 44.1134C14.1521 44.1134 13.9168 44.1903 13.7433 44.3387C13.5608 44.4863 13.4741 44.6777 13.4741 44.9029C13.4741 45.1023 13.5339 45.2679 13.6475 45.3894C13.7432 45.4932 13.9068 45.5989 14.134 45.6935C14.3514 45.7893 14.499 45.8759 14.5777 45.9457C14.6554 46.0156 14.6903 46.1022 14.6903 46.205C14.6903 46.4582 14.5169 46.5889 14.1779 46.5889C13.9167 46.5889 13.6825 46.5031 13.473 46.3297V46.7981C13.6624 46.9119 13.8898 46.9636 14.141 46.9636C14.463 46.9467 14.7152 46.868 14.8887 46.7114L14.8909 46.7104ZM16.9606 44.1023C16.5517 44.1023 16.2228 44.224 15.9785 44.4592C15.7193 44.7186 15.5797 45.0845 15.5797 45.554C15.5797 45.9628 15.6925 46.3018 15.9267 46.554C16.171 46.8152 16.492 46.9458 16.9008 46.9458C17.3195 46.9458 17.6386 46.8142 17.8828 46.5529C18.127 46.2938 18.2486 45.9448 18.2486 45.5101C18.2486 45.0664 18.135 44.7275 17.9096 44.4752C17.6745 44.223 17.3613 44.1013 16.9625 44.1013L16.9606 44.1023ZM17.804 45.5281C17.804 45.859 17.7342 46.1192 17.5867 46.2937C17.4391 46.4762 17.2217 46.5728 16.9346 46.5728C16.6553 46.5728 16.439 46.4761 16.2735 46.2937C16.109 46.1103 16.0303 45.859 16.0303 45.5281C16.0303 45.1791 16.1171 44.91 16.2916 44.7284C16.456 44.555 16.6734 44.4672 16.9436 44.4672C17.2127 44.4672 17.4291 44.5549 17.5856 44.7284C17.7252 44.9198 17.803 45.1801 17.803 45.5281H17.804ZM18.9785 46.8849H19.4122V44.5371H20.0472V44.1721H19.4121V43.7534C19.4121 43.3726 19.5596 43.1812 19.8647 43.1812C19.9674 43.1812 20.0721 43.2071 20.1499 43.251V42.8593C20.0721 42.8244 19.9674 42.8164 19.8367 42.8164C19.6025 42.8164 19.4111 42.8862 19.2545 43.0337C19.072 43.2072 18.9754 43.4325 18.9754 43.7377V44.1823H18.5167V44.5472H18.9754V46.8862L18.9785 46.8849ZM20.76 46.1451C20.76 46.6756 20.9944 46.9457 21.4729 46.9457C21.6464 46.9457 21.7769 46.9179 21.8816 46.856V46.4832C21.8019 46.543 21.7071 46.571 21.6025 46.571C21.455 46.571 21.3513 46.536 21.2904 46.4572C21.2286 46.3795 21.1938 46.2478 21.1938 46.0664V44.5361H21.8816V44.1711H21.1938V43.3716C21.0442 43.4234 20.8977 43.4674 20.759 43.5111V44.1711H20.2904V44.536H20.759V46.1442L20.76 46.1451ZM67.4183 51.1439C67.2708 51.0044 67.0963 50.9346 66.88 50.9346C66.6607 50.9346 66.4792 51.0044 66.3316 51.1539C66.1841 51.3005 66.1142 51.4829 66.1142 51.6923C66.1142 51.9097 66.1841 52.0912 66.3305 52.2306C66.4782 52.3702 66.6595 52.4401 66.8789 52.4401C67.0952 52.4401 67.2777 52.3702 67.4273 52.2227C67.5739 52.0731 67.6516 51.9007 67.6516 51.6844C67.6436 51.465 67.5648 51.2835 67.4173 51.144L67.4183 51.1439ZM67.3486 52.1709C67.2189 52.3004 67.0614 52.3602 66.87 52.3602C66.6806 52.3602 66.5231 52.3004 66.3915 52.1709C66.2619 52.0393 66.1921 51.8748 66.1921 51.6823C66.1921 51.4928 66.2519 51.3354 66.3835 51.2038C66.513 51.0743 66.6697 51.0143 66.87 51.0143C67.0595 51.0143 67.217 51.0743 67.3486 51.2038C67.4781 51.3354 67.5479 51.4928 67.5479 51.6823C67.5479 51.8838 67.4881 52.0393 67.3486 52.1709ZM66.9577 51.7272C67.0355 51.7092 67.0973 51.6744 67.1402 51.6315C67.1841 51.5866 67.2001 51.5257 67.2001 51.4561C67.2001 51.3783 67.1751 51.3165 67.1223 51.2736C67.0625 51.2238 66.9659 51.1968 66.8433 51.1968H66.5661V52.1698H66.7057V51.7611H66.7924C66.8523 51.7611 66.9121 51.8208 66.9659 51.9345L67.0695 52.1688H67.2351L67.1055 51.9075C67.0606 51.7939 67.0087 51.742 66.956 51.725L66.9577 51.7272ZM66.862 51.6395H66.7125V51.3106H66.8351C66.9219 51.3106 66.9827 51.3264 67.0176 51.3534C67.0525 51.3793 67.0605 51.4132 67.0605 51.4751C67.0605 51.5877 66.9907 51.6396 66.8611 51.6396L66.862 51.6395ZM42.6067 44.0595H42.7284V43.0854H43.0503V42.9638H42.2847V43.0854H42.6068V44.0595H42.6067ZM43.3445 43.3277C43.3445 43.2329 43.3445 43.1552 43.3375 43.1114C43.3455 43.1632 43.3634 43.1982 43.3714 43.2241L43.7453 44.0595H43.8051L44.1799 43.216C44.19 43.1901 44.198 43.1562 44.2149 43.1114C44.2069 43.1982 44.2069 43.2678 44.2069 43.3207V44.0585H44.3365V42.9638H44.1799L43.841 43.7195C43.833 43.7465 43.806 43.7992 43.7891 43.8591H43.7792C43.7722 43.8242 43.7543 43.7893 43.7293 43.7296L43.3903 42.9639H43.2149V44.0606H43.3375V43.3288L43.3445 43.3277Z" fill="#231F1F"/>
</g>
</g>
<defs>
<linearGradient id="paint0_linear_1307_2989" x1="29.7958" y1="40.2974" x2="32.5096" y2="38.6938" gradientUnits="userSpaceOnUse">
<stop stop-color="#909CA9"/>
<stop offset="1" stop-color="#EDEDEE"/>
</linearGradient>
<linearGradient id="paint1_linear_1307_2989" x1="29.8578" y1="10.0649" x2="32.0414" y2="10.0649" gradientUnits="userSpaceOnUse">
<stop stop-color="#939FAB"/>
<stop offset="1" stop-color="#DCDEE1"/>
</linearGradient>
<radialGradient id="paint2_radial_1307_2989" cx="0" cy="0" r="1" gradientUnits="userSpaceOnUse" gradientTransform="translate(40.8763 20.081) rotate(-171.457) scale(2.8153 5.632)">
<stop stop-color="#EE352C"/>
<stop offset="1" stop-color="#A91D22"/>
</radialGradient>
<clipPath id="clip0_1307_2989">
<rect width="67.9592" height="67.9592" fill="white" transform="translate(0.0205078 0.0195312)"/>
</clipPath>
<clipPath id="clip1_1307_2989">
<rect width="67.9592" height="67.9592" fill="white" transform="translate(-0.307617 0.0195312)"/>
</clipPath>
</defs>
</svg>
