<svg width="69" height="68" viewBox="0 0 69 68" fill="none" xmlns="http://www.w3.org/2000/svg">
<g clip-path="url(#clip0_2042_7660)">
<path d="M39.4208 20.4541L30.9087 23.2336L23.5032 26.502L21.4314 27.0489C20.9038 27.5509 20.3505 28.0591 19.7522 28.5739C19.0959 29.14 18.4847 29.6548 18.0149 30.0279C17.4938 30.4397 16.7217 31.2118 16.3293 31.7006C15.7438 32.4341 15.2806 33.2126 15.0811 33.811C14.7272 34.8919 14.901 35.9857 15.583 36.9959C16.458 38.2826 18.2016 39.5952 20.2347 40.4894C21.2706 40.9463 23.0142 41.5318 24.3267 41.8599C26.5077 42.4132 30.7285 43.0116 33.0511 43.1017C33.5206 43.121 34.1513 43.121 34.1769 43.1017C34.2285 43.0695 34.5888 42.3811 35.007 41.5254C36.4353 38.6107 37.4648 35.8763 38.0245 33.5409C38.3591 32.1255 38.6228 30.2402 38.7964 28.0078C38.8416 27.3836 38.8607 25.2927 38.8222 24.5848C38.7643 23.4267 38.6614 22.4874 38.5006 21.5674C38.4748 21.4322 38.4683 21.3099 38.4813 21.3036C38.5069 21.2843 38.5841 21.2586 39.6328 20.956L39.4208 20.4541ZM37.4777 21.593C37.555 21.593 37.7608 23.5681 37.8121 24.8165C37.8251 25.0802 37.8185 25.2538 37.8058 25.2538C37.7543 25.2538 36.7185 24.6427 35.9787 24.1795C35.3352 23.7741 34.1128 22.9634 33.9198 22.809C33.8553 22.764 33.8617 22.7576 34.3894 22.5773C35.2837 22.2749 37.4069 21.593 37.4777 21.593ZM33.1413 23.0214C33.1991 23.0214 33.3471 23.1049 33.7009 23.3237C35.0263 24.1536 36.8278 25.1574 37.5999 25.4921C37.838 25.595 37.8636 25.5563 37.3169 25.9295C36.1458 26.7273 34.6853 27.5121 32.8966 28.3036C32.5813 28.4451 32.3176 28.5545 32.3112 28.5545C32.2984 28.5545 32.3369 28.3938 32.3882 28.2007C32.8194 26.5985 33.064 24.9771 33.0768 23.6775C33.0832 23.0341 33.0832 23.0341 33.1413 23.0149C33.1283 23.0214 33.1347 23.0214 33.1413 23.0214ZM32.2469 23.3623C32.2855 23.4009 32.2597 24.8421 32.2083 25.2345C32.0924 26.174 31.9123 27.0489 31.6164 28.0334C31.5457 28.2713 31.4812 28.4709 31.4685 28.4837C31.4426 28.5159 30.5611 27.6536 30.2717 27.3192C29.7697 26.7401 29.3774 26.161 29.0879 25.5948C28.9398 25.3053 28.7083 24.7392 28.7275 24.7199C28.8305 24.6491 32.2211 23.3367 32.2469 23.3623ZM28.0391 25.0157C28.0454 25.0157 28.0518 25.0157 28.0584 25.0222C28.0713 25.035 28.1163 25.1381 28.1549 25.2538C28.3607 25.8137 28.8239 26.6372 29.2229 27.1647C29.6604 27.7438 30.2331 28.3614 30.709 28.7667C30.8635 28.8955 31.005 29.0177 31.0243 29.037C31.063 29.0756 31.0758 29.0691 30.027 29.468C28.8112 29.9314 27.4857 30.3946 25.9673 30.8835C25.6045 31.0004 25.2421 31.1184 24.8801 31.2374C24.8221 31.2567 24.8414 31.2245 25.0087 30.9608C25.7614 29.7833 26.9066 27.4736 27.55 25.8394C27.6595 25.5563 27.7688 25.2731 27.7881 25.2088C27.814 25.1186 27.846 25.0866 27.9296 25.0415C27.9747 25.0287 28.0198 25.0157 28.0391 25.0157ZM26.7524 25.5498C26.7717 25.5628 26.4435 26.2511 26.1218 26.8816C25.4977 28.0977 24.8157 29.2945 23.9021 30.7485C23.7477 30.9993 23.5997 31.2311 23.5804 31.2568C23.5483 31.3018 23.5353 31.2889 23.4324 31.0895C23.2137 30.6584 23.0334 30.105 22.937 29.5968C22.8404 29.0949 22.8598 28.2199 22.9692 27.6795C23.0527 27.2806 23.0464 27.287 23.2394 27.1906C24.0629 26.7724 26.7266 25.5241 26.7524 25.5498ZM37.8508 26.0003V26.2704C37.8508 27.7052 37.6965 29.674 37.4712 31.1089C37.4326 31.3597 37.4004 31.5655 37.3939 31.5721C37.3939 31.5721 37.2074 31.5206 36.9887 31.4562C36.0236 31.1538 34.9748 30.7099 34.0291 30.1888C33.4048 29.8478 32.4977 29.2879 32.5236 29.2622C32.5299 29.2558 32.8001 29.1143 33.1153 28.9469C34.3765 28.2908 35.586 27.583 36.6347 26.8817C37.0273 26.6179 37.619 26.1933 37.7479 26.0775L37.8508 26.0003ZM21.8946 27.9046C21.9204 27.9046 21.9139 27.9561 21.8753 28.1877C21.8496 28.355 21.8174 28.6638 21.8047 28.8761C21.7531 29.8155 21.9076 30.5104 22.3708 31.4625C22.4995 31.7263 22.6025 31.9451 22.596 31.9515C22.5509 31.9902 18.2917 33.2384 16.9534 33.6051C16.5545 33.7144 16.2071 33.811 16.1813 33.8173C16.1363 33.8303 16.1298 33.8239 16.1491 33.7144C16.2971 32.7687 17.0177 31.5333 18.0214 30.4909C18.6905 29.7962 19.2246 29.3909 20.1382 28.8696C20.7944 28.4965 21.8046 27.9368 21.8818 27.911C21.8818 27.9046 21.8882 27.9046 21.8946 27.9046ZM31.9316 29.6997C31.938 29.6933 32.0924 29.777 32.279 29.8862C33.6559 30.6841 35.5732 31.424 37.2073 31.8036L37.3553 31.8358L37.1494 31.9515C36.2938 32.4277 33.4821 33.5986 30.6063 34.6731C30.1879 34.8275 29.7762 34.982 29.6989 35.0141C29.6217 35.0463 29.5509 35.0656 29.5509 35.0591C29.5509 35.0526 29.6668 34.8275 29.8147 34.5509C30.6189 33.0454 31.4297 31.2117 31.8414 29.9377C31.893 29.8155 31.9251 29.7061 31.9316 29.6997ZM30.9087 30.0343C30.9151 30.0408 30.8637 30.1758 30.7992 30.3303C30.2395 31.6878 29.5059 33.1677 28.5666 34.8276C28.3287 35.2522 28.1291 35.5933 28.1226 35.5933C28.1163 35.5933 27.9232 35.4774 27.6917 35.3358C26.3275 34.4994 25.118 33.47 24.3267 32.4728L24.2108 32.3312L24.7963 32.1704C26.8937 31.5978 28.6759 30.9801 30.4453 30.2209C30.6963 30.118 30.9022 30.0343 30.9087 30.0343ZM37.2654 32.254C37.2717 32.4019 36.9436 33.7274 36.6733 34.686C36.4482 35.4902 36.2551 36.1208 35.9014 37.2337C35.7469 37.7229 35.6119 38.1281 35.6054 38.1281C35.5989 38.1281 35.5604 38.1217 35.5218 38.1089C33.6109 37.7614 31.8994 37.2789 30.291 36.6354C29.8405 36.4553 29.1972 36.1658 29.1586 36.1336C29.1457 36.1206 29.5318 35.9405 30.0207 35.7282C32.9482 34.4479 35.985 32.9938 37.0273 32.3698C37.1495 32.2926 37.246 32.254 37.2654 32.254ZM22.5896 32.7558C22.6024 32.7687 21.7853 33.9462 20.64 35.5482C20.2411 36.1079 19.7779 36.7642 19.6042 37.0086C19.4305 37.2531 19.1667 37.6392 19.0187 37.8708L18.7484 38.289L18.4589 38.0446C18.1178 37.7614 17.526 37.1566 17.2622 36.8221C16.7088 36.1337 16.3357 35.4067 16.1878 34.7441C16.117 34.4351 16.117 34.2806 16.1812 34.2615C16.2777 34.2357 17.9956 33.8304 19.6042 33.4571C20.4985 33.2513 21.5343 33.0069 21.9075 32.9167C22.2807 32.8266 22.5832 32.7558 22.5896 32.7558ZM23.4131 33.0711L23.6189 33.3028C24.5455 34.3386 25.4912 35.1044 26.6365 35.7733C26.8424 35.8892 26.9968 35.9921 26.9839 35.9987C26.9389 36.0308 23.0077 37.4268 21.1869 38.0573C20.164 38.4177 19.3211 38.7072 19.3147 38.7072C19.3083 38.7072 19.2504 38.6686 19.1859 38.6236L19.0702 38.5399L19.2567 38.2697C19.8615 37.3947 20.6208 36.436 22.2743 34.4416L23.4131 33.0711ZM28.5475 36.7449C28.5538 36.7385 28.8369 36.8414 29.1842 36.9701C30.0207 37.2854 30.6833 37.4848 31.5713 37.71C32.6651 37.9867 34.2478 38.2569 35.1808 38.334C35.3224 38.3469 35.3996 38.3599 35.3738 38.3792C35.3287 38.4049 34.383 38.7202 33.6881 38.9389C32.5814 39.2863 29.2036 40.2835 26.4499 41.075C25.9416 41.2229 25.5041 41.3452 25.4784 41.3515C25.4141 41.3645 25.2017 41.3065 25.2017 41.2808C25.2017 41.2679 25.3561 41.0685 25.5427 40.8497C26.4691 39.7431 27.3892 38.5078 28.1549 37.3369C28.3672 37.015 28.5475 36.7513 28.5475 36.7449ZM27.415 36.777C27.4214 36.7835 26.9646 37.517 26.1669 38.778C25.8258 39.3119 25.4462 39.9168 25.311 40.1291C25.1824 40.3349 24.9894 40.6568 24.88 40.8369L24.6934 41.165L24.5969 41.1393C24.3652 41.0749 22.7375 40.5022 22.3064 40.3285C21.7723 40.1161 21.219 39.8589 20.8072 39.6402C20.2926 39.3635 19.6492 38.9516 19.7007 38.9389C19.7135 38.9324 20.595 38.6943 21.6565 38.4048C24.4746 37.6392 26.038 37.1952 27.0611 36.8735C27.2477 36.8156 27.4085 36.7706 27.415 36.777ZM35.4252 38.6558H35.4316C35.4573 38.7201 34.4151 41.6154 34.0354 42.5289C33.9519 42.7348 33.9198 42.7863 33.8746 42.7798C33.7653 42.7735 32.2533 42.5611 31.3332 42.426C29.7313 42.1815 27.0418 41.7117 26.3663 41.5575L26.2119 41.5253L27.1704 41.3064C29.2294 40.8432 30.2201 40.5923 31.2238 40.2835C32.4913 39.8975 33.746 39.4148 35.0134 38.823C35.2129 38.7329 35.3801 38.6622 35.4252 38.6558Z" fill="url(#paint0_linear_2042_7660)"/>
<path d="M30.6422 0.612634C30.5007 0.593438 28.2165 1.41697 26.7432 2.01526C24.755 2.82602 23.211 3.59813 22.2587 4.26712C21.9049 4.51816 21.4609 4.96204 21.3902 5.13572C21.3645 5.20008 21.3516 5.27727 21.3516 5.35447L22.2137 6.17159L24.2661 6.82785L29.1495 7.70288L34.7341 8.66156L34.792 8.17902C34.7727 8.17902 34.7599 8.17261 34.7407 8.17261L34.0071 8.05676L33.8592 7.79299C33.1 6.4547 32.2636 4.79473 31.7746 3.67522C31.395 2.80662 31.0347 1.80303 30.8352 1.08239C30.7258 0.644885 30.7129 0.619043 30.6422 0.612634ZM30.5391 0.940866H30.5457C30.552 0.947216 30.5778 1.12749 30.6036 1.33968C30.7129 2.24057 30.9124 3.10901 31.2277 4.0484C31.4657 4.75616 31.4657 4.71759 31.1891 4.63389C30.5328 4.4538 27.5925 3.9455 25.4629 3.64955C25.1219 3.60448 24.8323 3.55948 24.8323 3.55308C24.8066 3.52735 26.37 2.71016 27.0584 2.38855C27.9399 1.98312 30.359 0.972998 30.5391 0.940866ZM24.3368 3.82324L24.5879 3.90679C25.9518 4.3701 29.381 5.02638 31.2726 5.18078C31.4848 5.2001 31.6652 5.21945 31.6715 5.21945C31.6779 5.22585 31.4978 5.32237 31.2662 5.4317C30.3526 5.88852 29.3489 6.4483 28.654 6.87939C28.4482 7.008 28.2615 7.11102 28.2358 7.11102C28.2101 7.11102 28.075 7.08525 27.9335 7.06595L27.6761 7.02728L27.0328 6.39672C25.9004 5.29658 25.0125 4.44733 24.6715 4.12557L24.3368 3.82324ZM24.0796 4.02265L24.9867 5.15507C25.4821 5.77915 25.984 6.39035 26.0934 6.5254C26.2027 6.66061 26.2928 6.77002 26.2864 6.77643C26.2607 6.79571 24.974 6.54475 24.2919 6.39041C23.5906 6.2295 23.3011 6.15231 22.87 6.01725L22.5161 5.90139V5.81126C22.5225 5.38017 23.0695 4.73682 23.9959 4.08062L24.0796 4.02265ZM31.7874 5.56682C31.8131 5.56682 31.8453 5.6247 31.9225 5.79841C32.1411 6.28092 32.8233 7.58065 32.9904 7.83153C33.0421 7.91525 33.132 7.92166 32.2249 7.77368C30.0439 7.41972 29.3424 7.30405 29.3424 7.29117C29.3424 7.28475 29.4069 7.23969 29.4905 7.19462C30.1661 6.82152 30.848 6.34536 31.4528 5.83707C31.6009 5.71481 31.7359 5.59901 31.7617 5.57967C31.7681 5.56682 31.781 5.56041 31.7874 5.56682Z" fill="url(#paint1_linear_2042_7660)"/>
<path d="M21.4376 5.04688C21.4376 5.04688 21.2961 5.27215 21.4312 5.60674C21.5149 5.81254 21.7594 6.06344 22.036 6.32084C22.036 6.32084 24.8991 9.11314 25.2465 9.51211C26.8292 11.3393 27.5176 13.1409 27.5821 15.6244C27.6207 17.22 27.3181 18.6225 26.5655 20.2504C25.2272 23.1714 22.4026 26.3948 18.0469 29.972L18.6839 29.7598C19.0957 29.4508 19.6555 29.1228 20.9679 28.4022C23.9983 26.7422 27.4083 25.2173 31.5903 23.6475C37.6124 21.3826 47.5144 18.7318 53.1504 17.8697L53.7359 17.7797L53.6458 17.6381C53.1312 16.8403 52.7772 16.3449 52.3525 15.8173C51.1173 14.286 49.6183 13.0444 47.7845 12.0149C45.2624 10.6059 42.0003 9.5057 37.8699 8.68858C37.0914 8.53409 35.3799 8.23817 33.9901 8.02585C31.0434 7.56916 29.1389 7.25383 27.0416 6.89352C26.2888 6.76479 25.1628 6.57182 24.4165 6.41101C24.0304 6.32729 23.2906 6.1536 22.7115 5.95417C22.2483 5.77392 21.5791 5.59376 21.4376 5.04688ZM23.0976 6.65542C23.104 6.64907 23.2069 6.68756 23.3421 6.73263C23.5866 6.81617 23.9018 6.91272 24.2751 7.01573C24.5575 7.09341 24.8406 7.16846 25.1243 7.24089C25.5104 7.33734 25.832 7.42745 25.8384 7.42745C25.8835 7.47252 26.5334 9.55053 26.7521 10.3484C26.8356 10.6508 26.9002 10.9081 26.8937 10.9081C26.8871 10.9147 26.8164 10.8052 26.7328 10.6572C25.98 9.33184 24.7897 7.98717 23.4128 6.90621C23.2328 6.77766 23.0976 6.66183 23.0976 6.65542ZM26.2631 7.53043C26.2953 7.53043 26.4368 7.54975 26.6105 7.58832C27.7043 7.83279 29.6666 8.20597 30.9212 8.41832C31.1335 8.45045 31.3009 8.48914 31.3009 8.50192C31.3009 8.51486 31.2236 8.55981 31.1271 8.61135C30.9149 8.72068 30.0591 9.22891 29.7761 9.42197C29.0618 9.89807 28.4185 10.4128 27.9552 10.876C27.7686 11.0626 27.6077 11.217 27.6077 11.217C27.6077 11.217 27.5692 11.1077 27.5369 10.9725C27.3055 10.0782 26.8229 8.75275 26.3853 7.81989C26.3145 7.67196 26.2566 7.53681 26.2566 7.524C26.2566 7.53684 26.2566 7.53043 26.2631 7.53043ZM31.8349 8.59203C31.8735 8.60484 31.9378 8.82362 32.0664 9.30614C32.3045 10.2391 32.414 11.2814 32.3754 12.2529C32.3624 12.5231 32.3495 12.774 32.3367 12.8063L32.3174 12.8706L31.9828 12.7612C31.2943 12.5424 30.175 12.2143 29.2164 11.9441C28.6693 11.7961 28.2255 11.661 28.2255 11.6481C28.2255 11.6095 29.0234 10.8117 29.3643 10.5093C30.014 9.93665 31.7769 8.57268 31.8349 8.59203ZM32.2788 8.6563C32.2982 8.6371 34.9424 9.0938 36.1457 9.32545C37.04 9.49914 38.3396 9.7694 38.4168 9.80162C38.4554 9.81443 38.3202 9.89164 37.8892 10.0846C36.1907 10.8503 34.9296 11.5387 33.675 12.3752C33.3468 12.5939 33.0701 12.774 33.0638 12.774C33.0574 12.774 33.051 12.5875 33.051 12.3622C33.051 11.1399 32.8064 9.90454 32.356 8.86226C32.3109 8.7593 32.2723 8.66283 32.2788 8.6563ZM39.118 10.0075C39.1374 10.0268 39.0537 10.548 38.9765 10.8567C38.7449 11.8154 38.1208 13.2374 37.3552 14.5756C37.22 14.8136 37.0978 15.0067 37.0848 15.0131C37.0721 15.0194 36.8984 14.923 36.6989 14.8072C35.9526 14.3697 35.1033 13.9579 34.1768 13.5718C33.9195 13.4624 33.6943 13.3724 33.6878 13.3595C33.6427 13.3209 35.7145 11.9505 36.8083 11.2943C37.6769 10.7667 39.0923 9.98171 39.118 10.0075ZM39.607 10.0847C39.665 10.0847 40.8359 10.4064 41.4471 10.5865C42.959 11.037 44.6963 11.6739 45.8286 12.1886L46.2982 12.4009L45.9701 12.4781C43.2037 13.115 40.8359 13.8486 38.5518 14.775C38.3653 14.8522 38.1979 14.9166 38.1852 14.9166C38.1723 14.9166 38.2366 14.7686 38.3202 14.5884C39.0087 13.128 39.4526 11.6031 39.5619 10.3034C39.5685 10.1811 39.5877 10.0847 39.607 10.0847ZM27.9488 12.7612C27.9681 12.7418 28.8624 12.9542 29.3449 13.0893C30.0784 13.2952 31.6354 13.8163 31.6354 13.8549C31.6354 13.8613 31.4617 14.0094 31.2559 14.1896C30.4131 14.8908 29.6023 15.6307 28.6307 16.57C28.3412 16.8468 28.0967 17.0719 28.084 17.0719C28.071 17.0719 28.0647 17.0332 28.071 16.9819C28.2189 15.9008 28.1869 14.5112 27.981 13.1021C27.9617 12.9219 27.9424 12.7677 27.9488 12.7612ZM46.7423 12.7805C46.7551 12.7934 46.3304 13.4624 46.0603 13.842C45.6743 14.3953 45.1079 15.1289 43.8276 16.7375C43.1521 17.5866 42.3928 18.5453 42.1421 18.867C41.8846 19.1887 41.6723 19.4589 41.6658 19.4589C41.6595 19.4589 41.5758 19.3431 41.4858 19.2016C40.7651 18.1207 39.903 17.1748 38.8799 16.3256C38.687 16.1647 38.4747 15.991 38.4038 15.9396C38.3331 15.8881 38.2752 15.8366 38.2752 15.8302C38.2752 15.8109 39.3689 15.3411 40.1989 15.0067C41.653 14.4147 43.6345 13.707 45.1209 13.2502C45.8994 13.0057 46.7293 12.7677 46.7423 12.7805ZM47.2377 12.9092C47.2633 12.9028 47.4178 12.9799 47.6044 13.0893C49.1679 13.9835 50.6991 15.1353 51.9088 16.3192C52.2497 16.6537 53.0925 17.5288 53.0796 17.5351C53.0796 17.5351 52.7836 17.5609 52.4363 17.5866C49.7277 17.7925 46.2598 18.3651 42.927 19.1693C42.7018 19.2208 42.5024 19.2658 42.4894 19.2658C42.4768 19.2658 42.7275 19.015 43.0429 18.7125C44.9987 16.8274 45.8931 15.6371 46.9481 13.5139C47.0961 13.1987 47.2248 12.9285 47.2377 12.9092C47.2313 12.9092 47.2313 12.9092 47.2377 12.9092ZM32.9093 14.3761C32.9994 14.3954 33.8359 14.788 34.4663 15.1032C35.0454 15.3926 35.914 15.8559 35.959 15.8945C35.9654 15.9008 35.6566 16.0618 35.2771 16.2484C34.0674 16.8531 33.0317 17.4257 31.9506 18.082C31.6419 18.2686 31.3845 18.4231 31.3781 18.4231C31.3523 18.4231 31.3588 18.3973 31.5324 18.082C32.1116 17.0269 32.5748 15.7659 32.8386 14.5369C32.8642 14.4404 32.89 14.3761 32.9093 14.3761ZM32.0728 14.5305C32.0923 14.5499 31.8734 15.3412 31.7384 15.7723C31.4746 16.5894 31.0306 17.6123 30.5996 18.3844C30.4965 18.5645 30.3422 18.8283 30.2586 18.9762L30.0977 19.2336L29.7375 18.8863C29.3193 18.4809 28.9781 18.23 28.5408 18.0048C28.3669 17.9147 28.2319 17.8374 28.2319 17.8247C28.2319 17.7732 29.332 16.7759 30.175 16.0553C30.7797 15.5342 32.0535 14.5112 32.0728 14.5305ZM37.188 16.6344L37.5033 16.8403C38.2236 17.31 39.073 17.934 39.7229 18.4809C40.0895 18.7833 40.7972 19.4203 40.939 19.5748L41.016 19.6585L40.4949 19.8063C37.5482 20.6234 35.2706 21.3504 32.6134 22.3284C32.3174 22.4378 32.0664 22.5278 32.0471 22.5278C32.0086 22.5278 31.9764 22.56 32.6391 21.9487C34.3377 20.3854 35.8431 18.6611 36.9627 16.9818L37.188 16.6344ZM35.8432 16.969C35.8561 16.9819 34.9746 18.2236 34.447 18.9249C33.8165 19.7613 32.697 21.1639 31.9249 22.0774C31.6033 22.4571 31.3266 22.7724 31.3138 22.7788C31.2943 22.7852 31.288 22.6888 31.288 22.5407C31.288 21.7622 31.0885 20.9321 30.7411 20.2245C30.5931 19.9285 30.5673 19.8578 30.5996 19.8256C30.7218 19.7163 32.5941 18.6482 33.7779 18.0112C34.5757 17.5866 35.8238 16.9562 35.8432 16.969ZM27.7107 18.9635C27.73 18.9635 27.8781 19.0407 28.0453 19.1308C28.457 19.356 28.8238 19.6069 29.1519 19.8772C29.1648 19.8899 28.9976 20.0251 28.7788 20.1859C28.1675 20.6234 27.2411 21.3247 26.7007 21.7559C26.1344 22.2062 26.1152 22.2191 26.1795 22.1226C26.6042 21.4728 26.8164 21.106 27.0417 20.6364C27.2411 20.2182 27.4404 19.7228 27.5821 19.2916C27.6335 19.1051 27.6978 18.9635 27.7107 18.9635ZM29.879 20.662C29.911 20.6557 29.9498 20.7136 30.1234 20.971C30.4901 21.5177 30.7732 22.2513 30.8441 22.8431L30.8569 22.9719L29.9756 23.3129C28.3992 23.924 26.9452 24.5289 25.9606 24.9792C25.684 25.108 25.2015 25.3395 24.8863 25.494C24.571 25.6548 24.3136 25.777 24.3136 25.7707C24.3136 25.7643 24.513 25.6162 24.7575 25.436C26.6814 24.0399 28.3477 22.5085 29.5958 20.9774C29.731 20.8165 29.8532 20.6684 29.8661 20.6621L29.879 20.662ZM28.8818 20.9065C28.9075 20.9323 28.174 21.7622 27.6722 22.2704C26.4304 23.538 25.2015 24.5289 23.6767 25.494C23.4837 25.6162 23.31 25.7256 23.2906 25.7385C23.2456 25.7643 23.3034 25.6998 23.9726 24.9728C24.3973 24.516 24.7189 24.13 25.0857 23.6539C25.3302 23.3387 25.3752 23.2936 25.7292 23.0426C26.6749 22.3606 28.8559 20.8808 28.8818 20.9065Z" fill="url(#paint2_radial_2042_7660)"/>
<path d="M27.6746 63.7757C27.6746 63.5541 27.6399 63.3586 27.5704 63.1891C27.5052 63.0153 27.3879 62.8589 27.2183 62.7198C27.0533 62.5807 26.823 62.4482 26.5275 62.3222C26.2363 62.1961 25.8669 62.068 25.4194 61.9377C24.9501 61.7986 24.5264 61.6443 24.1483 61.4748C23.7703 61.301 23.4465 61.1033 23.1771 60.8817C22.9077 60.6601 22.7013 60.4059 22.5579 60.1191C22.4145 59.8323 22.3428 59.5042 22.3428 59.1348C22.3428 58.7655 22.4189 58.4244 22.5709 58.1116C22.723 57.7986 22.9403 57.5271 23.2228 57.2968C23.5096 57.0621 23.8507 56.8795 24.2461 56.7492C24.6415 56.6189 25.0826 56.5537 25.5693 56.5537C26.2819 56.5537 26.8859 56.6906 27.3813 56.9643C27.8811 57.2338 28.2613 57.5879 28.5219 58.0267C28.7827 58.4613 28.9131 58.9262 28.9131 59.4217H27.6617C27.6617 59.0653 27.5856 58.7502 27.4335 58.4765C27.2813 58.1984 27.0511 57.9811 26.7425 57.8247C26.434 57.6639 26.0429 57.5835 25.5693 57.5835C25.1217 57.5835 24.7523 57.6509 24.4612 57.7856C24.1701 57.9203 23.9528 58.1028 23.8094 58.3331C23.6703 58.5635 23.6008 58.8263 23.6008 59.1218C23.6008 59.3217 23.6421 59.5042 23.7247 59.6694C23.8116 59.8301 23.9441 59.9801 24.1223 60.1191C24.3048 60.2581 24.5351 60.3864 24.8132 60.5037C25.0956 60.6209 25.4324 60.7339 25.8235 60.8427C26.3623 60.9947 26.8273 61.1641 27.2183 61.351C27.6095 61.5379 27.9311 61.7486 28.183 61.9833C28.4394 62.2136 28.6285 62.4765 28.7501 62.772C28.8762 63.0631 28.9392 63.3933 28.9392 63.7627C28.9392 64.1495 28.8609 64.4992 28.7045 64.8121C28.548 65.1251 28.3243 65.3923 28.0331 65.6139C27.742 65.8355 27.3922 66.0071 26.9838 66.1288C26.5796 66.2461 26.1277 66.3048 25.6279 66.3048C25.1891 66.3048 24.7567 66.244 24.3308 66.1222C23.9093 66.0006 23.5248 65.8181 23.1771 65.5748C22.8338 65.3314 22.5579 65.0316 22.3493 64.6753C22.1451 64.3147 22.043 63.8974 22.043 63.4238H23.2944C23.2944 63.7497 23.3575 64.03 23.4835 64.2647C23.6095 64.495 23.7811 64.6861 23.9984 64.8382C24.22 64.9904 24.4699 65.1033 24.748 65.1771C25.0305 65.2467 25.3238 65.2815 25.6279 65.2815C26.0668 65.2815 26.4384 65.2206 26.7425 65.099C27.0467 64.9773 27.2771 64.8035 27.4335 64.5775C27.5943 64.3515 27.6746 64.0843 27.6746 63.7757ZM35.8676 63.7757C35.8676 63.5541 35.8329 63.3586 35.7634 63.1891C35.6982 63.0153 35.5808 62.8589 35.4114 62.7198C35.2463 62.5807 35.0159 62.4482 34.7204 62.3222C34.4293 62.1961 34.06 62.068 33.6124 61.9377C33.143 61.7986 32.7194 61.6443 32.3414 61.4748C31.9633 61.301 31.6396 61.1033 31.3702 60.8817C31.1007 60.6601 30.8943 60.4059 30.7509 60.1191C30.6076 59.8323 30.5358 59.5042 30.5358 59.1348C30.5358 58.7655 30.6119 58.4244 30.764 58.1116C30.916 57.7986 31.1333 57.5271 31.4158 57.2968C31.7026 57.0621 32.0437 56.8795 32.4392 56.7492C32.8346 56.6189 33.2756 56.5537 33.7623 56.5537C34.4749 56.5537 35.0789 56.6906 35.5743 56.9643C36.074 57.2338 36.4542 57.5879 36.715 58.0267C36.9757 58.4613 37.1062 58.9262 37.1062 59.4217H35.8546C35.8546 59.0653 35.7785 58.7502 35.6265 58.4765C35.4744 58.1984 35.2441 57.9811 34.9356 57.8247C34.6271 57.6639 34.236 57.5835 33.7623 57.5835C33.3148 57.5835 32.9454 57.6509 32.6542 57.7856C32.3631 57.9203 32.1459 58.1028 32.0024 58.3331C31.8633 58.5635 31.7938 58.8263 31.7938 59.1218C31.7938 59.3217 31.8351 59.5042 31.9177 59.6694C32.0046 59.8301 32.1371 59.9801 32.3153 60.1191C32.4978 60.2581 32.7281 60.3864 33.0062 60.5037C33.2887 60.6209 33.6254 60.7339 34.0166 60.8427C34.5554 60.9947 35.0203 61.1641 35.4114 61.351C35.8024 61.5379 36.124 61.7486 36.3761 61.9833C36.6325 62.2136 36.8215 62.4765 36.9432 62.772C37.0691 63.0631 37.1321 63.3933 37.1321 63.7627C37.1321 64.1495 37.054 64.4992 36.8975 64.8121C36.7411 65.1251 36.5173 65.3923 36.2262 65.6139C35.9351 65.8355 35.5852 66.0071 35.1767 66.1288C34.7726 66.2461 34.3207 66.3048 33.8209 66.3048C33.3821 66.3048 32.9497 66.244 32.5239 66.1222C32.1023 66.0006 31.7178 65.8181 31.3702 65.5748C31.0268 65.3314 30.7509 65.0316 30.5424 64.6753C30.3382 64.3147 30.236 63.8974 30.236 63.4238H31.4875C31.4875 63.7497 31.5505 64.03 31.6765 64.2647C31.8026 64.495 31.9741 64.6861 32.1915 64.8382C32.4131 64.9904 32.663 65.1033 32.941 65.1771C33.2235 65.2467 33.5168 65.2815 33.8209 65.2815C34.2599 65.2815 34.6314 65.2206 34.9356 65.099C35.2397 64.9773 35.47 64.8035 35.6265 64.5775C35.7873 64.3515 35.8676 64.0843 35.8676 63.7757ZM40.3518 56.684V66.1744H39.0938V56.684H40.3518ZM47.9648 63.7757C47.9648 63.5541 47.93 63.3586 47.8605 63.1891C47.7953 63.0153 47.6779 62.8589 47.5085 62.7198C47.3434 62.5807 47.113 62.4482 46.8176 62.3222C46.5264 62.1961 46.1571 62.068 45.7095 61.9377C45.2403 61.7986 44.8165 61.6443 44.4385 61.4748C44.0604 61.301 43.7367 61.1033 43.4673 60.8817C43.1978 60.6601 42.9914 60.4059 42.8481 60.1191C42.7047 59.8323 42.6329 59.5042 42.6329 59.1348C42.6329 58.7655 42.709 58.4244 42.8611 58.1116C43.0131 57.7986 43.2305 57.5271 43.5129 57.2968C43.7997 57.0621 44.1408 56.8795 44.5363 56.7492C44.9317 56.6189 45.3728 56.5537 45.8594 56.5537C46.572 56.5537 47.1761 56.6906 47.6715 56.9643C48.1712 57.2338 48.5515 57.5879 48.8121 58.0267C49.0729 58.4613 49.2033 58.9262 49.2033 59.4217H47.9517C47.9517 59.0653 47.8757 58.7502 47.7236 58.4765C47.5715 58.1984 47.3412 57.9811 47.0327 57.8247C46.7242 57.6639 46.3331 57.5835 45.8594 57.5835C45.4119 57.5835 45.0425 57.6509 44.7513 57.7856C44.4602 57.9203 44.243 58.1028 44.0995 58.3331C43.9604 58.5635 43.8909 58.8263 43.8909 59.1218C43.8909 59.3217 43.9323 59.5042 44.0148 59.6694C44.1017 59.8301 44.2342 59.9801 44.4124 60.1191C44.5949 60.2581 44.8252 60.3864 45.1034 60.5037C45.3858 60.6209 45.7225 60.7339 46.1137 60.8427C46.6525 60.9947 47.1174 61.1641 47.5085 61.351C47.8997 61.5379 48.2211 61.7486 48.4732 61.9833C48.7296 62.2136 48.9186 62.4765 49.0403 62.772C49.1662 63.0631 49.2293 63.3933 49.2293 63.7627C49.2293 64.1495 49.1511 64.4992 48.9946 64.8121C48.8382 65.1251 48.6144 65.3923 48.3233 65.6139C48.0322 65.8355 47.6823 66.0071 47.2738 66.1288C46.8697 66.2461 46.4178 66.3048 45.918 66.3048C45.4792 66.3048 45.0468 66.244 44.621 66.1222C44.1995 66.0006 43.8149 65.8181 43.4673 65.5748C43.1239 65.3314 42.8481 65.0316 42.6395 64.6753C42.4352 64.3147 42.3331 63.8974 42.3331 63.4238H43.5846C43.5846 63.7497 43.6476 64.03 43.7737 64.2647C43.8996 64.495 44.0712 64.6861 44.2886 64.8382C44.5102 64.9904 44.7601 65.1033 45.0381 65.1771C45.3206 65.2467 45.6139 65.2815 45.918 65.2815C46.357 65.2815 46.7286 65.2206 47.0327 65.099C47.3369 64.9773 47.5671 64.8035 47.7236 64.5775C47.8844 64.3515 47.9648 64.0843 47.9648 63.7757Z" fill="#3A3A3A"/>
</g>
<defs>
<linearGradient id="paint0_linear_2042_7660" x1="21.3063" y1="38.9116" x2="24.3843" y2="37.0929" gradientUnits="userSpaceOnUse">
<stop stop-color="#909CA9"/>
<stop offset="1" stop-color="#EDEDEE"/>
</linearGradient>
<linearGradient id="paint1_linear_2042_7660" x1="21.3741" y1="4.62451" x2="23.8507" y2="4.62451" gradientUnits="userSpaceOnUse">
<stop stop-color="#939FAB"/>
<stop offset="1" stop-color="#DCDEE1"/>
</linearGradient>
<radialGradient id="paint2_radial_2042_7660" cx="0" cy="0" r="1" gradientUnits="userSpaceOnUse" gradientTransform="translate(33.8736 15.9842) rotate(-171.457) scale(3.19305 6.38768)">
<stop stop-color="#EE352C"/>
<stop offset="1" stop-color="#A91D22"/>
</radialGradient>
<clipPath id="clip0_2042_7660">
<rect width="67.9592" height="67.9592" fill="white" transform="translate(0.519531 0.0205078)"/>
</clipPath>
</defs>
</svg>
