<svg width="68" height="68" viewBox="0 0 68 68" fill="none" xmlns="http://www.w3.org/2000/svg">
<g clip-path="url(#clip0_1307_4731)">
<path d="M34.0002 61.5513C49.2163 61.5513 61.5513 49.2163 61.5513 34.0002C61.5513 18.7842 49.2163 6.44922 34.0002 6.44922C18.7842 6.44922 6.44922 18.7842 6.44922 34.0002C6.44922 49.2163 18.7842 61.5513 34.0002 61.5513Z" fill="#05930C"/>
<path d="M14.8227 14.2188L53.7458 53.2135C48.7406 58.3563 41.7435 61.5506 34.0002 61.5506C18.7842 61.5506 6.44922 49.2156 6.44922 33.9996C6.44922 26.2382 9.65862 19.2263 14.8227 14.2188Z" fill="white" fill-opacity="0.1"/>
<path d="M32.6481 43.9429C30.7739 44.8549 28.7043 45.2924 26.6213 45.2172C23.8365 45.3392 21.1344 44.2534 19.2084 42.2382C17.2946 40.093 16.2964 37.2839 16.4275 34.412C16.2927 31.2999 17.4232 28.2657 19.5614 26.0003C21.6515 23.8619 24.5455 22.7025 27.534 22.8061C29.2797 22.7395 31.0204 23.0326 32.6481 23.6671V26.3792C31.0694 25.5017 29.2883 25.0535 27.4823 25.0791C25.2074 25.0037 23.0106 25.9138 21.4555 27.5759C19.8433 29.4137 19.0096 31.8067 19.1309 34.2484C19.0116 36.556 19.789 38.8203 21.3005 40.5679C22.767 42.1447 24.8485 43.0031 27.0002 42.9184C28.9842 42.9677 30.9428 42.4639 32.6567 41.4634L32.6481 43.9429ZM51.8736 29.229L51.5292 30.8304H47.5687L46.6217 35.3763H50.8748L50.4702 36.9777H46.3031L44.9686 43.0045H43.0659L44.3659 36.9777H40.5777L39.3034 43.0045H37.4437L38.718 36.9777H34.7231L35.0244 35.3763H39.0365L39.9578 30.839H35.7648L36.0834 29.2376H40.2763L41.5505 23.1505H43.4705L42.1963 29.2376H46.0104L47.3104 23.1505H49.1701L47.8959 29.2376L51.8736 29.229ZM45.7004 30.8304H41.8777L40.8876 35.3763H44.7275L45.7004 30.8304Z" fill="white"/>
</g>
<defs>
<clipPath id="clip0_1307_4731">
<rect width="55.102" height="55.102" fill="white" transform="translate(6.44922 6.44922)"/>
</clipPath>
</defs>
</svg>
