<svg width="68" height="68" viewBox="0 0 68 68" fill="none" xmlns="http://www.w3.org/2000/svg">
<g clip-path="url(#clip0_1614_1664)">
<path d="M26.8083 49.5469C26.8083 49.5469 24.6364 50.81 28.3541 51.2374C32.8579 51.7512 35.1598 51.6775 40.1231 50.7381C40.1231 50.7381 41.428 51.5563 43.2504 52.265C32.124 57.0336 18.0691 51.9888 26.8083 49.5469Z" fill="#5382A1"/>
<path d="M25.4496 43.3242C25.4496 43.3242 23.0136 45.1275 26.734 45.5123C31.5452 46.0086 35.3447 46.0492 41.9193 44.7832C41.9193 44.7832 42.8286 45.7051 44.2585 46.2093C30.806 50.143 15.8224 46.5195 25.4496 43.3242Z" fill="#5382A1"/>
<path d="M36.9111 32.7709C39.6526 35.9273 36.1908 38.7677 36.1908 38.7677C36.1908 38.7677 43.152 35.1741 39.955 30.674C36.9691 26.4774 34.6793 24.3923 47.0753 17.2031C47.0753 17.2031 27.6178 22.0627 36.9111 32.7709Z" fill="#E76F00"/>
<path d="M51.6266 54.1526C51.6266 54.1526 53.2339 55.4769 49.8565 56.5015C43.4341 58.4471 23.1261 59.0346 17.4846 56.579C15.4566 55.6968 19.2597 54.4725 20.4559 54.2156C21.7035 53.945 22.4165 53.9954 22.4165 53.9954C20.1612 52.4067 7.8391 57.115 16.1575 58.4634C38.8429 62.1424 57.5109 56.8068 51.6266 54.1526Z" fill="#5382A1"/>
<path d="M27.8533 36.8764C27.8533 36.8764 17.5233 39.33 24.1952 40.221C27.0123 40.5981 32.628 40.5128 37.859 40.0745C42.134 39.7139 46.4266 38.9472 46.4266 38.9472C46.4266 38.9472 44.9192 39.5927 43.8286 40.3374C33.3387 43.0962 13.0741 41.8128 18.908 38.9908C23.8418 36.6059 27.8533 36.8764 27.8533 36.8764Z" fill="#5382A1"/>
<path d="M46.3823 47.2352C57.0458 41.6941 52.1154 36.3691 48.6741 37.0865C47.8306 37.2621 47.4545 37.4142 47.4545 37.4142C47.4545 37.4142 47.7676 36.9236 48.3657 36.7113C55.1737 34.3178 60.4096 43.7706 46.168 47.5145C46.168 47.5145 46.333 47.3671 46.3823 47.2352Z" fill="#5382A1"/>
<path d="M39.9547 5.59375C39.9547 5.59375 45.8603 11.5013 34.3535 20.5855C25.1263 27.8726 32.2494 32.0275 34.3497 36.7747C28.9636 31.9151 25.0109 27.6372 27.6627 23.6557C31.5548 17.8112 42.3375 14.9776 39.9547 5.59375Z" fill="#E76F00"/>
<path d="M28.9007 62.2536C39.1363 62.9088 54.8542 61.8901 55.2265 57.0469C55.2265 57.0469 54.5109 58.8829 46.7673 60.341C38.031 61.9851 27.256 61.7931 20.8652 60.7394C20.8652 60.7394 22.1735 61.8222 28.9007 62.2536Z" fill="#5382A1"/>
</g>
<defs>
<clipPath id="clip0_1614_1664">
<rect width="56.9388" height="56.9388" fill="white" transform="translate(5.5293 5.53125)"/>
</clipPath>
</defs>
</svg>
