<svg width="68" height="68" viewBox="0 0 68 68" fill="none" xmlns="http://www.w3.org/2000/svg">
<g clip-path="url(#clip0_1614_3634)">
<path d="M33.7567 5.54688C19.3368 5.54688 20.2373 11.8002 20.2373 11.8002L20.2534 18.2785H34.0139V20.2236H14.7878C14.7878 20.2236 5.56055 19.1772 5.56055 33.7269C5.56055 48.2766 13.6143 47.7607 13.6143 47.7607H18.4208V41.009C18.4208 41.009 18.1617 32.9553 26.3459 32.9553H39.9939C39.9939 32.9553 47.6618 33.0792 47.6618 25.5446V13.0862C47.6618 13.0862 48.826 5.54688 33.7567 5.54688ZM26.1691 9.90329C27.5382 9.90329 28.6447 11.0098 28.6447 12.3789C28.6447 13.748 27.5382 14.8545 26.1691 14.8545C24.8 14.8545 23.6935 13.748 23.6935 12.3789C23.6935 11.0098 24.8 9.90329 26.1691 9.90329Z" fill="url(#paint0_linear_1614_3634)"/>
<path d="M34.1662 62.052C48.586 62.052 47.6856 55.7987 47.6856 55.7987L47.6695 49.3203H33.909V47.3752H53.1351C53.1351 47.3752 62.3623 48.4217 62.3623 33.872C62.3624 19.3222 54.3086 19.8382 54.3086 19.8382H49.5021V26.5898C49.5021 26.5898 49.7612 34.6436 41.577 34.6436H27.929C27.929 34.6436 20.2611 34.5196 20.2611 42.0543V54.5127C20.2611 54.5127 19.0969 62.052 34.1662 62.052ZM41.7538 57.6956C40.3847 57.6956 39.2782 56.589 39.2782 55.22C39.2782 53.8509 40.3847 52.7444 41.7538 52.7444C43.1229 52.7444 44.2294 53.8509 44.2294 55.22C44.2294 56.589 43.1229 57.6956 41.7538 57.6956Z" fill="url(#paint1_linear_1614_3634)"/>
</g>
<defs>
<linearGradient id="paint0_linear_1614_3634" x1="551.436" y1="513.803" x2="3366.32" y2="3300.61" gradientUnits="userSpaceOnUse">
<stop stop-color="#387EB8"/>
<stop offset="1" stop-color="#366994"/>
</linearGradient>
<linearGradient id="paint1_linear_1614_3634" x1="825.932" y1="888.608" x2="3848.82" y2="3746.24" gradientUnits="userSpaceOnUse">
<stop stop-color="#FFE052"/>
<stop offset="1" stop-color="#FFC331"/>
</linearGradient>
<clipPath id="clip0_1614_3634">
<rect width="56.9388" height="56.9388" fill="white" transform="translate(5.5293 5.53125)"/>
</clipPath>
</defs>
</svg>
