<svg width="68" height="68" viewBox="0 0 68 68" fill="none" xmlns="http://www.w3.org/2000/svg">
<g clip-path="url(#clip0_1307_2251)">
<path d="M11.5285 7.36719H56.4711C58.7694 7.36719 60.6325 9.23029 60.6325 11.5285V56.4711C60.6325 58.7694 58.7694 60.6325 56.4711 60.6325H11.5285C9.23029 60.6325 7.36719 58.7694 7.36719 56.4711V11.5285C7.36719 9.23029 9.23029 7.36719 11.5285 7.36719Z" fill="#3178C6"/>
<path d="M38.6856 49.078V54.8249C39.6202 55.3038 40.7257 55.6629 42.0018 55.9024C43.2778 56.1419 44.6228 56.2616 46.0368 56.2616C47.4146 56.2616 48.7238 56.1299 49.9639 55.8664C51.204 55.603 52.2915 55.169 53.226 54.5646C54.1606 53.9599 54.9005 53.1697 55.4458 52.1938C55.991 51.2182 56.2635 50.012 56.2635 48.5753C56.2635 47.5337 56.1077 46.6207 55.7962 45.8365C55.4848 45.0523 55.0353 44.3549 54.4482 43.7444C53.8612 43.1337 53.1571 42.5861 52.3365 42.1011C51.5157 41.6163 50.59 41.1583 49.5594 40.7274C48.8045 40.416 48.1277 40.1138 47.5285 39.8205C46.9294 39.5271 46.4201 39.2279 46.0008 38.9225C45.5814 38.6172 45.2578 38.2939 45.0302 37.9527C44.8026 37.6114 44.6887 37.2255 44.6887 36.7943C44.6887 36.3992 44.7905 36.0432 44.9942 35.7259C45.1979 35.4086 45.4856 35.1362 45.857 34.9088C46.2285 34.6812 46.6837 34.5048 47.223 34.3789C47.7621 34.2532 48.3614 34.1904 49.0203 34.1904C49.4997 34.1904 50.0059 34.2264 50.539 34.2982C51.0723 34.3699 51.6085 34.4806 52.1478 34.6304C52.6869 34.78 53.211 34.9685 53.7203 35.1962C54.2295 35.4236 54.6999 35.687 55.1312 35.9862V30.6166C54.2565 30.2814 53.3009 30.033 52.2645 29.8713C51.2281 29.7096 50.0388 29.6289 48.6968 29.6289C47.3308 29.6289 46.0368 29.7756 44.8146 30.069C43.5924 30.3621 42.5169 30.8201 41.5883 31.4426C40.6597 32.0654 39.9259 32.8585 39.3866 33.8223C38.8475 34.7861 38.5778 35.9383 38.5778 37.2793C38.5778 38.9913 39.072 40.452 40.0607 41.6612C41.0492 42.8703 42.5498 43.894 44.5629 44.7321C45.3537 45.0555 46.0907 45.3725 46.7736 45.684C47.4567 45.9953 48.0468 46.3184 48.544 46.6536C49.0413 46.9888 49.4337 47.354 49.7213 47.7491C50.0088 48.1442 50.1526 48.5932 50.1526 49.0961C50.1526 49.4671 50.0627 49.8115 49.8829 50.1288C49.7034 50.4459 49.4306 50.7213 49.0652 50.9548C48.6999 51.1882 48.2444 51.3707 47.6993 51.5024C47.1541 51.6341 46.516 51.7001 45.7851 51.7001C44.5389 51.7001 43.3049 51.4816 42.0827 51.0445C40.8603 50.6075 39.728 49.9521 38.6856 49.078ZM29.107 34.7769H36.4971V30.045H15.8984V34.7769H23.2525V55.8454H29.107V34.7769Z" fill="white"/>
</g>
<defs>
<clipPath id="clip0_1307_2251">
<rect width="53.2653" height="53.2653" fill="white" transform="translate(7.36719 7.36719)"/>
</clipPath>
</defs>
</svg>
