<svg width="368" height="185" viewBox="0 0 368 185" fill="none" xmlns="http://www.w3.org/2000/svg">
<path d="M52 2.59961C52 3.70418 51.1046 4.59961 50 4.59961C48.8954 4.59961 48 3.70418 48 2.59961C48 1.49504 48.8954 0.599609 50 0.599609C51.1046 0.599609 52 1.49504 52 2.59961Z" fill="#D9D9D9"/>
<path d="M244 2.59961C244 3.70418 243.105 4.59961 242 4.59961C240.895 4.59961 240 3.70418 240 2.59961C240 1.49504 240.895 0.599609 242 0.599609C243.105 0.599609 244 1.49504 244 2.59961Z" fill="#D9D9D9"/>
<path d="M52 98.5996C52 99.7042 51.1046 100.6 50 100.6C48.8954 100.6 48 99.7042 48 98.5996C48 97.495 48.8954 96.5996 50 96.5996C51.1046 96.5996 52 97.495 52 98.5996Z" fill="#D9D9D9"/>
<path d="M244 98.5996C244 99.7042 243.105 100.6 242 100.6C240.895 100.6 240 99.7042 240 98.5996C240 97.495 240.895 96.5996 242 96.5996C243.105 96.5996 244 97.495 244 98.5996Z" fill="#D9D9D9"/>
<path d="M148 2.59961C148 3.70418 147.105 4.59961 146 4.59961C144.895 4.59961 144 3.70418 144 2.59961C144 1.49504 144.895 0.599609 146 0.599609C147.105 0.599609 148 1.49504 148 2.59961Z" fill="#D9D9D9"/>
<path d="M340 2.59961C340 3.70418 339.105 4.59961 338 4.59961C336.895 4.59961 336 3.70418 336 2.59961C336 1.49504 336.895 0.599609 338 0.599609C339.105 0.599609 340 1.49504 340 2.59961Z" fill="#D9D9D9"/>
<path d="M148 98.5996C148 99.7042 147.105 100.6 146 100.6C144.895 100.6 144 99.7042 144 98.5996C144 97.495 144.895 96.5996 146 96.5996C147.105 96.5996 148 97.495 148 98.5996Z" fill="#D9D9D9"/>
<path d="M340 98.5996C340 99.7042 339.105 100.6 338 100.6C336.895 100.6 336 99.7042 336 98.5996C336 97.495 336.895 96.5996 338 96.5996C339.105 96.5996 340 97.495 340 98.5996Z" fill="#D9D9D9"/>
<path d="M52 50.5996C52 51.7042 51.1046 52.5996 50 52.5996C48.8954 52.5996 48 51.7042 48 50.5996C48 49.495 48.8954 48.5996 50 48.5996C51.1046 48.5996 52 49.495 52 50.5996Z" fill="#D9D9D9"/>
<path d="M244 50.5996C244 51.7042 243.105 52.5996 242 52.5996C240.895 52.5996 240 51.7042 240 50.5996C240 49.495 240.895 48.5996 242 48.5996C243.105 48.5996 244 49.495 244 50.5996Z" fill="#D9D9D9"/>
<path d="M52 146.6C52 147.704 51.1046 148.6 50 148.6C48.8954 148.6 48 147.704 48 146.6C48 145.495 48.8954 144.6 50 144.6C51.1046 144.6 52 145.495 52 146.6Z" fill="#D9D9D9"/>
<path d="M244 146.6C244 147.704 243.105 148.6 242 148.6C240.895 148.6 240 147.704 240 146.6C240 145.495 240.895 144.6 242 144.6C243.105 144.6 244 145.495 244 146.6Z" fill="#D9D9D9"/>
<path d="M148 50.5996C148 51.7042 147.105 52.5996 146 52.5996C144.895 52.5996 144 51.7042 144 50.5996C144 49.495 144.895 48.5996 146 48.5996C147.105 48.5996 148 49.495 148 50.5996Z" fill="#D9D9D9"/>
<path d="M340 50.5996C340 51.7042 339.105 52.5996 338 52.5996C336.895 52.5996 336 51.7042 336 50.5996C336 49.495 336.895 48.5996 338 48.5996C339.105 48.5996 340 49.495 340 50.5996Z" fill="#D9D9D9"/>
<path d="M148 146.6C148 147.704 147.105 148.6 146 148.6C144.895 148.6 144 147.704 144 146.6C144 145.495 144.895 144.6 146 144.6C147.105 144.6 148 145.495 148 146.6Z" fill="#D9D9D9"/>
<path d="M340 146.6C340 147.704 339.105 148.6 338 148.6C336.895 148.6 336 147.704 336 146.6C336 145.495 336.895 144.6 338 144.6C339.105 144.6 340 145.495 340 146.6Z" fill="#D9D9D9"/>
<path d="M4 2.59961C4 3.70418 3.10457 4.59961 2 4.59961C0.89543 4.59961 0 3.70418 0 2.59961C0 1.49504 0.89543 0.599609 2 0.599609C3.10457 0.599609 4 1.49504 4 2.59961Z" fill="#D9D9D9"/>
<path d="M196 2.59961C196 3.70418 195.105 4.59961 194 4.59961C192.895 4.59961 192 3.70418 192 2.59961C192 1.49504 192.895 0.599609 194 0.599609C195.105 0.599609 196 1.49504 196 2.59961Z" fill="#D9D9D9"/>
<path d="M4 98.5996C4 99.7042 3.10457 100.6 2 100.6C0.89543 100.6 0 99.7042 0 98.5996C0 97.495 0.89543 96.5996 2 96.5996C3.10457 96.5996 4 97.495 4 98.5996Z" fill="#D9D9D9"/>
<path d="M196 98.5996C196 99.7042 195.105 100.6 194 100.6C192.895 100.6 192 99.7042 192 98.5996C192 97.495 192.895 96.5996 194 96.5996C195.105 96.5996 196 97.495 196 98.5996Z" fill="#D9D9D9"/>
<path d="M100 2.59961C100 3.70418 99.1046 4.59961 98 4.59961C96.8954 4.59961 96 3.70418 96 2.59961C96 1.49504 96.8954 0.599609 98 0.599609C99.1046 0.599609 100 1.49504 100 2.59961Z" fill="#D9D9D9"/>
<path d="M292 2.59961C292 3.70418 291.105 4.59961 290 4.59961C288.895 4.59961 288 3.70418 288 2.59961C288 1.49504 288.895 0.599609 290 0.599609C291.105 0.599609 292 1.49504 292 2.59961Z" fill="#D9D9D9"/>
<path d="M100 98.5996C100 99.7042 99.1046 100.6 98 100.6C96.8954 100.6 96 99.7042 96 98.5996C96 97.495 96.8954 96.5996 98 96.5996C99.1046 96.5996 100 97.495 100 98.5996Z" fill="#D9D9D9"/>
<path d="M292 98.5996C292 99.7042 291.105 100.6 290 100.6C288.895 100.6 288 99.7042 288 98.5996C288 97.495 288.895 96.5996 290 96.5996C291.105 96.5996 292 97.495 292 98.5996Z" fill="#D9D9D9"/>
<path d="M4 50.5996C4 51.7042 3.10457 52.5996 2 52.5996C0.89543 52.5996 0 51.7042 0 50.5996C0 49.495 0.89543 48.5996 2 48.5996C3.10457 48.5996 4 49.495 4 50.5996Z" fill="#D9D9D9"/>
<path d="M196 50.5996C196 51.7042 195.105 52.5996 194 52.5996C192.895 52.5996 192 51.7042 192 50.5996C192 49.495 192.895 48.5996 194 48.5996C195.105 48.5996 196 49.495 196 50.5996Z" fill="#D9D9D9"/>
<path d="M4 146.6C4 147.704 3.10457 148.6 2 148.6C0.89543 148.6 0 147.704 0 146.6C0 145.495 0.89543 144.6 2 144.6C3.10457 144.6 4 145.495 4 146.6Z" fill="#D9D9D9"/>
<path d="M196 146.6C196 147.704 195.105 148.6 194 148.6C192.895 148.6 192 147.704 192 146.6C192 145.495 192.895 144.6 194 144.6C195.105 144.6 196 145.495 196 146.6Z" fill="#D9D9D9"/>
<path d="M100 50.5996C100 51.7042 99.1046 52.5996 98 52.5996C96.8954 52.5996 96 51.7042 96 50.5996C96 49.495 96.8954 48.5996 98 48.5996C99.1046 48.5996 100 49.495 100 50.5996Z" fill="#D9D9D9"/>
<path d="M292 50.5996C292 51.7042 291.105 52.5996 290 52.5996C288.895 52.5996 288 51.7042 288 50.5996C288 49.495 288.895 48.5996 290 48.5996C291.105 48.5996 292 49.495 292 50.5996Z" fill="#D9D9D9"/>
<path d="M100 146.6C100 147.704 99.1046 148.6 98 148.6C96.8954 148.6 96 147.704 96 146.6C96 145.495 96.8954 144.6 98 144.6C99.1046 144.6 100 145.495 100 146.6Z" fill="#D9D9D9"/>
<path d="M292 146.6C292 147.704 291.105 148.6 290 148.6C288.895 148.6 288 147.704 288 146.6C288 145.495 288.895 144.6 290 144.6C291.105 144.6 292 145.495 292 146.6Z" fill="#D9D9D9"/>
<path d="M76 2.59961C76 3.70418 75.1046 4.59961 74 4.59961C72.8954 4.59961 72 3.70418 72 2.59961C72 1.49504 72.8954 0.599609 74 0.599609C75.1046 0.599609 76 1.49504 76 2.59961Z" fill="#D9D9D9"/>
<path d="M268 2.59961C268 3.70418 267.105 4.59961 266 4.59961C264.895 4.59961 264 3.70418 264 2.59961C264 1.49504 264.895 0.599609 266 0.599609C267.105 0.599609 268 1.49504 268 2.59961Z" fill="#D9D9D9"/>
<path d="M76 98.5996C76 99.7042 75.1046 100.6 74 100.6C72.8954 100.6 72 99.7042 72 98.5996C72 97.495 72.8954 96.5996 74 96.5996C75.1046 96.5996 76 97.495 76 98.5996Z" fill="#D9D9D9"/>
<path d="M268 98.5996C268 99.7042 267.105 100.6 266 100.6C264.895 100.6 264 99.7042 264 98.5996C264 97.495 264.895 96.5996 266 96.5996C267.105 96.5996 268 97.495 268 98.5996Z" fill="#D9D9D9"/>
<path d="M172 2.59961C172 3.70418 171.105 4.59961 170 4.59961C168.895 4.59961 168 3.70418 168 2.59961C168 1.49504 168.895 0.599609 170 0.599609C171.105 0.599609 172 1.49504 172 2.59961Z" fill="#D9D9D9"/>
<path d="M364 2.59961C364 3.70418 363.105 4.59961 362 4.59961C360.895 4.59961 360 3.70418 360 2.59961C360 1.49504 360.895 0.599609 362 0.599609C363.105 0.599609 364 1.49504 364 2.59961Z" fill="#D9D9D9"/>
<path d="M172 98.5996C172 99.7042 171.105 100.6 170 100.6C168.895 100.6 168 99.7042 168 98.5996C168 97.495 168.895 96.5996 170 96.5996C171.105 96.5996 172 97.495 172 98.5996Z" fill="#D9D9D9"/>
<path d="M364 98.5996C364 99.7042 363.105 100.6 362 100.6C360.895 100.6 360 99.7042 360 98.5996C360 97.495 360.895 96.5996 362 96.5996C363.105 96.5996 364 97.495 364 98.5996Z" fill="#D9D9D9"/>
<path d="M76 50.5996C76 51.7042 75.1046 52.5996 74 52.5996C72.8954 52.5996 72 51.7042 72 50.5996C72 49.495 72.8954 48.5996 74 48.5996C75.1046 48.5996 76 49.495 76 50.5996Z" fill="#D9D9D9"/>
<path d="M268 50.5996C268 51.7042 267.105 52.5996 266 52.5996C264.895 52.5996 264 51.7042 264 50.5996C264 49.495 264.895 48.5996 266 48.5996C267.105 48.5996 268 49.495 268 50.5996Z" fill="#D9D9D9"/>
<path d="M76 146.6C76 147.704 75.1046 148.6 74 148.6C72.8954 148.6 72 147.704 72 146.6C72 145.495 72.8954 144.6 74 144.6C75.1046 144.6 76 145.495 76 146.6Z" fill="#D9D9D9"/>
<path d="M268 146.6C268 147.704 267.105 148.6 266 148.6C264.895 148.6 264 147.704 264 146.6C264 145.495 264.895 144.6 266 144.6C267.105 144.6 268 145.495 268 146.6Z" fill="#D9D9D9"/>
<path d="M172 50.5996C172 51.7042 171.105 52.5996 170 52.5996C168.895 52.5996 168 51.7042 168 50.5996C168 49.495 168.895 48.5996 170 48.5996C171.105 48.5996 172 49.495 172 50.5996Z" fill="#D9D9D9"/>
<path d="M364 50.5996C364 51.7042 363.105 52.5996 362 52.5996C360.895 52.5996 360 51.7042 360 50.5996C360 49.495 360.895 48.5996 362 48.5996C363.105 48.5996 364 49.495 364 50.5996Z" fill="#D9D9D9"/>
<path d="M172 146.6C172 147.704 171.105 148.6 170 148.6C168.895 148.6 168 147.704 168 146.6C168 145.495 168.895 144.6 170 144.6C171.105 144.6 172 145.495 172 146.6Z" fill="#D9D9D9"/>
<path d="M364 146.6C364 147.704 363.105 148.6 362 148.6C360.895 148.6 360 147.704 360 146.6C360 145.495 360.895 144.6 362 144.6C363.105 144.6 364 145.495 364 146.6Z" fill="#D9D9D9"/>
<path d="M28 2.59961C28 3.70418 27.1046 4.59961 26 4.59961C24.8954 4.59961 24 3.70418 24 2.59961C24 1.49504 24.8954 0.599609 26 0.599609C27.1046 0.599609 28 1.49504 28 2.59961Z" fill="#D9D9D9"/>
<path d="M220 2.59961C220 3.70418 219.105 4.59961 218 4.59961C216.895 4.59961 216 3.70418 216 2.59961C216 1.49504 216.895 0.599609 218 0.599609C219.105 0.599609 220 1.49504 220 2.59961Z" fill="#D9D9D9"/>
<path d="M28 98.5996C28 99.7042 27.1046 100.6 26 100.6C24.8954 100.6 24 99.7042 24 98.5996C24 97.495 24.8954 96.5996 26 96.5996C27.1046 96.5996 28 97.495 28 98.5996Z" fill="#D9D9D9"/>
<path d="M220 98.5996C220 99.7042 219.105 100.6 218 100.6C216.895 100.6 216 99.7042 216 98.5996C216 97.495 216.895 96.5996 218 96.5996C219.105 96.5996 220 97.495 220 98.5996Z" fill="#D9D9D9"/>
<path d="M124 2.59961C124 3.70418 123.105 4.59961 122 4.59961C120.895 4.59961 120 3.70418 120 2.59961C120 1.49504 120.895 0.599609 122 0.599609C123.105 0.599609 124 1.49504 124 2.59961Z" fill="#D9D9D9"/>
<path d="M316 2.59961C316 3.70418 315.105 4.59961 314 4.59961C312.895 4.59961 312 3.70418 312 2.59961C312 1.49504 312.895 0.599609 314 0.599609C315.105 0.599609 316 1.49504 316 2.59961Z" fill="#D9D9D9"/>
<path d="M124 98.5996C124 99.7042 123.105 100.6 122 100.6C120.895 100.6 120 99.7042 120 98.5996C120 97.495 120.895 96.5996 122 96.5996C123.105 96.5996 124 97.495 124 98.5996Z" fill="#D9D9D9"/>
<path d="M316 98.5996C316 99.7042 315.105 100.6 314 100.6C312.895 100.6 312 99.7042 312 98.5996C312 97.495 312.895 96.5996 314 96.5996C315.105 96.5996 316 97.495 316 98.5996Z" fill="#D9D9D9"/>
<path d="M28 50.5996C28 51.7042 27.1046 52.5996 26 52.5996C24.8954 52.5996 24 51.7042 24 50.5996C24 49.495 24.8954 48.5996 26 48.5996C27.1046 48.5996 28 49.495 28 50.5996Z" fill="#D9D9D9"/>
<path d="M220 50.5996C220 51.7042 219.105 52.5996 218 52.5996C216.895 52.5996 216 51.7042 216 50.5996C216 49.495 216.895 48.5996 218 48.5996C219.105 48.5996 220 49.495 220 50.5996Z" fill="#D9D9D9"/>
<path d="M28 146.6C28 147.704 27.1046 148.6 26 148.6C24.8954 148.6 24 147.704 24 146.6C24 145.495 24.8954 144.6 26 144.6C27.1046 144.6 28 145.495 28 146.6Z" fill="#D9D9D9"/>
<path d="M220 146.6C220 147.704 219.105 148.6 218 148.6C216.895 148.6 216 147.704 216 146.6C216 145.495 216.895 144.6 218 144.6C219.105 144.6 220 145.495 220 146.6Z" fill="#D9D9D9"/>
<path d="M124 50.5996C124 51.7042 123.105 52.5996 122 52.5996C120.895 52.5996 120 51.7042 120 50.5996C120 49.495 120.895 48.5996 122 48.5996C123.105 48.5996 124 49.495 124 50.5996Z" fill="#D9D9D9"/>
<path d="M316 50.5996C316 51.7042 315.105 52.5996 314 52.5996C312.895 52.5996 312 51.7042 312 50.5996C312 49.495 312.895 48.5996 314 48.5996C315.105 48.5996 316 49.495 316 50.5996Z" fill="#D9D9D9"/>
<path d="M124 146.6C124 147.704 123.105 148.6 122 148.6C120.895 148.6 120 147.704 120 146.6C120 145.495 120.895 144.6 122 144.6C123.105 144.6 124 145.495 124 146.6Z" fill="#D9D9D9"/>
<path d="M316 146.6C316 147.704 315.105 148.6 314 148.6C312.895 148.6 312 147.704 312 146.6C312 145.495 312.895 144.6 314 144.6C315.105 144.6 316 145.495 316 146.6Z" fill="#D9D9D9"/>
<path d="M52 26.5996C52 27.7042 51.1046 28.5996 50 28.5996C48.8954 28.5996 48 27.7042 48 26.5996C48 25.495 48.8954 24.5996 50 24.5996C51.1046 24.5996 52 25.495 52 26.5996Z" fill="#D9D9D9"/>
<path d="M244 26.5996C244 27.7042 243.105 28.5996 242 28.5996C240.895 28.5996 240 27.7042 240 26.5996C240 25.495 240.895 24.5996 242 24.5996C243.105 24.5996 244 25.495 244 26.5996Z" fill="#D9D9D9"/>
<path d="M52 122.6C52 123.704 51.1046 124.6 50 124.6C48.8954 124.6 48 123.704 48 122.6C48 121.495 48.8954 120.6 50 120.6C51.1046 120.6 52 121.495 52 122.6Z" fill="#D9D9D9"/>
<path d="M244 122.6C244 123.704 243.105 124.6 242 124.6C240.895 124.6 240 123.704 240 122.6C240 121.495 240.895 120.6 242 120.6C243.105 120.6 244 121.495 244 122.6Z" fill="#D9D9D9"/>
<path d="M148 26.5996C148 27.7042 147.105 28.5996 146 28.5996C144.895 28.5996 144 27.7042 144 26.5996C144 25.495 144.895 24.5996 146 24.5996C147.105 24.5996 148 25.495 148 26.5996Z" fill="#D9D9D9"/>
<path d="M340 26.5996C340 27.7042 339.105 28.5996 338 28.5996C336.895 28.5996 336 27.7042 336 26.5996C336 25.495 336.895 24.5996 338 24.5996C339.105 24.5996 340 25.495 340 26.5996Z" fill="#D9D9D9"/>
<path d="M148 122.6C148 123.704 147.105 124.6 146 124.6C144.895 124.6 144 123.704 144 122.6C144 121.495 144.895 120.6 146 120.6C147.105 120.6 148 121.495 148 122.6Z" fill="#D9D9D9"/>
<path d="M340 122.6C340 123.704 339.105 124.6 338 124.6C336.895 124.6 336 123.704 336 122.6C336 121.495 336.895 120.6 338 120.6C339.105 120.6 340 121.495 340 122.6Z" fill="#D9D9D9"/>
<path d="M52 74.5996C52 75.7042 51.1046 76.5996 50 76.5996C48.8954 76.5996 48 75.7042 48 74.5996C48 73.495 48.8954 72.5996 50 72.5996C51.1046 72.5996 52 73.495 52 74.5996Z" fill="#D9D9D9"/>
<path d="M244 74.5996C244 75.7042 243.105 76.5996 242 76.5996C240.895 76.5996 240 75.7042 240 74.5996C240 73.495 240.895 72.5996 242 72.5996C243.105 72.5996 244 73.495 244 74.5996Z" fill="#D9D9D9"/>
<path d="M52 170.6C52 171.704 51.1046 172.6 50 172.6C48.8954 172.6 48 171.704 48 170.6C48 169.495 48.8954 168.6 50 168.6C51.1046 168.6 52 169.495 52 170.6Z" fill="#D9D9D9"/>
<path d="M244 170.6C244 171.704 243.105 172.6 242 172.6C240.895 172.6 240 171.704 240 170.6C240 169.495 240.895 168.6 242 168.6C243.105 168.6 244 169.495 244 170.6Z" fill="#D9D9D9"/>
<path d="M148 74.5996C148 75.7042 147.105 76.5996 146 76.5996C144.895 76.5996 144 75.7042 144 74.5996C144 73.495 144.895 72.5996 146 72.5996C147.105 72.5996 148 73.495 148 74.5996Z" fill="#D9D9D9"/>
<path d="M340 74.5996C340 75.7042 339.105 76.5996 338 76.5996C336.895 76.5996 336 75.7042 336 74.5996C336 73.495 336.895 72.5996 338 72.5996C339.105 72.5996 340 73.495 340 74.5996Z" fill="#D9D9D9"/>
<path d="M148 170.6C148 171.704 147.105 172.6 146 172.6C144.895 172.6 144 171.704 144 170.6C144 169.495 144.895 168.6 146 168.6C147.105 168.6 148 169.495 148 170.6Z" fill="#D9D9D9"/>
<path d="M340 170.6C340 171.704 339.105 172.6 338 172.6C336.895 172.6 336 171.704 336 170.6C336 169.495 336.895 168.6 338 168.6C339.105 168.6 340 169.495 340 170.6Z" fill="#D9D9D9"/>
<path d="M4 26.5996C4 27.7042 3.10457 28.5996 2 28.5996C0.89543 28.5996 0 27.7042 0 26.5996C0 25.495 0.89543 24.5996 2 24.5996C3.10457 24.5996 4 25.495 4 26.5996Z" fill="#D9D9D9"/>
<path d="M196 26.5996C196 27.7042 195.105 28.5996 194 28.5996C192.895 28.5996 192 27.7042 192 26.5996C192 25.495 192.895 24.5996 194 24.5996C195.105 24.5996 196 25.495 196 26.5996Z" fill="#D9D9D9"/>
<path d="M4 122.6C4 123.704 3.10457 124.6 2 124.6C0.89543 124.6 0 123.704 0 122.6C0 121.495 0.89543 120.6 2 120.6C3.10457 120.6 4 121.495 4 122.6Z" fill="#D9D9D9"/>
<path d="M196 122.6C196 123.704 195.105 124.6 194 124.6C192.895 124.6 192 123.704 192 122.6C192 121.495 192.895 120.6 194 120.6C195.105 120.6 196 121.495 196 122.6Z" fill="#D9D9D9"/>
<path d="M100 26.5996C100 27.7042 99.1046 28.5996 98 28.5996C96.8954 28.5996 96 27.7042 96 26.5996C96 25.495 96.8954 24.5996 98 24.5996C99.1046 24.5996 100 25.495 100 26.5996Z" fill="#D9D9D9"/>
<path d="M292 26.5996C292 27.7042 291.105 28.5996 290 28.5996C288.895 28.5996 288 27.7042 288 26.5996C288 25.495 288.895 24.5996 290 24.5996C291.105 24.5996 292 25.495 292 26.5996Z" fill="#D9D9D9"/>
<path d="M100 122.6C100 123.704 99.1046 124.6 98 124.6C96.8954 124.6 96 123.704 96 122.6C96 121.495 96.8954 120.6 98 120.6C99.1046 120.6 100 121.495 100 122.6Z" fill="#D9D9D9"/>
<path d="M292 122.6C292 123.704 291.105 124.6 290 124.6C288.895 124.6 288 123.704 288 122.6C288 121.495 288.895 120.6 290 120.6C291.105 120.6 292 121.495 292 122.6Z" fill="#D9D9D9"/>
<path d="M4 74.5996C4 75.7042 3.10457 76.5996 2 76.5996C0.89543 76.5996 0 75.7042 0 74.5996C0 73.495 0.89543 72.5996 2 72.5996C3.10457 72.5996 4 73.495 4 74.5996Z" fill="#D9D9D9"/>
<path d="M196 74.5996C196 75.7042 195.105 76.5996 194 76.5996C192.895 76.5996 192 75.7042 192 74.5996C192 73.495 192.895 72.5996 194 72.5996C195.105 72.5996 196 73.495 196 74.5996Z" fill="#D9D9D9"/>
<path d="M4 170.6C4 171.704 3.10457 172.6 2 172.6C0.89543 172.6 0 171.704 0 170.6C0 169.495 0.89543 168.6 2 168.6C3.10457 168.6 4 169.495 4 170.6Z" fill="#D9D9D9"/>
<path d="M196 170.6C196 171.704 195.105 172.6 194 172.6C192.895 172.6 192 171.704 192 170.6C192 169.495 192.895 168.6 194 168.6C195.105 168.6 196 169.495 196 170.6Z" fill="#D9D9D9"/>
<path d="M100 74.5996C100 75.7042 99.1046 76.5996 98 76.5996C96.8954 76.5996 96 75.7042 96 74.5996C96 73.495 96.8954 72.5996 98 72.5996C99.1046 72.5996 100 73.495 100 74.5996Z" fill="#D9D9D9"/>
<path d="M292 74.5996C292 75.7042 291.105 76.5996 290 76.5996C288.895 76.5996 288 75.7042 288 74.5996C288 73.495 288.895 72.5996 290 72.5996C291.105 72.5996 292 73.495 292 74.5996Z" fill="#D9D9D9"/>
<path d="M100 170.6C100 171.704 99.1046 172.6 98 172.6C96.8954 172.6 96 171.704 96 170.6C96 169.495 96.8954 168.6 98 168.6C99.1046 168.6 100 169.495 100 170.6Z" fill="#D9D9D9"/>
<path d="M292 170.6C292 171.704 291.105 172.6 290 172.6C288.895 172.6 288 171.704 288 170.6C288 169.495 288.895 168.6 290 168.6C291.105 168.6 292 169.495 292 170.6Z" fill="#D9D9D9"/>
<path d="M76 26.5996C76 27.7042 75.1046 28.5996 74 28.5996C72.8954 28.5996 72 27.7042 72 26.5996C72 25.495 72.8954 24.5996 74 24.5996C75.1046 24.5996 76 25.495 76 26.5996Z" fill="#D9D9D9"/>
<path d="M268 26.5996C268 27.7042 267.105 28.5996 266 28.5996C264.895 28.5996 264 27.7042 264 26.5996C264 25.495 264.895 24.5996 266 24.5996C267.105 24.5996 268 25.495 268 26.5996Z" fill="#D9D9D9"/>
<path d="M76 122.6C76 123.704 75.1046 124.6 74 124.6C72.8954 124.6 72 123.704 72 122.6C72 121.495 72.8954 120.6 74 120.6C75.1046 120.6 76 121.495 76 122.6Z" fill="#D9D9D9"/>
<path d="M268 122.6C268 123.704 267.105 124.6 266 124.6C264.895 124.6 264 123.704 264 122.6C264 121.495 264.895 120.6 266 120.6C267.105 120.6 268 121.495 268 122.6Z" fill="#D9D9D9"/>
<path d="M172 26.5996C172 27.7042 171.105 28.5996 170 28.5996C168.895 28.5996 168 27.7042 168 26.5996C168 25.495 168.895 24.5996 170 24.5996C171.105 24.5996 172 25.495 172 26.5996Z" fill="#D9D9D9"/>
<path d="M364 26.5996C364 27.7042 363.105 28.5996 362 28.5996C360.895 28.5996 360 27.7042 360 26.5996C360 25.495 360.895 24.5996 362 24.5996C363.105 24.5996 364 25.495 364 26.5996Z" fill="#D9D9D9"/>
<path d="M172 122.6C172 123.704 171.105 124.6 170 124.6C168.895 124.6 168 123.704 168 122.6C168 121.495 168.895 120.6 170 120.6C171.105 120.6 172 121.495 172 122.6Z" fill="#D9D9D9"/>
<path d="M364 122.6C364 123.704 363.105 124.6 362 124.6C360.895 124.6 360 123.704 360 122.6C360 121.495 360.895 120.6 362 120.6C363.105 120.6 364 121.495 364 122.6Z" fill="#D9D9D9"/>
<path d="M76 74.5996C76 75.7042 75.1046 76.5996 74 76.5996C72.8954 76.5996 72 75.7042 72 74.5996C72 73.495 72.8954 72.5996 74 72.5996C75.1046 72.5996 76 73.495 76 74.5996Z" fill="#D9D9D9"/>
<path d="M268 74.5996C268 75.7042 267.105 76.5996 266 76.5996C264.895 76.5996 264 75.7042 264 74.5996C264 73.495 264.895 72.5996 266 72.5996C267.105 72.5996 268 73.495 268 74.5996Z" fill="#D9D9D9"/>
<path d="M76 170.6C76 171.704 75.1046 172.6 74 172.6C72.8954 172.6 72 171.704 72 170.6C72 169.495 72.8954 168.6 74 168.6C75.1046 168.6 76 169.495 76 170.6Z" fill="#D9D9D9"/>
<path d="M268 170.6C268 171.704 267.105 172.6 266 172.6C264.895 172.6 264 171.704 264 170.6C264 169.495 264.895 168.6 266 168.6C267.105 168.6 268 169.495 268 170.6Z" fill="#D9D9D9"/>
<path d="M172 74.5996C172 75.7042 171.105 76.5996 170 76.5996C168.895 76.5996 168 75.7042 168 74.5996C168 73.495 168.895 72.5996 170 72.5996C171.105 72.5996 172 73.495 172 74.5996Z" fill="#D9D9D9"/>
<path d="M364 74.5996C364 75.7042 363.105 76.5996 362 76.5996C360.895 76.5996 360 75.7042 360 74.5996C360 73.495 360.895 72.5996 362 72.5996C363.105 72.5996 364 73.495 364 74.5996Z" fill="#D9D9D9"/>
<path d="M172 170.6C172 171.704 171.105 172.6 170 172.6C168.895 172.6 168 171.704 168 170.6C168 169.495 168.895 168.6 170 168.6C171.105 168.6 172 169.495 172 170.6Z" fill="#D9D9D9"/>
<path d="M364 170.6C364 171.704 363.105 172.6 362 172.6C360.895 172.6 360 171.704 360 170.6C360 169.495 360.895 168.6 362 168.6C363.105 168.6 364 169.495 364 170.6Z" fill="#D9D9D9"/>
<path d="M28 26.5996C28 27.7042 27.1046 28.5996 26 28.5996C24.8954 28.5996 24 27.7042 24 26.5996C24 25.495 24.8954 24.5996 26 24.5996C27.1046 24.5996 28 25.495 28 26.5996Z" fill="#D9D9D9"/>
<path d="M220 26.5996C220 27.7042 219.105 28.5996 218 28.5996C216.895 28.5996 216 27.7042 216 26.5996C216 25.495 216.895 24.5996 218 24.5996C219.105 24.5996 220 25.495 220 26.5996Z" fill="#D9D9D9"/>
<path d="M28 122.6C28 123.704 27.1046 124.6 26 124.6C24.8954 124.6 24 123.704 24 122.6C24 121.495 24.8954 120.6 26 120.6C27.1046 120.6 28 121.495 28 122.6Z" fill="#D9D9D9"/>
<path d="M220 122.6C220 123.704 219.105 124.6 218 124.6C216.895 124.6 216 123.704 216 122.6C216 121.495 216.895 120.6 218 120.6C219.105 120.6 220 121.495 220 122.6Z" fill="#D9D9D9"/>
<path d="M124 26.5996C124 27.7042 123.105 28.5996 122 28.5996C120.895 28.5996 120 27.7042 120 26.5996C120 25.495 120.895 24.5996 122 24.5996C123.105 24.5996 124 25.495 124 26.5996Z" fill="#D9D9D9"/>
<path d="M316 26.5996C316 27.7042 315.105 28.5996 314 28.5996C312.895 28.5996 312 27.7042 312 26.5996C312 25.495 312.895 24.5996 314 24.5996C315.105 24.5996 316 25.495 316 26.5996Z" fill="#D9D9D9"/>
<path d="M124 122.6C124 123.704 123.105 124.6 122 124.6C120.895 124.6 120 123.704 120 122.6C120 121.495 120.895 120.6 122 120.6C123.105 120.6 124 121.495 124 122.6Z" fill="#D9D9D9"/>
<path d="M316 122.6C316 123.704 315.105 124.6 314 124.6C312.895 124.6 312 123.704 312 122.6C312 121.495 312.895 120.6 314 120.6C315.105 120.6 316 121.495 316 122.6Z" fill="#D9D9D9"/>
<path d="M28 74.5996C28 75.7042 27.1046 76.5996 26 76.5996C24.8954 76.5996 24 75.7042 24 74.5996C24 73.495 24.8954 72.5996 26 72.5996C27.1046 72.5996 28 73.495 28 74.5996Z" fill="#D9D9D9"/>
<path d="M220 74.5996C220 75.7042 219.105 76.5996 218 76.5996C216.895 76.5996 216 75.7042 216 74.5996C216 73.495 216.895 72.5996 218 72.5996C219.105 72.5996 220 73.495 220 74.5996Z" fill="#D9D9D9"/>
<path d="M28 170.6C28 171.704 27.1046 172.6 26 172.6C24.8954 172.6 24 171.704 24 170.6C24 169.495 24.8954 168.6 26 168.6C27.1046 168.6 28 169.495 28 170.6Z" fill="#D9D9D9"/>
<path d="M220 170.6C220 171.704 219.105 172.6 218 172.6C216.895 172.6 216 171.704 216 170.6C216 169.495 216.895 168.6 218 168.6C219.105 168.6 220 169.495 220 170.6Z" fill="#D9D9D9"/>
<path d="M124 74.5996C124 75.7042 123.105 76.5996 122 76.5996C120.895 76.5996 120 75.7042 120 74.5996C120 73.495 120.895 72.5996 122 72.5996C123.105 72.5996 124 73.495 124 74.5996Z" fill="#D9D9D9"/>
<path d="M316 74.5996C316 75.7042 315.105 76.5996 314 76.5996C312.895 76.5996 312 75.7042 312 74.5996C312 73.495 312.895 72.5996 314 72.5996C315.105 72.5996 316 73.495 316 74.5996Z" fill="#D9D9D9"/>
<path d="M124 170.6C124 171.704 123.105 172.6 122 172.6C120.895 172.6 120 171.704 120 170.6C120 169.495 120.895 168.6 122 168.6C123.105 168.6 124 169.495 124 170.6Z" fill="#D9D9D9"/>
<path d="M316 170.6C316 171.704 315.105 172.6 314 172.6C312.895 172.6 312 171.704 312 170.6C312 169.495 312.895 168.6 314 168.6C315.105 168.6 316 169.495 316 170.6Z" fill="#D9D9D9"/>
<path d="M64 2.59961C64 3.70418 63.1046 4.59961 62 4.59961C60.8954 4.59961 60 3.70418 60 2.59961C60 1.49504 60.8954 0.599609 62 0.599609C63.1046 0.599609 64 1.49504 64 2.59961Z" fill="#D9D9D9"/>
<path d="M256 2.59961C256 3.70418 255.105 4.59961 254 4.59961C252.895 4.59961 252 3.70418 252 2.59961C252 1.49504 252.895 0.599609 254 0.599609C255.105 0.599609 256 1.49504 256 2.59961Z" fill="#D9D9D9"/>
<path d="M64 98.5996C64 99.7042 63.1046 100.6 62 100.6C60.8954 100.6 60 99.7042 60 98.5996C60 97.495 60.8954 96.5996 62 96.5996C63.1046 96.5996 64 97.495 64 98.5996Z" fill="#D9D9D9"/>
<path d="M256 98.5996C256 99.7042 255.105 100.6 254 100.6C252.895 100.6 252 99.7042 252 98.5996C252 97.495 252.895 96.5996 254 96.5996C255.105 96.5996 256 97.495 256 98.5996Z" fill="#D9D9D9"/>
<path d="M160 2.59961C160 3.70418 159.105 4.59961 158 4.59961C156.895 4.59961 156 3.70418 156 2.59961C156 1.49504 156.895 0.599609 158 0.599609C159.105 0.599609 160 1.49504 160 2.59961Z" fill="#D9D9D9"/>
<path d="M352 2.59961C352 3.70418 351.105 4.59961 350 4.59961C348.895 4.59961 348 3.70418 348 2.59961C348 1.49504 348.895 0.599609 350 0.599609C351.105 0.599609 352 1.49504 352 2.59961Z" fill="#D9D9D9"/>
<path d="M160 98.5996C160 99.7042 159.105 100.6 158 100.6C156.895 100.6 156 99.7042 156 98.5996C156 97.495 156.895 96.5996 158 96.5996C159.105 96.5996 160 97.495 160 98.5996Z" fill="#D9D9D9"/>
<path d="M352 98.5996C352 99.7042 351.105 100.6 350 100.6C348.895 100.6 348 99.7042 348 98.5996C348 97.495 348.895 96.5996 350 96.5996C351.105 96.5996 352 97.495 352 98.5996Z" fill="#D9D9D9"/>
<path d="M64 50.5996C64 51.7042 63.1046 52.5996 62 52.5996C60.8954 52.5996 60 51.7042 60 50.5996C60 49.495 60.8954 48.5996 62 48.5996C63.1046 48.5996 64 49.495 64 50.5996Z" fill="#D9D9D9"/>
<path d="M256 50.5996C256 51.7042 255.105 52.5996 254 52.5996C252.895 52.5996 252 51.7042 252 50.5996C252 49.495 252.895 48.5996 254 48.5996C255.105 48.5996 256 49.495 256 50.5996Z" fill="#D9D9D9"/>
<path d="M64 146.6C64 147.704 63.1046 148.6 62 148.6C60.8954 148.6 60 147.704 60 146.6C60 145.495 60.8954 144.6 62 144.6C63.1046 144.6 64 145.495 64 146.6Z" fill="#D9D9D9"/>
<path d="M256 146.6C256 147.704 255.105 148.6 254 148.6C252.895 148.6 252 147.704 252 146.6C252 145.495 252.895 144.6 254 144.6C255.105 144.6 256 145.495 256 146.6Z" fill="#D9D9D9"/>
<path d="M160 50.5996C160 51.7042 159.105 52.5996 158 52.5996C156.895 52.5996 156 51.7042 156 50.5996C156 49.495 156.895 48.5996 158 48.5996C159.105 48.5996 160 49.495 160 50.5996Z" fill="#D9D9D9"/>
<path d="M352 50.5996C352 51.7042 351.105 52.5996 350 52.5996C348.895 52.5996 348 51.7042 348 50.5996C348 49.495 348.895 48.5996 350 48.5996C351.105 48.5996 352 49.495 352 50.5996Z" fill="#D9D9D9"/>
<path d="M160 146.6C160 147.704 159.105 148.6 158 148.6C156.895 148.6 156 147.704 156 146.6C156 145.495 156.895 144.6 158 144.6C159.105 144.6 160 145.495 160 146.6Z" fill="#D9D9D9"/>
<path d="M352 146.6C352 147.704 351.105 148.6 350 148.6C348.895 148.6 348 147.704 348 146.6C348 145.495 348.895 144.6 350 144.6C351.105 144.6 352 145.495 352 146.6Z" fill="#D9D9D9"/>
<path d="M16 2.59961C16 3.70418 15.1046 4.59961 14 4.59961C12.8954 4.59961 12 3.70418 12 2.59961C12 1.49504 12.8954 0.599609 14 0.599609C15.1046 0.599609 16 1.49504 16 2.59961Z" fill="#D9D9D9"/>
<path d="M208 2.59961C208 3.70418 207.105 4.59961 206 4.59961C204.895 4.59961 204 3.70418 204 2.59961C204 1.49504 204.895 0.599609 206 0.599609C207.105 0.599609 208 1.49504 208 2.59961Z" fill="#D9D9D9"/>
<path d="M16 98.5996C16 99.7042 15.1046 100.6 14 100.6C12.8954 100.6 12 99.7042 12 98.5996C12 97.495 12.8954 96.5996 14 96.5996C15.1046 96.5996 16 97.495 16 98.5996Z" fill="#D9D9D9"/>
<path d="M208 98.5996C208 99.7042 207.105 100.6 206 100.6C204.895 100.6 204 99.7042 204 98.5996C204 97.495 204.895 96.5996 206 96.5996C207.105 96.5996 208 97.495 208 98.5996Z" fill="#D9D9D9"/>
<path d="M112 2.59961C112 3.70418 111.105 4.59961 110 4.59961C108.895 4.59961 108 3.70418 108 2.59961C108 1.49504 108.895 0.599609 110 0.599609C111.105 0.599609 112 1.49504 112 2.59961Z" fill="#D9D9D9"/>
<path d="M304 2.59961C304 3.70418 303.105 4.59961 302 4.59961C300.895 4.59961 300 3.70418 300 2.59961C300 1.49504 300.895 0.599609 302 0.599609C303.105 0.599609 304 1.49504 304 2.59961Z" fill="#D9D9D9"/>
<path d="M112 98.5996C112 99.7042 111.105 100.6 110 100.6C108.895 100.6 108 99.7042 108 98.5996C108 97.495 108.895 96.5996 110 96.5996C111.105 96.5996 112 97.495 112 98.5996Z" fill="#D9D9D9"/>
<path d="M304 98.5996C304 99.7042 303.105 100.6 302 100.6C300.895 100.6 300 99.7042 300 98.5996C300 97.495 300.895 96.5996 302 96.5996C303.105 96.5996 304 97.495 304 98.5996Z" fill="#D9D9D9"/>
<path d="M16 50.5996C16 51.7042 15.1046 52.5996 14 52.5996C12.8954 52.5996 12 51.7042 12 50.5996C12 49.495 12.8954 48.5996 14 48.5996C15.1046 48.5996 16 49.495 16 50.5996Z" fill="#D9D9D9"/>
<path d="M208 50.5996C208 51.7042 207.105 52.5996 206 52.5996C204.895 52.5996 204 51.7042 204 50.5996C204 49.495 204.895 48.5996 206 48.5996C207.105 48.5996 208 49.495 208 50.5996Z" fill="#D9D9D9"/>
<path d="M16 146.6C16 147.704 15.1046 148.6 14 148.6C12.8954 148.6 12 147.704 12 146.6C12 145.495 12.8954 144.6 14 144.6C15.1046 144.6 16 145.495 16 146.6Z" fill="#D9D9D9"/>
<path d="M208 146.6C208 147.704 207.105 148.6 206 148.6C204.895 148.6 204 147.704 204 146.6C204 145.495 204.895 144.6 206 144.6C207.105 144.6 208 145.495 208 146.6Z" fill="#D9D9D9"/>
<path d="M112 50.5996C112 51.7042 111.105 52.5996 110 52.5996C108.895 52.5996 108 51.7042 108 50.5996C108 49.495 108.895 48.5996 110 48.5996C111.105 48.5996 112 49.495 112 50.5996Z" fill="#D9D9D9"/>
<path d="M304 50.5996C304 51.7042 303.105 52.5996 302 52.5996C300.895 52.5996 300 51.7042 300 50.5996C300 49.495 300.895 48.5996 302 48.5996C303.105 48.5996 304 49.495 304 50.5996Z" fill="#D9D9D9"/>
<path d="M112 146.6C112 147.704 111.105 148.6 110 148.6C108.895 148.6 108 147.704 108 146.6C108 145.495 108.895 144.6 110 144.6C111.105 144.6 112 145.495 112 146.6Z" fill="#D9D9D9"/>
<path d="M304 146.6C304 147.704 303.105 148.6 302 148.6C300.895 148.6 300 147.704 300 146.6C300 145.495 300.895 144.6 302 144.6C303.105 144.6 304 145.495 304 146.6Z" fill="#D9D9D9"/>
<path d="M88 2.59961C88 3.70418 87.1046 4.59961 86 4.59961C84.8954 4.59961 84 3.70418 84 2.59961C84 1.49504 84.8954 0.599609 86 0.599609C87.1046 0.599609 88 1.49504 88 2.59961Z" fill="#D9D9D9"/>
<path d="M280 2.59961C280 3.70418 279.105 4.59961 278 4.59961C276.895 4.59961 276 3.70418 276 2.59961C276 1.49504 276.895 0.599609 278 0.599609C279.105 0.599609 280 1.49504 280 2.59961Z" fill="#D9D9D9"/>
<path d="M88 98.5996C88 99.7042 87.1046 100.6 86 100.6C84.8954 100.6 84 99.7042 84 98.5996C84 97.495 84.8954 96.5996 86 96.5996C87.1046 96.5996 88 97.495 88 98.5996Z" fill="#D9D9D9"/>
<path d="M280 98.5996C280 99.7042 279.105 100.6 278 100.6C276.895 100.6 276 99.7042 276 98.5996C276 97.495 276.895 96.5996 278 96.5996C279.105 96.5996 280 97.495 280 98.5996Z" fill="#D9D9D9"/>
<path d="M184 2.59961C184 3.70418 183.105 4.59961 182 4.59961C180.895 4.59961 180 3.70418 180 2.59961C180 1.49504 180.895 0.599609 182 0.599609C183.105 0.599609 184 1.49504 184 2.59961Z" fill="#D9D9D9"/>
<path d="M376 2.59961C376 3.70418 375.105 4.59961 374 4.59961C372.895 4.59961 372 3.70418 372 2.59961C372 1.49504 372.895 0.599609 374 0.599609C375.105 0.599609 376 1.49504 376 2.59961Z" fill="#D9D9D9"/>
<path d="M184 98.5996C184 99.7042 183.105 100.6 182 100.6C180.895 100.6 180 99.7042 180 98.5996C180 97.495 180.895 96.5996 182 96.5996C183.105 96.5996 184 97.495 184 98.5996Z" fill="#D9D9D9"/>
<path d="M376 98.5996C376 99.7042 375.105 100.6 374 100.6C372.895 100.6 372 99.7042 372 98.5996C372 97.495 372.895 96.5996 374 96.5996C375.105 96.5996 376 97.495 376 98.5996Z" fill="#D9D9D9"/>
<path d="M88 50.5996C88 51.7042 87.1046 52.5996 86 52.5996C84.8954 52.5996 84 51.7042 84 50.5996C84 49.495 84.8954 48.5996 86 48.5996C87.1046 48.5996 88 49.495 88 50.5996Z" fill="#D9D9D9"/>
<path d="M280 50.5996C280 51.7042 279.105 52.5996 278 52.5996C276.895 52.5996 276 51.7042 276 50.5996C276 49.495 276.895 48.5996 278 48.5996C279.105 48.5996 280 49.495 280 50.5996Z" fill="#D9D9D9"/>
<path d="M88 146.6C88 147.704 87.1046 148.6 86 148.6C84.8954 148.6 84 147.704 84 146.6C84 145.495 84.8954 144.6 86 144.6C87.1046 144.6 88 145.495 88 146.6Z" fill="#D9D9D9"/>
<path d="M280 146.6C280 147.704 279.105 148.6 278 148.6C276.895 148.6 276 147.704 276 146.6C276 145.495 276.895 144.6 278 144.6C279.105 144.6 280 145.495 280 146.6Z" fill="#D9D9D9"/>
<path d="M184 50.5996C184 51.7042 183.105 52.5996 182 52.5996C180.895 52.5996 180 51.7042 180 50.5996C180 49.495 180.895 48.5996 182 48.5996C183.105 48.5996 184 49.495 184 50.5996Z" fill="#D9D9D9"/>
<path d="M376 50.5996C376 51.7042 375.105 52.5996 374 52.5996C372.895 52.5996 372 51.7042 372 50.5996C372 49.495 372.895 48.5996 374 48.5996C375.105 48.5996 376 49.495 376 50.5996Z" fill="#D9D9D9"/>
<path d="M184 146.6C184 147.704 183.105 148.6 182 148.6C180.895 148.6 180 147.704 180 146.6C180 145.495 180.895 144.6 182 144.6C183.105 144.6 184 145.495 184 146.6Z" fill="#D9D9D9"/>
<path d="M376 146.6C376 147.704 375.105 148.6 374 148.6C372.895 148.6 372 147.704 372 146.6C372 145.495 372.895 144.6 374 144.6C375.105 144.6 376 145.495 376 146.6Z" fill="#D9D9D9"/>
<path d="M40 2.59961C40 3.70418 39.1046 4.59961 38 4.59961C36.8954 4.59961 36 3.70418 36 2.59961C36 1.49504 36.8954 0.599609 38 0.599609C39.1046 0.599609 40 1.49504 40 2.59961Z" fill="#D9D9D9"/>
<path d="M232 2.59961C232 3.70418 231.105 4.59961 230 4.59961C228.895 4.59961 228 3.70418 228 2.59961C228 1.49504 228.895 0.599609 230 0.599609C231.105 0.599609 232 1.49504 232 2.59961Z" fill="#D9D9D9"/>
<path d="M40 98.5996C40 99.7042 39.1046 100.6 38 100.6C36.8954 100.6 36 99.7042 36 98.5996C36 97.495 36.8954 96.5996 38 96.5996C39.1046 96.5996 40 97.495 40 98.5996Z" fill="#D9D9D9"/>
<path d="M232 98.5996C232 99.7042 231.105 100.6 230 100.6C228.895 100.6 228 99.7042 228 98.5996C228 97.495 228.895 96.5996 230 96.5996C231.105 96.5996 232 97.495 232 98.5996Z" fill="#D9D9D9"/>
<path d="M136 2.59961C136 3.70418 135.105 4.59961 134 4.59961C132.895 4.59961 132 3.70418 132 2.59961C132 1.49504 132.895 0.599609 134 0.599609C135.105 0.599609 136 1.49504 136 2.59961Z" fill="#D9D9D9"/>
<path d="M328 2.59961C328 3.70418 327.105 4.59961 326 4.59961C324.895 4.59961 324 3.70418 324 2.59961C324 1.49504 324.895 0.599609 326 0.599609C327.105 0.599609 328 1.49504 328 2.59961Z" fill="#D9D9D9"/>
<path d="M136 98.5996C136 99.7042 135.105 100.6 134 100.6C132.895 100.6 132 99.7042 132 98.5996C132 97.495 132.895 96.5996 134 96.5996C135.105 96.5996 136 97.495 136 98.5996Z" fill="#D9D9D9"/>
<path d="M328 98.5996C328 99.7042 327.105 100.6 326 100.6C324.895 100.6 324 99.7042 324 98.5996C324 97.495 324.895 96.5996 326 96.5996C327.105 96.5996 328 97.495 328 98.5996Z" fill="#D9D9D9"/>
<path d="M40 50.5996C40 51.7042 39.1046 52.5996 38 52.5996C36.8954 52.5996 36 51.7042 36 50.5996C36 49.495 36.8954 48.5996 38 48.5996C39.1046 48.5996 40 49.495 40 50.5996Z" fill="#D9D9D9"/>
<path d="M232 50.5996C232 51.7042 231.105 52.5996 230 52.5996C228.895 52.5996 228 51.7042 228 50.5996C228 49.495 228.895 48.5996 230 48.5996C231.105 48.5996 232 49.495 232 50.5996Z" fill="#D9D9D9"/>
<path d="M40 146.6C40 147.704 39.1046 148.6 38 148.6C36.8954 148.6 36 147.704 36 146.6C36 145.495 36.8954 144.6 38 144.6C39.1046 144.6 40 145.495 40 146.6Z" fill="#D9D9D9"/>
<path d="M232 146.6C232 147.704 231.105 148.6 230 148.6C228.895 148.6 228 147.704 228 146.6C228 145.495 228.895 144.6 230 144.6C231.105 144.6 232 145.495 232 146.6Z" fill="#D9D9D9"/>
<path d="M136 50.5996C136 51.7042 135.105 52.5996 134 52.5996C132.895 52.5996 132 51.7042 132 50.5996C132 49.495 132.895 48.5996 134 48.5996C135.105 48.5996 136 49.495 136 50.5996Z" fill="#D9D9D9"/>
<path d="M328 50.5996C328 51.7042 327.105 52.5996 326 52.5996C324.895 52.5996 324 51.7042 324 50.5996C324 49.495 324.895 48.5996 326 48.5996C327.105 48.5996 328 49.495 328 50.5996Z" fill="#D9D9D9"/>
<path d="M136 146.6C136 147.704 135.105 148.6 134 148.6C132.895 148.6 132 147.704 132 146.6C132 145.495 132.895 144.6 134 144.6C135.105 144.6 136 145.495 136 146.6Z" fill="#D9D9D9"/>
<path d="M328 146.6C328 147.704 327.105 148.6 326 148.6C324.895 148.6 324 147.704 324 146.6C324 145.495 324.895 144.6 326 144.6C327.105 144.6 328 145.495 328 146.6Z" fill="#D9D9D9"/>
<path d="M64 26.5996C64 27.7042 63.1046 28.5996 62 28.5996C60.8954 28.5996 60 27.7042 60 26.5996C60 25.495 60.8954 24.5996 62 24.5996C63.1046 24.5996 64 25.495 64 26.5996Z" fill="#D9D9D9"/>
<path d="M256 26.5996C256 27.7042 255.105 28.5996 254 28.5996C252.895 28.5996 252 27.7042 252 26.5996C252 25.495 252.895 24.5996 254 24.5996C255.105 24.5996 256 25.495 256 26.5996Z" fill="#D9D9D9"/>
<path d="M64 122.6C64 123.704 63.1046 124.6 62 124.6C60.8954 124.6 60 123.704 60 122.6C60 121.495 60.8954 120.6 62 120.6C63.1046 120.6 64 121.495 64 122.6Z" fill="#D9D9D9"/>
<path d="M256 122.6C256 123.704 255.105 124.6 254 124.6C252.895 124.6 252 123.704 252 122.6C252 121.495 252.895 120.6 254 120.6C255.105 120.6 256 121.495 256 122.6Z" fill="#D9D9D9"/>
<path d="M160 26.5996C160 27.7042 159.105 28.5996 158 28.5996C156.895 28.5996 156 27.7042 156 26.5996C156 25.495 156.895 24.5996 158 24.5996C159.105 24.5996 160 25.495 160 26.5996Z" fill="#D9D9D9"/>
<path d="M352 26.5996C352 27.7042 351.105 28.5996 350 28.5996C348.895 28.5996 348 27.7042 348 26.5996C348 25.495 348.895 24.5996 350 24.5996C351.105 24.5996 352 25.495 352 26.5996Z" fill="#D9D9D9"/>
<path d="M160 122.6C160 123.704 159.105 124.6 158 124.6C156.895 124.6 156 123.704 156 122.6C156 121.495 156.895 120.6 158 120.6C159.105 120.6 160 121.495 160 122.6Z" fill="#D9D9D9"/>
<path d="M352 122.6C352 123.704 351.105 124.6 350 124.6C348.895 124.6 348 123.704 348 122.6C348 121.495 348.895 120.6 350 120.6C351.105 120.6 352 121.495 352 122.6Z" fill="#D9D9D9"/>
<path d="M64 74.5996C64 75.7042 63.1046 76.5996 62 76.5996C60.8954 76.5996 60 75.7042 60 74.5996C60 73.495 60.8954 72.5996 62 72.5996C63.1046 72.5996 64 73.495 64 74.5996Z" fill="#D9D9D9"/>
<path d="M256 74.5996C256 75.7042 255.105 76.5996 254 76.5996C252.895 76.5996 252 75.7042 252 74.5996C252 73.495 252.895 72.5996 254 72.5996C255.105 72.5996 256 73.495 256 74.5996Z" fill="#D9D9D9"/>
<path d="M64 170.6C64 171.704 63.1046 172.6 62 172.6C60.8954 172.6 60 171.704 60 170.6C60 169.495 60.8954 168.6 62 168.6C63.1046 168.6 64 169.495 64 170.6Z" fill="#D9D9D9"/>
<path d="M256 170.6C256 171.704 255.105 172.6 254 172.6C252.895 172.6 252 171.704 252 170.6C252 169.495 252.895 168.6 254 168.6C255.105 168.6 256 169.495 256 170.6Z" fill="#D9D9D9"/>
<path d="M160 74.5996C160 75.7042 159.105 76.5996 158 76.5996C156.895 76.5996 156 75.7042 156 74.5996C156 73.495 156.895 72.5996 158 72.5996C159.105 72.5996 160 73.495 160 74.5996Z" fill="#D9D9D9"/>
<path d="M352 74.5996C352 75.7042 351.105 76.5996 350 76.5996C348.895 76.5996 348 75.7042 348 74.5996C348 73.495 348.895 72.5996 350 72.5996C351.105 72.5996 352 73.495 352 74.5996Z" fill="#D9D9D9"/>
<path d="M160 170.6C160 171.704 159.105 172.6 158 172.6C156.895 172.6 156 171.704 156 170.6C156 169.495 156.895 168.6 158 168.6C159.105 168.6 160 169.495 160 170.6Z" fill="#D9D9D9"/>
<path d="M352 170.6C352 171.704 351.105 172.6 350 172.6C348.895 172.6 348 171.704 348 170.6C348 169.495 348.895 168.6 350 168.6C351.105 168.6 352 169.495 352 170.6Z" fill="#D9D9D9"/>
<path d="M16 26.5996C16 27.7042 15.1046 28.5996 14 28.5996C12.8954 28.5996 12 27.7042 12 26.5996C12 25.495 12.8954 24.5996 14 24.5996C15.1046 24.5996 16 25.495 16 26.5996Z" fill="#D9D9D9"/>
<path d="M208 26.5996C208 27.7042 207.105 28.5996 206 28.5996C204.895 28.5996 204 27.7042 204 26.5996C204 25.495 204.895 24.5996 206 24.5996C207.105 24.5996 208 25.495 208 26.5996Z" fill="#D9D9D9"/>
<path d="M16 122.6C16 123.704 15.1046 124.6 14 124.6C12.8954 124.6 12 123.704 12 122.6C12 121.495 12.8954 120.6 14 120.6C15.1046 120.6 16 121.495 16 122.6Z" fill="#D9D9D9"/>
<path d="M208 122.6C208 123.704 207.105 124.6 206 124.6C204.895 124.6 204 123.704 204 122.6C204 121.495 204.895 120.6 206 120.6C207.105 120.6 208 121.495 208 122.6Z" fill="#D9D9D9"/>
<path d="M112 26.5996C112 27.7042 111.105 28.5996 110 28.5996C108.895 28.5996 108 27.7042 108 26.5996C108 25.495 108.895 24.5996 110 24.5996C111.105 24.5996 112 25.495 112 26.5996Z" fill="#D9D9D9"/>
<path d="M304 26.5996C304 27.7042 303.105 28.5996 302 28.5996C300.895 28.5996 300 27.7042 300 26.5996C300 25.495 300.895 24.5996 302 24.5996C303.105 24.5996 304 25.495 304 26.5996Z" fill="#D9D9D9"/>
<path d="M112 122.6C112 123.704 111.105 124.6 110 124.6C108.895 124.6 108 123.704 108 122.6C108 121.495 108.895 120.6 110 120.6C111.105 120.6 112 121.495 112 122.6Z" fill="#D9D9D9"/>
<path d="M304 122.6C304 123.704 303.105 124.6 302 124.6C300.895 124.6 300 123.704 300 122.6C300 121.495 300.895 120.6 302 120.6C303.105 120.6 304 121.495 304 122.6Z" fill="#D9D9D9"/>
<path d="M16 74.5996C16 75.7042 15.1046 76.5996 14 76.5996C12.8954 76.5996 12 75.7042 12 74.5996C12 73.495 12.8954 72.5996 14 72.5996C15.1046 72.5996 16 73.495 16 74.5996Z" fill="#D9D9D9"/>
<path d="M208 74.5996C208 75.7042 207.105 76.5996 206 76.5996C204.895 76.5996 204 75.7042 204 74.5996C204 73.495 204.895 72.5996 206 72.5996C207.105 72.5996 208 73.495 208 74.5996Z" fill="#D9D9D9"/>
<path d="M16 170.6C16 171.704 15.1046 172.6 14 172.6C12.8954 172.6 12 171.704 12 170.6C12 169.495 12.8954 168.6 14 168.6C15.1046 168.6 16 169.495 16 170.6Z" fill="#D9D9D9"/>
<path d="M208 170.6C208 171.704 207.105 172.6 206 172.6C204.895 172.6 204 171.704 204 170.6C204 169.495 204.895 168.6 206 168.6C207.105 168.6 208 169.495 208 170.6Z" fill="#D9D9D9"/>
<path d="M112 74.5996C112 75.7042 111.105 76.5996 110 76.5996C108.895 76.5996 108 75.7042 108 74.5996C108 73.495 108.895 72.5996 110 72.5996C111.105 72.5996 112 73.495 112 74.5996Z" fill="#D9D9D9"/>
<path d="M304 74.5996C304 75.7042 303.105 76.5996 302 76.5996C300.895 76.5996 300 75.7042 300 74.5996C300 73.495 300.895 72.5996 302 72.5996C303.105 72.5996 304 73.495 304 74.5996Z" fill="#D9D9D9"/>
<path d="M112 170.6C112 171.704 111.105 172.6 110 172.6C108.895 172.6 108 171.704 108 170.6C108 169.495 108.895 168.6 110 168.6C111.105 168.6 112 169.495 112 170.6Z" fill="#D9D9D9"/>
<path d="M304 170.6C304 171.704 303.105 172.6 302 172.6C300.895 172.6 300 171.704 300 170.6C300 169.495 300.895 168.6 302 168.6C303.105 168.6 304 169.495 304 170.6Z" fill="#D9D9D9"/>
<path d="M88 26.5996C88 27.7042 87.1046 28.5996 86 28.5996C84.8954 28.5996 84 27.7042 84 26.5996C84 25.495 84.8954 24.5996 86 24.5996C87.1046 24.5996 88 25.495 88 26.5996Z" fill="#D9D9D9"/>
<path d="M280 26.5996C280 27.7042 279.105 28.5996 278 28.5996C276.895 28.5996 276 27.7042 276 26.5996C276 25.495 276.895 24.5996 278 24.5996C279.105 24.5996 280 25.495 280 26.5996Z" fill="#D9D9D9"/>
<path d="M88 122.6C88 123.704 87.1046 124.6 86 124.6C84.8954 124.6 84 123.704 84 122.6C84 121.495 84.8954 120.6 86 120.6C87.1046 120.6 88 121.495 88 122.6Z" fill="#D9D9D9"/>
<path d="M280 122.6C280 123.704 279.105 124.6 278 124.6C276.895 124.6 276 123.704 276 122.6C276 121.495 276.895 120.6 278 120.6C279.105 120.6 280 121.495 280 122.6Z" fill="#D9D9D9"/>
<path d="M184 26.5996C184 27.7042 183.105 28.5996 182 28.5996C180.895 28.5996 180 27.7042 180 26.5996C180 25.495 180.895 24.5996 182 24.5996C183.105 24.5996 184 25.495 184 26.5996Z" fill="#D9D9D9"/>
<path d="M376 26.5996C376 27.7042 375.105 28.5996 374 28.5996C372.895 28.5996 372 27.7042 372 26.5996C372 25.495 372.895 24.5996 374 24.5996C375.105 24.5996 376 25.495 376 26.5996Z" fill="#D9D9D9"/>
<path d="M184 122.6C184 123.704 183.105 124.6 182 124.6C180.895 124.6 180 123.704 180 122.6C180 121.495 180.895 120.6 182 120.6C183.105 120.6 184 121.495 184 122.6Z" fill="#D9D9D9"/>
<path d="M376 122.6C376 123.704 375.105 124.6 374 124.6C372.895 124.6 372 123.704 372 122.6C372 121.495 372.895 120.6 374 120.6C375.105 120.6 376 121.495 376 122.6Z" fill="#D9D9D9"/>
<path d="M88 74.5996C88 75.7042 87.1046 76.5996 86 76.5996C84.8954 76.5996 84 75.7042 84 74.5996C84 73.495 84.8954 72.5996 86 72.5996C87.1046 72.5996 88 73.495 88 74.5996Z" fill="#D9D9D9"/>
<path d="M280 74.5996C280 75.7042 279.105 76.5996 278 76.5996C276.895 76.5996 276 75.7042 276 74.5996C276 73.495 276.895 72.5996 278 72.5996C279.105 72.5996 280 73.495 280 74.5996Z" fill="#D9D9D9"/>
<path d="M88 170.6C88 171.704 87.1046 172.6 86 172.6C84.8954 172.6 84 171.704 84 170.6C84 169.495 84.8954 168.6 86 168.6C87.1046 168.6 88 169.495 88 170.6Z" fill="#D9D9D9"/>
<path d="M280 170.6C280 171.704 279.105 172.6 278 172.6C276.895 172.6 276 171.704 276 170.6C276 169.495 276.895 168.6 278 168.6C279.105 168.6 280 169.495 280 170.6Z" fill="#D9D9D9"/>
<path d="M184 74.5996C184 75.7042 183.105 76.5996 182 76.5996C180.895 76.5996 180 75.7042 180 74.5996C180 73.495 180.895 72.5996 182 72.5996C183.105 72.5996 184 73.495 184 74.5996Z" fill="#D9D9D9"/>
<path d="M376 74.5996C376 75.7042 375.105 76.5996 374 76.5996C372.895 76.5996 372 75.7042 372 74.5996C372 73.495 372.895 72.5996 374 72.5996C375.105 72.5996 376 73.495 376 74.5996Z" fill="#D9D9D9"/>
<path d="M184 170.6C184 171.704 183.105 172.6 182 172.6C180.895 172.6 180 171.704 180 170.6C180 169.495 180.895 168.6 182 168.6C183.105 168.6 184 169.495 184 170.6Z" fill="#D9D9D9"/>
<path d="M376 170.6C376 171.704 375.105 172.6 374 172.6C372.895 172.6 372 171.704 372 170.6C372 169.495 372.895 168.6 374 168.6C375.105 168.6 376 169.495 376 170.6Z" fill="#D9D9D9"/>
<path d="M40 26.5996C40 27.7042 39.1046 28.5996 38 28.5996C36.8954 28.5996 36 27.7042 36 26.5996C36 25.495 36.8954 24.5996 38 24.5996C39.1046 24.5996 40 25.495 40 26.5996Z" fill="#D9D9D9"/>
<path d="M232 26.5996C232 27.7042 231.105 28.5996 230 28.5996C228.895 28.5996 228 27.7042 228 26.5996C228 25.495 228.895 24.5996 230 24.5996C231.105 24.5996 232 25.495 232 26.5996Z" fill="#D9D9D9"/>
<path d="M40 122.6C40 123.704 39.1046 124.6 38 124.6C36.8954 124.6 36 123.704 36 122.6C36 121.495 36.8954 120.6 38 120.6C39.1046 120.6 40 121.495 40 122.6Z" fill="#D9D9D9"/>
<path d="M232 122.6C232 123.704 231.105 124.6 230 124.6C228.895 124.6 228 123.704 228 122.6C228 121.495 228.895 120.6 230 120.6C231.105 120.6 232 121.495 232 122.6Z" fill="#D9D9D9"/>
<path d="M136 26.5996C136 27.7042 135.105 28.5996 134 28.5996C132.895 28.5996 132 27.7042 132 26.5996C132 25.495 132.895 24.5996 134 24.5996C135.105 24.5996 136 25.495 136 26.5996Z" fill="#D9D9D9"/>
<path d="M328 26.5996C328 27.7042 327.105 28.5996 326 28.5996C324.895 28.5996 324 27.7042 324 26.5996C324 25.495 324.895 24.5996 326 24.5996C327.105 24.5996 328 25.495 328 26.5996Z" fill="#D9D9D9"/>
<path d="M136 122.6C136 123.704 135.105 124.6 134 124.6C132.895 124.6 132 123.704 132 122.6C132 121.495 132.895 120.6 134 120.6C135.105 120.6 136 121.495 136 122.6Z" fill="#D9D9D9"/>
<path d="M328 122.6C328 123.704 327.105 124.6 326 124.6C324.895 124.6 324 123.704 324 122.6C324 121.495 324.895 120.6 326 120.6C327.105 120.6 328 121.495 328 122.6Z" fill="#D9D9D9"/>
<path d="M40 74.5996C40 75.7042 39.1046 76.5996 38 76.5996C36.8954 76.5996 36 75.7042 36 74.5996C36 73.495 36.8954 72.5996 38 72.5996C39.1046 72.5996 40 73.495 40 74.5996Z" fill="#D9D9D9"/>
<path d="M232 74.5996C232 75.7042 231.105 76.5996 230 76.5996C228.895 76.5996 228 75.7042 228 74.5996C228 73.495 228.895 72.5996 230 72.5996C231.105 72.5996 232 73.495 232 74.5996Z" fill="#D9D9D9"/>
<path d="M40 170.6C40 171.704 39.1046 172.6 38 172.6C36.8954 172.6 36 171.704 36 170.6C36 169.495 36.8954 168.6 38 168.6C39.1046 168.6 40 169.495 40 170.6Z" fill="#D9D9D9"/>
<path d="M232 170.6C232 171.704 231.105 172.6 230 172.6C228.895 172.6 228 171.704 228 170.6C228 169.495 228.895 168.6 230 168.6C231.105 168.6 232 169.495 232 170.6Z" fill="#D9D9D9"/>
<path d="M136 74.5996C136 75.7042 135.105 76.5996 134 76.5996C132.895 76.5996 132 75.7042 132 74.5996C132 73.495 132.895 72.5996 134 72.5996C135.105 72.5996 136 73.495 136 74.5996Z" fill="#D9D9D9"/>
<path d="M328 74.5996C328 75.7042 327.105 76.5996 326 76.5996C324.895 76.5996 324 75.7042 324 74.5996C324 73.495 324.895 72.5996 326 72.5996C327.105 72.5996 328 73.495 328 74.5996Z" fill="#D9D9D9"/>
<path d="M136 170.6C136 171.704 135.105 172.6 134 172.6C132.895 172.6 132 171.704 132 170.6C132 169.495 132.895 168.6 134 168.6C135.105 168.6 136 169.495 136 170.6Z" fill="#D9D9D9"/>
<path d="M328 170.6C328 171.704 327.105 172.6 326 172.6C324.895 172.6 324 171.704 324 170.6C324 169.495 324.895 168.6 326 168.6C327.105 168.6 328 169.495 328 170.6Z" fill="#D9D9D9"/>
<path d="M52 14.5996C52 15.7042 51.1046 16.5996 50 16.5996C48.8954 16.5996 48 15.7042 48 14.5996C48 13.495 48.8954 12.5996 50 12.5996C51.1046 12.5996 52 13.495 52 14.5996Z" fill="#D9D9D9"/>
<path d="M244 14.5996C244 15.7042 243.105 16.5996 242 16.5996C240.895 16.5996 240 15.7042 240 14.5996C240 13.495 240.895 12.5996 242 12.5996C243.105 12.5996 244 13.495 244 14.5996Z" fill="#D9D9D9"/>
<path d="M52 110.6C52 111.704 51.1046 112.6 50 112.6C48.8954 112.6 48 111.704 48 110.6C48 109.495 48.8954 108.6 50 108.6C51.1046 108.6 52 109.495 52 110.6Z" fill="#D9D9D9"/>
<path d="M244 110.6C244 111.704 243.105 112.6 242 112.6C240.895 112.6 240 111.704 240 110.6C240 109.495 240.895 108.6 242 108.6C243.105 108.6 244 109.495 244 110.6Z" fill="#D9D9D9"/>
<path d="M148 14.5996C148 15.7042 147.105 16.5996 146 16.5996C144.895 16.5996 144 15.7042 144 14.5996C144 13.495 144.895 12.5996 146 12.5996C147.105 12.5996 148 13.495 148 14.5996Z" fill="#D9D9D9"/>
<path d="M340 14.5996C340 15.7042 339.105 16.5996 338 16.5996C336.895 16.5996 336 15.7042 336 14.5996C336 13.495 336.895 12.5996 338 12.5996C339.105 12.5996 340 13.495 340 14.5996Z" fill="#D9D9D9"/>
<path d="M148 110.6C148 111.704 147.105 112.6 146 112.6C144.895 112.6 144 111.704 144 110.6C144 109.495 144.895 108.6 146 108.6C147.105 108.6 148 109.495 148 110.6Z" fill="#D9D9D9"/>
<path d="M340 110.6C340 111.704 339.105 112.6 338 112.6C336.895 112.6 336 111.704 336 110.6C336 109.495 336.895 108.6 338 108.6C339.105 108.6 340 109.495 340 110.6Z" fill="#D9D9D9"/>
<path d="M52 62.5996C52 63.7042 51.1046 64.5996 50 64.5996C48.8954 64.5996 48 63.7042 48 62.5996C48 61.495 48.8954 60.5996 50 60.5996C51.1046 60.5996 52 61.495 52 62.5996Z" fill="#D9D9D9"/>
<path d="M244 62.5996C244 63.7042 243.105 64.5996 242 64.5996C240.895 64.5996 240 63.7042 240 62.5996C240 61.495 240.895 60.5996 242 60.5996C243.105 60.5996 244 61.495 244 62.5996Z" fill="#D9D9D9"/>
<path d="M52 158.6C52 159.704 51.1046 160.6 50 160.6C48.8954 160.6 48 159.704 48 158.6C48 157.495 48.8954 156.6 50 156.6C51.1046 156.6 52 157.495 52 158.6Z" fill="#D9D9D9"/>
<path d="M244 158.6C244 159.704 243.105 160.6 242 160.6C240.895 160.6 240 159.704 240 158.6C240 157.495 240.895 156.6 242 156.6C243.105 156.6 244 157.495 244 158.6Z" fill="#D9D9D9"/>
<path d="M148 62.5996C148 63.7042 147.105 64.5996 146 64.5996C144.895 64.5996 144 63.7042 144 62.5996C144 61.495 144.895 60.5996 146 60.5996C147.105 60.5996 148 61.495 148 62.5996Z" fill="#D9D9D9"/>
<path d="M340 62.5996C340 63.7042 339.105 64.5996 338 64.5996C336.895 64.5996 336 63.7042 336 62.5996C336 61.495 336.895 60.5996 338 60.5996C339.105 60.5996 340 61.495 340 62.5996Z" fill="#D9D9D9"/>
<path d="M148 158.6C148 159.704 147.105 160.6 146 160.6C144.895 160.6 144 159.704 144 158.6C144 157.495 144.895 156.6 146 156.6C147.105 156.6 148 157.495 148 158.6Z" fill="#D9D9D9"/>
<path d="M340 158.6C340 159.704 339.105 160.6 338 160.6C336.895 160.6 336 159.704 336 158.6C336 157.495 336.895 156.6 338 156.6C339.105 156.6 340 157.495 340 158.6Z" fill="#D9D9D9"/>
<path d="M4 14.5996C4 15.7042 3.10457 16.5996 2 16.5996C0.89543 16.5996 0 15.7042 0 14.5996C0 13.495 0.89543 12.5996 2 12.5996C3.10457 12.5996 4 13.495 4 14.5996Z" fill="#D9D9D9"/>
<path d="M196 14.5996C196 15.7042 195.105 16.5996 194 16.5996C192.895 16.5996 192 15.7042 192 14.5996C192 13.495 192.895 12.5996 194 12.5996C195.105 12.5996 196 13.495 196 14.5996Z" fill="#D9D9D9"/>
<path d="M4 110.6C4 111.704 3.10457 112.6 2 112.6C0.89543 112.6 0 111.704 0 110.6C0 109.495 0.89543 108.6 2 108.6C3.10457 108.6 4 109.495 4 110.6Z" fill="#D9D9D9"/>
<path d="M196 110.6C196 111.704 195.105 112.6 194 112.6C192.895 112.6 192 111.704 192 110.6C192 109.495 192.895 108.6 194 108.6C195.105 108.6 196 109.495 196 110.6Z" fill="#D9D9D9"/>
<path d="M100 14.5996C100 15.7042 99.1046 16.5996 98 16.5996C96.8954 16.5996 96 15.7042 96 14.5996C96 13.495 96.8954 12.5996 98 12.5996C99.1046 12.5996 100 13.495 100 14.5996Z" fill="#D9D9D9"/>
<path d="M292 14.5996C292 15.7042 291.105 16.5996 290 16.5996C288.895 16.5996 288 15.7042 288 14.5996C288 13.495 288.895 12.5996 290 12.5996C291.105 12.5996 292 13.495 292 14.5996Z" fill="#D9D9D9"/>
<path d="M100 110.6C100 111.704 99.1046 112.6 98 112.6C96.8954 112.6 96 111.704 96 110.6C96 109.495 96.8954 108.6 98 108.6C99.1046 108.6 100 109.495 100 110.6Z" fill="#D9D9D9"/>
<path d="M292 110.6C292 111.704 291.105 112.6 290 112.6C288.895 112.6 288 111.704 288 110.6C288 109.495 288.895 108.6 290 108.6C291.105 108.6 292 109.495 292 110.6Z" fill="#D9D9D9"/>
<path d="M4 62.5996C4 63.7042 3.10457 64.5996 2 64.5996C0.89543 64.5996 0 63.7042 0 62.5996C0 61.495 0.89543 60.5996 2 60.5996C3.10457 60.5996 4 61.495 4 62.5996Z" fill="#D9D9D9"/>
<path d="M196 62.5996C196 63.7042 195.105 64.5996 194 64.5996C192.895 64.5996 192 63.7042 192 62.5996C192 61.495 192.895 60.5996 194 60.5996C195.105 60.5996 196 61.495 196 62.5996Z" fill="#D9D9D9"/>
<path d="M4 158.6C4 159.704 3.10457 160.6 2 160.6C0.89543 160.6 0 159.704 0 158.6C0 157.495 0.89543 156.6 2 156.6C3.10457 156.6 4 157.495 4 158.6Z" fill="#D9D9D9"/>
<path d="M196 158.6C196 159.704 195.105 160.6 194 160.6C192.895 160.6 192 159.704 192 158.6C192 157.495 192.895 156.6 194 156.6C195.105 156.6 196 157.495 196 158.6Z" fill="#D9D9D9"/>
<path d="M100 62.5996C100 63.7042 99.1046 64.5996 98 64.5996C96.8954 64.5996 96 63.7042 96 62.5996C96 61.495 96.8954 60.5996 98 60.5996C99.1046 60.5996 100 61.495 100 62.5996Z" fill="#D9D9D9"/>
<path d="M292 62.5996C292 63.7042 291.105 64.5996 290 64.5996C288.895 64.5996 288 63.7042 288 62.5996C288 61.495 288.895 60.5996 290 60.5996C291.105 60.5996 292 61.495 292 62.5996Z" fill="#D9D9D9"/>
<path d="M100 158.6C100 159.704 99.1046 160.6 98 160.6C96.8954 160.6 96 159.704 96 158.6C96 157.495 96.8954 156.6 98 156.6C99.1046 156.6 100 157.495 100 158.6Z" fill="#D9D9D9"/>
<path d="M292 158.6C292 159.704 291.105 160.6 290 160.6C288.895 160.6 288 159.704 288 158.6C288 157.495 288.895 156.6 290 156.6C291.105 156.6 292 157.495 292 158.6Z" fill="#D9D9D9"/>
<path d="M76 14.5996C76 15.7042 75.1046 16.5996 74 16.5996C72.8954 16.5996 72 15.7042 72 14.5996C72 13.495 72.8954 12.5996 74 12.5996C75.1046 12.5996 76 13.495 76 14.5996Z" fill="#D9D9D9"/>
<path d="M268 14.5996C268 15.7042 267.105 16.5996 266 16.5996C264.895 16.5996 264 15.7042 264 14.5996C264 13.495 264.895 12.5996 266 12.5996C267.105 12.5996 268 13.495 268 14.5996Z" fill="#D9D9D9"/>
<path d="M76 110.6C76 111.704 75.1046 112.6 74 112.6C72.8954 112.6 72 111.704 72 110.6C72 109.495 72.8954 108.6 74 108.6C75.1046 108.6 76 109.495 76 110.6Z" fill="#D9D9D9"/>
<path d="M268 110.6C268 111.704 267.105 112.6 266 112.6C264.895 112.6 264 111.704 264 110.6C264 109.495 264.895 108.6 266 108.6C267.105 108.6 268 109.495 268 110.6Z" fill="#D9D9D9"/>
<path d="M172 14.5996C172 15.7042 171.105 16.5996 170 16.5996C168.895 16.5996 168 15.7042 168 14.5996C168 13.495 168.895 12.5996 170 12.5996C171.105 12.5996 172 13.495 172 14.5996Z" fill="#D9D9D9"/>
<path d="M364 14.5996C364 15.7042 363.105 16.5996 362 16.5996C360.895 16.5996 360 15.7042 360 14.5996C360 13.495 360.895 12.5996 362 12.5996C363.105 12.5996 364 13.495 364 14.5996Z" fill="#D9D9D9"/>
<path d="M172 110.6C172 111.704 171.105 112.6 170 112.6C168.895 112.6 168 111.704 168 110.6C168 109.495 168.895 108.6 170 108.6C171.105 108.6 172 109.495 172 110.6Z" fill="#D9D9D9"/>
<path d="M364 110.6C364 111.704 363.105 112.6 362 112.6C360.895 112.6 360 111.704 360 110.6C360 109.495 360.895 108.6 362 108.6C363.105 108.6 364 109.495 364 110.6Z" fill="#D9D9D9"/>
<path d="M76 62.5996C76 63.7042 75.1046 64.5996 74 64.5996C72.8954 64.5996 72 63.7042 72 62.5996C72 61.495 72.8954 60.5996 74 60.5996C75.1046 60.5996 76 61.495 76 62.5996Z" fill="#D9D9D9"/>
<path d="M268 62.5996C268 63.7042 267.105 64.5996 266 64.5996C264.895 64.5996 264 63.7042 264 62.5996C264 61.495 264.895 60.5996 266 60.5996C267.105 60.5996 268 61.495 268 62.5996Z" fill="#D9D9D9"/>
<path d="M76 158.6C76 159.704 75.1046 160.6 74 160.6C72.8954 160.6 72 159.704 72 158.6C72 157.495 72.8954 156.6 74 156.6C75.1046 156.6 76 157.495 76 158.6Z" fill="#D9D9D9"/>
<path d="M268 158.6C268 159.704 267.105 160.6 266 160.6C264.895 160.6 264 159.704 264 158.6C264 157.495 264.895 156.6 266 156.6C267.105 156.6 268 157.495 268 158.6Z" fill="#D9D9D9"/>
<path d="M172 62.5996C172 63.7042 171.105 64.5996 170 64.5996C168.895 64.5996 168 63.7042 168 62.5996C168 61.495 168.895 60.5996 170 60.5996C171.105 60.5996 172 61.495 172 62.5996Z" fill="#D9D9D9"/>
<path d="M364 62.5996C364 63.7042 363.105 64.5996 362 64.5996C360.895 64.5996 360 63.7042 360 62.5996C360 61.495 360.895 60.5996 362 60.5996C363.105 60.5996 364 61.495 364 62.5996Z" fill="#D9D9D9"/>
<path d="M172 158.6C172 159.704 171.105 160.6 170 160.6C168.895 160.6 168 159.704 168 158.6C168 157.495 168.895 156.6 170 156.6C171.105 156.6 172 157.495 172 158.6Z" fill="#D9D9D9"/>
<path d="M364 158.6C364 159.704 363.105 160.6 362 160.6C360.895 160.6 360 159.704 360 158.6C360 157.495 360.895 156.6 362 156.6C363.105 156.6 364 157.495 364 158.6Z" fill="#D9D9D9"/>
<path d="M28 14.5996C28 15.7042 27.1046 16.5996 26 16.5996C24.8954 16.5996 24 15.7042 24 14.5996C24 13.495 24.8954 12.5996 26 12.5996C27.1046 12.5996 28 13.495 28 14.5996Z" fill="#D9D9D9"/>
<path d="M220 14.5996C220 15.7042 219.105 16.5996 218 16.5996C216.895 16.5996 216 15.7042 216 14.5996C216 13.495 216.895 12.5996 218 12.5996C219.105 12.5996 220 13.495 220 14.5996Z" fill="#D9D9D9"/>
<path d="M28 110.6C28 111.704 27.1046 112.6 26 112.6C24.8954 112.6 24 111.704 24 110.6C24 109.495 24.8954 108.6 26 108.6C27.1046 108.6 28 109.495 28 110.6Z" fill="#D9D9D9"/>
<path d="M220 110.6C220 111.704 219.105 112.6 218 112.6C216.895 112.6 216 111.704 216 110.6C216 109.495 216.895 108.6 218 108.6C219.105 108.6 220 109.495 220 110.6Z" fill="#D9D9D9"/>
<path d="M124 14.5996C124 15.7042 123.105 16.5996 122 16.5996C120.895 16.5996 120 15.7042 120 14.5996C120 13.495 120.895 12.5996 122 12.5996C123.105 12.5996 124 13.495 124 14.5996Z" fill="#D9D9D9"/>
<path d="M316 14.5996C316 15.7042 315.105 16.5996 314 16.5996C312.895 16.5996 312 15.7042 312 14.5996C312 13.495 312.895 12.5996 314 12.5996C315.105 12.5996 316 13.495 316 14.5996Z" fill="#D9D9D9"/>
<path d="M124 110.6C124 111.704 123.105 112.6 122 112.6C120.895 112.6 120 111.704 120 110.6C120 109.495 120.895 108.6 122 108.6C123.105 108.6 124 109.495 124 110.6Z" fill="#D9D9D9"/>
<path d="M316 110.6C316 111.704 315.105 112.6 314 112.6C312.895 112.6 312 111.704 312 110.6C312 109.495 312.895 108.6 314 108.6C315.105 108.6 316 109.495 316 110.6Z" fill="#D9D9D9"/>
<path d="M28 62.5996C28 63.7042 27.1046 64.5996 26 64.5996C24.8954 64.5996 24 63.7042 24 62.5996C24 61.495 24.8954 60.5996 26 60.5996C27.1046 60.5996 28 61.495 28 62.5996Z" fill="#D9D9D9"/>
<path d="M220 62.5996C220 63.7042 219.105 64.5996 218 64.5996C216.895 64.5996 216 63.7042 216 62.5996C216 61.495 216.895 60.5996 218 60.5996C219.105 60.5996 220 61.495 220 62.5996Z" fill="#D9D9D9"/>
<path d="M28 158.6C28 159.704 27.1046 160.6 26 160.6C24.8954 160.6 24 159.704 24 158.6C24 157.495 24.8954 156.6 26 156.6C27.1046 156.6 28 157.495 28 158.6Z" fill="#D9D9D9"/>
<path d="M220 158.6C220 159.704 219.105 160.6 218 160.6C216.895 160.6 216 159.704 216 158.6C216 157.495 216.895 156.6 218 156.6C219.105 156.6 220 157.495 220 158.6Z" fill="#D9D9D9"/>
<path d="M124 62.5996C124 63.7042 123.105 64.5996 122 64.5996C120.895 64.5996 120 63.7042 120 62.5996C120 61.495 120.895 60.5996 122 60.5996C123.105 60.5996 124 61.495 124 62.5996Z" fill="#D9D9D9"/>
<path d="M316 62.5996C316 63.7042 315.105 64.5996 314 64.5996C312.895 64.5996 312 63.7042 312 62.5996C312 61.495 312.895 60.5996 314 60.5996C315.105 60.5996 316 61.495 316 62.5996Z" fill="#D9D9D9"/>
<path d="M124 158.6C124 159.704 123.105 160.6 122 160.6C120.895 160.6 120 159.704 120 158.6C120 157.495 120.895 156.6 122 156.6C123.105 156.6 124 157.495 124 158.6Z" fill="#D9D9D9"/>
<path d="M316 158.6C316 159.704 315.105 160.6 314 160.6C312.895 160.6 312 159.704 312 158.6C312 157.495 312.895 156.6 314 156.6C315.105 156.6 316 157.495 316 158.6Z" fill="#D9D9D9"/>
<path d="M52 38.5996C52 39.7042 51.1046 40.5996 50 40.5996C48.8954 40.5996 48 39.7042 48 38.5996C48 37.495 48.8954 36.5996 50 36.5996C51.1046 36.5996 52 37.495 52 38.5996Z" fill="#D9D9D9"/>
<path d="M244 38.5996C244 39.7042 243.105 40.5996 242 40.5996C240.895 40.5996 240 39.7042 240 38.5996C240 37.495 240.895 36.5996 242 36.5996C243.105 36.5996 244 37.495 244 38.5996Z" fill="#D9D9D9"/>
<path d="M52 134.6C52 135.704 51.1046 136.6 50 136.6C48.8954 136.6 48 135.704 48 134.6C48 133.495 48.8954 132.6 50 132.6C51.1046 132.6 52 133.495 52 134.6Z" fill="#D9D9D9"/>
<path d="M244 134.6C244 135.704 243.105 136.6 242 136.6C240.895 136.6 240 135.704 240 134.6C240 133.495 240.895 132.6 242 132.6C243.105 132.6 244 133.495 244 134.6Z" fill="#D9D9D9"/>
<path d="M148 38.5996C148 39.7042 147.105 40.5996 146 40.5996C144.895 40.5996 144 39.7042 144 38.5996C144 37.495 144.895 36.5996 146 36.5996C147.105 36.5996 148 37.495 148 38.5996Z" fill="#D9D9D9"/>
<path d="M340 38.5996C340 39.7042 339.105 40.5996 338 40.5996C336.895 40.5996 336 39.7042 336 38.5996C336 37.495 336.895 36.5996 338 36.5996C339.105 36.5996 340 37.495 340 38.5996Z" fill="#D9D9D9"/>
<path d="M148 134.6C148 135.704 147.105 136.6 146 136.6C144.895 136.6 144 135.704 144 134.6C144 133.495 144.895 132.6 146 132.6C147.105 132.6 148 133.495 148 134.6Z" fill="#D9D9D9"/>
<path d="M340 134.6C340 135.704 339.105 136.6 338 136.6C336.895 136.6 336 135.704 336 134.6C336 133.495 336.895 132.6 338 132.6C339.105 132.6 340 133.495 340 134.6Z" fill="#D9D9D9"/>
<path d="M52 86.5996C52 87.7042 51.1046 88.5996 50 88.5996C48.8954 88.5996 48 87.7042 48 86.5996C48 85.495 48.8954 84.5996 50 84.5996C51.1046 84.5996 52 85.495 52 86.5996Z" fill="#D9D9D9"/>
<path d="M244 86.5996C244 87.7042 243.105 88.5996 242 88.5996C240.895 88.5996 240 87.7042 240 86.5996C240 85.495 240.895 84.5996 242 84.5996C243.105 84.5996 244 85.495 244 86.5996Z" fill="#D9D9D9"/>
<path d="M52 182.6C52 183.704 51.1046 184.6 50 184.6C48.8954 184.6 48 183.704 48 182.6C48 181.495 48.8954 180.6 50 180.6C51.1046 180.6 52 181.495 52 182.6Z" fill="#D9D9D9"/>
<path d="M244 182.6C244 183.704 243.105 184.6 242 184.6C240.895 184.6 240 183.704 240 182.6C240 181.495 240.895 180.6 242 180.6C243.105 180.6 244 181.495 244 182.6Z" fill="#D9D9D9"/>
<path d="M148 86.5996C148 87.7042 147.105 88.5996 146 88.5996C144.895 88.5996 144 87.7042 144 86.5996C144 85.495 144.895 84.5996 146 84.5996C147.105 84.5996 148 85.495 148 86.5996Z" fill="#D9D9D9"/>
<path d="M340 86.5996C340 87.7042 339.105 88.5996 338 88.5996C336.895 88.5996 336 87.7042 336 86.5996C336 85.495 336.895 84.5996 338 84.5996C339.105 84.5996 340 85.495 340 86.5996Z" fill="#D9D9D9"/>
<path d="M148 182.6C148 183.704 147.105 184.6 146 184.6C144.895 184.6 144 183.704 144 182.6C144 181.495 144.895 180.6 146 180.6C147.105 180.6 148 181.495 148 182.6Z" fill="#D9D9D9"/>
<path d="M340 182.6C340 183.704 339.105 184.6 338 184.6C336.895 184.6 336 183.704 336 182.6C336 181.495 336.895 180.6 338 180.6C339.105 180.6 340 181.495 340 182.6Z" fill="#D9D9D9"/>
<path d="M4 38.5996C4 39.7042 3.10457 40.5996 2 40.5996C0.89543 40.5996 0 39.7042 0 38.5996C0 37.495 0.89543 36.5996 2 36.5996C3.10457 36.5996 4 37.495 4 38.5996Z" fill="#D9D9D9"/>
<path d="M196 38.5996C196 39.7042 195.105 40.5996 194 40.5996C192.895 40.5996 192 39.7042 192 38.5996C192 37.495 192.895 36.5996 194 36.5996C195.105 36.5996 196 37.495 196 38.5996Z" fill="#D9D9D9"/>
<path d="M4 134.6C4 135.704 3.10457 136.6 2 136.6C0.89543 136.6 0 135.704 0 134.6C0 133.495 0.89543 132.6 2 132.6C3.10457 132.6 4 133.495 4 134.6Z" fill="#D9D9D9"/>
<path d="M196 134.6C196 135.704 195.105 136.6 194 136.6C192.895 136.6 192 135.704 192 134.6C192 133.495 192.895 132.6 194 132.6C195.105 132.6 196 133.495 196 134.6Z" fill="#D9D9D9"/>
<path d="M100 38.5996C100 39.7042 99.1046 40.5996 98 40.5996C96.8954 40.5996 96 39.7042 96 38.5996C96 37.495 96.8954 36.5996 98 36.5996C99.1046 36.5996 100 37.495 100 38.5996Z" fill="#D9D9D9"/>
<path d="M292 38.5996C292 39.7042 291.105 40.5996 290 40.5996C288.895 40.5996 288 39.7042 288 38.5996C288 37.495 288.895 36.5996 290 36.5996C291.105 36.5996 292 37.495 292 38.5996Z" fill="#D9D9D9"/>
<path d="M100 134.6C100 135.704 99.1046 136.6 98 136.6C96.8954 136.6 96 135.704 96 134.6C96 133.495 96.8954 132.6 98 132.6C99.1046 132.6 100 133.495 100 134.6Z" fill="#D9D9D9"/>
<path d="M292 134.6C292 135.704 291.105 136.6 290 136.6C288.895 136.6 288 135.704 288 134.6C288 133.495 288.895 132.6 290 132.6C291.105 132.6 292 133.495 292 134.6Z" fill="#D9D9D9"/>
<path d="M4 86.5996C4 87.7042 3.10457 88.5996 2 88.5996C0.89543 88.5996 0 87.7042 0 86.5996C0 85.495 0.89543 84.5996 2 84.5996C3.10457 84.5996 4 85.495 4 86.5996Z" fill="#D9D9D9"/>
<path d="M196 86.5996C196 87.7042 195.105 88.5996 194 88.5996C192.895 88.5996 192 87.7042 192 86.5996C192 85.495 192.895 84.5996 194 84.5996C195.105 84.5996 196 85.495 196 86.5996Z" fill="#D9D9D9"/>
<path d="M4 182.6C4 183.704 3.10457 184.6 2 184.6C0.89543 184.6 0 183.704 0 182.6C0 181.495 0.89543 180.6 2 180.6C3.10457 180.6 4 181.495 4 182.6Z" fill="#D9D9D9"/>
<path d="M196 182.6C196 183.704 195.105 184.6 194 184.6C192.895 184.6 192 183.704 192 182.6C192 181.495 192.895 180.6 194 180.6C195.105 180.6 196 181.495 196 182.6Z" fill="#D9D9D9"/>
<path d="M100 86.5996C100 87.7042 99.1046 88.5996 98 88.5996C96.8954 88.5996 96 87.7042 96 86.5996C96 85.495 96.8954 84.5996 98 84.5996C99.1046 84.5996 100 85.495 100 86.5996Z" fill="#D9D9D9"/>
<path d="M292 86.5996C292 87.7042 291.105 88.5996 290 88.5996C288.895 88.5996 288 87.7042 288 86.5996C288 85.495 288.895 84.5996 290 84.5996C291.105 84.5996 292 85.495 292 86.5996Z" fill="#D9D9D9"/>
<path d="M100 182.6C100 183.704 99.1046 184.6 98 184.6C96.8954 184.6 96 183.704 96 182.6C96 181.495 96.8954 180.6 98 180.6C99.1046 180.6 100 181.495 100 182.6Z" fill="#D9D9D9"/>
<path d="M292 182.6C292 183.704 291.105 184.6 290 184.6C288.895 184.6 288 183.704 288 182.6C288 181.495 288.895 180.6 290 180.6C291.105 180.6 292 181.495 292 182.6Z" fill="#D9D9D9"/>
<path d="M76 38.5996C76 39.7042 75.1046 40.5996 74 40.5996C72.8954 40.5996 72 39.7042 72 38.5996C72 37.495 72.8954 36.5996 74 36.5996C75.1046 36.5996 76 37.495 76 38.5996Z" fill="#D9D9D9"/>
<path d="M268 38.5996C268 39.7042 267.105 40.5996 266 40.5996C264.895 40.5996 264 39.7042 264 38.5996C264 37.495 264.895 36.5996 266 36.5996C267.105 36.5996 268 37.495 268 38.5996Z" fill="#D9D9D9"/>
<path d="M76 134.6C76 135.704 75.1046 136.6 74 136.6C72.8954 136.6 72 135.704 72 134.6C72 133.495 72.8954 132.6 74 132.6C75.1046 132.6 76 133.495 76 134.6Z" fill="#D9D9D9"/>
<path d="M268 134.6C268 135.704 267.105 136.6 266 136.6C264.895 136.6 264 135.704 264 134.6C264 133.495 264.895 132.6 266 132.6C267.105 132.6 268 133.495 268 134.6Z" fill="#D9D9D9"/>
<path d="M172 38.5996C172 39.7042 171.105 40.5996 170 40.5996C168.895 40.5996 168 39.7042 168 38.5996C168 37.495 168.895 36.5996 170 36.5996C171.105 36.5996 172 37.495 172 38.5996Z" fill="#D9D9D9"/>
<path d="M364 38.5996C364 39.7042 363.105 40.5996 362 40.5996C360.895 40.5996 360 39.7042 360 38.5996C360 37.495 360.895 36.5996 362 36.5996C363.105 36.5996 364 37.495 364 38.5996Z" fill="#D9D9D9"/>
<path d="M172 134.6C172 135.704 171.105 136.6 170 136.6C168.895 136.6 168 135.704 168 134.6C168 133.495 168.895 132.6 170 132.6C171.105 132.6 172 133.495 172 134.6Z" fill="#D9D9D9"/>
<path d="M364 134.6C364 135.704 363.105 136.6 362 136.6C360.895 136.6 360 135.704 360 134.6C360 133.495 360.895 132.6 362 132.6C363.105 132.6 364 133.495 364 134.6Z" fill="#D9D9D9"/>
<path d="M76 86.5996C76 87.7042 75.1046 88.5996 74 88.5996C72.8954 88.5996 72 87.7042 72 86.5996C72 85.495 72.8954 84.5996 74 84.5996C75.1046 84.5996 76 85.495 76 86.5996Z" fill="#D9D9D9"/>
<path d="M268 86.5996C268 87.7042 267.105 88.5996 266 88.5996C264.895 88.5996 264 87.7042 264 86.5996C264 85.495 264.895 84.5996 266 84.5996C267.105 84.5996 268 85.495 268 86.5996Z" fill="#D9D9D9"/>
<path d="M76 182.6C76 183.704 75.1046 184.6 74 184.6C72.8954 184.6 72 183.704 72 182.6C72 181.495 72.8954 180.6 74 180.6C75.1046 180.6 76 181.495 76 182.6Z" fill="#D9D9D9"/>
<path d="M268 182.6C268 183.704 267.105 184.6 266 184.6C264.895 184.6 264 183.704 264 182.6C264 181.495 264.895 180.6 266 180.6C267.105 180.6 268 181.495 268 182.6Z" fill="#D9D9D9"/>
<path d="M172 86.5996C172 87.7042 171.105 88.5996 170 88.5996C168.895 88.5996 168 87.7042 168 86.5996C168 85.495 168.895 84.5996 170 84.5996C171.105 84.5996 172 85.495 172 86.5996Z" fill="#D9D9D9"/>
<path d="M364 86.5996C364 87.7042 363.105 88.5996 362 88.5996C360.895 88.5996 360 87.7042 360 86.5996C360 85.495 360.895 84.5996 362 84.5996C363.105 84.5996 364 85.495 364 86.5996Z" fill="#D9D9D9"/>
<path d="M172 182.6C172 183.704 171.105 184.6 170 184.6C168.895 184.6 168 183.704 168 182.6C168 181.495 168.895 180.6 170 180.6C171.105 180.6 172 181.495 172 182.6Z" fill="#D9D9D9"/>
<path d="M364 182.6C364 183.704 363.105 184.6 362 184.6C360.895 184.6 360 183.704 360 182.6C360 181.495 360.895 180.6 362 180.6C363.105 180.6 364 181.495 364 182.6Z" fill="#D9D9D9"/>
<path d="M28 38.5996C28 39.7042 27.1046 40.5996 26 40.5996C24.8954 40.5996 24 39.7042 24 38.5996C24 37.495 24.8954 36.5996 26 36.5996C27.1046 36.5996 28 37.495 28 38.5996Z" fill="#D9D9D9"/>
<path d="M220 38.5996C220 39.7042 219.105 40.5996 218 40.5996C216.895 40.5996 216 39.7042 216 38.5996C216 37.495 216.895 36.5996 218 36.5996C219.105 36.5996 220 37.495 220 38.5996Z" fill="#D9D9D9"/>
<path d="M28 134.6C28 135.704 27.1046 136.6 26 136.6C24.8954 136.6 24 135.704 24 134.6C24 133.495 24.8954 132.6 26 132.6C27.1046 132.6 28 133.495 28 134.6Z" fill="#D9D9D9"/>
<path d="M220 134.6C220 135.704 219.105 136.6 218 136.6C216.895 136.6 216 135.704 216 134.6C216 133.495 216.895 132.6 218 132.6C219.105 132.6 220 133.495 220 134.6Z" fill="#D9D9D9"/>
<path d="M124 38.5996C124 39.7042 123.105 40.5996 122 40.5996C120.895 40.5996 120 39.7042 120 38.5996C120 37.495 120.895 36.5996 122 36.5996C123.105 36.5996 124 37.495 124 38.5996Z" fill="#D9D9D9"/>
<path d="M316 38.5996C316 39.7042 315.105 40.5996 314 40.5996C312.895 40.5996 312 39.7042 312 38.5996C312 37.495 312.895 36.5996 314 36.5996C315.105 36.5996 316 37.495 316 38.5996Z" fill="#D9D9D9"/>
<path d="M124 134.6C124 135.704 123.105 136.6 122 136.6C120.895 136.6 120 135.704 120 134.6C120 133.495 120.895 132.6 122 132.6C123.105 132.6 124 133.495 124 134.6Z" fill="#D9D9D9"/>
<path d="M316 134.6C316 135.704 315.105 136.6 314 136.6C312.895 136.6 312 135.704 312 134.6C312 133.495 312.895 132.6 314 132.6C315.105 132.6 316 133.495 316 134.6Z" fill="#D9D9D9"/>
<path d="M28 86.5996C28 87.7042 27.1046 88.5996 26 88.5996C24.8954 88.5996 24 87.7042 24 86.5996C24 85.495 24.8954 84.5996 26 84.5996C27.1046 84.5996 28 85.495 28 86.5996Z" fill="#D9D9D9"/>
<path d="M220 86.5996C220 87.7042 219.105 88.5996 218 88.5996C216.895 88.5996 216 87.7042 216 86.5996C216 85.495 216.895 84.5996 218 84.5996C219.105 84.5996 220 85.495 220 86.5996Z" fill="#D9D9D9"/>
<path d="M28 182.6C28 183.704 27.1046 184.6 26 184.6C24.8954 184.6 24 183.704 24 182.6C24 181.495 24.8954 180.6 26 180.6C27.1046 180.6 28 181.495 28 182.6Z" fill="#D9D9D9"/>
<path d="M220 182.6C220 183.704 219.105 184.6 218 184.6C216.895 184.6 216 183.704 216 182.6C216 181.495 216.895 180.6 218 180.6C219.105 180.6 220 181.495 220 182.6Z" fill="#D9D9D9"/>
<path d="M124 86.5996C124 87.7042 123.105 88.5996 122 88.5996C120.895 88.5996 120 87.7042 120 86.5996C120 85.495 120.895 84.5996 122 84.5996C123.105 84.5996 124 85.495 124 86.5996Z" fill="#D9D9D9"/>
<path d="M316 86.5996C316 87.7042 315.105 88.5996 314 88.5996C312.895 88.5996 312 87.7042 312 86.5996C312 85.495 312.895 84.5996 314 84.5996C315.105 84.5996 316 85.495 316 86.5996Z" fill="#D9D9D9"/>
<path d="M124 182.6C124 183.704 123.105 184.6 122 184.6C120.895 184.6 120 183.704 120 182.6C120 181.495 120.895 180.6 122 180.6C123.105 180.6 124 181.495 124 182.6Z" fill="#D9D9D9"/>
<path d="M316 182.6C316 183.704 315.105 184.6 314 184.6C312.895 184.6 312 183.704 312 182.6C312 181.495 312.895 180.6 314 180.6C315.105 180.6 316 181.495 316 182.6Z" fill="#D9D9D9"/>
<path d="M64 14.5996C64 15.7042 63.1046 16.5996 62 16.5996C60.8954 16.5996 60 15.7042 60 14.5996C60 13.495 60.8954 12.5996 62 12.5996C63.1046 12.5996 64 13.495 64 14.5996Z" fill="#D9D9D9"/>
<path d="M256 14.5996C256 15.7042 255.105 16.5996 254 16.5996C252.895 16.5996 252 15.7042 252 14.5996C252 13.495 252.895 12.5996 254 12.5996C255.105 12.5996 256 13.495 256 14.5996Z" fill="#D9D9D9"/>
<path d="M64 110.6C64 111.704 63.1046 112.6 62 112.6C60.8954 112.6 60 111.704 60 110.6C60 109.495 60.8954 108.6 62 108.6C63.1046 108.6 64 109.495 64 110.6Z" fill="#D9D9D9"/>
<path d="M256 110.6C256 111.704 255.105 112.6 254 112.6C252.895 112.6 252 111.704 252 110.6C252 109.495 252.895 108.6 254 108.6C255.105 108.6 256 109.495 256 110.6Z" fill="#D9D9D9"/>
<path d="M160 14.5996C160 15.7042 159.105 16.5996 158 16.5996C156.895 16.5996 156 15.7042 156 14.5996C156 13.495 156.895 12.5996 158 12.5996C159.105 12.5996 160 13.495 160 14.5996Z" fill="#D9D9D9"/>
<path d="M352 14.5996C352 15.7042 351.105 16.5996 350 16.5996C348.895 16.5996 348 15.7042 348 14.5996C348 13.495 348.895 12.5996 350 12.5996C351.105 12.5996 352 13.495 352 14.5996Z" fill="#D9D9D9"/>
<path d="M160 110.6C160 111.704 159.105 112.6 158 112.6C156.895 112.6 156 111.704 156 110.6C156 109.495 156.895 108.6 158 108.6C159.105 108.6 160 109.495 160 110.6Z" fill="#D9D9D9"/>
<path d="M352 110.6C352 111.704 351.105 112.6 350 112.6C348.895 112.6 348 111.704 348 110.6C348 109.495 348.895 108.6 350 108.6C351.105 108.6 352 109.495 352 110.6Z" fill="#D9D9D9"/>
<path d="M64 62.5996C64 63.7042 63.1046 64.5996 62 64.5996C60.8954 64.5996 60 63.7042 60 62.5996C60 61.495 60.8954 60.5996 62 60.5996C63.1046 60.5996 64 61.495 64 62.5996Z" fill="#D9D9D9"/>
<path d="M256 62.5996C256 63.7042 255.105 64.5996 254 64.5996C252.895 64.5996 252 63.7042 252 62.5996C252 61.495 252.895 60.5996 254 60.5996C255.105 60.5996 256 61.495 256 62.5996Z" fill="#D9D9D9"/>
<path d="M64 158.6C64 159.704 63.1046 160.6 62 160.6C60.8954 160.6 60 159.704 60 158.6C60 157.495 60.8954 156.6 62 156.6C63.1046 156.6 64 157.495 64 158.6Z" fill="#D9D9D9"/>
<path d="M256 158.6C256 159.704 255.105 160.6 254 160.6C252.895 160.6 252 159.704 252 158.6C252 157.495 252.895 156.6 254 156.6C255.105 156.6 256 157.495 256 158.6Z" fill="#D9D9D9"/>
<path d="M160 62.5996C160 63.7042 159.105 64.5996 158 64.5996C156.895 64.5996 156 63.7042 156 62.5996C156 61.495 156.895 60.5996 158 60.5996C159.105 60.5996 160 61.495 160 62.5996Z" fill="#D9D9D9"/>
<path d="M352 62.5996C352 63.7042 351.105 64.5996 350 64.5996C348.895 64.5996 348 63.7042 348 62.5996C348 61.495 348.895 60.5996 350 60.5996C351.105 60.5996 352 61.495 352 62.5996Z" fill="#D9D9D9"/>
<path d="M160 158.6C160 159.704 159.105 160.6 158 160.6C156.895 160.6 156 159.704 156 158.6C156 157.495 156.895 156.6 158 156.6C159.105 156.6 160 157.495 160 158.6Z" fill="#D9D9D9"/>
<path d="M352 158.6C352 159.704 351.105 160.6 350 160.6C348.895 160.6 348 159.704 348 158.6C348 157.495 348.895 156.6 350 156.6C351.105 156.6 352 157.495 352 158.6Z" fill="#D9D9D9"/>
<path d="M16 14.5996C16 15.7042 15.1046 16.5996 14 16.5996C12.8954 16.5996 12 15.7042 12 14.5996C12 13.495 12.8954 12.5996 14 12.5996C15.1046 12.5996 16 13.495 16 14.5996Z" fill="#D9D9D9"/>
<path d="M208 14.5996C208 15.7042 207.105 16.5996 206 16.5996C204.895 16.5996 204 15.7042 204 14.5996C204 13.495 204.895 12.5996 206 12.5996C207.105 12.5996 208 13.495 208 14.5996Z" fill="#D9D9D9"/>
<path d="M16 110.6C16 111.704 15.1046 112.6 14 112.6C12.8954 112.6 12 111.704 12 110.6C12 109.495 12.8954 108.6 14 108.6C15.1046 108.6 16 109.495 16 110.6Z" fill="#D9D9D9"/>
<path d="M208 110.6C208 111.704 207.105 112.6 206 112.6C204.895 112.6 204 111.704 204 110.6C204 109.495 204.895 108.6 206 108.6C207.105 108.6 208 109.495 208 110.6Z" fill="#D9D9D9"/>
<path d="M112 14.5996C112 15.7042 111.105 16.5996 110 16.5996C108.895 16.5996 108 15.7042 108 14.5996C108 13.495 108.895 12.5996 110 12.5996C111.105 12.5996 112 13.495 112 14.5996Z" fill="#D9D9D9"/>
<path d="M304 14.5996C304 15.7042 303.105 16.5996 302 16.5996C300.895 16.5996 300 15.7042 300 14.5996C300 13.495 300.895 12.5996 302 12.5996C303.105 12.5996 304 13.495 304 14.5996Z" fill="#D9D9D9"/>
<path d="M112 110.6C112 111.704 111.105 112.6 110 112.6C108.895 112.6 108 111.704 108 110.6C108 109.495 108.895 108.6 110 108.6C111.105 108.6 112 109.495 112 110.6Z" fill="#D9D9D9"/>
<path d="M304 110.6C304 111.704 303.105 112.6 302 112.6C300.895 112.6 300 111.704 300 110.6C300 109.495 300.895 108.6 302 108.6C303.105 108.6 304 109.495 304 110.6Z" fill="#D9D9D9"/>
<path d="M16 62.5996C16 63.7042 15.1046 64.5996 14 64.5996C12.8954 64.5996 12 63.7042 12 62.5996C12 61.495 12.8954 60.5996 14 60.5996C15.1046 60.5996 16 61.495 16 62.5996Z" fill="#D9D9D9"/>
<path d="M208 62.5996C208 63.7042 207.105 64.5996 206 64.5996C204.895 64.5996 204 63.7042 204 62.5996C204 61.495 204.895 60.5996 206 60.5996C207.105 60.5996 208 61.495 208 62.5996Z" fill="#D9D9D9"/>
<path d="M16 158.6C16 159.704 15.1046 160.6 14 160.6C12.8954 160.6 12 159.704 12 158.6C12 157.495 12.8954 156.6 14 156.6C15.1046 156.6 16 157.495 16 158.6Z" fill="#D9D9D9"/>
<path d="M208 158.6C208 159.704 207.105 160.6 206 160.6C204.895 160.6 204 159.704 204 158.6C204 157.495 204.895 156.6 206 156.6C207.105 156.6 208 157.495 208 158.6Z" fill="#D9D9D9"/>
<path d="M112 62.5996C112 63.7042 111.105 64.5996 110 64.5996C108.895 64.5996 108 63.7042 108 62.5996C108 61.495 108.895 60.5996 110 60.5996C111.105 60.5996 112 61.495 112 62.5996Z" fill="#D9D9D9"/>
<path d="M304 62.5996C304 63.7042 303.105 64.5996 302 64.5996C300.895 64.5996 300 63.7042 300 62.5996C300 61.495 300.895 60.5996 302 60.5996C303.105 60.5996 304 61.495 304 62.5996Z" fill="#D9D9D9"/>
<path d="M112 158.6C112 159.704 111.105 160.6 110 160.6C108.895 160.6 108 159.704 108 158.6C108 157.495 108.895 156.6 110 156.6C111.105 156.6 112 157.495 112 158.6Z" fill="#D9D9D9"/>
<path d="M304 158.6C304 159.704 303.105 160.6 302 160.6C300.895 160.6 300 159.704 300 158.6C300 157.495 300.895 156.6 302 156.6C303.105 156.6 304 157.495 304 158.6Z" fill="#D9D9D9"/>
<path d="M88 14.5996C88 15.7042 87.1046 16.5996 86 16.5996C84.8954 16.5996 84 15.7042 84 14.5996C84 13.495 84.8954 12.5996 86 12.5996C87.1046 12.5996 88 13.495 88 14.5996Z" fill="#D9D9D9"/>
<path d="M280 14.5996C280 15.7042 279.105 16.5996 278 16.5996C276.895 16.5996 276 15.7042 276 14.5996C276 13.495 276.895 12.5996 278 12.5996C279.105 12.5996 280 13.495 280 14.5996Z" fill="#D9D9D9"/>
<path d="M88 110.6C88 111.704 87.1046 112.6 86 112.6C84.8954 112.6 84 111.704 84 110.6C84 109.495 84.8954 108.6 86 108.6C87.1046 108.6 88 109.495 88 110.6Z" fill="#D9D9D9"/>
<path d="M280 110.6C280 111.704 279.105 112.6 278 112.6C276.895 112.6 276 111.704 276 110.6C276 109.495 276.895 108.6 278 108.6C279.105 108.6 280 109.495 280 110.6Z" fill="#D9D9D9"/>
<path d="M184 14.5996C184 15.7042 183.105 16.5996 182 16.5996C180.895 16.5996 180 15.7042 180 14.5996C180 13.495 180.895 12.5996 182 12.5996C183.105 12.5996 184 13.495 184 14.5996Z" fill="#D9D9D9"/>
<path d="M376 14.5996C376 15.7042 375.105 16.5996 374 16.5996C372.895 16.5996 372 15.7042 372 14.5996C372 13.495 372.895 12.5996 374 12.5996C375.105 12.5996 376 13.495 376 14.5996Z" fill="#D9D9D9"/>
<path d="M184 110.6C184 111.704 183.105 112.6 182 112.6C180.895 112.6 180 111.704 180 110.6C180 109.495 180.895 108.6 182 108.6C183.105 108.6 184 109.495 184 110.6Z" fill="#D9D9D9"/>
<path d="M376 110.6C376 111.704 375.105 112.6 374 112.6C372.895 112.6 372 111.704 372 110.6C372 109.495 372.895 108.6 374 108.6C375.105 108.6 376 109.495 376 110.6Z" fill="#D9D9D9"/>
<path d="M88 62.5996C88 63.7042 87.1046 64.5996 86 64.5996C84.8954 64.5996 84 63.7042 84 62.5996C84 61.495 84.8954 60.5996 86 60.5996C87.1046 60.5996 88 61.495 88 62.5996Z" fill="#D9D9D9"/>
<path d="M280 62.5996C280 63.7042 279.105 64.5996 278 64.5996C276.895 64.5996 276 63.7042 276 62.5996C276 61.495 276.895 60.5996 278 60.5996C279.105 60.5996 280 61.495 280 62.5996Z" fill="#D9D9D9"/>
<path d="M88 158.6C88 159.704 87.1046 160.6 86 160.6C84.8954 160.6 84 159.704 84 158.6C84 157.495 84.8954 156.6 86 156.6C87.1046 156.6 88 157.495 88 158.6Z" fill="#D9D9D9"/>
<path d="M280 158.6C280 159.704 279.105 160.6 278 160.6C276.895 160.6 276 159.704 276 158.6C276 157.495 276.895 156.6 278 156.6C279.105 156.6 280 157.495 280 158.6Z" fill="#D9D9D9"/>
<path d="M184 62.5996C184 63.7042 183.105 64.5996 182 64.5996C180.895 64.5996 180 63.7042 180 62.5996C180 61.495 180.895 60.5996 182 60.5996C183.105 60.5996 184 61.495 184 62.5996Z" fill="#D9D9D9"/>
<path d="M376 62.5996C376 63.7042 375.105 64.5996 374 64.5996C372.895 64.5996 372 63.7042 372 62.5996C372 61.495 372.895 60.5996 374 60.5996C375.105 60.5996 376 61.495 376 62.5996Z" fill="#D9D9D9"/>
<path d="M184 158.6C184 159.704 183.105 160.6 182 160.6C180.895 160.6 180 159.704 180 158.6C180 157.495 180.895 156.6 182 156.6C183.105 156.6 184 157.495 184 158.6Z" fill="#D9D9D9"/>
<path d="M376 158.6C376 159.704 375.105 160.6 374 160.6C372.895 160.6 372 159.704 372 158.6C372 157.495 372.895 156.6 374 156.6C375.105 156.6 376 157.495 376 158.6Z" fill="#D9D9D9"/>
<path d="M40 14.5996C40 15.7042 39.1046 16.5996 38 16.5996C36.8954 16.5996 36 15.7042 36 14.5996C36 13.495 36.8954 12.5996 38 12.5996C39.1046 12.5996 40 13.495 40 14.5996Z" fill="#D9D9D9"/>
<path d="M232 14.5996C232 15.7042 231.105 16.5996 230 16.5996C228.895 16.5996 228 15.7042 228 14.5996C228 13.495 228.895 12.5996 230 12.5996C231.105 12.5996 232 13.495 232 14.5996Z" fill="#D9D9D9"/>
<path d="M40 110.6C40 111.704 39.1046 112.6 38 112.6C36.8954 112.6 36 111.704 36 110.6C36 109.495 36.8954 108.6 38 108.6C39.1046 108.6 40 109.495 40 110.6Z" fill="#D9D9D9"/>
<path d="M232 110.6C232 111.704 231.105 112.6 230 112.6C228.895 112.6 228 111.704 228 110.6C228 109.495 228.895 108.6 230 108.6C231.105 108.6 232 109.495 232 110.6Z" fill="#D9D9D9"/>
<path d="M136 14.5996C136 15.7042 135.105 16.5996 134 16.5996C132.895 16.5996 132 15.7042 132 14.5996C132 13.495 132.895 12.5996 134 12.5996C135.105 12.5996 136 13.495 136 14.5996Z" fill="#D9D9D9"/>
<path d="M328 14.5996C328 15.7042 327.105 16.5996 326 16.5996C324.895 16.5996 324 15.7042 324 14.5996C324 13.495 324.895 12.5996 326 12.5996C327.105 12.5996 328 13.495 328 14.5996Z" fill="#D9D9D9"/>
<path d="M136 110.6C136 111.704 135.105 112.6 134 112.6C132.895 112.6 132 111.704 132 110.6C132 109.495 132.895 108.6 134 108.6C135.105 108.6 136 109.495 136 110.6Z" fill="#D9D9D9"/>
<path d="M328 110.6C328 111.704 327.105 112.6 326 112.6C324.895 112.6 324 111.704 324 110.6C324 109.495 324.895 108.6 326 108.6C327.105 108.6 328 109.495 328 110.6Z" fill="#D9D9D9"/>
<path d="M40 62.5996C40 63.7042 39.1046 64.5996 38 64.5996C36.8954 64.5996 36 63.7042 36 62.5996C36 61.495 36.8954 60.5996 38 60.5996C39.1046 60.5996 40 61.495 40 62.5996Z" fill="#D9D9D9"/>
<path d="M232 62.5996C232 63.7042 231.105 64.5996 230 64.5996C228.895 64.5996 228 63.7042 228 62.5996C228 61.495 228.895 60.5996 230 60.5996C231.105 60.5996 232 61.495 232 62.5996Z" fill="#D9D9D9"/>
<path d="M40 158.6C40 159.704 39.1046 160.6 38 160.6C36.8954 160.6 36 159.704 36 158.6C36 157.495 36.8954 156.6 38 156.6C39.1046 156.6 40 157.495 40 158.6Z" fill="#D9D9D9"/>
<path d="M232 158.6C232 159.704 231.105 160.6 230 160.6C228.895 160.6 228 159.704 228 158.6C228 157.495 228.895 156.6 230 156.6C231.105 156.6 232 157.495 232 158.6Z" fill="#D9D9D9"/>
<path d="M136 62.5996C136 63.7042 135.105 64.5996 134 64.5996C132.895 64.5996 132 63.7042 132 62.5996C132 61.495 132.895 60.5996 134 60.5996C135.105 60.5996 136 61.495 136 62.5996Z" fill="#D9D9D9"/>
<path d="M328 62.5996C328 63.7042 327.105 64.5996 326 64.5996C324.895 64.5996 324 63.7042 324 62.5996C324 61.495 324.895 60.5996 326 60.5996C327.105 60.5996 328 61.495 328 62.5996Z" fill="#D9D9D9"/>
<path d="M136 158.6C136 159.704 135.105 160.6 134 160.6C132.895 160.6 132 159.704 132 158.6C132 157.495 132.895 156.6 134 156.6C135.105 156.6 136 157.495 136 158.6Z" fill="#D9D9D9"/>
<path d="M328 158.6C328 159.704 327.105 160.6 326 160.6C324.895 160.6 324 159.704 324 158.6C324 157.495 324.895 156.6 326 156.6C327.105 156.6 328 157.495 328 158.6Z" fill="#D9D9D9"/>
<path d="M64 38.5996C64 39.7042 63.1046 40.5996 62 40.5996C60.8954 40.5996 60 39.7042 60 38.5996C60 37.495 60.8954 36.5996 62 36.5996C63.1046 36.5996 64 37.495 64 38.5996Z" fill="#D9D9D9"/>
<path d="M256 38.5996C256 39.7042 255.105 40.5996 254 40.5996C252.895 40.5996 252 39.7042 252 38.5996C252 37.495 252.895 36.5996 254 36.5996C255.105 36.5996 256 37.495 256 38.5996Z" fill="#D9D9D9"/>
<path d="M64 134.6C64 135.704 63.1046 136.6 62 136.6C60.8954 136.6 60 135.704 60 134.6C60 133.495 60.8954 132.6 62 132.6C63.1046 132.6 64 133.495 64 134.6Z" fill="#D9D9D9"/>
<path d="M256 134.6C256 135.704 255.105 136.6 254 136.6C252.895 136.6 252 135.704 252 134.6C252 133.495 252.895 132.6 254 132.6C255.105 132.6 256 133.495 256 134.6Z" fill="#D9D9D9"/>
<path d="M160 38.5996C160 39.7042 159.105 40.5996 158 40.5996C156.895 40.5996 156 39.7042 156 38.5996C156 37.495 156.895 36.5996 158 36.5996C159.105 36.5996 160 37.495 160 38.5996Z" fill="#D9D9D9"/>
<path d="M352 38.5996C352 39.7042 351.105 40.5996 350 40.5996C348.895 40.5996 348 39.7042 348 38.5996C348 37.495 348.895 36.5996 350 36.5996C351.105 36.5996 352 37.495 352 38.5996Z" fill="#D9D9D9"/>
<path d="M160 134.6C160 135.704 159.105 136.6 158 136.6C156.895 136.6 156 135.704 156 134.6C156 133.495 156.895 132.6 158 132.6C159.105 132.6 160 133.495 160 134.6Z" fill="#D9D9D9"/>
<path d="M352 134.6C352 135.704 351.105 136.6 350 136.6C348.895 136.6 348 135.704 348 134.6C348 133.495 348.895 132.6 350 132.6C351.105 132.6 352 133.495 352 134.6Z" fill="#D9D9D9"/>
<path d="M64 86.5996C64 87.7042 63.1046 88.5996 62 88.5996C60.8954 88.5996 60 87.7042 60 86.5996C60 85.495 60.8954 84.5996 62 84.5996C63.1046 84.5996 64 85.495 64 86.5996Z" fill="#D9D9D9"/>
<path d="M256 86.5996C256 87.7042 255.105 88.5996 254 88.5996C252.895 88.5996 252 87.7042 252 86.5996C252 85.495 252.895 84.5996 254 84.5996C255.105 84.5996 256 85.495 256 86.5996Z" fill="#D9D9D9"/>
<path d="M64 182.6C64 183.704 63.1046 184.6 62 184.6C60.8954 184.6 60 183.704 60 182.6C60 181.495 60.8954 180.6 62 180.6C63.1046 180.6 64 181.495 64 182.6Z" fill="#D9D9D9"/>
<path d="M256 182.6C256 183.704 255.105 184.6 254 184.6C252.895 184.6 252 183.704 252 182.6C252 181.495 252.895 180.6 254 180.6C255.105 180.6 256 181.495 256 182.6Z" fill="#D9D9D9"/>
<path d="M160 86.5996C160 87.7042 159.105 88.5996 158 88.5996C156.895 88.5996 156 87.7042 156 86.5996C156 85.495 156.895 84.5996 158 84.5996C159.105 84.5996 160 85.495 160 86.5996Z" fill="#D9D9D9"/>
<path d="M352 86.5996C352 87.7042 351.105 88.5996 350 88.5996C348.895 88.5996 348 87.7042 348 86.5996C348 85.495 348.895 84.5996 350 84.5996C351.105 84.5996 352 85.495 352 86.5996Z" fill="#D9D9D9"/>
<path d="M160 182.6C160 183.704 159.105 184.6 158 184.6C156.895 184.6 156 183.704 156 182.6C156 181.495 156.895 180.6 158 180.6C159.105 180.6 160 181.495 160 182.6Z" fill="#D9D9D9"/>
<path d="M352 182.6C352 183.704 351.105 184.6 350 184.6C348.895 184.6 348 183.704 348 182.6C348 181.495 348.895 180.6 350 180.6C351.105 180.6 352 181.495 352 182.6Z" fill="#D9D9D9"/>
<path d="M16 38.5996C16 39.7042 15.1046 40.5996 14 40.5996C12.8954 40.5996 12 39.7042 12 38.5996C12 37.495 12.8954 36.5996 14 36.5996C15.1046 36.5996 16 37.495 16 38.5996Z" fill="#D9D9D9"/>
<path d="M208 38.5996C208 39.7042 207.105 40.5996 206 40.5996C204.895 40.5996 204 39.7042 204 38.5996C204 37.495 204.895 36.5996 206 36.5996C207.105 36.5996 208 37.495 208 38.5996Z" fill="#D9D9D9"/>
<path d="M16 134.6C16 135.704 15.1046 136.6 14 136.6C12.8954 136.6 12 135.704 12 134.6C12 133.495 12.8954 132.6 14 132.6C15.1046 132.6 16 133.495 16 134.6Z" fill="#D9D9D9"/>
<path d="M208 134.6C208 135.704 207.105 136.6 206 136.6C204.895 136.6 204 135.704 204 134.6C204 133.495 204.895 132.6 206 132.6C207.105 132.6 208 133.495 208 134.6Z" fill="#D9D9D9"/>
<path d="M112 38.5996C112 39.7042 111.105 40.5996 110 40.5996C108.895 40.5996 108 39.7042 108 38.5996C108 37.495 108.895 36.5996 110 36.5996C111.105 36.5996 112 37.495 112 38.5996Z" fill="#D9D9D9"/>
<path d="M304 38.5996C304 39.7042 303.105 40.5996 302 40.5996C300.895 40.5996 300 39.7042 300 38.5996C300 37.495 300.895 36.5996 302 36.5996C303.105 36.5996 304 37.495 304 38.5996Z" fill="#D9D9D9"/>
<path d="M112 134.6C112 135.704 111.105 136.6 110 136.6C108.895 136.6 108 135.704 108 134.6C108 133.495 108.895 132.6 110 132.6C111.105 132.6 112 133.495 112 134.6Z" fill="#D9D9D9"/>
<path d="M304 134.6C304 135.704 303.105 136.6 302 136.6C300.895 136.6 300 135.704 300 134.6C300 133.495 300.895 132.6 302 132.6C303.105 132.6 304 133.495 304 134.6Z" fill="#D9D9D9"/>
<path d="M16 86.5996C16 87.7042 15.1046 88.5996 14 88.5996C12.8954 88.5996 12 87.7042 12 86.5996C12 85.495 12.8954 84.5996 14 84.5996C15.1046 84.5996 16 85.495 16 86.5996Z" fill="#D9D9D9"/>
<path d="M208 86.5996C208 87.7042 207.105 88.5996 206 88.5996C204.895 88.5996 204 87.7042 204 86.5996C204 85.495 204.895 84.5996 206 84.5996C207.105 84.5996 208 85.495 208 86.5996Z" fill="#D9D9D9"/>
<path d="M16 182.6C16 183.704 15.1046 184.6 14 184.6C12.8954 184.6 12 183.704 12 182.6C12 181.495 12.8954 180.6 14 180.6C15.1046 180.6 16 181.495 16 182.6Z" fill="#D9D9D9"/>
<path d="M208 182.6C208 183.704 207.105 184.6 206 184.6C204.895 184.6 204 183.704 204 182.6C204 181.495 204.895 180.6 206 180.6C207.105 180.6 208 181.495 208 182.6Z" fill="#D9D9D9"/>
<path d="M112 86.5996C112 87.7042 111.105 88.5996 110 88.5996C108.895 88.5996 108 87.7042 108 86.5996C108 85.495 108.895 84.5996 110 84.5996C111.105 84.5996 112 85.495 112 86.5996Z" fill="#D9D9D9"/>
<path d="M304 86.5996C304 87.7042 303.105 88.5996 302 88.5996C300.895 88.5996 300 87.7042 300 86.5996C300 85.495 300.895 84.5996 302 84.5996C303.105 84.5996 304 85.495 304 86.5996Z" fill="#D9D9D9"/>
<path d="M112 182.6C112 183.704 111.105 184.6 110 184.6C108.895 184.6 108 183.704 108 182.6C108 181.495 108.895 180.6 110 180.6C111.105 180.6 112 181.495 112 182.6Z" fill="#D9D9D9"/>
<path d="M304 182.6C304 183.704 303.105 184.6 302 184.6C300.895 184.6 300 183.704 300 182.6C300 181.495 300.895 180.6 302 180.6C303.105 180.6 304 181.495 304 182.6Z" fill="#D9D9D9"/>
<path d="M88 38.5996C88 39.7042 87.1046 40.5996 86 40.5996C84.8954 40.5996 84 39.7042 84 38.5996C84 37.495 84.8954 36.5996 86 36.5996C87.1046 36.5996 88 37.495 88 38.5996Z" fill="#D9D9D9"/>
<path d="M280 38.5996C280 39.7042 279.105 40.5996 278 40.5996C276.895 40.5996 276 39.7042 276 38.5996C276 37.495 276.895 36.5996 278 36.5996C279.105 36.5996 280 37.495 280 38.5996Z" fill="#D9D9D9"/>
<path d="M88 134.6C88 135.704 87.1046 136.6 86 136.6C84.8954 136.6 84 135.704 84 134.6C84 133.495 84.8954 132.6 86 132.6C87.1046 132.6 88 133.495 88 134.6Z" fill="#D9D9D9"/>
<path d="M280 134.6C280 135.704 279.105 136.6 278 136.6C276.895 136.6 276 135.704 276 134.6C276 133.495 276.895 132.6 278 132.6C279.105 132.6 280 133.495 280 134.6Z" fill="#D9D9D9"/>
<path d="M184 38.5996C184 39.7042 183.105 40.5996 182 40.5996C180.895 40.5996 180 39.7042 180 38.5996C180 37.495 180.895 36.5996 182 36.5996C183.105 36.5996 184 37.495 184 38.5996Z" fill="#D9D9D9"/>
<path d="M376 38.5996C376 39.7042 375.105 40.5996 374 40.5996C372.895 40.5996 372 39.7042 372 38.5996C372 37.495 372.895 36.5996 374 36.5996C375.105 36.5996 376 37.495 376 38.5996Z" fill="#D9D9D9"/>
<path d="M184 134.6C184 135.704 183.105 136.6 182 136.6C180.895 136.6 180 135.704 180 134.6C180 133.495 180.895 132.6 182 132.6C183.105 132.6 184 133.495 184 134.6Z" fill="#D9D9D9"/>
<path d="M376 134.6C376 135.704 375.105 136.6 374 136.6C372.895 136.6 372 135.704 372 134.6C372 133.495 372.895 132.6 374 132.6C375.105 132.6 376 133.495 376 134.6Z" fill="#D9D9D9"/>
<path d="M88 86.5996C88 87.7042 87.1046 88.5996 86 88.5996C84.8954 88.5996 84 87.7042 84 86.5996C84 85.495 84.8954 84.5996 86 84.5996C87.1046 84.5996 88 85.495 88 86.5996Z" fill="#D9D9D9"/>
<path d="M280 86.5996C280 87.7042 279.105 88.5996 278 88.5996C276.895 88.5996 276 87.7042 276 86.5996C276 85.495 276.895 84.5996 278 84.5996C279.105 84.5996 280 85.495 280 86.5996Z" fill="#D9D9D9"/>
<path d="M88 182.6C88 183.704 87.1046 184.6 86 184.6C84.8954 184.6 84 183.704 84 182.6C84 181.495 84.8954 180.6 86 180.6C87.1046 180.6 88 181.495 88 182.6Z" fill="#D9D9D9"/>
<path d="M280 182.6C280 183.704 279.105 184.6 278 184.6C276.895 184.6 276 183.704 276 182.6C276 181.495 276.895 180.6 278 180.6C279.105 180.6 280 181.495 280 182.6Z" fill="#D9D9D9"/>
<path d="M184 86.5996C184 87.7042 183.105 88.5996 182 88.5996C180.895 88.5996 180 87.7042 180 86.5996C180 85.495 180.895 84.5996 182 84.5996C183.105 84.5996 184 85.495 184 86.5996Z" fill="#D9D9D9"/>
<path d="M376 86.5996C376 87.7042 375.105 88.5996 374 88.5996C372.895 88.5996 372 87.7042 372 86.5996C372 85.495 372.895 84.5996 374 84.5996C375.105 84.5996 376 85.495 376 86.5996Z" fill="#D9D9D9"/>
<path d="M184 182.6C184 183.704 183.105 184.6 182 184.6C180.895 184.6 180 183.704 180 182.6C180 181.495 180.895 180.6 182 180.6C183.105 180.6 184 181.495 184 182.6Z" fill="#D9D9D9"/>
<path d="M376 182.6C376 183.704 375.105 184.6 374 184.6C372.895 184.6 372 183.704 372 182.6C372 181.495 372.895 180.6 374 180.6C375.105 180.6 376 181.495 376 182.6Z" fill="#D9D9D9"/>
<path d="M40 38.5996C40 39.7042 39.1046 40.5996 38 40.5996C36.8954 40.5996 36 39.7042 36 38.5996C36 37.495 36.8954 36.5996 38 36.5996C39.1046 36.5996 40 37.495 40 38.5996Z" fill="#D9D9D9"/>
<path d="M232 38.5996C232 39.7042 231.105 40.5996 230 40.5996C228.895 40.5996 228 39.7042 228 38.5996C228 37.495 228.895 36.5996 230 36.5996C231.105 36.5996 232 37.495 232 38.5996Z" fill="#D9D9D9"/>
<path d="M40 134.6C40 135.704 39.1046 136.6 38 136.6C36.8954 136.6 36 135.704 36 134.6C36 133.495 36.8954 132.6 38 132.6C39.1046 132.6 40 133.495 40 134.6Z" fill="#D9D9D9"/>
<path d="M232 134.6C232 135.704 231.105 136.6 230 136.6C228.895 136.6 228 135.704 228 134.6C228 133.495 228.895 132.6 230 132.6C231.105 132.6 232 133.495 232 134.6Z" fill="#D9D9D9"/>
<path d="M136 38.5996C136 39.7042 135.105 40.5996 134 40.5996C132.895 40.5996 132 39.7042 132 38.5996C132 37.495 132.895 36.5996 134 36.5996C135.105 36.5996 136 37.495 136 38.5996Z" fill="#D9D9D9"/>
<path d="M328 38.5996C328 39.7042 327.105 40.5996 326 40.5996C324.895 40.5996 324 39.7042 324 38.5996C324 37.495 324.895 36.5996 326 36.5996C327.105 36.5996 328 37.495 328 38.5996Z" fill="#D9D9D9"/>
<path d="M136 134.6C136 135.704 135.105 136.6 134 136.6C132.895 136.6 132 135.704 132 134.6C132 133.495 132.895 132.6 134 132.6C135.105 132.6 136 133.495 136 134.6Z" fill="#D9D9D9"/>
<path d="M328 134.6C328 135.704 327.105 136.6 326 136.6C324.895 136.6 324 135.704 324 134.6C324 133.495 324.895 132.6 326 132.6C327.105 132.6 328 133.495 328 134.6Z" fill="#D9D9D9"/>
<path d="M40 86.5996C40 87.7042 39.1046 88.5996 38 88.5996C36.8954 88.5996 36 87.7042 36 86.5996C36 85.495 36.8954 84.5996 38 84.5996C39.1046 84.5996 40 85.495 40 86.5996Z" fill="#D9D9D9"/>
<path d="M232 86.5996C232 87.7042 231.105 88.5996 230 88.5996C228.895 88.5996 228 87.7042 228 86.5996C228 85.495 228.895 84.5996 230 84.5996C231.105 84.5996 232 85.495 232 86.5996Z" fill="#D9D9D9"/>
<path d="M40 182.6C40 183.704 39.1046 184.6 38 184.6C36.8954 184.6 36 183.704 36 182.6C36 181.495 36.8954 180.6 38 180.6C39.1046 180.6 40 181.495 40 182.6Z" fill="#D9D9D9"/>
<path d="M232 182.6C232 183.704 231.105 184.6 230 184.6C228.895 184.6 228 183.704 228 182.6C228 181.495 228.895 180.6 230 180.6C231.105 180.6 232 181.495 232 182.6Z" fill="#D9D9D9"/>
<path d="M136 86.5996C136 87.7042 135.105 88.5996 134 88.5996C132.895 88.5996 132 87.7042 132 86.5996C132 85.495 132.895 84.5996 134 84.5996C135.105 84.5996 136 85.495 136 86.5996Z" fill="#D9D9D9"/>
<path d="M328 86.5996C328 87.7042 327.105 88.5996 326 88.5996C324.895 88.5996 324 87.7042 324 86.5996C324 85.495 324.895 84.5996 326 84.5996C327.105 84.5996 328 85.495 328 86.5996Z" fill="#D9D9D9"/>
<path d="M136 182.6C136 183.704 135.105 184.6 134 184.6C132.895 184.6 132 183.704 132 182.6C132 181.495 132.895 180.6 134 180.6C135.105 180.6 136 181.495 136 182.6Z" fill="#D9D9D9"/>
<path d="M328 182.6C328 183.704 327.105 184.6 326 184.6C324.895 184.6 324 183.704 324 182.6C324 181.495 324.895 180.6 326 180.6C327.105 180.6 328 181.495 328 182.6Z" fill="#D9D9D9"/>
</svg>
