<svg width="327" height="323" viewBox="0 0 327 323" fill="none" xmlns="http://www.w3.org/2000/svg">
<circle cx="166" cy="161.6" r="129.5" stroke="#949494"/>
<circle cx="166" cy="161.6" r="99.5" stroke="#949494"/>
<circle cx="166" cy="161.6" r="69.5" stroke="#949494"/>
<circle cx="166" cy="161.6" r="160.5" stroke="#949494"/>
<circle cx="174" cy="32.5996" r="4" fill="#1E63EC"/>
<circle cx="70" cy="135.6" r="4" fill="#1E63EC"/>
<circle cx="220" cy="205.6" r="4" fill="#1E63EC"/>
<circle cx="113" cy="279.6" r="4" fill="#1E63EC"/>
<circle cx="281" cy="220.6" r="4" fill="#1E63EC"/>
<circle cx="36" cy="67.5996" r="4" fill="#1E63EC"/>
<rect x="0.5" y="193.1" width="63" height="63" rx="31.5" fill="#323437"/>
<rect x="0.5" y="193.1" width="63" height="63" rx="31.5" stroke="#99999B"/>
<path d="M32 233.037C36.6599 233.037 40.4375 229.26 40.4375 224.6C40.4375 219.94 36.6599 216.162 32 216.162C27.3401 216.162 23.5625 219.94 23.5625 224.6C23.5625 229.26 27.3401 233.037 32 233.037Z" fill="white" fill-opacity="0.15" stroke="white" stroke-width="2" stroke-linecap="round" stroke-linejoin="round"/>
<path d="M32 211.662V208.85" stroke="white" stroke-width="2" stroke-linecap="round" stroke-linejoin="round"/>
<path d="M22.8453 215.445L20.8625 213.462" stroke="white" stroke-width="2" stroke-linecap="round" stroke-linejoin="round"/>
<path d="M19.0625 224.6H16.25" stroke="white" stroke-width="2" stroke-linecap="round" stroke-linejoin="round"/>
<path d="M22.8453 233.754L20.8625 235.737" stroke="white" stroke-width="2" stroke-linecap="round" stroke-linejoin="round"/>
<path d="M32 237.537V240.35" stroke="white" stroke-width="2" stroke-linecap="round" stroke-linejoin="round"/>
<path d="M41.1547 233.754L43.1375 235.737" stroke="white" stroke-width="2" stroke-linecap="round" stroke-linejoin="round"/>
<path d="M44.9375 224.6H47.75" stroke="white" stroke-width="2" stroke-linecap="round" stroke-linejoin="round"/>
<path d="M41.1547 215.445L43.1375 213.462" stroke="white" stroke-width="2" stroke-linecap="round" stroke-linejoin="round"/>
<rect x="258.5" y="53.0996" width="63" height="63" rx="31.5" fill="#323437"/>
<rect x="258.5" y="53.0996" width="63" height="63" rx="31.5" stroke="#99999B"/>
<path d="M301.461 77.9059L296.736 82.3496L301.236 94.7246L297.861 98.0996L291.139 88.2559L287.736 91.3496V94.7246L284.361 98.0996L282.364 92.2074L276.486 90.2246L279.861 86.8496H283.236L286.611 83.4746L276.486 76.7246L279.861 73.3496L292.236 77.8496L296.694 73.1387L296.595 73.209C297.229 72.5749 298.089 72.2188 298.986 72.2188C299.883 72.2188 300.743 72.5749 301.377 73.209C302.011 73.843 302.367 74.7029 302.367 75.5996C302.367 76.4963 302.011 77.3562 301.377 77.9902L301.461 77.9059Z" fill="white" fill-opacity="0.15" stroke="white" stroke-width="2" stroke-linecap="round" stroke-linejoin="round"/>
<rect x="96.5" y="58.0996" width="63" height="63" rx="31.5" fill="#323437"/>
<rect x="96.5" y="58.0996" width="63" height="63" rx="31.5" stroke="#99999B"/>
<path d="M140.375 101.975V90.7246H133.625L124.625 83.9746V90.7246L115.625 83.9746V101.975" fill="white" fill-opacity="0.15"/>
<path d="M140.375 101.975V90.7246H133.625L124.625 83.9746V90.7246L115.625 83.9746V101.975" stroke="white" stroke-width="2" stroke-linecap="round" stroke-linejoin="round"/>
<path d="M121.25 96.3496H125.188" stroke="white" stroke-width="2" stroke-linecap="round" stroke-linejoin="round"/>
<path d="M130.812 96.3496H134.75" stroke="white" stroke-width="2" stroke-linecap="round" stroke-linejoin="round"/>
<path d="M112.25 101.975H143.75" stroke="white" stroke-width="2" stroke-linecap="round" stroke-linejoin="round"/>
<path d="M140.375 90.7246L138.266 75.9449C138.228 75.6765 138.095 75.4306 137.891 75.2523C137.687 75.074 137.426 74.9754 137.155 74.9746H134.595C134.324 74.9754 134.063 75.074 133.859 75.2523C133.655 75.4306 133.522 75.6765 133.484 75.9449L131.586 89.2059" fill="white" fill-opacity="0.15"/>
<path d="M140.375 90.7246L138.266 75.9449C138.228 75.6765 138.095 75.4306 137.891 75.2523C137.687 75.074 137.426 74.9754 137.155 74.9746H134.595C134.324 74.9754 134.063 75.074 133.859 75.2523C133.655 75.4306 133.522 75.6765 133.484 75.9449L131.586 89.2059" stroke="white" stroke-width="2" stroke-linecap="round" stroke-linejoin="round"/>
<rect x="212.5" y="254.1" width="63" height="63" rx="31.5" fill="#323437"/>
<rect x="212.5" y="254.1" width="63" height="63" rx="31.5" stroke="#99999B"/>
<path d="M244 297.975C244 297.975 229.938 290.1 229.938 280.537C229.938 278.847 230.523 277.208 231.595 275.901C232.667 274.594 234.158 273.698 235.816 273.367C237.474 273.035 239.195 273.288 240.687 274.083C242.179 274.877 243.35 276.164 244 277.725C244.65 276.164 245.821 274.877 247.313 274.083C248.805 273.288 250.526 273.035 252.184 273.367C253.842 273.698 255.333 274.594 256.405 275.901C257.477 277.208 258.062 278.847 258.062 280.537C258.062 290.1 244 297.975 244 297.975Z" fill="white" fill-opacity="0.15" stroke="white" stroke-width="2" stroke-linecap="round" stroke-linejoin="round"/>
</svg>
