<svg width="68" height="68" viewBox="0 0 68 68" fill="none" xmlns="http://www.w3.org/2000/svg">
<g clip-path="url(#clip0_1307_1886)">
<path d="M17.4419 29.192L13.3727 29.9265C13.2356 29.1136 12.9222 28.5015 12.4325 28.0902C11.9526 27.6788 11.3258 27.4732 10.5521 27.4732C9.52377 27.4732 8.7011 27.8306 8.0841 28.5456C7.47689 29.2507 7.17329 30.4357 7.17329 32.1007C7.17329 33.9517 7.48179 35.2591 8.09879 36.023C8.72558 36.7869 9.56294 37.1689 10.6109 37.1689C11.3944 37.1689 12.0358 36.9485 12.5353 36.5078C13.0348 36.0573 13.3874 35.2885 13.593 34.2014L17.6476 34.8919C17.2265 36.7527 16.4185 38.1581 15.2237 39.108C14.0289 40.058 12.4276 40.533 10.4199 40.533C8.13797 40.533 6.31634 39.8132 4.95502 38.3735C3.6035 36.9338 2.92773 34.9408 2.92773 32.3945C2.92773 29.8187 3.60839 27.8159 4.96971 26.3861C6.33103 24.9464 8.17224 24.2266 10.4933 24.2266C12.3933 24.2266 13.9015 24.6379 15.018 25.4606C16.1443 26.2734 16.9523 27.5172 17.4419 29.192Z" fill="black"/>
<path d="M24.5375 40.1804H20.4094V24.5791H24.2436V26.7974C24.8998 25.7495 25.4874 25.059 26.0065 24.726C26.5354 24.3931 27.1328 24.2266 27.7987 24.2266C28.7389 24.2266 29.6449 24.4861 30.5165 25.0052L29.2384 28.6043C28.5431 28.1538 27.8967 27.9286 27.2993 27.9286C26.7214 27.9286 26.2318 28.0902 25.8302 28.4134C25.4287 28.7268 25.1104 29.2997 24.8753 30.1321C24.6501 30.9646 24.5375 32.7079 24.5375 35.362V40.1804Z" fill="black"/>
<path d="M31.3539 32.1594C31.3539 30.7883 31.6917 29.4613 32.3675 28.1783C33.0433 26.8953 33.9981 25.916 35.2321 25.2402C36.4759 24.5644 37.8617 24.2266 39.3896 24.2266C41.7498 24.2266 43.6841 24.9954 45.1923 26.533C46.7005 28.0608 47.4546 29.995 47.4546 32.3357C47.4546 34.696 46.6907 36.6547 45.1629 38.2119C43.6449 39.7593 41.7302 40.533 39.4189 40.533C37.9891 40.533 36.6228 40.2098 35.3203 39.5634C34.0275 38.9171 33.0433 37.972 32.3675 36.7282C31.6917 35.4746 31.3539 33.9517 31.3539 32.1594ZM35.5847 32.3798C35.5847 33.9272 35.952 35.1122 36.6865 35.9349C37.421 36.7576 38.3269 37.1689 39.4042 37.1689C40.4815 37.1689 41.3826 36.7576 42.1073 35.9349C42.8418 35.1122 43.2091 33.9174 43.2091 32.3504C43.2091 30.8226 42.8418 29.6474 42.1073 28.8247C41.3826 28.002 40.4815 27.5907 39.4042 27.5907C38.3269 27.5907 37.421 28.002 36.6865 28.8247C35.952 29.6474 35.5847 30.8324 35.5847 32.3798Z" fill="black"/>
<path d="M64.8923 40.1804H60.7642V32.2182C60.7642 30.5337 60.6761 29.4466 60.4998 28.9569C60.3235 28.4574 60.0346 28.0706 59.6331 27.7964C59.2413 27.5221 58.7663 27.385 58.2081 27.385C57.4931 27.385 56.8517 27.5809 56.2836 27.9726C55.7156 28.3644 55.3238 28.8835 55.1084 29.5298C54.9027 30.1762 54.7999 31.371 54.7999 33.1143V40.1804H50.6719V24.5791H54.5061V26.8709C55.8674 25.108 57.5813 24.2266 59.6478 24.2266C60.5586 24.2266 61.391 24.3931 62.1451 24.726C62.8992 25.0492 63.4673 25.4655 63.8492 25.9747C64.241 26.484 64.5103 27.0618 64.6572 27.7082C64.8139 28.3546 64.8923 29.2801 64.8923 30.4847V40.1804Z" fill="black"/>
</g>
<defs>
<clipPath id="clip0_1307_1886">
<rect width="67.9592" height="67.9592" fill="white" transform="translate(0.0205078 0.0195312)"/>
</clipPath>
</defs>
</svg>
