<svg width="68" height="68" viewBox="0 0 68 68" fill="none" xmlns="http://www.w3.org/2000/svg">
<path d="M15.4699 14.8198C25.9936 4.62496 42.8205 4.89902 53.0153 15.4775C54.1663 13.9428 55.1529 12.2437 55.8655 10.4897C59.2089 20.6845 61.2369 29.235 60.4696 35.8671C60.0859 41.4578 57.8935 46.8293 54.276 51.1046C44.8485 62.286 28.0764 63.711 16.895 54.2836L16.6811 54.0933L16.6697 54.0858C16.6347 54.0614 16.6001 54.036 16.5661 54.0095C16.464 53.9301 16.3714 53.8437 16.2881 53.7515L16.2581 53.7173L15.9084 53.4066C15.5673 53.1143 15.2263 52.822 14.9237 52.4911L14.8122 52.3652C4.61735 41.8415 4.94621 25.0146 15.4699 14.8198ZM19.4163 50.5016C18.4297 49.7343 17.0046 49.8439 16.2372 50.8305C15.5625 51.698 15.5658 52.9046 16.2472 53.7049L16.2581 53.7173L16.6811 54.0933L16.7226 54.1216C17.6806 54.7515 18.9696 54.6213 19.7049 53.7309L19.7451 53.6807C20.5125 52.6941 20.3481 51.269 19.4163 50.5016ZM55.5914 13.2303C52.8509 18.9854 46.0543 23.3703 40.1896 24.7405C34.6537 26.056 29.8303 24.9598 24.7329 26.933C13.113 31.3727 13.3323 45.185 19.6903 48.3092L20.074 48.5284C20.074 48.5284 24.6666 47.6153 29.2082 46.4094L29.5972 46.3053C31.4112 45.8165 33.1957 45.2836 34.6537 44.7465C42.2176 41.9511 50.5488 35.045 53.2894 27.0426C51.8643 35.3738 44.6841 43.431 37.5039 47.1034C33.6671 49.0766 30.7073 49.515 24.4041 51.7075C23.6367 51.9815 23.0338 52.2556 23.0338 52.2556C23.1107 52.245 23.1876 52.2346 23.2643 52.2245L23.4175 52.2047L23.5699 52.1855C24.962 52.013 26.2128 51.9267 26.2128 51.9267C35.147 51.4882 49.1786 54.448 55.701 45.7331C62.388 36.8537 58.6608 22.4933 55.5914 13.2303Z" fill="#6DB33F"/>
<path d="M19.4171 50.5004C20.3489 51.2677 20.5133 52.6928 19.746 53.6794C18.9786 54.666 17.5536 54.7756 16.567 54.0083C15.5804 53.2409 15.4708 51.8158 16.2381 50.8292C17.0055 49.8426 18.4305 49.733 19.4171 50.5004ZM55.5923 13.229C58.6617 22.492 62.3888 36.8525 55.7019 45.7318C49.1794 54.4468 35.1478 51.487 26.2137 51.9255C26.2137 51.9255 24.9628 52.0117 23.5707 52.1842L23.4184 52.2034C23.291 52.2197 23.1628 52.2366 23.0346 52.2543C23.0346 52.2543 23.6376 51.9803 24.4049 51.7062C30.7082 49.5138 33.6679 49.0753 37.5047 47.1021C44.6849 43.4298 51.8651 35.3726 53.2902 27.0413C50.5497 35.0437 42.2184 41.9499 34.6545 44.7452C29.4475 46.6636 20.0749 48.5272 20.0749 48.5272L19.6912 48.3079C13.3331 45.1837 13.1139 31.3714 24.7338 26.9317C29.8312 24.9585 34.6545 26.0547 40.1904 24.7393C46.0552 23.369 52.8517 18.9841 55.5923 13.229Z" fill="white"/>
</svg>
