<svg width="68" height="68" viewBox="0 0 68 68" fill="none" xmlns="http://www.w3.org/2000/svg">
<path d="M26.1001 40.5027C24.4675 39.2183 22.7252 37.9873 21.5349 36.2529C19.0296 33.1945 17.1012 29.6542 15.7828 25.9331C14.9856 23.5132 14.7128 20.9191 13.6845 18.5931C12.6103 16.9033 13.8696 15.0573 15.7203 14.5205C16.5436 14.3618 17.9924 13.5845 16.2437 14.1406C14.6755 15.2906 14.5244 13.0958 16.1321 12.9568C17.2293 12.8113 17.6333 11.9134 17.2576 11.1052C16.0794 10.3365 20.1137 9.49329 18.0835 8.34673C15.9701 6.06567 21.041 5.62667 19.7896 8.2175C19.4905 10.2095 23.3341 7.85167 22.4415 10.1523C23.3484 11.2574 25.8364 10.4044 25.7738 11.9538C27.0945 12.0446 27.5478 13.155 28.7863 13.2405C30.0719 13.8208 32.4 14.2774 32.8368 15.7251C31.5624 16.7337 28.6122 13.6414 28.4698 16.4337C28.8552 20.5597 28.7569 24.8098 30.2659 28.7386C30.9796 31.1172 32.7109 32.9896 34.2735 34.8426C35.7693 36.6569 37.7953 37.9349 39.8605 39.0103C41.6717 39.8644 43.6242 40.4304 45.5986 40.7864C46.399 40.1742 47.8127 37.8976 49.061 38.8569C49.1213 39.9368 46.5831 41.1128 48.9419 40.9933C50.3281 40.5751 51.2885 42.0642 52.4295 40.7206C53.4807 41.9658 56.7987 39.9255 56.0508 42.4707C55.0391 43.1233 53.564 42.7289 52.5511 43.627C50.8812 42.7925 49.5516 44.3727 47.7022 44.1734C45.6491 44.5412 43.5595 44.6892 41.478 44.6923C38.0625 44.4229 34.5749 44.3091 31.3258 43.1199C29.495 42.5879 27.709 41.5453 26.1001 40.5027ZM28.9845 41.7533C30.7716 42.5253 32.5195 43.34 34.4784 43.5864C37.5862 44.0178 40.7957 44.6836 43.9144 44.077C42.5029 43.4398 41.0432 44.3245 39.6371 43.6214C37.9509 43.9839 36.1408 43.5284 34.4257 43.3038C32.4766 42.4356 30.3721 41.8388 28.5466 40.7108C26.2644 39.8776 29.726 41.7797 30.3424 41.9341C31.7682 42.7432 28.7742 41.519 28.3515 41.1828C27.157 40.5126 27.0048 40.6527 28.2335 41.3328C28.4807 41.4775 28.7252 41.6297 28.9845 41.7533ZM25.5832 39.3497C27.3157 39.9914 25.5756 38.132 24.7829 38.2394C24.4313 37.6293 23.4392 37.2439 24.1389 36.9165C22.8808 37.3535 22.8205 35.2552 22.2293 35.5555C20.8977 35.135 21.7113 33.6456 20.1246 32.7303C19.9799 31.7665 18.5488 30.9311 18.0933 29.4779C17.8918 28.7333 16.4758 26.5969 17.3454 28.5853C18.0855 30.4994 19.3876 32.1399 20.4716 33.777C21.3126 35.3362 22.307 36.9669 23.839 37.9394C24.3559 38.4353 24.8541 39.1942 25.5832 39.3497ZM20.5944 33.8712C20.6544 33.6094 20.9109 34.4372 20.5944 33.8712V33.8712ZM27.6585 40.1184C27.1065 39.9017 28.0417 39.9466 27.6585 40.1184V40.1184ZM28.5979 40.4613C28.1687 40.7262 28.5006 39.9881 28.5979 40.4613V40.4613ZM29.7753 40.9518C28.9113 40.6154 30.3348 40.4184 29.7753 40.9518V40.9518ZM31.7923 42.0763C30.7026 41.887 32.1329 41.5736 31.7923 42.0763V42.0763ZM27.9192 39.3761C26.7945 39.3682 28.7885 38.8132 27.9192 39.3761V39.3761ZM28.8017 39.8162C28.4875 39.9497 28.7765 39.5193 28.8017 39.8162V39.8162ZM33.2136 42.5702C33.9231 43.0182 37.3563 43.5514 35.2067 42.7541C34.8462 42.8298 31.2207 41.7281 33.2136 42.5702ZM26.2098 37.1147C25.1081 36.785 26.1408 36.8169 26.2098 37.1147V37.1147ZM28.2629 38.3128C27.1536 38.0246 28.7983 37.9394 28.2629 38.3128V38.3128ZM29.9909 39.3716C28.747 39.0815 30.7584 39.0826 29.9909 39.3716V39.3716ZM25.373 36.2047C26.2053 36.843 28.7305 36.2868 26.6476 35.8237C25.7004 35.3189 23.5651 34.9729 25.0206 36.1282L25.373 36.2047ZM31.1615 39.7374C29.7072 39.3999 31.5086 39.1471 31.1615 39.7374V39.7374ZM29.4027 38.34C31.4374 38.915 27.6913 37.0521 28.9004 38.1275L29.1687 38.2492L29.4027 38.34ZM32.929 40.378C31.1879 40.112 34.8563 40.3965 32.929 40.378V40.378ZM24.6318 35.0898C24.1566 35.1195 24.5561 34.7307 24.6318 35.0898V35.0898ZM36.189 42.2066C35.5602 42.6896 36.2403 41.5585 36.189 42.2066V42.2066ZM27.9212 37.1037C27.319 37.0894 27.804 36.762 27.9212 37.1037V37.1037ZM24.8145 34.8644C23.2991 34.3772 25.9207 34.7977 24.8145 34.8644V34.8644ZM21.1341 32.4858C19.9306 31.5321 20.9961 31.9549 21.1341 32.4858V32.4858ZM30.7957 38.6172C30.5933 38.386 30.7004 38.6674 30.7957 38.6172V38.6172ZM36.8085 42.3075C36.4811 42.441 36.79 41.9537 36.8085 42.3075V42.3075ZM30.2636 38.0675C29.3198 37.9293 30.3721 37.612 30.2636 38.0675V38.0675ZM25.7837 35.228C24.4641 34.6716 26.6073 35.1403 25.7837 35.228V35.228ZM33.3616 39.9368C32.111 39.6892 34.6449 39.4285 33.3616 39.9368V39.9368ZM29.4204 37.2616C30.8986 37.4519 27.6608 36.2552 29.0952 37.1542L29.4204 37.2616ZM34.5583 40.4206C35.9392 39.5962 35.4837 42.3535 36.9008 40.6539C38.2979 39.6334 35.6939 41.9153 37.4155 40.8358C38.6615 40.0024 40.5011 41.2311 41.663 41.6308C42.4984 41.5902 43.3111 42.3535 44.1684 41.889C45.8176 41.4444 40.9426 41.2299 42.2203 40.4425C40.7113 40.8818 39.5967 39.9191 38.8541 38.9522C37.1612 38.5612 35.2045 37.6961 34.359 36.1971C34.0142 35.6353 34.8563 36.277 34.0613 35.3573C33.0417 34.4504 32.5326 33.4199 31.8481 32.3173C31.0301 31.8814 30.9336 30.5969 30.8515 32.2747C30.8582 31.2156 29.8639 30.5028 29.6208 30.7985C29.6163 29.7789 30.6853 30.2903 29.9373 29.5359C29.7764 28.479 29.2463 27.3776 29.0874 26.184C28.8401 25.609 29.0523 24.3772 28.2422 25.6791C27.9475 27.0555 28.1446 23.9884 28.6035 24.999C29.2057 23.9677 28.3865 24.089 28.3537 24.2315C28.7459 23.361 28.6024 22.1256 28.2509 22.5966C28.46 21.6734 28.5816 19.1998 27.9388 19.6388C28.3285 18.673 28.6781 15.2213 26.9849 16.5377C26.2995 16.5476 25.1114 16.7864 24.5508 17.0656C26.3104 18.0358 24.3733 17.416 23.6559 17.2616C23.5629 18.1595 22.8533 17.7718 21.9664 17.7805C23.3835 17.9557 21.2765 19.2292 20.4652 18.7344C19.4095 19.2382 21.3752 20.4974 20.4859 20.8871C20.5956 21.473 18.8695 20.6749 19.0044 22.0306C17.9803 21.5989 18.8642 23.638 19.3767 22.9481C21.1189 23.4202 20.6031 24.4944 20.6469 25.5159C20.3632 26.1105 19.2452 24.1176 20.3982 24.2096C19.4882 22.7322 19.3921 23.6753 18.6363 24.3618C18.4611 24.4111 20.5636 25.3385 19.2441 25.7963C20.4049 25.976 20.4388 26.9922 20.6754 27.635C21.3729 28.3619 21.2294 26.8321 22.0651 27.7062C21.5361 26.9274 19.2659 25.5126 21.0937 25.9661C21.0839 25.1832 20.7629 24.5513 21.3236 24.5665C21.8789 23.5623 20.7422 27.0435 21.9927 25.7668C22.3387 25.6157 22.4253 24.7616 23.0473 25.8478C23.9506 26.7371 23.3736 27.3807 22.099 26.5661C22.3266 27.3403 23.8039 27.6162 23.5259 28.8264C23.8202 29.8908 24.232 29.4986 24.5911 29.4372C24.8726 30.4711 25.0326 29.7111 25.0458 29.2183C26.3345 29.4944 26.0323 30.2563 26.4363 30.7887C27.3244 31.1893 25.165 28.0717 26.6894 29.8513C28.2935 31.3 27.2916 31.9044 25.8518 31.6723C26.7628 31.5989 27.0561 32.9044 28.1962 32.8584C29.2354 33.3532 29.9396 35.2521 28.148 34.4613C27.527 33.9007 25.327 33.2096 27.1242 34.2752C28.7821 35.0438 30.1005 35.5028 31.7003 36.4677C32.8446 37.2845 33.3394 38.2206 33.7731 38.4059C32.8107 38.8656 30.8736 38.0389 32.3123 37.7861C31.4144 37.6229 30.4049 37.1685 31.2644 38.2864C31.9958 38.8976 33.8541 38.8328 34.1883 38.9018C33.9057 39.5238 33.4207 39.5732 34.1992 39.6214C33.3307 40.0845 34.4784 40.1568 34.5583 40.4206ZM32.7821 35.4044C32.2531 34.8513 32.1163 33.8166 32.6879 34.7164C32.9814 34.8347 33.6265 36.4085 32.7821 35.4044ZM38.5673 39.0792C38.5772 39.3298 38.897 39.0574 38.5673 39.0792V39.0792ZM31.9479 34.0487C31.9268 33.213 32.1382 34.6934 31.9479 34.0487V34.0487ZM31.3729 33.2755C30.7071 31.991 32.2105 33.6391 31.3729 33.2755V33.2755ZM24.4039 28.4661C24.5967 29.1339 24.7949 28.3619 24.4039 28.4661V28.4661ZM29.9505 31.4719C30.1902 30.5706 30.232 32.2276 29.9505 31.4719V31.4719ZM26.0323 28.7473C25.7565 28.2503 26.6095 29.2141 26.0323 28.7473V28.7473ZM29.394 29.8249C28.7644 28.4146 29.8409 29.054 29.5342 30.0559L29.394 29.8249ZM23.5959 25.9583C23.3145 25.4952 22.8491 24.1373 22.9991 23.7224C23.1337 24.398 24.4347 26.6286 23.6363 24.6466C22.7549 22.9854 24.6909 25.1851 24.8902 25.6003C24.9833 26.0121 24.3458 25.4876 24.7773 26.4545C23.9901 25.3539 24.313 27.0622 23.5959 25.9583ZM21.8043 24.7232C21.8778 23.6467 22.2139 25.4613 21.8043 24.7232V24.7232ZM22.6103 25.0012C22.9946 24.1888 23.2618 26.1335 22.6103 25.0012V25.0012ZM20.671 23.5012C20.0041 22.8374 19.521 22.2265 20.7026 23.0894C21.1571 23.1068 19.6909 21.6998 20.8122 22.6425C21.9905 22.8573 21.3937 24.5754 20.671 23.5012ZM21.6894 23.4748C21.8952 23.8527 22.0771 23.0905 21.6894 23.4748V23.4748ZM22.3168 23.6753C21.7287 22.5747 23.0297 24.1373 22.3168 23.6753V23.6753ZM21.0707 22.485C19.1314 20.7579 23.5071 23.3871 21.3872 22.8046L21.0707 22.485ZM26.628 25.713C25.7881 25.2104 26.4046 22.1707 26.6916 24.2491C27.5074 23.985 26.6465 25.3233 27.2543 25.3102C27.1592 26.1542 26.8865 26.4578 26.628 25.713ZM28.6834 26.9285C28.7655 26.0121 28.8564 27.5551 28.6834 26.9285V26.9285ZM28.3265 26.5747C28.3352 27.0359 28.4185 26.184 28.3265 26.5747V26.5747ZM21.4506 21.9176C20.2045 20.1983 25.0719 23.6565 22.2489 22.3535C21.9543 22.2759 21.5986 22.2484 21.4506 21.9176ZM25.4091 24.0159C25.2911 22.5682 25.6721 24.2556 25.4091 24.0159V24.0159ZM28.414 25.944C28.4317 26.4895 28.6461 25.1195 28.414 25.944V25.944ZM21.6423 21.2616C22.3827 21.103 24.7105 22.5615 22.573 21.6779C22.3356 21.415 21.8285 21.5344 21.6423 21.2616ZM28.0011 24.4308C28.0801 22.9503 28.4437 23.5472 28.0044 24.6433L28.0011 24.4308ZM22.1932 20.7461C22.4954 20.3034 21.3914 18.7454 22.3518 20.1874C22.767 20.5171 23.5531 20.7394 22.8589 20.8784C23.9506 21.8411 22.5929 21.1391 22.1932 20.7461ZM27.6868 23.9688C27.871 24.9564 27.8951 22.2823 27.6868 23.9688V23.9688ZM21.5624 19.1888C21.6849 19.4964 21.7934 19.0902 21.5624 19.1888V19.1888ZM22.9958 20.0419C23.3647 19.2676 23.6758 20.9048 22.9958 20.0419V20.0419ZM27.0376 22.2899C27.0342 21.9933 27.1141 22.7224 27.0376 22.2899V22.2899ZM26.8032 21.7721C26.2426 20.3878 27.3255 22.5046 26.8032 21.7721V21.7721ZM26.4593 20.8641C26.3653 20.2925 26.7791 21.5826 26.4593 20.8641V20.8641ZM27.0199 19.953C26.6345 19.2752 27.5063 16.9636 27.6038 18.3972C27.1974 19.514 27.4867 20.1383 27.769 18.6402C28.2926 17.462 27.6563 20.9673 27.0199 19.953ZM27.596 16.5159C27.6333 16.7643 27.7636 16.3098 27.596 16.5159V16.5159ZM26.6336 35.4744C26.4057 35.2751 26.6631 35.6003 26.6336 35.4744V35.4744ZM28.6156 36.4763C29.7181 36.76 29.7128 36.3053 28.7162 36.1697C28.1808 35.6715 26.489 35.1425 28.0033 36.1083C28.1031 36.3625 28.4196 36.3558 28.6156 36.4763ZM24.7019 33.8765C25.3085 34.3301 26.9894 35.1599 25.567 34.0498C26.0466 33.4922 24.6491 33.1956 25.1125 32.8222C23.9332 32.1004 24.1816 32.1651 25.0085 32.1881C23.5915 31.554 25.2132 31.6022 25.1366 31.277C24.5903 31.1697 22.4219 30.3132 23.6977 31.3471C22.4012 30.6867 23.3888 31.5935 22.9969 31.4982C21.6706 31.1369 24.1774 32.508 22.7866 32.1674C23.5466 32.7695 24.8333 33.7114 23.1073 32.8046C22.8808 33.132 24.3427 33.6282 24.7019 33.8765ZM26.7746 35.068C25.5384 34.0747 29.2945 35.8795 26.7746 35.068V35.068ZM37.3857 41.496C37.0418 41.9229 37.4185 40.9956 37.3857 41.496V41.496ZM38.4765 41.9549C39.0579 41.392 38.5006 42.8528 39.44 41.8169C39.4498 41.0755 39.4117 40.6376 38.3605 41.5386C38.07 41.6998 37.9411 42.3818 38.4765 41.9549ZM21.1638 31.0822C19.9121 30.3833 20.9852 30.3802 21.1638 31.0822V31.0822ZM22.3277 31.8453C20.7848 31.196 21.8952 31.1282 22.3277 31.8453V31.8453ZM28.9539 35.8411C29.6012 36.4161 31.9249 36.2627 29.7391 35.9123C29.4159 35.4338 27.6849 35.5487 28.9539 35.8411ZM38.0613 41.4665C37.0967 41.8388 39.0568 40.6309 38.0613 41.4665V41.4665ZM40.1322 42.8889C39.703 43.0061 40.1386 42.6207 40.1322 42.8889V42.8889ZM40.1355 42.5133C39.0677 42.5823 41.2381 41.346 40.1355 42.5133V42.5133ZM18.2991 28.684C17.3597 27.3437 17.7154 26.7413 16.8088 25.6463C16.6367 24.8087 15.2538 22.9097 16.0937 24.9213C16.8624 26.0985 17.0903 27.9206 18.2991 28.684ZM39.7893 42.1421C38.9573 41.5717 41.8186 40.8313 39.7893 42.1421V42.1421ZM41.3379 42.7488C40.6951 42.5668 42.3541 41.8769 41.3379 42.7488V42.7488ZM20.8187 29.6004C20.0677 29.5446 21.1091 29.1678 20.8187 29.6004V29.6004ZM41.0146 42.3347C41.998 41.7009 40.7881 41.7982 40.8363 42.3927L41.0146 42.3347ZM27.6683 33.9225C27.1483 33.9587 27.6344 33.4933 27.6683 33.9225V33.9225ZM28.4928 34.3968C28.0899 34.4801 28.2301 33.8667 28.4928 34.3968V34.3968ZM42.5926 42.7631C43.853 41.8539 41.8296 42.5887 42.3288 42.936L42.5926 42.7631ZM42.1099 42.5298C41.0267 42.9108 43.137 41.6701 42.1099 42.5298V42.5298ZM44.5757 44.1712C43.7381 44.0223 45.2647 43.71 44.5757 44.1712V44.1712ZM21.4506 29.2884C22.3737 29.4952 25.142 31.5627 23.5093 29.4319C22.6728 29.1844 23.1743 27.1399 22.3213 27.5012C22.894 28.4583 22.792 28.8645 21.5896 28.2623C20.0797 27.5242 20.741 28.6271 21.0368 28.9315C20.6337 29.0234 21.5689 29.2808 21.4506 29.2884ZM17.2425 25.965C17.4076 25.2805 15.7192 22.2024 16.4452 24.4221C16.7068 24.8874 16.6796 25.7688 17.2425 25.965ZM24.9668 30.7273C24.4905 30.3298 24.9438 30.6704 24.9668 30.7273V30.7273ZM26.1374 31.0001C24.8431 30.7054 26.1374 30.2751 26.1374 31.0001V31.0001ZM36.2885 37.3984C35.5232 37.3874 36.0948 36.9033 36.2885 37.3984V37.3984ZM36.7757 37.7541C36.4943 37.8079 36.7034 37.4771 36.7757 37.7541V37.7541ZM40.7991 40.2891C40.316 40.2521 41.1856 40.0035 40.7991 40.2891V40.2891ZM19.3439 26.5016C18.1578 26.196 20.4509 26.0732 19.3439 26.5016V26.5016ZM35.3948 36.6131C34.6887 36.7917 35.3819 35.8969 35.3948 36.6131V36.6131ZM18.9068 25.482C18.2486 25.3245 19.6175 25.2423 18.9068 25.482V25.482ZM20.9698 26.4817C20.752 26.5717 20.9577 26.2465 20.9698 26.4817V26.4817ZM46.1397 41.9165C47.0538 41.7314 49.1378 42.3818 49.4739 41.6745C48.3635 41.6471 45.6337 40.8904 45.5044 41.854L45.7475 41.8924L46.1397 41.9165ZM21.6258 26.6471C21.0598 26.6199 21.6423 25.921 21.6258 26.6471V26.6471ZM16.2011 22.8836C15.2636 22.6742 15.9547 21.5005 16.2011 22.8836V22.8836ZM17.4942 23.2088C16.3104 22.809 17.5108 22.7642 17.4942 23.2088V23.2088ZM18.2335 23.5724C18.0199 23.3991 18.067 23.7902 18.2335 23.5724V23.5724ZM22.8861 26.5562C22.3672 26.4074 23.1054 26.3547 22.8861 26.5562V26.5562ZM17.7418 22.7533C16.2426 22.5966 17.6159 21.7085 17.7418 22.7533V22.7533ZM15.0884 21.0317C14.83 21.2134 15.0511 20.5499 15.0884 21.0317V21.0317ZM15.4837 20.734C15.1442 20.8061 15.4192 20.1622 15.4837 20.734V20.734ZM17.663 22.0348C18.585 21.6734 15.9841 21.2857 17.4746 21.9669L17.663 22.0348ZM46.8394 40.057C46.0903 39.8897 47.4295 39.5163 46.8394 40.057V40.057ZM50.3643 41.8837C49.7686 41.9756 50.6009 41.1851 50.3643 41.8837V41.8837ZM17.8861 20.8927C17.1548 21.0273 17.9837 20.216 17.8861 20.8927V20.8927ZM14.784 18.8143C14.6175 17.8595 14.6405 16.1828 16.2339 16.7491C14.1073 17.1719 17.7067 19.3935 17.2523 17.6392C18.1469 17.6832 19.0021 17.1105 18.5323 17.9787C20.2953 17.7849 21.5164 16.2563 23.2192 16.471C24.5451 16.2947 25.995 16.1621 27.4242 15.6278C28.599 15.5434 29.7302 14.2786 29.0865 13.5284C27.4844 13.3927 25.8066 13.5931 24.0361 13.9458C22.0737 14.3531 20.2911 15.1282 18.3111 15.4613C16.3805 15.7209 18.6988 16.1753 18.1457 16.277C17.1393 16.6263 19.347 16.8618 18.0154 17.2307C17.1932 17.0743 16.3368 16.7917 16.6883 15.9244C14.8398 16.1655 13.2147 16.9319 14.6755 18.8132L14.784 18.8143ZM19.2399 16.5453C19.6724 14.9488 21.5613 17.8595 19.9494 16.7578C19.7576 16.6132 19.44 16.496 19.2399 16.5453ZM19.324 15.771C19.6559 16.0329 19.9494 15.3057 19.324 15.771V15.771ZM20.1179 15.7842C20.1751 15.0495 21.9369 16.173 20.4083 16.0483L20.1179 15.7842ZM21.2042 15.3475C21.3194 15.759 21.6017 14.8829 21.2042 15.3475V15.3475ZM21.4825 15.1613C22.1438 14.3674 25.2241 14.6542 22.9694 15.0834C22.365 14.6278 21.9019 15.3517 21.4825 15.1613ZM25.5033 14.5415C25.4038 12.372 27.5018 15.3113 25.5033 14.5415V14.5415ZM26.6445 14.5348C27.0617 13.442 28.264 14.0958 26.8383 14.3147C26.8688 14.4319 26.7956 14.8799 26.6445 14.5348ZM17.4362 20.332C16.1133 19.6696 18.6823 19.5687 17.4362 20.332V20.332ZM18.3582 20.5871C17.4076 20.3988 18.7953 20.1229 18.3582 20.5871V20.5871ZM15.6426 18.661C14.7994 18.453 16.3544 18.1135 15.6426 18.661V18.661ZM52.4449 41.6843C51.9005 41.97 52.4656 41.0491 52.4449 41.6843V41.6843ZM48.7053 39.1316C48.2245 39.1953 48.8115 38.4014 48.7053 39.1316V39.1316ZM53.4731 41.9308C54.4686 41.9341 56.4898 41.6207 54.3239 41.6218C53.9833 41.6745 52.3431 41.6636 53.4731 41.9308ZM19.1687 20.1392C19.9746 20.0845 20.429 19.2511 19.012 19.2982C16.8164 19.0717 20.949 20.0506 18.7305 19.7703C18.4328 19.9673 19.151 20.1941 19.1687 20.1392ZM19.8782 20.4986C19.6284 20.7733 19.7938 19.9816 19.8782 20.4986V20.4986ZM20.7203 18.2537C20.2362 18.1376 21.0696 17.82 20.7203 18.2537V18.2537ZM18.0395 13.7737C19.4784 13.2853 21.4452 12.7356 22.1242 14.0148C21.4332 13.1836 21.845 12.3644 22.4976 13.5811C23.4207 14.8109 23.8827 13.0215 23.2825 12.6086C23.9671 13.4583 24.7445 13.8603 23.7403 12.6624C24.8322 11.3494 21.5557 12.8343 20.8111 12.8189C20.4531 12.9798 17.1121 13.6708 18.0395 13.7737ZM18.8827 12.1598C19.703 11.5411 21.72 12.5287 20.4257 11.5442C20.2987 11.4326 17.5918 12.291 18.8827 12.1598ZM21.8733 12.2834C22.8326 12.3075 21.4595 10.9933 22.6027 11.589C22.4155 10.976 21.2712 10.861 20.7116 10.6157C20.3951 11.1764 21.3553 12.291 21.8733 12.2834ZM19.4072 9.5687C18.8247 9.79773 19.7391 9.11877 19.4072 9.5687V9.5687ZM20.6295 9.86108C22.1766 9.65644 20.235 9.1953 20.3172 9.84483L20.6295 9.86108ZM18.3473 8.07621C17.2576 6.65381 20.3962 8.31506 19.2889 6.82565C18.3571 6.08446 17.4626 7.66132 18.3473 8.07621ZM32.3255 15.6048C32.825 14.7198 30.2636 14.4111 31.9894 15.2914C32.148 15.3441 32.1121 15.6659 32.3255 15.6048Z" fill="black"/>
<path d="M22.1826 48.563C22.0722 48.9996 22.0037 49.7318 21.978 50.7597C21.978 50.9617 21.887 51.0627 21.7048 51.0627C21.5224 51.0627 21.3955 50.9745 21.3236 50.7989C21.1284 50.3237 20.9434 49.9922 20.767 49.803C20.5589 49.582 20.2822 49.4484 19.9372 49.4029C19.5663 49.3441 18.6422 49.3149 17.1649 49.3149C16.8266 49.3149 16.6049 49.3509 16.5011 49.4227C16.4361 49.468 16.4036 49.5657 16.4036 49.7155V54.1381C16.4036 54.2879 16.4978 54.3591 16.6862 54.353C17.2659 54.3462 18.1052 54.3068 19.2049 54.2357C19.4198 54.2093 19.5649 54.1395 19.6395 54.0255C19.7149 53.9116 19.7881 53.6174 19.8593 53.142C19.9046 52.8817 20.0578 52.7807 20.3182 52.8397C20.5393 52.8851 20.6342 52.9862 20.6016 53.142C20.4192 54.0275 20.3602 55.1795 20.4253 56.5984C20.4322 56.7673 20.3249 56.8587 20.1033 56.8718C19.9209 56.8914 19.807 56.7936 19.7616 56.5788C19.5929 55.7653 19.2782 55.3307 18.8198 55.275C18.3609 55.2201 17.6137 55.1923 16.5791 55.1923C16.4619 55.1923 16.4036 55.2343 16.4036 55.319V59.7125C16.4036 60.0379 16.5235 60.2596 16.7643 60.3762C16.9535 60.4739 17.3601 60.5619 17.9846 60.64C18.304 60.6725 18.4435 60.8129 18.405 61.0597C18.3656 61.2746 18.0795 61.3593 17.5453 61.3138C16.0028 61.1899 14.7303 61.1966 13.7283 61.3336C13.4481 61.3721 13.3086 61.2583 13.3086 60.9918C13.3086 60.8223 13.4481 60.7247 13.7283 60.6989C14.3661 60.627 14.6848 60.0671 14.6848 59.0196V50.662C14.6848 50.2329 14.6082 49.9026 14.4557 49.6714C14.3024 49.4402 14.0176 49.23 13.6014 49.0416C13.3411 48.9244 13.2435 48.7651 13.3086 48.563C13.3411 48.4396 13.3933 48.3711 13.4645 48.3582C13.5295 48.3386 13.7024 48.3515 13.9817 48.3975C14.392 48.4625 15.3587 48.4952 16.8814 48.4952C18.6782 48.4952 20.23 48.4558 21.5387 48.3778C21.9745 48.3515 22.1928 48.3874 22.1928 48.4849C22.1928 48.5115 22.1896 48.5372 22.1826 48.563Z" fill="black"/>
<path d="M28.5164 60.9577C28.5164 61.218 28.3699 61.3319 28.0771 61.2993C27.1794 61.2146 26.0662 61.2274 24.7386 61.338C24.4715 61.3643 24.3074 61.3576 24.2451 61.319C24.1833 61.2796 24.1528 61.1726 24.1528 60.9962C24.1528 60.8404 24.3298 60.7088 24.6844 60.601C25.0397 60.4939 25.2166 60.1732 25.2166 59.6396V50.8042C25.2166 50.2767 25.14 49.8895 24.9875 49.642C24.8342 49.3946 24.5657 49.2027 24.182 49.0664C23.9799 48.9946 23.8789 48.8936 23.8789 48.7634C23.8789 48.5681 24.0254 48.4216 24.3182 48.3241C24.761 48.1809 25.22 47.9599 25.6953 47.6602C26.0858 47.4257 26.3333 47.3091 26.4369 47.3091C26.6776 47.3091 26.7984 47.4745 26.7984 47.8067C26.7984 47.781 26.7854 48.1064 26.759 48.783C26.7401 49.4271 26.7333 50.0616 26.7401 50.6868L26.7786 59.405C26.7786 59.8023 26.8764 60.0906 27.0716 60.2695C27.2669 60.4484 27.6024 60.5672 28.0771 60.6255C28.3699 60.6579 28.5164 60.7685 28.5164 60.9577Z" fill="black"/>
<path d="M37.3437 60.3829C37.3437 60.5199 37.0948 60.726 36.5972 61.0025C36.0989 61.2792 35.7002 61.4175 35.4012 61.4175C35.1469 61.4175 34.9227 61.2941 34.7274 61.0466C34.5321 60.7993 34.395 60.6759 34.3171 60.6759C34.2588 60.6759 33.9497 60.8094 33.3896 61.0758C32.8303 61.3429 32.267 61.4765 31.7008 61.4765C31.1672 61.4765 30.721 61.32 30.3631 61.0081C29.9726 60.6629 29.7773 60.1944 29.7773 59.6019C29.7773 58.4758 31.0662 57.6689 33.6438 57.1808C34.0859 57.0961 34.311 56.917 34.3171 56.6438L34.3369 56.0188C34.3761 54.9516 33.9042 54.418 32.9211 54.418C32.6412 54.418 32.3761 54.6681 32.1252 55.1692C31.875 55.671 31.5151 55.9407 31.0464 55.9801C30.5129 56.0316 30.2458 55.8072 30.2458 55.3061C30.2458 54.9936 30.6431 54.6296 31.437 54.2125C32.2703 53.7767 33.0711 53.5583 33.8391 53.5583C35.1599 53.5583 35.8141 54.1868 35.8013 55.4431L35.7619 59.4649C35.7558 59.8881 35.9349 60.0995 36.2989 60.0995C36.3707 60.0995 36.5077 60.0833 36.709 60.0507C36.9112 60.0183 37.0284 60.0019 37.061 60.0019C37.2495 60.0019 37.3437 60.1293 37.3437 60.3829ZM34.3369 58.1571C34.3437 57.9943 34.3056 57.8865 34.2242 57.835C34.1428 57.7829 34.0148 57.7727 33.8391 57.8053C32.2703 58.0853 31.4859 58.5964 31.4859 59.3382C31.4859 60.0866 31.8926 60.4608 32.7062 60.4608C33.0317 60.4608 33.3674 60.3992 33.7117 60.2758C34.1158 60.1321 34.3171 59.9599 34.3171 59.7579L34.3369 58.1571Z" fill="black"/>
<path d="M44.6042 59.2596C44.6042 59.9497 44.3383 60.4983 43.8082 60.905C43.278 61.3118 42.5539 61.5152 41.6359 61.5152C41.0244 61.5152 40.4121 61.4502 39.8006 61.32C39.2731 61.2027 38.9673 61.0956 38.8826 60.9979C38.8304 60.9064 38.8047 60.461 38.8047 59.6602C38.8047 59.3151 38.8826 59.1362 39.0392 59.1234C39.1952 59.1036 39.3287 59.1884 39.4392 59.3769C39.9273 60.2298 40.7151 60.6563 41.802 60.6563C42.7193 60.6563 43.1783 60.3369 43.1783 59.6989C43.1783 59.4196 43.0745 59.185 42.8658 58.9965C42.6379 58.7816 42.196 58.5308 41.5383 58.2446C40.5877 57.8216 39.9532 57.4507 39.6345 57.1314C39.2893 56.7931 39.1171 56.3375 39.1171 55.7645C39.1171 55.0614 39.387 54.515 39.9273 54.1245C40.4284 53.7468 41.0989 53.5583 41.9382 53.5583C42.4657 53.5583 42.9472 53.6004 43.3837 53.6852C43.8523 53.7699 44.0963 53.8737 44.1159 53.9976C44.1675 54.3618 44.2753 54.8892 44.4381 55.5795C44.4577 55.6635 44.366 55.7321 44.1647 55.7841C43.9498 55.8296 43.8068 55.7937 43.735 55.6771C43.221 54.837 42.5702 54.4173 41.7824 54.4173C40.8908 54.4173 40.4447 54.7035 40.4447 55.2765C40.4447 55.5957 40.5653 55.8492 40.8061 56.0377C41.0209 56.2005 41.5253 56.4548 42.3194 56.7998C43.1525 57.1577 43.7186 57.4799 44.0184 57.7659C44.4089 58.1368 44.6042 58.6351 44.6042 59.2596Z" fill="black"/>
<path d="M56.0876 60.9672C56.0876 61.1949 55.9344 61.3157 55.6286 61.3286C55.173 61.3354 54.5769 61.3678 53.8421 61.4261C53.4774 61.498 53.2171 61.4527 53.061 61.2899C52.0325 60.1834 51.16 59.0247 50.444 57.8139C50.3857 57.7101 50.3111 57.6579 50.2196 57.6579C50.109 57.6579 49.9172 57.7556 49.6441 57.9509C49.3375 58.1197 49.185 58.361 49.185 58.6729C49.185 58.8945 49.1911 59.2132 49.2046 59.6303C49.2176 60.0465 49.3212 60.3197 49.5165 60.4498C49.6534 60.5415 49.9695 60.6126 50.4636 60.6649C50.7695 60.7041 50.9227 60.818 50.9227 61.0065C50.9227 61.1564 50.8982 61.2493 50.8495 61.2845C50.8007 61.3204 50.6717 61.3286 50.4636 61.309C49.8128 61.2507 48.7131 61.2831 47.164 61.4065C46.7735 61.4392 46.5619 61.3902 46.5293 61.26C46.5164 61.2147 46.5097 61.1496 46.5097 61.0648C46.5097 60.8634 46.7084 60.7102 47.1057 60.6066C47.4636 60.5149 47.6425 60.0952 47.6425 59.3468V50.8137C47.6425 50.2802 47.5904 49.9093 47.486 49.7011C47.3429 49.434 47.0432 49.2258 46.5876 49.076C46.3734 49.0048 46.2656 48.9038 46.2656 48.7736C46.2656 48.5844 46.4189 48.4379 46.7245 48.3343C47.2128 48.1715 47.6777 47.9471 48.1205 47.6604C48.4786 47.4264 48.7002 47.3091 48.7842 47.3091C49.0515 47.3091 49.185 47.478 49.185 47.8169C49.185 47.7709 49.1817 48.0936 49.1747 48.7832C49.1687 49.2584 49.1654 49.8964 49.1654 50.6971L49.185 56.8084C49.185 56.9778 49.2305 57.062 49.3212 57.062C49.4189 57.062 49.5687 56.9778 49.7708 56.8084C50.3111 56.3853 50.975 55.8321 51.7621 55.1486C51.9186 54.986 51.9966 54.8558 51.9966 54.7581C51.9966 54.5827 51.7329 54.4586 51.2061 54.3874C50.9782 54.3608 50.8705 54.2341 50.8833 54.0062C50.9029 53.7785 51.017 53.6808 51.2251 53.7134C51.6942 53.7785 52.3777 53.8145 53.2752 53.8212C53.9004 53.8273 54.5221 53.8308 55.1405 53.8308C55.3418 53.8375 55.4429 53.9575 55.4429 54.1921C55.4429 54.4131 55.2835 54.5337 54.9649 54.5535C54.4631 54.5724 53.9912 54.6863 53.5493 54.8951C52.9309 55.1745 52.2697 55.666 51.5668 56.3692C51.5153 56.4084 51.4887 56.4572 51.4887 56.5155C51.4887 56.6064 51.5993 56.8248 51.8211 57.1698C52.6346 58.4065 53.4028 59.3401 54.1248 59.9718C54.5872 60.3686 55.0197 60.5672 55.4231 60.5672C55.7228 60.5672 55.9085 60.5882 55.9797 60.6309C56.0517 60.673 56.0876 60.7855 56.0876 60.9672Z" fill="black"/>
</svg>
