<svg width="68" height="68" viewBox="0 0 68 68" fill="none" xmlns="http://www.w3.org/2000/svg">
<g clip-path="url(#clip0_1307_3188)">
<path d="M34.0002 61.5513C49.2163 61.5513 61.5513 49.2163 61.5513 34.0002C61.5513 18.7842 49.2163 6.44922 34.0002 6.44922C18.7842 6.44922 6.44922 18.7842 6.44922 34.0002C6.44922 49.2163 18.7842 61.5513 34.0002 61.5513Z" fill="#5C2D91"/>
<path opacity="0.1" d="M14.9042 14.1992C12.1035 16.695 9.8419 19.7365 8.25816 23.1372C6.67442 26.538 5.80188 30.2263 5.69401 33.9762C5.58614 37.7261 6.24522 41.4585 7.63085 44.9446C9.01648 48.4308 11.0995 51.5973 13.7521 54.2499C16.4048 56.9026 19.5712 58.9856 23.0574 60.3712C26.5436 61.7568 30.276 62.4159 34.0258 62.308C37.7757 62.2002 41.4641 61.3276 44.8648 59.7439C48.2656 58.1601 51.307 55.8986 53.8028 53.0978L14.9042 14.1992Z" fill="white"/>
<path d="M12.8205 38.5203C12.6598 38.5228 12.5003 38.492 12.3521 38.4297C12.2039 38.3675 12.0703 38.2752 11.9595 38.1586C11.8458 38.0463 11.7559 37.9121 11.6953 37.7642C11.6346 37.6162 11.6044 37.4576 11.6065 37.2977C11.6054 37.1379 11.636 36.9796 11.6966 36.8318C11.7572 36.684 11.8466 36.5497 11.9595 36.4367C12.0692 36.3182 12.2024 36.224 12.3507 36.1602C12.4991 36.0965 12.6591 36.0645 12.8205 36.0665C12.9817 36.0661 13.1413 36.0987 13.2893 36.1624C13.4374 36.2261 13.5709 36.3194 13.6815 36.4367C13.7964 36.5487 13.8876 36.6826 13.9497 36.8305C14.0119 36.9784 14.0436 37.1373 14.0431 37.2977C14.0446 37.4582 14.0133 37.6174 13.9511 37.7655C13.8889 37.9135 13.7972 38.0473 13.6815 38.1586C13.5698 38.2739 13.436 38.3654 13.288 38.4276C13.14 38.4897 12.981 38.5213 12.8205 38.5203Z" fill="white"/>
<path d="M29.9281 38.3048H27.6724L19.6051 25.7864C19.4041 25.4779 19.2367 25.1489 19.1057 24.8048H19.0368C19.1135 25.5196 19.1423 26.2387 19.1229 26.9573V38.3048H17.2891V22.6094H19.6739L27.526 34.904C27.8532 35.4149 28.0655 35.765 28.1631 35.9544H28.2062C28.1153 35.1888 28.0779 34.4178 28.0942 33.647V22.6094H29.9281V38.3048Z" fill="white"/>
<path d="M42.3428 38.3048H34V22.6094H41.9554V24.271H35.8769V29.4885H41.5421V31.1416H35.8769V36.5829H42.3514L42.3428 38.3048Z" fill="white"/>
<path d="M54.6634 24.271H50.1002V38.3048H48.2664V24.271H43.7549V22.6094H54.6634V24.271Z" fill="white"/>
<path d="M28.9373 48.9811C28.3158 49.2821 27.6301 49.427 26.9399 49.403C26.4812 49.4236 26.0235 49.346 25.5973 49.1752C25.1711 49.0045 24.7864 48.7445 24.4689 48.4129C23.8363 47.7047 23.503 46.7788 23.5391 45.83C23.5159 45.3162 23.5962 44.803 23.7751 44.3209C23.9541 43.8387 24.2281 43.3974 24.5808 43.0232C24.9246 42.671 25.3379 42.3942 25.7944 42.2104C26.2509 42.0267 26.7407 41.9399 27.2326 41.9556C27.8213 41.9355 28.4077 42.0381 28.9545 42.2569V43.1179C28.428 42.8264 27.8343 42.678 27.2326 42.6874C26.8533 42.6767 26.4761 42.7481 26.1269 42.8967C25.7776 43.0453 25.4647 43.2676 25.2093 43.5484C24.6724 44.1601 24.3945 44.9567 24.4345 45.7697C24.3943 46.5398 24.6534 47.2956 25.1577 47.8791C25.3996 48.1392 25.6948 48.3439 26.0233 48.4791C26.3517 48.6143 26.7055 48.6769 27.0604 48.6626C27.7215 48.6799 28.3743 48.5129 28.9459 48.1804L28.9373 48.9811Z" fill="#F2F2F2"/>
<path d="M32.4592 49.4024C32.1165 49.4135 31.7753 49.3509 31.459 49.2187C31.1426 49.0864 30.8583 48.8878 30.6253 48.6362C30.1545 48.1108 29.9101 47.4208 29.9451 46.7162C29.9236 46.3471 29.9758 45.9773 30.0984 45.6285C30.2211 45.2797 30.4119 44.9587 30.6598 44.6843C30.9127 44.4375 31.2136 44.2452 31.5438 44.1193C31.8741 43.9934 32.2266 43.9366 32.5797 43.9525C32.9134 43.9347 33.2471 43.9894 33.5577 44.1127C33.8683 44.2361 34.1485 44.4252 34.3791 44.6671C34.8367 45.2186 35.0676 45.9234 35.0249 46.6387C35.061 47.3647 34.8106 48.0758 34.3275 48.619C34.0901 48.8755 33.8006 49.0781 33.4783 49.2133C33.156 49.3484 32.8085 49.4129 32.4592 49.4024ZM32.5194 44.6929C32.2826 44.683 32.0466 44.7266 31.8289 44.8205C31.6113 44.9144 31.4177 45.0562 31.2624 45.2353C30.9311 45.6619 30.7659 46.1942 30.7975 46.7334C30.7674 47.2566 30.9332 47.7722 31.2624 48.1799C31.4193 48.3565 31.6134 48.496 31.8308 48.5883C32.0482 48.6806 32.2835 48.7235 32.5194 48.7137C32.7505 48.7273 32.9816 48.6878 33.195 48.5983C33.4084 48.5087 33.5985 48.3715 33.7506 48.1971C34.0636 47.7694 34.2161 47.2451 34.1811 46.7162C34.2152 46.1848 34.0629 45.6581 33.7506 45.2267C33.6006 45.0487 33.4114 44.9078 33.1977 44.8152C32.9841 44.7226 32.752 44.6807 32.5194 44.6929Z" fill="#F2F2F2"/>
<path d="M39.0452 44.9499C38.8593 44.8281 38.6385 44.7707 38.4167 44.7864C38.2433 44.7927 38.0741 44.8415 37.9239 44.9286C37.7738 45.0157 37.6474 45.1383 37.5558 45.2857C37.2995 45.6914 37.1761 46.1669 37.2028 46.6461V49.2806H36.3418V44.1148H37.2028V45.191C37.2974 44.858 37.4857 44.5592 37.7452 44.33C37.9697 44.1352 38.2572 44.0281 38.5545 44.0287C38.7209 44.0212 38.8873 44.0446 39.0452 44.0976V44.9499Z" fill="#F2F2F2"/>
<path d="M44.0907 46.9147H40.4488C40.4244 47.396 40.581 47.869 40.8879 48.2406C41.0475 48.3998 41.2389 48.5235 41.4496 48.6036C41.6603 48.6837 41.8855 48.7184 42.1105 48.7055C42.6941 48.6997 43.2586 48.4964 43.7119 48.1287V48.9036C43.1796 49.2544 42.5492 49.4263 41.9125 49.3943C41.5912 49.4105 41.2703 49.3557 40.9727 49.2336C40.675 49.1116 40.408 48.9254 40.1905 48.6883C39.7423 48.1292 39.5183 47.4233 39.562 46.7081C39.5311 45.9911 39.7743 45.2892 40.2422 44.7451C40.4551 44.4991 40.7201 44.3035 41.0179 44.1725C41.3157 44.0414 41.6389 43.9782 41.9641 43.9874C42.2578 43.971 42.5514 44.0213 42.8228 44.1346C43.0942 44.248 43.3363 44.4214 43.5311 44.6418C43.9275 45.1645 44.1231 45.8122 44.0821 46.467L44.0907 46.9147ZM43.2298 46.2173C43.2472 45.8184 43.1255 45.4258 42.8854 45.1067C42.7676 44.9736 42.6212 44.8688 42.4572 44.8002C42.2932 44.7316 42.1158 44.701 41.9383 44.7106C41.753 44.7084 41.5693 44.7447 41.3988 44.8173C41.2284 44.89 41.0749 44.9973 40.9482 45.1325C40.6648 45.4323 40.4865 45.816 40.4402 46.2259L43.2298 46.2173Z" fill="#F2F2F2"/>
</g>
<defs>
<clipPath id="clip0_1307_3188">
<rect width="55.102" height="55.102" fill="white" transform="translate(6.44922 6.44922)"/>
</clipPath>
</defs>
</svg>
