<svg width="68" height="68" viewBox="0 0 68 68" fill="none" xmlns="http://www.w3.org/2000/svg">
<g clip-path="url(#clip0_1307_5430)">
<path d="M61.5513 6.44922H6.44922V61.5513H61.5513V6.44922Z" fill="#512BD4"/>
<path d="M16.2698 41.6541C15.8802 41.6541 15.549 41.5243 15.2763 41.2646C15.0036 40.9983 14.8672 40.682 14.8672 40.3159C14.8672 39.943 15.0036 39.6235 15.2763 39.3572C15.549 39.0908 15.8802 38.9577 16.2698 38.9577C16.6659 38.9577 17.0003 39.0908 17.273 39.3572C17.5523 39.6235 17.6919 39.943 17.6919 40.3159C17.6919 40.682 17.5523 40.9983 17.273 41.2646C17.0003 41.5243 16.6659 41.6541 16.2698 41.6541ZM31.845 41.4344H29.3124L22.6404 30.9083C22.4716 30.642 22.3319 30.3656 22.2216 30.0794H22.1631L22.1731 30.1453L22.1825 30.2205L22.1911 30.3051L22.1991 30.399L22.2098 30.5573L22.2188 30.7365L22.2264 30.9368L22.2324 31.158L22.2368 31.4001L22.2388 31.5732L22.241 32.0467V41.4344H20.0007V27.1133H22.6987L29.1469 37.3897L29.3062 37.6411L29.4087 37.8065L29.4966 37.9519L29.5699 38.0774L29.6107 38.1499L29.6451 38.2137L29.6729 38.2685H29.7118L29.7045 38.2236L29.6906 38.1267L29.678 38.0205L29.6664 37.9049C29.6646 37.8848 29.6628 37.8644 29.6611 37.8436L29.6513 37.714L29.6427 37.5751L29.6352 37.4268L29.6261 37.1869L29.6196 36.926L29.6157 36.644L29.6144 36.3411V27.1133H31.845V41.4344ZM42.7544 41.4344H34.9135V27.1133H42.4428V29.1307H37.2318V33.1853H42.0338V35.1926H37.2318V39.427H42.7544V41.4344ZM53.8979 29.1307H49.8848V41.4344H47.5666V29.1307H43.5633V27.1133H53.8979V29.1307Z" fill="white"/>
</g>
<defs>
<clipPath id="clip0_1307_5430">
<rect width="55.102" height="55.102" fill="white" transform="translate(6.44922 6.44922)"/>
</clipPath>
</defs>
</svg>
