<svg width="68" height="68" viewBox="0 0 68 68" fill="none" xmlns="http://www.w3.org/2000/svg">
<g clip-path="url(#clip0_1307_1925)">
<g clip-path="url(#clip1_1307_1925)">
<path d="M34.0756 55.3546C33.8455 55.3546 33.6307 55.2932 33.4313 55.1858L31.3909 53.9739C31.0841 53.8052 31.2375 53.7438 31.3296 53.7131C31.7438 53.5751 31.8205 53.5444 32.25 53.2989C32.296 53.2682 32.3574 53.2836 32.4034 53.3143L33.9682 54.25C34.0295 54.2807 34.1062 54.2807 34.1523 54.25L40.2732 50.7064C40.3346 50.6757 40.3652 50.6143 40.3652 50.5376V43.4656C40.3652 43.3888 40.3346 43.3275 40.2732 43.2968L34.1523 39.7684C34.0909 39.7378 34.0142 39.7378 33.9682 39.7684L27.8472 43.2968C27.7859 43.3275 27.7552 43.4042 27.7552 43.4656V50.5376C27.7552 50.599 27.7859 50.6757 27.8472 50.7064L29.5194 51.6728C30.4245 52.133 30.9921 51.5961 30.9921 51.0592V44.0792C30.9921 43.9871 31.0688 43.8951 31.1762 43.8951H31.9585C32.0506 43.8951 32.1426 43.9718 32.1426 44.0792V51.0592C32.1426 52.2711 31.483 52.9768 30.3324 52.9768C29.9796 52.9768 29.7035 52.9768 28.9211 52.5933L27.3103 51.6728C26.9115 51.4427 26.666 51.0132 26.666 50.5529V43.4809C26.666 43.0207 26.9115 42.5911 27.3103 42.361L33.4313 38.8173C33.8148 38.6026 34.3364 38.6026 34.7199 38.8173L40.8408 42.361C41.2397 42.5911 41.4851 43.0207 41.4851 43.4809V50.5529C41.4851 51.0132 41.2397 51.4427 40.8408 51.6728L34.7199 55.2165C34.5204 55.3086 34.2903 55.3546 34.0756 55.3546ZM35.9625 50.4916C33.2778 50.4916 32.7256 49.2643 32.7256 48.2212C32.7256 48.1291 32.8023 48.0371 32.9097 48.0371H33.7074C33.7994 48.0371 33.8761 48.0984 33.8761 48.1905C33.9989 49.0035 34.3517 49.4024 35.9778 49.4024C37.2664 49.4024 37.8187 49.1109 37.8187 48.4206C37.8187 48.0217 37.6653 47.7303 35.6556 47.5308C33.9835 47.3621 32.9404 46.9939 32.9404 45.6593C32.9404 44.4167 33.9835 43.6803 35.7324 43.6803C37.696 43.6803 38.6624 44.3553 38.7851 45.828C38.7851 45.874 38.7698 45.9201 38.7391 45.9661C38.7084 45.9968 38.6624 46.0274 38.6164 46.0274H37.8187C37.742 46.0274 37.6653 45.9661 37.6499 45.8894C37.4658 45.0456 36.9903 44.7695 35.7324 44.7695C34.321 44.7695 34.1523 45.2604 34.1523 45.6286C34.1523 46.0735 34.3517 46.2115 36.2539 46.457C38.1408 46.7024 39.0306 47.0553 39.0306 48.3746C39.0153 49.7245 37.9107 50.4916 35.9625 50.4916Z" fill="#539E43"/>
<path d="M15.0834 27.6974C15.0834 27.4212 14.93 27.1604 14.6845 27.0224L8.1801 23.2793C8.07272 23.2179 7.94999 23.1872 7.82727 23.1719H7.7659C7.64318 23.1719 7.52045 23.2179 7.41307 23.2793L0.908623 27.0224C0.663172 27.1604 0.509766 27.4212 0.509766 27.6974L0.525106 37.7609C0.525106 37.8989 0.60181 38.037 0.724535 38.0984C0.84726 38.1751 1.00067 38.1751 1.10805 38.0984L4.9739 35.8893C5.21935 35.7512 5.37276 35.4904 5.37276 35.2143V30.5047C5.37276 30.2286 5.52617 29.9678 5.77162 29.8297L7.41307 28.8786C7.53579 28.8019 7.67386 28.7712 7.81193 28.7712C7.94999 28.7712 8.08806 28.8019 8.19544 28.8786L9.8369 29.8297C10.0823 29.9678 10.2358 30.2286 10.2358 30.5047V35.2143C10.2358 35.4904 10.3892 35.7512 10.6346 35.8893L14.5005 38.0984C14.6232 38.1751 14.7766 38.1751 14.8993 38.0984C15.022 38.037 15.0987 37.8989 15.0987 37.7609L15.0834 27.6974Z" fill="#333333"/>
<path d="M46.348 13.8429C46.2253 13.7815 46.0719 13.7815 45.9645 13.8429C45.8417 13.9196 45.765 14.0423 45.765 14.1804V24.1518C45.765 24.2439 45.719 24.3359 45.627 24.3973C45.5349 24.4433 45.4429 24.4433 45.3508 24.3973L43.7247 23.4615C43.4793 23.3234 43.1878 23.3234 42.9424 23.4615L36.4379 27.22C36.1925 27.358 36.0391 27.6188 36.0391 27.895V35.3965C36.0391 35.6727 36.1925 35.9335 36.4379 36.0715L42.9424 39.83C43.1878 39.9681 43.4793 39.9681 43.7247 39.83L50.2292 36.0715C50.4746 35.9335 50.628 35.6727 50.628 35.3965V16.6963C50.628 16.4048 50.4746 16.144 50.2292 16.0059L46.348 13.8429ZM45.7497 32.9267C45.7497 33.0034 45.719 33.0648 45.6577 33.0954L43.4333 34.3841C43.3719 34.4147 43.2952 34.4147 43.2338 34.3841L41.0094 33.0954C40.9481 33.0648 40.9174 32.9881 40.9174 32.9267V30.3495C40.9174 30.2728 40.9481 30.2114 41.0094 30.1807L43.2338 28.8921C43.2952 28.8614 43.3719 28.8614 43.4333 28.8921L45.6577 30.1807C45.719 30.2114 45.7497 30.2881 45.7497 30.3495V32.9267Z" fill="#333333"/>
<path d="M67.9937 30.2878C68.2392 30.1498 68.3772 29.889 68.3772 29.6128V27.7873C68.3772 27.5112 68.2238 27.2504 67.9937 27.1123L61.5353 23.3692C61.2898 23.2311 60.9984 23.2311 60.7529 23.3692L54.2485 27.1276C54.003 27.2657 53.8496 27.5265 53.8496 27.8026V35.3042C53.8496 35.5803 54.003 35.8411 54.2485 35.9792L60.7069 39.661C60.9523 39.799 61.2438 39.799 61.4739 39.661L65.3858 37.4826C65.5085 37.4212 65.5852 37.2832 65.5852 37.1451C65.5852 37.007 65.5085 36.869 65.3858 36.8076L58.8507 33.0491C58.7279 32.9724 58.6512 32.8497 58.6512 32.7116V30.3645C58.6512 30.2265 58.7279 30.0884 58.8507 30.027L60.891 28.8611C61.0137 28.7844 61.1671 28.7844 61.2898 28.8611L63.3301 30.027C63.4529 30.1037 63.5296 30.2265 63.5296 30.3645V32.2054C63.5296 32.3435 63.6063 32.4815 63.729 32.5429C63.8517 32.6196 64.0051 32.6196 64.1279 32.5429L67.9937 30.2878Z" fill="#333333"/>
<path d="M61.0439 29.9332C61.0899 29.9025 61.1513 29.9025 61.1973 29.9332L62.4399 30.6542C62.4859 30.6849 62.5166 30.7309 62.5166 30.7922V32.2343C62.5166 32.2956 62.4859 32.3417 62.4399 32.3723L61.1973 33.0933C61.1513 33.124 61.0899 33.124 61.0439 33.0933L59.8013 32.3723C59.7553 32.3417 59.7246 32.2956 59.7246 32.2343V30.7922C59.7246 30.7309 59.7553 30.6849 59.8013 30.6542L61.0439 29.9332Z" fill="#539E43"/>
<path d="M25.9603 23.4004C25.7148 23.2624 25.4233 23.2624 25.1779 23.4004L18.7195 27.1282C18.474 27.2663 18.3359 27.5271 18.3359 27.8032V35.2741C18.3359 35.5502 18.4893 35.811 18.7195 35.9491L25.1779 39.6769C25.4233 39.8149 25.7148 39.8149 25.9603 39.6769L32.4187 35.9491C32.6641 35.811 32.8022 35.5502 32.8022 35.2741V27.8032C32.8022 27.5271 32.6488 27.2663 32.4187 27.1282L25.9603 23.4004Z" fill="url(#paint0_linear_1307_1925)"/>
<mask id="mask0_1307_1925" style="mask-type:luminance" maskUnits="userSpaceOnUse" x="18" y="23" width="15" height="17">
<path d="M25.9603 23.4004C25.7148 23.2624 25.4233 23.2624 25.1779 23.4004L18.7195 27.1282C18.474 27.2663 18.3359 27.5271 18.3359 27.8032V35.2741C18.3359 35.5502 18.4893 35.811 18.7195 35.9491L25.1779 39.6769C25.4233 39.8149 25.7148 39.8149 25.9603 39.6769L32.4187 35.9491C32.6641 35.811 32.8022 35.5502 32.8022 35.2741V27.8032C32.8022 27.5271 32.6488 27.2663 32.4187 27.1282L25.9603 23.4004Z" fill="white"/>
</mask>
<g mask="url(#mask0_1307_1925)">
<path d="M32.4336 27.1287L25.9445 23.4009C25.8832 23.3702 25.8065 23.3396 25.7451 23.3242L18.4736 35.7808C18.535 35.8575 18.6117 35.9189 18.6884 35.9649L25.1775 39.6927C25.3616 39.8001 25.5764 39.8308 25.7758 39.7694L32.6024 27.2821C32.5564 27.2207 32.495 27.1747 32.4336 27.1287Z" fill="url(#paint1_linear_1307_1925)"/>
</g>
<mask id="mask1_1307_1925" style="mask-type:luminance" maskUnits="userSpaceOnUse" x="18" y="23" width="15" height="17">
<path d="M25.9603 23.4004C25.7148 23.2624 25.4233 23.2624 25.1779 23.4004L18.7195 27.1282C18.474 27.2663 18.3359 27.5271 18.3359 27.8032V35.2741C18.3359 35.5502 18.4893 35.811 18.7195 35.9491L25.1779 39.6769C25.4233 39.8149 25.7148 39.8149 25.9603 39.6769L32.4187 35.9491C32.6641 35.811 32.8022 35.5502 32.8022 35.2741V27.8032C32.8022 27.5271 32.6488 27.2663 32.4187 27.1282L25.9603 23.4004Z" fill="white"/>
</mask>
<g mask="url(#mask1_1307_1925)">
<path fill-rule="evenodd" clip-rule="evenodd" d="M32.4496 35.9476C32.6337 35.8403 32.7718 35.6562 32.8331 35.4567L25.7151 23.3069C25.531 23.2762 25.3316 23.2916 25.1628 23.399L18.7197 27.1114L25.6691 39.7828C25.7611 39.7675 25.8685 39.7368 25.9605 39.6908L32.4496 35.9476Z" fill="url(#paint2_linear_1307_1925)"/>
<path fill-rule="evenodd" clip-rule="evenodd" d="M32.4488 35.9476L25.9751 39.6754C25.883 39.7215 25.791 39.7521 25.6836 39.7675L25.8063 39.9976L32.9858 35.8403V35.7482L32.8017 35.4414C32.771 35.6562 32.6329 35.8403 32.4488 35.9476Z" fill="url(#paint3_linear_1307_1925)"/>
<path fill-rule="evenodd" clip-rule="evenodd" d="M32.4488 35.9476L25.9751 39.6754C25.883 39.7215 25.791 39.7521 25.6836 39.7675L25.8063 39.9976L32.9858 35.8403V35.7482L32.8017 35.4414C32.771 35.6562 32.6329 35.8403 32.4488 35.9476Z" fill="url(#paint4_linear_1307_1925)"/>
</g>
</g>
</g>
<defs>
<linearGradient id="paint0_linear_1307_1925" x1="1004.77" y1="311.542" x2="296.835" y2="1423.87" gradientUnits="userSpaceOnUse">
<stop stop-color="#41873F"/>
<stop offset="0.3288" stop-color="#418B3D"/>
<stop offset="0.6352" stop-color="#419637"/>
<stop offset="0.9319" stop-color="#3FA92D"/>
<stop offset="1" stop-color="#3FAE2A"/>
</linearGradient>
<linearGradient id="paint1_linear_1307_1925" x1="629.918" y1="932.311" x2="2402.82" y2="-30.9027" gradientUnits="userSpaceOnUse">
<stop offset="0.1376" stop-color="#41873F"/>
<stop offset="0.4032" stop-color="#54A044"/>
<stop offset="0.7136" stop-color="#66B848"/>
<stop offset="0.9081" stop-color="#6CC04A"/>
</linearGradient>
<linearGradient id="paint2_linear_1307_1925" x1="-43.2213" y1="847.739" x2="1451.22" y2="847.739" gradientUnits="userSpaceOnUse">
<stop offset="0.0919165" stop-color="#6CC04A"/>
<stop offset="0.2864" stop-color="#66B848"/>
<stop offset="0.5968" stop-color="#54A044"/>
<stop offset="0.8624" stop-color="#41873F"/>
</linearGradient>
<linearGradient id="paint3_linear_1307_1925" x1="-732.724" y1="264.505" x2="761.719" y2="264.505" gradientUnits="userSpaceOnUse">
<stop offset="0.0919165" stop-color="#6CC04A"/>
<stop offset="0.2864" stop-color="#66B848"/>
<stop offset="0.5968" stop-color="#54A044"/>
<stop offset="0.8624" stop-color="#41873F"/>
</linearGradient>
<linearGradient id="paint4_linear_1307_1925" x1="979.441" y1="-926.229" x2="600.841" y2="1057.63" gradientUnits="userSpaceOnUse">
<stop stop-color="#41873F"/>
<stop offset="0.3288" stop-color="#418B3D"/>
<stop offset="0.6352" stop-color="#419637"/>
<stop offset="0.9319" stop-color="#3FA92D"/>
<stop offset="1" stop-color="#3FAE2A"/>
</linearGradient>
<clipPath id="clip0_1307_1925">
<rect width="67.9592" height="67.9592" fill="white" transform="translate(0.0205078 0.0195312)"/>
</clipPath>
<clipPath id="clip1_1307_1925">
<rect width="67.9592" height="67.9592" fill="white" transform="translate(0.0205078 0.0195312)"/>
</clipPath>
</defs>
</svg>
