<svg width="33" height="32" viewBox="0 0 33 32" fill="none" xmlns="http://www.w3.org/2000/svg">
<circle cx="20.5005" cy="15.4869" r="9.48688" fill="#DAE6F9"/>
<circle cx="9.5" cy="19" r="7" fill="#DAE6F9"/>
<path d="M12.5 26H9.5C7.64348 26 5.86301 25.2625 4.55025 23.9497C3.2375 22.637 2.5 20.8565 2.5 19C2.5 17.1435 3.2375 15.363 4.55025 14.0503C5.86301 12.7375 7.64348 12 9.5 12C10.0857 11.9998 10.6692 12.0711 11.2375 12.2125" stroke="#1E63EC" stroke-width="1.5" stroke-linecap="round" stroke-linejoin="round"/>
<path d="M10.5 16C10.5 14.4155 10.8765 12.8536 11.5986 11.4432C12.3206 10.0327 13.3675 8.81406 14.6529 7.88758C15.9383 6.96109 17.4255 6.35333 18.9919 6.11437C20.5583 5.87541 22.1591 6.0121 23.6623 6.51317C25.1655 7.01424 26.5281 7.86534 27.6378 8.99635C28.7476 10.1274 29.5727 11.5059 30.0451 13.0183C30.5176 14.5308 30.6239 16.1338 30.3552 17.6954C30.0866 19.257 29.4507 20.7324 28.5 22" fill="#DAE6F9"/>
<path d="M10.5 16C10.5 14.4155 10.8765 12.8536 11.5986 11.4432C12.3206 10.0327 13.3675 8.81406 14.6529 7.88758C15.9383 6.96109 17.4255 6.35333 18.9919 6.11437C20.5583 5.87541 22.1591 6.0121 23.6623 6.51317C25.1655 7.01424 26.5281 7.86534 27.6378 8.99635C28.7476 10.1274 29.5727 11.5059 30.0451 13.0183C30.5176 14.5308 30.6239 16.1338 30.3552 17.6954C30.0866 19.257 29.4507 20.7324 28.5 22" stroke="#1E63EC" stroke-width="1.5" stroke-linecap="round" stroke-linejoin="round"/>
<path d="M15.2617 20.2375L19.4992 16L23.7367 20.2375" stroke="#1E63EC" stroke-width="1.5" stroke-linecap="round" stroke-linejoin="round"/>
<path d="M19.5 26V16" stroke="#1E63EC" stroke-width="1.5" stroke-linecap="round" stroke-linejoin="round"/>
</svg>
