<svg width="32" height="32" viewBox="0 0 32 32" fill="none" xmlns="http://www.w3.org/2000/svg">
<path d="M14.9382 16.5313C15.1247 16.703 15.3013 16.8796 15.4681 17.0611L17.4772 17.3482C17.8046 17.9167 18.0569 18.5252 18.2279 19.1586L17.0062 20.785C17.0062 20.785 17.0283 21.2854 17.0062 21.5356L18.2279 23.1621C18.0577 23.7957 17.8053 24.4043 17.4772 24.9725L15.4681 25.2595C15.4681 25.2595 15.1222 25.6201 14.9382 25.7894L14.6512 27.7985C14.0827 28.1259 13.4741 28.3782 12.8408 28.5492L11.2144 27.3275C10.9646 27.3496 10.7134 27.3496 10.4637 27.3275L8.83727 28.5492C8.20365 28.379 7.59501 28.1266 7.02686 27.7985L6.73985 25.7894C6.55831 25.6177 6.38169 25.441 6.20997 25.2595L4.20085 24.9725C3.87349 24.404 3.62117 23.7954 3.4502 23.1621L4.67186 21.5356C4.67186 21.5356 4.64978 21.0352 4.67186 20.785L3.4502 19.1586C3.62038 18.5249 3.87274 17.9163 4.20085 17.3482L6.20997 17.0611C6.38169 16.8796 6.55831 16.703 6.73985 16.5313L7.02686 14.5221C7.59538 14.1948 8.20392 13.9425 8.83727 13.7715L10.4637 14.9931C10.7134 14.9711 10.9646 14.9711 11.2144 14.9931L12.8408 13.7715C13.4744 13.9417 14.0831 14.194 14.6512 14.5221L14.9382 16.5313Z" fill="#DAE6F9" stroke="#1E63EC" stroke-width="1.5" stroke-linecap="round" stroke-linejoin="round"/>
<path d="M25.8246 5.73777C25.9741 5.87543 26.1157 6.01702 26.2494 6.16255L27.86 6.39264C28.1225 6.84839 28.3247 7.33622 28.4618 7.84396L27.4824 9.14779C27.4824 9.14779 27.5001 9.54896 27.4824 9.74955L28.4618 11.0534C28.3254 11.5613 28.1231 12.0492 27.86 12.5047L26.2494 12.7348C26.2494 12.7348 25.9721 13.0239 25.8246 13.1596L25.5945 14.7702C25.1388 15.0326 24.651 15.2349 24.1432 15.3719L22.8394 14.3926C22.6392 14.4103 22.4378 14.4103 22.2376 14.3926L20.9338 15.3719C20.4259 15.2355 19.9379 15.0332 19.4825 14.7702L19.2524 13.1596C19.1069 13.0219 18.9653 12.8803 18.8276 12.7348L17.217 12.5047C16.9546 12.049 16.7523 11.5611 16.6152 11.0534L17.5946 9.74955C17.5946 9.74955 17.5769 9.34838 17.5946 9.14779L16.6152 7.84396C16.7517 7.33601 16.954 6.84809 17.217 6.39264L18.8276 6.16255C18.9653 6.01702 19.1069 5.87543 19.2524 5.73777L19.4825 4.12716C19.9382 3.86473 20.4261 3.66246 20.9338 3.52539L22.2376 4.50474C22.4378 4.48703 22.6392 4.48703 22.8394 4.50474L24.1432 3.52539C24.6512 3.66182 25.1391 3.86413 25.5945 4.12716L25.8246 5.73777Z" fill="#DAE6F9" stroke="#1E63EC" stroke-width="1.5" stroke-linecap="round" stroke-linejoin="round"/>
<path d="M10.8382 24.6939C12.7891 24.6939 14.3707 23.1124 14.3707 21.1614C14.3707 19.2105 12.7891 17.6289 10.8382 17.6289C8.88722 17.6289 7.30566 19.2105 7.30566 21.1614C7.30566 23.1124 8.88722 24.6939 10.8382 24.6939Z" fill="white" stroke="#1E63EC" stroke-width="1.5" stroke-linecap="round" stroke-linejoin="round"/>
<path d="M22.5352 11.3732C23.5983 11.3732 24.4601 10.5114 24.4601 9.4483C24.4601 8.38523 23.5983 7.52344 22.5352 7.52344C21.4721 7.52344 20.6104 8.38523 20.6104 9.4483C20.6104 10.5114 21.4721 11.3732 22.5352 11.3732Z" fill="white" stroke="#1E63EC" stroke-width="1.5" stroke-linecap="round" stroke-linejoin="round"/>
</svg>
