<svg width="32" height="32" viewBox="0 0 32 32" fill="none" xmlns="http://www.w3.org/2000/svg">
<path d="M24.487 7.51236C22.3596 5.37855 19.5087 4.12118 16.4984 3.98911C13.4882 3.85703 10.538 4.85989 8.23191 6.79917C5.92579 8.73846 4.43176 11.4729 4.04553 14.4611C3.65929 17.4494 4.40899 20.4738 6.14626 22.9357C7.88352 25.3976 10.4817 27.1176 13.4266 27.7552C16.3715 28.3928 19.4485 27.9017 22.0485 26.3789C24.6486 24.8561 26.5822 22.4127 27.4666 19.5323C28.3511 16.6519 28.1219 13.5444 26.8245 10.8249" fill="#DAE6F9"/>
<path d="M24.487 7.51236C22.3596 5.37855 19.5087 4.12118 16.4984 3.98911C13.4882 3.85703 10.538 4.85989 8.23191 6.79917C5.92579 8.73846 4.43176 11.4729 4.04553 14.4611C3.65929 17.4494 4.40899 20.4738 6.14626 22.9357C7.88352 25.3976 10.4817 27.1176 13.4266 27.7552C16.3715 28.3928 19.4485 27.9017 22.0485 26.3789C24.6486 24.8561 26.5822 22.4127 27.4666 19.5323C28.3511 16.6519 28.1219 13.5444 26.8245 10.8249" stroke="#1E63EC" stroke-width="1.5" stroke-linecap="round" stroke-linejoin="round"/>
<path d="M20.2378 11.7624C19.2469 10.7742 17.941 10.1644 16.5472 10.0388C15.1534 9.91324 13.7596 10.2799 12.608 11.075C11.4563 11.8702 10.6196 13.0436 10.2432 14.3915C9.86671 15.7394 9.97428 17.1766 10.5472 18.4534C11.1201 19.7302 12.1222 20.766 13.3794 21.3809C14.6366 21.9957 16.0694 22.1507 17.429 21.8191C18.7886 21.4874 19.9891 20.6899 20.8219 19.5652C21.6547 18.4405 22.0672 17.0596 21.9878 15.6624" fill="#DAE6F9"/>
<path d="M20.2378 11.7624C19.2469 10.7742 17.941 10.1644 16.5472 10.0388C15.1534 9.91324 13.7596 10.2799 12.608 11.075C11.4563 11.8702 10.6196 13.0436 10.2432 14.3915C9.86671 15.7394 9.97428 17.1766 10.5472 18.4534C11.1201 19.7302 12.1222 20.766 13.3794 21.3809C14.6366 21.9957 16.0694 22.1507 17.429 21.8191C18.7886 21.4874 19.9891 20.6899 20.8219 19.5652C21.6547 18.4405 22.0672 17.0596 21.9878 15.6624" stroke="#1E63EC" stroke-width="1.5" stroke-linecap="round" stroke-linejoin="round"/>
<path d="M16 16L28 4" stroke="#1E63EC" stroke-width="1.5" stroke-linecap="round" stroke-linejoin="round"/>
</svg>
