<svg width="32" height="32" viewBox="0 0 32 32" fill="none" xmlns="http://www.w3.org/2000/svg">
<rect x="4.7959" y="4.7959" width="22.4083" height="22.4083" rx="2.25" fill="#DAE6F9" stroke="#1E63EC" stroke-width="1.5"/>
<path d="M13.3337 14.6667H10.667V12" stroke="#1E63EC" stroke-width="1.5" stroke-linecap="round" stroke-linejoin="round"/>
<path d="M20.0003 12.3953C19.5193 11.8474 18.948 11.4127 18.3191 11.1162C17.6902 10.8196 17.0161 10.667 16.3353 10.667C15.6546 10.667 14.9804 10.8196 14.3516 11.1162C13.7227 11.4127 13.1514 11.8474 12.6704 12.3953L10.667 14.667" stroke="#1E63EC" stroke-width="1.5" stroke-linecap="round" stroke-linejoin="round"/>
<path d="M18.667 17.333H21.3337V19.9997" stroke="#1E63EC" stroke-width="1.5" stroke-linecap="round" stroke-linejoin="round"/>
<path d="M12 19.6047C12.481 20.1526 13.0523 20.5873 13.6812 20.8838C14.3101 21.1804 14.9842 21.333 15.665 21.333C16.3458 21.333 17.0199 21.1804 17.6488 20.8838C18.2776 20.5873 18.8489 20.1526 19.33 19.6047L21.3333 17.333" stroke="#1E63EC" stroke-width="1.5" stroke-linecap="round" stroke-linejoin="round"/>
</svg>
