<svg width="68" height="68" viewBox="0 0 68 68" fill="none" xmlns="http://www.w3.org/2000/svg">
<g clip-path="url(#clip0_2038_4945)">
<path d="M35.7248 38.9173C34.6103 39.6746 33.0882 39.3841 32.3303 38.2696C31.5723 37.155 31.8634 35.6324 32.978 34.8733C34.092 34.1159 35.6146 34.407 36.3725 35.5216C37.131 36.6356 36.8405 38.1588 35.7248 38.9173ZM37.2373 34.9338C36.1549 33.3388 33.9835 32.9262 32.3902 34.0097C30.7958 35.0932 30.382 37.2641 31.4661 38.8574C32.4246 40.2692 34.235 40.753 35.7429 40.0957L37.0932 42.2887L38.1648 41.5607L36.8151 39.3677C37.9817 38.2074 38.1976 36.3439 37.2373 34.9338ZM0.0195312 39.8218C0.521426 40.0931 1.29461 40.2966 2.16276 40.2966C4.06182 40.2966 5.02491 39.3878 5.02491 38.1398C5.01135 37.1767 4.49589 36.5392 3.23437 36.1051C2.42049 35.8338 2.16276 35.6575 2.16276 35.3455C2.16276 35.0199 2.44762 34.8164 2.94951 34.8164C3.50566 34.8164 4.08895 35.0335 4.38737 35.1827L4.74005 33.772C4.33311 33.5685 3.65488 33.3786 2.88169 33.3786C1.24036 33.3786 0.182308 34.3146 0.182308 35.5625C0.168743 36.3357 0.697767 37.0818 2.08137 37.543C2.84099 37.7871 3.04446 37.9635 3.04446 38.3026C3.04446 38.6417 2.78673 38.8452 2.16276 38.8452C1.55234 38.8452 0.765591 38.5874 0.385779 38.3568L0.0195312 39.8218ZM8.67382 40.3102C10.4372 40.3102 12.16 39.1978 12.16 36.7833C12.16 34.7758 10.8035 33.3786 8.78234 33.3786C6.63911 33.3786 5.22838 34.7486 5.22838 36.8918C5.22838 39.0351 6.7205 40.3102 8.66026 40.3102H8.67382ZM8.70095 38.8316C7.83281 38.8316 7.35804 37.977 7.35804 36.8512C7.35804 35.8609 7.73786 34.8571 8.71452 34.8571C9.65048 34.8571 10.0303 35.8609 10.0303 36.8376C10.0303 38.0313 9.5284 38.8316 8.71452 38.8316H8.70095ZM12.7568 40.1609H14.8186V36.3357C14.8186 36.1458 14.8322 35.9559 14.8865 35.8202C15.0357 35.4404 15.3748 35.047 15.9445 35.047C16.6906 35.047 16.989 35.6303 16.989 36.4849V40.1609H19.0508V36.2407C19.0508 34.2874 18.0335 33.3786 16.677 33.3786C15.5647 33.3786 14.9 34.0161 14.6287 34.4502H14.588L14.4931 33.5278H12.7025C12.7297 34.1246 12.7568 34.8164 12.7568 35.6439V40.1609ZM25.5483 36.2407C25.5483 34.6808 24.8565 33.3786 22.6455 33.3786C21.4382 33.3786 20.5294 33.7177 20.0682 33.9754L20.448 35.2912C20.8821 35.0335 21.601 34.8029 22.2792 34.8029C23.2966 34.8029 23.4865 35.3048 23.4865 35.6575V35.7388C21.1398 35.7388 19.5934 36.5527 19.5934 38.2754C19.5934 39.3335 20.3937 40.3102 21.7366 40.3102C22.5234 40.3102 23.2016 40.0253 23.6357 39.4963H23.6764L23.7985 40.1609H25.6568C25.5755 39.7947 25.5483 39.1843 25.5483 38.5603V36.2407ZM23.5543 37.7464C23.5543 37.8685 23.5408 37.9906 23.5136 38.0991C23.378 38.5196 22.9439 38.8587 22.442 38.8587C21.9808 38.8587 21.6281 38.601 21.6281 38.072C21.6281 37.2852 22.4691 37.0275 23.5543 37.0275V37.7464ZM26.5114 40.1609H28.5733V36.8105C28.5733 36.6341 28.5868 36.4849 28.614 36.3493C28.7496 35.6982 29.2651 35.3048 30.0247 35.3048C30.2553 35.3048 30.4181 35.3319 30.5808 35.359V33.4193C30.4316 33.3921 30.3367 33.3786 30.1468 33.3786C29.4957 33.3786 28.6953 33.7855 28.3562 34.7622H28.302L28.2206 33.5278H26.4572C26.4979 34.0975 26.5114 34.7351 26.5114 35.7117V40.1609ZM44.0402 33.6324H42.8465V37.6476C42.8465 37.8782 42.8058 38.0952 42.738 38.258C42.5209 38.8006 41.9648 39.3567 41.1645 39.3567C40.0928 39.3567 39.6995 38.5021 39.6995 37.2542V33.6324H38.5058V37.4712C38.5058 39.7636 39.7402 40.3469 40.7711 40.3469C41.9376 40.3469 42.643 39.6551 42.9414 39.1261H42.9686L43.0364 40.1977H44.0944C44.0537 39.6823 44.0402 39.0854 44.0402 38.3936V33.6324ZM45.3424 38.5021C45.3424 39.0854 45.3288 39.7501 45.2881 40.1977H46.3191L46.3869 39.1125H46.414C46.9159 39.9807 47.662 40.3469 48.6115 40.3469C50.0765 40.3469 51.5686 39.1804 51.5686 36.8201C51.5686 34.8397 50.4292 33.4832 48.8014 33.4832C47.7433 33.4832 46.9837 33.9444 46.5632 34.6769H46.5361V30.5668H45.3424V38.5021ZM46.5361 36.386C46.5361 36.1961 46.5632 36.0334 46.6039 35.8841C46.8345 34.9889 47.5941 34.4192 48.408 34.4192C49.6831 34.4192 50.3613 35.545 50.3613 36.8744C50.3613 38.38 49.6288 39.3974 48.3673 39.3974C47.5127 39.3974 46.8074 38.8277 46.5768 38.0002C46.5497 37.8646 46.5361 37.7154 46.5361 37.5662V36.386ZM57.6592 37.1321C57.6863 36.9964 57.6999 36.8201 57.6999 36.5759C57.6999 35.3687 57.1437 33.4832 55.0005 33.4832C53.0878 33.4832 51.9077 35.0431 51.9077 37.0236C51.9077 38.9905 53.1285 40.3334 55.1361 40.3334C56.1806 40.3334 56.9131 40.1028 57.3336 39.9129L57.1166 39.0583C56.6825 39.2482 56.1535 39.3974 55.2989 39.3974C54.1052 39.3974 53.0878 38.7327 53.0607 37.1321H57.6592ZM53.0743 36.2775C53.1692 35.4501 53.6847 34.3378 54.9055 34.3378C56.2349 34.3378 56.5604 35.5179 56.5468 36.2775H53.0743Z" fill="#070707"/>
<path d="M65.9473 40.1743H65.1131C65.1131 33.4546 59.5685 27.9881 52.7539 27.9881V27.1538C60.0291 27.1538 65.9473 32.9934 65.9473 40.1743ZM66.5238 35.6923C65.5228 31.477 62.1068 27.9587 57.8237 26.7288L58.0159 26.0602C62.5363 27.3584 66.1417 31.0752 67.1998 35.5312L66.5238 35.6923ZM67.4631 31.7364C66.4311 29.4858 64.6711 27.5229 62.5115 26.2099L62.8003 25.7346C65.0554 27.1058 66.8895 29.1535 67.9679 31.5041L67.4631 31.7364Z" fill="#499CD2"/>
</g>
<defs>
<clipPath id="clip0_2038_4945">
<rect width="67.9592" height="67.9592" fill="white" transform="translate(0.0195312 0.0203857)"/>
</clipPath>
</defs>
</svg>
