<svg width="69" height="68" viewBox="0 0 69 68" fill="none" xmlns="http://www.w3.org/2000/svg">
<g clip-path="url(#clip0_2042_7599)">
<path d="M46.9388 29.4082C44.1356 29.4082 41.8672 31.6766 41.8672 34.4798C41.8672 37.283 44.1356 39.5514 46.9388 39.5514C49.7419 39.5514 52.0104 37.283 52.0104 34.4798C52.0104 33.1335 51.4755 31.8518 50.5258 30.8928C49.576 29.943 48.2851 29.4082 46.9388 29.4082ZM46.9388 37.5688C44.8641 37.5688 43.9327 35.7523 43.9327 34.4613C43.9327 33.1704 44.8732 31.3538 46.9388 31.3538C49.1333 31.3538 49.954 33.281 49.954 34.4982C49.9448 35.78 49.0136 37.5688 46.9388 37.5688ZM53.163 39.3577V31.529H51.6231V29.5834H55.2192V39.3577H53.163Z" fill="#529DBC"/>
<path d="M10.174 39.3583H15.7804V37.4034H12.2394V35.4117H15.7896V33.4568H12.2394V31.5388H15.7896V29.584H10.1832V39.3583H10.174ZM5.10239 35.6975C4.58602 34.3513 2.73259 29.584 2.73259 29.584H0.519531L4.45692 39.3583H5.74787L9.66682 29.584H7.48143C7.48143 29.584 5.62799 34.3513 5.10239 35.6975ZM27.196 29.584L23.6736 38.9526L21.4974 35.8912C22.4657 35.6514 23.7843 34.8677 23.7843 32.8482C23.8027 31.9538 23.4615 31.087 22.8437 30.4508C22.2167 29.8514 21.396 29.5932 20.188 29.5932H17.0252V39.3675H19.0815V35.9281L21.5251 39.3583H25.6838L26.4399 37.3297H29.6489L30.4049 39.3583H32.5996L28.8927 29.584H27.196ZM19.6071 34.2406H19.0723V31.5296H20.0958C21.2946 31.5296 21.728 32.2028 21.728 32.8482C21.728 33.1894 21.728 34.2406 19.6071 34.2406ZM27.1223 35.4394C27.4634 34.4896 27.8968 33.2632 28.0537 32.7929L28.9849 35.4394H27.1223Z" fill="#010101"/>
<path d="M67.9813 31.5296V29.584H62.375V39.3583H67.9813V37.4034H64.4312V35.4117H67.9813V33.4568H64.4312V31.5388H67.9813V31.5296Z" fill="#010101"/>
<path d="M36.905 31.3538C37.7811 31.3723 38.6018 31.778 39.1458 32.4696L39.2749 32.6264H41.6723L41.3404 32.0454C40.9808 31.3723 40.4736 30.7914 39.8558 30.3487C38.9798 29.7402 37.947 29.4082 36.8774 29.4082C34.0834 29.4082 31.8242 31.6674 31.8242 34.4613C31.8242 37.2553 34.0834 39.5145 36.8774 39.5145C38.7032 39.5145 40.3906 38.5278 41.285 36.9326L41.5986 36.3793H39.1734L39.0628 36.5084C38.5279 37.1631 37.7257 37.5412 36.8774 37.5596C35.2084 37.4859 33.8898 36.1027 33.9175 34.4245C33.899 32.7647 35.2361 31.3907 36.905 31.3538Z" fill="#010101"/>
<path d="M56.5739 29.584H56.0391V31.5296H56.5647C58.8791 31.5296 59.497 33.3923 59.497 34.4804C59.497 37.1176 57.4222 37.3942 56.537 37.3942H56.0391V39.3583H56.5278C58.1322 39.3583 59.3402 38.9065 60.3084 37.9475C61.0645 37.219 61.5533 35.8359 61.5533 34.4988C61.5348 33.3923 61.1936 32.3134 60.5573 31.4097C59.6814 30.1926 58.3351 29.584 56.5739 29.584Z" fill="#010101"/>
</g>
<defs>
<clipPath id="clip0_2042_7599">
<rect width="67.9592" height="67.9592" fill="white" transform="translate(0.519531 0.0205078)"/>
</clipPath>
</defs>
</svg>
