<svg width="60" height="60" viewBox="0 0 60 60" fill="none" xmlns="http://www.w3.org/2000/svg">
<rect x="0.5" y="0.5" width="59" height="59" rx="11.5" fill="white" stroke="#DFDFEB"/>
<path d="M29.3374 17.2375L19.2499 19.25L17.2374 29.3375C17.2058 29.4986 17.2144 29.6649 17.2624 29.8219C17.3104 29.9788 17.3962 30.1216 17.5124 30.2375L30.5624 43.2875C30.6544 43.3816 30.7642 43.4564 30.8855 43.5075C31.0068 43.5585 31.137 43.5848 31.2686 43.5848C31.4002 43.5848 31.5305 43.5585 31.6518 43.5075C31.7731 43.4564 31.8829 43.3816 31.9749 43.2875L43.2874 31.975C43.3815 31.883 43.4563 31.7732 43.5073 31.6519C43.5584 31.5306 43.5847 31.4003 43.5847 31.2688C43.5847 31.1372 43.5584 31.0069 43.5073 30.8856C43.4563 30.7643 43.3815 30.6545 43.2874 30.5625L30.2374 17.5125C30.1215 17.3963 29.9787 17.3105 29.8218 17.2625C29.6648 17.2146 29.4984 17.206 29.3374 17.2375Z" fill="#DAE6F9" stroke="#1E63EC" stroke-width="1.5" stroke-linecap="round" stroke-linejoin="round"/>
<path d="M24.5 26C25.3284 26 26 25.3284 26 24.5C26 23.6716 25.3284 23 24.5 23C23.6716 23 23 23.6716 23 24.5C23 25.3284 23.6716 26 24.5 26Z" fill="#1E63EC"/>
</svg>
