<svg width="60" height="60" viewBox="0 0 60 60" fill="none" xmlns="http://www.w3.org/2000/svg">
<rect x="0.5" y="0.5" width="59" height="59" rx="11.5" fill="white" stroke="#DFDFEB"/>
<path d="M22.5 41C24.433 41 26 39.433 26 37.5C26 35.567 24.433 34 22.5 34C20.567 34 19 35.567 19 37.5C19 39.433 20.567 41 22.5 41Z" fill="#DAE6F9" stroke="#1E63EC" stroke-width="1.5" stroke-linecap="round" stroke-linejoin="round"/>
<path d="M22.5 26C24.433 26 26 24.433 26 22.5C26 20.567 24.433 19 22.5 19C20.567 19 19 20.567 19 22.5C19 24.433 20.567 26 22.5 26Z" fill="#DAE6F9" stroke="#1E63EC" stroke-width="1.5" stroke-linecap="round" stroke-linejoin="round"/>
<path d="M22.5 26V34" stroke="#1E63EC" stroke-width="1.5" stroke-linecap="round" stroke-linejoin="round"/>
<path d="M37.5 41C39.433 41 41 39.433 41 37.5C41 35.567 39.433 34 37.5 34C35.567 34 34 35.567 34 37.5C34 39.433 35.567 41 37.5 41Z" fill="#DAE6F9" stroke="#1E63EC" stroke-width="1.5" stroke-linecap="round" stroke-linejoin="round"/>
<path d="M37.5 34V28.9875C37.4978 27.3935 36.8641 25.8652 35.7375 24.7375L31 20" stroke="#1E63EC" stroke-width="1.5" stroke-linecap="round" stroke-linejoin="round"/>
<path d="M31 25V20H36" stroke="#1E63EC" stroke-width="1.5" stroke-linecap="round" stroke-linejoin="round"/>
</svg>
