<svg width="60" height="61" viewBox="0 0 60 61" fill="none" xmlns="http://www.w3.org/2000/svg">
<rect x="0.5" y="1.09961" width="59" height="59" rx="11.5" fill="white" stroke="#DFDFEB"/>
<path d="M44.0875 29.8246L41 31.3621L37 23.7121L40.125 22.1496C40.3572 22.0313 40.6269 22.0095 40.8751 22.0891C41.1233 22.1687 41.33 22.3433 41.45 22.5746L44.525 28.4621C44.5874 28.58 44.6255 28.7091 44.6372 28.8419C44.6489 28.9748 44.634 29.1086 44.5932 29.2355C44.5525 29.3625 44.4867 29.48 44.3999 29.5812C44.313 29.6823 44.2068 29.7651 44.0875 29.8246Z" fill="#DAE6F9" stroke="#1E63EC" stroke-width="1.5" stroke-linecap="round" stroke-linejoin="round"/>
<path d="M19 31.2371L15.9125 29.6871C15.7937 29.6288 15.6877 29.5473 15.601 29.4472C15.5143 29.3472 15.4485 29.2307 15.4077 29.1048C15.3669 28.9789 15.3518 28.846 15.3634 28.7141C15.375 28.5822 15.4129 28.454 15.475 28.3371L18.55 22.4496C18.6703 22.2184 18.8761 22.0433 19.1236 21.9616C19.3711 21.8798 19.6407 21.898 19.875 22.0121L23 23.5746L19 31.2371Z" fill="#DAE6F9" stroke="#1E63EC" stroke-width="1.5" stroke-linecap="round" stroke-linejoin="round"/>
<path d="M41 31.3621L39 33.7121L34.4 38.3121C34.2746 38.4294 34.1227 38.5145 33.9573 38.5602C33.7918 38.6059 33.6178 38.6109 33.45 38.5746L26.2 36.7621C26.0676 36.7252 25.9442 36.6614 25.8375 36.5746L19 31.2371" stroke="#1E63EC" stroke-width="1.5" stroke-linecap="round" stroke-linejoin="round"/>
<path d="M39.0001 33.7121L33.5001 29.7121L31.9001 30.9121C31.2069 31.4295 30.3651 31.709 29.5001 31.709C28.6351 31.709 27.7933 31.4295 27.1001 30.9121L26.4251 30.3996C26.311 30.3128 26.2166 30.2028 26.1481 30.0768C26.0797 29.9508 26.0388 29.8117 26.0282 29.6687C26.0175 29.5257 26.0374 29.3821 26.0864 29.2473C26.1355 29.1126 26.2126 28.9898 26.3126 28.8871L31.2126 23.9996C31.3047 23.908 31.4139 23.8355 31.534 23.7861C31.6541 23.7368 31.7828 23.7116 31.9126 23.7121H37.0001" stroke="#1E63EC" stroke-width="1.5" stroke-linecap="round" stroke-linejoin="round"/>
<path d="M23.075 23.5746L29.4875 21.6996C29.7153 21.6343 29.959 21.652 30.175 21.7496L34.5 23.7121" stroke="#1E63EC" stroke-width="1.5" stroke-linecap="round" stroke-linejoin="round"/>
<path d="M28 41.2121L24.2375 40.2621C24.0842 40.2275 23.9422 40.1543 23.825 40.0496L21 37.5996" stroke="#1E63EC" stroke-width="1.5" stroke-linecap="round" stroke-linejoin="round"/>
</svg>
