<svg width="60" height="61" viewBox="0 0 60 61" fill="none" xmlns="http://www.w3.org/2000/svg">
<rect x="0.5" y="1.09961" width="59" height="59" rx="11.5" fill="white" stroke="#DFDFEB"/>
<path d="M24 30.5996C24 28.6218 24.5865 26.6884 25.6853 25.0439C26.7841 23.3994 28.3459 22.1177 30.1732 21.3608C32.0004 20.6039 34.0111 20.4059 35.9509 20.7918C37.8907 21.1776 39.6725 22.13 41.0711 23.5285C42.4696 24.9271 43.422 26.7089 43.8079 28.6487C44.1937 30.5885 43.9957 32.5992 43.2388 34.4264C42.4819 36.2537 41.2002 37.8155 39.5557 38.9143C37.9112 40.0131 35.9778 40.5996 34 40.5996H23C21.1435 40.5996 19.363 39.8621 18.0503 38.5494C16.7375 37.2366 16 35.4561 16 33.5996C16 31.7431 16.7375 29.9626 18.0503 28.6499C19.363 27.3371 21.1435 26.5996 23 26.5996C23.5857 26.5994 24.1692 26.6708 24.7375 26.8121" fill="#DAE6F9"/>
<path d="M24 30.5996C24 28.6218 24.5865 26.6884 25.6853 25.0439C26.7841 23.3994 28.3459 22.1177 30.1732 21.3608C32.0004 20.6039 34.0111 20.4059 35.9509 20.7918C37.8907 21.1776 39.6725 22.13 41.0711 23.5285C42.4696 24.9271 43.422 26.7089 43.8079 28.6487C44.1937 30.5885 43.9957 32.5992 43.2388 34.4264C42.4819 36.2537 41.2002 37.8155 39.5557 38.9143C37.9112 40.0131 35.9778 40.5996 34 40.5996H23C21.1435 40.5996 19.363 39.8621 18.0503 38.5494C16.7375 37.2366 16 35.4561 16 33.5996C16 31.7431 16.7375 29.9626 18.0503 28.6499C19.363 27.3371 21.1435 26.5996 23 26.5996C23.5857 26.5994 24.1692 26.6708 24.7375 26.8121" stroke="#1E63EC" stroke-width="1.5" stroke-linecap="round" stroke-linejoin="round"/>
</svg>
