<svg width="60" height="61" viewBox="0 0 60 61" fill="none" xmlns="http://www.w3.org/2000/svg">
<rect x="0.5" y="1.09961" width="59" height="59" rx="11.5" fill="white" stroke="#DFDFEB"/>
<path d="M30 41.5996C30 41.5996 17.5 34.5996 17.5 26.0996C17.5 24.597 18.0206 23.1407 18.9733 21.9787C19.9259 20.8166 21.2518 20.0205 22.7252 19.7258C24.1987 19.4312 25.7288 19.6561 27.0551 20.3623C28.3814 21.0686 29.4221 22.2126 30 23.5996C30.5779 22.2126 31.6186 21.0686 32.9449 20.3623C34.2712 19.6561 35.8013 19.4312 37.2748 19.7258C38.7482 20.0205 40.0741 20.8166 41.0267 21.9787C41.9794 23.1407 42.5 24.597 42.5 26.0996C42.5 34.5996 30 41.5996 30 41.5996Z" fill="#DAE6F9" stroke="#1E63EC" stroke-width="1.5" stroke-linecap="round" stroke-linejoin="round"/>
</svg>
