<svg width="60" height="60" viewBox="0 0 60 60" fill="none" xmlns="http://www.w3.org/2000/svg">
<rect x="0.5" y="0.5" width="59" height="59" rx="11.5" fill="white" stroke="#DFDFEB"/>
<path d="M30 41C30 41 17.5 34 17.5 25.5C17.5 23.9974 18.0206 22.5411 18.9733 21.3791C19.9259 20.217 21.2518 19.4209 22.7252 19.1262C24.1987 18.8315 25.7288 19.0565 27.0551 19.7627C28.3814 20.469 29.4221 21.613 30 23C30.5779 21.613 31.6186 20.469 32.9449 19.7627C34.2712 19.0565 35.8013 18.8315 37.2748 19.1262C38.7482 19.4209 40.0741 20.217 41.0267 21.3791C41.9794 22.5411 42.5 23.9974 42.5 25.5C42.5 34 30 41 30 41Z" fill="#DAE6F9" stroke="#1E63EC" stroke-width="1.5" stroke-linecap="round" stroke-linejoin="round"/>
</svg>
