<svg width="58" height="64" viewBox="0 0 58 64" fill="none" xmlns="http://www.w3.org/2000/svg">
<g clip-path="url(#clip0_605_15540)">
<path d="M57.1795 18.8802C57.1791 17.8257 56.9496 16.8938 56.4854 16.0941C56.0295 15.3076 55.3468 14.6485 54.431 14.1273C46.8715 9.84388 39.3047 5.57351 31.7476 1.28568C29.7103 0.129832 27.7349 0.17197 25.7127 1.34441C22.7037 3.08824 7.63918 11.5698 3.15013 14.1249C1.30142 15.1766 0.401831 16.7862 0.401387 18.8783C0.398499 27.4926 0.401387 36.1066 0.398499 44.7212C0.398943 45.7526 0.618674 46.6663 1.06236 47.454C1.51848 48.2643 2.21078 48.9415 3.14769 49.4745C7.63696 52.0296 22.7035 60.5105 25.7118 62.2548C27.7349 63.4279 29.7103 63.4698 31.7483 62.3135C39.3055 58.0255 46.8728 53.7553 54.4334 49.4719C55.3703 48.9391 56.0626 48.2614 56.5188 47.4519C56.9618 46.6641 57.182 45.7504 57.1824 44.7188C57.1824 44.7188 57.1824 27.4947 57.1795 18.8802Z" fill="white"/>
<path d="M28.8766 31.7998L1.246 47.496C1.6991 48.3041 2.38681 48.9795 3.31752 49.5111C7.77703 52.0594 22.7437 60.5176 25.7321 62.2572C27.7418 63.4272 29.704 63.469 31.7285 62.3158C39.2357 58.0392 46.7529 53.7805 54.2634 49.5084C55.1941 48.9771 55.8818 48.3012 56.3349 47.4938L28.8766 31.7998Z" fill="white"/>
<path d="M20.739 36.4673C22.3346 39.2474 25.3343 41.1225 28.7753 41.1225C32.2376 41.1225 35.2543 39.2236 36.8419 36.4137L28.861 31.7998L20.739 36.4673Z" fill="white"/>
<path d="M57.1795 18.4831C57.1791 17.4285 56.9523 16.4967 56.4937 15.6969L29.2142 31.3188L56.5267 47.0552C56.9644 46.2674 57.182 45.3537 57.1824 44.3221C57.1824 44.3221 57.1824 27.0977 57.1795 18.4831Z" fill="white"/>
<path d="M55.4874 32.3644H53.3204V34.3423H51.153V32.3644H48.9862V30.3871H51.153V28.4097H53.3204V30.3871H55.4874V32.3644ZM47.5802 32.3644H45.4134V34.3423H43.2465V32.3644H41.0795V30.3871H43.2465V28.4097H45.4134V30.3871H47.5802V32.3644Z" fill="#111112"/>
<path d="M37.0379 36.3521C35.4111 39.1759 32.3197 41.0843 28.7717 41.0843C25.2456 41.0843 22.1717 39.1999 20.5365 36.406C19.7151 35.004 19.2837 33.4158 19.2854 31.7997C19.2854 26.672 23.5328 22.5152 28.7717 22.5152C32.2752 22.5152 35.333 24.3761 36.9762 27.1415L45.2677 22.4684C41.9721 16.9003 35.8191 13.1543 28.7717 13.1543C18.2502 13.1543 9.72122 21.5022 9.72122 31.7997C9.72122 35.1779 10.6395 38.346 12.2443 41.0786C15.5317 46.6761 21.7021 50.4452 28.7717 50.4452C35.8544 50.4452 42.0345 46.661 45.3171 41.047L37.0379 36.3521Z" fill="#111112"/>
</g>
<defs>
<clipPath id="clip0_605_15540">
<rect width="56.7839" height="62.7166" fill="white" transform="translate(0.398499 0.441528)"/>
</clipPath>
</defs>
</svg>
