<svg width="57" height="64" viewBox="0 0 57 64" fill="none" xmlns="http://www.w3.org/2000/svg">
<g clip-path="url(#clip0_605_15555)">
<path d="M56.0346 18.8802C56.0341 17.8257 55.808 16.8938 55.3508 16.0941C54.9017 15.3076 54.2292 14.6485 53.3271 14.1273C45.8804 9.84388 38.4265 5.57351 30.9822 1.28568C28.9753 0.129832 27.0294 0.17197 25.0374 1.34441C22.0734 3.08824 7.23362 11.5698 2.81158 14.1249C0.990456 15.1766 0.104296 16.7862 0.103858 18.8783C0.101013 27.4926 0.103858 36.1066 0.101013 44.7212C0.101013 45.7526 0.317902 46.6663 0.754964 47.454C1.20428 48.2643 1.88625 48.9415 2.80917 49.4745C7.23144 52.0296 22.0731 60.5105 25.0365 62.2548C27.0294 63.4279 28.9753 63.4698 30.9829 62.3135C38.4274 58.0255 45.8817 53.7553 53.3295 49.4719C54.2524 48.9391 54.9344 48.2614 55.3837 47.4519C55.8201 46.6641 56.0374 45.7504 56.0374 44.7188C56.0374 44.7188 56.0374 27.4947 56.0346 18.8802Z" fill="white"/>
<path d="M28.154 31.7998L0.948486 47.496C1.39462 48.3041 2.07175 48.9795 2.98813 49.5111C7.37903 52.0594 22.1155 60.5176 25.0578 62.2572C27.0366 63.4272 28.9687 63.469 30.9621 62.3158C38.3538 58.0392 45.7552 53.7805 53.1502 49.5084C54.0666 48.9771 54.7437 48.3012 55.1898 47.4938L28.154 31.7998Z" fill="white"/>
<path d="M56.0345 18.4831C56.0341 17.4285 55.8073 16.4967 55.3487 15.6969L28.0692 31.3188L55.3816 47.0552C55.8194 46.2674 56.0369 45.3537 56.0373 44.3221C56.0373 44.3221 56.0373 27.0977 56.0345 18.4831Z" fill="white"/>
<path d="M44.3839 25.8672V28.8335H47.3503V25.8672H48.8334V28.8335H51.7997V30.3167H48.8334V33.283H51.7997V34.7662H48.8334V37.7325H47.3503V34.7662H44.3839V37.7325H42.9008V34.7662H39.9344V33.283H42.9008V30.3167H39.9344V28.8335H42.9008V25.8672H44.3839ZM47.3503 30.3167H44.3839V33.283H47.3503V30.3167Z" fill="#111112"/>
<path d="M28.6167 11.4594C36.3439 11.4594 43.0903 15.6311 46.7039 21.8319L46.6686 21.7722L37.5772 26.976C35.786 23.9611 32.5022 21.9265 28.7354 21.8847L28.6167 21.884C22.8724 21.884 18.2154 26.5132 18.2154 32.2235C18.2154 34.0909 18.7162 35.8413 19.5872 37.3532C21.3801 40.4647 24.7505 42.5632 28.6167 42.5632C32.5069 42.5632 35.8965 40.438 37.6802 37.2933L37.6369 37.3688L46.7147 42.5966C43.1408 48.7449 36.4868 52.9037 28.8494 52.9866L28.6167 52.9879C20.8652 52.9879 14.0996 48.7905 10.4951 42.5569C8.73551 39.5137 7.7287 35.9857 7.7287 32.2235C7.7287 20.7559 17.0804 11.4594 28.6167 11.4594Z" fill="#111112"/>
</g>
<defs>
<clipPath id="clip0_605_15555">
<rect width="55.9364" height="62.7166" fill="white" transform="translate(0.101013 0.441528)"/>
</clipPath>
</defs>
</svg>
