<svg width="64" height="64" viewBox="0 0 64 64" fill="none" xmlns="http://www.w3.org/2000/svg">
<g clip-path="url(#clip0_605_15562)">
<path d="M63.6015 0.0178223H0.0374146V63.5819H63.6015V0.0178223Z" fill="white"/>
<path d="M11.0434 40.6988C10.5758 40.6988 10.1783 40.5356 9.85103 40.2091C9.52371 39.8743 9.36005 39.4767 9.36005 39.0164C9.36005 38.5475 9.52371 38.1458 9.85103 37.811C10.1783 37.4761 10.5758 37.3087 11.0434 37.3087C11.5188 37.3087 11.9201 37.4761 12.2475 37.811C12.5826 38.1458 12.7501 38.5475 12.7501 39.0164C12.7501 39.4767 12.5826 39.8743 12.2475 40.2091C11.9201 40.5356 11.5188 40.6988 11.0434 40.6988Z" fill="#111112"/>
<path d="M28.853 39.8513H25.9536L18.3148 28.0156C18.1216 27.7162 17.9616 27.4054 17.8353 27.0835H17.7684C17.8278 27.428 17.8576 28.1653 17.8576 29.2957V39.8513H15.2927V23.7484H18.3816L25.764 35.3034C26.0763 35.7826 26.277 36.112 26.3662 36.2916H26.4108C26.3365 35.865 26.2993 35.1425 26.2993 34.1243V23.7484H28.853V39.8513Z" fill="#111112"/>
<path d="M42.4134 39.8513H33.0906V23.7484H42.0428V26.0168H35.847V30.5759H41.5565V32.833H35.847V37.5942H42.4134V39.8513Z" fill="#111112"/>
<path d="M55.1262 26.0168H50.5187V39.8513H47.8571V26.0168H43.2609V23.7484H55.1262V26.0168Z" fill="#111112"/>
</g>
<defs>
<clipPath id="clip0_605_15562">
<rect width="63.5641" height="63.5641" fill="white" transform="translate(0.0374146 0.0178223)"/>
</clipPath>
</defs>
</svg>
