<svg width="70" height="79" viewBox="0 0 70 79" fill="none" xmlns="http://www.w3.org/2000/svg">
<g clip-path="url(#clip0_605_15568)">
<path d="M6.97384 70.919L0.601562 0.813843L69.2508 0.8406L62.932 70.8655L34.8726 78.7858L6.97384 70.919ZM57.7646 67.0927L63.0927 7.04839H34.9797L35.1939 73.2737L57.7646 67.0927ZM32.3558 15.8517H25.5284L25.4481 51.7873L12.1948 48.175L12.2216 56.3896L32.3558 61.8214V15.8517Z" fill="white"/>
<path d="M34.5024 6.32275H63.3181L57.8568 68.5647L34.5024 74.972V6.32275ZM56.3749 58.1356L58.2685 34.8642L44.2723 36.4452V24.019L59.2016 23.9635L59.8053 15.476L37.2742 15.5869L37.5761 46.486L51.1881 44.1284L50.9959 51.0071L37.2742 54.6962L37.4114 63.1282L56.3749 58.1356Z" fill="white"/>
</g>
<defs>
<clipPath id="clip0_605_15568">
<rect width="68.6492" height="77.9719" fill="white" transform="translate(0.601562 0.813843)"/>
</clipPath>
</defs>
</svg>
