<svg width="46" height="86" viewBox="0 0 46 86" fill="none" xmlns="http://www.w3.org/2000/svg">
<g clip-path="url(#clip0_605_15547)">
<path d="M42.9209 67.0956H42.5584V66.9541H43.5346V67.0956H43.1743V67.8014H42.9209V67.0956ZM44.8679 67.1324H44.8622L44.5027 67.8016H44.3383L43.9814 67.1324H43.9771V67.8016H43.7381V66.9544H44.0898L44.4207 67.5543L44.7506 66.9544H45.101V67.8016H44.8677L44.8679 67.1324Z" fill="white"/>
<path d="M14.8051 45.2654C14.8051 45.2654 12.6165 46.54 16.3626 46.9713C20.901 47.4898 23.2205 47.4155 28.2218 46.4675C28.2218 46.4675 29.5367 47.2932 31.3731 48.0083C20.1614 52.8204 5.99893 47.7296 14.8051 45.2654ZM13.4351 38.986C13.4351 38.986 10.9803 40.8056 14.7293 41.194C19.5773 41.6949 23.4059 41.7358 30.0308 40.4583C30.0308 40.4583 30.9473 41.3886 32.3882 41.8974C18.8325 45.8669 3.73407 42.2104 13.4351 38.986Z" fill="white"/>
<path d="M25.5868 27.7729C28.3357 30.9982 24.8647 33.9008 24.8647 33.9008C24.8647 33.9008 31.8443 30.2287 28.6389 25.6303C25.645 21.342 23.3491 19.2115 35.7783 11.8652C35.7784 11.8651 16.2685 16.8308 25.5868 27.7729Z" fill="white"/>
<path d="M39.7891 50.0889C39.7891 50.0889 41.4149 51.481 37.9985 52.5576C31.5023 54.6024 10.9604 55.2198 5.25399 52.6393C3.20267 51.7119 7.04948 50.4251 8.25953 50.1551C9.5215 49.8708 10.2427 49.9238 10.2427 49.9238C7.9614 48.254 -4.50255 53.2023 3.9116 54.6196C26.8582 58.4861 45.7413 52.8785 39.7891 50.0889ZM15.7421 31.9354C15.7421 31.9354 5.2932 34.514 12.0419 35.4504C14.8914 35.8468 20.5718 35.7571 25.8628 35.2965C30.187 34.9175 34.5292 34.1118 34.5292 34.1118C34.5292 34.1118 33.0044 34.7903 31.9013 35.5728C21.2906 38.4725 0.792786 37.1234 6.69385 34.1576C11.6844 31.651 15.7421 31.9354 15.7421 31.9354ZM34.4861 42.8215C45.2724 36.9978 40.2854 31.4012 36.8043 32.1553C35.9511 32.3398 35.5707 32.4997 35.5707 32.4997C35.5707 32.4997 35.8876 31.9842 36.4922 31.761C43.3786 29.2455 48.6747 39.1803 34.2692 43.1152C34.2692 43.1152 34.4364 42.9603 34.4861 42.8215Z" fill="white"/>
<path d="M28.3558 0C28.3558 0 34.1625 6.1016 22.8485 15.4845C13.7758 23.011 20.7796 27.3025 22.8447 32.2058C17.549 27.1863 13.6625 22.768 16.2699 18.6556C20.0967 12.619 30.6987 9.69228 28.3558 0Z" fill="white"/>
<path d="M16.7837 59.1296C27.1346 59.8514 43.0297 58.7291 43.406 53.3938C43.406 53.3938 42.6825 55.4163 34.8515 57.0228C26.0169 58.8338 15.1204 58.6225 8.65759 57.4617C8.6579 57.4614 9.98076 58.6544 16.7837 59.1296Z" fill="white"/>
<path d="M15.422 77.7125C14.4504 78.5704 13.4242 79.0521 12.5033 79.0521C11.1889 79.0521 10.4787 78.2497 10.4787 76.9626C10.4787 75.5704 11.2397 74.5525 14.2922 74.5525H15.4218L15.422 77.7125ZM18.103 80.7921V71.2593C18.103 68.8239 16.7387 67.2171 13.4495 67.2171C11.5292 67.2171 9.84713 67.6999 8.47997 68.3155L8.8746 70.0029C9.95103 69.6007 11.3444 69.2263 12.712 69.2263C14.6068 69.2263 15.422 70.003 15.422 71.6088V72.8137H14.4763C9.87256 72.8137 7.79585 74.6331 7.79585 77.3639C7.79585 79.7208 9.1644 81.0605 11.7412 81.0605C13.3975 81.0605 14.634 80.3641 15.7898 79.3453L15.9996 80.7924L18.103 80.7921ZM27.0503 80.7921H23.7066L19.6824 67.4585H22.6026L25.0995 75.6506L25.6546 78.1144C26.9179 74.5522 27.8115 70.9382 28.2584 67.4585H31.0989C30.3377 71.849 28.9682 76.6683 27.0503 80.7921ZM39.8778 77.7125C38.9043 78.5704 37.8764 79.0521 36.9554 79.0521C35.6432 79.0521 34.9312 78.2497 34.9312 76.9626C34.9312 75.5704 35.6938 74.5525 38.7461 74.5525H39.8778V77.7125ZM42.5584 80.7921V71.2593C42.5584 68.8239 41.191 67.2171 37.9053 67.2171C35.9838 67.2171 34.3011 67.6999 32.9345 68.3155L33.3287 70.0029C34.4054 69.6007 35.8014 69.2263 37.1679 69.2263C39.0614 69.2263 39.8778 70.003 39.8778 71.6088V72.8137H38.9303C34.3254 72.8137 32.2495 74.6331 32.2495 77.3639C32.2495 79.7208 33.6169 81.0605 36.1933 81.0605C37.8507 81.0605 39.0867 80.3641 40.2443 79.3453L40.4549 80.7924L42.5584 80.7921ZM4.85621 83.0563C4.09193 84.1923 2.8575 85.0911 1.50606 85.5996L0.182373 84.0137C1.21102 83.4764 2.09322 82.6085 2.5031 81.8003C2.85765 81.0813 3.0044 80.1548 3.0044 77.9389V62.7166H5.85279V77.7303C5.85264 80.6926 5.62002 81.8893 4.85621 83.0563Z" fill="white"/>
</g>
<defs>
<clipPath id="clip0_605_15547">
<rect width="44.9186" height="85.5996" fill="white" transform="translate(0.182373)"/>
</clipPath>
</defs>
</svg>
