<svg width="94" height="52" viewBox="0 0 94 52" fill="none" xmlns="http://www.w3.org/2000/svg">
<g clip-path="url(#clip0_605_15506)">
<mask id="mask0_605_15506" style="mask-type:luminance" maskUnits="userSpaceOnUse" x="1" y="2" width="91" height="49">
<path d="M1.0188 26.2235C1.0188 39.5634 21.3197 50.3778 46.3611 50.3778C71.4025 50.3778 91.7035 39.5634 91.7035 26.2235C91.7035 12.8837 71.4025 2.06911 46.3611 2.06911C21.3197 2.06911 1.0188 12.8837 1.0188 26.2235Z" fill="white"/>
</mask>
<g mask="url(#mask0_605_15506)">
<path d="M1.0188 26.2235C1.0188 39.5634 21.3197 50.3778 46.3611 50.3778C71.4025 50.3778 91.7035 39.5634 91.7035 26.2235C91.7035 12.8837 71.4025 2.06911 46.3611 2.06911C21.3197 2.06911 1.0188 12.8837 1.0188 26.2235Z" fill="white"/>
</g>
<mask id="mask1_605_15506" style="mask-type:luminance" maskUnits="userSpaceOnUse" x="-1" y="-1" width="95" height="54">
<path d="M-0.6763 -0.473415H93.3985V52.9204H-0.6763V-0.473415Z" fill="white"/>
</mask>
<g mask="url(#mask1_605_15506)">
<path d="M45.9374 48.6829C69.8088 48.6829 89.161 38.8172 89.161 26.6473C89.161 14.4776 69.8088 4.61177 45.9374 4.61177C22.066 4.61177 2.71384 14.4776 2.71384 26.6473C2.71384 38.8172 22.066 48.6829 45.9374 48.6829Z" fill="white"/>
</g>
<mask id="mask2_605_15506" style="mask-type:luminance" maskUnits="userSpaceOnUse" x="-1" y="-1" width="95" height="54">
<path d="M-0.6763 -0.473415H93.3985V52.9204H-0.6763V-0.473415Z" fill="white"/>
</mask>
<g mask="url(#mask2_605_15506)">
<path d="M25.4212 29.2345C27.4013 29.2345 28.8796 28.8742 29.8149 28.1638C30.7402 27.4607 31.3793 26.2426 31.7142 24.5434C32.0266 22.9552 31.9076 21.8462 31.3607 21.2478C30.8016 20.6365 29.5927 20.3265 27.7676 20.3265H24.6032L22.849 29.2345H25.4212ZM15.0713 40.2076C14.9244 40.2076 14.7849 40.1429 14.6915 40.0308C14.598 39.9189 14.5601 39.7715 14.5881 39.6291L19.2373 16.0226C19.2823 15.7944 19.485 15.6295 19.7207 15.6295H29.7409C32.89 15.6295 35.234 16.4734 36.7073 18.1379C38.1884 19.8111 38.6459 22.1501 38.0667 25.0896C37.831 26.2871 37.4256 27.3993 36.8619 28.3951C36.2975 29.392 35.5515 30.3144 34.6444 31.1371C33.5586 32.14 32.3297 32.8672 30.9951 33.2952C29.6816 33.7174 27.9948 33.9315 25.9815 33.9315H21.9241L20.7654 39.8144C20.7205 40.0428 20.518 40.2076 20.2823 40.2076H15.0713Z" fill="#111112"/>
<path d="M50.6162 34.275C50.4703 34.275 50.332 34.2102 50.2393 34.0982C50.1463 33.9862 50.1086 33.839 50.1365 33.6965L52.1778 23.2516C52.3719 22.2582 52.324 21.5453 52.043 21.244C51.871 21.0599 51.3543 20.751 49.8265 20.751H46.1284L43.5619 33.8818C43.5173 34.1101 43.3161 34.275 43.0822 34.275H37.9509C37.8049 34.275 37.6666 34.2102 37.5738 34.0982C37.4809 33.9862 37.4433 33.8389 37.4711 33.6965L42.0857 10.09C42.1304 9.8618 42.3315 9.69691 42.5655 9.69691H47.6968C47.8427 9.69691 47.981 9.7617 48.0739 9.87362C48.1667 9.9857 48.2043 10.1329 48.1765 10.2755L47.0629 15.973H51.0412C54.0719 15.973 56.1271 16.5043 57.3241 17.5972C58.5442 18.7122 58.9249 20.4949 58.4557 22.8965L56.3087 33.8818C56.2641 34.1101 56.0631 34.275 55.829 34.275H50.6162Z" fill="#111112"/>
<path d="M66.9497 29.2345C68.9298 29.2345 70.408 28.8742 71.3433 28.1638C72.2686 27.4609 72.9077 26.2427 73.2429 24.5434C73.5552 22.9552 73.4362 21.8462 72.8892 21.2478C72.33 20.6365 71.1211 20.3265 69.2961 20.3265H66.1317L64.3774 29.2345H66.9497ZM56.6 40.2076C56.4531 40.2076 56.3136 40.1429 56.2202 40.0308C56.1267 39.9189 56.0886 39.7715 56.1166 39.6291L60.7658 16.0226C60.811 15.7944 61.0135 15.6295 61.2493 15.6295H71.2693C74.4186 15.6295 76.7624 16.4734 78.2359 18.1379C79.7171 19.811 80.1743 22.1499 79.5953 25.0896C79.3593 26.2871 78.9541 27.3993 78.3903 28.3951C77.8259 29.392 77.08 30.3144 76.1729 31.1371C75.0871 32.14 73.8581 32.8672 72.5235 33.2952C71.2101 33.7174 69.5233 33.9315 67.51 33.9315H63.4525L62.2943 39.8144C62.2491 40.0428 62.0466 40.2076 61.8108 40.2076H56.6Z" fill="#111112"/>
</g>
</g>
<defs>
<clipPath id="clip0_605_15506">
<rect width="93.2273" height="50.8513" fill="white" transform="translate(0.171173 0.374146)"/>
</clipPath>
</defs>
</svg>
