<svg width="117" height="31" viewBox="0 0 117 31" fill="none" xmlns="http://www.w3.org/2000/svg">
<g clip-path="url(#clip0_605_15574)">
<path d="M43.8408 16.344C43.8408 12.7378 42.8242 10.8865 40.7909 10.7852C39.9818 10.7466 39.1922 10.8768 38.4237 11.1787C37.8104 11.4006 37.3976 11.6205 37.1805 11.8426V20.4501C38.481 21.2757 39.6358 21.6595 40.6431 21.5991C42.7738 21.4562 43.8408 19.7064 43.8408 16.344ZM46.3488 16.4935C46.3488 18.3256 45.924 19.8463 45.0696 21.0556C44.1174 22.4243 42.7978 23.129 41.1107 23.1677C39.8388 23.2085 38.5285 22.8056 37.1802 21.9607V29.7839L34.999 28.9969V11.6324C35.357 11.1883 35.8177 10.807 36.3759 10.4833C37.6743 9.71811 39.2515 9.32486 41.1082 9.30554L41.1391 9.33674C42.836 9.3152 44.1434 10.02 45.0622 11.4489C45.9191 12.7596 46.3488 14.4396 46.3488 16.4935ZM59.679 21.6279C59.679 24.0852 59.4356 25.7867 58.9489 26.7329C58.4598 27.6789 57.5289 28.4345 56.1544 28.9971C55.04 29.4411 53.8347 29.6826 52.5415 29.7237L52.1809 28.3334C53.4959 28.1527 54.4218 27.9714 54.9587 27.7904C56.0159 27.4283 56.7413 26.8734 57.1399 26.1297C57.4596 25.524 57.6171 24.3677 57.6171 22.6565V22.082C56.1256 22.7677 54.5626 23.108 52.9281 23.108C51.854 23.108 50.9068 22.7677 50.0905 22.082C49.1741 21.3361 48.7161 20.3901 48.7161 19.2436V10.0611L50.8972 9.30554V18.5477C50.8972 19.5348 51.2121 20.2953 51.842 20.8287C52.472 21.3621 53.2882 21.6182 54.2881 21.5986C55.288 21.5768 56.3594 21.1858 57.4976 20.4206V9.63837H59.6788L59.679 21.6279ZM68.1934 23.0471C67.9545 23.0675 67.7149 23.0779 67.4751 23.0783C66.2414 23.0783 65.2795 22.7816 64.5925 22.1853C63.9074 21.5892 63.564 20.7663 63.564 19.7161V11.0264H62.07V9.63862H63.564V5.95275L65.7427 5.16822V9.63862H68.1934V11.0264H65.7427V19.6556C65.7427 20.4838 65.9621 21.0702 66.401 21.4131C66.7781 21.6955 67.3772 21.8572 68.1932 21.8983V23.0471H68.1934ZM81.3997 22.8661H79.2186V14.3502C79.2186 13.4837 79.0183 12.7378 78.6197 12.1153C78.1592 11.4102 77.5197 11.0578 76.6985 11.0578C75.6987 11.0578 74.4483 11.5913 72.9473 12.6581V22.8661H70.7663V2.5108L72.9473 1.81567V11.0868C74.3408 10.0608 75.8634 9.54674 77.5173 9.54674C78.6724 9.54674 79.6076 9.94024 80.3237 10.7248C81.042 11.509 81.4 12.4867 81.4 13.6551L81.3997 22.8661ZM92.9926 15.9965C92.9926 14.611 92.7326 13.4669 92.2146 12.5618C91.5988 11.4588 90.642 10.8768 89.3486 10.8166C86.9574 10.9566 85.7641 12.6895 85.7641 16.0111C85.7641 17.5341 86.0123 18.8062 86.5135 19.8273C87.153 21.1284 88.1125 21.7705 89.3917 21.7487C91.7922 21.7291 92.9926 19.8127 92.9926 15.9965ZM95.3814 16.0109C95.3814 17.9831 94.8827 19.6244 93.8875 20.935C92.7919 22.4027 91.2793 23.1387 89.3486 23.1387C87.4348 23.1387 85.9433 22.4025 84.867 20.935C83.8909 19.6244 83.4039 17.9831 83.4039 16.0109C83.4039 14.1573 83.9313 12.5979 84.9862 11.3283C86.1007 9.98135 87.5658 9.30554 89.3773 9.30554C91.1883 9.30554 92.6631 9.98135 93.7991 11.3283C94.8541 12.5979 95.3814 14.1573 95.3814 16.0109ZM107.886 22.8661H105.705V13.8676C105.705 12.8805 105.411 12.1103 104.824 11.5551C104.237 11.0024 103.454 10.7344 102.478 10.756C101.443 10.7753 100.457 11.118 99.5217 11.7819V22.8661H97.3406V11.5093C98.5958 10.5851 99.7509 9.98135 100.806 9.69904C101.801 9.43605 102.679 9.30554 103.435 9.30554C103.953 9.30554 104.44 9.35606 104.898 9.45759C105.755 9.65793 106.452 10.0296 106.989 10.5752C107.588 11.1787 107.886 11.9025 107.886 12.75V22.8661Z" fill="white"/>
<path d="M13.825 2.66345C12.6919 2.66859 11.6101 2.7643 10.6582 2.93124C7.85383 3.42203 7.34466 4.4489 7.34466 6.34303V8.84447H13.9718V9.6782H4.85739C2.93144 9.6782 1.24475 10.8248 0.71729 13.0058C0.108757 15.5058 0.0818155 17.0658 0.71729 19.6761C1.1884 21.6192 2.31351 23.0037 4.23946 23.0037H6.51812V20.0051C6.51812 17.8388 8.4107 15.928 10.6582 15.928H17.2777C19.1203 15.928 20.5912 14.4255 20.5912 12.5928V6.34279C20.5912 4.56419 19.0761 3.22792 17.2777 2.931C16.139 2.74349 14.958 2.65806 13.825 2.66345ZM10.241 4.67508C10.9257 4.67508 11.4845 5.23783 11.4845 5.92959C11.4845 6.6189 10.9254 7.17652 10.241 7.17652C9.55411 7.17652 8.99748 6.61915 8.99748 5.92959C8.99748 5.23783 9.55411 4.67508 10.241 4.67508Z" fill="white"/>
<path d="M21.0755 9.44336V12.3356C21.0755 14.5781 19.1451 16.4654 16.9438 16.4654H10.3377C8.52817 16.4654 7.03088 17.9904 7.03088 19.7752V25.9773C7.03088 27.7427 8.58934 28.7809 10.3377 29.2872C12.4312 29.8935 14.4389 30.0031 16.9438 29.2872C18.6088 28.8125 20.2506 27.8568 20.2506 25.9773V23.4951H13.6446V22.6677H23.5575C25.4798 22.6677 26.1959 21.3472 26.8643 19.3654C27.555 17.3253 27.5257 15.363 26.8643 12.7457C26.3892 10.8613 25.482 9.44336 23.5575 9.44336H21.0755ZM17.3599 25.1499C18.0454 25.1499 18.6009 25.7031 18.6009 26.3874C18.6009 27.0739 18.0454 27.6324 17.3599 27.6324C16.6766 27.6324 16.1189 27.0739 16.1189 26.3874C16.1189 25.7033 16.6769 25.1499 17.3599 25.1499Z" fill="white"/>
<path d="M112.192 7.74825H112.579V5.47655H113.495V5.20569H111.276V5.47655H112.192L112.192 7.74825ZM113.838 7.74825H114.168V5.67343L114.885 7.74802H115.253L116.001 5.68039V7.74825H116.361V5.20592H115.884L115.067 7.38417L114.371 5.20592H113.838V7.74825Z" fill="white"/>
</g>
<defs>
<clipPath id="clip0_605_15574">
<rect width="116.11" height="29.6632" fill="white" transform="translate(0.250732 0.96814)"/>
</clipPath>
</defs>
</svg>
