<svg width="74" height="74" viewBox="0 0 74 74" fill="none" xmlns="http://www.w3.org/2000/svg">
<path d="M25.5358 66.7797C25.4327 66.7797 25.3213 66.7536 25.244 66.6491L21.9328 62.2946V66.7362H21.1777V61.2668C21.1777 61.0492 21.3579 60.875 21.564 60.875C21.6839 60.875 21.787 60.9098 21.864 61.0143L25.1667 65.3602V60.9359H25.9218V66.3965C25.9218 66.623 25.7416 66.7797 25.5358 66.7797Z" fill="#1A1918"/>
<path d="M31.782 66.8348C31.0272 66.8348 30.2378 66.678 29.5 66.3994L29.6802 65.7723C30.358 65.99 31.0957 66.1468 31.782 66.1468C32.7343 66.1468 33.2318 65.8071 33.2318 65.3282C33.2318 64.8927 32.8456 64.675 31.516 64.0479C30.1863 63.4208 29.6632 63.0203 29.6632 62.2363C29.6632 61.2524 30.418 60.8516 31.8419 60.8516C32.4339 60.8516 33.3432 60.9736 33.8667 61.1304L33.7465 61.7748C33.1716 61.6355 32.4512 61.5397 31.8591 61.5397C30.8556 61.5397 30.4438 61.7312 30.4438 62.2103C30.4438 62.6805 30.7439 62.8809 32.1508 63.5341C33.635 64.2221 34.0124 64.5706 34.0124 65.2846C34.0124 66.3211 33.0343 66.8348 31.782 66.8348Z" fill="#1A1918"/>
<path d="M37.5898 60.9375H38.3705V66.7377H37.5898V60.9375Z" fill="#1A1918"/>
<path d="M45.0106 64.1076H43.0716V66.076H45.0106C45.6711 66.076 46.0742 65.6579 46.0742 65.0742C46.0742 64.5256 45.654 64.1076 45.0106 64.1076ZM44.6329 61.5993H43.0716V63.4544H44.6329C45.2593 63.4544 45.7139 63.0537 45.7139 62.4964C45.7139 61.9477 45.3192 61.5993 44.6329 61.5993ZM45.0191 66.7377H42.6858C42.4626 66.7377 42.291 66.5634 42.291 66.3458V61.3294C42.291 61.1203 42.4626 60.9375 42.6858 60.9375H44.6159C45.7997 60.9375 46.5031 61.521 46.5031 62.4355C46.5031 62.9318 46.2114 63.3934 45.7652 63.6634C46.4261 63.8637 46.8719 64.4124 46.8719 65.0742C46.8719 65.9974 46.1086 66.7377 45.0191 66.7377Z" fill="#1A1918"/>
<path d="M50.6221 66.7377C50.408 66.7377 50.2363 66.5548 50.2363 66.3458V60.9375H51.0168V66.0323H54.1223V66.7377H50.6221Z" fill="#1A1918"/>
<path d="M59.4432 66.8348C57.8475 66.8348 56.8867 66.2427 56.8867 65.0495C56.8867 64.4834 57.2042 63.9435 57.8219 63.6909C57.3243 63.3773 57.067 62.9332 57.067 62.4455C57.067 61.3656 57.8994 60.8516 59.4605 60.8516C59.9839 60.8516 60.7215 60.9126 61.3393 61.0521L61.2534 61.6964C60.6016 61.5919 59.9922 61.5311 59.4004 61.5311C58.3881 61.5311 57.8475 61.8097 57.8475 62.4803C57.8475 63.0117 58.3452 63.4296 59.0059 63.4296H60.344C60.5328 63.4296 60.6785 63.5777 60.6785 63.7605C60.6785 63.9521 60.5328 64.1002 60.344 64.1002H58.903C58.1479 64.1002 57.6677 64.4746 57.6677 65.0495C57.6677 65.8943 58.4484 66.1468 59.4263 66.1468C59.9582 66.1468 60.6785 66.0773 61.2618 65.9379L61.3736 66.5736C60.8159 66.7304 60.0866 66.8348 59.4432 66.8348Z" fill="#1A1918"/>
<path d="M15.3693 62.0247L16.7364 65.4503L14.6716 63.799L15.3693 62.0247ZM17.7981 66.2395L15.6953 61.1015C15.6353 60.9534 15.5151 60.875 15.3693 60.875C15.2234 60.875 15.0947 60.9534 15.0347 61.1015L12.7266 66.7372H13.516L14.4298 64.4137L17.1563 66.65C17.266 66.74 17.3451 66.7807 17.4482 66.7807C17.654 66.7807 17.8341 66.624 17.8341 66.3976C17.8341 66.3608 17.8212 66.3024 17.7981 66.2395Z" fill="#1A1918"/>
<path d="M61.415 31.353C61.415 44.773 50.5369 55.6511 37.1167 55.6511C23.6976 55.6511 12.8184 44.773 12.8184 31.353C12.8184 17.9339 23.6976 7.05469 37.1167 7.05469C50.5369 7.05469 61.415 17.9339 61.415 31.353Z" fill="#1A1918"/>
<path d="M37.5266 21.8963L43.8145 37.4156L34.3167 29.9341L37.5266 21.8963ZM48.6969 40.9906L39.0248 17.714C38.7487 17.0427 38.1966 16.6875 37.5266 16.6875C36.8553 16.6875 36.263 17.0427 35.9869 17.714L25.3711 43.2455H29.0026L33.2049 32.7188L45.7457 42.8502C46.25 43.2581 46.614 43.4425 47.087 43.4425C48.0344 43.4425 48.8625 42.7323 48.8625 41.7071C48.8625 41.5402 48.8036 41.2754 48.6969 40.9906Z" fill="white"/>
</svg>
