<svg width="74" height="74" viewBox="0 0 74 74" fill="none" xmlns="http://www.w3.org/2000/svg">
<path d="M55.1818 43.6109H27.0829L33.6938 27.0826H44.6036L46.9177 22.125H37.0003L33.6938 17.1674L37.0003 12.2076H46.9177L44.6036 7.25H33.6938L26.4221 17.1674L29.3971 22.125L9.56443 46.9174C8.11975 48.8243 7.31031 51.1367 7.2503 53.5283C7.23196 55.8915 8.05228 58.1848 9.56543 60.0002C11.0786 61.8157 13.1865 63.0358 15.5144 63.4435C15.5144 63.4435 50.2221 66.75 55.1818 66.75C58.2231 66.7088 61.1258 65.4717 63.2619 63.3065C65.398 61.1412 66.5956 58.222 66.5956 55.1804C66.5956 52.1389 65.398 49.2196 63.2619 47.0544C61.1258 44.8892 58.2231 43.6521 55.1818 43.6109ZM17.1677 58.4859C16.5079 58.4995 15.8519 58.3814 15.2384 58.1383C14.6248 57.8953 14.0659 57.5322 13.5944 57.0704C13.123 56.6086 12.7484 56.0573 12.4927 55.4489C12.237 54.8405 12.1053 54.1871 12.1053 53.5272C12.1053 52.8672 12.237 52.2139 12.4927 51.6055C12.7484 50.9971 13.123 50.4458 13.5944 49.984C14.0659 49.5222 14.6248 49.1591 15.2384 48.9161C15.8519 48.673 16.5079 48.5548 17.1677 48.5685C18.465 48.5954 19.7002 49.1296 20.6082 50.0566C21.5162 50.9836 22.0248 52.2296 22.0248 53.5272C22.0248 54.8248 21.5162 56.0708 20.6082 56.9978C19.7002 57.9248 18.465 58.459 17.1677 58.4859ZM55.1818 61.7924C53.8737 61.7928 52.5948 61.4053 51.507 60.6788C50.4192 59.9523 49.5713 58.9195 49.0705 57.711C48.5697 56.5026 48.4385 55.1728 48.6936 53.8898C48.9487 52.6068 49.5786 51.4283 50.5036 50.5033C51.4286 49.5783 52.6071 48.9484 53.8901 48.6933C55.1731 48.4382 56.5029 48.5694 57.7113 49.0702C58.9198 49.571 59.9526 50.4189 60.6791 51.5067C61.4056 52.5945 61.7931 53.8734 61.7927 55.1815C61.7876 56.9333 61.0895 58.6118 59.8508 59.8505C58.6121 61.0892 56.9336 61.7873 55.1818 61.7924Z" fill="#32B0E7"/>
</svg>
