<svg width="74" height="74" viewBox="0 0 74 74" fill="none" xmlns="http://www.w3.org/2000/svg">
<path d="M59.7938 19.2254L40.8946 8.00476C38.6484 6.66508 35.8484 6.66508 33.6022 8.00476L14.6992 19.2254C12.4255 20.5971 11.0411 23.064 11.0548 25.7194V48.1569C11.0424 50.811 12.4266 53.2761 14.6992 54.6471L33.5984 65.864C35.8449 67.2028 38.6444 67.2028 40.8909 65.864L59.79 54.6471C62.0652 53.2764 63.4511 50.8094 63.4382 48.1531V25.7194C63.4519 23.064 62.0676 20.5971 59.7938 19.2254Z" fill="white"/>
<path d="M59.9011 19.2523L40.9604 8.00698C38.7092 6.66434 35.903 6.66434 33.6518 8.00698L14.7073 19.2523C12.4285 20.6271 11.0411 23.0993 11.0548 25.7606V48.2476C11.0424 50.9075 12.4297 53.378 14.7073 54.7521L33.648 65.9936C35.8995 67.3354 38.7052 67.3354 40.9566 65.9936L59.8973 54.7521C62.1776 53.3783 63.5665 50.9058 63.5536 48.2438V25.7606C63.5673 23.0993 62.1799 20.6271 59.9011 19.2523ZM34.3118 64.8445L15.371 53.6029C13.4992 52.4687 12.3592 50.4361 12.3671 48.2476V25.7606C12.3584 23.5719 13.4987 21.539 15.371 20.4053L34.3118 9.15996C36.1552 8.06021 38.4532 8.06021 40.2966 9.15996L59.2222 20.4053C60.7824 21.3503 61.8467 22.9349 62.1312 24.7366C61.5017 23.3978 60.087 23.0299 58.4372 23.9781L40.5318 35.0679C38.2979 36.3688 36.6519 37.8366 36.6481 40.5294V62.6106C36.6481 64.2225 37.2966 65.2654 38.2979 65.5727C37.97 65.6327 37.6375 65.6645 37.3042 65.6675C36.2509 65.6667 35.2173 65.3824 34.3118 64.8445Z" fill="#2F3A3E"/>
<path d="M54.8844 50.3742L50.1766 53.1898C50.0506 53.2404 49.9661 53.3605 49.9609 53.4963V54.7338C49.9609 54.8851 50.0631 54.9457 50.188 54.8738L54.9677 51.9674C55.0847 51.8797 55.1407 51.7323 55.1115 51.589V50.5028C55.1077 50.3628 54.9979 50.3023 54.8844 50.3742Z" fill="#3AB14A"/>
<path d="M44.8662 40.0051C45.0176 39.9294 45.1425 40.0051 45.1462 40.2208L45.1614 41.8633C45.7275 41.6061 46.3591 41.5294 46.9703 41.6438C47.0876 41.674 47.1368 41.833 47.0914 42.0222L46.7319 43.464C46.7046 43.5729 46.6484 43.6722 46.5692 43.7517C46.5413 43.7791 46.5094 43.8021 46.4745 43.8198C46.4318 43.8429 46.3824 43.8509 46.3345 43.8425C45.7385 43.7105 45.1147 43.8106 44.5899 44.1225C43.8227 44.4682 43.3211 45.2227 43.2995 46.0639C43.2995 46.8208 43.6779 47.0289 44.9986 47.0516C46.7432 47.0819 47.5001 47.8426 47.519 49.6023C47.4775 51.4391 46.6306 53.1648 45.203 54.3214L45.2333 55.9335C45.2306 56.1338 45.1266 56.319 44.957 56.4255L44.0034 56.9742C43.852 57.0499 43.7271 56.9742 43.7233 56.7623V55.1767C42.9059 55.5173 42.0771 55.5967 41.5473 55.3848C41.4489 55.347 41.4035 55.1994 41.4451 55.0291L41.7895 53.5721C41.8157 53.4568 41.8749 53.3516 41.9598 53.2693C41.9867 53.2435 42.0173 53.2219 42.0506 53.205C42.1 53.1828 42.1564 53.1828 42.2058 53.205C42.8804 53.3879 43.6 53.2968 44.2077 52.9515C45.0847 52.5285 45.6546 51.6539 45.6874 50.6808C45.6874 49.8634 45.2371 49.5228 44.1737 49.5152C42.7999 49.5152 41.5246 49.2503 41.4981 47.2446C41.5297 45.4924 42.3432 43.846 43.7157 42.7564L43.6476 41.1064C43.647 40.9033 43.7515 40.7143 43.9239 40.6068L44.8662 40.0051Z" fill="white"/>
</svg>
