<svg width="68" height="68" viewBox="0 0 68 68" fill="none" xmlns="http://www.w3.org/2000/svg">
<g clip-path="url(#clip0_1307_551)">
<path d="M20.5272 18.5724L20.3668 18.4205C20.3484 18.4031 20.3301 18.3855 20.3118 18.3679C18.8099 16.9251 17.6476 15.2568 16.9456 13.2849C16.7572 12.756 16.6132 12.217 16.6246 11.6498L16.627 11.5757C16.6295 11.5193 16.6294 11.4627 16.6333 11.4064C16.6862 10.6391 17.1998 10.2514 17.9496 10.4331C18.1861 10.4943 18.415 10.5821 18.6318 10.6946C19.4247 11.0922 20.0758 11.6736 20.6736 12.3143L20.7353 12.3808C21.8271 13.5427 22.7028 14.8903 23.321 16.3601C23.3344 16.3951 23.3499 16.4293 23.3673 16.4626C23.3701 16.4677 23.374 16.4722 23.3794 16.4773L23.4213 16.5131C23.4252 16.5166 23.4294 16.5203 23.4339 16.5243C26.3603 14.7687 29.6707 13.7529 33.0782 13.565L33.0696 13.5218L33.0475 13.4061C33.0428 13.3822 33.0381 13.3592 33.0329 13.3367L33.0249 13.3032C32.6772 11.8643 32.5705 10.3778 32.7091 8.90403C32.7701 8.02088 32.948 7.14972 33.2381 6.31337C33.3785 5.87286 33.5995 5.46229 33.89 5.10261C33.9998 4.97414 34.1264 4.86115 34.2666 4.76675C34.5525 4.56459 34.934 4.56193 35.2227 4.76009C35.5205 4.96181 35.7603 5.23811 35.9179 5.56142C36.2116 6.10974 36.4227 6.69843 36.5443 7.30845C36.8216 8.59838 36.9067 9.92222 36.797 11.237C36.7426 12.0395 36.6034 12.834 36.3815 13.6071C36.5228 13.6332 36.6639 13.6582 36.8049 13.6828L37.4381 13.792C37.9292 13.8772 38.417 13.9661 38.8988 14.0806C39.7228 14.2722 40.5352 14.5108 41.3319 14.7952C42.1352 15.09 42.921 15.4306 43.6853 15.8152C44.1259 16.0349 44.5541 16.2795 44.9841 16.5301L45.3535 16.7459C45.5387 16.8542 45.7249 16.9626 45.9134 17.0696L45.9292 17.0376L45.9645 16.9673C45.9763 16.9428 45.9878 16.9171 45.9974 16.8908C46.7825 14.719 48.1348 12.797 49.9138 11.3245C50.329 10.968 50.8059 10.6903 51.321 10.5051C51.4628 10.4557 51.6096 10.422 51.7588 10.4045C52.5045 10.3192 52.8175 10.7884 52.8726 11.3487C52.9139 11.7618 52.8827 12.1789 52.7805 12.5813C52.5179 13.5835 52.1079 14.541 51.5642 15.4224L51.5032 15.52C50.7152 16.7934 49.7834 17.9436 48.6072 18.8802L48.5163 18.9518C48.5083 18.9581 48.5005 18.9646 48.4926 18.9715L48.4546 19.0067L48.407 19.0518C48.4009 19.0575 48.3945 19.0635 48.3877 19.0697C49.5803 20.1697 50.6425 21.4032 51.5532 22.7458C51.4872 22.7629 51.42 22.7747 51.3522 22.7813C50.0909 22.783 48.8297 22.7791 47.5685 22.7867C47.4179 22.7831 47.2779 22.7085 47.1909 22.5856C44.4391 19.5791 40.7293 17.6208 36.6946 17.0447C35.5511 16.8783 34.3939 16.8285 33.2406 16.896L33.0902 16.9055C29.5402 17.1222 26.1423 18.4199 23.3523 20.6229L23.2653 20.6921C22.5407 21.2636 21.8648 21.8944 21.2446 22.5778C21.133 22.7163 20.9624 22.7938 20.7847 22.787C20.0619 22.782 19.339 22.7815 18.6162 22.7819L16.9143 22.7828C16.9199 22.7608 16.9295 22.7344 16.9428 22.7041L16.9605 22.6659C16.967 22.6526 16.9741 22.6386 16.9817 22.6241L17.0062 22.5788L17.0339 22.5301L17.0648 22.4783L17.0987 22.4234L17.1356 22.3656L17.1961 22.2738L17.2628 22.1764L17.3104 22.1085L17.3865 22.0026C17.3952 21.9906 17.404 21.9785 17.413 21.9663L17.4958 21.8548L17.5537 21.7783L17.6135 21.7003L17.7068 21.5808L17.8041 21.4588L17.871 21.3763L17.9393 21.293L18.0091 21.209L18.0801 21.1246L18.1524 21.0399L18.2628 20.9125L18.3377 20.8275L18.4134 20.7428L18.4898 20.6583L18.5669 20.5744C18.942 20.1688 19.3305 19.7756 19.7266 19.3781L20.125 18.9785C20.2585 18.8444 20.3927 18.7093 20.5272 18.5724ZM51.2384 45.567C50.4005 46.7398 49.4442 47.8233 48.3847 48.8004L48.6064 48.985C50.4454 50.4894 51.833 52.4727 52.6159 54.716C52.8242 55.2631 52.9135 55.8483 52.878 56.4325C52.8684 56.5635 52.8443 56.693 52.8062 56.8185L52.789 56.872C52.6637 57.2888 52.2464 57.5457 51.8179 57.47C51.5385 57.4337 51.2668 57.3531 51.0129 57.2311C50.625 57.0398 50.2587 56.8078 49.9199 56.5389C48.1632 55.0956 46.8229 53.2109 46.0359 51.0792L45.9841 50.938L45.9134 50.7557C44.9633 51.3839 43.9681 51.9413 42.936 52.4231C41.909 52.8913 40.8468 53.2783 39.7594 53.5807C38.6544 53.8805 37.528 54.095 36.3901 54.222L36.4056 54.3032L36.4193 54.3769C36.4239 54.4006 36.4286 54.4233 36.4339 54.4457L36.4422 54.479C36.8031 55.8949 36.9226 57.3615 36.7958 58.8171C36.7483 59.7294 36.571 60.6303 36.2693 61.4927C36.1257 61.8496 35.9602 62.1972 35.7736 62.5336C35.698 62.6641 35.6043 62.7831 35.4952 62.8872C35.0214 63.3764 34.4558 63.3805 33.994 62.8785C33.8115 62.676 33.6552 62.4513 33.5289 62.2098C33.1627 61.5222 32.9742 60.7747 32.8396 60.0123C32.6664 58.9718 32.6121 57.9149 32.6778 56.8621C32.7115 56.1364 32.8154 55.4158 32.988 54.7104L33.0212 54.5784C33.0379 54.5149 33.0531 54.451 33.0654 54.3867C33.0668 54.3794 33.0654 54.3716 33.0624 54.3606L33.0492 54.3151C33.0479 54.31 33.0465 54.3046 33.0451 54.2988C29.6381 54.1062 26.3296 53.085 23.4069 51.3236L23.2962 51.5688C23.2893 51.5842 23.2825 51.5995 23.2758 51.6148C22.4711 53.4924 21.2402 55.1563 19.6813 56.475L19.5975 56.5453C19.1743 56.9069 18.6882 57.1877 18.1634 57.3736C17.9175 57.4723 17.6492 57.5011 17.3879 57.457C17.1049 57.4063 16.8677 57.2158 16.7565 56.9522L16.7447 56.9226C16.5896 56.5477 16.6025 56.1589 16.6501 55.7717L16.6633 55.6707C16.7572 55.0848 16.9296 54.5143 17.176 53.9744C17.9061 52.2741 18.9806 50.7436 20.3318 49.4793L20.4418 49.3766C20.4601 49.3595 20.4783 49.3422 20.4962 49.3246C20.5132 49.3001 20.5278 49.274 20.5396 49.2466C19.2665 48.1425 18.129 46.8911 17.1508 45.5188L17.1885 45.5155L17.3169 45.5032C17.3551 45.4997 17.39 45.4973 17.4249 45.4973C18.4261 45.4964 19.4274 45.499 20.4286 45.4958L21.1796 45.4921C21.3482 45.487 21.5101 45.5581 21.6204 45.6857C22.9501 47.0537 24.4944 48.1947 26.1921 49.0638L26.3107 49.124C28.1562 50.0737 30.1628 50.6701 32.2273 50.8826C37.8363 51.4278 42.6612 49.7274 46.702 45.7814C46.885 45.5836 47.1462 45.4771 47.4153 45.4905C47.9987 45.4978 48.5821 45.4992 49.1655 45.4989L50.3325 45.497C50.5269 45.4967 50.7214 45.4965 50.9159 45.4965H51.2175L51.2384 45.567Z" fill="#0F1689"/>
<path d="M46.025 27.6945C46.0987 27.6945 46.1719 27.6956 46.2444 27.697L46.4607 27.7014C46.604 27.7038 46.7455 27.7043 46.8859 27.6962L46.991 27.6885C47.3475 27.6563 47.6027 27.7838 47.8627 28.0234C49.1139 29.1763 50.3759 30.3173 51.6368 31.4596L52.4217 32.1711L52.5106 32.25L52.6442 32.3679L52.8023 32.2334C52.8362 32.2044 52.8694 32.1754 52.9019 32.1458C54.4604 30.7271 56.0177 29.3072 57.5739 27.8859C57.6968 27.7593 57.8657 27.6885 58.0413 27.6891L58.0743 27.69C58.3137 27.6997 58.5536 27.6991 58.7985 27.6972L59.0951 27.6949C59.145 27.6947 59.1952 27.6945 59.2457 27.6945V40.2371C59.2408 40.2386 59.2343 40.24 59.2265 40.2414L59.1988 40.2454L59.1631 40.2494L59.1198 40.2531L59.0692 40.2566L58.9807 40.2616L58.8031 40.2691L58.5935 40.2753L58.3583 40.2803L57.9987 40.2852L57.6744 40.2874L57.3473 40.2876L57.1331 40.2866L56.8758 40.2841L56.6823 40.2811L56.5466 40.2781L56.4205 40.2747L56.2697 40.2692L56.1716 40.2644L56.0877 40.2591L56.0405 40.2552L56.0006 40.2511C55.9946 40.2504 55.9889 40.2497 55.9836 40.2489L55.9557 40.2444V33.8924L55.8918 33.8621L52.6495 36.8191L49.381 33.8746L49.3186 33.8975L49.3171 34.4277L49.3174 35.4881L49.3171 36.2784L49.3173 40.2675H46.0524C46.0493 40.2569 46.0464 40.2178 46.0435 40.1528L46.04 40.0626L46.0367 39.9488L46.0319 39.7359L46.0273 39.4758L46.0215 39.0616L46.0148 38.4479L46.0056 37.2836L45.9992 36.1277L45.9938 34.7118L45.9906 33.08L45.9902 32.0156L45.9919 30.6833L45.9944 29.9287L45.999 29.1306L46.004 28.5746L46.009 28.2133L46.0133 27.9967L46.0164 27.8802L46.0197 27.7873L46.0232 27.719C46.0238 27.7098 46.0244 27.7016 46.025 27.6945ZM15.897 27.7089H19.1422C19.1449 27.7172 19.1474 27.7445 19.1499 27.7892L19.1535 27.8692L19.1569 27.9742L19.1603 28.1031L19.1651 28.3387L19.1724 28.8348L19.1776 29.3146L19.1833 30.003L19.1905 31.2679L19.1938 32.133L19.1974 33.7692L19.198 34.874L19.1969 36.1299L19.1948 36.9797L19.1909 37.9195L19.1865 38.6153L19.1797 39.3188L19.1757 39.6079L19.1728 39.7748L19.1697 39.9198L19.1664 40.0417L19.163 40.1393L19.1593 40.2116C19.1575 40.2413 19.1555 40.261 19.1535 40.2701H15.9053C15.8951 39.8141 15.8947 39.359 15.8959 38.9044L15.8976 38.2227C15.8978 38.1092 15.8978 37.9956 15.8974 37.8821L15.8967 37.5442L15.8963 36.8669L15.897 35.4966H11.875V40.2272C11.8689 40.229 11.8612 40.2308 11.852 40.2326L11.8199 40.2377L11.7794 40.2425L11.7036 40.2494L11.6437 40.2536L11.5039 40.2614L11.3832 40.2665L11.2043 40.2724L11.0586 40.2762L10.852 40.2804L10.5236 40.2847L10.184 40.2867L9.90176 40.2866L9.62796 40.2849L9.32093 40.2806L9.13518 40.2764L8.96897 40.2711L8.8594 40.2665L8.79442 40.263L8.73644 40.2593L8.66364 40.2533C8.65654 40.2526 8.64979 40.2519 8.64338 40.2511L8.60924 40.2466C8.59932 40.2451 8.59087 40.2435 8.58398 40.2418V27.7103H11.862V32.1371C11.8669 32.1385 11.8733 32.1399 11.881 32.1413L11.9082 32.1453L11.9432 32.1492L12.0097 32.1548L12.0918 32.16L12.2236 32.1665L12.3376 32.1709L12.4633 32.1749L12.7448 32.182L13.1136 32.1883L13.3383 32.191L13.6868 32.1937L14.0408 32.1949L14.5046 32.194L14.7806 32.192L15.0395 32.1887L15.2755 32.1843L15.4833 32.1787L15.6573 32.1719L15.7432 32.1672L15.8138 32.1621L15.8517 32.1584C15.8574 32.1578 15.8627 32.1571 15.8678 32.1565L15.894 32.1525L15.8963 31.3442C15.8965 31.2536 15.8967 31.1629 15.8968 31.0721L15.8972 30.5075L15.897 27.7089ZM23.0321 40.2654V27.746C23.0379 27.7441 23.0499 27.7423 23.0678 27.7405L23.1113 27.7369C23.1199 27.7363 23.129 27.7357 23.1388 27.7351L23.2428 27.73L23.3777 27.7251L23.5413 27.7204L23.8002 27.7146L24.1009 27.7093L24.4382 27.7044L25.3038 27.6952L25.7239 27.692L26.7137 27.6869L27.4958 27.685L28.3635 27.6852L29.0685 27.6876L29.6102 27.6914L30.0039 27.6958L30.3344 27.7014L30.4466 27.7039L30.5915 27.7082L30.7062 27.7128L30.7648 27.7162L30.8085 27.7198C30.8144 27.7204 30.8198 27.721 30.8244 27.7217V30.3898C30.7198 30.3973 30.6119 30.4116 30.5039 30.4117L28.5983 30.4132L26.3394 30.4128V32.488H30.3089V35.2486H26.3749C26.3694 35.2687 26.3641 35.2988 26.3592 35.3375L26.3536 35.3879L26.3482 35.446L26.3409 35.5459L26.3364 35.6203L26.3305 35.7419L26.3253 35.8738L26.3199 36.062L26.3168 36.2097L26.3146 36.361L26.3132 36.5643L26.3138 36.8145L26.3155 36.9589L26.3172 37.0514L26.3193 37.1403L26.3233 37.2655L26.3284 37.379L26.3324 37.4472L26.3368 37.5088L26.3418 37.563C26.3426 37.5714 26.3435 37.5795 26.3444 37.5872C26.445 37.5939 26.5528 37.6074 26.6605 37.6075L28.5661 37.6088L30.8252 37.6085V40.2654H23.0321ZM34.5437 40.2702C34.5413 40.2568 34.539 40.2247 34.5369 40.1754L34.5337 40.0889L34.5308 39.9777L34.5279 39.8431L34.524 39.5995L34.5205 39.3094L34.5145 38.6049L34.5106 37.9091L34.5068 36.8046L34.5046 35.2316L34.506 33.2147L34.5102 31.6095L34.5163 30.306L34.5223 29.4498L34.5281 28.8403L34.5333 28.4334L34.5361 28.2599L34.5405 28.0404L34.5436 27.9228L34.5468 27.8294L34.5501 27.7616C34.5518 27.7342 34.5535 27.7168 34.5553 27.7099H37.7886V36.9667L37.888 36.9725L37.979 36.9783L38.0644 36.9827C38.0922 36.9838 38.1196 36.9845 38.1469 36.9845L40.0668 36.9856L42.3326 36.9853V40.2702H34.5437Z" fill="#0F1689"/>
</g>
<defs>
<clipPath id="clip0_1307_551">
<rect width="58.7755" height="58.7755" fill="white" transform="translate(4.6123 4.61328)"/>
</clipPath>
</defs>
</svg>
