<svg width="74" height="74" viewBox="0 0 74 74" fill="none" xmlns="http://www.w3.org/2000/svg">
<path fill-rule="evenodd" clip-rule="evenodd" d="M13.6199 16.6448C14.4447 12.4664 17.9902 9.25 22.3397 9.25H58.9324C58.9323 9.25 58.9325 9.25 58.9324 9.25C59.5553 9.24996 60.1767 9.31772 60.7849 9.45209C65.7085 10.543 68.5998 15.5253 67.6533 20.3514L60.3826 57.3525C59.5578 61.5309 56.0117 64.75 51.6622 64.75H15.0692C14.4481 64.75 13.8278 64.6826 13.2183 64.5482L13.2151 64.5475C8.2916 63.4566 5.40214 58.4747 6.34861 53.6486L13.6199 16.6448ZM19.6698 17.8392C19.6697 17.8396 19.6698 17.8387 19.6698 17.8392L12.4 54.8354C12.3999 54.8358 12.4001 54.835 12.4 54.8354C12.0399 56.6745 13.1824 58.2234 14.5481 58.5266C14.7211 58.5646 14.8955 58.5833 15.0692 58.5833H51.6622C52.8191 58.5833 54.0276 57.6997 54.3318 56.1627C54.3317 56.1633 54.3319 56.1621 54.3318 56.1627L61.6019 19.1646C61.6019 19.165 61.602 19.1642 61.6019 19.1646C61.9621 17.3253 60.8193 15.7763 59.4534 15.4733C59.2825 15.4356 59.108 15.4166 58.933 15.4167H22.3397C21.1827 15.4167 19.9738 16.3018 19.6698 17.8392ZM25.5707 22.4864C26.7748 21.2823 28.7271 21.2823 29.9312 22.4864L42.2645 34.8198C42.9177 35.4729 43.2437 36.3846 43.1526 37.3038C43.0616 38.2231 42.5632 39.0531 41.7946 39.5655L23.2946 51.8988C21.8778 52.8434 19.9634 52.4605 19.0188 51.0437C18.0742 49.6268 18.4571 47.7124 19.874 46.7678L35.2446 36.5208L25.5707 26.8469C24.3666 25.6428 24.3666 23.6905 25.5707 22.4864ZM33.9176 49.3333C33.9176 47.6305 35.2981 46.25 37.001 46.25H46.251C47.9538 46.25 49.3343 47.6305 49.3343 49.3333C49.3343 51.0362 47.9538 52.4167 46.251 52.4167H37.001C35.2981 52.4167 33.9176 51.0362 33.9176 49.3333Z" fill="black"/>
</svg>
