<svg width="68" height="68" viewBox="0 0 68 68" fill="none" xmlns="http://www.w3.org/2000/svg">
<path d="M19.7289 33.8139L19.8046 37.2432L23.4104 39.4874L23.3347 36.0581L19.7289 33.8139ZM28.5291 48.0606L28.4534 44.7069L25.3015 42.7402C25.2511 42.7149 25.2007 42.6645 25.1754 42.6393L25.2511 46.0181L28.5291 48.0606ZM17.2578 52.5741L9.01243 47.4806L8.8107 38.9074L12.8452 37.1676L12.7695 33.7383L6.31439 36.512C5.81008 36.7389 5.5075 37.1928 5.53271 37.7223L5.78487 48.0102C5.78487 48.5397 6.11266 49.0692 6.64219 49.3718L16.5518 55.4991C17.0057 55.7765 17.5604 55.8521 18.0395 55.726C18.0899 55.7008 18.1404 55.7008 18.1908 55.6756L24.2677 53.0532L20.9645 51.0108L17.2578 52.5741Z" fill="#B31AAB"/>
<path d="M43.9357 33.614C43.9105 33.0088 43.5575 32.3784 42.9523 32.0254L30.9246 24.5869L30.5464 24.7382L30.622 28.344L40.1282 34.2444L40.3552 43.8766L43.9862 46.1208L44.1879 46.0452L43.9357 33.614ZM29.5378 50.5587L18.3926 43.6245L18.1152 32.0254L23.2087 29.8317L23.1079 25.8225L15.1903 29.2265C14.6103 29.4787 14.2573 30.0082 14.2825 30.6386L14.6103 44.2549C14.6103 44.8852 14.9885 45.4904 15.5937 45.8434L28.6805 53.9628C29.21 54.2906 29.8656 54.3914 30.4203 54.2149C30.4708 54.1897 30.5212 54.1645 30.5716 54.1645L38.3127 50.8361L34.48 48.4658L29.5378 50.5587Z" fill="#D163CE"/>
<path d="M60.9554 24.0814L44.162 13.6927C43.5316 13.3144 42.8003 13.2136 42.1699 13.4153C42.1195 13.4405 42.0439 13.4657 41.9934 13.4909L25.6287 20.5512C24.9731 20.8286 24.5697 21.4338 24.5949 22.165L24.9983 39.614C25.0235 40.32 25.4522 41.0261 26.133 41.4295L42.9012 51.8182C43.5064 52.1965 44.2628 52.2973 44.8932 52.0956C44.9436 52.0704 45.0193 52.0452 45.0697 52.02L61.4345 44.9597C62.09 44.6823 62.4935 44.0519 62.4683 43.3459L62.0648 25.8969C62.0648 25.1908 61.6362 24.51 60.9554 24.0814ZM43.9098 47.9099L29.3353 38.8828L28.9571 23.7031L43.1786 17.5758L57.753 26.6029L58.106 41.7573L43.9098 47.9099Z" fill="#E13EAF"/>
</svg>
