<svg width="153" height="344" viewBox="0 0 153 344" fill="none" xmlns="http://www.w3.org/2000/svg">
<path d="M182 48C180.895 48 180 47.1046 180 46C180 44.8954 180.895 44 182 44C183.105 44 184 44.8954 184 46C184 47.1046 183.105 48 182 48Z" fill="#D9D9D9"/>
<path d="M182 240C180.895 240 180 239.105 180 238C180 236.895 180.895 236 182 236C183.105 236 184 236.895 184 238C184 239.105 183.105 240 182 240Z" fill="#D9D9D9"/>
<path d="M86 48C84.8954 48 84 47.1046 84 46C84 44.8954 84.8954 44 86 44C87.1046 44 88 44.8954 88 46C88 47.1046 87.1046 48 86 48Z" fill="#D9D9D9"/>
<path d="M86 240C84.8954 240 84 239.105 84 238C84 236.895 84.8954 236 86 236C87.1046 236 88 236.895 88 238C88 239.105 87.1046 240 86 240Z" fill="#D9D9D9"/>
<path d="M182 144C180.895 144 180 143.105 180 142C180 140.895 180.895 140 182 140C183.105 140 184 140.895 184 142C184 143.105 183.105 144 182 144Z" fill="#D9D9D9"/>
<path d="M182 336C180.895 336 180 335.105 180 334C180 332.895 180.895 332 182 332C183.105 332 184 332.895 184 334C184 335.105 183.105 336 182 336Z" fill="#D9D9D9"/>
<path d="M86 144C84.8954 144 84 143.105 84 142C84 140.895 84.8954 140 86 140C87.1046 140 88 140.895 88 142C88 143.105 87.1046 144 86 144Z" fill="#D9D9D9"/>
<path d="M86 336C84.8954 336 84 335.105 84 334C84 332.895 84.8954 332 86 332C87.1046 332 88 332.895 88 334C88 335.105 87.1046 336 86 336Z" fill="#D9D9D9"/>
<path d="M134 48C132.895 48 132 47.1046 132 46C132 44.8954 132.895 44 134 44C135.105 44 136 44.8954 136 46C136 47.1046 135.105 48 134 48Z" fill="#D9D9D9"/>
<path d="M134 240C132.895 240 132 239.105 132 238C132 236.895 132.895 236 134 236C135.105 236 136 236.895 136 238C136 239.105 135.105 240 134 240Z" fill="#D9D9D9"/>
<path d="M38 48C36.8954 48 36 47.1046 36 46C36 44.8954 36.8954 44 38 44C39.1046 44 40 44.8954 40 46C40 47.1046 39.1046 48 38 48Z" fill="#D9D9D9"/>
<path d="M38 240C36.8954 240 36 239.105 36 238C36 236.895 36.8954 236 38 236C39.1046 236 40 236.895 40 238C40 239.105 39.1046 240 38 240Z" fill="#D9D9D9"/>
<path d="M134 144C132.895 144 132 143.105 132 142C132 140.895 132.895 140 134 140C135.105 140 136 140.895 136 142C136 143.105 135.105 144 134 144Z" fill="#D9D9D9"/>
<path d="M134 336C132.895 336 132 335.105 132 334C132 332.895 132.895 332 134 332C135.105 332 136 332.895 136 334C136 335.105 135.105 336 134 336Z" fill="#D9D9D9"/>
<path d="M38 144C36.8954 144 36 143.105 36 142C36 140.895 36.8954 140 38 140C39.1046 140 40 140.895 40 142C40 143.105 39.1046 144 38 144Z" fill="#D9D9D9"/>
<path d="M38 336C36.8954 336 36 335.105 36 334C36 332.895 36.8954 332 38 332C39.1046 332 40 332.895 40 334C40 335.105 39.1046 336 38 336Z" fill="#D9D9D9"/>
<path d="M182 -8.74228e-08C180.895 -1.35705e-07 180 -0.895431 180 -2C180 -3.10457 180.895 -4 182 -4C183.105 -4 184 -3.10457 184 -2C184 -0.895431 183.105 -3.91405e-08 182 -8.74228e-08Z" fill="#D9D9D9"/>
<path d="M182 192C180.895 192 180 191.105 180 190C180 188.895 180.895 188 182 188C183.105 188 184 188.895 184 190C184 191.105 183.105 192 182 192Z" fill="#D9D9D9"/>
<path d="M86 -4.28372e-06C84.8954 -4.332e-06 84 -0.895435 84 -2C84 -3.10457 84.8954 -4 86 -4C87.1046 -4 88 -3.10457 88 -2C88 -0.895435 87.1046 -4.23543e-06 86 -4.28372e-06Z" fill="#D9D9D9"/>
<path d="M86 192C84.8954 192 84 191.105 84 190C84 188.895 84.8954 188 86 188C87.1046 188 88 188.895 88 190C88 191.105 87.1046 192 86 192Z" fill="#D9D9D9"/>
<path d="M182 96C180.895 96 180 95.1046 180 94C180 92.8954 180.895 92 182 92C183.105 92 184 92.8954 184 94C184 95.1046 183.105 96 182 96Z" fill="#D9D9D9"/>
<path d="M182 288C180.895 288 180 287.105 180 286C180 284.895 180.895 284 182 284C183.105 284 184 284.895 184 286C184 287.105 183.105 288 182 288Z" fill="#D9D9D9"/>
<path d="M86 96C84.8954 96 84 95.1046 84 94C84 92.8954 84.8954 92 86 92C87.1046 92 88 92.8954 88 94C88 95.1046 87.1046 96 86 96Z" fill="#D9D9D9"/>
<path d="M86 288C84.8954 288 84 287.105 84 286C84 284.895 84.8954 284 86 284C87.1046 284 88 284.895 88 286C88 287.105 87.1046 288 86 288Z" fill="#D9D9D9"/>
<path d="M134 -2.18557e-06C132.895 -2.23385e-06 132 -0.895433 132 -2C132 -3.10457 132.895 -4 134 -4C135.105 -4 136 -3.10457 136 -2C136 -0.895433 135.105 -2.13729e-06 134 -2.18557e-06Z" fill="#D9D9D9"/>
<path d="M134 192C132.895 192 132 191.105 132 190C132 188.895 132.895 188 134 188C135.105 188 136 188.895 136 190C136 191.105 135.105 192 134 192Z" fill="#D9D9D9"/>
<path d="M38 -6.38186e-06C36.8954 -6.43014e-06 36 -0.895437 36 -2.00001C36 -3.10458 36.8954 -4.00001 38 -4.00001C39.1046 -4.00001 40 -3.10458 40 -2.00001C40 -0.895437 39.1046 -6.33358e-06 38 -6.38186e-06Z" fill="#D9D9D9"/>
<path d="M38 192C36.8954 192 36 191.105 36 190C36 188.895 36.8954 188 38 188C39.1046 188 40 188.895 40 190C40 191.105 39.1046 192 38 192Z" fill="#D9D9D9"/>
<path d="M134 96C132.895 96 132 95.1046 132 94C132 92.8954 132.895 92 134 92C135.105 92 136 92.8954 136 94C136 95.1046 135.105 96 134 96Z" fill="#D9D9D9"/>
<path d="M134 288C132.895 288 132 287.105 132 286C132 284.895 132.895 284 134 284C135.105 284 136 284.895 136 286C136 287.105 135.105 288 134 288Z" fill="#D9D9D9"/>
<path d="M38 96C36.8954 96 36 95.1046 36 94C36 92.8954 36.8954 92 38 92C39.1046 92 40 92.8954 40 94C40 95.1046 39.1046 96 38 96Z" fill="#D9D9D9"/>
<path d="M38 288C36.8954 288 36 287.105 36 286C36 284.895 36.8954 284 38 284C39.1046 284 40 284.895 40 286C40 287.105 39.1046 288 38 288Z" fill="#D9D9D9"/>
<path d="M182 72C180.895 72 180 71.1046 180 70C180 68.8954 180.895 68 182 68C183.105 68 184 68.8954 184 70C184 71.1046 183.105 72 182 72Z" fill="#D9D9D9"/>
<path d="M182 264C180.895 264 180 263.105 180 262C180 260.895 180.895 260 182 260C183.105 260 184 260.895 184 262C184 263.105 183.105 264 182 264Z" fill="#D9D9D9"/>
<path d="M86 72C84.8954 72 84 71.1046 84 70C84 68.8954 84.8954 68 86 68C87.1046 68 88 68.8954 88 70C88 71.1046 87.1046 72 86 72Z" fill="#D9D9D9"/>
<path d="M86 264C84.8954 264 84 263.105 84 262C84 260.895 84.8954 260 86 260C87.1046 260 88 260.895 88 262C88 263.105 87.1046 264 86 264Z" fill="#D9D9D9"/>
<path d="M182 168C180.895 168 180 167.105 180 166C180 164.895 180.895 164 182 164C183.105 164 184 164.895 184 166C184 167.105 183.105 168 182 168Z" fill="#D9D9D9"/>
<path d="M182 360C180.895 360 180 359.105 180 358C180 356.895 180.895 356 182 356C183.105 356 184 356.895 184 358C184 359.105 183.105 360 182 360Z" fill="#D9D9D9"/>
<path d="M86 168C84.8954 168 84 167.105 84 166C84 164.895 84.8954 164 86 164C87.1046 164 88 164.895 88 166C88 167.105 87.1046 168 86 168Z" fill="#D9D9D9"/>
<path d="M86 360C84.8954 360 84 359.105 84 358C84 356.895 84.8954 356 86 356C87.1046 356 88 356.895 88 358C88 359.105 87.1046 360 86 360Z" fill="#D9D9D9"/>
<path d="M134 72C132.895 72 132 71.1046 132 70C132 68.8954 132.895 68 134 68C135.105 68 136 68.8954 136 70C136 71.1046 135.105 72 134 72Z" fill="#D9D9D9"/>
<path d="M134 264C132.895 264 132 263.105 132 262C132 260.895 132.895 260 134 260C135.105 260 136 260.895 136 262C136 263.105 135.105 264 134 264Z" fill="#D9D9D9"/>
<path d="M38 72C36.8954 72 36 71.1046 36 70C36 68.8954 36.8954 68 38 68C39.1046 68 40 68.8954 40 70C40 71.1046 39.1046 72 38 72Z" fill="#D9D9D9"/>
<path d="M38 264C36.8954 264 36 263.105 36 262C36 260.895 36.8954 260 38 260C39.1046 260 40 260.895 40 262C40 263.105 39.1046 264 38 264Z" fill="#D9D9D9"/>
<path d="M134 168C132.895 168 132 167.105 132 166C132 164.895 132.895 164 134 164C135.105 164 136 164.895 136 166C136 167.105 135.105 168 134 168Z" fill="#D9D9D9"/>
<path d="M134 360C132.895 360 132 359.105 132 358C132 356.895 132.895 356 134 356C135.105 356 136 356.895 136 358C136 359.105 135.105 360 134 360Z" fill="#D9D9D9"/>
<path d="M38 168C36.8954 168 36 167.105 36 166C36 164.895 36.8954 164 38 164C39.1046 164 40 164.895 40 166C40 167.105 39.1046 168 38 168Z" fill="#D9D9D9"/>
<path d="M38 360C36.8954 360 36 359.105 36 358C36 356.895 36.8954 356 38 356C39.1046 356 40 356.895 40 358C40 359.105 39.1046 360 38 360Z" fill="#D9D9D9"/>
<path d="M182 24C180.895 24 180 23.1046 180 22C180 20.8954 180.895 20 182 20C183.105 20 184 20.8954 184 22C184 23.1046 183.105 24 182 24Z" fill="#D9D9D9"/>
<path d="M182 216C180.895 216 180 215.105 180 214C180 212.895 180.895 212 182 212C183.105 212 184 212.895 184 214C184 215.105 183.105 216 182 216Z" fill="#D9D9D9"/>
<path d="M86 24C84.8954 24 84 23.1046 84 22C84 20.8954 84.8954 20 86 20C87.1046 20 88 20.8954 88 22C88 23.1046 87.1046 24 86 24Z" fill="#D9D9D9"/>
<path d="M86 216C84.8954 216 84 215.105 84 214C84 212.895 84.8954 212 86 212C87.1046 212 88 212.895 88 214C88 215.105 87.1046 216 86 216Z" fill="#D9D9D9"/>
<path d="M182 120C180.895 120 180 119.105 180 118C180 116.895 180.895 116 182 116C183.105 116 184 116.895 184 118C184 119.105 183.105 120 182 120Z" fill="#D9D9D9"/>
<path d="M182 312C180.895 312 180 311.105 180 310C180 308.895 180.895 308 182 308C183.105 308 184 308.895 184 310C184 311.105 183.105 312 182 312Z" fill="#D9D9D9"/>
<path d="M86 120C84.8954 120 84 119.105 84 118C84 116.895 84.8954 116 86 116C87.1046 116 88 116.895 88 118C88 119.105 87.1046 120 86 120Z" fill="#D9D9D9"/>
<path d="M86 312C84.8954 312 84 311.105 84 310C84 308.895 84.8954 308 86 308C87.1046 308 88 308.895 88 310C88 311.105 87.1046 312 86 312Z" fill="#D9D9D9"/>
<path d="M134 24C132.895 24 132 23.1046 132 22C132 20.8954 132.895 20 134 20C135.105 20 136 20.8954 136 22C136 23.1046 135.105 24 134 24Z" fill="#D9D9D9"/>
<path d="M134 216C132.895 216 132 215.105 132 214C132 212.895 132.895 212 134 212C135.105 212 136 212.895 136 214C136 215.105 135.105 216 134 216Z" fill="#D9D9D9"/>
<path d="M38 24C36.8954 24 36 23.1046 36 22C36 20.8954 36.8954 20 38 20C39.1046 20 40 20.8954 40 22C40 23.1046 39.1046 24 38 24Z" fill="#D9D9D9"/>
<path d="M38 216C36.8954 216 36 215.105 36 214C36 212.895 36.8954 212 38 212C39.1046 212 40 212.895 40 214C40 215.105 39.1046 216 38 216Z" fill="#D9D9D9"/>
<path d="M134 120C132.895 120 132 119.105 132 118C132 116.895 132.895 116 134 116C135.105 116 136 116.895 136 118C136 119.105 135.105 120 134 120Z" fill="#D9D9D9"/>
<path d="M134 312C132.895 312 132 311.105 132 310C132 308.895 132.895 308 134 308C135.105 308 136 308.895 136 310C136 311.105 135.105 312 134 312Z" fill="#D9D9D9"/>
<path d="M38 120C36.8954 120 36 119.105 36 118C36 116.895 36.8954 116 38 116C39.1046 116 40 116.895 40 118C40 119.105 39.1046 120 38 120Z" fill="#D9D9D9"/>
<path d="M38 312C36.8954 312 36 311.105 36 310C36 308.895 36.8954 308 38 308C39.1046 308 40 308.895 40 310C40 311.105 39.1046 312 38 312Z" fill="#D9D9D9"/>
<path d="M158 48C156.895 48 156 47.1046 156 46C156 44.8954 156.895 44 158 44C159.105 44 160 44.8954 160 46C160 47.1046 159.105 48 158 48Z" fill="#D9D9D9"/>
<path d="M158 240C156.895 240 156 239.105 156 238C156 236.895 156.895 236 158 236C159.105 236 160 236.895 160 238C160 239.105 159.105 240 158 240Z" fill="#D9D9D9"/>
<path d="M62 48C60.8954 48 60 47.1046 60 46C60 44.8954 60.8954 44 62 44C63.1046 44 64 44.8954 64 46C64 47.1046 63.1046 48 62 48Z" fill="#D9D9D9"/>
<path d="M62 240C60.8954 240 60 239.105 60 238C60 236.895 60.8954 236 62 236C63.1046 236 64 236.895 64 238C64 239.105 63.1046 240 62 240Z" fill="#D9D9D9"/>
<path d="M158 144C156.895 144 156 143.105 156 142C156 140.895 156.895 140 158 140C159.105 140 160 140.895 160 142C160 143.105 159.105 144 158 144Z" fill="#D9D9D9"/>
<path d="M158 336C156.895 336 156 335.105 156 334C156 332.895 156.895 332 158 332C159.105 332 160 332.895 160 334C160 335.105 159.105 336 158 336Z" fill="#D9D9D9"/>
<path d="M62 144C60.8954 144 60 143.105 60 142C60 140.895 60.8954 140 62 140C63.1046 140 64 140.895 64 142C64 143.105 63.1046 144 62 144Z" fill="#D9D9D9"/>
<path d="M62 336C60.8954 336 60 335.105 60 334C60 332.895 60.8954 332 62 332C63.1046 332 64 332.895 64 334C64 335.105 63.1046 336 62 336Z" fill="#D9D9D9"/>
<path d="M110 48C108.895 48 108 47.1046 108 46C108 44.8954 108.895 44 110 44C111.105 44 112 44.8954 112 46C112 47.1046 111.105 48 110 48Z" fill="#D9D9D9"/>
<path d="M110 240C108.895 240 108 239.105 108 238C108 236.895 108.895 236 110 236C111.105 236 112 236.895 112 238C112 239.105 111.105 240 110 240Z" fill="#D9D9D9"/>
<path d="M14 48C12.8954 48 12 47.1046 12 46C12 44.8954 12.8954 44 14 44C15.1046 44 16 44.8954 16 46C16 47.1046 15.1046 48 14 48Z" fill="#D9D9D9"/>
<path d="M14 240C12.8954 240 12 239.105 12 238C12 236.895 12.8954 236 14 236C15.1046 236 16 236.895 16 238C16 239.105 15.1046 240 14 240Z" fill="#D9D9D9"/>
<path d="M110 144C108.895 144 108 143.105 108 142C108 140.895 108.895 140 110 140C111.105 140 112 140.895 112 142C112 143.105 111.105 144 110 144Z" fill="#D9D9D9"/>
<path d="M110 336C108.895 336 108 335.105 108 334C108 332.895 108.895 332 110 332C111.105 332 112 332.895 112 334C112 335.105 111.105 336 110 336Z" fill="#D9D9D9"/>
<path d="M14 144C12.8954 144 12 143.105 12 142C12 140.895 12.8954 140 14 140C15.1046 140 16 140.895 16 142C16 143.105 15.1046 144 14 144Z" fill="#D9D9D9"/>
<path d="M14 336C12.8954 336 12 335.105 12 334C12 332.895 12.8954 332 14 332C15.1046 332 16 332.895 16 334C16 335.105 15.1046 336 14 336Z" fill="#D9D9D9"/>
<path d="M158 -1.1365e-06C156.895 -1.18478e-06 156 -0.895432 156 -2C156 -3.10457 156.895 -4 158 -4C159.105 -4 160 -3.10457 160 -2C160 -0.895432 159.105 -1.08821e-06 158 -1.1365e-06Z" fill="#D9D9D9"/>
<path d="M158 192C156.895 192 156 191.105 156 190C156 188.895 156.895 188 158 188C159.105 188 160 188.895 160 190C160 191.105 159.105 192 158 192Z" fill="#D9D9D9"/>
<path d="M62 -5.33279e-06C60.8954 -5.38107e-06 60 -0.895436 60 -2.00001C60 -3.10457 60.8954 -4.00001 62 -4.00001C63.1046 -4.00001 64 -3.10457 64 -2.00001C64 -0.895436 63.1046 -5.28451e-06 62 -5.33279e-06Z" fill="#D9D9D9"/>
<path d="M62 192C60.8954 192 60 191.105 60 190C60 188.895 60.8954 188 62 188C63.1046 188 64 188.895 64 190C64 191.105 63.1046 192 62 192Z" fill="#D9D9D9"/>
<path d="M158 96C156.895 96 156 95.1046 156 94C156 92.8954 156.895 92 158 92C159.105 92 160 92.8954 160 94C160 95.1046 159.105 96 158 96Z" fill="#D9D9D9"/>
<path d="M158 288C156.895 288 156 287.105 156 286C156 284.895 156.895 284 158 284C159.105 284 160 284.895 160 286C160 287.105 159.105 288 158 288Z" fill="#D9D9D9"/>
<path d="M62 96C60.8954 96 60 95.1046 60 94C60 92.8954 60.8954 92 62 92C63.1046 92 64 92.8954 64 94C64 95.1046 63.1046 96 62 96Z" fill="#D9D9D9"/>
<path d="M62 288C60.8954 288 60 287.105 60 286C60 284.895 60.8954 284 62 284C63.1046 284 64 284.895 64 286C64 287.105 63.1046 288 62 288Z" fill="#D9D9D9"/>
<path d="M110 -3.23464e-06C108.895 -3.28292e-06 108 -0.895434 108 -2C108 -3.10457 108.895 -4 110 -4C111.105 -4 112 -3.10457 112 -2C112 -0.895434 111.105 -3.18636e-06 110 -3.23464e-06Z" fill="#D9D9D9"/>
<path d="M110 192C108.895 192 108 191.105 108 190C108 188.895 108.895 188 110 188C111.105 188 112 188.895 112 190C112 191.105 111.105 192 110 192Z" fill="#D9D9D9"/>
<path d="M14 -7.43094e-06C12.8954 -7.47922e-06 12 -0.895438 12 -2.00001C12 -3.10458 12.8954 -4.00001 14 -4.00001C15.1046 -4.00001 16 -3.10458 16 -2.00001C16 -0.895438 15.1046 -7.38265e-06 14 -7.43094e-06Z" fill="#D9D9D9"/>
<path d="M14 192C12.8954 192 12 191.105 12 190C12 188.895 12.8954 188 14 188C15.1046 188 16 188.895 16 190C16 191.105 15.1046 192 14 192Z" fill="#D9D9D9"/>
<path d="M110 96C108.895 96 108 95.1046 108 94C108 92.8954 108.895 92 110 92C111.105 92 112 92.8954 112 94C112 95.1046 111.105 96 110 96Z" fill="#D9D9D9"/>
<path d="M110 288C108.895 288 108 287.105 108 286C108 284.895 108.895 284 110 284C111.105 284 112 284.895 112 286C112 287.105 111.105 288 110 288Z" fill="#D9D9D9"/>
<path d="M14 96C12.8954 96 12 95.1046 12 94C12 92.8954 12.8954 92 14 92C15.1046 92 16 92.8954 16 94C16 95.1046 15.1046 96 14 96Z" fill="#D9D9D9"/>
<path d="M14 288C12.8954 288 12 287.105 12 286C12 284.895 12.8954 284 14 284C15.1046 284 16 284.895 16 286C16 287.105 15.1046 288 14 288Z" fill="#D9D9D9"/>
<path d="M158 72C156.895 72 156 71.1046 156 70C156 68.8954 156.895 68 158 68C159.105 68 160 68.8954 160 70C160 71.1046 159.105 72 158 72Z" fill="#D9D9D9"/>
<path d="M158 264C156.895 264 156 263.105 156 262C156 260.895 156.895 260 158 260C159.105 260 160 260.895 160 262C160 263.105 159.105 264 158 264Z" fill="#D9D9D9"/>
<path d="M62 72C60.8954 72 60 71.1046 60 70C60 68.8954 60.8954 68 62 68C63.1046 68 64 68.8954 64 70C64 71.1046 63.1046 72 62 72Z" fill="#D9D9D9"/>
<path d="M62 264C60.8954 264 60 263.105 60 262C60 260.895 60.8954 260 62 260C63.1046 260 64 260.895 64 262C64 263.105 63.1046 264 62 264Z" fill="#D9D9D9"/>
<path d="M158 168C156.895 168 156 167.105 156 166C156 164.895 156.895 164 158 164C159.105 164 160 164.895 160 166C160 167.105 159.105 168 158 168Z" fill="#D9D9D9"/>
<path d="M158 360C156.895 360 156 359.105 156 358C156 356.895 156.895 356 158 356C159.105 356 160 356.895 160 358C160 359.105 159.105 360 158 360Z" fill="#D9D9D9"/>
<path d="M62 168C60.8954 168 60 167.105 60 166C60 164.895 60.8954 164 62 164C63.1046 164 64 164.895 64 166C64 167.105 63.1046 168 62 168Z" fill="#D9D9D9"/>
<path d="M62 360C60.8954 360 60 359.105 60 358C60 356.895 60.8954 356 62 356C63.1046 356 64 356.895 64 358C64 359.105 63.1046 360 62 360Z" fill="#D9D9D9"/>
<path d="M110 72C108.895 72 108 71.1046 108 70C108 68.8954 108.895 68 110 68C111.105 68 112 68.8954 112 70C112 71.1046 111.105 72 110 72Z" fill="#D9D9D9"/>
<path d="M110 264C108.895 264 108 263.105 108 262C108 260.895 108.895 260 110 260C111.105 260 112 260.895 112 262C112 263.105 111.105 264 110 264Z" fill="#D9D9D9"/>
<path d="M14 72C12.8954 72 12 71.1046 12 70C12 68.8954 12.8954 68 14 68C15.1046 68 16 68.8954 16 70C16 71.1046 15.1046 72 14 72Z" fill="#D9D9D9"/>
<path d="M14 264C12.8954 264 12 263.105 12 262C12 260.895 12.8954 260 14 260C15.1046 260 16 260.895 16 262C16 263.105 15.1046 264 14 264Z" fill="#D9D9D9"/>
<path d="M110 168C108.895 168 108 167.105 108 166C108 164.895 108.895 164 110 164C111.105 164 112 164.895 112 166C112 167.105 111.105 168 110 168Z" fill="#D9D9D9"/>
<path d="M110 360C108.895 360 108 359.105 108 358C108 356.895 108.895 356 110 356C111.105 356 112 356.895 112 358C112 359.105 111.105 360 110 360Z" fill="#D9D9D9"/>
<path d="M14 168C12.8954 168 12 167.105 12 166C12 164.895 12.8954 164 14 164C15.1046 164 16 164.895 16 166C16 167.105 15.1046 168 14 168Z" fill="#D9D9D9"/>
<path d="M14 360C12.8954 360 12 359.105 12 358C12 356.895 12.8954 356 14 356C15.1046 356 16 356.895 16 358C16 359.105 15.1046 360 14 360Z" fill="#D9D9D9"/>
<path d="M158 24C156.895 24 156 23.1046 156 22C156 20.8954 156.895 20 158 20C159.105 20 160 20.8954 160 22C160 23.1046 159.105 24 158 24Z" fill="#D9D9D9"/>
<path d="M158 216C156.895 216 156 215.105 156 214C156 212.895 156.895 212 158 212C159.105 212 160 212.895 160 214C160 215.105 159.105 216 158 216Z" fill="#D9D9D9"/>
<path d="M62 24C60.8954 24 60 23.1046 60 22C60 20.8954 60.8954 20 62 20C63.1046 20 64 20.8954 64 22C64 23.1046 63.1046 24 62 24Z" fill="#D9D9D9"/>
<path d="M62 216C60.8954 216 60 215.105 60 214C60 212.895 60.8954 212 62 212C63.1046 212 64 212.895 64 214C64 215.105 63.1046 216 62 216Z" fill="#D9D9D9"/>
<path d="M158 120C156.895 120 156 119.105 156 118C156 116.895 156.895 116 158 116C159.105 116 160 116.895 160 118C160 119.105 159.105 120 158 120Z" fill="#D9D9D9"/>
<path d="M158 312C156.895 312 156 311.105 156 310C156 308.895 156.895 308 158 308C159.105 308 160 308.895 160 310C160 311.105 159.105 312 158 312Z" fill="#D9D9D9"/>
<path d="M62 120C60.8954 120 60 119.105 60 118C60 116.895 60.8954 116 62 116C63.1046 116 64 116.895 64 118C64 119.105 63.1046 120 62 120Z" fill="#D9D9D9"/>
<path d="M62 312C60.8954 312 60 311.105 60 310C60 308.895 60.8954 308 62 308C63.1046 308 64 308.895 64 310C64 311.105 63.1046 312 62 312Z" fill="#D9D9D9"/>
<path d="M110 24C108.895 24 108 23.1046 108 22C108 20.8954 108.895 20 110 20C111.105 20 112 20.8954 112 22C112 23.1046 111.105 24 110 24Z" fill="#D9D9D9"/>
<path d="M110 216C108.895 216 108 215.105 108 214C108 212.895 108.895 212 110 212C111.105 212 112 212.895 112 214C112 215.105 111.105 216 110 216Z" fill="#D9D9D9"/>
<path d="M14 24C12.8954 24 12 23.1046 12 22C12 20.8954 12.8954 20 14 20C15.1046 20 16 20.8954 16 22C16 23.1046 15.1046 24 14 24Z" fill="#D9D9D9"/>
<path d="M14 216C12.8954 216 12 215.105 12 214C12 212.895 12.8954 212 14 212C15.1046 212 16 212.895 16 214C16 215.105 15.1046 216 14 216Z" fill="#D9D9D9"/>
<path d="M110 120C108.895 120 108 119.105 108 118C108 116.895 108.895 116 110 116C111.105 116 112 116.895 112 118C112 119.105 111.105 120 110 120Z" fill="#D9D9D9"/>
<path d="M110 312C108.895 312 108 311.105 108 310C108 308.895 108.895 308 110 308C111.105 308 112 308.895 112 310C112 311.105 111.105 312 110 312Z" fill="#D9D9D9"/>
<path d="M14 120C12.8954 120 12 119.105 12 118C12 116.895 12.8954 116 14 116C15.1046 116 16 116.895 16 118C16 119.105 15.1046 120 14 120Z" fill="#D9D9D9"/>
<path d="M14 312C12.8954 312 12 311.105 12 310C12 308.895 12.8954 308 14 308C15.1046 308 16 308.895 16 310C16 311.105 15.1046 312 14 312Z" fill="#D9D9D9"/>
<path d="M182 60C180.895 60 180 59.1046 180 58C180 56.8954 180.895 56 182 56C183.105 56 184 56.8954 184 58C184 59.1046 183.105 60 182 60Z" fill="#D9D9D9"/>
<path d="M182 252C180.895 252 180 251.105 180 250C180 248.895 180.895 248 182 248C183.105 248 184 248.895 184 250C184 251.105 183.105 252 182 252Z" fill="#D9D9D9"/>
<path d="M86 60C84.8954 60 84 59.1046 84 58C84 56.8954 84.8954 56 86 56C87.1046 56 88 56.8954 88 58C88 59.1046 87.1046 60 86 60Z" fill="#D9D9D9"/>
<path d="M86 252C84.8954 252 84 251.105 84 250C84 248.895 84.8954 248 86 248C87.1046 248 88 248.895 88 250C88 251.105 87.1046 252 86 252Z" fill="#D9D9D9"/>
<path d="M182 156C180.895 156 180 155.105 180 154C180 152.895 180.895 152 182 152C183.105 152 184 152.895 184 154C184 155.105 183.105 156 182 156Z" fill="#D9D9D9"/>
<path d="M182 348C180.895 348 180 347.105 180 346C180 344.895 180.895 344 182 344C183.105 344 184 344.895 184 346C184 347.105 183.105 348 182 348Z" fill="#D9D9D9"/>
<path d="M86 156C84.8954 156 84 155.105 84 154C84 152.895 84.8954 152 86 152C87.1046 152 88 152.895 88 154C88 155.105 87.1046 156 86 156Z" fill="#D9D9D9"/>
<path d="M86 348C84.8954 348 84 347.105 84 346C84 344.895 84.8954 344 86 344C87.1046 344 88 344.895 88 346C88 347.105 87.1046 348 86 348Z" fill="#D9D9D9"/>
<path d="M134 60C132.895 60 132 59.1046 132 58C132 56.8954 132.895 56 134 56C135.105 56 136 56.8954 136 58C136 59.1046 135.105 60 134 60Z" fill="#D9D9D9"/>
<path d="M134 252C132.895 252 132 251.105 132 250C132 248.895 132.895 248 134 248C135.105 248 136 248.895 136 250C136 251.105 135.105 252 134 252Z" fill="#D9D9D9"/>
<path d="M38 60C36.8954 60 36 59.1046 36 58C36 56.8954 36.8954 56 38 56C39.1046 56 40 56.8954 40 58C40 59.1046 39.1046 60 38 60Z" fill="#D9D9D9"/>
<path d="M38 252C36.8954 252 36 251.105 36 250C36 248.895 36.8954 248 38 248C39.1046 248 40 248.895 40 250C40 251.105 39.1046 252 38 252Z" fill="#D9D9D9"/>
<path d="M134 156C132.895 156 132 155.105 132 154C132 152.895 132.895 152 134 152C135.105 152 136 152.895 136 154C136 155.105 135.105 156 134 156Z" fill="#D9D9D9"/>
<path d="M134 348C132.895 348 132 347.105 132 346C132 344.895 132.895 344 134 344C135.105 344 136 344.895 136 346C136 347.105 135.105 348 134 348Z" fill="#D9D9D9"/>
<path d="M38 156C36.8954 156 36 155.105 36 154C36 152.895 36.8954 152 38 152C39.1046 152 40 152.895 40 154C40 155.105 39.1046 156 38 156Z" fill="#D9D9D9"/>
<path d="M38 348C36.8954 348 36 347.105 36 346C36 344.895 36.8954 344 38 344C39.1046 344 40 344.895 40 346C40 347.105 39.1046 348 38 348Z" fill="#D9D9D9"/>
<path d="M182 12C180.895 12 180 11.1046 180 10C180 8.89543 180.895 8 182 8C183.105 8 184 8.89543 184 10C184 11.1046 183.105 12 182 12Z" fill="#D9D9D9"/>
<path d="M182 204C180.895 204 180 203.105 180 202C180 200.895 180.895 200 182 200C183.105 200 184 200.895 184 202C184 203.105 183.105 204 182 204Z" fill="#D9D9D9"/>
<path d="M86 12C84.8954 12 84 11.1046 84 10C84 8.89543 84.8954 8 86 8C87.1046 8 88 8.89543 88 10C88 11.1046 87.1046 12 86 12Z" fill="#D9D9D9"/>
<path d="M86 204C84.8954 204 84 203.105 84 202C84 200.895 84.8954 200 86 200C87.1046 200 88 200.895 88 202C88 203.105 87.1046 204 86 204Z" fill="#D9D9D9"/>
<path d="M182 108C180.895 108 180 107.105 180 106C180 104.895 180.895 104 182 104C183.105 104 184 104.895 184 106C184 107.105 183.105 108 182 108Z" fill="#D9D9D9"/>
<path d="M182 300C180.895 300 180 299.105 180 298C180 296.895 180.895 296 182 296C183.105 296 184 296.895 184 298C184 299.105 183.105 300 182 300Z" fill="#D9D9D9"/>
<path d="M86 108C84.8954 108 84 107.105 84 106C84 104.895 84.8954 104 86 104C87.1046 104 88 104.895 88 106C88 107.105 87.1046 108 86 108Z" fill="#D9D9D9"/>
<path d="M86 300C84.8954 300 84 299.105 84 298C84 296.895 84.8954 296 86 296C87.1046 296 88 296.895 88 298C88 299.105 87.1046 300 86 300Z" fill="#D9D9D9"/>
<path d="M134 12C132.895 12 132 11.1046 132 10C132 8.89543 132.895 8 134 8C135.105 8 136 8.89543 136 10C136 11.1046 135.105 12 134 12Z" fill="#D9D9D9"/>
<path d="M134 204C132.895 204 132 203.105 132 202C132 200.895 132.895 200 134 200C135.105 200 136 200.895 136 202C136 203.105 135.105 204 134 204Z" fill="#D9D9D9"/>
<path d="M38 12C36.8954 12 36 11.1046 36 9.99999C36 8.89542 36.8954 7.99999 38 7.99999C39.1046 7.99999 40 8.89542 40 9.99999C40 11.1046 39.1046 12 38 12Z" fill="#D9D9D9"/>
<path d="M38 204C36.8954 204 36 203.105 36 202C36 200.895 36.8954 200 38 200C39.1046 200 40 200.895 40 202C40 203.105 39.1046 204 38 204Z" fill="#D9D9D9"/>
<path d="M134 108C132.895 108 132 107.105 132 106C132 104.895 132.895 104 134 104C135.105 104 136 104.895 136 106C136 107.105 135.105 108 134 108Z" fill="#D9D9D9"/>
<path d="M134 300C132.895 300 132 299.105 132 298C132 296.895 132.895 296 134 296C135.105 296 136 296.895 136 298C136 299.105 135.105 300 134 300Z" fill="#D9D9D9"/>
<path d="M38 108C36.8954 108 36 107.105 36 106C36 104.895 36.8954 104 38 104C39.1046 104 40 104.895 40 106C40 107.105 39.1046 108 38 108Z" fill="#D9D9D9"/>
<path d="M38 300C36.8954 300 36 299.105 36 298C36 296.895 36.8954 296 38 296C39.1046 296 40 296.895 40 298C40 299.105 39.1046 300 38 300Z" fill="#D9D9D9"/>
<path d="M182 84C180.895 84 180 83.1046 180 82C180 80.8954 180.895 80 182 80C183.105 80 184 80.8954 184 82C184 83.1046 183.105 84 182 84Z" fill="#D9D9D9"/>
<path d="M182 276C180.895 276 180 275.105 180 274C180 272.895 180.895 272 182 272C183.105 272 184 272.895 184 274C184 275.105 183.105 276 182 276Z" fill="#D9D9D9"/>
<path d="M86 84C84.8954 84 84 83.1046 84 82C84 80.8954 84.8954 80 86 80C87.1046 80 88 80.8954 88 82C88 83.1046 87.1046 84 86 84Z" fill="#D9D9D9"/>
<path d="M86 276C84.8954 276 84 275.105 84 274C84 272.895 84.8954 272 86 272C87.1046 272 88 272.895 88 274C88 275.105 87.1046 276 86 276Z" fill="#D9D9D9"/>
<path d="M182 180C180.895 180 180 179.105 180 178C180 176.895 180.895 176 182 176C183.105 176 184 176.895 184 178C184 179.105 183.105 180 182 180Z" fill="#D9D9D9"/>
<path d="M182 372C180.895 372 180 371.105 180 370C180 368.895 180.895 368 182 368C183.105 368 184 368.895 184 370C184 371.105 183.105 372 182 372Z" fill="#D9D9D9"/>
<path d="M86 180C84.8954 180 84 179.105 84 178C84 176.895 84.8954 176 86 176C87.1046 176 88 176.895 88 178C88 179.105 87.1046 180 86 180Z" fill="#D9D9D9"/>
<path d="M86 372C84.8954 372 84 371.105 84 370C84 368.895 84.8954 368 86 368C87.1046 368 88 368.895 88 370C88 371.105 87.1046 372 86 372Z" fill="#D9D9D9"/>
<path d="M134 84C132.895 84 132 83.1046 132 82C132 80.8954 132.895 80 134 80C135.105 80 136 80.8954 136 82C136 83.1046 135.105 84 134 84Z" fill="#D9D9D9"/>
<path d="M134 276C132.895 276 132 275.105 132 274C132 272.895 132.895 272 134 272C135.105 272 136 272.895 136 274C136 275.105 135.105 276 134 276Z" fill="#D9D9D9"/>
<path d="M38 84C36.8954 84 36 83.1046 36 82C36 80.8954 36.8954 80 38 80C39.1046 80 40 80.8954 40 82C40 83.1046 39.1046 84 38 84Z" fill="#D9D9D9"/>
<path d="M38 276C36.8954 276 36 275.105 36 274C36 272.895 36.8954 272 38 272C39.1046 272 40 272.895 40 274C40 275.105 39.1046 276 38 276Z" fill="#D9D9D9"/>
<path d="M134 180C132.895 180 132 179.105 132 178C132 176.895 132.895 176 134 176C135.105 176 136 176.895 136 178C136 179.105 135.105 180 134 180Z" fill="#D9D9D9"/>
<path d="M134 372C132.895 372 132 371.105 132 370C132 368.895 132.895 368 134 368C135.105 368 136 368.895 136 370C136 371.105 135.105 372 134 372Z" fill="#D9D9D9"/>
<path d="M38 180C36.8954 180 36 179.105 36 178C36 176.895 36.8954 176 38 176C39.1046 176 40 176.895 40 178C40 179.105 39.1046 180 38 180Z" fill="#D9D9D9"/>
<path d="M38 372C36.8954 372 36 371.105 36 370C36 368.895 36.8954 368 38 368C39.1046 368 40 368.895 40 370C40 371.105 39.1046 372 38 372Z" fill="#D9D9D9"/>
<path d="M182 36C180.895 36 180 35.1046 180 34C180 32.8954 180.895 32 182 32C183.105 32 184 32.8954 184 34C184 35.1046 183.105 36 182 36Z" fill="#D9D9D9"/>
<path d="M182 228C180.895 228 180 227.105 180 226C180 224.895 180.895 224 182 224C183.105 224 184 224.895 184 226C184 227.105 183.105 228 182 228Z" fill="#D9D9D9"/>
<path d="M86 36C84.8954 36 84 35.1046 84 34C84 32.8954 84.8954 32 86 32C87.1046 32 88 32.8954 88 34C88 35.1046 87.1046 36 86 36Z" fill="#D9D9D9"/>
<path d="M86 228C84.8954 228 84 227.105 84 226C84 224.895 84.8954 224 86 224C87.1046 224 88 224.895 88 226C88 227.105 87.1046 228 86 228Z" fill="#D9D9D9"/>
<path d="M182 132C180.895 132 180 131.105 180 130C180 128.895 180.895 128 182 128C183.105 128 184 128.895 184 130C184 131.105 183.105 132 182 132Z" fill="#D9D9D9"/>
<path d="M182 324C180.895 324 180 323.105 180 322C180 320.895 180.895 320 182 320C183.105 320 184 320.895 184 322C184 323.105 183.105 324 182 324Z" fill="#D9D9D9"/>
<path d="M86 132C84.8954 132 84 131.105 84 130C84 128.895 84.8954 128 86 128C87.1046 128 88 128.895 88 130C88 131.105 87.1046 132 86 132Z" fill="#D9D9D9"/>
<path d="M86 324C84.8954 324 84 323.105 84 322C84 320.895 84.8954 320 86 320C87.1046 320 88 320.895 88 322C88 323.105 87.1046 324 86 324Z" fill="#D9D9D9"/>
<path d="M134 36C132.895 36 132 35.1046 132 34C132 32.8954 132.895 32 134 32C135.105 32 136 32.8954 136 34C136 35.1046 135.105 36 134 36Z" fill="#D9D9D9"/>
<path d="M134 228C132.895 228 132 227.105 132 226C132 224.895 132.895 224 134 224C135.105 224 136 224.895 136 226C136 227.105 135.105 228 134 228Z" fill="#D9D9D9"/>
<path d="M38 36C36.8954 36 36 35.1046 36 34C36 32.8954 36.8954 32 38 32C39.1046 32 40 32.8954 40 34C40 35.1046 39.1046 36 38 36Z" fill="#D9D9D9"/>
<path d="M38 228C36.8954 228 36 227.105 36 226C36 224.895 36.8954 224 38 224C39.1046 224 40 224.895 40 226C40 227.105 39.1046 228 38 228Z" fill="#D9D9D9"/>
<path d="M134 132C132.895 132 132 131.105 132 130C132 128.895 132.895 128 134 128C135.105 128 136 128.895 136 130C136 131.105 135.105 132 134 132Z" fill="#D9D9D9"/>
<path d="M134 324C132.895 324 132 323.105 132 322C132 320.895 132.895 320 134 320C135.105 320 136 320.895 136 322C136 323.105 135.105 324 134 324Z" fill="#D9D9D9"/>
<path d="M38 132C36.8954 132 36 131.105 36 130C36 128.895 36.8954 128 38 128C39.1046 128 40 128.895 40 130C40 131.105 39.1046 132 38 132Z" fill="#D9D9D9"/>
<path d="M38 324C36.8954 324 36 323.105 36 322C36 320.895 36.8954 320 38 320C39.1046 320 40 320.895 40 322C40 323.105 39.1046 324 38 324Z" fill="#D9D9D9"/>
<path d="M158 60C156.895 60 156 59.1046 156 58C156 56.8954 156.895 56 158 56C159.105 56 160 56.8954 160 58C160 59.1046 159.105 60 158 60Z" fill="#D9D9D9"/>
<path d="M158 252C156.895 252 156 251.105 156 250C156 248.895 156.895 248 158 248C159.105 248 160 248.895 160 250C160 251.105 159.105 252 158 252Z" fill="#D9D9D9"/>
<path d="M62 60C60.8954 60 60 59.1046 60 58C60 56.8954 60.8954 56 62 56C63.1046 56 64 56.8954 64 58C64 59.1046 63.1046 60 62 60Z" fill="#D9D9D9"/>
<path d="M62 252C60.8954 252 60 251.105 60 250C60 248.895 60.8954 248 62 248C63.1046 248 64 248.895 64 250C64 251.105 63.1046 252 62 252Z" fill="#D9D9D9"/>
<path d="M158 156C156.895 156 156 155.105 156 154C156 152.895 156.895 152 158 152C159.105 152 160 152.895 160 154C160 155.105 159.105 156 158 156Z" fill="#D9D9D9"/>
<path d="M158 348C156.895 348 156 347.105 156 346C156 344.895 156.895 344 158 344C159.105 344 160 344.895 160 346C160 347.105 159.105 348 158 348Z" fill="#D9D9D9"/>
<path d="M62 156C60.8954 156 60 155.105 60 154C60 152.895 60.8954 152 62 152C63.1046 152 64 152.895 64 154C64 155.105 63.1046 156 62 156Z" fill="#D9D9D9"/>
<path d="M62 348C60.8954 348 60 347.105 60 346C60 344.895 60.8954 344 62 344C63.1046 344 64 344.895 64 346C64 347.105 63.1046 348 62 348Z" fill="#D9D9D9"/>
<path d="M110 60C108.895 60 108 59.1046 108 58C108 56.8954 108.895 56 110 56C111.105 56 112 56.8954 112 58C112 59.1046 111.105 60 110 60Z" fill="#D9D9D9"/>
<path d="M110 252C108.895 252 108 251.105 108 250C108 248.895 108.895 248 110 248C111.105 248 112 248.895 112 250C112 251.105 111.105 252 110 252Z" fill="#D9D9D9"/>
<path d="M14 60C12.8954 60 12 59.1046 12 58C12 56.8954 12.8954 56 14 56C15.1046 56 16 56.8954 16 58C16 59.1046 15.1046 60 14 60Z" fill="#D9D9D9"/>
<path d="M14 252C12.8954 252 12 251.105 12 250C12 248.895 12.8954 248 14 248C15.1046 248 16 248.895 16 250C16 251.105 15.1046 252 14 252Z" fill="#D9D9D9"/>
<path d="M110 156C108.895 156 108 155.105 108 154C108 152.895 108.895 152 110 152C111.105 152 112 152.895 112 154C112 155.105 111.105 156 110 156Z" fill="#D9D9D9"/>
<path d="M110 348C108.895 348 108 347.105 108 346C108 344.895 108.895 344 110 344C111.105 344 112 344.895 112 346C112 347.105 111.105 348 110 348Z" fill="#D9D9D9"/>
<path d="M14 156C12.8954 156 12 155.105 12 154C12 152.895 12.8954 152 14 152C15.1046 152 16 152.895 16 154C16 155.105 15.1046 156 14 156Z" fill="#D9D9D9"/>
<path d="M14 348C12.8954 348 12 347.105 12 346C12 344.895 12.8954 344 14 344C15.1046 344 16 344.895 16 346C16 347.105 15.1046 348 14 348Z" fill="#D9D9D9"/>
<path d="M158 12C156.895 12 156 11.1046 156 10C156 8.89543 156.895 8 158 8C159.105 8 160 8.89543 160 10C160 11.1046 159.105 12 158 12Z" fill="#D9D9D9"/>
<path d="M158 204C156.895 204 156 203.105 156 202C156 200.895 156.895 200 158 200C159.105 200 160 200.895 160 202C160 203.105 159.105 204 158 204Z" fill="#D9D9D9"/>
<path d="M62 12C60.8954 12 60 11.1046 60 9.99999C60 8.89543 60.8954 7.99999 62 7.99999C63.1046 7.99999 64 8.89543 64 9.99999C64 11.1046 63.1046 12 62 12Z" fill="#D9D9D9"/>
<path d="M62 204C60.8954 204 60 203.105 60 202C60 200.895 60.8954 200 62 200C63.1046 200 64 200.895 64 202C64 203.105 63.1046 204 62 204Z" fill="#D9D9D9"/>
<path d="M158 108C156.895 108 156 107.105 156 106C156 104.895 156.895 104 158 104C159.105 104 160 104.895 160 106C160 107.105 159.105 108 158 108Z" fill="#D9D9D9"/>
<path d="M158 300C156.895 300 156 299.105 156 298C156 296.895 156.895 296 158 296C159.105 296 160 296.895 160 298C160 299.105 159.105 300 158 300Z" fill="#D9D9D9"/>
<path d="M62 108C60.8954 108 60 107.105 60 106C60 104.895 60.8954 104 62 104C63.1046 104 64 104.895 64 106C64 107.105 63.1046 108 62 108Z" fill="#D9D9D9"/>
<path d="M62 300C60.8954 300 60 299.105 60 298C60 296.895 60.8954 296 62 296C63.1046 296 64 296.895 64 298C64 299.105 63.1046 300 62 300Z" fill="#D9D9D9"/>
<path d="M110 12C108.895 12 108 11.1046 108 10C108 8.89543 108.895 8 110 8C111.105 8 112 8.89543 112 10C112 11.1046 111.105 12 110 12Z" fill="#D9D9D9"/>
<path d="M110 204C108.895 204 108 203.105 108 202C108 200.895 108.895 200 110 200C111.105 200 112 200.895 112 202C112 203.105 111.105 204 110 204Z" fill="#D9D9D9"/>
<path d="M14 12C12.8954 12 12 11.1046 12 9.99999C12 8.89542 12.8954 7.99999 14 7.99999C15.1046 7.99999 16 8.89542 16 9.99999C16 11.1046 15.1046 12 14 12Z" fill="#D9D9D9"/>
<path d="M14 204C12.8954 204 12 203.105 12 202C12 200.895 12.8954 200 14 200C15.1046 200 16 200.895 16 202C16 203.105 15.1046 204 14 204Z" fill="#D9D9D9"/>
<path d="M110 108C108.895 108 108 107.105 108 106C108 104.895 108.895 104 110 104C111.105 104 112 104.895 112 106C112 107.105 111.105 108 110 108Z" fill="#D9D9D9"/>
<path d="M110 300C108.895 300 108 299.105 108 298C108 296.895 108.895 296 110 296C111.105 296 112 296.895 112 298C112 299.105 111.105 300 110 300Z" fill="#D9D9D9"/>
<path d="M14 108C12.8954 108 12 107.105 12 106C12 104.895 12.8954 104 14 104C15.1046 104 16 104.895 16 106C16 107.105 15.1046 108 14 108Z" fill="#D9D9D9"/>
<path d="M14 300C12.8954 300 12 299.105 12 298C12 296.895 12.8954 296 14 296C15.1046 296 16 296.895 16 298C16 299.105 15.1046 300 14 300Z" fill="#D9D9D9"/>
<path d="M158 84C156.895 84 156 83.1046 156 82C156 80.8954 156.895 80 158 80C159.105 80 160 80.8954 160 82C160 83.1046 159.105 84 158 84Z" fill="#D9D9D9"/>
<path d="M158 276C156.895 276 156 275.105 156 274C156 272.895 156.895 272 158 272C159.105 272 160 272.895 160 274C160 275.105 159.105 276 158 276Z" fill="#D9D9D9"/>
<path d="M62 84C60.8954 84 60 83.1046 60 82C60 80.8954 60.8954 80 62 80C63.1046 80 64 80.8954 64 82C64 83.1046 63.1046 84 62 84Z" fill="#D9D9D9"/>
<path d="M62 276C60.8954 276 60 275.105 60 274C60 272.895 60.8954 272 62 272C63.1046 272 64 272.895 64 274C64 275.105 63.1046 276 62 276Z" fill="#D9D9D9"/>
<path d="M158 180C156.895 180 156 179.105 156 178C156 176.895 156.895 176 158 176C159.105 176 160 176.895 160 178C160 179.105 159.105 180 158 180Z" fill="#D9D9D9"/>
<path d="M158 372C156.895 372 156 371.105 156 370C156 368.895 156.895 368 158 368C159.105 368 160 368.895 160 370C160 371.105 159.105 372 158 372Z" fill="#D9D9D9"/>
<path d="M62 180C60.8954 180 60 179.105 60 178C60 176.895 60.8954 176 62 176C63.1046 176 64 176.895 64 178C64 179.105 63.1046 180 62 180Z" fill="#D9D9D9"/>
<path d="M62 372C60.8954 372 60 371.105 60 370C60 368.895 60.8954 368 62 368C63.1046 368 64 368.895 64 370C64 371.105 63.1046 372 62 372Z" fill="#D9D9D9"/>
<path d="M110 84C108.895 84 108 83.1046 108 82C108 80.8954 108.895 80 110 80C111.105 80 112 80.8954 112 82C112 83.1046 111.105 84 110 84Z" fill="#D9D9D9"/>
<path d="M110 276C108.895 276 108 275.105 108 274C108 272.895 108.895 272 110 272C111.105 272 112 272.895 112 274C112 275.105 111.105 276 110 276Z" fill="#D9D9D9"/>
<path d="M14 84C12.8954 84 12 83.1046 12 82C12 80.8954 12.8954 80 14 80C15.1046 80 16 80.8954 16 82C16 83.1046 15.1046 84 14 84Z" fill="#D9D9D9"/>
<path d="M14 276C12.8954 276 12 275.105 12 274C12 272.895 12.8954 272 14 272C15.1046 272 16 272.895 16 274C16 275.105 15.1046 276 14 276Z" fill="#D9D9D9"/>
<path d="M110 180C108.895 180 108 179.105 108 178C108 176.895 108.895 176 110 176C111.105 176 112 176.895 112 178C112 179.105 111.105 180 110 180Z" fill="#D9D9D9"/>
<path d="M110 372C108.895 372 108 371.105 108 370C108 368.895 108.895 368 110 368C111.105 368 112 368.895 112 370C112 371.105 111.105 372 110 372Z" fill="#D9D9D9"/>
<path d="M14 180C12.8954 180 12 179.105 12 178C12 176.895 12.8954 176 14 176C15.1046 176 16 176.895 16 178C16 179.105 15.1046 180 14 180Z" fill="#D9D9D9"/>
<path d="M14 372C12.8954 372 12 371.105 12 370C12 368.895 12.8954 368 14 368C15.1046 368 16 368.895 16 370C16 371.105 15.1046 372 14 372Z" fill="#D9D9D9"/>
<path d="M158 36C156.895 36 156 35.1046 156 34C156 32.8954 156.895 32 158 32C159.105 32 160 32.8954 160 34C160 35.1046 159.105 36 158 36Z" fill="#D9D9D9"/>
<path d="M158 228C156.895 228 156 227.105 156 226C156 224.895 156.895 224 158 224C159.105 224 160 224.895 160 226C160 227.105 159.105 228 158 228Z" fill="#D9D9D9"/>
<path d="M62 36C60.8954 36 60 35.1046 60 34C60 32.8954 60.8954 32 62 32C63.1046 32 64 32.8954 64 34C64 35.1046 63.1046 36 62 36Z" fill="#D9D9D9"/>
<path d="M62 228C60.8954 228 60 227.105 60 226C60 224.895 60.8954 224 62 224C63.1046 224 64 224.895 64 226C64 227.105 63.1046 228 62 228Z" fill="#D9D9D9"/>
<path d="M158 132C156.895 132 156 131.105 156 130C156 128.895 156.895 128 158 128C159.105 128 160 128.895 160 130C160 131.105 159.105 132 158 132Z" fill="#D9D9D9"/>
<path d="M158 324C156.895 324 156 323.105 156 322C156 320.895 156.895 320 158 320C159.105 320 160 320.895 160 322C160 323.105 159.105 324 158 324Z" fill="#D9D9D9"/>
<path d="M62 132C60.8954 132 60 131.105 60 130C60 128.895 60.8954 128 62 128C63.1046 128 64 128.895 64 130C64 131.105 63.1046 132 62 132Z" fill="#D9D9D9"/>
<path d="M62 324C60.8954 324 60 323.105 60 322C60 320.895 60.8954 320 62 320C63.1046 320 64 320.895 64 322C64 323.105 63.1046 324 62 324Z" fill="#D9D9D9"/>
<path d="M110 36C108.895 36 108 35.1046 108 34C108 32.8954 108.895 32 110 32C111.105 32 112 32.8954 112 34C112 35.1046 111.105 36 110 36Z" fill="#D9D9D9"/>
<path d="M110 228C108.895 228 108 227.105 108 226C108 224.895 108.895 224 110 224C111.105 224 112 224.895 112 226C112 227.105 111.105 228 110 228Z" fill="#D9D9D9"/>
<path d="M14 36C12.8954 36 12 35.1046 12 34C12 32.8954 12.8954 32 14 32C15.1046 32 16 32.8954 16 34C16 35.1046 15.1046 36 14 36Z" fill="#D9D9D9"/>
<path d="M14 228C12.8954 228 12 227.105 12 226C12 224.895 12.8954 224 14 224C15.1046 224 16 224.895 16 226C16 227.105 15.1046 228 14 228Z" fill="#D9D9D9"/>
<path d="M110 132C108.895 132 108 131.105 108 130C108 128.895 108.895 128 110 128C111.105 128 112 128.895 112 130C112 131.105 111.105 132 110 132Z" fill="#D9D9D9"/>
<path d="M110 324C108.895 324 108 323.105 108 322C108 320.895 108.895 320 110 320C111.105 320 112 320.895 112 322C112 323.105 111.105 324 110 324Z" fill="#D9D9D9"/>
<path d="M14 132C12.8954 132 12 131.105 12 130C12 128.895 12.8954 128 14 128C15.1046 128 16 128.895 16 130C16 131.105 15.1046 132 14 132Z" fill="#D9D9D9"/>
<path d="M14 324C12.8954 324 12 323.105 12 322C12 320.895 12.8954 320 14 320C15.1046 320 16 320.895 16 322C16 323.105 15.1046 324 14 324Z" fill="#D9D9D9"/>
<path d="M170 48C168.895 48 168 47.1046 168 46C168 44.8954 168.895 44 170 44C171.105 44 172 44.8954 172 46C172 47.1046 171.105 48 170 48Z" fill="#D9D9D9"/>
<path d="M170 240C168.895 240 168 239.105 168 238C168 236.895 168.895 236 170 236C171.105 236 172 236.895 172 238C172 239.105 171.105 240 170 240Z" fill="#D9D9D9"/>
<path d="M74 48C72.8954 48 72 47.1046 72 46C72 44.8954 72.8954 44 74 44C75.1046 44 76 44.8954 76 46C76 47.1046 75.1046 48 74 48Z" fill="#D9D9D9"/>
<path d="M74 240C72.8954 240 72 239.105 72 238C72 236.895 72.8954 236 74 236C75.1046 236 76 236.895 76 238C76 239.105 75.1046 240 74 240Z" fill="#D9D9D9"/>
<path d="M170 144C168.895 144 168 143.105 168 142C168 140.895 168.895 140 170 140C171.105 140 172 140.895 172 142C172 143.105 171.105 144 170 144Z" fill="#D9D9D9"/>
<path d="M170 336C168.895 336 168 335.105 168 334C168 332.895 168.895 332 170 332C171.105 332 172 332.895 172 334C172 335.105 171.105 336 170 336Z" fill="#D9D9D9"/>
<path d="M74 144C72.8954 144 72 143.105 72 142C72 140.895 72.8954 140 74 140C75.1046 140 76 140.895 76 142C76 143.105 75.1046 144 74 144Z" fill="#D9D9D9"/>
<path d="M74 336C72.8954 336 72 335.105 72 334C72 332.895 72.8954 332 74 332C75.1046 332 76 332.895 76 334C76 335.105 75.1046 336 74 336Z" fill="#D9D9D9"/>
<path d="M122 48C120.895 48 120 47.1046 120 46C120 44.8954 120.895 44 122 44C123.105 44 124 44.8954 124 46C124 47.1046 123.105 48 122 48Z" fill="#D9D9D9"/>
<path d="M122 240C120.895 240 120 239.105 120 238C120 236.895 120.895 236 122 236C123.105 236 124 236.895 124 238C124 239.105 123.105 240 122 240Z" fill="#D9D9D9"/>
<path d="M26 48C24.8954 48 24 47.1046 24 46C24 44.8954 24.8954 44 26 44C27.1046 44 28 44.8954 28 46C28 47.1046 27.1046 48 26 48Z" fill="#D9D9D9"/>
<path d="M26 240C24.8954 240 24 239.105 24 238C24 236.895 24.8954 236 26 236C27.1046 236 28 236.895 28 238C28 239.105 27.1046 240 26 240Z" fill="#D9D9D9"/>
<path d="M122 144C120.895 144 120 143.105 120 142C120 140.895 120.895 140 122 140C123.105 140 124 140.895 124 142C124 143.105 123.105 144 122 144Z" fill="#D9D9D9"/>
<path d="M122 336C120.895 336 120 335.105 120 334C120 332.895 120.895 332 122 332C123.105 332 124 332.895 124 334C124 335.105 123.105 336 122 336Z" fill="#D9D9D9"/>
<path d="M26 144C24.8954 144 24 143.105 24 142C24 140.895 24.8954 140 26 140C27.1046 140 28 140.895 28 142C28 143.105 27.1046 144 26 144Z" fill="#D9D9D9"/>
<path d="M26 336C24.8954 336 24 335.105 24 334C24 332.895 24.8954 332 26 332C27.1046 332 28 332.895 28 334C28 335.105 27.1046 336 26 336Z" fill="#D9D9D9"/>
<path d="M170 -6.11959e-07C168.895 -6.60242e-07 168 -0.895431 168 -2C168 -3.10457 168.895 -4 170 -4C171.105 -4 172 -3.10457 172 -2C172 -0.895431 171.105 -5.63677e-07 170 -6.11959e-07Z" fill="#D9D9D9"/>
<path d="M170 192C168.895 192 168 191.105 168 190C168 188.895 168.895 188 170 188C171.105 188 172 188.895 172 190C172 191.105 171.105 192 170 192Z" fill="#D9D9D9"/>
<path d="M74 -4.80825e-06C72.8954 -4.85653e-06 72 -0.895435 72 -2C72 -3.10457 72.8954 -4 74 -4C75.1046 -4 76 -3.10457 76 -2C76 -0.895435 75.1046 -4.75997e-06 74 -4.80825e-06Z" fill="#D9D9D9"/>
<path d="M74 192C72.8954 192 72 191.105 72 190C72 188.895 72.8954 188 74 188C75.1046 188 76 188.895 76 190C76 191.105 75.1046 192 74 192Z" fill="#D9D9D9"/>
<path d="M170 96C168.895 96 168 95.1046 168 94C168 92.8954 168.895 92 170 92C171.105 92 172 92.8954 172 94C172 95.1046 171.105 96 170 96Z" fill="#D9D9D9"/>
<path d="M170 288C168.895 288 168 287.105 168 286C168 284.895 168.895 284 170 284C171.105 284 172 284.895 172 286C172 287.105 171.105 288 170 288Z" fill="#D9D9D9"/>
<path d="M74 96C72.8954 96 72 95.1046 72 94C72 92.8954 72.8954 92 74 92C75.1046 92 76 92.8954 76 94C76 95.1046 75.1046 96 74 96Z" fill="#D9D9D9"/>
<path d="M74 288C72.8954 288 72 287.105 72 286C72 284.895 72.8954 284 74 284C75.1046 284 76 284.895 76 286C76 287.105 75.1046 288 74 288Z" fill="#D9D9D9"/>
<path d="M122 -2.71011e-06C120.895 -2.75839e-06 120 -0.895433 120 -2C120 -3.10457 120.895 -4 122 -4C123.105 -4 124 -3.10457 124 -2C124 -0.895433 123.105 -2.66182e-06 122 -2.71011e-06Z" fill="#D9D9D9"/>
<path d="M122 192C120.895 192 120 191.105 120 190C120 188.895 120.895 188 122 188C123.105 188 124 188.895 124 190C124 191.105 123.105 192 122 192Z" fill="#D9D9D9"/>
<path d="M26 -6.9064e-06C24.8954 -6.95468e-06 24 -0.895438 24 -2.00001C24 -3.10458 24.8954 -4.00001 26 -4.00001C27.1046 -4.00001 28 -3.10458 28 -2.00001C28 -0.895437 27.1046 -6.85812e-06 26 -6.9064e-06Z" fill="#D9D9D9"/>
<path d="M26 192C24.8954 192 24 191.105 24 190C24 188.895 24.8954 188 26 188C27.1046 188 28 188.895 28 190C28 191.105 27.1046 192 26 192Z" fill="#D9D9D9"/>
<path d="M122 96C120.895 96 120 95.1046 120 94C120 92.8954 120.895 92 122 92C123.105 92 124 92.8954 124 94C124 95.1046 123.105 96 122 96Z" fill="#D9D9D9"/>
<path d="M122 288C120.895 288 120 287.105 120 286C120 284.895 120.895 284 122 284C123.105 284 124 284.895 124 286C124 287.105 123.105 288 122 288Z" fill="#D9D9D9"/>
<path d="M26 96C24.8954 96 24 95.1046 24 94C24 92.8954 24.8954 92 26 92C27.1046 92 28 92.8954 28 94C28 95.1046 27.1046 96 26 96Z" fill="#D9D9D9"/>
<path d="M26 288C24.8954 288 24 287.105 24 286C24 284.895 24.8954 284 26 284C27.1046 284 28 284.895 28 286C28 287.105 27.1046 288 26 288Z" fill="#D9D9D9"/>
<path d="M170 72C168.895 72 168 71.1046 168 70C168 68.8954 168.895 68 170 68C171.105 68 172 68.8954 172 70C172 71.1046 171.105 72 170 72Z" fill="#D9D9D9"/>
<path d="M170 264C168.895 264 168 263.105 168 262C168 260.895 168.895 260 170 260C171.105 260 172 260.895 172 262C172 263.105 171.105 264 170 264Z" fill="#D9D9D9"/>
<path d="M74 72C72.8954 72 72 71.1046 72 70C72 68.8954 72.8954 68 74 68C75.1046 68 76 68.8954 76 70C76 71.1046 75.1046 72 74 72Z" fill="#D9D9D9"/>
<path d="M74 264C72.8954 264 72 263.105 72 262C72 260.895 72.8954 260 74 260C75.1046 260 76 260.895 76 262C76 263.105 75.1046 264 74 264Z" fill="#D9D9D9"/>
<path d="M170 168C168.895 168 168 167.105 168 166C168 164.895 168.895 164 170 164C171.105 164 172 164.895 172 166C172 167.105 171.105 168 170 168Z" fill="#D9D9D9"/>
<path d="M170 360C168.895 360 168 359.105 168 358C168 356.895 168.895 356 170 356C171.105 356 172 356.895 172 358C172 359.105 171.105 360 170 360Z" fill="#D9D9D9"/>
<path d="M74 168C72.8954 168 72 167.105 72 166C72 164.895 72.8954 164 74 164C75.1046 164 76 164.895 76 166C76 167.105 75.1046 168 74 168Z" fill="#D9D9D9"/>
<path d="M74 360C72.8954 360 72 359.105 72 358C72 356.895 72.8954 356 74 356C75.1046 356 76 356.895 76 358C76 359.105 75.1046 360 74 360Z" fill="#D9D9D9"/>
<path d="M122 72C120.895 72 120 71.1046 120 70C120 68.8954 120.895 68 122 68C123.105 68 124 68.8954 124 70C124 71.1046 123.105 72 122 72Z" fill="#D9D9D9"/>
<path d="M122 264C120.895 264 120 263.105 120 262C120 260.895 120.895 260 122 260C123.105 260 124 260.895 124 262C124 263.105 123.105 264 122 264Z" fill="#D9D9D9"/>
<path d="M26 72C24.8954 72 24 71.1046 24 70C24 68.8954 24.8954 68 26 68C27.1046 68 28 68.8954 28 70C28 71.1046 27.1046 72 26 72Z" fill="#D9D9D9"/>
<path d="M26 264C24.8954 264 24 263.105 24 262C24 260.895 24.8954 260 26 260C27.1046 260 28 260.895 28 262C28 263.105 27.1046 264 26 264Z" fill="#D9D9D9"/>
<path d="M122 168C120.895 168 120 167.105 120 166C120 164.895 120.895 164 122 164C123.105 164 124 164.895 124 166C124 167.105 123.105 168 122 168Z" fill="#D9D9D9"/>
<path d="M122 360C120.895 360 120 359.105 120 358C120 356.895 120.895 356 122 356C123.105 356 124 356.895 124 358C124 359.105 123.105 360 122 360Z" fill="#D9D9D9"/>
<path d="M26 168C24.8954 168 24 167.105 24 166C24 164.895 24.8954 164 26 164C27.1046 164 28 164.895 28 166C28 167.105 27.1046 168 26 168Z" fill="#D9D9D9"/>
<path d="M26 360C24.8954 360 24 359.105 24 358C24 356.895 24.8954 356 26 356C27.1046 356 28 356.895 28 358C28 359.105 27.1046 360 26 360Z" fill="#D9D9D9"/>
<path d="M170 24C168.895 24 168 23.1046 168 22C168 20.8954 168.895 20 170 20C171.105 20 172 20.8954 172 22C172 23.1046 171.105 24 170 24Z" fill="#D9D9D9"/>
<path d="M170 216C168.895 216 168 215.105 168 214C168 212.895 168.895 212 170 212C171.105 212 172 212.895 172 214C172 215.105 171.105 216 170 216Z" fill="#D9D9D9"/>
<path d="M74 24C72.8954 24 72 23.1046 72 22C72 20.8954 72.8954 20 74 20C75.1046 20 76 20.8954 76 22C76 23.1046 75.1046 24 74 24Z" fill="#D9D9D9"/>
<path d="M74 216C72.8954 216 72 215.105 72 214C72 212.895 72.8954 212 74 212C75.1046 212 76 212.895 76 214C76 215.105 75.1046 216 74 216Z" fill="#D9D9D9"/>
<path d="M170 120C168.895 120 168 119.105 168 118C168 116.895 168.895 116 170 116C171.105 116 172 116.895 172 118C172 119.105 171.105 120 170 120Z" fill="#D9D9D9"/>
<path d="M170 312C168.895 312 168 311.105 168 310C168 308.895 168.895 308 170 308C171.105 308 172 308.895 172 310C172 311.105 171.105 312 170 312Z" fill="#D9D9D9"/>
<path d="M74 120C72.8954 120 72 119.105 72 118C72 116.895 72.8954 116 74 116C75.1046 116 76 116.895 76 118C76 119.105 75.1046 120 74 120Z" fill="#D9D9D9"/>
<path d="M74 312C72.8954 312 72 311.105 72 310C72 308.895 72.8954 308 74 308C75.1046 308 76 308.895 76 310C76 311.105 75.1046 312 74 312Z" fill="#D9D9D9"/>
<path d="M122 24C120.895 24 120 23.1046 120 22C120 20.8954 120.895 20 122 20C123.105 20 124 20.8954 124 22C124 23.1046 123.105 24 122 24Z" fill="#D9D9D9"/>
<path d="M122 216C120.895 216 120 215.105 120 214C120 212.895 120.895 212 122 212C123.105 212 124 212.895 124 214C124 215.105 123.105 216 122 216Z" fill="#D9D9D9"/>
<path d="M26 24C24.8954 24 24 23.1046 24 22C24 20.8954 24.8954 20 26 20C27.1046 20 28 20.8954 28 22C28 23.1046 27.1046 24 26 24Z" fill="#D9D9D9"/>
<path d="M26 216C24.8954 216 24 215.105 24 214C24 212.895 24.8954 212 26 212C27.1046 212 28 212.895 28 214C28 215.105 27.1046 216 26 216Z" fill="#D9D9D9"/>
<path d="M122 120C120.895 120 120 119.105 120 118C120 116.895 120.895 116 122 116C123.105 116 124 116.895 124 118C124 119.105 123.105 120 122 120Z" fill="#D9D9D9"/>
<path d="M122 312C120.895 312 120 311.105 120 310C120 308.895 120.895 308 122 308C123.105 308 124 308.895 124 310C124 311.105 123.105 312 122 312Z" fill="#D9D9D9"/>
<path d="M26 120C24.8954 120 24 119.105 24 118C24 116.895 24.8954 116 26 116C27.1046 116 28 116.895 28 118C28 119.105 27.1046 120 26 120Z" fill="#D9D9D9"/>
<path d="M26 312C24.8954 312 24 311.105 24 310C24 308.895 24.8954 308 26 308C27.1046 308 28 308.895 28 310C28 311.105 27.1046 312 26 312Z" fill="#D9D9D9"/>
<path d="M146 48C144.895 48 144 47.1046 144 46C144 44.8954 144.895 44 146 44C147.105 44 148 44.8954 148 46C148 47.1046 147.105 48 146 48Z" fill="#D9D9D9"/>
<path d="M146 240C144.895 240 144 239.105 144 238C144 236.895 144.895 236 146 236C147.105 236 148 236.895 148 238C148 239.105 147.105 240 146 240Z" fill="#D9D9D9"/>
<path d="M50 48C48.8954 48 48 47.1046 48 46C48 44.8954 48.8954 44 50 44C51.1046 44 52 44.8954 52 46C52 47.1046 51.1046 48 50 48Z" fill="#D9D9D9"/>
<path d="M50 240C48.8954 240 48 239.105 48 238C48 236.895 48.8954 236 50 236C51.1046 236 52 236.895 52 238C52 239.105 51.1046 240 50 240Z" fill="#D9D9D9"/>
<path d="M146 144C144.895 144 144 143.105 144 142C144 140.895 144.895 140 146 140C147.105 140 148 140.895 148 142C148 143.105 147.105 144 146 144Z" fill="#D9D9D9"/>
<path d="M146 336C144.895 336 144 335.105 144 334C144 332.895 144.895 332 146 332C147.105 332 148 332.895 148 334C148 335.105 147.105 336 146 336Z" fill="#D9D9D9"/>
<path d="M50 144C48.8954 144 48 143.105 48 142C48 140.895 48.8954 140 50 140C51.1046 140 52 140.895 52 142C52 143.105 51.1046 144 50 144Z" fill="#D9D9D9"/>
<path d="M50 336C48.8954 336 48 335.105 48 334C48 332.895 48.8954 332 50 332C51.1046 332 52 332.895 52 334C52 335.105 51.1046 336 50 336Z" fill="#D9D9D9"/>
<path d="M98 48C96.8954 48 96 47.1046 96 46C96 44.8954 96.8954 44 98 44C99.1046 44 100 44.8954 100 46C100 47.1046 99.1046 48 98 48Z" fill="#D9D9D9"/>
<path d="M98 240C96.8954 240 96 239.105 96 238C96 236.895 96.8954 236 98 236C99.1046 236 100 236.895 100 238C100 239.105 99.1046 240 98 240Z" fill="#D9D9D9"/>
<path d="M2 48C0.895429 48 -2.23385e-06 47.1046 -2.18557e-06 46C-2.13729e-06 44.8954 0.895429 44 2 44C3.10457 44 4 44.8954 4 46C4 47.1046 3.10457 48 2 48Z" fill="#D9D9D9"/>
<path d="M1.99999 240C0.895421 240 -1.06264e-05 239.105 -1.05782e-05 238C-1.05299e-05 236.895 0.895421 236 1.99999 236C3.10456 236 3.99999 236.895 3.99999 238C3.99999 239.105 3.10456 240 1.99999 240Z" fill="#D9D9D9"/>
<path d="M98 144C96.8954 144 96 143.105 96 142C96 140.895 96.8954 140 98 140C99.1046 140 100 140.895 100 142C100 143.105 99.1046 144 98 144Z" fill="#D9D9D9"/>
<path d="M98 336C96.8954 336 96 335.105 96 334C96 332.895 96.8954 332 98 332C99.1046 332 100 332.895 100 334C100 335.105 99.1046 336 98 336Z" fill="#D9D9D9"/>
<path d="M1.99999 144C0.895425 144 -6.43014e-06 143.105 -6.38186e-06 142C-6.33358e-06 140.895 0.895425 140 1.99999 140C3.10456 140 3.99999 140.895 3.99999 142C3.99999 143.105 3.10456 144 1.99999 144Z" fill="#D9D9D9"/>
<path d="M1.99999 336C0.895417 336 -1.48227e-05 335.105 -1.47744e-05 334C-1.47262e-05 332.895 0.895417 332 1.99999 332C3.10455 332 3.99999 332.895 3.99999 334C3.99999 335.105 3.10455 336 1.99999 336Z" fill="#D9D9D9"/>
<path d="M146 -1.66103e-06C144.895 -1.70931e-06 144 -0.895432 144 -2C144 -3.10457 144.895 -4 146 -4C147.105 -4 148 -3.10457 148 -2C148 -0.895432 147.105 -1.61275e-06 146 -1.66103e-06Z" fill="#D9D9D9"/>
<path d="M146 192C144.895 192 144 191.105 144 190C144 188.895 144.895 188 146 188C147.105 188 148 188.895 148 190C148 191.105 147.105 192 146 192Z" fill="#D9D9D9"/>
<path d="M50 -5.85733e-06C48.8954 -5.90561e-06 48 -0.895437 48 -2.00001C48 -3.10458 48.8954 -4.00001 50 -4.00001C51.1046 -4.00001 52 -3.10458 52 -2.00001C52 -0.895436 51.1046 -5.80904e-06 50 -5.85733e-06Z" fill="#D9D9D9"/>
<path d="M50 192C48.8954 192 48 191.105 48 190C48 188.895 48.8954 188 50 188C51.1046 188 52 188.895 52 190C52 191.105 51.1046 192 50 192Z" fill="#D9D9D9"/>
<path d="M146 96C144.895 96 144 95.1046 144 94C144 92.8954 144.895 92 146 92C147.105 92 148 92.8954 148 94C148 95.1046 147.105 96 146 96Z" fill="#D9D9D9"/>
<path d="M146 288C144.895 288 144 287.105 144 286C144 284.895 144.895 284 146 284C147.105 284 148 284.895 148 286C148 287.105 147.105 288 146 288Z" fill="#D9D9D9"/>
<path d="M50 96C48.8954 96 48 95.1046 48 94C48 92.8954 48.8954 92 50 92C51.1046 92 52 92.8954 52 94C52 95.1046 51.1046 96 50 96Z" fill="#D9D9D9"/>
<path d="M50 288C48.8954 288 48 287.105 48 286C48 284.895 48.8954 284 50 284C51.1046 284 52 284.895 52 286C52 287.105 51.1046 288 50 288Z" fill="#D9D9D9"/>
<path d="M98 -3.75918e-06C96.8954 -3.80746e-06 96 -0.895434 96 -2C96 -3.10457 96.8954 -4 98 -4C99.1046 -4 100 -3.10457 100 -2C100 -0.895434 99.1046 -3.7109e-06 98 -3.75918e-06Z" fill="#D9D9D9"/>
<path d="M98 192C96.8954 192 96 191.105 96 190C96 188.895 96.8954 188 98 188C99.1046 188 100 188.895 100 190C100 191.105 99.1046 192 98 192Z" fill="#D9D9D9"/>
<path d="M2 -7.95547e-06C0.895431 -8.00375e-06 -1.35705e-07 -0.895439 -8.74228e-08 -2.00001C-3.91405e-08 -3.10458 0.895432 -4.00001 2 -4.00001C3.10457 -4.00001 4 -3.10458 4 -2.00001C4 -0.895438 3.10457 -7.90719e-06 2 -7.95547e-06Z" fill="#D9D9D9"/>
<path d="M1.99999 192C0.895423 192 -8.52829e-06 191.105 -8.48001e-06 190C-8.43173e-06 188.895 0.895423 188 1.99999 188C3.10456 188 3.99999 188.895 3.99999 190C3.99999 191.105 3.10456 192 1.99999 192Z" fill="#D9D9D9"/>
<path d="M98 96C96.8954 96 96 95.1046 96 94C96 92.8954 96.8954 92 98 92C99.1046 92 100 92.8954 100 94C100 95.1046 99.1046 96 98 96Z" fill="#D9D9D9"/>
<path d="M98 288C96.8954 288 96 287.105 96 286C96 284.895 96.8954 284 98 284C99.1046 284 100 284.895 100 286C100 287.105 99.1046 288 98 288Z" fill="#D9D9D9"/>
<path d="M2 96C0.895427 96 -4.332e-06 95.1046 -4.28372e-06 94C-4.23543e-06 92.8954 0.895427 92 2 92C3.10456 92 4 92.8954 4 94C4 95.1046 3.10456 96 2 96Z" fill="#D9D9D9"/>
<path d="M1.99999 288C0.895419 288 -1.27246e-05 287.105 -1.26763e-05 286C-1.2628e-05 284.895 0.895419 284 1.99999 284C3.10456 284 3.99999 284.895 3.99999 286C3.99999 287.105 3.10456 288 1.99999 288Z" fill="#D9D9D9"/>
<path d="M146 72C144.895 72 144 71.1046 144 70C144 68.8954 144.895 68 146 68C147.105 68 148 68.8954 148 70C148 71.1046 147.105 72 146 72Z" fill="#D9D9D9"/>
<path d="M146 264C144.895 264 144 263.105 144 262C144 260.895 144.895 260 146 260C147.105 260 148 260.895 148 262C148 263.105 147.105 264 146 264Z" fill="#D9D9D9"/>
<path d="M50 72C48.8954 72 48 71.1046 48 70C48 68.8954 48.8954 68 50 68C51.1046 68 52 68.8954 52 70C52 71.1046 51.1046 72 50 72Z" fill="#D9D9D9"/>
<path d="M50 264C48.8954 264 48 263.105 48 262C48 260.895 48.8954 260 50 260C51.1046 260 52 260.895 52 262C52 263.105 51.1046 264 50 264Z" fill="#D9D9D9"/>
<path d="M146 168C144.895 168 144 167.105 144 166C144 164.895 144.895 164 146 164C147.105 164 148 164.895 148 166C148 167.105 147.105 168 146 168Z" fill="#D9D9D9"/>
<path d="M146 360C144.895 360 144 359.105 144 358C144 356.895 144.895 356 146 356C147.105 356 148 356.895 148 358C148 359.105 147.105 360 146 360Z" fill="#D9D9D9"/>
<path d="M50 168C48.8954 168 48 167.105 48 166C48 164.895 48.8954 164 50 164C51.1046 164 52 164.895 52 166C52 167.105 51.1046 168 50 168Z" fill="#D9D9D9"/>
<path d="M50 360C48.8954 360 48 359.105 48 358C48 356.895 48.8954 356 50 356C51.1046 356 52 356.895 52 358C52 359.105 51.1046 360 50 360Z" fill="#D9D9D9"/>
<path d="M98 72C96.8954 72 96 71.1046 96 70C96 68.8954 96.8954 68 98 68C99.1046 68 100 68.8954 100 70C100 71.1046 99.1046 72 98 72Z" fill="#D9D9D9"/>
<path d="M98 264C96.8954 264 96 263.105 96 262C96 260.895 96.8954 260 98 260C99.1046 260 100 260.895 100 262C100 263.105 99.1046 264 98 264Z" fill="#D9D9D9"/>
<path d="M2 72C0.895428 72 -3.28292e-06 71.1046 -3.23464e-06 70C-3.18636e-06 68.8954 0.895428 68 2 68C3.10457 68 4 68.8954 4 70C4 71.1046 3.10457 72 2 72Z" fill="#D9D9D9"/>
<path d="M1.99999 264C0.89542 264 -1.16755e-05 263.105 -1.16272e-05 262C-1.15789e-05 260.895 0.89542 260 1.99999 260C3.10456 260 3.99999 260.895 3.99999 262C3.99999 263.105 3.10456 264 1.99999 264Z" fill="#D9D9D9"/>
<path d="M98 168C96.8954 168 96 167.105 96 166C96 164.895 96.8954 164 98 164C99.1046 164 100 164.895 100 166C100 167.105 99.1046 168 98 168Z" fill="#D9D9D9"/>
<path d="M98 360C96.8954 360 96 359.105 96 358C96 356.895 96.8954 356 98 356C99.1046 356 100 356.895 100 358C100 359.105 99.1046 360 98 360Z" fill="#D9D9D9"/>
<path d="M1.99999 168C0.895424 168 -7.47922e-06 167.105 -7.43094e-06 166C-7.38265e-06 164.895 0.895424 164 1.99999 164C3.10456 164 3.99999 164.895 3.99999 166C3.99999 167.105 3.10456 168 1.99999 168Z" fill="#D9D9D9"/>
<path d="M1.99998 360C0.895416 360 -1.58718e-05 359.105 -1.58235e-05 358C-1.57752e-05 356.895 0.895416 356 1.99998 356C3.10455 356 3.99998 356.895 3.99998 358C3.99998 359.105 3.10455 360 1.99998 360Z" fill="#D9D9D9"/>
<path d="M146 24C144.895 24 144 23.1046 144 22C144 20.8954 144.895 20 146 20C147.105 20 148 20.8954 148 22C148 23.1046 147.105 24 146 24Z" fill="#D9D9D9"/>
<path d="M146 216C144.895 216 144 215.105 144 214C144 212.895 144.895 212 146 212C147.105 212 148 212.895 148 214C148 215.105 147.105 216 146 216Z" fill="#D9D9D9"/>
<path d="M50 24C48.8954 24 48 23.1046 48 22C48 20.8954 48.8954 20 50 20C51.1046 20 52 20.8954 52 22C52 23.1046 51.1046 24 50 24Z" fill="#D9D9D9"/>
<path d="M50 216C48.8954 216 48 215.105 48 214C48 212.895 48.8954 212 50 212C51.1046 212 52 212.895 52 214C52 215.105 51.1046 216 50 216Z" fill="#D9D9D9"/>
<path d="M146 120C144.895 120 144 119.105 144 118C144 116.895 144.895 116 146 116C147.105 116 148 116.895 148 118C148 119.105 147.105 120 146 120Z" fill="#D9D9D9"/>
<path d="M146 312C144.895 312 144 311.105 144 310C144 308.895 144.895 308 146 308C147.105 308 148 308.895 148 310C148 311.105 147.105 312 146 312Z" fill="#D9D9D9"/>
<path d="M50 120C48.8954 120 48 119.105 48 118C48 116.895 48.8954 116 50 116C51.1046 116 52 116.895 52 118C52 119.105 51.1046 120 50 120Z" fill="#D9D9D9"/>
<path d="M50 312C48.8954 312 48 311.105 48 310C48 308.895 48.8954 308 50 308C51.1046 308 52 308.895 52 310C52 311.105 51.1046 312 50 312Z" fill="#D9D9D9"/>
<path d="M98 24C96.8954 24 96 23.1046 96 22C96 20.8954 96.8954 20 98 20C99.1046 20 100 20.8954 100 22C100 23.1046 99.1046 24 98 24Z" fill="#D9D9D9"/>
<path d="M98 216C96.8954 216 96 215.105 96 214C96 212.895 96.8954 212 98 212C99.1046 212 100 212.895 100 214C100 215.105 99.1046 216 98 216Z" fill="#D9D9D9"/>
<path d="M2 24C0.89543 24 -1.18478e-06 23.1046 -1.1365e-06 22C-1.08821e-06 20.8954 0.89543 20 2 20C3.10457 20 4 20.8954 4 22C4 23.1046 3.10457 24 2 24Z" fill="#D9D9D9"/>
<path d="M1.99999 216C0.895422 216 -9.57736e-06 215.105 -9.52908e-06 214C-9.4808e-06 212.895 0.895422 212 1.99999 212C3.10456 212 3.99999 212.895 3.99999 214C3.99999 215.105 3.10456 216 1.99999 216Z" fill="#D9D9D9"/>
<path d="M98 120C96.8954 120 96 119.105 96 118C96 116.895 96.8954 116 98 116C99.1046 116 100 116.895 100 118C100 119.105 99.1046 120 98 120Z" fill="#D9D9D9"/>
<path d="M98 312C96.8954 312 96 311.105 96 310C96 308.895 96.8954 308 98 308C99.1046 308 100 308.895 100 310C100 311.105 99.1046 312 98 312Z" fill="#D9D9D9"/>
<path d="M1.99999 120C0.895426 120 -5.38107e-06 119.105 -5.33279e-06 118C-5.28451e-06 116.895 0.895426 116 1.99999 116C3.10456 116 3.99999 116.895 3.99999 118C3.99999 119.105 3.10456 120 1.99999 120Z" fill="#D9D9D9"/>
<path d="M1.99999 312C0.895418 312 -1.37737e-05 311.105 -1.37254e-05 310C-1.36771e-05 308.895 0.895418 308 1.99999 308C3.10455 308 3.99999 308.895 3.99999 310C3.99999 311.105 3.10455 312 1.99999 312Z" fill="#D9D9D9"/>
<path d="M170 60C168.895 60 168 59.1046 168 58C168 56.8954 168.895 56 170 56C171.105 56 172 56.8954 172 58C172 59.1046 171.105 60 170 60Z" fill="#D9D9D9"/>
<path d="M170 252C168.895 252 168 251.105 168 250C168 248.895 168.895 248 170 248C171.105 248 172 248.895 172 250C172 251.105 171.105 252 170 252Z" fill="#D9D9D9"/>
<path d="M74 60C72.8954 60 72 59.1046 72 58C72 56.8954 72.8954 56 74 56C75.1046 56 76 56.8954 76 58C76 59.1046 75.1046 60 74 60Z" fill="#D9D9D9"/>
<path d="M74 252C72.8954 252 72 251.105 72 250C72 248.895 72.8954 248 74 248C75.1046 248 76 248.895 76 250C76 251.105 75.1046 252 74 252Z" fill="#D9D9D9"/>
<path d="M170 156C168.895 156 168 155.105 168 154C168 152.895 168.895 152 170 152C171.105 152 172 152.895 172 154C172 155.105 171.105 156 170 156Z" fill="#D9D9D9"/>
<path d="M170 348C168.895 348 168 347.105 168 346C168 344.895 168.895 344 170 344C171.105 344 172 344.895 172 346C172 347.105 171.105 348 170 348Z" fill="#D9D9D9"/>
<path d="M74 156C72.8954 156 72 155.105 72 154C72 152.895 72.8954 152 74 152C75.1046 152 76 152.895 76 154C76 155.105 75.1046 156 74 156Z" fill="#D9D9D9"/>
<path d="M74 348C72.8954 348 72 347.105 72 346C72 344.895 72.8954 344 74 344C75.1046 344 76 344.895 76 346C76 347.105 75.1046 348 74 348Z" fill="#D9D9D9"/>
<path d="M122 60C120.895 60 120 59.1046 120 58C120 56.8954 120.895 56 122 56C123.105 56 124 56.8954 124 58C124 59.1046 123.105 60 122 60Z" fill="#D9D9D9"/>
<path d="M122 252C120.895 252 120 251.105 120 250C120 248.895 120.895 248 122 248C123.105 248 124 248.895 124 250C124 251.105 123.105 252 122 252Z" fill="#D9D9D9"/>
<path d="M26 60C24.8954 60 24 59.1046 24 58C24 56.8954 24.8954 56 26 56C27.1046 56 28 56.8954 28 58C28 59.1046 27.1046 60 26 60Z" fill="#D9D9D9"/>
<path d="M26 252C24.8954 252 24 251.105 24 250C24 248.895 24.8954 248 26 248C27.1046 248 28 248.895 28 250C28 251.105 27.1046 252 26 252Z" fill="#D9D9D9"/>
<path d="M122 156C120.895 156 120 155.105 120 154C120 152.895 120.895 152 122 152C123.105 152 124 152.895 124 154C124 155.105 123.105 156 122 156Z" fill="#D9D9D9"/>
<path d="M122 348C120.895 348 120 347.105 120 346C120 344.895 120.895 344 122 344C123.105 344 124 344.895 124 346C124 347.105 123.105 348 122 348Z" fill="#D9D9D9"/>
<path d="M26 156C24.8954 156 24 155.105 24 154C24 152.895 24.8954 152 26 152C27.1046 152 28 152.895 28 154C28 155.105 27.1046 156 26 156Z" fill="#D9D9D9"/>
<path d="M26 348C24.8954 348 24 347.105 24 346C24 344.895 24.8954 344 26 344C27.1046 344 28 344.895 28 346C28 347.105 27.1046 348 26 348Z" fill="#D9D9D9"/>
<path d="M170 12C168.895 12 168 11.1046 168 10C168 8.89543 168.895 8 170 8C171.105 8 172 8.89543 172 10C172 11.1046 171.105 12 170 12Z" fill="#D9D9D9"/>
<path d="M170 204C168.895 204 168 203.105 168 202C168 200.895 168.895 200 170 200C171.105 200 172 200.895 172 202C172 203.105 171.105 204 170 204Z" fill="#D9D9D9"/>
<path d="M74 12C72.8954 12 72 11.1046 72 10C72 8.89543 72.8954 8 74 8C75.1046 8 76 8.89543 76 10C76 11.1046 75.1046 12 74 12Z" fill="#D9D9D9"/>
<path d="M74 204C72.8954 204 72 203.105 72 202C72 200.895 72.8954 200 74 200C75.1046 200 76 200.895 76 202C76 203.105 75.1046 204 74 204Z" fill="#D9D9D9"/>
<path d="M170 108C168.895 108 168 107.105 168 106C168 104.895 168.895 104 170 104C171.105 104 172 104.895 172 106C172 107.105 171.105 108 170 108Z" fill="#D9D9D9"/>
<path d="M170 300C168.895 300 168 299.105 168 298C168 296.895 168.895 296 170 296C171.105 296 172 296.895 172 298C172 299.105 171.105 300 170 300Z" fill="#D9D9D9"/>
<path d="M74 108C72.8954 108 72 107.105 72 106C72 104.895 72.8954 104 74 104C75.1046 104 76 104.895 76 106C76 107.105 75.1046 108 74 108Z" fill="#D9D9D9"/>
<path d="M74 300C72.8954 300 72 299.105 72 298C72 296.895 72.8954 296 74 296C75.1046 296 76 296.895 76 298C76 299.105 75.1046 300 74 300Z" fill="#D9D9D9"/>
<path d="M122 12C120.895 12 120 11.1046 120 10C120 8.89543 120.895 8 122 8C123.105 8 124 8.89543 124 10C124 11.1046 123.105 12 122 12Z" fill="#D9D9D9"/>
<path d="M122 204C120.895 204 120 203.105 120 202C120 200.895 120.895 200 122 200C123.105 200 124 200.895 124 202C124 203.105 123.105 204 122 204Z" fill="#D9D9D9"/>
<path d="M26 12C24.8954 12 24 11.1046 24 9.99999C24 8.89542 24.8954 7.99999 26 7.99999C27.1046 7.99999 28 8.89542 28 9.99999C28 11.1046 27.1046 12 26 12Z" fill="#D9D9D9"/>
<path d="M26 204C24.8954 204 24 203.105 24 202C24 200.895 24.8954 200 26 200C27.1046 200 28 200.895 28 202C28 203.105 27.1046 204 26 204Z" fill="#D9D9D9"/>
<path d="M122 108C120.895 108 120 107.105 120 106C120 104.895 120.895 104 122 104C123.105 104 124 104.895 124 106C124 107.105 123.105 108 122 108Z" fill="#D9D9D9"/>
<path d="M122 300C120.895 300 120 299.105 120 298C120 296.895 120.895 296 122 296C123.105 296 124 296.895 124 298C124 299.105 123.105 300 122 300Z" fill="#D9D9D9"/>
<path d="M26 108C24.8954 108 24 107.105 24 106C24 104.895 24.8954 104 26 104C27.1046 104 28 104.895 28 106C28 107.105 27.1046 108 26 108Z" fill="#D9D9D9"/>
<path d="M26 300C24.8954 300 24 299.105 24 298C24 296.895 24.8954 296 26 296C27.1046 296 28 296.895 28 298C28 299.105 27.1046 300 26 300Z" fill="#D9D9D9"/>
<path d="M170 84C168.895 84 168 83.1046 168 82C168 80.8954 168.895 80 170 80C171.105 80 172 80.8954 172 82C172 83.1046 171.105 84 170 84Z" fill="#D9D9D9"/>
<path d="M170 276C168.895 276 168 275.105 168 274C168 272.895 168.895 272 170 272C171.105 272 172 272.895 172 274C172 275.105 171.105 276 170 276Z" fill="#D9D9D9"/>
<path d="M74 84C72.8954 84 72 83.1046 72 82C72 80.8954 72.8954 80 74 80C75.1046 80 76 80.8954 76 82C76 83.1046 75.1046 84 74 84Z" fill="#D9D9D9"/>
<path d="M74 276C72.8954 276 72 275.105 72 274C72 272.895 72.8954 272 74 272C75.1046 272 76 272.895 76 274C76 275.105 75.1046 276 74 276Z" fill="#D9D9D9"/>
<path d="M170 180C168.895 180 168 179.105 168 178C168 176.895 168.895 176 170 176C171.105 176 172 176.895 172 178C172 179.105 171.105 180 170 180Z" fill="#D9D9D9"/>
<path d="M170 372C168.895 372 168 371.105 168 370C168 368.895 168.895 368 170 368C171.105 368 172 368.895 172 370C172 371.105 171.105 372 170 372Z" fill="#D9D9D9"/>
<path d="M74 180C72.8954 180 72 179.105 72 178C72 176.895 72.8954 176 74 176C75.1046 176 76 176.895 76 178C76 179.105 75.1046 180 74 180Z" fill="#D9D9D9"/>
<path d="M74 372C72.8954 372 72 371.105 72 370C72 368.895 72.8954 368 74 368C75.1046 368 76 368.895 76 370C76 371.105 75.1046 372 74 372Z" fill="#D9D9D9"/>
<path d="M122 84C120.895 84 120 83.1046 120 82C120 80.8954 120.895 80 122 80C123.105 80 124 80.8954 124 82C124 83.1046 123.105 84 122 84Z" fill="#D9D9D9"/>
<path d="M122 276C120.895 276 120 275.105 120 274C120 272.895 120.895 272 122 272C123.105 272 124 272.895 124 274C124 275.105 123.105 276 122 276Z" fill="#D9D9D9"/>
<path d="M26 84C24.8954 84 24 83.1046 24 82C24 80.8954 24.8954 80 26 80C27.1046 80 28 80.8954 28 82C28 83.1046 27.1046 84 26 84Z" fill="#D9D9D9"/>
<path d="M26 276C24.8954 276 24 275.105 24 274C24 272.895 24.8954 272 26 272C27.1046 272 28 272.895 28 274C28 275.105 27.1046 276 26 276Z" fill="#D9D9D9"/>
<path d="M122 180C120.895 180 120 179.105 120 178C120 176.895 120.895 176 122 176C123.105 176 124 176.895 124 178C124 179.105 123.105 180 122 180Z" fill="#D9D9D9"/>
<path d="M122 372C120.895 372 120 371.105 120 370C120 368.895 120.895 368 122 368C123.105 368 124 368.895 124 370C124 371.105 123.105 372 122 372Z" fill="#D9D9D9"/>
<path d="M26 180C24.8954 180 24 179.105 24 178C24 176.895 24.8954 176 26 176C27.1046 176 28 176.895 28 178C28 179.105 27.1046 180 26 180Z" fill="#D9D9D9"/>
<path d="M26 372C24.8954 372 24 371.105 24 370C24 368.895 24.8954 368 26 368C27.1046 368 28 368.895 28 370C28 371.105 27.1046 372 26 372Z" fill="#D9D9D9"/>
<path d="M170 36C168.895 36 168 35.1046 168 34C168 32.8954 168.895 32 170 32C171.105 32 172 32.8954 172 34C172 35.1046 171.105 36 170 36Z" fill="#D9D9D9"/>
<path d="M170 228C168.895 228 168 227.105 168 226C168 224.895 168.895 224 170 224C171.105 224 172 224.895 172 226C172 227.105 171.105 228 170 228Z" fill="#D9D9D9"/>
<path d="M74 36C72.8954 36 72 35.1046 72 34C72 32.8954 72.8954 32 74 32C75.1046 32 76 32.8954 76 34C76 35.1046 75.1046 36 74 36Z" fill="#D9D9D9"/>
<path d="M74 228C72.8954 228 72 227.105 72 226C72 224.895 72.8954 224 74 224C75.1046 224 76 224.895 76 226C76 227.105 75.1046 228 74 228Z" fill="#D9D9D9"/>
<path d="M170 132C168.895 132 168 131.105 168 130C168 128.895 168.895 128 170 128C171.105 128 172 128.895 172 130C172 131.105 171.105 132 170 132Z" fill="#D9D9D9"/>
<path d="M170 324C168.895 324 168 323.105 168 322C168 320.895 168.895 320 170 320C171.105 320 172 320.895 172 322C172 323.105 171.105 324 170 324Z" fill="#D9D9D9"/>
<path d="M74 132C72.8954 132 72 131.105 72 130C72 128.895 72.8954 128 74 128C75.1046 128 76 128.895 76 130C76 131.105 75.1046 132 74 132Z" fill="#D9D9D9"/>
<path d="M74 324C72.8954 324 72 323.105 72 322C72 320.895 72.8954 320 74 320C75.1046 320 76 320.895 76 322C76 323.105 75.1046 324 74 324Z" fill="#D9D9D9"/>
<path d="M122 36C120.895 36 120 35.1046 120 34C120 32.8954 120.895 32 122 32C123.105 32 124 32.8954 124 34C124 35.1046 123.105 36 122 36Z" fill="#D9D9D9"/>
<path d="M122 228C120.895 228 120 227.105 120 226C120 224.895 120.895 224 122 224C123.105 224 124 224.895 124 226C124 227.105 123.105 228 122 228Z" fill="#D9D9D9"/>
<path d="M26 36C24.8954 36 24 35.1046 24 34C24 32.8954 24.8954 32 26 32C27.1046 32 28 32.8954 28 34C28 35.1046 27.1046 36 26 36Z" fill="#D9D9D9"/>
<path d="M26 228C24.8954 228 24 227.105 24 226C24 224.895 24.8954 224 26 224C27.1046 224 28 224.895 28 226C28 227.105 27.1046 228 26 228Z" fill="#D9D9D9"/>
<path d="M122 132C120.895 132 120 131.105 120 130C120 128.895 120.895 128 122 128C123.105 128 124 128.895 124 130C124 131.105 123.105 132 122 132Z" fill="#D9D9D9"/>
<path d="M122 324C120.895 324 120 323.105 120 322C120 320.895 120.895 320 122 320C123.105 320 124 320.895 124 322C124 323.105 123.105 324 122 324Z" fill="#D9D9D9"/>
<path d="M26 132C24.8954 132 24 131.105 24 130C24 128.895 24.8954 128 26 128C27.1046 128 28 128.895 28 130C28 131.105 27.1046 132 26 132Z" fill="#D9D9D9"/>
<path d="M26 324C24.8954 324 24 323.105 24 322C24 320.895 24.8954 320 26 320C27.1046 320 28 320.895 28 322C28 323.105 27.1046 324 26 324Z" fill="#D9D9D9"/>
<path d="M146 60C144.895 60 144 59.1046 144 58C144 56.8954 144.895 56 146 56C147.105 56 148 56.8954 148 58C148 59.1046 147.105 60 146 60Z" fill="#D9D9D9"/>
<path d="M146 252C144.895 252 144 251.105 144 250C144 248.895 144.895 248 146 248C147.105 248 148 248.895 148 250C148 251.105 147.105 252 146 252Z" fill="#D9D9D9"/>
<path d="M50 60C48.8954 60 48 59.1046 48 58C48 56.8954 48.8954 56 50 56C51.1046 56 52 56.8954 52 58C52 59.1046 51.1046 60 50 60Z" fill="#D9D9D9"/>
<path d="M50 252C48.8954 252 48 251.105 48 250C48 248.895 48.8954 248 50 248C51.1046 248 52 248.895 52 250C52 251.105 51.1046 252 50 252Z" fill="#D9D9D9"/>
<path d="M146 156C144.895 156 144 155.105 144 154C144 152.895 144.895 152 146 152C147.105 152 148 152.895 148 154C148 155.105 147.105 156 146 156Z" fill="#D9D9D9"/>
<path d="M146 348C144.895 348 144 347.105 144 346C144 344.895 144.895 344 146 344C147.105 344 148 344.895 148 346C148 347.105 147.105 348 146 348Z" fill="#D9D9D9"/>
<path d="M50 156C48.8954 156 48 155.105 48 154C48 152.895 48.8954 152 50 152C51.1046 152 52 152.895 52 154C52 155.105 51.1046 156 50 156Z" fill="#D9D9D9"/>
<path d="M50 348C48.8954 348 48 347.105 48 346C48 344.895 48.8954 344 50 344C51.1046 344 52 344.895 52 346C52 347.105 51.1046 348 50 348Z" fill="#D9D9D9"/>
<path d="M98 60C96.8954 60 96 59.1046 96 58C96 56.8954 96.8954 56 98 56C99.1046 56 100 56.8954 100 58C100 59.1046 99.1046 60 98 60Z" fill="#D9D9D9"/>
<path d="M98 252C96.8954 252 96 251.105 96 250C96 248.895 96.8954 248 98 248C99.1046 248 100 248.895 100 250C100 251.105 99.1046 252 98 252Z" fill="#D9D9D9"/>
<path d="M2 60C0.895429 60 -2.75839e-06 59.1046 -2.71011e-06 58C-2.66182e-06 56.8954 0.895429 56 2 56C3.10457 56 4 56.8954 4 58C4 59.1046 3.10457 60 2 60Z" fill="#D9D9D9"/>
<path d="M1.99999 252C0.89542 252 -1.1151e-05 251.105 -1.11027e-05 250C-1.10544e-05 248.895 0.895421 248 1.99999 248C3.10456 248 3.99999 248.895 3.99999 250C3.99999 251.105 3.10456 252 1.99999 252Z" fill="#D9D9D9"/>
<path d="M98 156C96.8954 156 96 155.105 96 154C96 152.895 96.8954 152 98 152C99.1046 152 100 152.895 100 154C100 155.105 99.1046 156 98 156Z" fill="#D9D9D9"/>
<path d="M98 348C96.8954 348 96 347.105 96 346C96 344.895 96.8954 344 98 344C99.1046 344 100 344.895 100 346C100 347.105 99.1046 348 98 348Z" fill="#D9D9D9"/>
<path d="M1.99999 156C0.895425 156 -6.95468e-06 155.105 -6.9064e-06 154C-6.85812e-06 152.895 0.895425 152 1.99999 152C3.10456 152 3.99999 152.895 3.99999 154C3.99999 155.105 3.10456 156 1.99999 156Z" fill="#D9D9D9"/>
<path d="M1.99998 348C0.895416 348 -1.53473e-05 347.105 -1.5299e-05 346C-1.52507e-05 344.895 0.895416 344 1.99998 344C3.10455 344 3.99998 344.895 3.99998 346C3.99998 347.105 3.10455 348 1.99998 348Z" fill="#D9D9D9"/>
<path d="M146 12C144.895 12 144 11.1046 144 10C144 8.89543 144.895 8 146 8C147.105 8 148 8.89543 148 10C148 11.1046 147.105 12 146 12Z" fill="#D9D9D9"/>
<path d="M146 204C144.895 204 144 203.105 144 202C144 200.895 144.895 200 146 200C147.105 200 148 200.895 148 202C148 203.105 147.105 204 146 204Z" fill="#D9D9D9"/>
<path d="M50 12C48.8954 12 48 11.1046 48 9.99999C48 8.89542 48.8954 7.99999 50 7.99999C51.1046 7.99999 52 8.89542 52 9.99999C52 11.1046 51.1046 12 50 12Z" fill="#D9D9D9"/>
<path d="M50 204C48.8954 204 48 203.105 48 202C48 200.895 48.8954 200 50 200C51.1046 200 52 200.895 52 202C52 203.105 51.1046 204 50 204Z" fill="#D9D9D9"/>
<path d="M146 108C144.895 108 144 107.105 144 106C144 104.895 144.895 104 146 104C147.105 104 148 104.895 148 106C148 107.105 147.105 108 146 108Z" fill="#D9D9D9"/>
<path d="M146 300C144.895 300 144 299.105 144 298C144 296.895 144.895 296 146 296C147.105 296 148 296.895 148 298C148 299.105 147.105 300 146 300Z" fill="#D9D9D9"/>
<path d="M50 108C48.8954 108 48 107.105 48 106C48 104.895 48.8954 104 50 104C51.1046 104 52 104.895 52 106C52 107.105 51.1046 108 50 108Z" fill="#D9D9D9"/>
<path d="M50 300C48.8954 300 48 299.105 48 298C48 296.895 48.8954 296 50 296C51.1046 296 52 296.895 52 298C52 299.105 51.1046 300 50 300Z" fill="#D9D9D9"/>
<path d="M98 12C96.8954 12 96 11.1046 96 10C96 8.89543 96.8954 8 98 8C99.1046 8 100 8.89543 100 10C100 11.1046 99.1046 12 98 12Z" fill="#D9D9D9"/>
<path d="M98 204C96.8954 204 96 203.105 96 202C96 200.895 96.8954 200 98 200C99.1046 200 100 200.895 100 202C100 203.105 99.1046 204 98 204Z" fill="#D9D9D9"/>
<path d="M2 12C0.895431 12 -6.60242e-07 11.1046 -6.11959e-07 9.99999C-5.63677e-07 8.89542 0.895431 7.99999 2 7.99999C3.10457 7.99999 4 8.89542 4 9.99999C4 11.1046 3.10457 12 2 12Z" fill="#D9D9D9"/>
<path d="M1.99999 204C0.895422 204 -9.05283e-06 203.105 -9.00455e-06 202C-8.95626e-06 200.895 0.895423 200 1.99999 200C3.10456 200 3.99999 200.895 3.99999 202C3.99999 203.105 3.10456 204 1.99999 204Z" fill="#D9D9D9"/>
<path d="M98 108C96.8954 108 96 107.105 96 106C96 104.895 96.8954 104 98 104C99.1046 104 100 104.895 100 106C100 107.105 99.1046 108 98 108Z" fill="#D9D9D9"/>
<path d="M98 300C96.8954 300 96 299.105 96 298C96 296.895 96.8954 296 98 296C99.1046 296 100 296.895 100 298C100 299.105 99.1046 300 98 300Z" fill="#D9D9D9"/>
<path d="M2 108C0.895427 108 -4.85653e-06 107.105 -4.80825e-06 106C-4.75997e-06 104.895 0.895427 104 2 104C3.10456 104 4 104.895 4 106C4 107.105 3.10456 108 2 108Z" fill="#D9D9D9"/>
<path d="M1.99999 300C0.895418 300 -1.32491e-05 299.105 -1.32008e-05 298C-1.31526e-05 296.895 0.895418 296 1.99999 296C3.10456 296 3.99999 296.895 3.99999 298C3.99999 299.105 3.10456 300 1.99999 300Z" fill="#D9D9D9"/>
<path d="M146 84C144.895 84 144 83.1046 144 82C144 80.8954 144.895 80 146 80C147.105 80 148 80.8954 148 82C148 83.1046 147.105 84 146 84Z" fill="#D9D9D9"/>
<path d="M146 276C144.895 276 144 275.105 144 274C144 272.895 144.895 272 146 272C147.105 272 148 272.895 148 274C148 275.105 147.105 276 146 276Z" fill="#D9D9D9"/>
<path d="M50 84C48.8954 84 48 83.1046 48 82C48 80.8954 48.8954 80 50 80C51.1046 80 52 80.8954 52 82C52 83.1046 51.1046 84 50 84Z" fill="#D9D9D9"/>
<path d="M50 276C48.8954 276 48 275.105 48 274C48 272.895 48.8954 272 50 272C51.1046 272 52 272.895 52 274C52 275.105 51.1046 276 50 276Z" fill="#D9D9D9"/>
<path d="M146 180C144.895 180 144 179.105 144 178C144 176.895 144.895 176 146 176C147.105 176 148 176.895 148 178C148 179.105 147.105 180 146 180Z" fill="#D9D9D9"/>
<path d="M146 372C144.895 372 144 371.105 144 370C144 368.895 144.895 368 146 368C147.105 368 148 368.895 148 370C148 371.105 147.105 372 146 372Z" fill="#D9D9D9"/>
<path d="M50 180C48.8954 180 48 179.105 48 178C48 176.895 48.8954 176 50 176C51.1046 176 52 176.895 52 178C52 179.105 51.1046 180 50 180Z" fill="#D9D9D9"/>
<path d="M50 372C48.8954 372 48 371.105 48 370C48 368.895 48.8954 368 50 368C51.1046 368 52 368.895 52 370C52 371.105 51.1046 372 50 372Z" fill="#D9D9D9"/>
<path d="M98 84C96.8954 84 96 83.1046 96 82C96 80.8954 96.8954 80 98 80C99.1046 80 100 80.8954 100 82C100 83.1046 99.1046 84 98 84Z" fill="#D9D9D9"/>
<path d="M98 276C96.8954 276 96 275.105 96 274C96 272.895 96.8954 272 98 272C99.1046 272 100 272.895 100 274C100 275.105 99.1046 276 98 276Z" fill="#D9D9D9"/>
<path d="M2 84C0.895428 84 -3.80746e-06 83.1046 -3.75918e-06 82C-3.7109e-06 80.8954 0.895428 80 2 80C3.10456 80 4 80.8954 4 82C4 83.1046 3.10456 84 2 84Z" fill="#D9D9D9"/>
<path d="M1.99999 276C0.895419 276 -1.22e-05 275.105 -1.21518e-05 274C-1.21035e-05 272.895 0.895419 272 1.99999 272C3.10456 272 3.99999 272.895 3.99999 274C3.99999 275.105 3.10456 276 1.99999 276Z" fill="#D9D9D9"/>
<path d="M98 180C96.8954 180 96 179.105 96 178C96 176.895 96.8954 176 98 176C99.1046 176 100 176.895 100 178C100 179.105 99.1046 180 98 180Z" fill="#D9D9D9"/>
<path d="M98 372C96.8954 372 96 371.105 96 370C96 368.895 96.8954 368 98 368C99.1046 368 100 368.895 100 370C100 371.105 99.1046 372 98 372Z" fill="#D9D9D9"/>
<path d="M1.99999 180C0.895423 180 -8.00375e-06 179.105 -7.95547e-06 178C-7.90719e-06 176.895 0.895424 176 1.99999 176C3.10456 176 3.99999 176.895 3.99999 178C3.99999 179.105 3.10456 180 1.99999 180Z" fill="#D9D9D9"/>
<path d="M1.99998 372C0.895415 372 -1.63963e-05 371.105 -1.63481e-05 370C-1.62998e-05 368.895 0.895415 368 1.99998 368C3.10455 368 3.99998 368.895 3.99998 370C3.99998 371.105 3.10455 372 1.99998 372Z" fill="#D9D9D9"/>
<path d="M146 36C144.895 36 144 35.1046 144 34C144 32.8954 144.895 32 146 32C147.105 32 148 32.8954 148 34C148 35.1046 147.105 36 146 36Z" fill="#D9D9D9"/>
<path d="M146 228C144.895 228 144 227.105 144 226C144 224.895 144.895 224 146 224C147.105 224 148 224.895 148 226C148 227.105 147.105 228 146 228Z" fill="#D9D9D9"/>
<path d="M50 36C48.8954 36 48 35.1046 48 34C48 32.8954 48.8954 32 50 32C51.1046 32 52 32.8954 52 34C52 35.1046 51.1046 36 50 36Z" fill="#D9D9D9"/>
<path d="M50 228C48.8954 228 48 227.105 48 226C48 224.895 48.8954 224 50 224C51.1046 224 52 224.895 52 226C52 227.105 51.1046 228 50 228Z" fill="#D9D9D9"/>
<path d="M146 132C144.895 132 144 131.105 144 130C144 128.895 144.895 128 146 128C147.105 128 148 128.895 148 130C148 131.105 147.105 132 146 132Z" fill="#D9D9D9"/>
<path d="M146 324C144.895 324 144 323.105 144 322C144 320.895 144.895 320 146 320C147.105 320 148 320.895 148 322C148 323.105 147.105 324 146 324Z" fill="#D9D9D9"/>
<path d="M50 132C48.8954 132 48 131.105 48 130C48 128.895 48.8954 128 50 128C51.1046 128 52 128.895 52 130C52 131.105 51.1046 132 50 132Z" fill="#D9D9D9"/>
<path d="M50 324C48.8954 324 48 323.105 48 322C48 320.895 48.8954 320 50 320C51.1046 320 52 320.895 52 322C52 323.105 51.1046 324 50 324Z" fill="#D9D9D9"/>
<path d="M98 36C96.8954 36 96 35.1046 96 34C96 32.8954 96.8954 32 98 32C99.1046 32 100 32.8954 100 34C100 35.1046 99.1046 36 98 36Z" fill="#D9D9D9"/>
<path d="M98 228C96.8954 228 96 227.105 96 226C96 224.895 96.8954 224 98 224C99.1046 224 100 224.895 100 226C100 227.105 99.1046 228 98 228Z" fill="#D9D9D9"/>
<path d="M2 36C0.89543 36 -1.70931e-06 35.1046 -1.66103e-06 34C-1.61275e-06 32.8954 0.89543 32 2 32C3.10457 32 4 32.8954 4 34C4 35.1046 3.10457 36 2 36Z" fill="#D9D9D9"/>
<path d="M1.99999 228C0.895421 228 -1.01019e-05 227.105 -1.00536e-05 226C-1.00053e-05 224.895 0.895422 224 1.99999 224C3.10456 224 3.99999 224.895 3.99999 226C3.99999 227.105 3.10456 228 1.99999 228Z" fill="#D9D9D9"/>
<path d="M98 132C96.8954 132 96 131.105 96 130C96 128.895 96.8954 128 98 128C99.1046 128 100 128.895 100 130C100 131.105 99.1046 132 98 132Z" fill="#D9D9D9"/>
<path d="M98 324C96.8954 324 96 323.105 96 322C96 320.895 96.8954 320 98 320C99.1046 320 100 320.895 100 322C100 323.105 99.1046 324 98 324Z" fill="#D9D9D9"/>
<path d="M1.99999 132C0.895426 132 -5.90561e-06 131.105 -5.85733e-06 130C-5.80904e-06 128.895 0.895426 128 1.99999 128C3.10456 128 3.99999 128.895 3.99999 130C3.99999 131.105 3.10456 132 1.99999 132Z" fill="#D9D9D9"/>
<path d="M1.99999 324C0.895417 324 -1.42982e-05 323.105 -1.42499e-05 322C-1.42016e-05 320.895 0.895417 320 1.99999 320C3.10455 320 3.99999 320.895 3.99999 322C3.99999 323.105 3.10455 324 1.99999 324Z" fill="#D9D9D9"/>
</svg>
