<svg width="32" height="32" viewBox="0 0 32 32" fill="none" xmlns="http://www.w3.org/2000/svg">
<rect width="32" height="32" fill="white"/>
<path d="M1.91669 15.6445L3.31126 11.5014H4.567L5.88444 15.6445H4.84468L4.61945 14.9159H3.19093L2.9657 15.6445H1.91669ZM3.44085 14.1842H4.39422L3.92525 12.6684L3.44085 14.1842Z" fill="black"/>
<path d="M6.49664 11.5014H7.52714L9.19014 14.0082H9.12227V11.5014H10.1096V15.6445H9.1562L7.32043 12.8907H7.48395V15.6445H6.49664V11.5014Z" fill="black"/>
<path d="M11.1552 15.6445V11.5014H13.8549V12.3566H12.1425V13.1685H13.6759V14.0113H12.1425V15.6445H11.1552Z" fill="black"/>
<path d="M14.6744 15.6445V11.5014H15.6617V15.6445H14.6744Z" fill="black"/>
<path d="M16.7112 11.5014H18.1243L19.0407 13.7119H18.9635L19.8799 11.5014H21.2374V15.6445H20.244V12.6962H20.3797L19.3153 15.2586H18.6766L17.6183 12.7023H17.6986V15.6445H16.7112V11.5014Z" fill="black"/>
<path d="M21.875 15.6445L23.2696 11.5014H24.5253L25.8428 15.6445H24.803L24.5778 14.9159H23.1492L22.924 15.6445H21.875ZM23.3992 14.1842H24.3525L23.8836 12.6684L23.3992 14.1842Z" fill="black"/>
<path d="M26.4395 11.5014H27.4268V14.0144C27.4268 14.3087 27.5019 14.5207 27.6521 14.6504C27.8022 14.78 27.9904 14.8449 28.2167 14.8449C28.4471 14.8449 28.6373 14.78 28.7875 14.6504C28.9397 14.5207 29.0158 14.3087 29.0158 14.0144V11.5014H30V14.0144C30 14.3643 29.9311 14.6689 29.7933 14.9282C29.6555 15.1875 29.4539 15.3882 29.1886 15.5302C28.9232 15.6722 28.5993 15.7432 28.2167 15.7432C27.8341 15.7432 27.5101 15.6722 27.2448 15.5302C26.9815 15.3882 26.781 15.1875 26.6432 14.9282C26.5074 14.6689 26.4395 14.3643 26.4395 14.0144V11.5014Z" fill="black"/>
<rect x="1.91669" y="17.3143" width="28.0832" height="0.441032" fill="#7D8596"/>
<path d="M1.91669 19.3356H2.15807V21.3726H1.91669V19.3356Z" fill="black"/>
<path d="M3.07422 20.0399L2.91717 19.7459H2.90554L2.93462 20.0399V21.3726H2.70778V19.3036H2.83574L3.81001 20.6626L3.96124 20.942H3.97578L3.94379 20.6626V19.3356H4.17063V21.4047H4.04267L3.07422 20.0399Z" fill="black"/>
<path d="M4.66461 19.3356C4.70145 19.3298 4.74216 19.3259 4.78675 19.324C4.83329 19.3201 4.88079 19.3182 4.92926 19.3182C4.97967 19.3162 5.02814 19.3153 5.07467 19.3153C5.12314 19.3133 5.16774 19.3123 5.20845 19.3123C5.37131 19.3123 5.51188 19.3376 5.63015 19.388C5.75036 19.4384 5.84924 19.5093 5.92679 19.6004C6.00435 19.6897 6.06154 19.7974 6.09838 19.9235C6.13716 20.0496 6.15655 20.1883 6.15655 20.3396C6.15655 20.4773 6.13813 20.6102 6.10129 20.7383C6.06639 20.8644 6.01016 20.9769 5.93261 21.0758C5.85506 21.1728 5.75424 21.2514 5.63015 21.3115C5.50606 21.3697 5.3558 21.3988 5.17937 21.3988C5.14835 21.3988 5.10763 21.3979 5.05722 21.3959C5.00875 21.3959 4.95834 21.394 4.90599 21.3901C4.85364 21.3882 4.80517 21.3862 4.76058 21.3843C4.71599 21.3823 4.684 21.3794 4.66461 21.3756V19.3356ZM5.21427 19.5277C5.18906 19.5277 5.16095 19.5277 5.12993 19.5277C5.10085 19.5277 5.07176 19.5287 5.04268 19.5306C5.0136 19.5325 4.98645 19.5345 4.96125 19.5364C4.93798 19.5384 4.91956 19.5403 4.90599 19.5422V21.1719C4.91569 21.1738 4.93411 21.1757 4.96125 21.1777C4.98839 21.1777 5.01651 21.1786 5.04559 21.1806C5.07467 21.1806 5.10279 21.1816 5.12993 21.1835C5.15707 21.1835 5.17549 21.1835 5.18519 21.1835C5.3209 21.1835 5.43433 21.1602 5.52545 21.1137C5.61852 21.0671 5.69219 21.005 5.74648 20.9274C5.80271 20.8479 5.84245 20.7577 5.86572 20.6568C5.88899 20.554 5.90062 20.4482 5.90062 20.3396C5.90062 20.2445 5.88995 20.1495 5.86863 20.0544C5.8473 19.9574 5.81046 19.8701 5.75811 19.7925C5.70576 19.7149 5.635 19.6518 5.54581 19.6033C5.45856 19.5529 5.34805 19.5277 5.21427 19.5277Z" fill="black"/>
<path d="M7.73659 19.3356H7.96926V20.6946C7.96926 20.8168 7.95278 20.9226 7.91982 21.0118C7.88879 21.101 7.84323 21.1748 7.78313 21.233C7.72496 21.2892 7.65419 21.3309 7.57082 21.3581C7.48745 21.3853 7.39536 21.3988 7.29454 21.3988C7.05412 21.3988 6.87284 21.3445 6.75069 21.2359C6.62855 21.1272 6.56747 20.9623 6.56747 20.7412V19.3356H6.80886V20.6277C6.80886 20.7305 6.81855 20.8178 6.83794 20.8896C6.85927 20.9594 6.89029 21.0167 6.93101 21.0613C6.97172 21.104 7.02213 21.135 7.08224 21.1544C7.14428 21.1738 7.21602 21.1835 7.29745 21.1835C7.45449 21.1835 7.56695 21.1408 7.63481 21.0555C7.70266 20.9682 7.73659 20.8256 7.73659 20.6277V19.3356Z" fill="black"/>
<path d="M9.38367 20.8547C9.38367 20.7732 9.35943 20.7072 9.31096 20.6568C9.26249 20.6044 9.20142 20.5588 9.12774 20.52C9.05601 20.4793 8.97748 20.4414 8.89217 20.4065C8.80686 20.3716 8.72737 20.3299 8.6537 20.2814C8.58196 20.2309 8.52186 20.1698 8.47338 20.0981C8.42491 20.0243 8.40068 19.9312 8.40068 19.8187C8.40068 19.6596 8.45594 19.5335 8.56645 19.4404C8.67696 19.3473 8.83401 19.3007 9.03759 19.3007C9.15586 19.3007 9.26346 19.3094 9.3604 19.3269C9.45735 19.3444 9.53296 19.3667 9.58725 19.3938L9.51454 19.6063C9.46995 19.5849 9.40403 19.5645 9.31678 19.5451C9.23147 19.5257 9.13453 19.516 9.02595 19.516C8.89799 19.516 8.80202 19.5451 8.73804 19.6033C8.67405 19.6596 8.64206 19.7265 8.64206 19.8041C8.64206 19.8798 8.6663 19.9429 8.71477 19.9933C8.76324 20.0437 8.82334 20.0893 8.89508 20.1301C8.96876 20.1689 9.04825 20.2077 9.13356 20.2465C9.21887 20.2853 9.29739 20.3309 9.36913 20.3832C9.4428 20.4337 9.50388 20.4948 9.55235 20.5666C9.60082 20.6384 9.62506 20.7276 9.62506 20.8343C9.62506 20.9216 9.60955 21.0002 9.57852 21.07C9.5475 21.1398 9.50194 21.2 9.44183 21.2504C9.38173 21.3009 9.30902 21.3397 9.22372 21.3668C9.13841 21.394 9.04146 21.4076 8.93289 21.4076C8.78748 21.4076 8.66727 21.3959 8.57227 21.3726C8.47726 21.3513 8.40359 21.3271 8.35124 21.2999L8.43267 21.0816C8.47726 21.1069 8.54318 21.1321 8.63043 21.1573C8.71768 21.1806 8.81559 21.1922 8.92416 21.1922C8.98815 21.1922 9.04825 21.1864 9.10448 21.1748C9.1607 21.1612 9.20917 21.1408 9.24989 21.1137C9.29061 21.0846 9.3226 21.0487 9.34586 21.006C9.37107 20.9633 9.38367 20.9129 9.38367 20.8547Z" fill="black"/>
<path d="M11.3242 19.551H10.6902V21.3726H10.4488V19.551H9.81482V19.3356H11.3242V19.551Z" fill="black"/>
<path d="M11.6228 19.356C11.6965 19.3424 11.7809 19.3317 11.8759 19.324C11.9728 19.3162 12.061 19.3123 12.1405 19.3123C12.2297 19.3123 12.314 19.322 12.3935 19.3414C12.475 19.3608 12.5457 19.3929 12.6058 19.4375C12.6679 19.4821 12.7173 19.5403 12.7542 19.6121C12.791 19.6839 12.8094 19.7712 12.8094 19.874C12.8094 20.0331 12.7658 20.1621 12.6785 20.261C12.5913 20.36 12.4808 20.4259 12.347 20.4589L12.4866 20.5666L12.9926 21.3726H12.7105L12.1492 20.4938L11.8642 20.4502V21.3726H11.6228V19.356ZM12.1463 19.5219C12.1211 19.5219 12.095 19.5219 12.0678 19.5219C12.0407 19.5219 12.0145 19.5228 11.9893 19.5248C11.9641 19.5267 11.9398 19.5287 11.9166 19.5306C11.8953 19.5325 11.8778 19.5354 11.8642 19.5393V20.2901H12.0911C12.2249 20.2901 12.3354 20.2571 12.4226 20.1912C12.5099 20.1252 12.5535 20.0224 12.5535 19.8827C12.5535 19.778 12.5176 19.6916 12.4459 19.6237C12.3742 19.5558 12.2743 19.5219 12.1463 19.5219Z" fill="black"/>
<path d="M13.6271 20.5637L12.9553 19.3356H13.2374L13.7143 20.2261L13.7638 20.4036H13.7667L13.819 20.2203L14.2756 19.3356H14.5345L13.8685 20.5607V21.3726H13.6271V20.5637Z" fill="black"/>
<path d="M16.4214 20.8547C16.4214 20.7732 16.3972 20.7072 16.3487 20.6568C16.3003 20.6044 16.2392 20.5588 16.1655 20.52C16.0938 20.4793 16.0152 20.4414 15.9299 20.4065C15.8446 20.3716 15.7651 20.3299 15.6915 20.2814C15.6197 20.2309 15.5596 20.1698 15.5111 20.0981C15.4627 20.0243 15.4384 19.9312 15.4384 19.8187C15.4384 19.6596 15.4937 19.5335 15.6042 19.4404C15.7147 19.3473 15.8718 19.3007 16.0754 19.3007C16.1936 19.3007 16.3012 19.3094 16.3982 19.3269C16.4951 19.3444 16.5707 19.3667 16.625 19.3938L16.5523 19.6063C16.5077 19.5849 16.4418 19.5645 16.3545 19.5451C16.2692 19.5257 16.1723 19.516 16.0637 19.516C15.9358 19.516 15.8398 19.5451 15.7758 19.6033C15.7118 19.6596 15.6798 19.7265 15.6798 19.8041C15.6798 19.8798 15.7041 19.9429 15.7525 19.9933C15.801 20.0437 15.8611 20.0893 15.9328 20.1301C16.0065 20.1689 16.086 20.2077 16.1713 20.2465C16.2566 20.2853 16.3352 20.3309 16.4069 20.3832C16.4806 20.4337 16.5416 20.4948 16.5901 20.5666C16.6386 20.6384 16.6628 20.7276 16.6628 20.8343C16.6628 20.9216 16.6473 21.0002 16.6163 21.07C16.5853 21.1398 16.5397 21.2 16.4796 21.2504C16.4195 21.3009 16.3468 21.3397 16.2615 21.3668C16.1762 21.394 16.0792 21.4076 15.9707 21.4076C15.8252 21.4076 15.705 21.3959 15.61 21.3726C15.515 21.3513 15.4413 21.3271 15.389 21.2999L15.4704 21.0816C15.515 21.1069 15.5809 21.1321 15.6682 21.1573C15.7554 21.1806 15.8534 21.1922 15.9619 21.1922C16.0259 21.1922 16.086 21.1864 16.1422 21.1748C16.1985 21.1612 16.2469 21.1408 16.2877 21.1137C16.3284 21.0846 16.3604 21.0487 16.3836 21.006C16.4088 20.9633 16.4214 20.9129 16.4214 20.8547Z" fill="black"/>
<path d="M16.9631 20.3541C16.9631 20.0146 17.0348 19.7547 17.1783 19.5742C17.3218 19.3919 17.5263 19.3007 17.792 19.3007C17.9354 19.3007 18.0595 19.3259 18.1642 19.3764C18.2689 19.4268 18.3552 19.4986 18.423 19.5917C18.4928 19.6829 18.5442 19.7935 18.5772 19.9235C18.6101 20.0515 18.6266 20.1951 18.6266 20.3541C18.6266 20.6936 18.5539 20.9546 18.4085 21.1369C18.265 21.3174 18.0595 21.4076 17.792 21.4076C17.6504 21.4076 17.5273 21.3823 17.4226 21.3319C17.3198 21.2815 17.2336 21.2107 17.1638 21.1195C17.0959 21.0264 17.0455 20.9158 17.0125 20.7877C16.9796 20.6578 16.9631 20.5132 16.9631 20.3541ZM17.219 20.3541C17.219 20.4667 17.2297 20.5734 17.251 20.6742C17.2743 20.7751 17.3092 20.8644 17.3557 20.942C17.4022 21.0176 17.4614 21.0787 17.5331 21.1253C17.6068 21.1699 17.6931 21.1922 17.792 21.1922C17.9723 21.1922 18.1138 21.1243 18.2166 20.9885C18.3193 20.8508 18.3707 20.6393 18.3707 20.3541C18.3707 20.2436 18.3591 20.1378 18.3358 20.0369C18.3145 19.9341 18.2796 19.8449 18.2311 19.7692C18.1846 19.6916 18.1245 19.6305 18.0508 19.5859C17.9791 19.5393 17.8928 19.516 17.792 19.516C17.6136 19.516 17.473 19.5849 17.3703 19.7227C17.2694 19.8585 17.219 20.069 17.219 20.3541Z" fill="black"/>
<path d="M20.2395 21.3726H19.0355V19.3356H19.2769V21.1573H20.2395V21.3726Z" fill="black"/>
<path d="M21.707 19.3356H21.9397V20.6946C21.9397 20.8168 21.9232 20.9226 21.8903 21.0118C21.8592 21.101 21.8137 21.1748 21.7536 21.233C21.6954 21.2892 21.6246 21.3309 21.5413 21.3581C21.4579 21.3853 21.3658 21.3988 21.265 21.3988C21.0246 21.3988 20.8433 21.3445 20.7211 21.2359C20.599 21.1272 20.5379 20.9623 20.5379 20.7412V19.3356H20.7793V20.6277C20.7793 20.7305 20.789 20.8178 20.8084 20.8896C20.8297 20.9594 20.8607 21.0167 20.9015 21.0613C20.9422 21.104 20.9926 21.135 21.0527 21.1544C21.1147 21.1738 21.1865 21.1835 21.2679 21.1835C21.4249 21.1835 21.5374 21.1408 21.6053 21.0555C21.6731 20.9682 21.707 20.8256 21.707 20.6277V19.3356Z" fill="black"/>
<path d="M23.7496 19.551H23.1156V21.3726H22.8743V19.551H22.2403V19.3356H23.7496V19.551Z" fill="black"/>
<path d="M24.1035 19.3356H24.3449V21.3726H24.1035V19.3356Z" fill="black"/>
<path d="M24.8103 20.3541C24.8103 20.0146 24.882 19.7547 25.0255 19.5742C25.169 19.3919 25.3735 19.3007 25.6391 19.3007C25.7826 19.3007 25.9067 19.3259 26.0114 19.3764C26.1161 19.4268 26.2024 19.4986 26.2702 19.5917C26.34 19.6829 26.3914 19.7935 26.4244 19.9235C26.4573 20.0515 26.4738 20.1951 26.4738 20.3541C26.4738 20.6936 26.4011 20.9546 26.2557 21.1369C26.1122 21.3174 25.9067 21.4076 25.6391 21.4076C25.4976 21.4076 25.3745 21.3823 25.2698 21.3319C25.167 21.2815 25.0808 21.2107 25.011 21.1195C24.9431 21.0264 24.8927 20.9158 24.8597 20.7877C24.8268 20.6578 24.8103 20.5132 24.8103 20.3541ZM25.0662 20.3541C25.0662 20.4667 25.0769 20.5734 25.0982 20.6742C25.1215 20.7751 25.1564 20.8644 25.2029 20.942C25.2494 21.0176 25.3086 21.0787 25.3803 21.1253C25.454 21.1699 25.5403 21.1922 25.6391 21.1922C25.8195 21.1922 25.961 21.1243 26.0638 20.9885C26.1665 20.8508 26.2179 20.6393 26.2179 20.3541C26.2179 20.2436 26.2063 20.1378 26.183 20.0369C26.1617 19.9341 26.1268 19.8449 26.0783 19.7692C26.0318 19.6916 25.9717 19.6305 25.898 19.5859C25.8262 19.5393 25.74 19.516 25.6391 19.516C25.4608 19.516 25.3202 19.5849 25.2174 19.7227C25.1166 19.8585 25.0662 20.069 25.0662 20.3541Z" fill="black"/>
<path d="M27.2491 20.0399L27.0921 19.7459H27.0805L27.1095 20.0399V21.3726H26.8827V19.3036H27.0107L27.9849 20.6626L28.1362 20.942H28.1507L28.1187 20.6626V19.3356H28.3456V21.4047H28.2176L27.2491 20.0399Z" fill="black"/>
<path d="M29.7585 20.8547C29.7585 20.7732 29.7343 20.7072 29.6858 20.6568C29.6374 20.6044 29.5763 20.5588 29.5026 20.52C29.4309 20.4793 29.3524 20.4414 29.267 20.4065C29.1817 20.3716 29.1022 20.3299 29.0286 20.2814C28.9568 20.2309 28.8967 20.1698 28.8483 20.0981C28.7998 20.0243 28.7755 19.9312 28.7755 19.8187C28.7755 19.6596 28.8308 19.5335 28.9413 19.4404C29.0518 19.3473 29.2089 19.3007 29.4125 19.3007C29.5307 19.3007 29.6383 19.3094 29.7353 19.3269C29.8322 19.3444 29.9078 19.3667 29.9621 19.3938L29.8894 19.6063C29.8448 19.5849 29.7789 19.5645 29.6916 19.5451C29.6063 19.5257 29.5094 19.516 29.4008 19.516C29.2729 19.516 29.1769 19.5451 29.1129 19.6033C29.0489 19.6596 29.0169 19.7265 29.0169 19.8041C29.0169 19.8798 29.0412 19.9429 29.0896 19.9933C29.1381 20.0437 29.1982 20.0893 29.2699 20.1301C29.3436 20.1689 29.4231 20.2077 29.5084 20.2465C29.5937 20.2853 29.6723 20.3309 29.744 20.3832C29.8177 20.4337 29.8787 20.4948 29.9272 20.5666C29.9757 20.6384 29.9999 20.7276 29.9999 20.8343C29.9999 20.9216 29.9844 21.0002 29.9534 21.07C29.9224 21.1398 29.8768 21.2 29.8167 21.2504C29.7566 21.3009 29.6839 21.3397 29.5986 21.3668C29.5133 21.394 29.4163 21.4076 29.3078 21.4076C29.1623 21.4076 29.0421 21.3959 28.9471 21.3726C28.8521 21.3513 28.7785 21.3271 28.7261 21.2999L28.8075 21.0816C28.8521 21.1069 28.9181 21.1321 29.0053 21.1573C29.0925 21.1806 29.1905 21.1922 29.299 21.1922C29.363 21.1922 29.4231 21.1864 29.4793 21.1748C29.5356 21.1612 29.584 21.1408 29.6248 21.1137C29.6655 21.0846 29.6975 21.0487 29.7207 21.006C29.7459 20.9633 29.7585 20.9129 29.7585 20.8547Z" fill="black"/>
</svg>
