<svg width="19" height="19" viewBox="0 0 19 19" fill="none" xmlns="http://www.w3.org/2000/svg">
<path fill-rule="evenodd" clip-rule="evenodd" d="M18.1666 18.2664H14.6051V12.2005C14.6051 10.5374 13.9732 9.60795 12.6568 9.60795C11.2248 9.60795 10.4766 10.5751 10.4766 12.2005V18.2664H7.04436V6.71088H10.4766V8.26742C10.4766 8.26742 11.5086 6.35784 13.9608 6.35784C16.4118 6.35784 18.1666 7.8546 18.1666 10.9502V18.2664ZM2.9497 5.19778C1.7806 5.19778 0.833252 4.24299 0.833252 3.06544C0.833252 1.88789 1.7806 0.933105 2.9497 0.933105C4.1188 0.933105 5.06559 1.88789 5.06559 3.06544C5.06559 4.24299 4.1188 5.19778 2.9497 5.19778ZM1.17744 18.2664H4.75639V6.71088H1.17744V18.2664Z" fill="white"/>
</svg>
