<svg width="114" height="40" viewBox="0 0 114 40" fill="none" xmlns="http://www.w3.org/2000/svg">
<path d="M0.000244141 16.7292L5.6613 0H10.7588L16.1067 16.7292H11.886L10.9717 13.7873H5.17285L4.25856 16.7292H0.000244141ZM6.18733 10.8329H10.0574L8.15367 4.71211L6.18733 10.8329Z" fill="white"/>
<path d="M18.5918 0H22.775L29.5257 10.1223H29.2502V0H33.258V16.7292H29.3879L21.9359 5.60966H22.5997V16.7292H18.5918V0Z" fill="white"/>
<path d="M37.5026 16.7292V0H48.4615V3.45306H41.5104V6.73159H47.7351V10.1348H41.5104V16.7292H37.5026Z" fill="white"/>
<path d="M51.7883 16.7292V0H55.7962V16.7292H51.7883Z" fill="white"/>
<path d="M60.0564 0H65.7926L69.5124 8.92559H69.1993L72.9191 0H78.4298V16.7292H74.3969V4.82431H74.948L70.6271 15.171H68.0345L63.7386 4.84924H64.0643V16.7292H60.0564V0Z" fill="white"/>
<path d="M81.0179 16.7292L86.679 0H91.7764L97.1244 16.7292H92.9036L91.9893 13.7873H86.1905L85.2762 16.7292H81.0179ZM87.205 10.8329H91.0751L89.1713 4.71211L87.205 10.8329Z" fill="white"/>
<path d="M99.5469 0H103.555V10.1472C103.555 11.3357 103.859 12.1917 104.469 12.7152C105.079 13.2388 105.843 13.5006 106.761 13.5006C107.696 13.5006 108.468 13.2388 109.078 12.7152C109.696 12.1917 110.005 11.3357 110.005 10.1472V0H114V10.1472C114 11.5601 113.72 12.79 113.161 13.8372C112.602 14.8843 111.783 15.6946 110.706 16.268C109.629 16.8414 108.314 17.1282 106.761 17.1282C105.208 17.1282 103.893 16.8414 102.816 16.268C101.747 15.6946 100.933 14.8843 100.373 13.8372C99.8224 12.79 99.5469 11.5601 99.5469 10.1472V0Z" fill="white"/>
<rect y="23.4722" width="113.999" height="1.78084" fill="#3A3F48"/>
<path d="M0.000141144 31.6337H0.980008V39.859H0.000141144V31.6337Z" fill="white"/>
<path d="M4.69897 34.4773L4.06146 33.2905H4.01424L4.1323 34.4773V39.859H3.21146V31.5044H3.7309L7.68579 36.9919L8.29968 38.1199H8.35871L8.22885 36.9919V31.6337H9.14969V39.9882H8.63024L4.69897 34.4773Z" fill="white"/>
<path d="M11.1549 31.6337C11.3044 31.6102 11.4697 31.5945 11.6507 31.5867C11.8396 31.571 12.0324 31.5632 12.2292 31.5632C12.4338 31.5553 12.6306 31.5514 12.8195 31.5514C13.0162 31.5436 13.1973 31.5397 13.3625 31.5397C14.0237 31.5397 14.5943 31.6415 15.0744 31.8452C15.5623 32.0489 15.9637 32.3348 16.2785 32.703C16.5934 33.0633 16.8255 33.4981 16.9751 34.0073C17.1325 34.5165 17.2112 35.0766 17.2112 35.6876C17.2112 36.2438 17.1364 36.7804 16.9869 37.2974C16.8452 37.8066 16.617 38.2609 16.3021 38.6604C15.9873 39.0521 15.5781 39.3694 15.0744 39.6122C14.5707 39.8472 13.9607 39.9647 13.2445 39.9647C13.1186 39.9647 12.9533 39.9608 12.7487 39.953C12.5519 39.953 12.3473 39.9452 12.1348 39.9295C11.9223 39.9217 11.7255 39.9138 11.5445 39.906C11.3635 39.8982 11.2336 39.8864 11.1549 39.8707V31.6337ZM13.3862 32.4092C13.2838 32.4092 13.1697 32.4092 13.0438 32.4092C12.9257 32.4092 12.8077 32.4131 12.6896 32.421C12.5716 32.4288 12.4614 32.4366 12.3591 32.4445C12.2646 32.4523 12.1899 32.4601 12.1348 32.468V39.0482C12.1741 39.056 12.2489 39.0639 12.3591 39.0717C12.4693 39.0717 12.5834 39.0756 12.7014 39.0835C12.8195 39.0835 12.9336 39.0874 13.0438 39.0952C13.154 39.0952 13.2287 39.0952 13.2681 39.0952C13.819 39.0952 14.2794 39.0012 14.6494 38.8132C15.0271 38.6252 15.3262 38.3745 15.5466 38.0612C15.7748 37.74 15.9362 37.3757 16.0306 36.9684C16.1251 36.5532 16.1723 36.1263 16.1723 35.6876C16.1723 35.3037 16.129 34.9199 16.0424 34.536C15.9558 34.1444 15.8063 33.7918 15.5938 33.4785C15.3813 33.1652 15.094 32.9106 14.732 32.7147C14.3778 32.511 13.9292 32.4092 13.3862 32.4092Z" fill="white"/>
<path d="M23.6251 31.6337H24.5696V37.1211C24.5696 37.6146 24.5027 38.0416 24.3689 38.4019C24.243 38.7623 24.058 39.06 23.814 39.295C23.5779 39.5221 23.2906 39.6906 22.9522 39.8002C22.6138 39.9099 22.2399 39.9647 21.8307 39.9647C20.8548 39.9647 20.1189 39.7454 19.623 39.3067C19.1272 38.868 18.8793 38.2022 18.8793 37.3091V31.6337H19.8591V36.8509C19.8591 37.2661 19.8985 37.6186 19.9772 37.9084C20.0638 38.1904 20.1897 38.4215 20.355 38.6017C20.5203 38.774 20.7249 38.8994 20.9689 38.9777C21.2207 39.056 21.5119 39.0952 21.8425 39.0952C22.48 39.0952 22.9365 38.9229 23.2119 38.5782C23.4874 38.2257 23.6251 37.6499 23.6251 36.8509V31.6337Z" fill="white"/>
<path d="M30.3112 37.7674C30.3112 37.4384 30.2128 37.1721 30.016 36.9684C29.8193 36.7569 29.5714 36.5728 29.2723 36.4161C28.9811 36.2516 28.6623 36.0988 28.316 35.9578C27.9697 35.8168 27.6471 35.6484 27.348 35.4526C27.0568 35.2489 26.8128 35.0021 26.616 34.7123C26.4193 34.4146 26.3209 34.0386 26.3209 33.5843C26.3209 32.9419 26.5452 32.4327 26.9938 32.0567C27.4424 31.6807 28.0799 31.4927 28.9063 31.4927C29.3864 31.4927 29.8232 31.5279 30.2167 31.5984C30.6103 31.6689 30.9172 31.759 31.1376 31.8687L30.8424 32.7265C30.6614 32.6403 30.3938 32.558 30.0397 32.4797C29.6934 32.4014 29.2998 32.3622 28.8591 32.3622C28.3396 32.3622 27.9501 32.4797 27.6903 32.7147C27.4306 32.9419 27.3008 33.2122 27.3008 33.5255C27.3008 33.831 27.3991 34.0856 27.5959 34.2893C27.7927 34.493 28.0366 34.677 28.3278 34.8415C28.6269 34.9982 28.9496 35.1549 29.2959 35.3116C29.6422 35.4682 29.961 35.6523 30.2522 35.8638C30.5512 36.0675 30.7992 36.3143 30.9959 36.6041C31.1927 36.894 31.2911 37.2543 31.2911 37.6852C31.2911 38.0377 31.2281 38.3549 31.1022 38.6369C30.9762 38.9189 30.7913 39.1618 30.5473 39.3655C30.3033 39.5691 30.0082 39.7258 29.6619 39.8355C29.3156 39.9452 28.9221 40 28.4813 40C27.891 40 27.4031 39.953 27.0174 39.859C26.6318 39.7728 26.3327 39.6749 26.1202 39.5652L26.4507 38.6839C26.6318 38.7858 26.8994 38.8876 27.2535 38.9895C27.6077 39.0835 28.0052 39.1305 28.4459 39.1305C28.7056 39.1305 28.9496 39.107 29.1778 39.06C29.4061 39.0051 29.6028 38.9229 29.7681 38.8132C29.9334 38.6957 30.0633 38.5508 30.1577 38.3784C30.26 38.2061 30.3112 38.0024 30.3112 37.7674Z" fill="white"/>
<path d="M38.1885 32.5032H35.6149V39.859H34.635V32.5032H32.0614V31.6337H38.1885V32.5032Z" fill="white"/>
<path d="M39.4008 31.7159C39.6999 31.6611 40.0422 31.618 40.4279 31.5867C40.8214 31.5553 41.1795 31.5397 41.5022 31.5397C41.8642 31.5397 42.2066 31.5788 42.5293 31.6572C42.8598 31.7355 43.1471 31.8648 43.3911 32.0449C43.6429 32.2251 43.8436 32.4601 43.9932 32.75C44.1427 33.0398 44.2175 33.3923 44.2175 33.8075C44.2175 34.4499 44.0404 34.9708 43.6862 35.3703C43.3321 35.7698 42.8834 36.0362 42.3404 36.1693L42.9071 36.6041L44.9612 39.859H43.8161L41.5376 36.3104L40.3807 36.1341V39.859H39.4008V31.7159ZM41.5258 32.3857C41.4235 32.3857 41.3172 32.3857 41.207 32.3857C41.0969 32.3857 40.9906 32.3896 40.8883 32.3975C40.786 32.4053 40.6876 32.4131 40.5932 32.421C40.5066 32.4288 40.4357 32.4405 40.3807 32.4562V35.4878H41.3015C41.8446 35.4878 42.2932 35.3547 42.6473 35.0883C43.0015 34.822 43.1786 34.4068 43.1786 33.8428C43.1786 33.4197 43.033 33.0711 42.7418 32.797C42.4506 32.5228 42.0452 32.3857 41.5258 32.3857Z" fill="white"/>
<path d="M47.5367 36.5924L44.8096 31.6337H45.9548L47.8909 35.2293L48.0916 35.9461H48.1034L48.3159 35.2058L50.1694 31.6337H51.2201L48.5166 36.5806V39.859H47.5367V36.5924Z" fill="white"/>
<path d="M58.8799 37.7674C58.8799 37.4384 58.7815 37.1721 58.5847 36.9684C58.388 36.7569 58.1401 36.5728 57.841 36.4161C57.5498 36.2516 57.231 36.0988 56.8847 35.9578C56.5384 35.8168 56.2158 35.6484 55.9167 35.4526C55.6255 35.2489 55.3815 35.0021 55.1847 34.7123C54.988 34.4146 54.8896 34.0386 54.8896 33.5843C54.8896 32.9419 55.1139 32.4327 55.5625 32.0567C56.0111 31.6807 56.6486 31.4927 57.475 31.4927C57.9551 31.4927 58.3919 31.5279 58.7854 31.5984C59.179 31.6689 59.4859 31.759 59.7063 31.8687L59.4111 32.7265C59.2301 32.6403 58.9625 32.558 58.6084 32.4797C58.2621 32.4014 57.8685 32.3622 57.4278 32.3622C56.9083 32.3622 56.5188 32.4797 56.259 32.7147C55.9993 32.9419 55.8695 33.2122 55.8695 33.5255C55.8695 33.831 55.9678 34.0856 56.1646 34.2893C56.3614 34.493 56.6053 34.677 56.8965 34.8415C57.1956 34.9982 57.5183 35.1549 57.8646 35.3116C58.2109 35.4682 58.5297 35.6523 58.8209 35.8638C59.1199 36.0675 59.3679 36.3143 59.5646 36.6041C59.7614 36.894 59.8598 37.2543 59.8598 37.6852C59.8598 38.0377 59.7968 38.3549 59.6709 38.6369C59.5449 38.9189 59.36 39.1618 59.116 39.3655C58.872 39.5691 58.5769 39.7258 58.2306 39.8355C57.8843 39.9452 57.4908 40 57.05 40C56.4597 40 55.9718 39.953 55.5861 39.859C55.2005 39.7728 54.9014 39.6749 54.6889 39.5652L55.0194 38.6839C55.2005 38.7858 55.4681 38.8876 55.8222 38.9895C56.1764 39.0835 56.5739 39.1305 57.0146 39.1305C57.2743 39.1305 57.5183 39.107 57.7466 39.06C57.9748 39.0051 58.1716 38.9229 58.3368 38.8132C58.5021 38.6957 58.632 38.5508 58.7264 38.3784C58.8287 38.2061 58.8799 38.0024 58.8799 37.7674Z" fill="white"/>
<path d="M61.0787 35.7463C61.0787 34.3754 61.3699 33.3257 61.9523 32.5972C62.5347 31.8609 63.365 31.4927 64.4433 31.4927C65.0257 31.4927 65.5294 31.5945 65.9544 31.7982C66.3794 32.0019 66.7296 32.2917 67.0051 32.6677C67.2884 33.0359 67.497 33.4824 67.6308 34.0073C67.7646 34.5243 67.8315 35.104 67.8315 35.7463C67.8315 37.1172 67.5364 38.1708 66.9461 38.9072C66.3637 39.6357 65.5294 40 64.4433 40C63.8688 40 63.369 39.8982 62.944 39.6945C62.5268 39.4908 62.1766 39.2049 61.8933 38.8367C61.6178 38.4607 61.4132 38.0142 61.2794 37.4971C61.1456 36.9723 61.0787 36.3887 61.0787 35.7463ZM62.1176 35.7463C62.1176 36.2007 62.1609 36.6315 62.2474 37.0389C62.3419 37.4462 62.4836 37.8066 62.6724 38.1199C62.8613 38.4254 63.1014 38.6722 63.3926 38.8602C63.6917 39.0404 64.0419 39.1305 64.4433 39.1305C65.1752 39.1305 65.7498 38.8563 66.1669 38.3079C66.584 37.7517 66.7926 36.8979 66.7926 35.7463C66.7926 35.2998 66.7454 34.8729 66.6509 34.4655C66.5644 34.0504 66.4227 33.69 66.2259 33.3845C66.0371 33.0712 65.7931 32.8244 65.494 32.6442C65.2028 32.4562 64.8526 32.3622 64.4433 32.3622C63.7192 32.3622 63.1486 32.6403 62.7315 33.1965C62.3222 33.7448 62.1176 34.5948 62.1176 35.7463Z" fill="white"/>
<path d="M74.3788 39.859H69.4913V31.6337H70.4712V38.9895H74.3788V39.859Z" fill="white"/>
<path d="M80.336 31.6337H81.2804V37.1211C81.2804 37.6146 81.2135 38.0416 81.0797 38.4019C80.9538 38.7623 80.7688 39.06 80.5249 39.295C80.2888 39.5221 80.0015 39.6906 79.6631 39.8002C79.3246 39.9099 78.9508 39.9647 78.5415 39.9647C77.5656 39.9647 76.8297 39.7454 76.3339 39.3067C75.838 38.868 75.5901 38.2022 75.5901 37.3091V31.6337H76.57V36.8509C76.57 37.2661 76.6093 37.6186 76.688 37.9084C76.7746 38.1904 76.9005 38.4215 77.0658 38.6017C77.2311 38.774 77.4357 38.8994 77.6797 38.9777C77.9316 39.056 78.2228 39.0952 78.5533 39.0952C79.1908 39.0952 79.6473 38.9229 79.9228 38.5782C80.1982 38.2257 80.336 37.6499 80.336 36.8509V31.6337Z" fill="white"/>
<path d="M88.6276 32.5032H86.054V39.859H85.0741V32.5032H82.5005V31.6337H88.6276V32.5032Z" fill="white"/>
<path d="M90.0642 31.6337H91.0441V39.859H90.0642V31.6337Z" fill="white"/>
<path d="M92.9331 35.7463C92.9331 34.3754 93.2243 33.3257 93.8068 32.5972C94.3892 31.8609 95.2195 31.4927 96.2977 31.4927C96.8802 31.4927 97.3839 31.5945 97.8089 31.7982C98.2339 32.0019 98.5841 32.2917 98.8596 32.6677C99.1429 33.0359 99.3515 33.4824 99.4853 34.0073C99.6191 34.5243 99.686 35.104 99.686 35.7463C99.686 37.1172 99.3908 38.1708 98.8005 38.9072C98.2181 39.6357 97.3839 40 96.2977 40C95.7232 40 95.2234 39.8982 94.7984 39.6945C94.3813 39.4908 94.0311 39.2049 93.7477 38.8367C93.4723 38.4607 93.2676 38.0142 93.1338 37.4971C93 36.9723 92.9331 36.3887 92.9331 35.7463ZM93.972 35.7463C93.972 36.2007 94.0153 36.6315 94.1019 37.0389C94.1963 37.4462 94.338 37.8066 94.5269 38.1199C94.7158 38.4254 94.9558 38.6722 95.247 38.8602C95.5461 39.0404 95.8964 39.1305 96.2977 39.1305C97.0297 39.1305 97.6042 38.8563 98.0214 38.3079C98.4385 37.7517 98.6471 36.8979 98.6471 35.7463C98.6471 35.2998 98.5998 34.8729 98.5054 34.4655C98.4188 34.0504 98.2772 33.69 98.0804 33.3845C97.8915 33.0712 97.6475 32.8244 97.3484 32.6442C97.0572 32.4562 96.707 32.3622 96.2977 32.3622C95.5737 32.3622 95.0031 32.6403 94.5859 33.1965C94.1767 33.7448 93.972 34.5948 93.972 35.7463Z" fill="white"/>
<path d="M102.833 34.4773L102.196 33.2905H102.149L102.267 34.4773V39.859H101.346V31.5044H101.865L105.82 36.9919L106.434 38.1199H106.493L106.363 36.9919V31.6337H107.284V39.9882H106.765L102.833 34.4773Z" fill="white"/>
<path d="M113.02 37.7674C113.02 37.4384 112.921 37.1721 112.725 36.9684C112.528 36.7569 112.28 36.5728 111.981 36.4161C111.69 36.2516 111.371 36.0988 111.025 35.9578C110.678 35.8168 110.356 35.6484 110.057 35.4526C109.765 35.2489 109.521 35.0021 109.325 34.7123C109.128 34.4146 109.029 34.0386 109.029 33.5843C109.029 32.9419 109.254 32.4327 109.702 32.0567C110.151 31.6807 110.789 31.4927 111.615 31.4927C112.095 31.4927 112.532 31.5279 112.925 31.5984C113.319 31.6689 113.626 31.759 113.846 31.8687L113.551 32.7265C113.37 32.6403 113.102 32.558 112.748 32.4797C112.402 32.4014 112.008 32.3622 111.568 32.3622C111.048 32.3622 110.659 32.4797 110.399 32.7147C110.139 32.9419 110.009 33.2122 110.009 33.5255C110.009 33.831 110.108 34.0856 110.304 34.2893C110.501 34.493 110.745 34.677 111.036 34.8415C111.335 34.9982 111.658 35.1549 112.004 35.3116C112.351 35.4682 112.67 35.6523 112.961 35.8638C113.26 36.0675 113.508 36.3143 113.704 36.6041C113.901 36.894 114 37.2543 114 37.6852C114 38.0377 113.937 38.3549 113.811 38.6369C113.685 38.9189 113.5 39.1618 113.256 39.3655C113.012 39.5691 112.717 39.7258 112.37 39.8355C112.024 39.9452 111.631 40 111.19 40C110.6 40 110.112 39.953 109.726 39.859C109.34 39.7728 109.041 39.6749 108.829 39.5652L109.159 38.6839C109.34 38.7858 109.608 38.8876 109.962 38.9895C110.316 39.0835 110.714 39.1305 111.154 39.1305C111.414 39.1305 111.658 39.107 111.886 39.06C112.115 39.0051 112.311 38.9229 112.477 38.8132C112.642 38.6957 112.772 38.5508 112.866 38.3784C112.969 38.2061 113.02 38.0024 113.02 37.7674Z" fill="white"/>
</svg>
