<svg width="19" height="21" viewBox="0 0 19 21" fill="none" xmlns="http://www.w3.org/2000/svg">
<path d="M4.30948 14.6139C4.61561 14.6139 4.87783 14.4287 5.09546 14.0576C7.08653 10.527 8.12227 8.68918 8.20312 8.54359L6.22018 5.08566C6.01051 4.72291 5.74444 4.5415 5.42221 4.5415H2.53215C2.34645 4.5415 2.21784 4.60196 2.14517 4.72288C2.05641 4.84379 2.06048 4.99301 2.1572 5.17009L4.10387 8.54359C4.11179 8.55217 4.11179 8.55584 4.10387 8.55584L1.04465 13.9731C0.964284 14.1266 0.964284 14.2716 1.04465 14.4081C1.12505 14.5456 1.25026 14.6139 1.41942 14.6139H4.30948Z" fill="white"/>
<path d="M17.574 0.599609H14.66C14.3457 0.599609 14.0875 0.780983 13.8862 1.14377C9.75081 8.47946 7.61048 12.2766 7.46533 12.5341L11.5643 20.0555C11.7577 20.4182 12.0238 20.5996 12.3623 20.5996H15.2521C15.4294 20.5996 15.5585 20.5392 15.6391 20.4182C15.7195 20.2808 15.7156 20.1316 15.6271 19.9706L11.5645 12.5341V12.5223L17.949 1.22842C18.0376 1.0593 18.0376 0.910519 17.949 0.781205C17.8763 0.660067 17.7513 0.599609 17.574 0.599609Z" fill="white"/>
</svg>
